<svg version="1" xmlns="http://www.w3.org/2000/svg" xmlns:xlink="http://www.w3.org/1999/xlink" width="1280" height="450" viewBox="0 0 1280 450"><path fill="#03A678" d="M0 0h1279.574v1786.675H0z"/><path fill="none" stroke="#6C9" stroke-width="4.38" stroke-miterlimit="10" d="M283.585 207.64l-31.963 3 15.262 29.38z"/><defs><path id="a" d="M2.15.162l-.408 1785.676H1278.26V.162z"/></defs><clipPath id="b"><use xlink:href="#a" overflow="visible"/></clipPath><path clip-path="url(#b)" fill="none" stroke="#6C9" stroke-width="4.38" stroke-miterlimit="10" d="M180.685 526.91a239.414 239.414 0 0 1-3.108-3.918"/><path clip-path="url(#b)" fill="none" stroke="#6C9" stroke-width="4.38" stroke-miterlimit="10" stroke-dasharray="10.063,10.063" d="M171.577 514.91c-52.16-73.64-26.856-134.11-4.892-150 47-34 101.006 6.3 133-38 23.527-32.576 8.57-79.892-18.2-98.23"/><path clip-path="url(#b)" fill="none" stroke="#6C9" stroke-width="4.38" stroke-miterlimit="10" d="M277.2 226.05a44.603 44.603 0 0 0-4.515-2.14M975.585 64.64l-31.963 3 15.262 29.38zM872.685 383.91c-1.355-1.01-2.68-2.02-3.975-3.035"/><path clip-path="url(#b)" fill="none" stroke="#6C9" stroke-width="4.38" stroke-miterlimit="10" stroke-dasharray="9.973,9.973" d="M861.02 374.52c-74.462-64.97-34.76-139.26-2.335-152.61 57.724-23.77 101.007 6.3 133-38 23.54-32.592 8.556-79.935-18.236-98.255"/><path clip-path="url(#b)" fill="none" stroke="#6C9" stroke-width="4.38" stroke-miterlimit="10" d="M969.2 83.05a44.618 44.618 0 0 0-4.516-2.14M1189.813 133.678l-31.626-5.514 6.998 32.36z"/><path clip-path="url(#b)" fill="none" stroke="#6C9" stroke-width="4.38" stroke-miterlimit="10" stroke-dasharray="10,10" d="M989.41 309.32c54.54 49.044 132.757 49.524 177.965 8.51 51.147-46.4 55.18-141.51 9.285-170.998"/><path clip-path="url(#b)" fill="none" stroke="#6C9" stroke-width="4.38" stroke-miterlimit="10" d="M32.177 85.678l31.627-5.514-6.998 32.362z"/><path clip-path="url(#b)" fill="none" stroke="#6C9" stroke-width="4.38" stroke-miterlimit="10" stroke-dasharray="10,10" d="M232.58 261.32c-54.54 49.044-132.756 49.524-177.964 8.51C3.47 223.43-.564 128.32 45.33 98.833"/><path clip-path="url(#b)" fill="none" stroke="#6C9" stroke-width="4.38" stroke-miterlimit="10" d="M1209.333 63.057l18.906-25.946 17.46 28.132z"/><path clip-path="url(#b)" fill="none" stroke="#6C9" stroke-width="4.38" stroke-miterlimit="10" stroke-dasharray="10,10" d="M1475.495 50.06c-5.127 73.168-61.03 127.875-122.04 129.806-69.024 2.186-138.026-63.392-125.523-116.493M654.685 322.91c-75.054 54.937-138.408 31.424-168.585-15.002-35.98-55.355-.292-127.1 2.322-132.312"/><path clip-path="url(#b)" fill="none" stroke="#6C9" stroke-width="4.38" stroke-miterlimit="10" d="M504.198 183.032l-4.463-31.792-28.65 16.595z"/><path clip-path="url(#b)" fill="none" stroke="#6C9" stroke-width="5" stroke-miterlimit="10" d="M590.565 289.99h-31.76c-5.17 0-9.398-4.23-9.398-9.396V259.11c0-5.17 4.23-9.398 9.398-9.398h31.76c5.168 0 9.397 4.23 9.397 9.397v21.484c0 5.168-4.23 9.396-9.397 9.396z"/><path clip-path="url(#b)" fill="none" stroke="#6C9" stroke-width="5" stroke-miterlimit="10" d="M565.437 249.768v-2.99c0-5.168 4.23-9.397 9.397-9.397h.523c5.17 0 9.398 4.23 9.398 9.4v2.988M171.314 638.98h-31.76c-5.17 0-9.398-4.23-9.398-9.397V608.1c0-5.17 4.23-9.398 9.398-9.398h31.76c5.17 0 9.397 4.228 9.397 9.397v21.483c0 5.167-4.226 9.396-9.396 9.396z"/><path clip-path="url(#b)" fill="none" stroke="#6C9" stroke-width="5" stroke-miterlimit="10" d="M146.187 598.756v-2.99c0-5.168 4.23-9.396 9.397-9.396h.523c5.17 0 9.398 4.23 9.398 9.397v2.99M160.685 207.945l-36.968-27.116-37.532 27.115v-15.253l37.532-27.116 36.844 27.116z"/><path clip-path="url(#b)" fill="none" stroke="#6C9" stroke-width="5" stroke-miterlimit="10" d="M148.524 199.73V229.9h-49V199.73M1122.41 72.873l-36.83-27.117-37.395 27.117V57.62l37.395-27.117 36.775 27.117z"/><path clip-path="url(#b)" fill="none" stroke="#6C9" stroke-width="5" stroke-miterlimit="10" d="M1110.182 64.66v30.166h-49V64.66M813.324 134.535l26.36 46.874M873.458 100.063l-60.82 33.633-15.728-28.44 60.82-33.633 23.116 4.327z"/><path clip-path="url(#b)" fill="none" stroke="#6C9" stroke-width="4.38" stroke-miterlimit="10" stroke-dasharray="10,10" d="M614.685 428.91c65.02 3.817 87.175-24.88 92.21-49.048 3.733-17.924-4.59-41.518 3.02-62.43 9.597-26.376 31.72-40.782 56.77-46.522"/><path clip-path="url(#b)" fill="none" stroke="#6C9" stroke-width="4.38" stroke-miterlimit="10" d="M769.36 288.627l22.188-23.203-30.778-12.203z"/><path clip-path="url(#b)" fill="none" stroke="#6C9" stroke-width="4.38" stroke-miterlimit="10" stroke-dasharray="10,10" d="M439.548 209.91c-65.022 3.817-87.175-24.88-92.21-49.048-3.733-17.924 4.59-41.518-3.02-62.43-9.597-26.376-31.72-40.782-56.77-46.523"/><path clip-path="url(#b)" fill="none" stroke="#6C9" stroke-width="4.38" stroke-miterlimit="10" d="M284.872 69.626l-22.187-23.202 30.778-12.203z"/><path clip-path="url(#b)" fill="none" stroke="#6C9" stroke-width="4.38" stroke-miterlimit="10" stroke-dasharray="10,10" d="M1341.548 530.91c-65.02 3.817-87.175-24.88-92.21-49.048-3.733-17.924 4.59-41.518-3.02-62.43-9.598-26.376-31.72-40.782-56.77-46.522"/><path clip-path="url(#b)" fill="none" stroke="#6C9" stroke-width="4.38" stroke-miterlimit="10" d="M1186.872 390.627l-22.187-23.203 30.778-12.203z"/><path clip-path="url(#b)" fill="none" stroke="#6C9" stroke-width="4.38" stroke-miterlimit="10" stroke-dasharray="10,10" d="M-91.09 541.492c-9.082-64.497 17.724-88.906 41.402-95.885 17.562-5.178 41.753 1.203 61.98-8.078 25.51-11.707 38.073-34.925 41.76-60.36"/><path clip-path="url(#b)" fill="none" stroke="#6C9" stroke-width="4.38" stroke-miterlimit="10" d="M36.177 375.94l21.326-23.996 14.66 29.687z"/><path clip-path="url(#b)" fill="none" stroke="#6C9" stroke-width="5" stroke-miterlimit="10" d="M360.396 278.35h40.557c6.6 0 12.232 4.96 12.232 11.56v15.187c0 6.6-5.632 12.255-12.232 12.255h-4.402c-1.17 4 2.267 7.954 2.267 7.954s-12.286 3.046-13.406-7.954h-25.014c-6.6 0-12.21-5.655-12.21-12.255V289.91c0-6.6 5.61-11.56 12.21-11.56z"/><path clip-path="url(#b)" fill="#6C9" d="M360.694 290.76v5.324c.662-.955 1.726-1.727 3.12-1.727 1.707 0 2.735.918 2.735 2.882v6.516h-1.91v-6.02c0-1.415-.586-1.69-1.45-1.69-1.045 0-2.496 1.34-2.496 3.8v3.91h-1.908V290.76h1.908zM377.108 299.662h-6.552c0 1.358.79 2.552 2.294 2.552.99 0 1.946-.552 2.423-1.56l1.633.642c-.9 1.743-1.946 2.605-4.056 2.605-3.047 0-4.313-2.568-4.313-4.77s1.266-4.772 4.313-4.772c2.955 0 4.258 2.405 4.258 4.48v.824zm-6.516-1.597h4.497c-.165-1.028-.863-2.02-2.24-2.02-1.267.002-2.056.863-2.258 2.02M379.188 290.76h1.908v12.995h-1.908zM383.598 290.76h1.908v12.995h-1.908zM392.116 294.357c2.862 0 4.55 2.166 4.55 4.77 0 2.607-1.688 4.773-4.55 4.773-2.863 0-4.552-2.166-4.552-4.772 0-2.605 1.688-4.77 4.552-4.77m0 7.855c1.67 0 2.532-1.523 2.532-3.084 0-1.56-.863-3.083-2.532-3.083-1.67 0-2.533 1.522-2.533 3.082 0 1.56.86 3.083 2.533 3.083M400.84 301.075c.806 0 1.393.588 1.393 1.377s-.587 1.376-1.394 1.376-1.396-.587-1.396-1.376.588-1.377 1.395-1.377m1.302-10.168l-.496 8.792h-1.614l-.496-8.793h2.606z"/><path clip-path="url(#b)" fill="none" stroke="#6C9" stroke-width="4.38" stroke-miterlimit="10" stroke-dasharray="10,10" d="M683.685 587.91c-75.054 54.937-138.408 31.424-168.585-15.002-35.98-55.355-.292-127.1 2.322-132.312"/><path clip-path="url(#b)" fill="none" stroke="#6C9" stroke-width="4.38" stroke-miterlimit="10" d="M533.198 448.032l-4.463-31.792-28.65 16.595z"/><path clip-path="url(#b)" fill="none" stroke="#6C9" stroke-width="5" stroke-miterlimit="10" d="M364.148 493.256l-37.2-27.116-37.764 27.116v-15.254l37.765-27.115 36.958 27.115z"/><path clip-path="url(#b)" fill="none" stroke="#6C9" stroke-width="5" stroke-miterlimit="10" d="M351.987 485.04v30.17h-49v-30.17M104.433 547.535l-26.36 46.874M44.298 513.063l60.82 33.633 15.728-28.44-60.82-33.633-23.115 4.326z"/><path clip-path="url(#b)" fill="none" stroke="#6C9" stroke-width="4.38" stroke-miterlimit="10" stroke-dasharray="10,10" d="M853.91 563.492c-9.083-64.497 17.724-88.906 41.4-95.885 17.563-5.178 41.754 1.203 61.98-8.078 25.51-11.707 38.073-34.925 41.762-60.36"/><path clip-path="url(#b)" fill="none" stroke="#6C9" stroke-width="4.38" stroke-miterlimit="10" d="M981.177 397.94l21.326-23.996 14.66 29.687z"/><path clip-path="url(#b)" fill="none" stroke="#6C9" stroke-width="4.38" stroke-miterlimit="10" stroke-dasharray="10,10" d="M619.91 217.492c-9.082-64.497 17.724-88.906 41.402-95.885 17.562-5.177 41.753 1.204 61.98-8.078 25.51-11.707 38.072-34.925 41.76-60.36"/><path clip-path="url(#b)" fill="none" stroke="#6C9" stroke-width="4.38" stroke-miterlimit="10" d="M747.177 51.94l21.326-23.996 14.66 29.687z"/><path clip-path="url(#b)" fill="none" stroke="#6C9" stroke-width="5" stroke-miterlimit="10" d="M615.974 45.35h-63.557c-6.6 0-12.232 4.96-12.232 11.56v15.186c0 6.6 5.632 12.255 12.232 12.255h4.402c1.17 4-2.267 7.955-2.267 7.955s12.286 3.046 13.406-7.954h48.014c6.6 0 12.21-5.654 12.21-12.254V56.91c0-6.6-5.61-11.56-12.21-11.56z"/><path clip-path="url(#b)" fill="#6C9" d="M557.188 62.02l-1.292 1.137c-.49-.626-1.096-.9-1.722-.9-.51 0-.978.333-.978.978 0 .705.743 1.02 1.76 1.41 1.332.51 2.76 1.096 2.76 2.857 0 1.704-1.31 3.132-3.425 3.132-2.034 0-3.307-1.41-3.816-2.643l1.723-.938c.39.88 1.077 1.78 2.172 1.78.783 0 1.33-.39 1.33-1.29 0-.862-1.194-1.097-2.348-1.586-1.135-.47-2.114-1.194-2.114-2.7 0-1.528 1.252-2.8 3.034-2.8 1.194 0 2.29.586 2.916 1.565M563.555 64.41h1.702v-.43c0-1.235-.88-1.724-1.918-1.724-.803 0-1.507.43-1.84 1.312l-1.86-.392c.41-1.664 1.82-2.72 3.72-2.72 2.29 0 3.934.997 3.934 3.894v6.127h-1.723l-.195-1.293c-.646.9-1.663 1.45-3.053 1.45-1.644 0-3.034-.94-3.034-2.996 0-2.034 1.74-3.23 4.267-3.23m-.88 4.425c1.252 0 2.582-.802 2.582-2.505v-.216h-1.78c-1.253 0-2.036.59-2.036 1.527 0 .665.372 1.193 1.234 1.193M569.883 56.62h2.036v13.857h-2.037zM578.478 64.41h1.702v-.43c0-1.235-.88-1.724-1.918-1.724-.802 0-1.506.43-1.84 1.312l-1.86-.392c.413-1.664 1.82-2.72 3.72-2.72 2.29 0 3.935.997 3.935 3.894v6.127h-1.723l-.196-1.293c-.646.9-1.663 1.45-3.053 1.45-1.644 0-3.034-.94-3.034-2.996 0-2.034 1.743-3.23 4.268-3.23m-.88 4.425c1.252 0 2.582-.802 2.582-2.505v-.216h-1.78c-1.253 0-2.036.59-2.036 1.527 0 .665.372 1.193 1.233 1.193M588.446 64.41h1.702v-.43c0-1.235-.88-1.724-1.918-1.724-.802 0-1.507.43-1.84 1.312l-1.86-.392c.412-1.664 1.82-2.72 3.72-2.72 2.29 0 3.935.997 3.935 3.894v6.127h-1.723l-.196-1.293c-.646.9-1.663 1.45-3.053 1.45-1.644 0-3.034-.94-3.034-2.996 0-2.034 1.74-3.23 4.266-3.23m-.88 4.425c1.252 0 2.582-.802 2.582-2.505v-.216h-1.78c-1.253 0-2.036.59-2.036 1.527 0 .665.372 1.193 1.233 1.193M596.75 60.612v1.683c.803-1.232 1.782-1.84 2.976-1.84 1.33 0 2.427.804 2.72 2.036.686-1.29 1.8-2.034 3.074-2.034 1.8 0 2.818 1.232 2.818 2.955v7.067h-2.036v-6.615c0-1.078-.586-1.605-1.447-1.605-1.214 0-2.31 1.546-2.31 4.266v3.954h-2.036v-6.615c0-1.078-.588-1.605-1.45-1.605-1.232 0-2.31 1.546-2.31 4.48v3.74h-2.035v-9.865h2.036zM613.377 67.62c.862 0 1.488.626 1.488 1.468 0 .84-.626 1.468-1.488 1.468-.86 0-1.488-.627-1.488-1.468 0-.842.627-1.468 1.487-1.468m1.39-10.845l-.527 9.376h-1.723l-.53-9.375h2.78z"/><path clip-path="url(#b)" fill="none" stroke="#6C9" stroke-width="5" stroke-miterlimit="10" d="M1159.974 521.35h-63.557c-6.6 0-12.232 4.96-12.232 11.56v15.187c0 6.6 5.632 12.255 12.232 12.255h4.4c1.172 4-2.265 7.954-2.265 7.954s12.286 3.046 13.405-7.954h48.016c6.6 0 12.21-5.655 12.21-12.255V532.91c.002-6.6-5.61-11.56-12.21-11.56z"/><path clip-path="url(#b)" fill="#6C9" d="M1101.188 538.02l-1.292 1.137c-.488-.625-1.095-.9-1.722-.9-.51 0-.978.334-.978.98 0 .704.742 1.02 1.76 1.408 1.332.51 2.76 1.097 2.76 2.858 0 1.703-1.31 3.132-3.425 3.132-2.034 0-3.308-1.41-3.816-2.644l1.723-.937c.392.88 1.077 1.78 2.173 1.78.784 0 1.332-.39 1.332-1.29 0-.862-1.195-1.097-2.35-1.587-1.135-.47-2.114-1.193-2.114-2.7 0-1.527 1.252-2.8 3.034-2.8 1.194 0 2.29.586 2.916 1.565M1107.555 540.41h1.702v-.43c0-1.234-.88-1.725-1.918-1.725-.804 0-1.51.43-1.84 1.312l-1.86-.392c.41-1.664 1.82-2.722 3.72-2.722 2.29 0 3.935.998 3.935 3.896v6.126h-1.724l-.195-1.293c-.646.9-1.662 1.448-3.053 1.448-1.644 0-3.034-.937-3.034-2.993 0-2.033 1.74-3.228 4.267-3.228m-.88 4.422c1.252 0 2.582-.802 2.582-2.504v-.217h-1.78c-1.253 0-2.036.59-2.036 1.528 0 .667.372 1.194 1.234 1.194M1113.883 532.62h2.036v13.856h-2.037zM1122.478 540.41h1.702v-.43c0-1.234-.88-1.725-1.918-1.725-.802 0-1.506.43-1.84 1.312l-1.86-.392c.412-1.664 1.82-2.722 3.72-2.722 2.292 0 3.936.998 3.936 3.896v6.126h-1.723l-.196-1.293c-.647.9-1.664 1.448-3.054 1.448-1.645 0-3.034-.937-3.034-2.993 0-2.033 1.74-3.228 4.266-3.228m-.88 4.422c1.252 0 2.582-.802 2.582-2.504v-.217h-1.78c-1.253 0-2.035.59-2.035 1.528 0 .667.37 1.194 1.232 1.194M1132.445 540.41h1.702v-.43c0-1.234-.88-1.725-1.918-1.725-.803 0-1.508.43-1.84 1.312l-1.86-.392c.412-1.664 1.82-2.722 3.72-2.722 2.29 0 3.935.998 3.935 3.896v6.126h-1.723l-.196-1.293c-.646.9-1.663 1.448-3.053 1.448-1.644 0-3.034-.937-3.034-2.993 0-2.033 1.74-3.228 4.265-3.228m-.88 4.422c1.253 0 2.582-.802 2.582-2.504v-.217h-1.78c-1.252 0-2.035.59-2.035 1.528 0 .667.372 1.194 1.233 1.194M1140.75 536.61v1.685c.803-1.232 1.78-1.84 2.976-1.84 1.33 0 2.427.804 2.72 2.035.687-1.29 1.802-2.034 3.074-2.034 1.8 0 2.818 1.232 2.818 2.954v7.066h-2.036v-6.615c0-1.077-.586-1.603-1.447-1.603-1.214 0-2.31 1.546-2.31 4.266v3.954h-2.036v-6.615c0-1.078-.588-1.604-1.45-1.604-1.232 0-2.31 1.546-2.31 4.48v3.74h-2.035v-9.866h2.036zM1157.378 543.62c.86 0 1.487.626 1.487 1.468 0 .84-.626 1.468-1.487 1.468s-1.488-.627-1.488-1.468c0-.842.627-1.47 1.488-1.47m1.39-10.843l-.528 9.376h-1.723l-.53-9.375h2.78z"/><path clip-path="url(#b)" fill="none" stroke="#6C9" stroke-width="5" stroke-linecap="round" stroke-miterlimit="10" d="M90.026 44.067c18.87-18.87 49.032-19.25 67.435-.846M97.727 54.18c14.51-14.51 37.702-14.802 51.853-.652M105.427 64.29c10.15-10.148 26.37-10.353 36.27-.456"/><path clip-path="url(#b)" fill="#6C9" d="M129.768 74.833a6.074 6.074 0 1 1-12.148 0 6.074 6.074 0 0 1 12.148 0"/><path clip-path="url(#b)" fill="none" stroke="#6C9" stroke-width="5" stroke-linecap="round" stroke-miterlimit="10" d="M388.026 400.067c18.87-18.87 49.033-19.25 67.435-.847M395.727 410.18c14.51-14.51 37.702-14.802 51.853-.652M403.427 420.29c10.15-10.148 26.37-10.353 36.27-.456"/><path clip-path="url(#b)" fill="#6C9" d="M427.768 430.834a6.074 6.074 0 1 1-12.15-.002 6.074 6.074 0 0 1 12.15.002"/><path clip-path="url(#b)" fill="none" stroke="#6C9" stroke-width="5" stroke-linecap="round" stroke-miterlimit="10" d="M885.026 269.067c18.87-18.87 49.032-19.25 67.435-.847M892.727 279.18c14.51-14.51 37.702-14.802 51.853-.652M900.427 289.29c10.148-10.148 26.37-10.353 36.27-.456"/><path clip-path="url(#b)" fill="#6C9" d="M924.768 299.834a6.075 6.075 0 1 1-12.15-.003 6.075 6.075 0 0 1 12.15.003"/><path clip-path="url(#b)" fill="none" stroke="#6C9" stroke-width="5" stroke-linecap="round" stroke-miterlimit="10" d="M402.142 558.17l-16.72 10.71 16.72 11.82M441.495 580.7l16.718-10.708-16.718-11.822"/><path clip-path="url(#b)" fill="none" stroke="#6C9" stroke-width="5" stroke-linecap="round" stroke-linejoin="bevel" stroke-miterlimit="10" d="M411.087 588.738l21.46-39.124"/><path clip-path="url(#b)" fill="none" stroke="#6C9" stroke-width="5" stroke-linecap="round" stroke-miterlimit="10" d="M192.142 123.17l-16.72 10.71 16.72 11.82M231.495 145.7l16.717-10.708-16.717-11.822"/><path clip-path="url(#b)" fill="none" stroke="#6C9" stroke-width="5" stroke-linecap="round" stroke-linejoin="bevel" stroke-miterlimit="10" d="M201.087 153.738l21.46-39.124"/><path clip-path="url(#b)" fill="none" stroke="#6C9" stroke-width="5" stroke-linecap="round" stroke-miterlimit="10" d="M1086.142 414.17l-16.718 10.71 16.718 11.82M1125.495 436.7l16.718-10.708-16.718-11.822"/><path clip-path="url(#b)" fill="none" stroke="#6C9" stroke-width="5" stroke-linecap="round" stroke-linejoin="bevel" stroke-miterlimit="10" d="M1095.087 444.738l21.46-39.124"/><path clip-path="url(#b)" fill="none" stroke="#6C9" stroke-width="5" stroke-linecap="round" stroke-miterlimit="10" d="M699.142 175.17l-16.718 10.71 16.718 11.82M738.495 197.7l16.718-10.708-16.718-11.822"/><path clip-path="url(#b)" fill="none" stroke="#6C9" stroke-width="5" stroke-linecap="round" stroke-linejoin="bevel" stroke-miterlimit="10" d="M708.087 205.738l21.46-39.124"/><path clip-path="url(#b)" fill="none" stroke="#6C9" stroke-width="5" stroke-linecap="round" stroke-miterlimit="10" d="M764.142 410.17l-16.718 10.71 16.718 11.82M803.495 432.7l16.718-10.708-16.718-11.822"/><path clip-path="url(#b)" fill="none" stroke="#6C9" stroke-width="5" stroke-linecap="round" stroke-linejoin="bevel" stroke-miterlimit="10" d="M773.087 440.738l21.46-39.124"/><path clip-path="url(#b)" fill="none" stroke="#6C9" stroke-width="5" stroke-miterlimit="10" d="M592.396 491.35h40.557c6.6 0 12.232 4.96 12.232 11.56v15.187c0 6.6-5.632 12.255-12.232 12.255h-4.402c-1.17 4 2.267 7.954 2.267 7.954s-12.286 3.046-13.406-7.954h-25.014c-6.6 0-12.21-5.655-12.21-12.255V502.91c0-6.6 5.61-11.56 12.21-11.56z"/><path clip-path="url(#b)" fill="#6C9" d="M593.187 503.836v5.385c.668-.964 1.746-1.744 3.157-1.744 1.727 0 2.767.93 2.767 2.915v6.594h-1.93v-6.09c0-1.43-.595-1.71-1.468-1.71-1.058 0-2.525 1.355-2.525 3.844v3.956h-1.932v-13.147h1.932zM605.32 511.227h1.615v-.407c0-1.17-.835-1.636-1.82-1.636-.76 0-1.43.408-1.745 1.244l-1.764-.37c.39-1.58 1.727-2.583 3.528-2.583 2.173 0 3.733.947 3.733 3.696v5.814h-1.635l-.185-1.228c-.613.855-1.58 1.375-2.897 1.375-1.56 0-2.878-.89-2.878-2.84 0-1.93 1.652-3.063 4.047-3.063m-.836 4.196c1.19 0 2.45-.76 2.45-2.377v-.204h-1.69c-1.187 0-1.93.56-1.93 1.448 0 .633.353 1.133 1.17 1.133M611.324 503.836h1.932v13.148h-1.932zM615.784 503.836h1.932v13.148h-1.932zM624.403 507.475c2.897 0 4.606 2.19 4.606 4.828 0 2.64-1.71 4.83-4.607 4.83s-4.605-2.19-4.605-4.83c0-2.637 1.708-4.828 4.605-4.828m0 7.948c1.69 0 2.563-1.54 2.563-3.12 0-1.578-.873-3.12-2.563-3.12s-2.563 1.542-2.563 3.12c0 1.58.873 3.12 2.563 3.12M633.23 514.27c.817 0 1.41.597 1.41 1.395 0 .8-.593 1.393-1.41 1.393-.818 0-1.412-.594-1.412-1.393 0-.798.594-1.394 1.41-1.394m1.32-10.286l-.5 8.896h-1.636l-.5-8.896h2.636z"/><circle clip-path="url(#b)" fill="none" stroke="#6C9" stroke-width="5" stroke-miterlimit="10" cx="231.685" cy="413.851" r="21"/><path clip-path="url(#b)" fill="#6C9" d="M231.595 399.938c1.58 0 2.772 1.27 2.772 2.81 0 1.543-1.193 2.733-2.772 2.733s-2.773-1.19-2.773-2.732c0-1.54 1.194-2.81 2.773-2.81m2.002 8.278v19.407h-4.004v-19.407h4.004z"/><circle clip-path="url(#b)" fill="none" stroke="#6C9" stroke-width="5" stroke-miterlimit="10" cx="1074.685" cy="228.851" r="21"/><path clip-path="url(#b)" fill="#6C9" d="M1074.595 214.938c1.58 0 2.77 1.27 2.77 2.81 0 1.543-1.19 2.733-2.77 2.733s-2.773-1.19-2.773-2.732c0-1.54 1.194-2.81 2.773-2.81m2.002 8.278v19.407h-4.004v-19.407h4.004z"/><circle clip-path="url(#b)" fill="none" stroke="#6C9" stroke-width="5" stroke-miterlimit="10" cx="749.685" cy="554.851" r="21"/><path clip-path="url(#b)" fill="#6C9" d="M749.595 540.938c1.58 0 2.77 1.27 2.77 2.81 0 1.543-1.19 2.735-2.77 2.735-1.578 0-2.773-1.192-2.773-2.734s1.195-2.812 2.773-2.812m2.002 27.686h-4.004v-19.408h4.004v19.408z"/><path clip-path="url(#b)" fill="none" stroke="#6C9" stroke-width="5" stroke-miterlimit="10" d="M428.598 139.85h-21.794c-5.137 0-9.34-4.2-9.34-9.34V85.367c0-5.138 4.203-9.34 9.34-9.34h21.794c5.137 0 9.34 4.202 9.34 9.34v45.145c0 5.138-4.204 9.34-9.34 9.34zM396.685 126.35h41"/><path clip-path="url(#b)" fill="#6C9" d="M429 87.95a3.19 3.19 0 1 1-6.384 0 3.19 3.19 0 0 1 6.385 0"/><path clip-path="url(#b)" fill="none" stroke="#6C9" stroke-width="5" stroke-linecap="round" stroke-miterlimit="10" d="M447.79 82.42c0-9.544-7.722-17.266-17.265-17.266M459.33 80.958c0-14.815-11.99-26.805-26.805-26.805"/><path clip-path="url(#b)" fill="none" stroke="#6C9" stroke-width="5" stroke-miterlimit="10" d="M950.598 595.85h-21.794c-5.138 0-9.34-4.2-9.34-9.34v-45.145c0-5.138 4.202-9.34 9.34-9.34h21.794c5.137 0 9.34 4.202 9.34 9.34v45.146c0 5.138-4.204 9.34-9.34 9.34zM918.685 582.35h41"/><path clip-path="url(#b)" fill="#6C9" d="M951 543.95a3.188 3.188 0 0 1-3.19 3.19 3.19 3.19 0 1 1 3.19-3.19"/><path clip-path="url(#b)" fill="none" stroke="#6C9" stroke-width="5" stroke-linecap="round" stroke-miterlimit="10" d="M969.79 538.42c0-9.544-7.722-17.266-17.265-17.266M981.33 536.958c0-14.815-11.99-26.805-26.806-26.805"/><path clip-path="url(#b)" fill="none" stroke="#6C9" stroke-width="4.38" stroke-miterlimit="10" d="M283.585 1427.64l-31.963 3 15.262 29.38zM180.685 1746.91a235.172 235.172 0 0 1-3.108-3.918"/><path clip-path="url(#b)" fill="none" stroke="#6C9" stroke-width="4.38" stroke-miterlimit="10" stroke-dasharray="10.063,10.063" d="M171.577 1734.91c-52.16-73.64-26.856-134.11-4.892-150 47-34 101.006 6.3 133-38 23.527-32.576 8.57-79.892-18.2-98.23"/><path clip-path="url(#b)" fill="none" stroke="#6C9" stroke-width="4.38" stroke-miterlimit="10" d="M277.2 1446.05a44.603 44.603 0 0 0-4.515-2.14M975.585 1284.64l-31.963 3 15.262 29.38zM872.685 1603.91c-1.355-1.01-2.68-2.02-3.975-3.035"/><path clip-path="url(#b)" fill="none" stroke="#6C9" stroke-width="4.38" stroke-miterlimit="10" stroke-dasharray="9.973,9.973" d="M861.02 1594.52c-74.462-64.968-34.76-139.26-2.335-152.61 57.724-23.77 101.007 6.3 133-38 23.54-32.59 8.556-79.935-18.236-98.254"/><path clip-path="url(#b)" fill="none" stroke="#6C9" stroke-width="4.38" stroke-miterlimit="10" d="M969.2 1303.05a44.618 44.618 0 0 0-4.516-2.14M1189.813 1353.678l-31.626-5.514 6.998 32.36z"/><path clip-path="url(#b)" fill="none" stroke="#6C9" stroke-width="4.38" stroke-miterlimit="10" stroke-dasharray="10,10" d="M989.41 1529.32c54.54 49.044 132.757 49.524 177.965 8.51 51.147-46.4 55.18-141.51 9.285-170.998"/><path clip-path="url(#b)" fill="none" stroke="#6C9" stroke-width="4.38" stroke-miterlimit="10" d="M32.177 1305.678l31.627-5.514-6.998 32.36z"/><path clip-path="url(#b)" fill="none" stroke="#6C9" stroke-width="4.38" stroke-miterlimit="10" stroke-dasharray="10,10" d="M232.58 1481.32c-54.54 49.044-132.756 49.524-177.964 8.51-51.147-46.4-55.18-141.51-9.285-170.998"/><path clip-path="url(#b)" fill="none" stroke="#6C9" stroke-width="4.38" stroke-miterlimit="10" d="M1209.333 1283.057l18.906-25.946 17.46 28.132z"/><path clip-path="url(#b)" fill="none" stroke="#6C9" stroke-width="4.38" stroke-miterlimit="10" stroke-dasharray="10,10" d="M1475.495 1270.06c-5.127 73.168-61.03 127.875-122.04 129.806-69.024 2.186-138.026-63.392-125.523-116.493M654.685 1542.91c-75.054 54.937-138.408 31.424-168.585-15.003-35.98-55.354-.292-127.1 2.322-132.312"/><path clip-path="url(#b)" fill="none" stroke="#6C9" stroke-width="4.38" stroke-miterlimit="10" d="M504.198 1403.032l-4.463-31.792-28.65 16.595z"/><path clip-path="url(#b)" fill="none" stroke="#6C9" stroke-width="5" stroke-miterlimit="10" d="M590.565 1509.99h-31.76c-5.17 0-9.398-4.23-9.398-9.396v-21.485c0-5.17 4.23-9.397 9.398-9.397h31.76c5.168 0 9.397 4.228 9.397 9.396v21.484c0 5.168-4.23 9.396-9.397 9.396z"/><path clip-path="url(#b)" fill="none" stroke="#6C9" stroke-width="5" stroke-miterlimit="10" d="M565.437 1469.767v-2.988c0-5.17 4.23-9.4 9.397-9.4h.523c5.17 0 9.398 4.23 9.398 9.4v2.987M160.685 1427.945l-36.968-27.116-37.532 27.115v-15.253l37.532-27.116 36.844 27.116z"/><path clip-path="url(#b)" fill="none" stroke="#6C9" stroke-width="5" stroke-miterlimit="10" d="M148.524 1419.73v30.168h-49v-30.167M1122.41 1292.872l-36.83-27.115-37.395 27.115v-15.253l37.395-27.116 36.775 27.115z"/><path clip-path="url(#b)" fill="none" stroke="#6C9" stroke-width="5" stroke-miterlimit="10" d="M1110.182 1284.658v30.167h-49v-30.167M813.324 1354.535l26.36 46.874M873.458 1320.063l-60.82 33.633-15.728-28.44 60.82-33.634 23.116 4.327z"/><path clip-path="url(#b)" fill="none" stroke="#6C9" stroke-width="4.38" stroke-miterlimit="10" stroke-dasharray="10,10" d="M614.685 1648.91c65.02 3.817 87.175-24.88 92.21-49.048 3.733-17.924-4.59-41.518 3.02-62.43 9.597-26.376 31.72-40.782 56.77-46.523"/><path clip-path="url(#b)" fill="none" stroke="#6C9" stroke-width="4.38" stroke-miterlimit="10" d="M769.36 1508.627l22.188-23.203-30.778-12.203z"/><path clip-path="url(#b)" fill="none" stroke="#6C9" stroke-width="4.38" stroke-miterlimit="10" stroke-dasharray="10,10" d="M1341.548 1750.91c-65.02 3.817-87.175-24.88-92.21-49.048-3.733-17.924 4.59-41.518-3.02-62.43-9.598-26.376-31.72-40.782-56.77-46.523"/><path clip-path="url(#b)" fill="none" stroke="#6C9" stroke-width="4.38" stroke-miterlimit="10" d="M1186.872 1610.627l-22.187-23.203 30.778-12.203z"/><path clip-path="url(#b)" fill="none" stroke="#6C9" stroke-width="4.38" stroke-miterlimit="10" stroke-dasharray="10,10" d="M-91.09 1761.492c-9.082-64.497 17.724-88.906 41.402-95.886 17.562-5.177 41.753 1.204 61.98-8.077 25.51-11.707 38.073-34.925 41.76-60.36"/><path clip-path="url(#b)" fill="none" stroke="#6C9" stroke-width="4.38" stroke-miterlimit="10" d="M36.177 1595.94l21.326-23.996 14.66 29.688z"/><path clip-path="url(#b)" fill="none" stroke="#6C9" stroke-width="5" stroke-miterlimit="10" d="M360.396 1475.35h40.557c6.6 0 12.232 4.96 12.232 11.56v15.187c0 6.6-5.632 12.255-12.232 12.255h-4.402c-1.17 4 2.267 7.955 2.267 7.955s-12.286 3.045-13.406-7.955h-25.014c-6.6 0-12.21-5.655-12.21-12.255v-15.186c0-6.6 5.61-11.56 12.21-11.56z"/><path clip-path="url(#b)" fill="#6C9" d="M360.694 1487.76v5.324c.662-.955 1.726-1.727 3.12-1.727 1.707 0 2.735.918 2.735 2.882v6.516h-1.91v-6.02c0-1.415-.586-1.69-1.45-1.69-1.045 0-2.496 1.34-2.496 3.8v3.91h-1.908v-12.995h1.908zM377.108 1496.662h-6.552c0 1.358.79 2.552 2.294 2.552.99 0 1.946-.552 2.423-1.56l1.633.642c-.9 1.743-1.946 2.605-4.056 2.605-3.047 0-4.313-2.568-4.313-4.77s1.266-4.772 4.313-4.772c2.955 0 4.258 2.405 4.258 4.48v.824zm-6.516-1.597h4.497c-.165-1.028-.863-2.02-2.24-2.02-1.267.002-2.056.863-2.258 2.02M379.188 1487.76h1.908v12.995h-1.908zM383.598 1487.76h1.908v12.995h-1.908zM392.116 1491.357c2.862 0 4.55 2.166 4.55 4.772 0 2.604-1.688 4.77-4.55 4.77-2.863 0-4.552-2.166-4.552-4.77 0-2.607 1.688-4.773 4.552-4.773m0 7.857c1.67 0 2.532-1.524 2.532-3.084s-.863-3.083-2.532-3.083c-1.67 0-2.533 1.522-2.533 3.083 0 1.56.86 3.084 2.533 3.084M400.84 1498.075c.806 0 1.393.588 1.393 1.377s-.587 1.376-1.394 1.376-1.396-.587-1.396-1.376.588-1.377 1.395-1.377m1.302-10.168l-.496 8.792h-1.614l-.496-8.793h2.606z"/><path clip-path="url(#b)" fill="none" stroke="#6C9" stroke-width="4.38" stroke-miterlimit="10" stroke-dasharray="10,10" d="M683.685 1807.91c-75.054 54.937-138.408 31.423-168.585-15.003-35.98-55.354-.292-127.1 2.322-132.312"/><path clip-path="url(#b)" fill="none" stroke="#6C9" stroke-width="4.38" stroke-miterlimit="10" d="M533.198 1668.032l-4.463-31.792-28.65 16.595z"/><path clip-path="url(#b)" fill="none" stroke="#6C9" stroke-width="5" stroke-miterlimit="10" d="M364.148 1713.256l-37.2-27.116-37.764 27.116v-15.254l37.765-27.115 36.958 27.115z"/><path clip-path="url(#b)" fill="none" stroke="#6C9" stroke-width="5" stroke-miterlimit="10" d="M351.987 1705.042v30.167h-49v-30.168M104.433 1767.535l-26.36 46.874M44.298 1733.063l60.82 33.633 15.728-28.44-60.82-33.634-23.115 4.327z"/><path clip-path="url(#b)" fill="none" stroke="#6C9" stroke-width="4.38" stroke-miterlimit="10" stroke-dasharray="10,10" d="M853.91 1783.492c-9.083-64.497 17.724-88.906 41.4-95.886 17.563-5.177 41.754 1.204 61.98-8.077 25.51-11.707 38.073-34.925 41.762-60.36"/><path clip-path="url(#b)" fill="none" stroke="#6C9" stroke-width="4.38" stroke-miterlimit="10" d="M981.177 1617.94l21.326-23.996 14.66 29.688z"/><path clip-path="url(#b)" fill="none" stroke="#6C9" stroke-width="4.38" stroke-miterlimit="10" stroke-dasharray="10,10" d="M619.91 1437.492c-9.082-64.497 17.724-88.906 41.402-95.886 17.562-5.177 41.753 1.204 61.98-8.077 25.51-11.707 38.072-34.925 41.76-60.36"/><path clip-path="url(#b)" fill="none" stroke="#6C9" stroke-width="4.38" stroke-miterlimit="10" d="M747.177 1271.94l21.326-23.996 14.66 29.688z"/><path clip-path="url(#b)" fill="none" stroke="#6C9" stroke-width="5" stroke-miterlimit="10" d="M615.974 1265.35h-63.557c-6.6 0-12.232 4.96-12.232 11.56v15.187c0 6.6 5.632 12.255 12.232 12.255h4.402c1.17 4-2.267 7.955-2.267 7.955s12.286 3.045 13.406-7.955h48.014c6.6 0 12.21-5.655 12.21-12.255v-15.186c0-6.6-5.61-11.56-12.21-11.56z"/><path clip-path="url(#b)" fill="#6C9" d="M557.188 1282.02l-1.292 1.137c-.49-.626-1.096-.9-1.722-.9-.51 0-.978.334-.978.98 0 .704.743 1.02 1.76 1.408 1.332.51 2.76 1.097 2.76 2.858 0 1.704-1.31 3.132-3.425 3.132-2.034 0-3.307-1.41-3.816-2.644l1.723-.937c.39.88 1.077 1.78 2.172 1.78.783 0 1.33-.392 1.33-1.29 0-.863-1.194-1.1-2.348-1.587-1.135-.47-2.114-1.194-2.114-2.7 0-1.528 1.252-2.8 3.034-2.8 1.194 0 2.29.586 2.916 1.565M563.555 1284.41h1.702v-.43c0-1.235-.88-1.724-1.918-1.724-.803 0-1.507.43-1.84 1.312l-1.86-.392c.41-1.664 1.82-2.722 3.72-2.722 2.29 0 3.934.998 3.934 3.896v6.127h-1.723l-.195-1.293c-.646.9-1.663 1.45-3.053 1.45-1.644 0-3.034-.94-3.034-2.996 0-2.034 1.74-3.23 4.267-3.23m-.88 4.424c1.252 0 2.582-.802 2.582-2.505v-.216h-1.78c-1.253 0-2.036.59-2.036 1.528 0 .667.372 1.194 1.234 1.194M569.883 1276.62h2.036v13.856h-2.037zM578.478 1284.41h1.702v-.43c0-1.235-.88-1.724-1.918-1.724-.802 0-1.506.43-1.84 1.312l-1.86-.392c.413-1.664 1.82-2.722 3.72-2.722 2.29 0 3.935.998 3.935 3.896v6.127h-1.723l-.196-1.293c-.646.9-1.663 1.45-3.053 1.45-1.644 0-3.034-.94-3.034-2.996 0-2.034 1.743-3.23 4.268-3.23m-.88 4.424c1.252 0 2.582-.802 2.582-2.505v-.216h-1.78c-1.253 0-2.036.59-2.036 1.528 0 .667.372 1.194 1.233 1.194M588.446 1284.41h1.702v-.43c0-1.235-.88-1.724-1.918-1.724-.802 0-1.507.43-1.84 1.312l-1.86-.392c.412-1.664 1.82-2.722 3.72-2.722 2.29 0 3.935.998 3.935 3.896v6.127h-1.723l-.196-1.293c-.646.9-1.663 1.45-3.053 1.45-1.644 0-3.034-.94-3.034-2.996 0-2.034 1.74-3.23 4.266-3.23m-.88 4.424c1.252 0 2.582-.802 2.582-2.505v-.216h-1.78c-1.253 0-2.036.59-2.036 1.528 0 .667.372 1.194 1.233 1.194M596.75 1280.61v1.685c.803-1.232 1.782-1.84 2.976-1.84 1.33 0 2.427.804 2.72 2.035.686-1.29 1.8-2.034 3.074-2.034 1.8 0 2.818 1.232 2.818 2.955v7.066h-2.036v-6.615c0-1.076-.586-1.603-1.447-1.603-1.214 0-2.31 1.546-2.31 4.266v3.954h-2.036v-6.615c0-1.077-.588-1.604-1.45-1.604-1.232 0-2.31 1.546-2.31 4.48v3.74h-2.035v-9.866h2.036zM613.377 1287.62c.862 0 1.488.626 1.488 1.468 0 .84-.626 1.468-1.488 1.468-.86 0-1.488-.627-1.488-1.468 0-.842.627-1.47 1.487-1.47m1.39-10.843l-.527 9.376h-1.723l-.53-9.375h2.78z"/><path clip-path="url(#b)" fill="none" stroke="#6C9" stroke-width="5" stroke-miterlimit="10" d="M1159.974 1741.35h-63.557c-6.6 0-12.232 4.96-12.232 11.56v15.187c0 6.6 5.632 12.255 12.232 12.255h4.4c1.172 4-2.265 7.955-2.265 7.955s12.286 3.045 13.405-7.955h48.016c6.6 0 12.21-5.655 12.21-12.255v-15.186c.002-6.6-5.61-11.56-12.21-11.56z"/><path clip-path="url(#b)" fill="#6C9" d="M1101.188 1758.02l-1.292 1.137c-.488-.626-1.095-.9-1.722-.9-.51 0-.978.334-.978.98 0 .704.742 1.02 1.76 1.408 1.332.51 2.76 1.097 2.76 2.858 0 1.704-1.31 3.132-3.425 3.132-2.034 0-3.308-1.41-3.816-2.644l1.723-.937c.392.88 1.077 1.78 2.173 1.78.784 0 1.332-.392 1.332-1.29 0-.863-1.195-1.1-2.35-1.587-1.135-.47-2.114-1.194-2.114-2.7 0-1.528 1.252-2.8 3.034-2.8 1.194 0 2.29.586 2.916 1.565M1107.555 1760.41h1.702v-.43c0-1.235-.88-1.724-1.918-1.724-.804 0-1.51.43-1.84 1.312l-1.86-.392c.41-1.664 1.82-2.722 3.72-2.722 2.29 0 3.935.998 3.935 3.896v6.127h-1.724l-.195-1.293c-.646.9-1.662 1.45-3.053 1.45-1.644 0-3.034-.94-3.034-2.996 0-2.034 1.74-3.23 4.267-3.23m-.88 4.424c1.252 0 2.582-.802 2.582-2.505v-.216h-1.78c-1.253 0-2.036.59-2.036 1.528 0 .667.372 1.194 1.234 1.194M1113.883 1752.62h2.036v13.856h-2.037zM1122.478 1760.41h1.702v-.43c0-1.235-.88-1.724-1.918-1.724-.802 0-1.506.43-1.84 1.312l-1.86-.392c.412-1.664 1.82-2.722 3.72-2.722 2.292 0 3.936.998 3.936 3.896v6.127h-1.723l-.196-1.293c-.647.9-1.664 1.45-3.054 1.45-1.645 0-3.034-.94-3.034-2.996 0-2.034 1.74-3.23 4.266-3.23m-.88 4.424c1.252 0 2.582-.802 2.582-2.505v-.216h-1.78c-1.253 0-2.035.59-2.035 1.528 0 .667.37 1.194 1.232 1.194M1132.445 1760.41h1.702v-.43c0-1.235-.88-1.724-1.918-1.724-.803 0-1.508.43-1.84 1.312l-1.86-.392c.412-1.664 1.82-2.722 3.72-2.722 2.29 0 3.935.998 3.935 3.896v6.127h-1.723l-.196-1.293c-.646.9-1.663 1.45-3.053 1.45-1.644 0-3.034-.94-3.034-2.996 0-2.034 1.74-3.23 4.265-3.23m-.88 4.424c1.253 0 2.582-.802 2.582-2.505v-.216h-1.78c-1.252 0-2.035.59-2.035 1.528 0 .667.372 1.194 1.233 1.194M1140.75 1756.61v1.685c.803-1.232 1.78-1.84 2.976-1.84 1.33 0 2.427.804 2.72 2.035.687-1.29 1.802-2.034 3.074-2.034 1.8 0 2.818 1.232 2.818 2.955v7.066h-2.036v-6.615c0-1.077-.586-1.603-1.447-1.603-1.214 0-2.31 1.546-2.31 4.266v3.954h-2.036v-6.615c0-1.078-.588-1.604-1.45-1.604-1.232 0-2.31 1.546-2.31 4.48v3.74h-2.035v-9.866h2.036zM1157.378 1763.62c.86 0 1.487.625 1.487 1.468 0 .84-.626 1.468-1.487 1.468s-1.488-.627-1.488-1.468c0-.843.627-1.47 1.488-1.47m1.39-10.843l-.528 9.376h-1.723l-.53-9.375h2.78z"/><path clip-path="url(#b)" fill="none" stroke="#6C9" stroke-width="5" stroke-linecap="round" stroke-miterlimit="10" d="M116.026 1238.067c18.87-18.87 49.032-19.25 67.435-.846M123.727 1248.18c14.51-14.51 37.702-14.802 51.853-.652M131.427 1258.29c10.15-10.148 26.37-10.353 36.27-.456"/><path clip-path="url(#b)" fill="#6C9" d="M155.768 1268.833a6.074 6.074 0 1 1-12.148 0 6.074 6.074 0 0 1 12.148 0"/><path clip-path="url(#b)" fill="none" stroke="#6C9" stroke-width="5" stroke-linecap="round" stroke-miterlimit="10" d="M388.026 1620.067c18.87-18.87 49.033-19.25 67.435-.847M395.727 1630.18c14.51-14.51 37.702-14.802 51.853-.652M403.427 1640.29c10.15-10.148 26.37-10.353 36.27-.456"/><path clip-path="url(#b)" fill="#6C9" d="M427.768 1650.833a6.074 6.074 0 1 1-12.148 0 6.074 6.074 0 0 1 12.148 0"/><path clip-path="url(#b)" fill="none" stroke="#6C9" stroke-width="5" stroke-linecap="round" stroke-miterlimit="10" d="M885.026 1489.067c18.87-18.87 49.032-19.25 67.435-.846M892.727 1499.18c14.51-14.51 37.702-14.802 51.853-.652M900.427 1509.29c10.148-10.148 26.37-10.353 36.27-.456"/><path clip-path="url(#b)" fill="#6C9" d="M924.768 1519.833a6.074 6.074 0 1 1-12.148 0 6.074 6.074 0 0 1 12.148 0"/><path clip-path="url(#b)" fill="none" stroke="#6C9" stroke-width="5" stroke-linecap="round" stroke-miterlimit="10" d="M402.142 1778.17l-16.72 10.71 16.72 11.82M441.495 1800.7l16.718-10.708-16.718-11.82"/><path clip-path="url(#b)" fill="none" stroke="#6C9" stroke-width="5" stroke-linecap="round" stroke-linejoin="bevel" stroke-miterlimit="10" d="M411.087 1808.738l21.46-39.124"/><path clip-path="url(#b)" fill="none" stroke="#6C9" stroke-width="5" stroke-linecap="round" stroke-miterlimit="10" d="M213.142 1322.17l-16.72 10.71 16.72 11.82M252.495 1344.7l16.717-10.708-16.717-11.82"/><path clip-path="url(#b)" fill="none" stroke="#6C9" stroke-width="5" stroke-linecap="round" stroke-linejoin="bevel" stroke-miterlimit="10" d="M222.087 1352.738l21.46-39.124"/><path clip-path="url(#b)" fill="none" stroke="#6C9" stroke-width="5" stroke-linecap="round" stroke-miterlimit="10" d="M1086.142 1634.17l-16.718 10.71 16.718 11.82M1125.495 1656.7l16.718-10.708-16.718-11.82"/><path clip-path="url(#b)" fill="none" stroke="#6C9" stroke-width="5" stroke-linecap="round" stroke-linejoin="bevel" stroke-miterlimit="10" d="M1095.087 1664.738l21.46-39.124"/><path clip-path="url(#b)" fill="none" stroke="#6C9" stroke-width="5" stroke-linecap="round" stroke-miterlimit="10" d="M699.142 1395.17l-16.718 10.71 16.718 11.82M738.495 1417.7l16.718-10.708-16.718-11.82"/><path clip-path="url(#b)" fill="none" stroke="#6C9" stroke-width="5" stroke-linecap="round" stroke-linejoin="bevel" stroke-miterlimit="10" d="M708.087 1425.738l21.46-39.124"/><path clip-path="url(#b)" fill="none" stroke="#6C9" stroke-width="5" stroke-linecap="round" stroke-miterlimit="10" d="M764.142 1630.17l-16.718 10.71 16.718 11.82M803.495 1652.7l16.718-10.708-16.718-11.82"/><path clip-path="url(#b)" fill="none" stroke="#6C9" stroke-width="5" stroke-linecap="round" stroke-linejoin="bevel" stroke-miterlimit="10" d="M773.087 1660.738l21.46-39.124"/><path clip-path="url(#b)" fill="none" stroke="#6C9" stroke-width="5" stroke-miterlimit="10" d="M592.396 1711.35h40.557c6.6 0 12.232 4.96 12.232 11.56v15.187c0 6.6-5.632 12.255-12.232 12.255h-4.402c-1.17 4 2.267 7.955 2.267 7.955s-12.286 3.045-13.406-7.955h-25.014c-6.6 0-12.21-5.655-12.21-12.255v-15.186c0-6.6 5.61-11.56 12.21-11.56z"/><path clip-path="url(#b)" fill="#6C9" d="M593.187 1723.836v5.385c.668-.964 1.746-1.744 3.157-1.744 1.727 0 2.767.928 2.767 2.915v6.594h-1.93v-6.09c0-1.43-.595-1.71-1.468-1.71-1.058 0-2.525 1.355-2.525 3.844v3.956h-1.932v-13.147h1.932zM605.32 1731.227h1.615v-.407c0-1.17-.835-1.636-1.82-1.636-.76 0-1.43.408-1.745 1.244l-1.764-.372c.39-1.578 1.727-2.58 3.528-2.58 2.173 0 3.733.946 3.733 3.695v5.814h-1.635l-.185-1.228c-.613.855-1.58 1.375-2.897 1.375-1.56 0-2.878-.89-2.878-2.84 0-1.93 1.652-3.063 4.047-3.063m-.836 4.196c1.19 0 2.45-.76 2.45-2.377v-.204h-1.69c-1.187 0-1.93.56-1.93 1.448 0 .632.353 1.133 1.17 1.133M611.324 1723.836h1.932v13.148h-1.932zM615.784 1723.836h1.932v13.148h-1.932zM624.403 1727.475c2.897 0 4.606 2.19 4.606 4.828 0 2.64-1.71 4.83-4.607 4.83s-4.605-2.19-4.605-4.83c0-2.637 1.708-4.828 4.605-4.828m0 7.948c1.69 0 2.563-1.54 2.563-3.12 0-1.578-.873-3.12-2.563-3.12s-2.563 1.542-2.563 3.12c0 1.58.873 3.12 2.563 3.12M633.23 1734.27c.817 0 1.41.597 1.41 1.395 0 .8-.593 1.393-1.41 1.393-.818 0-1.412-.594-1.412-1.393 0-.798.594-1.394 1.41-1.394m1.32-10.287l-.5 8.896h-1.636l-.5-8.897h2.636z"/><circle clip-path="url(#b)" fill="none" stroke="#6C9" stroke-width="5" stroke-miterlimit="10" cx="231.685" cy="1633.851" r="21"/><path clip-path="url(#b)" fill="#6C9" d="M231.595 1619.938c1.58 0 2.772 1.27 2.772 2.81 0 1.542-1.193 2.733-2.772 2.733s-2.773-1.19-2.773-2.732c0-1.54 1.194-2.81 2.773-2.81m2.002 8.278v19.408h-4.004v-19.408h4.004z"/><circle clip-path="url(#b)" fill="none" stroke="#6C9" stroke-width="5" stroke-miterlimit="10" cx="1074.685" cy="1448.851" r="21"/><path clip-path="url(#b)" fill="#6C9" d="M1074.595 1434.938c1.58 0 2.77 1.27 2.77 2.81 0 1.542-1.19 2.733-2.77 2.733s-2.773-1.19-2.773-2.732c0-1.54 1.194-2.81 2.773-2.81m2.002 8.278v19.408h-4.004v-19.408h4.004z"/><circle clip-path="url(#b)" fill="none" stroke="#6C9" stroke-width="5" stroke-miterlimit="10" cx="749.685" cy="1774.851" r="21"/><path clip-path="url(#b)" fill="#6C9" d="M749.595 1760.938c1.58 0 2.77 1.27 2.77 2.81 0 1.542-1.19 2.733-2.77 2.733s-2.773-1.19-2.773-2.732c0-1.54 1.194-2.81 2.773-2.81m2.002 8.278v19.408h-4.004v-19.408h4.004z"/><path clip-path="url(#b)" fill="none" stroke="#6C9" stroke-width="5" stroke-miterlimit="10" d="M379.598 1371.85h-21.794c-5.137 0-9.34-4.202-9.34-9.34v-45.145c0-5.138 4.203-9.34 9.34-9.34h21.794c5.137 0 9.34 4.202 9.34 9.34v45.146c0 5.137-4.204 9.34-9.34 9.34zM347.685 1358.35h41"/><path clip-path="url(#b)" fill="#6C9" d="M380 1319.95a3.19 3.19 0 1 1-6.384-.002 3.19 3.19 0 0 1 6.385.002"/><path clip-path="url(#b)" fill="none" stroke="#6C9" stroke-width="5" stroke-linecap="round" stroke-miterlimit="10" d="M398.79 1314.42c0-9.544-7.722-17.267-17.265-17.267M410.33 1312.958c0-14.815-11.99-26.805-26.805-26.805"/><path clip-path="url(#b)" fill="none" stroke="#6C9" stroke-width="5" stroke-miterlimit="10" d="M950.598 1815.85h-21.794c-5.138 0-9.34-4.202-9.34-9.34v-45.145c0-5.138 4.202-9.34 9.34-9.34h21.794c5.137 0 9.34 4.202 9.34 9.34v45.146c0 5.137-4.204 9.34-9.34 9.34z"/><path clip-path="url(#b)" fill="#6C9" d="M951 1763.95a3.19 3.19 0 0 1-3.19 3.19 3.19 3.19 0 1 1 3.19-3.19"/><path clip-path="url(#b)" fill="none" stroke="#6C9" stroke-width="5" stroke-linecap="round" stroke-miterlimit="10" d="M969.79 1758.42c0-9.544-7.722-17.267-17.265-17.267M981.33 1756.958c0-14.815-11.99-26.805-26.806-26.805"/><path clip-path="url(#b)" fill="none" stroke="#6C9" stroke-width="4.38" stroke-miterlimit="10" d="M283.585 802.64l-31.963 3 15.262 29.38zM180.685 1121.91a235.172 235.172 0 0 1-3.108-3.918"/><path clip-path="url(#b)" fill="none" stroke="#6C9" stroke-width="4.38" stroke-miterlimit="10" stroke-dasharray="10.063,10.063" d="M171.577 1109.91c-52.16-73.64-26.856-134.11-4.892-150 47-34 101.006 6.3 133-38 23.527-32.576 8.57-79.892-18.2-98.23"/><path clip-path="url(#b)" fill="none" stroke="#6C9" stroke-width="4.38" stroke-miterlimit="10" d="M277.2 821.05a44.603 44.603 0 0 0-4.515-2.14M975.585 659.64l-31.963 3 15.262 29.38zM872.685 978.91c-1.355-1.01-2.68-2.02-3.975-3.035"/><path clip-path="url(#b)" fill="none" stroke="#6C9" stroke-width="4.38" stroke-miterlimit="10" stroke-dasharray="9.973,9.973" d="M861.02 969.52c-74.462-64.968-34.76-139.26-2.335-152.61 57.724-23.77 101.007 6.3 133-38 23.54-32.59 8.556-79.935-18.236-98.255"/><path clip-path="url(#b)" fill="none" stroke="#6C9" stroke-width="4.38" stroke-miterlimit="10" d="M969.2 678.05a44.618 44.618 0 0 0-4.516-2.14M1189.813 728.678l-31.626-5.514 6.998 32.36z"/><path clip-path="url(#b)" fill="none" stroke="#6C9" stroke-width="4.38" stroke-miterlimit="10" stroke-dasharray="10,10" d="M989.41 904.32c54.54 49.044 132.757 49.524 177.965 8.51 51.147-46.4 55.18-141.51 9.285-170.998"/><path clip-path="url(#b)" fill="none" stroke="#6C9" stroke-width="4.38" stroke-miterlimit="10" d="M32.177 680.678l31.627-5.514-6.998 32.36z"/><path clip-path="url(#b)" fill="none" stroke="#6C9" stroke-width="4.38" stroke-miterlimit="10" stroke-dasharray="10,10" d="M232.58 856.32c-54.54 49.044-132.756 49.524-177.964 8.51C3.47 818.43-.564 723.32 45.33 693.833"/><path clip-path="url(#b)" fill="none" stroke="#6C9" stroke-width="4.38" stroke-miterlimit="10" d="M1187.333 610.057l18.906-25.946 17.46 28.132z"/><path clip-path="url(#b)" fill="none" stroke="#6C9" stroke-width="4.38" stroke-miterlimit="10" stroke-dasharray="10,10" d="M1453.495 597.06c-5.127 73.168-61.03 127.875-122.04 129.806-69.024 2.186-138.026-63.392-125.523-116.493M654.685 917.91c-75.054 54.937-138.408 31.424-168.585-15.003-35.98-55.354-.292-127.1 2.322-132.312"/><path clip-path="url(#b)" fill="none" stroke="#6C9" stroke-width="4.38" stroke-miterlimit="10" d="M504.198 778.032l-4.463-31.792-28.65 16.595z"/><path clip-path="url(#b)" fill="none" stroke="#6C9" stroke-width="5" stroke-miterlimit="10" d="M590.565 884.99h-31.76c-5.17 0-9.398-4.23-9.398-9.396V854.11c0-5.17 4.23-9.397 9.398-9.397h31.76c5.168 0 9.397 4.228 9.397 9.396v21.484c0 5.168-4.23 9.396-9.397 9.396z"/><path clip-path="url(#b)" fill="none" stroke="#6C9" stroke-width="5" stroke-miterlimit="10" d="M565.437 844.767v-2.988c0-5.17 4.23-9.4 9.397-9.4h.523c5.17 0 9.398 4.23 9.398 9.4v2.987M160.685 802.945l-36.968-27.116-37.532 27.115v-15.253l37.532-27.116 36.844 27.116z"/><path clip-path="url(#b)" fill="none" stroke="#6C9" stroke-width="5" stroke-miterlimit="10" d="M148.524 794.73V824.9h-49V794.73M1118.41 653.873l-36.83-27.117-37.395 27.117V638.62l37.395-27.116 36.775 27.115z"/><path clip-path="url(#b)" fill="none" stroke="#6C9" stroke-width="5" stroke-miterlimit="10" d="M1106.182 645.658v30.168h-49v-30.168M813.324 729.535l26.36 46.874M873.458 695.063l-60.82 33.633-15.728-28.44 60.82-33.633 23.116 4.326z"/><path clip-path="url(#b)" fill="none" stroke="#6C9" stroke-width="4.38" stroke-miterlimit="10" stroke-dasharray="10,10" d="M614.685 1023.91c65.02 3.817 87.175-24.88 92.21-49.048 3.733-17.924-4.59-41.518 3.02-62.43 9.597-26.376 31.72-40.782 56.77-46.523"/><path clip-path="url(#b)" fill="none" stroke="#6C9" stroke-width="4.38" stroke-miterlimit="10" d="M769.36 883.627l22.188-23.203-30.778-12.203z"/><path clip-path="url(#b)" fill="none" stroke="#6C9" stroke-width="4.38" stroke-miterlimit="10" stroke-dasharray="10,10" d="M417.548 768.91c-65.022 3.817-87.175-24.88-92.21-49.047-3.733-17.925 4.59-41.52-3.02-62.432-9.597-26.374-31.72-40.78-56.77-46.52"/><path clip-path="url(#b)" fill="none" stroke="#6C9" stroke-width="4.38" stroke-miterlimit="10" d="M262.872 628.627l-22.187-23.203 30.778-12.203z"/><path clip-path="url(#b)" fill="none" stroke="#6C9" stroke-width="4.38" stroke-miterlimit="10" stroke-dasharray="10,10" d="M1343.548 1122.91c-65.02 3.817-87.175-24.88-92.21-49.048-3.733-17.924 4.59-41.518-3.02-62.43-9.598-26.376-31.72-40.782-56.77-46.523"/><path clip-path="url(#b)" fill="none" stroke="#6C9" stroke-width="4.38" stroke-miterlimit="10" d="M1188.872 982.627l-22.187-23.203 30.778-12.203z"/><path clip-path="url(#b)" fill="none" stroke="#6C9" stroke-width="4.38" stroke-miterlimit="10" stroke-dasharray="10,10" d="M-91.09 1136.492c-9.082-64.497 17.724-88.906 41.402-95.886 17.562-5.177 41.753 1.204 61.98-8.077 25.51-11.707 38.073-34.925 41.76-60.36"/><path clip-path="url(#b)" fill="none" stroke="#6C9" stroke-width="4.38" stroke-miterlimit="10" d="M36.177 970.94l21.326-23.996 14.66 29.688z"/><path clip-path="url(#b)" fill="none" stroke="#6C9" stroke-width="5" stroke-miterlimit="10" d="M360.396 873.35h40.557c6.6 0 12.232 4.96 12.232 11.56v15.187c0 6.6-5.632 12.255-12.232 12.255h-4.402c-1.17 4 2.267 7.955 2.267 7.955s-12.286 3.045-13.406-7.955h-25.014c-6.6 0-12.21-5.655-12.21-12.255V884.91c0-6.6 5.61-11.56 12.21-11.56z"/><path clip-path="url(#b)" fill="#6C9" d="M360.694 885.76v5.324c.662-.955 1.726-1.727 3.12-1.727 1.707 0 2.735.918 2.735 2.882v6.516h-1.91v-6.02c0-1.415-.586-1.69-1.45-1.69-1.045 0-2.496 1.34-2.496 3.8v3.91h-1.908V885.76h1.908zM377.108 894.663h-6.552c0 1.357.79 2.55 2.294 2.55.99 0 1.946-.55 2.423-1.56l1.633.643c-.9 1.744-1.946 2.605-4.056 2.605-3.047 0-4.313-2.567-4.313-4.77 0-2.202 1.266-4.772 4.313-4.772 2.955 0 4.258 2.405 4.258 4.48v.825zm-6.516-1.598h4.497c-.165-1.027-.863-2.02-2.24-2.02-1.267.002-2.056.863-2.258 2.02M379.188 885.76h1.908v12.995h-1.908zM383.598 885.76h1.908v12.995h-1.908zM392.116 889.357c2.862 0 4.55 2.166 4.55 4.77 0 2.608-1.688 4.773-4.55 4.773-2.863 0-4.552-2.165-4.552-4.772 0-2.605 1.688-4.77 4.552-4.77m0 7.855c1.67 0 2.532-1.523 2.532-3.084 0-1.56-.863-3.083-2.532-3.083-1.67 0-2.533 1.522-2.533 3.082 0 1.56.86 3.083 2.533 3.083M400.84 896.075c.806 0 1.393.588 1.393 1.377s-.587 1.376-1.394 1.376-1.396-.587-1.396-1.376.588-1.377 1.395-1.377m1.302-10.168l-.496 8.792h-1.614l-.496-8.793h2.606z"/><path clip-path="url(#b)" fill="none" stroke="#6C9" stroke-width="4.38" stroke-miterlimit="10" stroke-dasharray="10,10" d="M683.685 1182.91c-75.054 54.937-138.408 31.424-168.585-15.003-35.98-55.354-.292-127.1 2.322-132.312"/><path clip-path="url(#b)" fill="none" stroke="#6C9" stroke-width="4.38" stroke-miterlimit="10" d="M533.198 1043.032l-4.463-31.792-28.65 16.595z"/><path clip-path="url(#b)" fill="none" stroke="#6C9" stroke-width="5" stroke-miterlimit="10" d="M380.148 1049.256l-37.2-27.116-37.764 27.116v-15.254l37.765-27.115 36.958 27.115z"/><path clip-path="url(#b)" fill="none" stroke="#6C9" stroke-width="5" stroke-miterlimit="10" d="M367.987 1041.042v30.167h-49v-30.168M104.433 1142.535l-26.36 46.874M44.298 1108.063l60.82 33.633 15.728-28.44-60.82-33.634-23.115 4.327z"/><path clip-path="url(#b)" fill="none" stroke="#6C9" stroke-width="4.38" stroke-miterlimit="10" stroke-dasharray="10,10" d="M399.548 1251.91c-65.022 3.817-87.175-24.88-92.21-49.048-3.733-17.924 4.59-41.518-3.02-62.43-9.597-26.376-31.72-40.782-56.77-46.523"/><path clip-path="url(#b)" fill="none" stroke="#6C9" stroke-width="4.38" stroke-miterlimit="10" d="M244.872 1111.627l-22.187-23.203 30.778-12.203z"/><path clip-path="url(#b)" fill="none" stroke="#6C9" stroke-width="4.38" stroke-miterlimit="10" stroke-dasharray="10,10" d="M853.91 1158.492c-9.083-64.497 17.724-88.906 41.4-95.886 17.563-5.177 41.754 1.204 61.98-8.077 25.51-11.707 38.073-34.925 41.762-60.36"/><path clip-path="url(#b)" fill="none" stroke="#6C9" stroke-width="4.38" stroke-miterlimit="10" d="M981.177 992.94l21.326-23.996 14.66 29.688z"/><path clip-path="url(#b)" fill="none" stroke="#6C9" stroke-width="4.38" stroke-miterlimit="10" stroke-dasharray="10,10" d="M601.91 807.492c-9.082-64.497 17.724-88.906 41.402-95.887 17.562-5.176 41.753 1.205 61.98-8.076 25.51-11.707 38.072-34.925 41.76-60.36"/><path clip-path="url(#b)" fill="none" stroke="#6C9" stroke-width="4.38" stroke-miterlimit="10" d="M729.177 641.94l21.326-23.996 14.66 29.687z"/><path clip-path="url(#b)" fill="none" stroke="#6C9" stroke-width="5" stroke-miterlimit="10" d="M1159.974 1116.35h-63.557c-6.6 0-12.232 4.96-12.232 11.56v15.187c0 6.6 5.632 12.255 12.232 12.255h4.4c1.172 4-2.265 7.955-2.265 7.955s12.286 3.045 13.405-7.955h48.016c6.6 0 12.21-5.655 12.21-12.255v-15.186c.002-6.6-5.61-11.56-12.21-11.56z"/><path clip-path="url(#b)" fill="#6C9" d="M1101.188 1133.02l-1.292 1.137c-.488-.626-1.095-.9-1.722-.9-.51 0-.978.334-.978.98 0 .704.742 1.02 1.76 1.408 1.332.51 2.76 1.097 2.76 2.858 0 1.704-1.31 3.132-3.425 3.132-2.034 0-3.308-1.41-3.816-2.644l1.723-.937c.392.88 1.077 1.78 2.173 1.78.784 0 1.332-.39 1.332-1.29 0-.862-1.195-1.098-2.35-1.586-1.135-.47-2.114-1.194-2.114-2.7 0-1.528 1.252-2.8 3.034-2.8 1.194 0 2.29.585 2.916 1.564M1107.555 1135.41h1.702v-.43c0-1.235-.88-1.724-1.918-1.724-.804 0-1.51.43-1.84 1.312l-1.86-.392c.41-1.664 1.82-2.722 3.72-2.722 2.29 0 3.935.998 3.935 3.896v6.127h-1.724l-.195-1.293c-.646.9-1.662 1.45-3.053 1.45-1.644 0-3.034-.94-3.034-2.996 0-2.034 1.74-3.23 4.267-3.23m-.88 4.424c1.252 0 2.582-.802 2.582-2.505v-.216h-1.78c-1.253 0-2.036.59-2.036 1.528 0 .667.372 1.194 1.234 1.194M1113.883 1127.62h2.036v13.856h-2.037zM1122.478 1135.41h1.702v-.43c0-1.235-.88-1.724-1.918-1.724-.802 0-1.506.43-1.84 1.312l-1.86-.392c.412-1.664 1.82-2.722 3.72-2.722 2.292 0 3.936.998 3.936 3.896v6.127h-1.723l-.196-1.293c-.647.9-1.664 1.45-3.054 1.45-1.645 0-3.034-.94-3.034-2.996 0-2.034 1.74-3.23 4.266-3.23m-.88 4.424c1.252 0 2.582-.802 2.582-2.505v-.216h-1.78c-1.253 0-2.035.59-2.035 1.528 0 .667.37 1.194 1.232 1.194M1132.445 1135.41h1.702v-.43c0-1.235-.88-1.724-1.918-1.724-.803 0-1.508.43-1.84 1.312l-1.86-.392c.412-1.664 1.82-2.722 3.72-2.722 2.29 0 3.935.998 3.935 3.896v6.127h-1.723l-.196-1.293c-.646.9-1.663 1.45-3.053 1.45-1.644 0-3.034-.94-3.034-2.996 0-2.034 1.74-3.23 4.265-3.23m-.88 4.424c1.253 0 2.582-.802 2.582-2.505v-.216h-1.78c-1.252 0-2.035.59-2.035 1.528 0 .667.372 1.194 1.233 1.194M1140.75 1131.61v1.685c.803-1.232 1.78-1.84 2.976-1.84 1.33 0 2.427.804 2.72 2.036.687-1.29 1.802-2.034 3.074-2.034 1.8 0 2.818 1.232 2.818 2.955v7.066h-2.036v-6.615c0-1.076-.586-1.603-1.447-1.603-1.214 0-2.31 1.546-2.31 4.266v3.954h-2.036v-6.615c0-1.077-.588-1.604-1.45-1.604-1.232 0-2.31 1.546-2.31 4.48v3.74h-2.035v-9.866h2.036zM1157.378 1138.62c.86 0 1.487.625 1.487 1.468 0 .84-.626 1.468-1.487 1.468s-1.488-.627-1.488-1.468c0-.843.627-1.47 1.488-1.47m1.39-10.843l-.528 9.376h-1.723l-.53-9.375h2.78z"/><path clip-path="url(#b)" fill="none" stroke="#6C9" stroke-width="5" stroke-linecap="round" stroke-miterlimit="10" d="M422.026 976.067c18.87-18.87 49.033-19.25 67.435-.846M429.727 986.18c14.51-14.51 37.702-14.802 51.853-.652M437.427 996.29c10.15-10.148 26.37-10.353 36.27-.456"/><path clip-path="url(#b)" fill="#6C9" d="M461.768 1006.833a6.075 6.075 0 1 1-12.15 0 6.075 6.075 0 0 1 12.15 0"/><path clip-path="url(#b)" fill="none" stroke="#6C9" stroke-width="5" stroke-linecap="round" stroke-miterlimit="10" d="M885.026 864.067c18.87-18.87 49.032-19.25 67.435-.846M892.727 874.18c14.51-14.51 37.702-14.802 51.853-.652M900.427 884.29c10.148-10.148 26.37-10.353 36.27-.456"/><path clip-path="url(#b)" fill="#6C9" d="M924.768 894.833a6.075 6.075 0 1 1-12.15 0 6.075 6.075 0 0 1 12.15 0"/><path clip-path="url(#b)" fill="none" stroke="#6C9" stroke-width="5" stroke-linecap="round" stroke-miterlimit="10" d="M402.142 1153.17l-16.72 10.71 16.72 11.82M441.495 1175.7l16.718-10.708-16.718-11.82"/><path clip-path="url(#b)" fill="none" stroke="#6C9" stroke-width="5" stroke-linecap="round" stroke-linejoin="bevel" stroke-miterlimit="10" d="M411.087 1183.738l21.46-39.124"/><path clip-path="url(#b)" fill="none" stroke="#6C9" stroke-width="5" stroke-linecap="round" stroke-miterlimit="10" d="M192.142 694.17l-16.72 10.71 16.72 11.82M231.495 716.7l16.717-10.708-16.717-11.822"/><path clip-path="url(#b)" fill="none" stroke="#6C9" stroke-width="5" stroke-linecap="round" stroke-linejoin="bevel" stroke-miterlimit="10" d="M201.087 724.738l21.46-39.124"/><path clip-path="url(#b)" fill="none" stroke="#6C9" stroke-width="5" stroke-linecap="round" stroke-miterlimit="10" d="M1086.142 1009.17l-16.718 10.71 16.718 11.82M1125.495 1031.7l16.718-10.708-16.718-11.82"/><path clip-path="url(#b)" fill="none" stroke="#6C9" stroke-width="5" stroke-linecap="round" stroke-linejoin="bevel" stroke-miterlimit="10" d="M1095.087 1039.738l21.46-39.124"/><path clip-path="url(#b)" fill="none" stroke="#6C9" stroke-width="5" stroke-linecap="round" stroke-miterlimit="10" d="M699.142 770.17l-16.718 10.71 16.718 11.82M738.495 792.7l16.718-10.708-16.718-11.822"/><path clip-path="url(#b)" fill="none" stroke="#6C9" stroke-width="5" stroke-linecap="round" stroke-linejoin="bevel" stroke-miterlimit="10" d="M708.087 800.738l21.46-39.123"/><path clip-path="url(#b)" fill="none" stroke="#6C9" stroke-width="5" stroke-linecap="round" stroke-miterlimit="10" d="M764.142 1024.17l-16.718 10.71 16.718 11.82M803.495 1046.7l16.718-10.708-16.718-11.82"/><path clip-path="url(#b)" fill="none" stroke="#6C9" stroke-width="5" stroke-linecap="round" stroke-linejoin="bevel" stroke-miterlimit="10" d="M773.087 1054.738l21.46-39.124"/><path clip-path="url(#b)" fill="none" stroke="#6C9" stroke-width="5" stroke-miterlimit="10" d="M592.396 1086.35h40.557c6.6 0 12.232 4.96 12.232 11.56v15.187c0 6.6-5.632 12.255-12.232 12.255h-4.402c-1.17 4 2.267 7.955 2.267 7.955s-12.286 3.045-13.406-7.955h-25.014c-6.6 0-12.21-5.655-12.21-12.255v-15.186c0-6.6 5.61-11.56 12.21-11.56z"/><path clip-path="url(#b)" fill="#6C9" d="M593.187 1098.836v5.385c.668-.964 1.746-1.744 3.157-1.744 1.727 0 2.767.928 2.767 2.915v6.594h-1.93v-6.09c0-1.43-.595-1.71-1.468-1.71-1.058 0-2.525 1.355-2.525 3.844v3.956h-1.932v-13.147h1.932zM605.32 1106.227h1.615v-.407c0-1.17-.835-1.636-1.82-1.636-.76 0-1.43.408-1.745 1.244l-1.764-.372c.39-1.577 1.727-2.58 3.528-2.58 2.173 0 3.733.946 3.733 3.695v5.814h-1.635l-.185-1.228c-.613.855-1.58 1.375-2.897 1.375-1.56 0-2.878-.89-2.878-2.84 0-1.93 1.652-3.063 4.047-3.063m-.836 4.196c1.19 0 2.45-.76 2.45-2.377v-.204h-1.69c-1.187 0-1.93.56-1.93 1.448 0 .633.353 1.133 1.17 1.133M611.324 1098.836h1.932v13.148h-1.932zM615.784 1098.836h1.932v13.148h-1.932zM624.403 1102.475c2.897 0 4.606 2.19 4.606 4.828 0 2.64-1.71 4.83-4.607 4.83s-4.605-2.19-4.605-4.83c0-2.637 1.708-4.828 4.605-4.828m0 7.948c1.69 0 2.563-1.54 2.563-3.12 0-1.578-.873-3.12-2.563-3.12s-2.563 1.542-2.563 3.12c0 1.58.873 3.12 2.563 3.12M633.23 1109.272c.817 0 1.41.595 1.41 1.393 0 .8-.593 1.393-1.41 1.393-.818 0-1.412-.594-1.412-1.393 0-.798.594-1.393 1.41-1.393m1.32-10.29l-.5 8.897h-1.636l-.5-8.897h2.636z"/><circle clip-path="url(#b)" fill="none" stroke="#6C9" stroke-width="5" stroke-miterlimit="10" cx="231.685" cy="1008.851" r="21"/><path clip-path="url(#b)" fill="#6C9" d="M231.595 994.938c1.58 0 2.772 1.27 2.772 2.81 0 1.542-1.193 2.733-2.772 2.733s-2.773-1.19-2.773-2.732c0-1.54 1.194-2.81 2.773-2.81m2.002 8.278v19.408h-4.004v-19.408h4.004z"/><circle clip-path="url(#b)" fill="none" stroke="#6C9" stroke-width="5" stroke-miterlimit="10" cx="1067.685" cy="831.851" r="21"/><path clip-path="url(#b)" fill="#6C9" d="M1067.595 817.938c1.58 0 2.77 1.27 2.77 2.81 0 1.542-1.19 2.733-2.77 2.733s-2.773-1.19-2.773-2.732c0-1.54 1.194-2.81 2.773-2.81m2.002 8.278v19.408h-4.004v-19.408h4.004z"/><circle clip-path="url(#b)" fill="none" stroke="#6C9" stroke-width="5" stroke-miterlimit="10" cx="749.685" cy="1149.851" r="21"/><path clip-path="url(#b)" fill="#6C9" d="M749.595 1135.938c1.58 0 2.77 1.27 2.77 2.81 0 1.543-1.19 2.734-2.77 2.734-1.578 0-2.773-1.19-2.773-2.733 0-1.542 1.195-2.812 2.773-2.812m2.002 27.686h-4.004v-19.408h4.004v19.408z"/><path clip-path="url(#b)" fill="none" stroke="#6C9" stroke-width="5" stroke-miterlimit="10" d="M428.598 729.85h-21.794c-5.137 0-9.34-4.2-9.34-9.34v-45.145c0-5.138 4.203-9.34 9.34-9.34h21.794c5.137 0 9.34 4.202 9.34 9.34v45.146c0 5.138-4.204 9.34-9.34 9.34zM396.685 716.35h41"/><path clip-path="url(#b)" fill="#6C9" d="M429 677.95a3.19 3.19 0 0 1-3.19 3.19 3.19 3.19 0 1 1 3.19-3.19"/><path clip-path="url(#b)" fill="none" stroke="#6C9" stroke-width="5" stroke-linecap="round" stroke-miterlimit="10" d="M447.79 672.42c0-9.544-7.722-17.266-17.265-17.266M459.33 670.958c0-14.815-11.99-26.805-26.805-26.805"/><path clip-path="url(#b)" fill="none" stroke="#6C9" stroke-width="5" stroke-miterlimit="10" d="M950.598 1208.85h-21.794c-5.138 0-9.34-4.202-9.34-9.34v-45.145c0-5.138 4.202-9.34 9.34-9.34h21.794c5.137 0 9.34 4.202 9.34 9.34v45.146c0 5.137-4.204 9.34-9.34 9.34zM918.685 1195.35h41"/><path clip-path="url(#b)" fill="#6C9" d="M951 1156.95a3.19 3.19 0 0 1-3.19 3.19 3.19 3.19 0 1 1 3.19-3.19"/><path clip-path="url(#b)" fill="none" stroke="#6C9" stroke-width="5" stroke-linecap="round" stroke-miterlimit="10" d="M969.79 1151.42c0-9.544-7.722-17.267-17.265-17.267M981.33 1149.958c0-14.815-11.99-26.805-26.806-26.805"/></svg>