<svg version="1" xmlns="http://www.w3.org/2000/svg" xmlns:xlink="http://www.w3.org/1999/xlink" width="1280" height="450" viewBox="0 0 1280 450"><path fill="#03A678" d="M0-1.772V450h1299.766l.22-451.772z"/><path fill="none" stroke="#6C9" stroke-width="4.38" stroke-miterlimit="10" d="M282.9 206.705l-31.962 2.998 15.262 29.382z"/><defs><path id="a" d="M1.466-.774l-.216 602.69H1280V-.775z"/></defs><clipPath id="b"><use xlink:href="#a" overflow="visible"/></clipPath><path clip-path="url(#b)" fill="none" stroke="#6C9" stroke-width="4.38" stroke-miterlimit="10" d="M180 525.974a239.37 239.37 0 0 1-3.108-3.917"/><path clip-path="url(#b)" fill="none" stroke="#6C9" stroke-width="4.38" stroke-miterlimit="10" stroke-dasharray="10.063,10.063" d="M170.892 513.974c-52.16-73.64-26.856-134.11-4.892-150 47-34 101.006 6.3 133-38 23.527-32.576 8.57-79.89-18.2-98.23"/><path clip-path="url(#b)" fill="none" stroke="#6C9" stroke-width="4.38" stroke-miterlimit="10" d="M276.515 225.115a44.828 44.828 0 0 0-4.514-2.142M974.9 63.705l-31.962 2.998 15.26 29.38zM872 382.974a205.47 205.47 0 0 1-3.975-3.034"/><path clip-path="url(#b)" fill="none" stroke="#6C9" stroke-width="4.38" stroke-miterlimit="10" stroke-dasharray="9.973,9.973" d="M860.334 373.585c-74.46-64.97-34.76-139.26-2.334-152.61 57.724-23.77 101.007 6.3 133-38 23.54-32.592 8.556-79.935-18.236-98.255"/><path clip-path="url(#b)" fill="none" stroke="#6C9" stroke-width="4.38" stroke-miterlimit="10" d="M968.515 82.115a44.618 44.618 0 0 0-4.515-2.14M1189.13 132.742l-31.628-5.514 6.998 32.362z"/><path clip-path="url(#b)" fill="none" stroke="#6C9" stroke-width="4.38" stroke-miterlimit="10" stroke-dasharray="10,10" d="M988.727 308.384c54.54 49.045 132.756 49.525 177.964 8.512 51.148-46.402 55.182-141.51 9.286-171"/><path clip-path="url(#b)" fill="none" stroke="#6C9" stroke-width="4.38" stroke-miterlimit="10" d="M31.493 84.742l31.627-5.514-6.998 32.362z"/><path clip-path="url(#b)" fill="none" stroke="#6C9" stroke-width="4.38" stroke-miterlimit="10" stroke-dasharray="10,10" d="M231.895 260.384C177.355 309.43 99.14 309.91 53.93 268.896c-51.146-46.403-55.18-141.51-9.284-171"/><path clip-path="url(#b)" fill="none" stroke="#6C9" stroke-width="4.38" stroke-miterlimit="10" d="M1208.648 62.12l18.907-25.944 17.46 28.13z"/><path clip-path="url(#b)" fill="none" stroke="#6C9" stroke-width="4.38" stroke-miterlimit="10" stroke-dasharray="10,10" d="M1474.81 49.123c-5.126 73.17-61.03 127.876-122.038 129.807-69.025 2.185-138.027-63.392-125.524-116.494M656 353.974c-75.054 54.938-138.408 31.424-168.585-15.002-35.98-55.354-.292-127.1 2.322-132.312"/><path clip-path="url(#b)" fill="none" stroke="#6C9" stroke-width="4.38" stroke-miterlimit="10" d="M505.513 214.097l-4.463-31.792L472.4 198.9z"/><path clip-path="url(#b)" fill="none" stroke="#6C9" stroke-width="5" stroke-miterlimit="10" d="M170.63 638.043h-31.76c-5.17 0-9.398-4.23-9.398-9.396v-21.485c0-5.17 4.23-9.396 9.398-9.396h31.76c5.17 0 9.397 4.228 9.397 9.396v21.485c0 5.167-4.228 9.396-9.397 9.396z"/><path clip-path="url(#b)" fill="none" stroke="#6C9" stroke-width="5" stroke-miterlimit="10" d="M145.502 597.82v-2.99c0-5.168 4.23-9.397 9.397-9.397h.522c5.17 0 9.398 4.23 9.398 9.398v2.99M160 207.01l-36.967-27.116L85.5 207.01v-15.253l37.533-27.116 36.843 27.117z"/><path clip-path="url(#b)" fill="none" stroke="#6C9" stroke-width="5" stroke-miterlimit="10" d="M147.84 198.796v30.167h-49v-30.167M1121.727 71.937l-36.83-27.116-37.397 27.117V56.684l37.396-27.116 36.775 27.116z"/><path clip-path="url(#b)" fill="none" stroke="#6C9" stroke-width="5" stroke-miterlimit="10" d="M1109.497 63.723V93.89h-49V63.723M812.64 133.6L839 180.474M872.773 99.128l-60.82 33.633-15.727-28.44 60.82-33.633 23.115 4.327z"/><path clip-path="url(#b)" fill="none" stroke="#6C9" stroke-width="4.38" stroke-miterlimit="10" stroke-dasharray="10,10" d="M614 478.974c65.02 3.818 87.175-24.88 92.21-49.047 3.733-17.924-4.59-41.518 3.02-62.43 9.597-26.376 31.72-40.782 56.77-46.523"/><path clip-path="url(#b)" fill="none" stroke="#6C9" stroke-width="4.38" stroke-miterlimit="10" d="M768.676 338.69l22.187-23.202-30.778-12.203z"/><path clip-path="url(#b)" fill="none" stroke="#6C9" stroke-width="4.38" stroke-miterlimit="10" stroke-dasharray="10,10" d="M438.864 208.974c-65.022 3.818-87.175-24.88-92.21-49.047-3.733-17.924 4.59-41.518-3.02-62.43-9.597-26.376-31.72-40.782-56.77-46.523"/><path clip-path="url(#b)" fill="none" stroke="#6C9" stroke-width="4.38" stroke-miterlimit="10" d="M284.188 68.69L262 45.49l30.778-12.203z"/><path clip-path="url(#b)" fill="none" stroke="#6C9" stroke-width="4.38" stroke-miterlimit="10" stroke-dasharray="10,10" d="M1340.863 529.974c-65.02 3.818-87.175-24.88-92.21-49.047-3.733-17.924 4.59-41.518-3.02-62.43-9.598-26.376-31.72-40.782-56.77-46.523"/><path clip-path="url(#b)" fill="none" stroke="#6C9" stroke-width="4.38" stroke-miterlimit="10" d="M1186.188 389.69L1164 366.49l30.778-12.203z"/><path clip-path="url(#b)" fill="none" stroke="#6C9" stroke-width="4.38" stroke-miterlimit="10" stroke-dasharray="10,10" d="M-91.775 540.557c-9.082-64.497 17.724-88.906 41.402-95.887 17.562-5.176 41.753 1.205 61.98-8.076 25.51-11.706 38.073-34.925 41.76-60.358"/><path clip-path="url(#b)" fill="none" stroke="#6C9" stroke-width="4.38" stroke-miterlimit="10" d="M35.493 375.006l21.325-23.997 14.66 29.685z"/><path clip-path="url(#b)" fill="none" stroke="#6C9" stroke-width="5" stroke-miterlimit="10" d="M359.71 277.415h40.558c6.6 0 12.232 4.96 12.232 11.56v15.186c0 6.6-5.632 12.256-12.232 12.256h-4.402c-1.17 4 2.266 7.955 2.266 7.955s-12.286 3.046-13.406-7.954H359.71c-6.6 0-12.21-5.655-12.21-12.255v-15.186c0-6.6 5.61-11.56 12.21-11.56z"/><path clip-path="url(#b)" fill="#6C9" d="M360.01 289.825v5.322c.662-.955 1.726-1.726 3.12-1.726 1.707 0 2.735.92 2.735 2.883v6.517h-1.908v-6.02c0-1.414-.587-1.69-1.45-1.69-1.046 0-2.497 1.342-2.497 3.8v3.91h-1.908v-12.994h1.908zM376.423 298.727h-6.552c0 1.358.79 2.552 2.295 2.552.99 0 1.946-.553 2.423-1.562l1.633.643c-.898 1.744-1.945 2.606-4.055 2.606-3.047 0-4.313-2.57-4.313-4.77s1.266-4.773 4.313-4.773c2.955 0 4.258 2.405 4.258 4.478v.827zm-6.515-1.597h4.497c-.164-1.028-.862-2.02-2.24-2.02-1.267 0-2.056.863-2.257 2.02M378.504 289.824h1.908v12.995h-1.908zM382.913 289.824h1.908v12.995h-1.907zM391.43 293.422c2.863 0 4.552 2.166 4.552 4.77 0 2.608-1.69 4.773-4.55 4.773-2.864 0-4.553-2.165-4.553-4.772 0-2.605 1.688-4.77 4.55-4.77m0 7.854c1.67 0 2.533-1.523 2.533-3.084 0-1.56-.863-3.083-2.532-3.083-1.67 0-2.532 1.523-2.532 3.083 0 1.56.862 3.084 2.533 3.084M400.154 300.14c.807 0 1.394.588 1.394 1.377s-.587 1.376-1.394 1.376-1.395-.587-1.395-1.376.587-1.377 1.394-1.377m1.304-10.168l-.496 8.792h-1.614l-.496-8.792h2.606z"/><path clip-path="url(#b)" fill="none" stroke="#6C9" stroke-width="4.38" stroke-miterlimit="10" stroke-dasharray="10,10" d="M683 586.974c-75.054 54.938-138.408 31.424-168.585-15.002-35.98-55.354-.292-127.1 2.322-132.312"/><path clip-path="url(#b)" fill="none" stroke="#6C9" stroke-width="4.38" stroke-miterlimit="10" d="M532.513 447.097l-4.463-31.792L499.4 431.9z"/><path clip-path="url(#b)" fill="none" stroke="#6C9" stroke-width="5" stroke-miterlimit="10" d="M363.463 492.32l-37.198-27.116L288.5 492.32v-15.254l37.765-27.116 36.96 27.116z"/><path clip-path="url(#b)" fill="none" stroke="#6C9" stroke-width="5" stroke-miterlimit="10" d="M351.303 484.105v30.167h-49v-30.167M103.748 546.6l-26.36 46.874M43.614 512.128l60.82 33.633 15.728-28.44-60.82-33.633-23.115 4.327z"/><path clip-path="url(#b)" fill="none" stroke="#6C9" stroke-width="4.38" stroke-miterlimit="10" stroke-dasharray="10,10" d="M853.225 562.557c-9.082-64.497 17.725-88.906 41.402-95.887 17.562-5.176 41.753 1.205 61.98-8.076 25.51-11.706 38.072-34.925 41.76-60.358"/><path clip-path="url(#b)" fill="none" stroke="#6C9" stroke-width="4.38" stroke-miterlimit="10" d="M980.492 397.006l21.326-23.997 14.66 29.685z"/><path clip-path="url(#b)" fill="none" stroke="#6C9" stroke-width="4.38" stroke-miterlimit="10" stroke-dasharray="10,10" d="M619.225 216.557c-9.082-64.497 17.724-88.906 41.402-95.886 17.562-5.175 41.753 1.206 61.98-8.076 25.51-11.706 38.072-34.924 41.76-60.358"/><path clip-path="url(#b)" fill="none" stroke="#6C9" stroke-width="4.38" stroke-miterlimit="10" d="M746.492 51.006l21.326-23.997 14.66 29.686z"/><path clip-path="url(#b)" fill="none" stroke="#6C9" stroke-width="5" stroke-miterlimit="10" d="M615.29 44.415H551.73c-6.6 0-12.232 4.96-12.232 11.56V71.16c0 6.6 5.632 12.255 12.232 12.255h4.402c1.17 4-2.266 7.955-2.266 7.955s12.286 3.045 13.406-7.955h48.015c6.6 0 12.21-5.655 12.21-12.255V55.974c0-6.6-5.61-11.56-12.21-11.56z"/><path clip-path="url(#b)" fill="#6C9" d="M556.503 61.085l-1.292 1.136c-.488-.625-1.095-.9-1.72-.9-.51 0-.98.334-.98.98 0 .704.744 1.018 1.762 1.408 1.33.51 2.76 1.097 2.76 2.858 0 1.704-1.312 3.132-3.426 3.132-2.035 0-3.308-1.41-3.817-2.643l1.722-.94c.39.88 1.077 1.782 2.172 1.782.784 0 1.332-.39 1.332-1.29 0-.863-1.195-1.098-2.35-1.587-1.134-.47-2.113-1.194-2.113-2.7 0-1.528 1.252-2.8 3.034-2.8 1.194 0 2.29.586 2.916 1.565M562.87 63.474h1.702v-.43c0-1.234-.88-1.723-1.918-1.723-.802 0-1.506.43-1.84 1.313l-1.86-.392c.412-1.663 1.82-2.72 3.72-2.72 2.29 0 3.935.998 3.935 3.895v6.127h-1.724l-.196-1.293c-.646.9-1.663 1.448-3.053 1.448-1.644 0-3.034-.94-3.034-2.995 0-2.035 1.742-3.23 4.267-3.23m-.88 4.423c1.252 0 2.582-.802 2.582-2.505v-.215h-1.78c-1.253 0-2.036.588-2.036 1.527 0 .667.372 1.194 1.233 1.194M569.198 55.683h2.036V69.54h-2.036zM577.793 63.474h1.702v-.43c0-1.234-.88-1.723-1.918-1.723-.802 0-1.506.43-1.84 1.313l-1.86-.392c.413-1.663 1.82-2.72 3.72-2.72 2.29 0 3.935.998 3.935 3.895v6.127h-1.723l-.197-1.293c-.646.9-1.663 1.448-3.053 1.448-1.644 0-3.034-.94-3.034-2.995 0-2.035 1.742-3.23 4.267-3.23m-.88 4.423c1.252 0 2.582-.802 2.582-2.505v-.215h-1.78c-1.253 0-2.036.588-2.036 1.527 0 .667.37 1.194 1.232 1.194M587.762 63.474h1.702v-.43c0-1.234-.88-1.723-1.918-1.723-.802 0-1.507.43-1.84 1.313l-1.86-.392c.412-1.663 1.82-2.72 3.72-2.72 2.29 0 3.935.998 3.935 3.895v6.127h-1.722l-.196-1.293c-.646.9-1.663 1.448-3.053 1.448-1.645 0-3.035-.94-3.035-2.995 0-2.035 1.74-3.23 4.267-3.23m-.882 4.423c1.253 0 2.583-.802 2.583-2.505v-.215h-1.78c-1.253 0-2.036.588-2.036 1.527 0 .667.373 1.194 1.233 1.194M596.066 59.676v1.683c.802-1.233 1.78-1.84 2.975-1.84 1.332 0 2.428.803 2.722 2.035.685-1.29 1.8-2.035 3.073-2.035 1.8 0 2.818 1.233 2.818 2.955v7.066h-2.036v-6.614c0-1.078-.586-1.604-1.447-1.604-1.214 0-2.31 1.546-2.31 4.266v3.954h-2.036v-6.615c0-1.078-.587-1.604-1.45-1.604-1.23 0-2.308 1.546-2.308 4.48v3.74h-2.036v-9.865h2.036zM612.693 66.684c.862 0 1.488.626 1.488 1.468 0 .84-.625 1.468-1.487 1.468-.86 0-1.488-.627-1.488-1.468 0-.842.627-1.468 1.488-1.468m1.39-10.844l-.528 9.376h-1.723l-.53-9.376h2.78z"/><path clip-path="url(#b)" fill="none" stroke="#6C9" stroke-width="5" stroke-miterlimit="10" d="M1159.29 520.415h-63.558c-6.6 0-12.232 4.96-12.232 11.56v15.186c0 6.6 5.632 12.256 12.232 12.256h4.4c1.172 4-2.265 7.955-2.265 7.955s12.286 3.046 13.405-7.954h48.016c6.6 0 12.21-5.655 12.21-12.255v-15.186c.002-6.6-5.61-11.56-12.21-11.56z"/><path clip-path="url(#b)" fill="#6C9" d="M1100.503 537.085l-1.292 1.136c-.487-.625-1.094-.898-1.72-.898-.51 0-.98.333-.98.978 0 .705.743 1.02 1.762 1.41 1.33.51 2.76 1.096 2.76 2.857 0 1.703-1.312 3.132-3.426 3.132-2.035 0-3.31-1.41-3.817-2.645l1.722-.938c.392.88 1.077 1.78 2.173 1.78.784 0 1.332-.392 1.332-1.292 0-.86-1.195-1.097-2.35-1.586-1.135-.47-2.114-1.194-2.114-2.7 0-1.528 1.252-2.8 3.034-2.8 1.194 0 2.29.585 2.916 1.565M1106.87 539.474h1.702v-.43c0-1.234-.88-1.724-1.918-1.724-.803 0-1.508.43-1.84 1.312l-1.86-.392c.412-1.664 1.82-2.722 3.72-2.722 2.29 0 3.936.998 3.936 3.896v6.127h-1.724l-.196-1.292c-.646.9-1.662 1.448-3.053 1.448-1.644 0-3.034-.938-3.034-2.994 0-2.034 1.742-3.228 4.267-3.228m-.88 4.422c1.252 0 2.582-.802 2.582-2.505v-.215h-1.78c-1.253 0-2.036.59-2.036 1.527 0 .667.372 1.194 1.233 1.194M1113.198 531.683h2.036v13.858h-2.036zM1121.793 539.474h1.702v-.43c0-1.234-.88-1.724-1.918-1.724-.802 0-1.506.43-1.84 1.312l-1.86-.392c.412-1.664 1.82-2.722 3.72-2.722 2.292 0 3.936.998 3.936 3.896v6.127h-1.723l-.196-1.292c-.646.9-1.663 1.448-3.053 1.448-1.644 0-3.033-.938-3.033-2.994 0-2.034 1.742-3.228 4.266-3.228m-.88 4.422c1.252 0 2.582-.802 2.582-2.505v-.215h-1.78c-1.253 0-2.035.59-2.035 1.527 0 .667.37 1.194 1.232 1.194M1131.76 539.474h1.703v-.43c0-1.234-.88-1.724-1.918-1.724-.802 0-1.507.43-1.84 1.312l-1.858-.392c.41-1.664 1.82-2.722 3.72-2.722 2.29 0 3.934.998 3.934 3.896v6.127h-1.722l-.196-1.292c-.646.9-1.663 1.448-3.053 1.448-1.645 0-3.035-.938-3.035-2.994 0-2.034 1.74-3.228 4.266-3.228m-.88 4.422c1.254 0 2.583-.802 2.583-2.505v-.215h-1.78c-1.252 0-2.035.59-2.035 1.527 0 .667.372 1.194 1.233 1.194M1140.066 535.676v1.684c.802-1.232 1.78-1.84 2.975-1.84 1.332 0 2.428.804 2.722 2.035.686-1.29 1.8-2.034 3.073-2.034 1.8 0 2.818 1.233 2.818 2.955v7.066h-2.036v-6.614c0-1.078-.586-1.604-1.447-1.604-1.214 0-2.31 1.546-2.31 4.266v3.954h-2.036v-6.615c0-1.078-.587-1.604-1.45-1.604-1.23 0-2.308 1.546-2.308 4.48v3.74h-2.036v-9.866h2.036zM1156.693 542.684c.86 0 1.487.626 1.487 1.468s-.626 1.47-1.487 1.47-1.488-.628-1.488-1.47.627-1.468 1.488-1.468m1.39-10.844l-.528 9.376h-1.723l-.53-9.376h2.78z"/><path clip-path="url(#b)" fill="none" stroke="#6C9" stroke-width="5" stroke-linecap="round" stroke-miterlimit="10" d="M89.342 43.13c18.87-18.87 49.032-19.25 67.435-.845M97.042 53.243c14.51-14.51 37.702-14.8 51.853-.65M104.742 63.354c10.15-10.15 26.37-10.353 36.27-.456"/><path clip-path="url(#b)" fill="#6C9" d="M129.083 73.897a6.075 6.075 0 1 1-12.15 0 6.075 6.075 0 0 1 12.15 0"/><path clip-path="url(#b)" fill="none" stroke="#6C9" stroke-width="5" stroke-linecap="round" stroke-miterlimit="10" d="M387.342 399.132c18.87-18.87 49.033-19.25 67.435-.847M395.042 409.243c14.51-14.51 37.702-14.8 51.853-.65M402.742 419.354c10.15-10.148 26.37-10.353 36.27-.456"/><path clip-path="url(#b)" fill="#6C9" d="M427.083 429.897a6.074 6.074 0 1 1-12.148 0 6.074 6.074 0 0 1 12.148 0"/><path clip-path="url(#b)" fill="none" stroke="#6C9" stroke-width="5" stroke-linecap="round" stroke-miterlimit="10" d="M884.342 268.132c18.87-18.87 49.032-19.25 67.435-.847M892.042 278.243c14.51-14.51 37.702-14.8 51.853-.65M899.742 288.354c10.148-10.148 26.37-10.353 36.27-.456"/><path clip-path="url(#b)" fill="#6C9" d="M924.083 298.897a6.074 6.074 0 1 1-12.148 0 6.074 6.074 0 0 1 12.148 0"/><path clip-path="url(#b)" fill="none" stroke="#6C9" stroke-width="5" stroke-linecap="round" stroke-miterlimit="10" d="M401.457 557.234l-16.718 10.71 16.717 11.822M440.81 579.766l16.718-10.71-16.718-11.822"/><path clip-path="url(#b)" fill="none" stroke="#6C9" stroke-width="5" stroke-linecap="round" stroke-linejoin="bevel" stroke-miterlimit="10" d="M410.403 587.803l21.46-39.124"/><path clip-path="url(#b)" fill="none" stroke="#6C9" stroke-width="5" stroke-linecap="round" stroke-miterlimit="10" d="M191.457 122.235l-16.718 10.71 16.717 11.82M230.81 144.766l16.718-10.71-16.718-11.82"/><path clip-path="url(#b)" fill="none" stroke="#6C9" stroke-width="5" stroke-linecap="round" stroke-linejoin="bevel" stroke-miterlimit="10" d="M200.403 152.802l21.46-39.124"/><path clip-path="url(#b)" fill="none" stroke="#6C9" stroke-width="5" stroke-linecap="round" stroke-miterlimit="10" d="M1085.457 413.234l-16.718 10.71 16.717 11.822M1124.81 435.766l16.718-10.71-16.717-11.822"/><path clip-path="url(#b)" fill="none" stroke="#6C9" stroke-width="5" stroke-linecap="round" stroke-linejoin="bevel" stroke-miterlimit="10" d="M1094.402 443.803l21.46-39.124"/><path clip-path="url(#b)" fill="none" stroke="#6C9" stroke-width="5" stroke-linecap="round" stroke-miterlimit="10" d="M763.457 409.234l-16.718 10.71 16.717 11.822M802.81 431.766l16.718-10.71-16.717-11.822"/><path clip-path="url(#b)" fill="none" stroke="#6C9" stroke-width="5" stroke-linecap="round" stroke-linejoin="bevel" stroke-miterlimit="10" d="M772.402 439.803l21.46-39.124"/><path clip-path="url(#b)" fill="none" stroke="#6C9" stroke-width="5" stroke-miterlimit="10" d="M591.71 518.415h40.558c6.6 0 12.232 4.96 12.232 11.56v15.186c0 6.6-5.632 12.256-12.232 12.256h-4.402c-1.17 4 2.266 7.955 2.266 7.955s-12.286 3.046-13.406-7.954H591.71c-6.6 0-12.21-5.655-12.21-12.255v-15.186c0-6.6 5.61-11.56 12.21-11.56z"/><path clip-path="url(#b)" fill="#6C9" d="M592.502 530.9v5.385c.668-.965 1.746-1.745 3.157-1.745 1.726 0 2.766.928 2.766 2.915v6.593h-1.93v-6.09c0-1.432-.596-1.71-1.47-1.71-1.057 0-2.524 1.354-2.524 3.844v3.956h-1.932V530.9h1.932zM604.635 538.29h1.616v-.406c0-1.172-.834-1.636-1.82-1.636-.76 0-1.428.408-1.744 1.244l-1.764-.372c.39-1.578 1.727-2.58 3.528-2.58 2.173 0 3.733.946 3.733 3.695v5.812h-1.635l-.185-1.227c-.613.855-1.58 1.375-2.897 1.375-1.56 0-2.878-.89-2.878-2.842 0-1.93 1.652-3.062 4.047-3.062m-.835 4.197c1.19 0 2.45-.76 2.45-2.377v-.204h-1.69c-1.187 0-1.93.558-1.93 1.448 0 .632.352 1.133 1.17 1.133M610.64 530.9h1.93v13.147h-1.93zM615.1 530.9h1.93v13.147h-1.93zM623.718 534.54c2.897 0 4.606 2.19 4.606 4.827 0 2.638-1.71 4.83-4.606 4.83s-4.605-2.192-4.605-4.83c0-2.637 1.708-4.828 4.605-4.828m0 7.947c1.69 0 2.563-1.54 2.563-3.12 0-1.578-.872-3.12-2.562-3.12s-2.563 1.542-2.563 3.12c0 1.58.873 3.12 2.563 3.12M632.545 541.337c.818 0 1.412.594 1.412 1.393s-.594 1.393-1.412 1.393c-.817 0-1.41-.594-1.41-1.393s.593-1.393 1.41-1.393m1.32-10.29l-.502 8.897h-1.635l-.5-8.896h2.636z"/><circle clip-path="url(#b)" fill="none" stroke="#6C9" stroke-width="5" stroke-miterlimit="10" cx="231" cy="412.915" r="21"/><path clip-path="url(#b)" fill="#6C9" d="M230.91 399.003c1.58 0 2.772 1.27 2.772 2.81s-1.193 2.733-2.772 2.733-2.773-1.192-2.773-2.734c0-1.54 1.194-2.81 2.773-2.81m2.002 8.278v19.407h-4.004V407.28h4.004z"/><circle clip-path="url(#b)" fill="none" stroke="#6C9" stroke-width="5" stroke-miterlimit="10" cx="1074" cy="227.915" r="21"/><path clip-path="url(#b)" fill="#6C9" d="M1073.91 214.003c1.58 0 2.77 1.27 2.77 2.81s-1.19 2.733-2.77 2.733-2.773-1.192-2.773-2.734c0-1.54 1.194-2.81 2.773-2.81m2.002 8.278v19.407h-4.004V222.28h4.004z"/><circle clip-path="url(#b)" fill="none" stroke="#6C9" stroke-width="5" stroke-miterlimit="10" cx="749" cy="553.915" r="21"/><path clip-path="url(#b)" fill="#6C9" d="M748.91 540.003c1.58 0 2.77 1.27 2.77 2.81s-1.19 2.733-2.77 2.733-2.773-1.192-2.773-2.734c0-1.54 1.194-2.81 2.773-2.81m2.002 8.278v19.407h-4.004V548.28h4.004z"/><path clip-path="url(#b)" fill="none" stroke="#6C9" stroke-width="5" stroke-miterlimit="10" d="M427.913 138.915H406.12c-5.138 0-9.342-4.203-9.342-9.34V84.43c0-5.138 4.204-9.34 9.34-9.34h21.795c5.137 0 9.34 4.202 9.34 9.34v45.145c0 5.137-4.203 9.34-9.34 9.34zM396 125.415h41"/><path clip-path="url(#b)" fill="#6C9" d="M428.317 87.014a3.19 3.19 0 1 1-6.382 0 3.19 3.19 0 0 1 6.382 0"/><path clip-path="url(#b)" fill="none" stroke="#6C9" stroke-width="5" stroke-linecap="round" stroke-miterlimit="10" d="M447.106 81.484c0-9.544-7.723-17.266-17.266-17.266M458.646 80.022c0-14.816-11.99-26.805-26.805-26.805"/><path clip-path="url(#b)" fill="none" stroke="#6C9" stroke-width="5" stroke-miterlimit="10" d="M949.913 594.915H928.12c-5.14 0-9.342-4.203-9.342-9.34V540.43c0-5.138 4.203-9.34 9.34-9.34h21.795c5.137 0 9.34 4.202 9.34 9.34v45.146c0 5.136-4.203 9.34-9.34 9.34zM918 581.415h41"/><path clip-path="url(#b)" fill="#6C9" d="M950.316 543.015a3.19 3.19 0 0 1-3.19 3.19 3.19 3.19 0 0 1 0-6.38 3.19 3.19 0 0 1 3.19 3.19"/><path clip-path="url(#b)" fill="none" stroke="#6C9" stroke-width="5" stroke-linecap="round" stroke-miterlimit="10" d="M969.106 537.484c0-9.544-7.723-17.267-17.266-17.267M980.646 536.022c0-14.816-11.99-26.805-26.806-26.805"/><path clip-path="url(#b)" fill="none" stroke="#6C9" stroke-width="4.38" stroke-miterlimit="10" d="M1186.648 609.12l18.907-25.944 17.46 28.13z"/><path clip-path="url(#b)" fill="none" stroke="#6C9" stroke-width="4.38" stroke-miterlimit="10" stroke-dasharray="10,10" d="M1452.81 596.123c-5.126 73.17-61.03 127.876-122.038 129.807-69.025 2.186-138.027-63.392-125.524-116.493"/><path clip-path="url(#b)" fill="none" stroke="#6C9" stroke-width="4.38" stroke-miterlimit="10" d="M262.188 627.69L240 604.49l30.778-12.203z"/></svg>