<svg xmlns="http://www.w3.org/2000/svg" xmlns:xlink="http://www.w3.org/1999/xlink" viewBox="0 0 1280 450"><style>.st0{fill:#03a678}.st1{clip-path:url(#XMLID_5_)}.st2{fill:none;stroke:#6C9;stroke-miterlimit:10}.st2,.st3{stroke-width:4.3802}.st3{stroke-dasharray:10.0632,10.0632}.st3,.st4{fill:none;stroke:#6C9;stroke-miterlimit:10}.st4{stroke-dasharray:9.9725,9.9725}.st4,.st5{stroke-width:4.3802}.st5{stroke-dasharray:10}.st5,.st6{fill:none;stroke:#6C9;stroke-miterlimit:10}.st6{stroke-width:5}.st7{fill:#6C9}.st8,.st9{fill:none;stroke:#6C9;stroke-width:5;stroke-linecap:round;stroke-miterlimit:10}.st9{stroke-linejoin:bevel}</style><g id="Ebene_2"><path id="XMLID_126_" class="st0" d="M0 0h1280v450H0z"/></g><g id="Ebene_1"><g id="XMLID_26_"><defs><path id="XMLID_25_" d="M0-3.5h1280V450H0z"/></defs><clipPath id="XMLID_5_"><use xlink:href="#XMLID_25_" overflow="visible"/></clipPath><g id="XMLID_24_" class="st1"><path id="XMLID_4094_" class="st2" d="M292.4 195.6l-32 3 15.3 29.4z"/><g id="XMLID_4087_"><g id="XMLID_134_"><path id="XMLID_137_" class="st2" d="M189.5 514.9c-1.1-1.3-2.1-2.6-3.1-3.9"/><path id="XMLID_136_" class="st3" d="M180.3 502.9c-52.2-73.6-26.9-134.1-4.9-150 47-34 101 6.3 133-38 23.5-32.6 8.6-79.9-18.2-98.2"/><path id="XMLID_135_" class="st2" d="M286 214c-1.5-.8-3-1.5-4.5-2.1"/></g></g><path id="XMLID_4085_" class="st2" d="M1000.4 34.6l-32 3L983.7 67z"/><g id="XMLID_4078_"><g id="XMLID_20_"><path id="XMLID_34_" class="st2" d="M897.5 353.9c-1.4-1-2.7-2-4-3"/><path id="XMLID_23_" class="st4" d="M885.8 344.5c-74.5-65-34.8-139.3-2.3-152.6 57.7-23.8 101 6.3 133-38 23.5-32.6 8.6-79.9-18.2-98.3"/><path id="XMLID_21_" class="st2" d="M994 53c-1.5-.8-3-1.5-4.5-2.1"/></g></g><path id="XMLID_4076_" class="st2" d="M1198.6 121.6l-31.6-5.5 7 32.4z"/><path id="XMLID_4074_" class="st5" d="M998.2 297.3c54.5 49 132.8 49.5 178 8.5 51.1-46.4 55.2-141.5 9.3-171"/><path id="XMLID_4072_" class="st2" d="M40.9 73.6l31.7-5.5-7 32.4z"/><path id="XMLID_4070_" class="st5" d="M241.3 249.3c-54.5 49-132.8 49.5-178 8.5-51.1-46.4-55.2-141.5-9.3-171"/><path id="XMLID_4068_" class="st2" d="M1218.1 51l18.9-25.9 17.5 28.1z"/><path id="XMLID_4066_" class="st5" d="M1484.3 38c-5.1 73.2-61 127.9-122 129.8-69 2.2-138-63.4-125.5-116.5"/><g id="XMLID_19_"><path id="XMLID_4064_" class="st5" d="M689.5 288.9c-75.1 54.9-138.4 31.4-168.6-15-36-55.4-.3-127.1 2.3-132.3"/><path id="XMLID_4063_" class="st2" d="M539 149l-4.5-31.8-28.6 16.6z"/></g><path id="XMLID_4054_" class="st6" d="M169.5 195.9l-37.2-27.1-37.8 27.1v-15.3l37.8-27.1 36.9 27.1z"/><path id="XMLID_4053_" class="st6" d="M157.3 187.7v30.2h-49v-30.2"/><path id="XMLID_4051_" class="st6" d="M1131.2 60.8l-37.1-27.1-37.6 27.1V45.6l37.6-27.1 36.9 27.1z"/><path id="XMLID_4050_" class="st6" d="M1118.9 52.6v30.2h-49V52.6"/><g id="XMLID_22_"><path id="XMLID_4048_" class="st6" d="M822.1 96.5l26.4 46.9"/><path id="XMLID_4047_" class="st6" d="M882.2 62l-60.8 33.7-15.7-28.5 60.8-33.6 23.1 4.3z"/></g><path id="XMLID_4045_" class="st5" d="M623.5 416.9c65 3.8 87.2-24.9 92.2-49 3.7-17.9-4.6-41.5 3-62.4 9.6-26.4 31.7-40.8 56.8-46.5"/><path id="XMLID_4044_" class="st2" d="M778.1 276.6l22.2-23.2-30.8-12.2z"/><g id="XMLID_149_"><path id="XMLID_4041_" class="st5" d="M423.3 197.9c-65 3.8-87.2-24.9-92.2-49-3.7-17.9 4.6-41.5-3-62.4-9.6-26.4-31.7-40.8-56.8-46.5"/><path id="XMLID_4040_" class="st2" d="M268.6 57.6l-22.1-23.2 30.7-12.2z"/></g><path id="XMLID_127_" class="st5" d="M1258.1 469.8c-3.7-17.9 4.6-41.5-3-62.4-9.6-26.4-31.7-40.8-56.8-46.5"/><path id="XMLID_4036_" class="st2" d="M1195.6 378.6l-22.1-23.2 30.7-12.2z"/><path id="XMLID_4033_" class="st5" d="M-53.3 519.4c-9.1-64.5 17.7-88.9 41.4-95.9 17.6-5.2 41.8 1.2 62-8.1 25.5-11.7 38.1-34.9 41.8-60.4"/><path id="XMLID_4032_" class="st2" d="M73.9 353.9l21.4-24 14.6 29.7z"/><g id="XMLID_2_"><path id="XMLID_4029_" class="st6" d="M362.2 268h78.6c6.6 0 11.8 5.3 11.8 11.9v15.2c0 6.6-5.2 11.9-11.8 11.9h-19.4c-1.2 4 2.3 8 2.3 8s-12.3 3-13.4-8h-48c-6.6 0-12.7-5.3-12.7-11.9v-15.2c-.1-6.6 6-11.9 12.6-11.9z"/><path id="XMLID_64_" class="st7" d="M372.7 283.7l-3 9.6h-1.8l-1.7-6.8-1.7 6.8h-1.8l-3-9.6h2.1l1.8 7 1.7-7h1.9l1.7 7 1.8-7h2z"/><path id="XMLID_66_" class="st7" d="M382.4 289.1h-6.8c0 1.4.8 2.6 2.4 2.6 1 0 2-.6 2.5-1.6l1.7.7c-.9 1.8-2 2.7-4.2 2.7-3.2 0-4.5-2.7-4.5-4.9 0-2.3 1.3-4.9 4.5-4.9 3.1 0 4.4 2.5 4.4 4.6v.8zm-6.7-1.7h4.7c-.2-1.1-.9-2.1-2.3-2.1s-2.2.9-2.4 2.1z"/><path id="XMLID_69_" class="st7" d="M386.6 279.8v13.5h-2v-13.5h2z"/><path id="XMLID_71_" class="st7" d="M397.3 290.8c-.8 1.7-2.1 2.6-4.1 2.6-3 0-4.5-2.3-4.5-4.9 0-2.6 1.5-4.9 4.5-4.9 2 0 3.4.9 4.1 2.6l-1.8.8c-.5-1-1.2-1.7-2.4-1.7-1.7 0-2.4 1.4-2.4 3.2 0 1.8.7 3.2 2.4 3.2 1.1 0 1.9-.6 2.4-1.7l1.8.8z"/><path id="XMLID_73_" class="st7" d="M403.7 283.6c3 0 4.7 2.2 4.7 4.9s-1.8 4.9-4.7 4.9c-3 0-4.7-2.2-4.7-4.9s1.7-4.9 4.7-4.9zm0 8.1c1.7 0 2.6-1.6 2.6-3.2s-.9-3.2-2.6-3.2c-1.7 0-2.6 1.6-2.6 3.2-.1 1.6.8 3.2 2.6 3.2z"/><path id="XMLID_76_" class="st7" d="M412.7 283.7v1.6c.8-1.2 1.7-1.8 2.9-1.8 1.3 0 2.4.8 2.6 2 .7-1.3 1.7-2 3-2 1.7 0 2.7 1.2 2.7 2.9v6.9h-2v-6.4c0-1-.6-1.6-1.4-1.6-1.2 0-2.2 1.5-2.2 4.1v3.8h-2v-6.4c0-1-.6-1.6-1.4-1.6-1.2 0-2.2 1.5-2.2 4.4v3.6h-2v-9.6l2 .1z"/><path id="XMLID_78_" class="st7" d="M435 289.1h-6.8c0 1.4.8 2.6 2.4 2.6 1 0 2-.6 2.5-1.6l1.7.7c-.9 1.8-2 2.7-4.2 2.7-3.2 0-4.5-2.7-4.5-4.9 0-2.3 1.3-4.9 4.5-4.9 3.1 0 4.4 2.5 4.4 4.6v.8zm-6.7-1.7h4.7c-.2-1.1-.9-2.1-2.3-2.1s-2.2.9-2.4 2.1z"/><path id="XMLID_81_" class="st7" d="M439.2 290.5c.8 0 1.4.6 1.4 1.4s-.6 1.4-1.4 1.4-1.4-.6-1.4-1.4.6-1.4 1.4-1.4zm1.4-10.5l-.5 9.1h-1.7l-.5-9.1h2.7z"/></g><path id="XMLID_4011_" class="st5" d="M702.5 529.9c-75.1 54.9-138.4 31.4-168.6-15-36-55.4-.3-127.1 2.3-132.3"/><path id="XMLID_4010_" class="st2" d="M552 390l-4.5-31.8-28.6 16.6z"/><path id="XMLID_4002_" class="st5" d="M846.7 547.4c-9.1-64.5 17.7-88.9 41.4-95.9 17.6-5.2 41.8 1.2 62-8.1 25.5-11.7 38.1-34.9 41.8-60.4"/><path id="XMLID_4001_" class="st2" d="M973.9 381.9l21.4-24 14.6 29.7z"/><g id="XMLID_145_"><path id="XMLID_3999_" class="st5" d="M576.7 233.4c-9.1-64.5 17.7-88.9 41.4-95.9 17.6-5.2 41.8 1.2 62-8.1 25.5-11.7 38.1-34.9 41.8-60.4"/><path id="XMLID_3998_" class="st2" d="M703.9 67.9l21.4-24 14.6 29.7z"/></g><g id="XMLID_151_"><path id="XMLID_3996_" class="st6" d="M627.7 22h-63.6c-6.6 0-12.7 5.3-12.7 11.9v15.2c0 6.6 6.1 11.9 12.7 11.9h4.4c1.2 4-2.3 8-2.3 8s12.3 3 13.4-8h48c6.6 0 11.8-5.3 11.8-11.9V33.9c.1-6.6-5.1-11.9-11.7-11.9z"/><path id="XMLID_3994_" class="st7" d="M569 39l-1.3 1.1c-.5-.6-1.1-.9-1.7-.9-.5 0-1 .3-1 1s.7 1 1.8 1.4c1.3.5 2.8 1.1 2.8 2.9 0 1.7-1.3 3.1-3.4 3.1-2 0-3.3-1.4-3.8-2.6l1.6-1c.4.9 1.1 1.8 2.2 1.8.8 0 1.3-.4 1.3-1.3s-1.2-1.1-2.3-1.6c-1.1-.5-2.1-1.2-2.1-2.7 0-1.5 1.3-2.8 3-2.8 1.1 0 2.2.6 2.9 1.6z"/><path id="XMLID_3991_" class="st7" d="M575.3 41.4h1.7V41c0-1.2-.9-1.7-1.9-1.7-.8 0-1.5.4-1.8 1.3l-1.9-.4c.4-1.7 1.8-2.7 3.7-2.7 2.3 0 3.9 1 3.9 3.9v6.1h-1.7l-.2-1.3c-.6.9-1.7 1.4-3.1 1.4-1.6 0-3-.9-3-3 .1-2 1.8-3.2 4.3-3.2zm-.9 4.4c1.3 0 2.6-.8 2.6-2.5v-.2h-1.8c-1.3 0-2 .6-2 1.5 0 .7.4 1.2 1.2 1.2z"/><path id="XMLID_3989_" class="st7" d="M583.7 33.6v13.9h-2V33.6h2z"/><path id="XMLID_3986_" class="st7" d="M590.2 41.4h1.7V41c0-1.2-.9-1.7-1.9-1.7-.8 0-1.5.4-1.8 1.3l-1.9-.4c.4-1.7 1.8-2.7 3.7-2.7 2.3 0 3.9 1 3.9 3.9v6.1h-1.7l-.2-1.3c-.6.9-1.7 1.4-3.1 1.4-1.6 0-3-.9-3-3 .1-2 1.8-3.2 4.3-3.2zm-.8 4.4c1.3 0 2.6-.8 2.6-2.5v-.2h-1.8c-1.3 0-2 .6-2 1.5-.1.7.3 1.2 1.2 1.2z"/><path id="XMLID_3983_" class="st7" d="M600.2 41.4h1.7V41c0-1.2-.9-1.7-1.9-1.7-.8 0-1.5.4-1.8 1.3l-1.9-.4c.4-1.7 1.8-2.7 3.7-2.7 2.3 0 3.9 1 3.9 3.9v6.1h-1.7l-.2-1.3c-.6.9-1.7 1.4-3.1 1.4-1.6 0-3-.9-3-3 0-2 1.8-3.2 4.3-3.2zm-.9 4.4c1.3 0 2.6-.8 2.6-2.5v-.2h-1.8c-1.3 0-2 .6-2 1.5 0 .7.4 1.2 1.2 1.2z"/><path id="XMLID_3981_" class="st7" d="M608.5 37.6v1.7c.8-1.2 1.8-1.8 3-1.8 1.3 0 2.4.8 2.7 2 .7-1.3 1.8-2 3.1-2 1.8 0 2.8 1.2 2.8 3v7.1h-2V41c0-1.1-.6-1.6-1.4-1.6-1.2 0-2.3 1.5-2.3 4.3v4h-2v-6.6c0-1.1-.6-1.6-1.4-1.6-1.2 0-2.3 1.5-2.3 4.5v3.7h-2v-9.9h1.8z"/><path id="XMLID_3978_" class="st7" d="M625.1 44.6c.9 0 1.5.6 1.5 1.5 0 .8-.6 1.5-1.5 1.5s-1.5-.6-1.5-1.5c.1-.9.7-1.5 1.5-1.5zm1.4-10.9l-.5 9.4h-1.7l-.5-9.4h2.7z"/></g><path id="XMLID_3954_" class="st8" d="M98.8 32c18.9-18.9 49-19.2 67.4-.8"/><path id="XMLID_3953_" class="st8" d="M106.5 42.1c14.5-14.5 37.7-14.8 51.9-.7"/><path id="XMLID_3952_" class="st8" d="M114.2 52.2c10.1-10.1 26.4-10.4 36.3-.5"/><circle id="XMLID_3951_" class="st7" cx="132.5" cy="62.8" r="6.1"/><path id="XMLID_3949_" class="st8" d="M396.8 388c18.9-18.9 49-19.2 67.4-.8"/><path id="XMLID_3948_" class="st8" d="M404.5 398.1c14.5-14.5 37.7-14.8 51.9-.7"/><path id="XMLID_3947_" class="st8" d="M412.2 408.2c10.1-10.1 26.4-10.4 36.3-.5"/><circle id="XMLID_3946_" class="st7" cx="430.5" cy="418.8" r="6.1"/><path id="XMLID_3944_" class="st8" d="M893.8 257c18.9-18.9 49-19.2 67.4-.8"/><path id="XMLID_3943_" class="st8" d="M901.5 267.1c14.5-14.5 37.7-14.8 51.9-.7"/><path id="XMLID_3942_" class="st8" d="M909.2 277.2c10.1-10.1 26.4-10.4 36.3-.5"/><circle id="XMLID_3941_" class="st7" cx="927.5" cy="287.8" r="6.1"/><path id="XMLID_3935_" class="st8" d="M200.9 111.1l-16.7 10.7 16.7 11.9"/><path id="XMLID_3934_" class="st8" d="M240.3 133.7l16.7-10.8-16.7-11.8"/><path id="XMLID_3933_" class="st9" d="M209.9 141.7l21.4-39.1"/><path id="XMLID_3927_" class="st8" d="M707.9 163.1l-16.7 10.7 16.7 11.9"/><path id="XMLID_3926_" class="st8" d="M747.3 185.7l16.7-10.8-16.7-11.8"/><path id="XMLID_3925_" class="st9" d="M716.9 193.7l21.4-39.1"/><path id="XMLID_3923_" class="st8" d="M1091.9 389.1l-16.7 10.7 16.7 11.9"/><path id="XMLID_3922_" class="st8" d="M1131.3 411.7l16.7-10.8-16.7-11.8"/><path id="XMLID_3921_" class="st9" d="M1100.9 419.7l21.4-39.1"/><circle id="XMLID_3901_" class="st6" cx="240.5" cy="401.8" r="21"/><path id="XMLID_3898_" class="st7" d="M240.4 387.9c1.6 0 2.8 1.3 2.8 2.8 0 1.5-1.2 2.7-2.8 2.7-1.6 0-2.8-1.2-2.8-2.7 0-1.5 1.2-2.8 2.8-2.8zm2 8.3v19.4h-4v-19.4h4z"/><g id="XMLID_12_"><circle id="XMLID_3895_" class="st6" cx="1083.5" cy="216.8" r="21"/><path id="XMLID_3892_" class="st7" d="M1083.4 202.9c1.6 0 2.8 1.3 2.8 2.8 0 1.5-1.2 2.7-2.8 2.7-1.6 0-2.8-1.2-2.8-2.7 0-1.5 1.2-2.8 2.8-2.8zm2 8.3v19.4h-4v-19.4h4z"/></g><path id="XMLID_3883_" class="st6" d="M437.4 127.8h-21.8c-5.1 0-9.3-4.2-9.3-9.3V73.3c0-5.1 4.2-9.3 9.3-9.3h21.8c5.1 0 9.3 4.2 9.3 9.3v45.1c0 5.2-4.2 9.4-9.3 9.4z"/><path id="XMLID_3882_" class="st6" d="M405 114h41"/><circle id="XMLID_3881_" class="st7" cx="434.6" cy="75.9" r="3.2"/><path id="XMLID_3879_" class="st8" d="M456.6 70.4c0-9.5-7.7-17.3-17.3-17.3"/><path id="XMLID_3878_" class="st8" d="M468.1 68.9c0-14.8-12-26.8-26.8-26.8"/><path id="XMLID_1_" class="st6" d="M755.2 381h106.6c6.6 0 11.8 5.3 11.8 11.9v15.2c0 6.6-5.2 11.9-11.8 11.9h-19.4c-1.2 4 2.3 8 2.3 8s-12.3 3-13.4-8h-76c-6.6 0-12.7-5.3-12.7-11.9v-15.2c-.1-6.6 6-11.9 12.6-11.9z"/><g id="XMLID_4_"><path id="XMLID_7_" class="st7" d="M767.2 396.5l-3 9.6h-1.8l-1.7-6.8-1.7 6.8h-1.8l-3-9.6h2.1l1.8 7 1.7-7h1.9l1.7 7 1.8-7h2z"/><path id="XMLID_9_" class="st7" d="M769.8 392.4c.8 0 1.4.6 1.4 1.4 0 .8-.6 1.4-1.4 1.4s-1.4-.6-1.4-1.4c0-.8.6-1.4 1.4-1.4zm1 4.1v9.6h-2v-9.6h2z"/><path id="XMLID_42_" class="st7" d="M775.3 392.6v13.5h-2v-13.5h2z"/><path id="XMLID_44_" class="st7" d="M779.9 392.6v13.5h-2v-13.5h2z"/><path id="XMLID_46_" class="st7" d="M784.6 392.6v7.7l3.5-3.8h2.5l-4 4.4 4.3 5.2h-2.5l-3.7-4.6v4.6h-2v-13.5h1.9z"/><path id="XMLID_48_" class="st7" d="M796 396.3c3 0 4.7 2.2 4.7 4.9s-1.8 4.9-4.7 4.9c-3 0-4.7-2.2-4.7-4.9s1.7-4.9 4.7-4.9zm0 8.2c1.7 0 2.6-1.6 2.6-3.2s-.9-3.2-2.6-3.2c-1.7 0-2.6 1.6-2.6 3.2s.9 3.2 2.6 3.2z"/><path id="XMLID_51_" class="st7" d="M805 396.5v1.6c.8-1.2 1.7-1.8 2.9-1.8 1.3 0 2.4.8 2.6 2 .7-1.3 1.7-2 3-2 1.7 0 2.7 1.2 2.7 2.9v6.9h-2v-6.4c0-1-.6-1.6-1.4-1.6-1.2 0-2.2 1.5-2.2 4.1v3.8h-2v-6.4c0-1-.6-1.6-1.4-1.6-1.2 0-2.2 1.5-2.2 4.4v3.6h-2v-9.6l2 .1z"/><path id="XMLID_53_" class="st7" d="M821 396.5v1.6c.8-1.2 1.7-1.8 2.9-1.8 1.3 0 2.4.8 2.6 2 .7-1.3 1.7-2 3-2 1.8 0 2.7 1.2 2.7 2.9v6.9h-2v-6.4c0-1-.6-1.6-1.4-1.6-1.2 0-2.2 1.5-2.2 4.1v3.8h-2v-6.4c0-1-.6-1.6-1.4-1.6-1.2 0-2.2 1.5-2.2 4.4v3.6h-2v-9.6l2 .1z"/><path id="XMLID_55_" class="st7" d="M843.4 401.8h-6.8c0 1.4.8 2.6 2.4 2.6 1 0 2-.6 2.5-1.6l1.7.7c-.9 1.8-2 2.7-4.2 2.7-3.2 0-4.5-2.7-4.5-4.9 0-2.3 1.3-4.9 4.5-4.9 3.1 0 4.4 2.5 4.4 4.6v.8zm-6.8-1.6h4.7c-.2-1.1-.9-2.1-2.3-2.1s-2.2.9-2.4 2.1z"/><path id="XMLID_58_" class="st7" d="M847.4 396.5v1.6c.7-1.1 1.8-1.8 3.1-1.8 1.7 0 2.8 1 2.8 2.9v6.9h-2v-6.2c0-1.3-.6-1.7-1.5-1.7-1.2 0-2.5 1.5-2.5 4.1v3.9h-2v-9.6l2.1-.1z"/><path id="XMLID_60_" class="st7" d="M858.3 403.3c.8 0 1.4.6 1.4 1.4s-.6 1.4-1.4 1.4-1.4-.6-1.4-1.4.5-1.4 1.4-1.4zm1.3-10.6l-.5 9.1h-1.7l-.5-9.1h2.7z"/></g></g></g></g></svg>