<svg xmlns="http://www.w3.org/2000/svg" viewBox="0 0 1280 415" enable-background="new 0 0 1280 415"><g><g stroke="#fff" stroke-width="3" stroke-linecap="square" stroke-linejoin="round" stroke-miterlimit="10" fill="none"><path d="M192.145 20.694c-4.89 5.055-10.171 4.942-14.94 0l-.01-.038c-4.77-4.942-10.051-5.056-14.942 0M152.147 36.798c-4.891 5.057-10.172 4.943-14.941 0l-.008-.037c-4.771-4.943-10.052-5.057-14.943 0M83.427 35.254c-4.892 5.056-10.172 4.942-14.943 0l-.006-.038c-4.771-4.942-10.053-5.055-14.943 0M151.644 17.202c-4.89 5.056-10.172 4.943-14.941 0l-.006-.037c-4.771-4.942-10.054-5.055-14.943 0M132.05 23.231c-4.891 5.056-10.173 4.943-14.943 0l-.009-.037c-4.769-4.942-10.05-5.055-14.941 0M71.821 21.688c-4.891 5.055-10.17 4.943-14.942 0l-.009-.038c-4.769-4.942-10.05-5.056-14.941 0M98.366 16.431c-4.892 5.055-10.173 4.943-14.941 0l-.008-.037c-4.771-4.943-10.053-5.057-14.943 0M108.112 30.181c-4.891 5.056-10.172 4.944-14.941 0l-.01-.037c-4.77-4.941-10.05-5.055-14.94 0M175.29 29.409c-4.891 5.056-10.172 4.943-14.942 0l-.009-.037c-4.769-4.942-10.051-5.056-14.941 0"/></g><g stroke="#fff" stroke-width="3" stroke-linejoin="round" stroke-miterlimit="10" fill="none"><path stroke-linecap="round" d="M276.803 169.171c2.173.924 4.561 1.436 7.07 1.436 9.984 0 17.191-8.093 17.191-18.076 0-8.934-6.482-16.347-14.999-17.81-.403-7.349-6.485-13.184-13.936-13.184-7.707 0-13.957 6.248-13.957 13.957 0 .868.084 1.718.235 2.544-7.459 1.229-13.152 7.704-13.152 15.512 0 8.686 7.041 15.727 15.727 15.727 3.031 0 6.721-1.339 9.12-2.823"/><path stroke-linecap="square" d="M276.261 165.128v26.1c0 1.525-1.579 2.637-3.104 2.637h-.095c-1.525 0-2.991-1.112-2.991-2.637v-42.015"/><path stroke-linecap="round" d="M284.758 178.379c13.56 2.046 23.265 7.544 23.265 14.006 0 8.206-15.663 14.858-34.982 14.858-19.321 0-34.984-6.652-34.984-14.858 0-6.515 9.87-12.05 23.603-14.056M233.999 190.338c-3.565 9.581 12.47 19.619 24.261 19.619M292.061 176.133c13.557 2.045 20.363 9.148 20.363 15.609"/></g><g stroke="#fff" stroke-width="3" stroke-miterlimit="10" fill="none"><circle cx="295.989" cy="378.217" r="21.429"/><circle cx="195.765" cy="378.217" r="21.429"/><path d="M296.821 378.186l-28.318-54.307s-1.44-3.932-5.358-3.932h-11.521"/><path stroke-linejoin="round" d="M279.965 346.165l-44.914 31.254h-38.985l25.882-25.474 53.236-14.936M235.051 377.378l-22.287-45.076"/><path stroke-linecap="round" stroke-linejoin="round" d="M202.992 332.325h16.799"/></g><g stroke="#fff" stroke-width="3" stroke-linecap="square" stroke-linejoin="round" stroke-miterlimit="10" fill="none"><path d="M1152.496 143.087c-3.543 7.672.986 17.309.986 17.309s10.275-2.799 13.819-10.472c3.544-7.671-.985-17.31-.985-17.31s-10.277 2.802-13.82 10.473zM1147.614 165.837c3.526 0 5.079-2.717 6.208-6.096l6.28-13.833"/><path d="M1128.623 123.635c-3.543 7.672.986 17.31.986 17.31s10.275-2.8 13.818-10.473c3.545-7.671-.984-17.309-.984-17.309s-10.277 2.801-13.82 10.472zM1123.741 146.384c3.526 0 5.079-2.717 6.208-6.094l6.28-13.834"/></g><g stroke="#fff" stroke-width="3" stroke-linecap="square" stroke-linejoin="round" stroke-miterlimit="10" fill="none"><path d="M394.192 366.291c-3.543 7.672.985 17.31.985 17.31s10.274-2.8 13.819-10.473c3.544-7.671-.986-17.309-.986-17.309s-10.276 2.801-13.818 10.472zM389.31 389.04c3.527 0 5.078-2.717 6.209-6.095l6.279-13.833"/><path d="M370.318 346.839c-3.542 7.672.986 17.31.986 17.31s10.274-2.8 13.819-10.473c3.544-7.671-.986-17.309-.986-17.309s-10.276 2.801-13.819 10.472zM365.437 369.588c3.527 0 5.078-2.717 6.209-6.095l6.279-13.833"/></g><g stroke="#fff" stroke-width="3" stroke-linecap="square" stroke-linejoin="round" stroke-miterlimit="10" fill="none"><path d="M100.209 258.979c-3.543 7.672.986 17.31.986 17.31s10.273-2.799 13.818-10.473c3.545-7.671-.984-17.31-.984-17.31s-10.277 2.801-13.82 10.473zM95.327 281.728c3.526 0 5.079-2.718 6.208-6.095l6.28-13.834"/><path d="M73.263 240.571c-3.543 7.672.986 17.31.986 17.31s10.274-2.8 13.819-10.473c3.544-7.672-.986-17.31-.986-17.31s-10.276 2.801-13.819 10.473zM68.381 263.319c3.527 0 5.078-2.717 6.208-6.094l6.28-13.834"/></g><g stroke="#fff" stroke-width="3" stroke-miterlimit="10" fill="none"><circle cx="390.603" cy="105.839" r="2.577"/><path stroke-linecap="square" stroke-linejoin="round" d="M397.994 115.314h-28.811c-3.585 0-5.051-3.537-3.259-6.643l21.708-38.099c1.792-3.105 4.727-3.354 6.521-.249l21.708 38.474c1.791 3.104.325 6.517-3.26 6.517h-3.997"/><path stroke-linecap="square" stroke-linejoin="round" d="M392.246 96.747c0 .976-.792 1.769-1.768 1.769-.977 0-1.769-.793-1.769-1.769v-15.031c0-.976.792-1.769 1.769-1.769.976 0 1.768.793 1.768 1.769v15.031zM345.038 79.84h18.444v-53.935h27.411v-13.263h76.039v13.263h30.062v89.409"/><path stroke-linecap="round" d="M371.439 34.747h10.611v10.609h-10.611zM476.658 40.052h10.61v10.61h-10.61zM476.658 58.62h10.61v10.61h-10.61zM397.965 20.6h10.611v10.61h-10.611zM414.766 27.673h10.609v10.61h-10.609zM414.766 45.356h10.609v10.611h-10.609zM432.449 40.052h10.609v10.61h-10.609zM432.449 58.62h10.609v10.61h-10.609zM449.248 20.6h10.611v10.61h-10.611z"/><path stroke-linecap="square" stroke-linejoin="round" d="M466.932 26.347v91.012M390.893 26.347v25.822"/></g><g stroke="#fff" stroke-width="3" stroke-linejoin="round" stroke-miterlimit="10" fill="none"><path stroke-linecap="round" d="M934.495 209.72s4.58-9.12 16.313-9.12c11.734 0 16.61 6.538 16.61 6.538s2.525-7.099 9.394-6.812c6.869.286 6.975 4.421 9.101 6.032 1.335 1.012 4.675.78 4.675.78s-4.865-15.695-3.72-27.429c1.145-11.734-8.198-13.735-8.198-13.735M943.286 242.366c.859.285 18.608 7.094 38.717-.732 18.97-7.384 34.628-22.846 34.628-22.846s2.289-15.613-8.587-32.214c-10.874-16.598-19.458-27.186-19.458-27.186s-12.02-9.468-23.182-9.468l-8.3 12.327s2.014 6.583 9.741 6.583c0 0 8.232 1.067 8.998-6.592"/><path stroke-linecap="square" d="M961.895 218.244l-8.077 6.284 8.077 6.936M974.152 231.464l8.077-6.283-8.077-6.937"/><path stroke-linecap="round" d="M965.082 237.071l6.345-24.191"/></g><g stroke="#fff" stroke-width="3" stroke-linecap="round" stroke-linejoin="round" stroke-miterlimit="10" fill="none"><circle cx="623.877" cy="46.411" r="16.203"/><path d="M623.795 62.614c-5.177 0-9.371-7.255-9.371-16.203 0-8.949 4.194-16.203 9.371-16.203M623.808 62.614c5.177 0 9.374-7.255 9.374-16.203 0-8.949-4.197-16.203-9.374-16.203M624.267 24.463v-7.523M624.267 76.373v-8.277M601.32 47.409h-8.275M652.479 47.409h-7.524M607.967 31.311l-4.965-4.963M643.613 26.348l-4.965 4.963M607.967 61.995l-4.965 4.963M643.613 66.958l-4.965-4.963M624.267 30.482v32.349"/></g><g stroke="#fff" stroke-width="3" stroke-linecap="round" stroke-linejoin="round" stroke-miterlimit="10" fill="none"><circle cx="1227.063" cy="42.525" r="16.203"/><path d="M1226.982 58.728c-5.178 0-9.373-7.254-9.373-16.203s4.195-16.202 9.373-16.202M1226.993 58.728c5.179 0 9.375-7.254 9.375-16.203s-4.196-16.202-9.375-16.202M1227.453 20.577v-7.523M1227.453 72.486v-8.275M1204.508 43.522h-8.276M1255.664 43.522h-7.522M1211.152 27.426l-4.964-4.964M1246.799 22.462l-4.964 4.964M1211.152 58.108l-4.964 4.963M1246.799 63.071l-4.964-4.963M1227.453 26.596v32.348"/></g><path stroke="#fff" stroke-width="3" stroke-miterlimit="10" d="M21.039.303v144.592c0 8.591 6.052 10.639 9.063 11.461l1.183.391c7.794 2.217 13.628 8.902 13.628 19.348v98.74l12.29-2.596-15.316 36.668-15.746-36.668 10.812 2.59v-98.734c0-8.611-4.789-10.822-7.947-11.686l-1.312-.432c-5.565-1.584-14.611-6.17-14.611-18.951v-145.026" fill="none"/><g stroke="#fff" stroke-width="3" stroke-miterlimit="10" fill="none"><path d="M1145.594 72.44c1.625 0 2.944 1.318 2.944 2.945s-1.319 2.945-2.944 2.945c-1.629 0-2.945-1.318-2.945-2.945s1.316-2.945 2.945-2.945z"/><path stroke-linecap="square" stroke-linejoin="round" d="M1112.594 85.56l-15.534 2.947 9.704-23.132-.146-.8c-7.31-21.176 3.933-44.268 25.107-51.575 21.175-7.31 44.267 3.931 51.575 25.107 7.311 21.176-4.693 43.092-25.868 50.399-10.116 3.493-21.735 1.713-29.259-2.849M1149.243 63.39c-1.042 1.34-2.673 2.197-4.499 2.197-3.153 0-5.705-2.555-5.705-5.705 0-1.321.446-2.535 1.198-3.504l12.802-12.819s2.562-2.562 2.562-6.938c0-5.942-4.781-10.678-10.679-10.678-4.553 0-8.44 2.848-9.976 6.859"/></g><g stroke="#fff" stroke-width="3" stroke-miterlimit="10" fill="none"><path d="M249.828 302.198c0-20.846 17.379-37.806 38.227-37.806l.726-.004 9.672-.153c35.555-.074 65.116-24.134 74.112-56.822"/><path stroke-dasharray="9.668,9.668" d="M350.495 209.381c-8.517 20.428-28.563 34.845-52.201 34.875l-4.815.078c-.051.002-5.553.078-5.604.078-25.526.034-47.639 16.814-55.145 39.851"/><path d="M231.561 288.381c-.345 1.424-.635 2.87-.867 4.334M335.594 186.471c0 20.847-16.611 37.807-37.459 37.807l.04.002-10.478.154c-36.269.076-67.459 25.106-76.141 58.8"/><g stroke-linecap="round"><path d="M353.428 188.76s-18.724-38.234-18.724-48.576c0-10.341 8.382-18.723 18.724-18.723 10.34 0 18.723 8.382 18.723 18.723 0 6.615-7.664 24.648-13.186 36.783"/><circle cx="353.398" cy="142.155" r="7.566"/></g></g><g stroke="#fff" stroke-width="3" stroke-miterlimit="10" fill="none"><path d="M982.634 312.132c0 4.239-6.873 7.676-15.354 7.676-8.479 0-15.352-3.437-15.352-7.676M985.09 324.823c0 4.917-7.973 8.904-17.81 8.904-9.834 0-17.808-3.987-17.808-8.904M977.721 286.75c0 2.883-4.673 5.22-10.44 5.22-5.765 0-10.439-2.338-10.439-5.22M980.177 299.644c0 3.561-5.773 6.449-12.896 6.449-7.122 0-12.895-2.889-12.895-6.449M977.99 347.627c-3.067.896-6.65 1.411-10.464 1.411-11.271 0-20.471-4.501-20.471-10.051v-.612l11.543-62.639c0-2.339 3.897-4.236 8.578-4.236 4.68 0 8.577 1.897 8.577 4.236l12.107 62.593M987.108 334.91l4.781 4.782c2.608 2.607 2.95 5.293.091 7.507-4.461 3.455-19.44 11.46-19.44 11.46-4.916 2.888-9.352-.092-9.352-.092s-15.273-8.298-19.83-11.847c-2.908-2.267-2.648-4.952-.093-7.508l4.993-4.993"/></g><g stroke="#fff" stroke-width="3" stroke-linecap="square" stroke-linejoin="round" stroke-miterlimit="10" fill="none"><path d="M1010.13 60.831c-1.459 0-1.727-.752-.594-1.673l33.904-27.581c1.132-.92 2.982-.92 4.115 0l33.905 27.581c1.132.921.865 1.673-.596 1.673h-70.734zM1074.231 61.273v31.831M1064.505 61.273v31.831M1050.358 61.273v31.831M1040.632 61.273v31.831M1026.484 61.273v31.831M1007.475 95.315h76.041M1007.475 100.62h76.041M1007.475 105.924h76.041"/><path d="M1045.053 6.011h17.684v10.61h-17.684zM1045.053 30.327v-23.873M1016.759 61.273v31.831"/></g><g stroke="#fff" stroke-width="3" stroke-miterlimit="10" fill="none"><path d="M1251.694 215.093l-6.979 11.178c-1.524 2.62-2.758 5.263-2.758 8.412 0 7.84 6.354 14.196 14.198 14.196 7.838 0 14.194-6.356 14.194-14.196 0-3.192-1.054-6.139-2.834-8.511l-11.36-19.245"/><path stroke-linecap="round" d="M1265.322 232.554c0 6.018-4.187 10.887-9.359 10.887"/></g><g stroke="#fff" stroke-width="3" stroke-miterlimit="10" fill="none"><path d="M1231.964 251.309l6.978 11.178c1.526 2.619 2.76 5.263 2.76 8.411 0 7.841-6.355 14.196-14.195 14.196-7.842 0-14.197-6.355-14.197-14.196 0-3.191 1.052-6.138 2.833-8.51l11.364-19.245"/><path stroke-linecap="round" d="M1218.335 268.77c0 6.018 4.187 10.887 9.361 10.887"/></g><g stroke="#fff" stroke-width="3" stroke-miterlimit="10" fill="none"><path d="M1254.373 149.59l8.982 14.387c1.962 3.371 3.55 6.773 3.55 10.826 0 10.092-8.181 18.271-18.271 18.271s-18.271-8.18-18.271-18.271c0-4.109 1.357-7.902 3.647-10.955l14.624-24.768"/><path stroke-linecap="round" d="M1235.694 174.34c0 7.746 5.389 14.014 12.048 14.014"/><path d="M1260.004 139.344v-10.178c0-16.871-14.12-30.596-31.166-30.596-16.935 0-30.728 13.812-30.728 30.791v67.236h-11.687v11.713M1242.32 139.344v-10.178c0-7.119-6.513-12.857-13.807-12.857-7.184 0-13.604 5.936-13.604 13.076v67.334h10.64v26.887M1261.33 139.786h-7.957"/></g><g stroke="#fff" stroke-width="3" stroke-miterlimit="10" fill="none"><path d="M164.829 314.209c9.355 0 16.941-7.876 16.941-17.232 0-9.355-7.586-16.941-16.941-16.941-.725 0-1.437.05-2.137.139-2.855-5.329-8.475-8.954-14.943-8.954-8.787 0-16.012 6.693-16.857 15.26-1.047-.249-2.139-.385-3.262-.385-7.764 0-14.058 6.295-14.058 14.058s6.295 14.058 14.058 14.058l37.199-.003z"/><path stroke-linecap="round" d="M176.731 298.342c0-7.833-6.351-14.206-14.184-14.206-.607 0-1.203.029-1.791.104-2.39-4.462-7.094-7.502-12.509-7.502"/></g><g stroke="#fff" stroke-width="3" stroke-linecap="square" stroke-linejoin="round" stroke-miterlimit="10" fill="none"><path d="M567.465 58.348c0 1.852-1.396 3.574-3.25 3.574h-36.059c-1.854 0-3.133-1.723-3.133-3.574v-22.08c0-1.853 1.279-3.523 3.133-3.523h36.059c1.854 0 3.25 1.672 3.25 3.523v22.08z"/><circle cx="530.813" cy="75.309" r="5.003"/><circle cx="563.211" cy="75.309" r="5.003"/><path d="M537.694 89.516l-11.135 18.41M529.76 89.516l-11.135 18.41"/><path d="M573.653 82.72c0 3.652-2.959 6.612-6.611 6.612h-42.479c-3.654 0-6.615-2.96-6.615-6.612v-49.553c0-3.652 2.961-6.612 6.615-6.612h42.479c3.652 0 6.611 2.96 6.611 6.612v49.553zM555.192 89.516l11.135 18.41M563.125 89.516l11.135 18.41"/></g><g stroke="#fff" stroke-width="3" stroke-linejoin="round" stroke-miterlimit="10" fill="none"><path stroke-linecap="square" d="M125.209 79.127l-13.586 10.569 13.586 11.67M145.83 101.366l13.586-10.57-13.586-11.669"/><path stroke-linecap="round" d="M130.568 110.798l10.676-40.696"/></g><g stroke="#fff" stroke-width="3" stroke-linejoin="round" stroke-miterlimit="10" fill="none"><path stroke-linecap="square" d="M1222.144 368.858l-13.586 10.57 13.586 11.669M1242.767 391.097l13.586-10.571-13.586-11.668"/><path stroke-linecap="round" d="M1227.505 400.529l10.675-40.697"/></g><g stroke="#fff" stroke-width="3" stroke-linecap="round" stroke-linejoin="round" stroke-miterlimit="10" fill="none"><path d="M1116.069 299.424l14.448-62.698M1153.942 282.134l-10.463-45.408M1149.129 264.118l-29.235 17.821M1124.813 262.401l29.129 19.733M1145.973 249.331l-19.908 12.692M1127.929 249.602l20.078 10.61M1150.011 236.303h-74.272M1167.329 234.675l-5.681 5.165h-5.587c-2.852 0-5.607-2.312-5.607-5.165v-5.586c0-2.853 2.756-5.165 5.607-5.165h11.634M1075.739 228.345h56.59l4.543-42.633 5.19 42.633h7.949M1136.872 185.712l20.295 33.898M1136.972 185.712l-44.485 42.633M1092.097 227.903v137.934"/><circle cx="1096.734" cy="380.083" r="4.59"/><circle cx="1087.542" cy="380.083" r="4.59"/><circle cx="1092.138" cy="388.254" r="4.59"/><path d="M1096.677 390.209c.984.643 2.215.908 3.457.646 2.48-.525 4.063-2.963 3.539-5.443-.281-1.334-1.119-2.41-2.219-3.036M1092.581 393.271c0 2.302-1.346 3.575-1.83 3.848-2.213 1.239-5.012.452-6.248-1.761-.336-.595-1.014-1.792-.572-3.281M1092.969 397.119c2.212 1.239 5.011.452 6.248-1.761.335-.595 1.008-1.565.571-3.281M1087.942 390.209c-.984.643-2.215.908-3.456.646-2.481-.525-4.065-2.963-3.54-5.443.282-1.334 1.119-2.41 2.219-3.036"/><path d="M1094.299 366.233c-2.723 2.723-1.833 6.306-1.833 6.306s3.854.62 6.306-1.833c2.399-2.398 2.575-7.047 2.575-7.047s-4.424-.049-7.048 2.574zM1090.184 366.233c2.722 2.723 1.832 6.306 1.832 6.306s-3.854.62-6.306-1.833c-2.4-2.398-2.575-7.047-2.575-7.047s4.424-.049 7.049 2.574z"/></g><g stroke="#fff" stroke-width="3" stroke-linecap="round" stroke-linejoin="round" stroke-miterlimit="10" fill="none"><path d="M928.674 97.249c-9.395-2.737-13.524-14.334-5.304-23.395M928.674 30.333c-9.395 2.734-13.524 14.332-5.304 23.393M932.021 38.8c-9.291-15.638 4.312-20.456 10.692-18.832 4.473 1.139 8.616 3.855 8.616 8.615v70.016c0 4.759-4.144 7.477-8.616 8.615-6.381 1.624-19.848-3.125-10.556-18.763M920.998 76.97c-10.887-4.644-11.492-20.675-.097-26.901M979.799 29.937c9.394 2.737 13.521 14.334 5.303 23.395M979.799 96.854c9.394-2.735 13.521-14.333 5.303-23.394M976.45 88.387c9.29 15.638-4.119 20.455-10.504 18.832-4.475-1.14-8.429-3.856-8.429-8.616v-70.017c0-4.76 3.955-7.477 8.429-8.615 6.385-1.625 19.755 3.123 10.463 18.762M987.474 50.217c10.887 4.644 11.491 20.674.099 26.9M943.121 39.652c0 6.775-4.832 12.256-10.807 12.256M964.856 39.652c0 6.775 4.833 12.256 10.808 12.256M943.121 88.808c0-6.773-4.832-12.252-10.807-12.252M964.856 88.808c0-6.773 4.833-12.252 10.808-12.252M982.909 64.703c-4.224-4.788-11.059-4.788-15.283 0M938.684 64.703c-4.223-4.788-11.061-4.788-15.281 0"/></g><g stroke="#fff" stroke-width="3" stroke-miterlimit="10" fill="none"><path d="M331.406 99.409c0 4.184-1.719 8.087-5.205 8.087h-34.104c-3.489 0-7.552-3.903-7.552-8.087v-74.268c0-4.186 4.062-6.062 7.552-6.062h34.104c3.486 0 5.205 1.877 5.205 6.062v74.268zM285.871 90.696h46.862M285.871 36.761h46.862"/><circle cx="309.147" cy="27.257" r="2.514"/><path d="M303.555 99.538h10.61"/><g stroke-linejoin="round"><path d="M306.649 65.939h12.077c0 6.188-5.304 11.782-11.846 11.782-6.543 0-11.952-5.337-11.952-11.879 0-6.543 5.532-11.893 11.721-11.893v11.99zM311.07 61.807v-11.859c6.189 0 11.731 5.334 11.731 11.813l-11.731.046z"/></g></g><g stroke="#fff" stroke-width="3" stroke-linejoin="round" stroke-miterlimit="10" fill="none"><path stroke-linecap="round" d="M850.768 328.769c-3.203 2.229-7.096 3.533-11.292 3.533-10.938 0-19.803-8.866-19.803-19.802 0-10.938 8.864-19.803 19.803-19.803 10.935 0 19.802 8.865 19.802 19.803 0 4.09-1.242 7.893-3.366 11.047M870.547 312.5c0-10.938 8.866-19.803 19.803-19.803 10.936 0 19.802 8.865 19.802 19.803 0 10.935-8.865 19.802-19.802 19.802M836.701 315.367l-5.544 4.482M848.846 305.231l-5.897 4.873M893.789 315.367l5.543 4.482M881.646 305.231l5.895 4.873M855.744 353.225c2.229 3.202 3.533 7.095 3.533 11.291 0 10.938-8.865 19.803-19.802 19.803-10.938 0-19.803-8.865-19.803-19.803 0-10.937 8.864-19.802 19.803-19.802 4.089 0 7.892 1.241 11.048 3.366M879.057 347.677c3.203-2.229 7.095-3.533 11.293-3.533 10.936 0 19.802 8.864 19.802 19.802s-8.865 19.802-19.802 19.802-19.803-8.865-19.803-19.802c0-4.09 1.24-7.893 3.365-11.047"/><path d="M876.441 337.85c0-2.002-.505-3.885-1.394-5.529l18.091-18.088c1.335-1.336 1.335-3.5 0-4.838-1.336-1.335-3.502-1.335-4.839 0l-18.122 18.122c-1.611-.845-3.443-1.323-5.393-1.323-1.999 0-3.882.506-5.525 1.393l-18.193-18.191c-1.335-1.335-3.5-1.335-4.836 0-1.336 1.338-1.336 3.502 0 4.838l18.225 18.224c-.846 1.612-1.322 3.445-1.322 5.394 0 2.746 1.943 6.579 1.943 6.579l-18.086 18.087c-1.338 1.336-1.593 3.244-.256 4.582 1.336 1.335 3.244 1.081 4.582-.255l18.123-18.121c1.464.698 3.808 1.163 5.756 1.163 2 0 3.352.233 5.894-1.552l18.192 18.188c1.336 1.339 3.246 1.591 4.581.256s1.081-3.246-.254-4.582l-18.226-18.224c.001-.001 1.059-2.911 1.059-6.123z"/><path stroke-linecap="round" d="M893.121 361.078l5.545-4.48M880.979 371.215l5.894-4.873M836.037 361.078l-5.547-4.48M848.178 371.215l-5.896-4.875"/></g><g stroke="#fff" stroke-width="3" stroke-linejoin="round" stroke-miterlimit="10" fill="none"><path d="M1163.879 375.898l61.431-61.431 5.882 5.882-61.431 61.431zM1175.623 387.629l61.431-61.431 5.882 5.882-61.431 61.431zM1152.745 364.748l61.431-61.431 5.88 5.88-61.431 61.431zM1141.635 353.637l61.43-61.43 5.23 5.23-61.43 61.43zM1129.882 341.891l61.429-61.429 5.228 5.228-61.429 61.429z"/></g><g stroke="#fff" stroke-width="3" stroke-miterlimit="10" fill="none"><path d="M850.646 17.556c4.532-1.317 9.325-2.025 14.283-2.025 16.249 0 30.726 7.592 40.073 19.423l-40.073 87.978-40.073-87.977c2.836-3.588 6.141-6.786 9.824-9.501M830.495 46.59c7.908-9.173 17.38-16.911 34.434-16.911 16.303 0 26.262 7.777 34.4 16.978"/><circle cx="850.54" cy="52.29" r="10.054"/><circle cx="866.455" cy="79.7" r="10.054"/><circle cx="877.95" cy="49.637" r="10.054"/></g><g stroke="#fff" stroke-width="3" stroke-miterlimit="10" fill="none"><path stroke-linecap="square" stroke-linejoin="round" d="M562.001 323.61v-9.844c4.579 0 8.573-.847 12.717-.847 13.586 0 22.628-4.847 41.621-4.847 6.364 0 8.979 7.108 8.979 19.463l-.062 65.021c0-35.03-28.448-7.359-63.255-7.359v-11.466"/><path stroke-linecap="square" stroke-linejoin="round" d="M625.043 392.557c0-35.029 28.554-7.357 63.359-7.357v-71.433c-34.805 0-63.368-21.26-63.368 13.771l.009 65.019zM625.044 394.459c0-23.626 28.555-4.163 63.364-4.163M625.208 394.459c0-23.626-28.559-4.163-63.365-4.163"/><g stroke-linecap="square" stroke-linejoin="round"><path d="M579.777 329.207h33.058M585.282 335.612h27.553M587.75 342.018h25.085M587.75 348.423h25.085M587.125 354.828h25.71M585.282 361.233h27.553"/></g><path stroke-linecap="square" stroke-linejoin="round" d="M637.11 336.483h16.488v15.571h-16.488zM645.354 356.633h21.068v10.992h-21.068zM658.178 326.407h16.488v25.647h-16.488z"/><circle stroke-linecap="square" stroke-linejoin="round" cx="562.691" cy="348.672" r="25.06"/><circle stroke-linecap="square" stroke-linejoin="round" cx="561.992" cy="348.672" r="15.888"/><path d="M537.842 354.382h-40.181c-3.094 0-5.603-2.511-5.603-5.604v-.143c0-3.094 2.509-5.598 5.603-5.598h40.181M529.334 354.785v-11.343"/><path stroke-linecap="square" stroke-linejoin="round" d="M564.624 338.579c4.474 0 8.091 4.084 8.091 9.132"/></g><path stroke="#fff" stroke-width="3" stroke-linecap="square" stroke-linejoin="round" stroke-miterlimit="10" fill="none" d="M182.754 67.24v31.831"/><path stroke="#fff" stroke-width="3" stroke-linecap="square" stroke-linejoin="round" stroke-miterlimit="10" d="M176.125 66.798c-1.459 0-1.727-.753-.594-1.674l33.904-27.58c1.132-.92 2.982-.92 4.115 0l33.904 27.58c1.133.921.865 1.674-.596 1.674h-70.733zM240.227 67.24v31.831M230.5 67.24v31.831M216.353 67.24v31.831M206.627 67.24v31.831M192.479 67.24v31.831M173.47 101.281h76.04M173.47 106.587h76.04M213.258 111.892h36.252M173.47 111.892h7.073" fill="none"/><path stroke="#fff" stroke-width="3" stroke-linecap="square" stroke-linejoin="round" stroke-miterlimit="10" fill="none" d="M211.047 11.979h17.685v10.61h-17.685zM211.047 36.294v-23.873"/><g stroke="#fff" stroke-width="3" stroke-miterlimit="10" fill="none"><circle stroke-linecap="square" stroke-linejoin="round" cx="196.941" cy="133.931" r="27.344"/><circle stroke-linecap="square" stroke-linejoin="round" cx="196.939" cy="134.694" r="17.335"/><path d="M203.09 160.964v43.924c0 3.376-2.658 6.033-6.033 6.033h-.155c-3.376 0-6.19-2.657-6.19-6.033v-43.924M203.531 170.248h-12.378"/></g><path stroke="#fff" stroke-width="3" stroke-linecap="square" stroke-linejoin="round" stroke-miterlimit="10" d="M186.449 132.353c0-4.881 4.457-8.827 9.967-8.828" fill="none"/><g stroke="#fff" stroke-width="3" stroke-miterlimit="10" fill="none"><path d="M442.646 307.538v-22.865c0-1.779-1.796-3.091-3.574-3.091-3.66 0-3.499 2.984-3.499 2.984v25.624M448.835 308.422v-27.728c0-1.779-1.354-3.092-3.132-3.092-3.279 0-3.058 2.984-3.058 2.984v27.835M455.908 308.422v-23.749c0-1.779-1.795-3.091-3.574-3.091-3.035 0-3.499 2.984-3.499 2.984v23.855M472.708 416.763v-9.179c0-3.948-4.543-6.803-7.595-6.803h-3.855c-5.35 0-11.335-2.553-15.859-8.565-4.224-5.616-5.406-12.516-5.406-21.107v-31.84c-8.842 0-10.961-6.296-10.961-10.379l.133-22.285c0-1.78 1.311-3.045 3.092-3.045h.186c1.779 0 3.131 1.219 3.131 2.998v11.591M455.908 308.422v-15.898s.643-2.983 3.169-2.983c1.78 0 3.297 1.312 3.297 3.091l-.159 33.582c0 2.862-2.771 6.511-4.539 6.511v38.384c0 10.629 4.277 11.955 8.478 11.955h4.265c10.643 0 19.973 5.111 19.973 23.252v10.448"/><path stroke-linecap="square" d="M443.088 277.917h-27.853v33.6h11.937"/><path stroke-linecap="square" stroke-linejoin="round" d="M453.24 349.979c-.02 1.369-1.147 2.464-2.52 2.443l-4.135-.059c-1.369-.02-2.465-1.148-2.445-2.519l.035-2.482c.02-1.37 1.148-2.465 2.519-2.445l4.137.06c1.37.021 2.466 1.148 2.446 2.519l-.037 2.483zM440 346.5h3M440 350.5h3M454 346.5h3M454 350.5h3M440 365.5h17"/><path d="M481.55 416.763v-13.488c0-8.147-5.903-10.958-13.287-10.958h-5.005c-3.76 0-7.35-1.972-10.627-7.065-4.415-6.861-3.796-20.153-3.796-20.153"/></g><g stroke="#fff" stroke-width="3" stroke-miterlimit="10" fill="none"><path stroke-linecap="round" d="M681.693 44.304h10.609v7.33h-10.609zM681.693 59.714h10.609v7.33h-10.609zM681.693 75.123h10.609v7.33h-10.609zM784.311 44.304h10.609v7.33h-10.609zM784.311 59.714h10.609v7.33h-10.609zM784.311 75.123h10.609v7.33h-10.609zM722.365 73.287h31.832v10.61h-31.832zM722.365 52.95h31.832v10.611h-31.832zM722.365 32.614h31.832v10.61h-31.832z"/><path stroke-linecap="square" stroke-linejoin="round" d="M775.417 34.136v58.356M701.145 34.136v39.789M648 87.5h25.5v-54h27v-13h74v13h31v79h14.5"/></g><g stroke="#fff" stroke-width="3" stroke-miterlimit="10" fill="none"><path stroke-linecap="square" stroke-linejoin="round" d="M150.545 378.073h-17.055v-41.556h-30.947v-25.642h-42.441v16.8h-33.6v80.018"/><path d="M51.688 337.003h-12.799M51.688 353.117h-12.799M51.688 369.231h-12.799M51.688 361.175h-12.799M51.688 345.06h-12.799M123.403 346.012h-12.8M123.403 362.127h-12.8M123.403 378.241h-12.8M123.403 370.184h-12.8M123.403 354.069h-12.8M92.375 337.12h-22.844M92.375 329.092h-22.844M92.375 321.063h-22.844M92.375 353.176h-22.844M92.375 369.231h-22.844M92.375 361.204h-22.844M92.375 345.147h-22.844"/></g><g stroke="#fff" stroke-width="3" stroke-miterlimit="10" fill="none"><circle cx="126.947" cy="216.744" r="2.945"/><path stroke-linecap="square" stroke-linejoin="round" d="M159.229 226.918l15.534 2.947-9.703-23.132.146-.8c7.311-21.176-3.931-44.267-25.108-51.575-21.173-7.31-44.266 3.931-51.573 25.107-7.311 21.176 4.693 43.092 25.867 50.399 10.118 3.493 21.736 1.713 29.26-2.85M122.785 168.906c0-1.791 1.533-3.159 3.537-3.159 2.005 0 3.537 1.538 3.537 3.331v36.098c0 1.791-1.532 3.245-3.537 3.245-2.004 0-3.537-1.454-3.537-3.245v-25.535"/></g><g stroke="#fff" stroke-width="3" stroke-miterlimit="10" fill="none"><path d="M1056.031 148.411v-22.864c0-1.78 1.794-3.092 3.575-3.092 3.657 0 3.498 2.984 3.498 2.984v25.624M1049.842 149.296v-27.729c0-1.779 1.352-3.091 3.133-3.091 3.277 0 3.057 2.984 3.057 2.984v27.835M1042.768 149.296v-23.749c0-1.78 1.795-3.092 3.576-3.092 3.033 0 3.498 2.984 3.498 2.984v23.856M1025.969 417.429v-15.759c0-7.931 4.549-9.664 7.599-9.664h2.497c6.029 0 12.692-2.519 17.217-8.531 4.226-5.616 5.402-12.515 5.402-21.106v-182.227c8.842 0 10.963-6.295 10.963-10.379l-.129-22.285c0-1.78-1.312-3.044-3.092-3.044h-.187c-1.78 0-3.135 1.218-3.135 2.998v11.59M1042.768 149.296v-15.898s-.639-2.984-3.166-2.984c-1.779 0-3.296 1.312-3.296 3.091l.155 33.582c0 2.862 2.772 6.511 4.541 6.511v188.76899999999998c0 10.629-4.271 11.955-8.473 11.955h-4.266c-10.642 0-19.977 5.111-19.977 23.252v19.855"/><path stroke-linecap="square" d="M1055.589 118.791h27.851v33.599h-11.936"/><path d="M1016.809 417.429v-20.775c0-8.147 5.902-13.406 13.288-13.406h5.004c8.157 0 14.614-5.531 14.614-14.999v-177.431"/><path stroke-linecap="square" stroke-linejoin="round" d="M1054.247 188.372c-.02 1.37-1.147 2.465-2.519 2.445l-4.136-.06c-1.369-.02-2.465-1.148-2.446-2.519l.035-2.482c.021-1.37 1.149-2.465 2.52-2.445l4.137.06c1.369.021 2.466 1.148 2.446 2.519l-.037 2.482zM1041 185.5h3M1041 188.5h3M1055 185.5h3M1055 188.5h3"/></g><path stroke="#fff" stroke-width="3" stroke-linecap="square" stroke-linejoin="round" stroke-miterlimit="10" d="M342.697 326.343h-6.699v15.888h-10.947v-44.541h17.646c9.881 0 15.2 7.003 15.2 14.324 0 7.319-5.319 14.329-15.2 14.329zm-.504-18.832h-6.195v9.006h6.195c3.004 0 4.757-2.185 4.757-4.503 0-2.314-1.753-4.503-4.757-4.503z" fill="none"/><path stroke="#fff" stroke-width="3" stroke-linecap="round" stroke-miterlimit="10" fill="none" d="M338 284.726l30.5 10.021v-7.709l-30.5-10.102-30.5 10.102v7.709z"/><g stroke="#fff" stroke-width="3" stroke-linecap="square" stroke-linejoin="round" stroke-miterlimit="10" fill="none"><path d="M93.5 82.468v57.032h-55v-78h33.709zM71.5 62v21.5h21.5"/></g><g stroke="#fff" stroke-width="3" stroke-linecap="square" stroke-linejoin="round" stroke-miterlimit="10" fill="none"><path d="M51 99.5h30M51 108.5h30M51 116.5h30M51 125.5h30"/></g><path stroke="#fff" stroke-width="3" stroke-linecap="square" stroke-linejoin="round" stroke-miterlimit="10" fill="none" d="M45.5 61v-6.5h55v78h-6.5"/><path stroke="#fff" stroke-width="3" stroke-linejoin="round" stroke-miterlimit="10" d="M54.764 70.531h-1.314c-.934 0-1.313.08-1.58.347-.293.294-.375.774-.375 1.734v5.017c0 1.521-1.527 2.188-2.542 2.668 1.015.48 2.542 1.147 2.542 2.669v5.016c0 .961.082 1.441.375 1.734.267.267.638.348 1.572.348h1.331M58.202 90.063h1.173c.934 0 1.314-.081 1.581-.348.292-.293.374-.773.374-1.734v-5.016c0-1.521 1.527-2.188 2.543-2.669-1.016-.479-2.543-1.146-2.543-2.668v-5.017c0-.96-.082-1.44-.374-1.734-.267-.267-.638-.347-1.573-.347h-1.189" fill="none"/><g stroke="#fff" stroke-width="3" stroke-linecap="square" stroke-linejoin="round" stroke-miterlimit="10" fill="none"><path d="M771.745 350.493c-3.543 7.672.986 17.309.986 17.309s10.274-2.799 13.819-10.472c3.544-7.671-.985-17.31-.985-17.31s-10.276 2.802-13.82 10.473zM766.864 373.242c3.526 0 5.078-2.717 6.207-6.095l6.281-13.833"/><path d="M739.03 362.872c-3.543 7.672.986 17.309.986 17.309s10.274-2.799 13.818-10.472c3.545-7.672-.984-17.31-.984-17.31s-10.276 2.802-13.82 10.473zM734.148 385.621c3.527 0 5.079-2.717 6.208-6.095l6.28-13.833"/><path d="M715.157 343.42c-3.543 7.672.986 17.309.986 17.309s10.274-2.799 13.818-10.472c3.544-7.672-.984-17.31-.984-17.31s-10.276 2.801-13.82 10.473zM710.275 366.168c3.527 0 5.079-2.716 6.208-6.094l6.28-13.833"/></g></g></svg>