<svg xmlns="http://www.w3.org/2000/svg" viewBox="0 0 640 415" enable-background="new 0 0 640 415"><g><g stroke="#fff" stroke-width="3" stroke-miterlimit="10" fill="none"><path d="M143.898 376.107c0-20.846 17.379-37.807 38.227-37.807l.726-.004 9.672-.152c35.555-.074 65.116-24.135 74.112-56.822"/><path stroke-dasharray="9.668,9.668" d="M244.565 283.289c-8.517 20.428-28.563 34.846-52.201 34.875l-4.815.078c-.051.002-5.553.078-5.604.078-25.526.035-47.639 16.814-55.145 39.852"/><path d="M125.631 362.289c-.345 1.424-.635 2.871-.867 4.334M229.664 260.379c0 20.848-16.611 37.807-37.459 37.807l.04.002-10.478.154c-36.269.076-67.459 25.107-76.141 58.801"/></g><g stroke="#fff" stroke-width="3" stroke-linecap="square" stroke-linejoin="round" stroke-miterlimit="10" fill="none"><path d="M244.49 72.594c-3.543 7.672.986 17.309.986 17.309s10.275-2.799 13.819-10.472c3.544-7.671-.985-17.31-.985-17.31s-10.277 2.802-13.82 10.473zM239.608 95.344c3.526 0 5.079-2.717 6.208-6.096l6.28-13.833"/><path d="M220.617 53.142c-3.543 7.672.986 17.31.986 17.31s10.275-2.8 13.818-10.473c3.545-7.671-.984-17.309-.984-17.309s-10.277 2.801-13.82 10.472zM215.735 75.891c3.526 0 5.079-2.717 6.208-6.094l6.28-13.834"/></g><g stroke="#fff" stroke-width="3" stroke-linejoin="round" stroke-miterlimit="10" fill="none"><path stroke-linecap="round" d="M391.39 334.77s4.58-9.121 16.313-9.121c11.734 0 16.61 6.539 16.61 6.539s2.525-7.1 9.394-6.812c6.869.285 6.975 4.42 9.101 6.031 1.335 1.012 4.675.781 4.675.781s-4.865-15.695-3.72-27.43c1.145-11.734-8.198-13.734-8.198-13.734M400.181 367.416c.859.285 18.608 7.094 38.717-.732 18.97-7.385 34.628-22.846 34.628-22.846s2.289-15.613-8.587-32.215c-10.874-16.598-19.458-27.186-19.458-27.186s-12.02-9.467-23.182-9.467l-8.3 12.326s2.014 6.584 9.741 6.584c0 0 8.232 1.066 8.998-6.592"/><path stroke-linecap="square" d="M418.789 343.293l-8.076 6.285 8.076 6.936M431.047 356.514l8.077-6.284-8.077-6.937"/><path stroke-linecap="round" d="M421.977 362.121l6.344-24.191"/></g><g stroke="#fff" stroke-width="3" stroke-linecap="round" stroke-linejoin="round" stroke-miterlimit="10" fill="none"><circle cx="551.353" cy="150.084" r="16.203"/><path d="M551.271 166.287c-5.178 0-9.373-7.254-9.373-16.203s4.195-16.202 9.373-16.202M551.282 166.287c5.179 0 9.375-7.254 9.375-16.203s-4.196-16.202-9.375-16.202M551.742 128.136v-7.523M551.742 180.045v-8.275M528.797 151.082h-8.276M579.953 151.082h-7.522M535.441 134.985l-4.964-4.964M571.088 130.021l-4.964 4.964M535.441 165.667l-4.964 4.963M571.088 170.63l-4.964-4.963M551.742 134.155v32.348"/></g><g stroke="#fff" stroke-width="3" stroke-miterlimit="10" fill="none"><path d="M518.984 80.578c1.625 0 2.944 1.318 2.944 2.945s-1.319 2.945-2.944 2.945c-1.629 0-2.945-1.318-2.945-2.945s1.316-2.945 2.945-2.945z"/><path stroke-linecap="square" stroke-linejoin="round" d="M485.984 93.697l-15.534 2.947 9.704-23.132-.146-.8c-7.31-21.176 3.933-44.268 25.107-51.575 21.175-7.31 44.267 3.931 51.575 25.107 7.311 21.176-4.693 43.092-25.868 50.399-10.116 3.493-21.735 1.713-29.259-2.849M522.634 71.527c-1.042 1.34-2.673 2.197-4.499 2.197-3.153 0-5.705-2.555-5.705-5.705 0-1.321.446-2.535 1.198-3.504l12.802-12.819s2.562-2.562 2.562-6.938c0-5.942-4.781-10.678-10.679-10.678-4.553 0-8.44 2.848-9.976 6.859"/></g><g stroke="#fff" stroke-width="3" stroke-miterlimit="10" fill="none"><path d="M523.347 230.207c0 4.238-6.873 7.676-15.354 7.676-8.479 0-15.352-3.438-15.352-7.676M525.803 242.896c0 4.918-7.973 8.904-17.81 8.904-9.834 0-17.808-3.986-17.808-8.904M518.434 204.824c0 2.883-4.673 5.219-10.44 5.219-5.765 0-10.439-2.338-10.439-5.219M520.89 217.719c0 3.561-5.773 6.449-12.896 6.449-7.122 0-12.895-2.889-12.895-6.449M518.703 265.701c-3.067.896-6.65 1.412-10.464 1.412-11.271 0-20.471-4.502-20.471-10.051v-.613l11.543-62.639c0-2.338 3.897-4.236 8.578-4.236 4.68 0 8.577 1.898 8.577 4.236l12.107 62.594M527.821 252.984l4.781 4.781c2.608 2.607 2.95 5.293.091 7.508-4.461 3.455-19.44 11.459-19.44 11.459-4.916 2.889-9.352-.092-9.352-.092s-15.273-8.297-19.83-11.846c-2.908-2.268-2.648-4.953-.093-7.508l4.993-4.994"/></g><g stroke="#fff" stroke-width="3" stroke-linecap="square" stroke-linejoin="round" stroke-miterlimit="10" fill="none"><path d="M387.447 80.043c-1.459 0-1.727-.752-.594-1.673l33.904-27.581c1.132-.92 2.982-.92 4.115 0l33.905 27.581c1.132.921.865 1.673-.596 1.673h-70.734zM451.549 80.486v31.831M441.822 80.486v31.831M427.676 80.486v31.831M417.949 80.486v31.831M403.802 80.486v31.831M384.792 114.528h76.041M384.792 119.833h76.041M384.792 125.137h76.041"/><path d="M422.37 25.224h17.684v10.61h-17.684zM422.37 49.54v-23.873M394.076 80.486v31.831"/></g><g stroke="#fff" stroke-width="3" stroke-linejoin="round" stroke-miterlimit="10" fill="none"><path stroke-linecap="square" d="M590.91 364.957l-13.586 10.57 13.586 11.668M611.533 387.195l13.586-10.57-13.586-11.668"/><path stroke-linecap="round" d="M596.271 396.629l10.675-40.697"/></g><g stroke="#fff" stroke-width="3" stroke-linecap="round" stroke-linejoin="round" stroke-miterlimit="10" fill="none"><path d="M109.716 292.93l14.447-62.698M147.589 275.641l-10.463-45.409M142.775 257.625l-29.235 17.82M118.46 255.908l29.129 19.733M139.619 242.838l-19.907 12.691M121.575 243.107l20.078 10.612M143.657 229.809h-74.271M160.976 228.182l-5.681 5.164h-5.587c-2.852 0-5.607-2.312-5.607-5.164v-5.586c0-2.854 2.756-5.166 5.607-5.166h11.634M69.386 221.852h56.59l4.543-42.634 5.189 42.634h7.949M130.519 179.218l20.294 33.899M130.618 179.218l-44.484 42.634M85.743 221.41v137.934"/><circle cx="90.381" cy="373.59" r="4.59"/><circle cx="81.188" cy="373.59" r="4.59"/><circle cx="85.784" cy="381.761" r="4.591"/><path d="M90.323 383.715c.984.643 2.215.908 3.457.646 2.48-.525 4.063-2.963 3.539-5.443-.281-1.334-1.119-2.41-2.219-3.037M86.228 386.777c0 2.303-1.346 3.576-1.83 3.848-2.213 1.24-5.012.453-6.248-1.76-.336-.596-1.014-1.793-.572-3.281M86.615 390.625c2.212 1.24 5.011.453 6.248-1.76.335-.596 1.008-1.566.571-3.281M81.589 383.715c-.984.643-2.215.908-3.456.646-2.481-.525-4.065-2.963-3.54-5.443.282-1.334 1.119-2.41 2.219-3.037"/><path d="M87.945 359.74c-2.723 2.723-1.833 6.305-1.833 6.305s3.854.621 6.306-1.832c2.399-2.398 2.575-7.047 2.575-7.047s-4.424-.049-7.048 2.574zM83.83 359.74c2.722 2.723 1.832 6.305 1.832 6.305s-3.854.621-6.306-1.832c-2.4-2.398-2.575-7.047-2.575-7.047s4.424-.049 7.049 2.574z"/></g><g stroke="#fff" stroke-width="3" stroke-linecap="round" stroke-linejoin="round" stroke-miterlimit="10" fill="none"><path d="M294.438 373.041c-9.395-2.738-13.524-14.334-5.304-23.395M294.438 306.125c-9.395 2.734-13.524 14.332-5.304 23.393M297.785 314.592c-9.291-15.639 4.312-20.457 10.692-18.832 4.473 1.139 8.616 3.855 8.616 8.615v70.016c0 4.758-4.144 7.477-8.616 8.615-6.381 1.623-19.848-3.125-10.556-18.764M286.762 352.762c-10.887-4.645-11.492-20.676-.097-26.902M345.562 305.729c9.395 2.736 13.521 14.334 5.303 23.395M345.562 372.645c9.395-2.734 13.521-14.332 5.303-23.393M342.215 364.178c9.289 15.639-4.119 20.455-10.504 18.832-4.475-1.139-8.43-3.855-8.43-8.615v-70.01599999999999c0-4.76 3.955-7.477 8.43-8.615 6.385-1.625 19.754 3.123 10.463 18.762M353.238 326.008c10.887 4.645 11.49 20.674.098 26.9M308.885 315.443c0 6.775-4.832 12.256-10.807 12.256M330.621 315.443c0 6.775 4.832 12.256 10.807 12.256M308.885 364.6c0-6.773-4.832-12.252-10.807-12.252M330.621 364.6c0-6.773 4.832-12.252 10.807-12.252M348.674 340.494c-4.225-4.787-11.059-4.787-15.283 0M304.448 340.494c-4.223-4.787-11.061-4.787-15.281 0"/></g><g stroke="#fff" stroke-width="3" stroke-linejoin="round" stroke-miterlimit="10" fill="none"><path d="M527.697 373.045l61.431-61.431 5.881 5.881-61.431 61.431zM539.447 384.778l61.43-61.43 5.881 5.881-61.43 61.43zM516.574 361.911l61.431-61.431 5.88 5.88-61.431 61.431zM505.463 350.794l61.43-61.43 5.23 5.23-61.43 61.43zM493.703 339.042l61.429-61.429 5.228 5.228-61.429 61.429z"/></g><g stroke="#fff" stroke-width="3" stroke-miterlimit="10" fill="none"><path stroke-linecap="round" d="M61.51 41.458h10.609v7.33h-10.609zM61.51 56.869h10.609v7.33h-10.609zM61.51 72.278h10.609v7.33h-10.609zM164.127 41.458h10.609v7.33h-10.609zM164.127 56.869h10.609v7.33h-10.609zM164.127 72.278h10.609v7.33h-10.609zM102.182 70.442h31.832v10.61h-31.832zM102.182 50.105h31.832v10.611h-31.832zM102.182 29.769h31.832v10.61h-31.832z"/><path stroke-linecap="square" stroke-linejoin="round" d="M155.233 31.291v58.356M80.961 31.291v39.789M28 84.5h25.5v-54h27v-13h74v13h31v79h14.5"/></g><g stroke="#fff" stroke-width="3" stroke-miterlimit="10" fill="none"><path d="M55.848 145.566v-22.864c0-1.78 1.794-3.092 3.575-3.092 3.657 0 3.498 2.984 3.498 2.984v25.624M49.658 146.451v-27.729c0-1.779 1.352-3.091 3.133-3.091 3.277 0 3.057 2.984 3.057 2.984v27.835M42.584 146.451v-23.749c0-1.78 1.795-3.092 3.576-3.092 3.033 0 3.498 2.984 3.498 2.984v23.856M25.785 414.584v-15.76c0-7.93 4.549-9.664 7.599-9.664h2.497c6.029 0 12.692-2.518 17.217-8.531 4.226-5.615 5.402-12.514 5.402-21.105v-182.227c8.842 0 10.963-6.295 10.963-10.379l-.129-22.285c0-1.78-1.312-3.044-3.092-3.044h-.187c-1.78 0-3.135 1.218-3.135 2.998v11.59M42.584 146.451v-15.898s-.639-2.984-3.166-2.984c-1.779 0-3.296 1.312-3.296 3.091l.155 33.582c0 2.862 2.772 6.511 4.541 6.511v188.76999999999998c0 10.629-4.271 11.955-8.473 11.955h-4.265c-10.642 0-19.977 5.111-19.977 23.252v19.855"/><path stroke-linecap="square" d="M55.405 115.946h27.852v33.598h-11.937"/><path d="M16.625 414.584v-20.775c0-8.148 5.902-13.406 13.288-13.406h5.004c8.157 0 14.614-5.531 14.614-15v-177.43"/><path stroke-linecap="square" stroke-linejoin="round" d="M54.063 185.527c-.02 1.37-1.147 2.465-2.519 2.445l-4.136-.06c-1.369-.02-2.465-1.148-2.446-2.519l.035-2.482c.021-1.37 1.149-2.465 2.52-2.445l4.137.06c1.369.021 2.466 1.148 2.446 2.519l-.037 2.482zM41 182.5h3M41 185.5h3M55 182.5h3M55 185.5h3"/></g><g stroke="#fff" stroke-width="3" stroke-linecap="square" stroke-linejoin="round" stroke-miterlimit="10" fill="none"><path d="M343.5 57.623v56.877h-55v-78h34.025zM321.5 37v21.5h21.5"/></g><g stroke="#fff" stroke-width="3" stroke-linecap="square" stroke-linejoin="round" stroke-miterlimit="10" fill="none"><path d="M301 74.5h30M301 83.5h30M301 91.5h30M301 100.5h30"/></g><path stroke="#fff" stroke-width="3" stroke-linecap="square" stroke-linejoin="round" stroke-miterlimit="10" fill="none" d="M295.5 36v-6.5h55v78h-6.5"/><path stroke="#fff" stroke-width="3" stroke-linejoin="round" stroke-miterlimit="10" d="M305.08 45.686h-1.314c-.934 0-1.313.08-1.58.347-.293.294-.375.774-.375 1.734v5.017c0 1.521-1.527 2.188-2.542 2.668 1.015.48 2.542 1.147 2.542 2.669v5.016c0 .961.082 1.441.375 1.734.267.267.638.348 1.572.348h1.331M308.519 65.218h1.173c.934 0 1.314-.081 1.581-.348.292-.293.374-.773.374-1.734v-5.016c0-1.521 1.527-2.188 2.543-2.669-1.016-.479-2.543-1.146-2.543-2.668v-5.017c0-.96-.082-1.44-.374-1.734-.267-.267-.638-.347-1.573-.347h-1.189" fill="none"/><path stroke="#fff" stroke-width="3" stroke-miterlimit="10" d="M590.996.172v85.707c0 9.717 6.844 12.032 10.25 12.963l1.338.441c8.814 2.508 15.412 10.068 15.412 21.882v110.219l13.9-2.936-17.322 41.471-17.809-41.471 12.229 2.928v-110.211c0-9.739-5.416-12.239-8.989-13.216l-1.483-.488c-6.295-1.792-16.525-6.979-16.525-21.434v-86.199" fill="none"/></g></svg>