<svg xmlns="http://www.w3.org/2000/svg" viewBox="0 0 640 415" enable-background="new 0 0 640 415"><g><g stroke="#fff" stroke-width="3" stroke-miterlimit="10" fill="none"><path d="M95.824 280.859c9.355 0 16.941-7.876 16.941-17.232 0-9.355-7.586-16.941-16.941-16.941-.725 0-1.437.05-2.137.139-2.855-5.329-8.475-8.954-14.943-8.954-8.787 0-16.012 6.693-16.857 15.26-1.047-.249-2.139-.385-3.262-.385-7.764 0-14.058 6.295-14.058 14.058s6.295 14.058 14.058 14.058l37.199-.003z"/><path stroke-linecap="round" d="M107.727 264.992c0-7.833-6.351-14.206-14.184-14.206-.607 0-1.203.029-1.791.104-2.39-4.462-7.094-7.502-12.509-7.502"/></g><path stroke="#fff" stroke-width="3" stroke-linecap="square" stroke-linejoin="round" stroke-miterlimit="10" d="M325.697 79.358h-7.958v18.872h-13.004v-52.908h20.962c11.737 0 18.056 8.318 18.056 17.015 0 8.694-6.318 17.021-18.056 17.021zm-.598-22.37h-7.359v10.697h7.359c3.568 0 5.65-2.595 5.65-5.349 0-2.747-2.082-5.348-5.65-5.348z" fill="none"/><path stroke="#fff" stroke-width="3" stroke-linecap="round" stroke-miterlimit="10" fill="none" d="M319.5 29.922l36 11.904v-9.156l-36-12.001-36 12.001v9.156z"/><path stroke="#fff" stroke-width="3" stroke-miterlimit="10" d="M455.917 35.684l-6.23-16.09c-1.164-3.078-3.711-5.699-8.53-5.722h-32.741c-4.797.022-7.342 2.644-8.528 5.722l-6.232 16.09c-2.475.318-6.853 3.227-6.846 8.734v20.482h6.081v6.539c-.017 8.062 11.393 7.967 11.389 0v-6.539h41.016000000000005v6.539c.023 7.967 11.433 8.062 11.439 0v-6.539h6.081v-20.482c-.021-5.508-4.401-8.416-6.899-8.734zm-57.154 16.855c-2.914.009-5.273-2.422-5.262-5.411-.012-3.01 2.348-5.442 5.262-5.417 2.905-.025 5.264 2.407 5.26 5.417.003 2.989-2.356 5.419-5.26 5.411zm26.049-17.008h-24.671l4.7-12.669c.566-1.798 1.446-3.085 3.525-3.116h32.893c2.048.031 2.93 1.317 3.524 3.116l4.7 12.669h-24.671zm26.05 17.008c-2.935.009-5.295-2.422-5.312-5.411.017-3.01 2.377-5.442 5.312-5.417 2.885-.025 5.242 2.407 5.262 5.417-.02 2.989-2.377 5.419-5.262 5.411z" fill="none"/><g stroke="#fff" stroke-width="3" stroke-miterlimit="10" fill="none"><path stroke-linecap="square" stroke-linejoin="round" d="M190.704 386.644h-28.5v-61h-31v-15h-84v15h-34v78.96"/><path stroke-linecap="round" d="M25.204 341.644h12v36h-12zM141.204 337.644h12v36h-12zM60.204 324.644h12v36h-12zM83.204 324.644h12v36h-12zM106.204 324.644h12v36h-12z"/><path stroke-linecap="square" stroke-linejoin="round" d="M47.204 326.144v66M131.204 326.144v45"/></g><g stroke="#fff" stroke-width="3" stroke-linejoin="round" stroke-miterlimit="10" fill="none"><path stroke-linecap="round" d="M214.096 319.681c-2.555 1.777-5.659 2.818-9.007 2.818-8.726 0-15.796-7.072-15.796-15.795 0-8.725 7.07-15.797 15.796-15.797 8.723 0 15.796 7.072 15.796 15.797 0 3.262-.991 6.295-2.686 8.812M229.873 306.704c0-8.725 7.072-15.797 15.797-15.797 8.723 0 15.795 7.072 15.795 15.797 0 8.722-7.071 15.795-15.795 15.795M202.876 308.991l-4.423 3.574M212.562 300.905l-4.703 3.888M248.413 308.991l4.422 3.574M238.727 300.905l4.702 3.888M218.065 339.188c1.778 2.555 2.819 5.659 2.819 9.007 0 8.724-7.072 15.796-15.796 15.796-8.726 0-15.796-7.071-15.796-15.796 0-8.724 7.07-15.796 15.796-15.796 3.263 0 6.296.99 8.812 2.686M236.661 334.763c2.556-1.777 5.659-2.818 9.009-2.818 8.723 0 15.795 7.071 15.795 15.795 0 8.725-7.071 15.796-15.795 15.796-8.725 0-15.797-7.071-15.797-15.796 0-3.262.989-6.295 2.685-8.812"/><path d="M234.575 326.924c0-1.597-.402-3.099-1.111-4.409l14.431-14.429c1.064-1.066 1.064-2.792 0-3.859-1.066-1.064-2.794-1.064-3.86 0l-14.455 14.455c-1.286-.673-2.747-1.056-4.301-1.056-1.596 0-3.097.403-4.408 1.111l-14.513-14.511c-1.064-1.064-2.792-1.064-3.856 0-1.066 1.067-1.066 2.793 0 3.859l14.536 14.536c-.674 1.286-1.055 2.748-1.055 4.302 0 2.19 1.551 5.248 1.551 5.248l-14.427 14.427c-1.067 1.066-1.271 2.588-.204 3.656 1.065 1.064 2.588.861 3.655-.203l14.456-14.455c1.168.557 3.037.928 4.591.928 1.595 0 2.674.187 4.701-1.238l14.511 14.509c1.066 1.067 2.59 1.269 3.655.204s.862-2.59-.203-3.655l-14.538-14.536c-.001 0 .844-2.322.844-4.884z"/><path stroke-linecap="round" d="M247.881 345.452l4.422-3.574M238.194 353.538l4.703-3.887M202.346 345.452l-4.424-3.574M212.03 353.538l-4.703-3.889"/></g><g stroke="#fff" stroke-width="3" stroke-miterlimit="10" fill="none"><path stroke-linecap="square" stroke-linejoin="round" d="M545.737 271.361v-14.66h18.929l.084-22.023h58.016v113.309"/><path stroke-linecap="round" d="M554.958 289.575h12v8.29h-12zM554.958 307.003h12v8.29h-12zM554.958 324.431h12v8.29h-12zM580.208 286.443h26.5v9.809h-26.5zM580.208 267.644h26.5v9.809h-26.5zM580.208 248.844h26.5v9.809h-26.5zM580.208 343.843h26.5v9.809h-26.5zM580.208 325.043h26.5v9.809h-26.5zM580.208 306.243h26.5v9.809h-26.5z"/></g><path stroke="#fff" stroke-width="3" stroke-miterlimit="10" d="M579.428 214.105c0-23.577-19.656-42.759-43.232-42.759l-.822-.003-10.938-.173c-40.212-.084-73.646-27.295-83.819-64.266" fill="none"/><g stroke="#fff" stroke-width="3" stroke-miterlimit="10" fill="none"><path d="M461.521 95.062c.277 1.653.619 3.286 1.021 4.896"/><path stroke-dasharray="9.668,9.668" d="M465.576 109.13c9.631 23.104 32.302 39.409 59.037 39.443l5.445.088c.059.002 6.279.089 6.337.089 28.869.038 53.88 19.016 62.369 45.069"/><path d="M600.088 198.478c.391 1.61.719 3.246.982 4.901"/></g><path stroke="#fff" stroke-width="3" stroke-miterlimit="10" d="M482.428 83.219c0 23.577 18.788 42.759 42.365 42.759l-.045.003 11.851.174c41.02.086 76.294 28.396 86.112 66.502M26.234.632v104.848c0 9.717 6.844 12.032 10.25 12.963l1.338.441c8.814 2.508 15.412 10.068 15.412 21.882v48.095l13.9-2.936-17.322 41.471-17.809-41.471 12.229 2.929v-48.088c0-9.739-5.416-12.239-8.989-13.216l-1.483-.488c-6.295-1.792-16.525-6.979-16.525-21.434v-105.628" fill="none"/><g stroke="#fff" stroke-width="3" stroke-linejoin="round" stroke-miterlimit="10" fill="none"><path stroke-linecap="round" d="M497.087 348.877c2.173.924 4.561 1.436 7.07 1.436 9.984 0 17.191-8.093 17.191-18.076 0-8.934-6.482-16.347-14.999-17.81-.403-7.349-6.485-13.184-13.936-13.184-7.707 0-13.957 6.248-13.957 13.957 0 .868.084 1.718.235 2.544-7.459 1.229-13.152 7.704-13.152 15.512 0 8.686 7.041 15.727 15.727 15.727 3.031 0 6.721-1.339 9.12-2.823"/><path stroke-linecap="square" d="M496.545 344.834v26.1c0 1.525-1.579 2.637-3.104 2.637h-.095c-1.525 0-2.991-1.112-2.991-2.637v-42.015"/><path stroke-linecap="round" d="M505.042 358.085c13.56 2.046 23.265 7.544 23.265 14.006 0 8.206-15.663 14.858-34.982 14.858-19.321 0-34.984-6.652-34.984-14.858 0-6.515 9.87-12.05 23.603-14.056M454.283 370.044c-3.565 9.581 12.47 19.619 24.261 19.619M512.345 355.839c13.557 2.045 20.363 9.148 20.363 15.609"/></g><g stroke="#fff" stroke-width="3" stroke-linejoin="round" stroke-miterlimit="10" fill="none"><path stroke-linecap="square" d="M580.42 23.328l-15.365 11.954 15.365 13.197M603.743 48.479l15.365-11.954-15.365-13.197"/><path stroke-linecap="round" d="M586.482 59.147l12.074-46.027"/></g><g stroke="#fff" stroke-width="3" stroke-miterlimit="10" fill="none"><circle cx="98.644" cy="86.633" r="3.331"/><path stroke-linecap="square" stroke-linejoin="round" d="M61.322 98.139l-17.569 3.334 10.976-26.162-.165-.904c-8.267-23.95 4.447-50.065 28.396-58.331 23.947-8.267 50.064 4.446 58.33 28.396 8.268 23.949-5.309 48.735-29.256 57.001-11.442 3.95-24.583 1.937-33.092-3.223M102.772 73.065c-1.18 1.517-3.023 2.485-5.09 2.485-3.564 0-6.451-2.89-6.451-6.452 0-1.494.504-2.867 1.355-3.963l14.478-14.498s2.898-2.896 2.898-7.848c0-6.721-5.407-12.076-12.077-12.076-5.148 0-9.546 3.221-11.283 7.758"/></g><g stroke="#fff" stroke-width="3" stroke-miterlimit="10" fill="none"><circle cx="320.708" cy="305.675" r="2.843"/><path d="M314.148 387.405l11.999.034"/><path d="M345.648 387.349c-.014 4.732-1.97 9.142-5.915 9.13l-38.57-.11c-3.945-.012-8.528-4.439-8.515-9.172l.241-83.994c.014-4.734 4.615-6.844 8.561-6.833l38.57.11c3.943.012 5.883 2.141 5.869 6.875l-.241 83.994zM294.177 377.348l53 .152M294.352 316.349l53 .151"/><g stroke-linejoin="round"><path d="M318.76 348.418l13.659.04c-.021 7-6.037 13.308-13.436 13.286-7.4-.021-13.5-6.074-13.479-13.475.021-7.399 6.295-13.43 13.295-13.41l-.039 13.559zM323.773 343.759l.038-13.412c7 .02 13.251 6.071 13.229 13.399l-13.267.013z"/></g></g><g stroke="#fff" stroke-width="3" stroke-miterlimit="10" fill="none"><path d="M205.758 67.33h35.229c2.686 0 4.271 2.37 4.271 5.055v.28c0 2.685-1.586 4.665-4.271 4.665h-39.229M189.758 77.33h18.229c2.686 0 4.271 2.37 4.271 5.055v.28c0 2.685-1.586 4.665-4.271 4.665h-33.64c-6.159 0-15.946-4.121-15.946-13.33M204.758 57.33h21.229c2.686 0 4.271 2.37 4.271 5.055v.28c0 2.685-1.586 4.665-4.271 4.665h-21.229M204.758 47.33h14.229c2.686 0 4.271 2.37 4.271 5.055v.28c0 2.685-1.586 4.665-4.271 4.665h-14.229M204.758 47.33h7.229c2.686 0 4.271-1.98 4.271-4.665v-.28c0-2.685-1.586-5.055-4.271-5.055h-33.64c-4.315 0-7.68 2.521-9.93 5.418M244.427 61.54c2.86-2.86 6.812-4.628 11.177-4.628 8.73 0 15.807 7.075 15.807 15.807 0 8.729-7.075 15.807-15.807 15.807-4.646 0-8.826-2.006-11.719-5.199M247.967 65.379c1.877-1.88 4.473-3.041 7.339-3.041 5.732 0 10.38 4.646 10.38 10.381 0 5.732-4.646 10.379-10.38 10.379-3.052 0-5.796-1.315-7.694-3.414"/></g><g stroke="#fff" stroke-width="3" stroke-linecap="square" stroke-linejoin="round" stroke-miterlimit="10" fill="none"><path d="M524.155 58.38c-4.007 8.677 1.115 19.576 1.115 19.576s11.62-3.166 15.629-11.844c4.009-8.676-1.114-19.576-1.114-19.576s-11.623 3.168-15.63 11.844zM518.634 84.108c3.989 0 5.744-3.072 7.021-6.893l7.103-15.646"/><path d="M497.155 36.38c-4.007 8.677 1.115 19.576 1.115 19.576s11.62-3.166 15.629-11.844c4.009-8.676-1.114-19.576-1.114-19.576s-11.623 3.168-15.63 11.844zM491.634 62.108c3.989 0 5.744-3.072 7.021-6.893l7.103-15.646"/></g><g stroke="#fff" stroke-width="3" stroke-linecap="square" stroke-linejoin="round" stroke-miterlimit="10" fill="none"><path d="M605.887 110.962c-4.007 8.677 1.115 19.576 1.115 19.576s11.62-3.166 15.629-11.844c4.009-8.676-1.114-19.576-1.114-19.576s-11.623 3.169-15.63 11.844zM600.365 136.691c3.989 0 5.744-3.072 7.021-6.893l7.103-15.646"/><path d="M578.887 88.962c-4.007 8.677 1.115 19.576 1.115 19.576s11.62-3.166 15.629-11.844c4.009-8.676-1.114-19.576-1.114-19.576s-11.623 3.169-15.63 11.844zM573.365 114.691c3.989 0 5.744-3.072 7.021-6.893l7.103-15.646"/></g><g stroke="#fff" stroke-width="3" stroke-linecap="round" stroke-linejoin="round" stroke-miterlimit="10" fill="none"><circle cx="113.464" cy="154.111" r="18.325"/><path d="M113.373 172.437c-5.855 0-10.6-8.205-10.6-18.326s4.744-18.324 10.6-18.324M113.386 172.437c5.855 0 10.602-8.205 10.602-18.326s-4.746-18.324-10.602-18.324M113.906 129.289v-8.509M113.906 187.997v-9.359M87.955 155.239h-9.36M145.812 155.239h-8.509M95.47 137.034l-5.615-5.614M135.787 131.42l-5.616 5.614M95.47 171.736l-5.615 5.613M135.787 177.349l-5.616-5.613M113.906 136.096v36.586"/></g><path stroke="#fff" stroke-width="3" stroke-miterlimit="10" d="M415.812 415.074c0-9.717-6.844-14.283-10.25-15.214l-1.338-.441c-8.814-2.508-15.412-10.068-15.412-21.882v-48.095l-13.9 2.936 17.322-41.471 17.809 41.471-12.229-2.929v48.088c0 9.739 5.416 12.239 8.989 13.216l1.483.488c6.295 1.792 16.525 9.229 16.525 23.685" fill="none"/></g></svg>