<svg xmlns="http://www.w3.org/2000/svg" viewBox="0 0 640 415" enable-background="new 0 0 640 415"><g><g stroke="#fff" stroke-width="3" stroke-linecap="square" stroke-linejoin="round" stroke-miterlimit="10" fill="none"><path d="M154.339 113.097c3.543 7.672-.985 17.31-.985 17.31s-10.274-2.8-13.819-10.473c-3.544-7.671.986-17.309.986-17.309s10.276 2.801 13.818 10.472zM159.222 135.846c-3.527 0-5.078-2.717-6.209-6.095l-6.279-13.833"/><path d="M178.213 93.645c3.542 7.672-.986 17.31-.986 17.31s-10.274-2.8-13.819-10.473c-3.544-7.671.986-17.309.986-17.309s10.276 2.801 13.819 10.472zM183.095 116.394c-3.527 0-5.078-2.717-6.209-6.095l-6.279-13.833"/></g><g stroke="#fff" stroke-width="3" stroke-miterlimit="10" fill="none"><g stroke-linecap="square" stroke-linejoin="round"><path d="M541.445 290.425c6.68 1.914 9.805 7.759 9.805 21.248l-.068 70.986c0-38.245-31.059-8.035-69.059-8.035v-77.986c5 0 9.395-.362 13.883-.922"/><path d="M550.949 382.66c0-38.245 31.174-8.035 69.174-8.035v-77.986c-38 0-69.186-23.21-69.186 15.035l.012 70.986zM550.949 384.735c0-25.795 31.178-4.545 69.178-4.545M551.127 384.735c0-25.795-31.176-4.545-69.176-4.545M494.623 318.44h43M494.623 324.44h43M494.623 330.44h43M494.623 336.44h43M494.623 342.44h43M494.623 348.44h43"/><path d="M564.123 321.44h18v17h-18zM573.123 343.44h23v12h-23zM587.123 310.44h18v28h-18z"/></g><circle stroke-linecap="square" stroke-linejoin="round" cx="516.168" cy="271.604" r="30.926"/><circle stroke-linecap="square" stroke-linejoin="round" cx="516.17" cy="270.742" r="19.606"/><path d="M509.123 240.94v-49.587c0-3.817 3.098-6.913 6.916-6.913h.174c3.818 0 6.91 3.096 6.91 6.913v49.587M508.623 230.44h14"/><path stroke-linecap="square" stroke-linejoin="round" d="M528.623 273.989c0 5.521-5.041 9.985-11.27 9.985"/></g><g stroke="#fff" stroke-width="3" stroke-miterlimit="10" fill="none"><path d="M568.08 131.104c4.457-1.295 9.168-1.99 14.043-1.99 15.975 0 30.207 7.463 39.396 19.094l-39.396 86.492-39.396-86.49c2.787-3.527 6.037-6.672 9.658-9.342M548.271 159.647c7.773-9.018 17.086-16.626 33.852-16.626 16.027 0 25.818 7.646 33.818 16.691"/><path d="M567.977 155.367c5.461 0 9.887 4.425 9.887 9.884 0 5.458-4.426 9.885-9.887 9.885-5.457 0-9.883-4.427-9.883-9.885 0-5.459 4.426-9.884 9.883-9.884zM583.623 182.314c5.461 0 9.887 4.425 9.887 9.884 0 5.458-4.426 9.884-9.887 9.884-5.457 0-9.883-4.426-9.883-9.884 0-5.459 4.426-9.884 9.883-9.884z"/><circle cx="594.924" cy="162.643" r="9.884"/></g><g stroke="#fff" stroke-width="3" stroke-linecap="square" stroke-linejoin="round" stroke-miterlimit="10" fill="none"><path d="M507.574 104.362c-4.008 8.677 1.115 19.576 1.115 19.576s11.619-3.166 15.629-11.844c4.008-8.676-1.115-19.576-1.115-19.576s-11.621 3.169-15.629 11.844zM502.053 130.091c3.988 0 5.744-3.072 7.021-6.893l7.102-15.646"/><path d="M470.574 118.362c-4.008 8.677 1.115 19.576 1.115 19.576s11.619-3.166 15.629-11.844c4.008-8.676-1.115-19.576-1.115-19.576s-11.621 3.169-15.629 11.844zM465.053 144.091c3.988 0 5.744-3.072 7.021-6.893l7.102-15.646"/><path d="M443.574 96.362c-4.008 8.677 1.115 19.576 1.115 19.576s11.619-3.166 15.629-11.844c4.008-8.676-1.115-19.576-1.115-19.576s-11.621 3.169-15.629 11.844zM438.053 122.091c3.988 0 5.744-3.072 7.021-6.893l7.102-15.646"/></g><g stroke="#fff" stroke-width="3" stroke-linecap="square" stroke-linejoin="round" stroke-miterlimit="10" fill="none"><path d="M615.232 37.647c-6.334 6.548-13.172 6.401-19.35 0l-.012-.049c-6.178-6.399-13.016-6.547-19.352 0M563.434 58.504c-6.334 6.548-13.174 6.401-19.352 0l-.01-.049c-6.18-6.401-13.018-6.548-19.354 0M474.434 56.504c-6.334 6.548-13.174 6.401-19.352 0l-.01-.049c-6.18-6.401-13.018-6.548-19.354 0M562.781 33.126c-6.334 6.547-13.172 6.402-19.352 0l-.01-.049c-6.178-6.4-13.018-6.547-19.352 0M537.404 40.935c-6.334 6.547-13.174 6.402-19.352 0l-.012-.049c-6.176-6.399-13.016-6.547-19.35 0M459.404 38.935c-6.334 6.547-13.174 6.402-19.352 0l-.012-.049c-6.176-6.399-13.016-6.547-19.35 0M493.781 32.126c-6.334 6.547-13.172 6.402-19.352 0l-.01-.049c-6.178-6.4-13.018-6.547-19.352 0M506.404 49.935c-6.334 6.547-13.174 6.402-19.352 0l-.012-.049c-6.176-6.399-13.016-6.547-19.35 0M593.404 48.935c-6.334 6.547-13.174 6.402-19.352 0l-.012-.049c-6.176-6.399-13.016-6.547-19.35 0"/></g><g stroke="#fff" stroke-width="3" stroke-miterlimit="10" fill="none"><path stroke-linecap="square" stroke-linejoin="round" d="M19.874 398.444h26.51v-36.115h26.895v-22.285h36.885v14.601h29.199v43.799h26.511"/><path d="M110.547 362.329h21.516M110.547 376.929h21.516M110.547 390.761h21.516M110.547 383.845h21.516M110.547 370.013h21.516M52.916 376.929h20.748M52.916 390.761h20.748M52.916 383.845h20.748M52.916 370.013h20.748M82.116 362.329h21.515M82.116 355.413h21.515M82.116 348.497h21.515M82.116 376.929h21.515M82.116 390.761h21.515M82.116 383.845h21.515M82.116 370.013h21.515M127.068 348.882v-7.301h27.664v54.942M62.521 348.882v-7.301h-26.895v50.332M90.953 328.134v-8.069h27.663v34.963"/></g><g stroke="#fff" stroke-width="3" stroke-miterlimit="10" fill="none"><path d="M45.902 294.775l-7.806 12.503c-1.705 2.93-3.085 5.887-3.085 9.408 0 8.771 7.109 15.879 15.879 15.879 8.771 0 15.88-7.108 15.88-15.879 0-3.57-1.18-6.866-3.17-9.52l-12.71-21.525"/><path stroke-linecap="round" d="M62.136 316.285c0 6.731-4.684 12.179-10.471 12.179"/><path d="M41.005 285.87v-8.844c0-14.662 12.271-26.591 27.084-26.591 14.717 0 26.705 12.005 26.705 26.761v44.021M80.195 321.218v-44.002c0-6.205-5.58-11.363-11.824-11.363-6.339 0-11.997 4.986-11.997 11.174v8.844M39.853 286.255h6.915"/></g><g stroke="#fff" stroke-width="3" stroke-linejoin="round" stroke-miterlimit="10" fill="none"><path stroke-linecap="square" d="M361.766 55.999l-15.366 11.954 15.366 13.197M385.088 81.15l15.365-11.954-15.365-13.197"/><path stroke-linecap="round" d="M367.828 91.818l12.072-46.027"/></g><g stroke="#fff" stroke-width="3" stroke-linecap="square" stroke-linejoin="round" stroke-miterlimit="10" fill="none"><path d="M27.272 169.982c-1.438 0-1.702-.742-.586-1.649l33.425-27.19c1.116-.908 2.941-.908 4.058 0l33.425 27.19c1.116.907.853 1.649-.587 1.649h-69.735zM90.465 170.418v31.381M80.877 170.418v31.381M66.93 170.418v31.381M57.342 170.418v31.381M43.395 170.418v31.381M24.654 203.979h74.965M24.654 209.208h74.965M24.654 214.438h74.965"/><path d="M61.701 115.938h17.433v10.46h-17.433zM61.701 139.91v-23.536M33.806 170.418v31.381"/></g><g stroke="#fff" stroke-width="3" stroke-linejoin="round" stroke-miterlimit="10" fill="none"><path stroke-linecap="round" d="M266.534 386.144c-.971.322-33.015 12.188-53.729 2.146-20.716-10.043-39.164-25.838-39.164-25.838s-2.591-17.658 9.711-36.433c12.298-18.772 22.008-30.747 22.008-30.747s13.594-10.708 26.217-10.708l9.387 13.942s-2.275 7.445-11.016 7.445c0 0-9.311 1.207-10.178-7.455M266.534 352.196s-5.18-10.314-18.448-10.314c-13.272 0-18.788 7.394-18.788 7.394s-2.854-8.028-10.622-7.704c-7.77.323-7.89 5-10.294 6.822-1.51 1.145-5.287.882-5.287.882s5.502-17.751 4.208-31.021c-1.294-13.271 9.272-15.535 9.272-15.535"/><path stroke-linecap="square" d="M235.546 361.837l9.133 7.107-9.133 7.844M221.683 376.788l-9.135-7.105 9.135-7.846"/><path stroke-linecap="round" d="M231.941 383.13l-7.176-27.359"/></g><g stroke="#fff" stroke-width="3" stroke-linejoin="round" stroke-miterlimit="10" fill="none"><path d="M338.892 382.206l-53.199-53.199 5.094-5.094 53.199 53.199zM328.71 392.38l-53.201-53.201 5.095-5.095 53.201 53.201zM348.522 372.57l-53.199-53.199 5.093-5.093 53.199 53.199zM358.723 362.384l-53.199-53.199 4.528-4.528 53.199 53.199zM368.91 352.196l-53.199-53.199 4.528-4.528 53.199 53.199z"/></g><g stroke="#fff" stroke-width="3" stroke-linecap="round" stroke-miterlimit="10" fill="none"><path d="M293.613 96.574s-21.175-43.242-21.175-54.938 9.479-21.176 21.175-21.176 21.176 9.479 21.176 21.176c0 7.481-8.668 27.877-14.912 41.601"/><circle cx="293.582" cy="43.865" r="8.557"/></g><g stroke="#fff" stroke-width="3" stroke-miterlimit="10" fill="none"><circle cx="108.928" cy="64.562" r="15.08"/><circle cx="38.399" cy="64.562" r="15.08"/><path d="M109.514 64.539l-19.928-38.217s-1.014-2.767-3.771-2.767h-8.108"/><path stroke-linejoin="round" d="M97.653 42.006l-31.608 21.994h-27.434l18.214-17.926 37.464-10.512M66.045 63.971l-15.683-31.721"/><path stroke-linecap="round" stroke-linejoin="round" d="M43.485 32.267h11.822"/></g><path stroke="#fff" stroke-width="3" stroke-miterlimit="10" d="M152.341 0c.035 2.185.182 33.397 1.112 36.803l.441 1.338c2.508 8.814 10.068 15.412 21.882 15.412h48.095l-2.936 13.9 41.471-17.322-41.471-17.809 2.929 12.229h-48.088c-9.739 0-12.239-5.416-13.216-8.989l-.488-1.483c-1.792-6.295-.697-33.409-.697-34.079" fill="none"/><g stroke="#fff" stroke-width="3" stroke-linejoin="round" stroke-miterlimit="10" fill="none"><path stroke-linecap="round" d="M426.659 352.849c2.163.92 4.54 1.43 7.04 1.43 9.939 0 17.115-8.058 17.115-17.997 0-8.894-6.454-16.275-14.934-17.731-.401-7.316-6.457-13.126-13.873-13.126-7.675 0-13.896 6.221-13.896 13.896 0 .865.083 1.711.234 2.533-7.427 1.223-13.096 7.67-13.096 15.443 0 8.648 7.011 15.658 15.658 15.658 3.018 0 6.691-1.334 9.08-2.812"/><path stroke-linecap="square" d="M426.119 348.823v25.985c0 1.519-1.572 2.626-3.09 2.626h-.095c-1.519 0-2.978-1.109-2.978-2.626v-41.83"/><path stroke-linecap="round" d="M434.579 362.017c13.499 2.037 23.162 7.51 23.162 13.943 0 8.171-15.594 14.794-34.829 14.794s-34.829-6.623-34.829-14.794c0-6.486 9.826-11.996 23.498-13.993M384.043 373.923c-3.551 9.539 12.416 19.533 24.153 19.533M441.85 359.78c13.497 2.036 20.274 9.107 20.274 15.541"/></g></g></svg>