<svg xmlns="http://www.w3.org/2000/svg" viewBox="0 0 640 415" enable-background="new 0 0 640 415"><g stroke="#fff" stroke-width="3" stroke-miterlimit="10" fill="none"><path d="M52.736 187.869c0-20.846 17.379-37.806 38.227-37.806l.726-.004 9.672-.153c35.555-.074 65.116-24.134 74.112-56.822"/><path stroke-dasharray="9.668,9.668" d="M153.403 95.052c-8.517 20.428-28.563 34.845-52.201 34.875l-4.815.078c-.051.002-5.553.078-5.604.078-25.526.034-47.639 16.814-55.145 39.851"/><path d="M34.469 174.052c-.345 1.424-.635 2.87-.867 4.334M138.502 72.142c0 20.847-16.611 37.807-37.459 37.807l.04.002-10.478.154c-36.269.076-67.459 25.106-76.141 58.8"/><g stroke-linejoin="round"><path stroke-linecap="round" d="M73.844 55.883c2.173.924 4.561 1.436 7.07 1.436 9.984 0 17.191-8.093 17.191-18.076 0-8.934-6.482-16.347-14.999-17.81-.403-7.349-6.485-13.184-13.936-13.184-7.707 0-13.957 6.248-13.957 13.957 0 .868.084 1.718.235 2.544-7.459 1.229-13.152 7.704-13.152 15.512 0 8.686 7.041 15.727 15.727 15.727 3.031 0 6.721-1.339 9.12-2.823"/><path stroke-linecap="square" d="M73.302 51.84v26.1c0 1.525-1.579 2.637-3.104 2.637h-.095c-1.525 0-2.991-1.112-2.991-2.637v-42.015"/><path stroke-linecap="round" d="M81.799 65.091c13.56 2.046 23.265 7.544 23.265 14.006 0 8.206-15.663 14.858-34.982 14.858-19.321 0-34.984-6.652-34.984-14.858 0-6.515 9.87-12.05 23.603-14.056M31.04 77.05c-3.565 9.581 12.47 19.619 24.261 19.619M89.102 62.845c13.557 2.045 20.363 9.148 20.363 15.609"/></g><circle cx="135.35" cy="246.077" r="21.429"/><circle cx="35.126" cy="246.077" r="21.429"/><path d="M136.182 246.045l-28.318-54.307s-1.44-3.932-5.358-3.932h-11.521"/><path stroke-linejoin="round" d="M119.326 214.024l-44.914 31.254h-38.985l25.882-25.473 53.236-14.937M74.412 245.237l-22.287-45.076"/><path stroke-linecap="round" stroke-linejoin="round" d="M42.353 200.185h16.798"/><g stroke-linecap="square" stroke-linejoin="round"><path d="M536.658 155.942c-3.543 7.672.985 17.31.985 17.31s10.274-2.8 13.819-10.473c3.544-7.671-.986-17.309-.986-17.309s-10.276 2.801-13.818 10.472zM531.775 178.691c3.527 0 5.078-2.717 6.209-6.095l6.279-13.833"/><path d="M512.784 136.49c-3.542 7.672.986 17.31.986 17.31s10.274-2.8 13.819-10.473c3.544-7.671-.986-17.309-.986-17.309s-10.276 2.801-13.819 10.472zM507.902 159.239c3.527 0 5.078-2.717 6.209-6.095l6.279-13.833"/></g><g stroke-linecap="square" stroke-linejoin="round"><path d="M196.438 287.629c-3.543 7.672.986 17.31.986 17.31s10.273-2.799 13.818-10.473c3.545-7.671-.984-17.31-.984-17.31s-10.278 2.801-13.82 10.473zM191.556 310.378c3.526 0 5.079-2.718 6.208-6.095l6.28-13.834"/><path d="M169.491 269.222c-3.543 7.672.986 17.31.986 17.31s10.274-2.8 13.819-10.473c3.544-7.672-.986-17.31-.986-17.31s-10.276 2.801-13.819 10.473zM164.609 291.97c3.527 0 5.078-2.717 6.208-6.094l6.28-13.834"/></g><circle cx="300.876" cy="382.082" r="2.577"/><path stroke-linecap="square" stroke-linejoin="round" d="M308.268 391.557h-28.811c-3.585 0-5.051-3.537-3.259-6.643l21.708-38.099c1.792-3.105 4.727-3.354 6.521-.249l21.708 38.474c1.791 3.104.325 6.517-3.26 6.517h-3.997"/><path stroke-linecap="square" stroke-linejoin="round" d="M302.52 372.989c0 .976-.792 1.769-1.768 1.769-.977 0-1.769-.793-1.769-1.769v-15.031c0-.976.792-1.769 1.769-1.769.976 0 1.768.793 1.768 1.769v15.031zM255.312 362.641h18.444v-53.935h27.41v-13.264h76.039v13.264h30.063v89.409"/><path stroke-linecap="round" d="M281.713 317.548h10.611v10.609h-10.611zM386.932 322.853h10.61v10.61h-10.61zM386.932 341.421h10.61v10.61h-10.61zM308.238 303.4h10.611v10.61h-10.611zM325.039 310.474h10.609v10.61h-10.609zM325.039 328.157h10.609v10.611h-10.609zM342.723 322.853h10.609v10.61h-10.609zM342.723 341.421h10.609v10.61h-10.609zM359.521 303.4h10.611v10.61h-10.611z"/><path stroke-linecap="square" stroke-linejoin="round" d="M377.205 309.147v91.013M301.166 309.147v25.823"/><g stroke-linecap="round" stroke-linejoin="round"><circle cx="237.074" cy="62.599" r="16.203"/><path d="M236.992 78.802c-5.177 0-9.371-7.255-9.371-16.203 0-8.949 4.194-16.203 9.371-16.203M237.005 78.802c5.177 0 9.374-7.255 9.374-16.203 0-8.949-4.197-16.203-9.374-16.203M237.464 40.651v-7.523M237.464 92.561v-8.277M214.518 63.597h-8.276M265.676 63.597h-7.524M221.164 47.499l-4.965-4.963M256.811 42.536l-4.965 4.963M221.164 78.183l-4.965 4.963M256.811 83.146l-4.965-4.963M237.464 46.67v32.349"/></g><g stroke-linecap="round"><path d="M159.467 83.288s-18.724-38.234-18.724-48.576c0-10.341 8.382-18.723 18.724-18.723 10.34 0 18.723 8.382 18.723 18.723 0 6.615-7.664 24.648-13.186 36.783"/><circle cx="159.438" cy="36.683" r="7.566"/></g><g stroke-linecap="square" stroke-linejoin="round"><path d="M350.835 56.58c0 1.852-1.396 3.574-3.25 3.574h-36.059c-1.854 0-3.133-1.723-3.133-3.574v-22.08c0-1.853 1.279-3.523 3.133-3.523h36.059c1.854 0 3.25 1.672 3.25 3.523v22.08z"/><circle cx="314.183" cy="73.541" r="5.003"/><circle cx="346.581" cy="73.541" r="5.003"/><path d="M321.063 87.748l-11.134 18.41M313.13 87.748l-11.135 18.41"/><path d="M357.022 80.952c0 3.652-2.959 6.612-6.611 6.612h-42.479c-3.654 0-6.615-2.96-6.615-6.612v-49.554c0-3.652 2.961-6.612 6.615-6.612h42.479c3.652 0 6.611 2.96 6.611 6.612v49.554zM338.562 87.748l11.134 18.41M346.495 87.748l11.135 18.41"/></g><path d="M463.646 305.967v-22.865c0-1.779-1.796-3.091-3.574-3.091-3.66 0-3.499 2.984-3.499 2.984v25.624M469.835 306.851v-27.728c0-1.779-1.354-3.092-3.132-3.092-3.279 0-3.058 2.984-3.058 2.984v27.835M476.908 306.851v-23.749c0-1.779-1.795-3.091-3.574-3.091-3.035 0-3.499 2.984-3.499 2.984v23.855M493.708 415.191v-9.179c0-3.948-4.543-6.803-7.595-6.803h-3.855c-5.35 0-11.335-2.553-15.859-8.565-4.224-5.616-5.406-12.516-5.406-21.107v-31.84c-8.842 0-10.961-6.296-10.961-10.379l.133-22.285c0-1.78 1.311-3.045 3.092-3.045h.186c1.779 0 3.131 1.219 3.131 2.998v11.591M476.908 306.851v-15.898s.643-2.983 3.169-2.983c1.78 0 3.297 1.312 3.297 3.091l-.159 33.582c0 2.862-2.771 6.511-4.539 6.511v38.384c0 10.629 4.277 11.955 8.478 11.955h4.265c10.643 0 19.973 5.111 19.973 23.252v10.448"/><path stroke-linecap="square" d="M464.088 276.346h-27.853v33.599h11.937"/><path stroke-linecap="square" stroke-linejoin="round" d="M474.24 348.408c-.02 1.369-1.147 2.464-2.52 2.443l-4.135-.059c-1.369-.02-2.465-1.148-2.445-2.519l.035-2.482c.02-1.37 1.148-2.465 2.519-2.445l4.137.06c1.37.021 2.466 1.148 2.446 2.519l-.037 2.483zM461 344.5h3M461 348.5h3M475 344.5h3M475 348.5h3M461 363.5h17"/><path d="M502.55 415.191v-13.488c0-8.147-5.903-10.958-13.287-10.958h-5.005c-3.76 0-7.35-1.972-10.627-7.065-4.415-6.861-3.796-20.153-3.796-20.153"/><path stroke-linecap="square" stroke-linejoin="round" d="M132.553 376.502h-17.055v-41.557h-30.947v-25.641h-42.442v16.8h-33.599v80.018"/><path d="M33.695 335.432h-12.799M33.695 351.546h-12.799M33.695 367.66h-12.799M33.695 359.604h-12.799M33.695 343.488h-12.799M105.411 344.44h-12.801M105.411 360.556h-12.801M105.411 376.67h-12.801M105.411 368.612h-12.801M105.411 352.498h-12.801M74.383 335.549h-22.844M74.383 327.521h-22.844M74.383 319.492h-22.844M74.383 351.604h-22.844M74.383 367.66h-22.844M74.383 359.633h-22.844M74.383 343.576h-22.844"/><circle cx="563.764" cy="351.962" r="2.945"/><path stroke-linecap="square" stroke-linejoin="round" d="M596.045 362.136l15.534 2.947-9.703-23.132.146-.8c7.311-21.176-3.931-44.267-25.108-51.575-21.173-7.31-44.266 3.931-51.573 25.107-7.311 21.176 4.693 43.092 25.867 50.399 10.118 3.493 21.736 1.713 29.26-2.85M559.602 304.124c0-1.791 1.533-3.159 3.537-3.159 2.005 0 3.537 1.538 3.537 3.331v36.098c0 1.791-1.532 3.245-3.537 3.245-2.004 0-3.537-1.454-3.537-3.245v-25.535"/><g stroke-linecap="square" stroke-linejoin="round"><path d="M450.236 47.935c-3.543 7.672.986 17.309.986 17.309s10.274-2.799 13.819-10.472c3.544-7.671-.985-17.31-.985-17.31s-10.276 2.802-13.82 10.473zM445.355 70.684c3.526 0 5.078-2.717 6.207-6.095l6.281-13.833"/><path d="M417.521 60.313c-3.543 7.672.986 17.309.986 17.309s10.274-2.799 13.818-10.472c3.545-7.672-.984-17.31-.984-17.31s-10.276 2.803-13.82 10.473zM412.64 83.062c3.527 0 5.079-2.717 6.208-6.095l6.28-13.833"/><path d="M393.648 40.861c-3.543 7.672.986 17.309.986 17.309s10.274-2.799 13.818-10.472c3.544-7.672-.984-17.31-.984-17.31s-10.276 2.801-13.82 10.473zM388.767 63.609c3.527 0 5.079-2.716 6.208-6.094l6.28-13.833"/></g><path d="M536.914 76.384v29.667c0 4.184-1.719 8.087-5.205 8.087h-34.104c-3.489 0-7.552-3.903-7.552-8.087v-74.269c0-4.186 4.062-6.062 7.552-6.062h34.104c3.486 0 5.205 1.877 5.205 6.062v34.602M491.379 97.338h46.862M491.379 43.402h46.862"/><circle cx="514.655" cy="33.898" r="2.514"/><path d="M509.062 106.18h10.611M563.885 76.383h-35.029c-2.686 0-4.471-2.176-4.471-4.859v-.28c0-2.685 1.785-4.859 4.471-4.859h39.029M579.885 66.383h-18.029c-2.686 0-4.471-2.176-4.471-4.859v-.28c0-2.685 1.785-4.859 4.471-4.859h33.639c6.16 0 15.849 4.121 15.849 13.33M564.885 86.383h-21.029c-2.686 0-4.471-2.176-4.471-4.859v-.28c0-2.685 1.785-4.859 4.471-4.859h21.029M564.885 96.383h-14.029c-2.686 0-4.471-2.176-4.471-4.859v-.28c0-2.685 1.785-4.859 4.471-4.859h14.029M564.885 96.383h-7.029c-2.686 0-4.471 2.176-4.471 4.859v.28c0 2.685 1.785 4.859 4.471 4.859h33.639c4.316 0 7.58-2.521 9.83-5.418M525.414 82.367c-2.859 2.859-6.812 4.629-11.176 4.629-8.73 0-15.808-7.076-15.808-15.808 0-8.729 7.076-15.807 15.808-15.807 4.646 0 8.826 2.006 11.719 5.199M521.875 78.529c-1.877 1.879-4.473 3.039-7.34 3.039-5.732 0-10.379-4.646-10.379-10.38 0-5.732 4.646-10.379 10.379-10.379 3.053 0 5.797 1.316 7.695 3.414"/><path stroke-linecap="square" stroke-linejoin="round" d="M233.469 358.031h-18.929l-.084-32.845h-58.016v80.615h-12.702"/><path stroke-linecap="round" d="M212.248 380.083h12v8.29h-12zM212.248 397.511h12v8.29h-12zM172.498 376.951h26.5v9.809h-26.5zM172.498 358.151h26.5v9.809h-26.5zM172.498 339.352h26.5v9.809h-26.5zM172.498 396.751h26.5v9.809h-26.5z"/><path d="M601.834 266.695h-10.163c-7.535 0-12.311-4.884-12.311-12.179v-20.212s-.25-3.742-.428-5.016c-.476-3.371-4.603-6.256-7.16-6.221h-3.916c-.688 0-.963-.535-.963-1.222v-7.478c0-.683.273-1.272.963-1.272h3.578c3.264.044 7.385-2.705 7.699-6.805.092-1.193.225-4.877.225-4.877M601.834 180.689h-8.439c-3.227 0-4.067 1.371-4.067 5.059v21.492c0 7.518-3.056 10.285-6.774 11.648 3.719 1.357 6.774 4.125 6.774 11.637v21.496c0 3.623.722 4.705 4.067 4.705h7.759M579.358 201.416v-18.166c0-7.458 4.773-12.537 12.312-12.537h2.121"/></g></svg>