<?xml version="1.0" encoding="utf-8"?>
<!-- Generator: Adobe Illustrator 16.0.0, SVG Export Plug-In . SVG Version: 6.00 Build 0)  -->
<!DOCTYPE svg PUBLIC "-//W3C//DTD SVG 1.1//EN" "http://www.w3.org/Graphics/SVG/1.1/DTD/svg11.dtd">
<svg version="1.1" id="Ebene_1" xmlns="http://www.w3.org/2000/svg" xmlns:xlink="http://www.w3.org/1999/xlink" x="0px" y="0px" viewBox="0 0 641 418" enable-background="new 0 0 641 418" xml:space="preserve">
<g>
	<path fill="none" stroke="#FFFFFF" stroke-width="3" stroke-miterlimit="10" d="M94.937,282.288
		c9.355,0,16.941-7.876,16.941-17.231s-7.586-16.941-16.941-16.941c-0.725,0-1.437,0.05-2.137,0.139
		c-2.855-5.329-8.475-8.954-14.943-8.954c-8.787,0-16.012,6.693-16.856,15.261c-1.047-0.25-2.14-0.386-3.263-0.386
		c-7.764,0-14.058,6.296-14.058,14.058c0,7.764,6.295,14.059,14.058,14.059L94.937,282.288L94.937,282.288z"/>
	<path fill="none" stroke="#FFFFFF" stroke-width="3" stroke-linecap="round" stroke-miterlimit="10" d="M106.839,266.421
		c0-7.833-6.352-14.206-14.185-14.206c-0.606,0-1.202,0.029-1.791,0.104c-2.39-4.461-7.094-7.502-12.509-7.502"/>
</g>
<g>
	<g>
		<path fill="none" stroke="#FFFFFF" stroke-width="3" stroke-linecap="square" stroke-linejoin="round" stroke-miterlimit="10" d="
			M336.31,89.787h-7.958v18.872h-13.004V55.751h20.962c11.737,0,18.056,8.318,18.056,17.015
			C354.365,81.46,348.047,89.787,336.31,89.787z M335.711,67.417h-7.359v10.697h7.359c3.567,0,5.649-2.595,5.649-5.349
			C341.361,70.018,339.279,67.417,335.711,67.417z"/>
	</g>
	<polygon fill="none" stroke="#FFFFFF" stroke-width="3" stroke-linecap="round" stroke-miterlimit="10" points="330.5,40.351 
		366.5,52.255 366.5,43.099 330.5,31.098 294.5,43.099 294.5,52.255 	"/>
</g>
<path fill="none" stroke="#FFFFFF" stroke-width="3" stroke-miterlimit="10" d="M455.029,37.112l-6.229-16.09
	c-1.164-3.078-3.711-5.699-8.53-5.722h-8.785h-15.017h-8.939c-4.797,0.022-7.342,2.644-8.527,5.722l-6.232,16.09
	c-2.475,0.318-6.854,3.227-6.846,8.734v20.482h6.081v6.539c-0.018,8.062,11.393,7.967,11.389,0v-6.539h20.533h20.482v6.539
	c0.023,7.967,11.434,8.062,11.439,0v-6.539h6.081V45.847C461.906,40.339,457.527,37.431,455.029,37.112z M397.875,53.968
	c-2.914,0.009-5.273-2.422-5.263-5.411c-0.012-3.01,2.349-5.442,5.263-5.417c2.904-0.025,5.264,2.407,5.26,5.417
	C403.139,51.546,400.779,53.976,397.875,53.968z M423.924,36.96h-0.052h-24.619l4.699-12.669c0.566-1.798,1.446-3.085,3.525-3.116
	h16.395h0.052h16.446c2.049,0.031,2.931,1.317,3.524,3.116l4.7,12.669H423.924z M449.975,53.968
	c-2.936,0.009-5.295-2.422-5.312-5.411c0.018-3.01,2.377-5.442,5.312-5.417c2.885-0.025,5.242,2.407,5.262,5.417
	C455.217,51.546,452.859,53.976,449.975,53.968z"/>
<g>
	
		<polyline fill="none" stroke="#FFFFFF" stroke-width="3" stroke-linecap="square" stroke-linejoin="round" stroke-miterlimit="10" points="
		197.215,388.062 168.715,388.062 168.715,327.062 137.715,327.062 137.715,312.062 53.715,312.062 53.715,327.062 19.715,327.062 
		19.715,406.023 	"/>
	
		<rect x="31.715" y="343.062" fill="none" stroke="#FFFFFF" stroke-width="3" stroke-linecap="round" stroke-miterlimit="10" width="12" height="36"/>
	
		<rect x="147.715" y="339.062" fill="none" stroke="#FFFFFF" stroke-width="3" stroke-linecap="round" stroke-miterlimit="10" width="12" height="36"/>
	
		<rect x="66.715" y="326.062" fill="none" stroke="#FFFFFF" stroke-width="3" stroke-linecap="round" stroke-miterlimit="10" width="12" height="36"/>
	
		<rect x="89.715" y="326.062" fill="none" stroke="#FFFFFF" stroke-width="3" stroke-linecap="round" stroke-miterlimit="10" width="12" height="36"/>
	
		<rect x="112.715" y="326.062" fill="none" stroke="#FFFFFF" stroke-width="3" stroke-linecap="round" stroke-miterlimit="10" width="12" height="36"/>
	
		<line fill="none" stroke="#FFFFFF" stroke-width="3" stroke-linecap="square" stroke-linejoin="round" stroke-miterlimit="10" x1="53.715" y1="327.562" x2="53.715" y2="393.562"/>
	
		<line fill="none" stroke="#FFFFFF" stroke-width="3" stroke-linecap="square" stroke-linejoin="round" stroke-miterlimit="10" x1="137.715" y1="327.562" x2="137.715" y2="372.562"/>
</g>
<g>
	<path fill="none" stroke="#FFFFFF" stroke-width="3" stroke-linecap="round" stroke-linejoin="round" stroke-miterlimit="10" d="
		M223.882,326.855c-2.555,1.776-5.659,2.817-9.007,2.817c-8.727,0-15.796-7.071-15.796-15.795c0-8.726,7.069-15.797,15.796-15.797
		c8.723,0,15.796,7.071,15.796,15.797c0,3.263-0.991,6.295-2.687,8.812"/>
	<path fill="none" stroke="#FFFFFF" stroke-width="3" stroke-linecap="round" stroke-linejoin="round" stroke-miterlimit="10" d="
		M239.659,313.879c0-8.725,7.071-15.797,15.797-15.797c8.723,0,15.795,7.072,15.795,15.797c0,8.723-7.071,15.795-15.795,15.795"/>
	
		<line fill="none" stroke="#FFFFFF" stroke-width="3" stroke-linecap="round" stroke-linejoin="round" stroke-miterlimit="10" x1="212.662" y1="316.166" x2="208.239" y2="319.74"/>
	
		<line fill="none" stroke="#FFFFFF" stroke-width="3" stroke-linecap="round" stroke-linejoin="round" stroke-miterlimit="10" x1="222.349" y1="308.08" x2="217.646" y2="311.968"/>
	
		<line fill="none" stroke="#FFFFFF" stroke-width="3" stroke-linecap="round" stroke-linejoin="round" stroke-miterlimit="10" x1="258.199" y1="316.166" x2="262.621" y2="319.74"/>
	
		<line fill="none" stroke="#FFFFFF" stroke-width="3" stroke-linecap="round" stroke-linejoin="round" stroke-miterlimit="10" x1="248.513" y1="308.08" x2="253.215" y2="311.968"/>
	<path fill="none" stroke="#FFFFFF" stroke-width="3" stroke-linecap="round" stroke-linejoin="round" stroke-miterlimit="10" d="
		M227.852,346.363c1.778,2.555,2.819,5.658,2.819,9.007c0,8.724-7.072,15.796-15.796,15.796c-8.727,0-15.796-7.071-15.796-15.796
		c0-8.724,7.069-15.796,15.796-15.796c3.263,0,6.296,0.99,8.812,2.686"/>
	<path fill="none" stroke="#FFFFFF" stroke-width="3" stroke-linecap="round" stroke-linejoin="round" stroke-miterlimit="10" d="
		M246.447,341.938c2.557-1.776,5.659-2.817,9.01-2.817c8.723,0,15.795,7.071,15.795,15.795c0,8.726-7.071,15.796-15.795,15.796
		c-8.726,0-15.797-7.07-15.797-15.796c0-3.263,0.988-6.295,2.685-8.812"/>
	<path fill="none" stroke="#FFFFFF" stroke-width="3" stroke-linejoin="round" stroke-miterlimit="10" d="M244.361,334.1
		c0-1.598-0.401-3.1-1.11-4.41l14.431-14.429c1.064-1.065,1.064-2.792,0-3.858c-1.066-1.064-2.794-1.064-3.86,0l-14.454,14.455
		c-1.286-0.674-2.747-1.057-4.302-1.057c-1.596,0-3.097,0.403-4.407,1.111L216.144,311.4c-1.063-1.063-2.792-1.063-3.855,0
		c-1.066,1.067-1.066,2.793,0,3.859l14.536,14.536c-0.675,1.286-1.056,2.748-1.056,4.302c0,2.19,1.551,5.248,1.551,5.248
		l-14.427,14.428c-1.066,1.065-1.271,2.588-0.204,3.656c1.065,1.063,2.588,0.86,3.655-0.203l14.456-14.455
		c1.168,0.557,3.037,0.928,4.591,0.928c1.595,0,2.674,0.188,4.701-1.238l14.511,14.51c1.066,1.066,2.59,1.269,3.655,0.203
		c1.064-1.064,0.862-2.59-0.203-3.654l-14.538-14.537C243.517,338.982,244.361,336.661,244.361,334.1z"/>
	
		<line fill="none" stroke="#FFFFFF" stroke-width="3" stroke-linecap="round" stroke-linejoin="round" stroke-miterlimit="10" x1="257.667" y1="352.627" x2="262.089" y2="349.053"/>
	
		<line fill="none" stroke="#FFFFFF" stroke-width="3" stroke-linecap="round" stroke-linejoin="round" stroke-miterlimit="10" x1="247.98" y1="360.713" x2="252.684" y2="356.826"/>
	
		<line fill="none" stroke="#FFFFFF" stroke-width="3" stroke-linecap="round" stroke-linejoin="round" stroke-miterlimit="10" x1="212.132" y1="352.627" x2="207.708" y2="349.053"/>
	
		<line fill="none" stroke="#FFFFFF" stroke-width="3" stroke-linecap="round" stroke-linejoin="round" stroke-miterlimit="10" x1="221.816" y1="360.713" x2="217.113" y2="356.824"/>
</g>
<g>
	
		<polyline fill="none" stroke="#FFFFFF" stroke-width="3" stroke-linecap="square" stroke-linejoin="round" stroke-miterlimit="10" points="
		544.85,272.79 544.85,258.13 563.778,258.13 563.862,236.105 621.878,236.105 621.878,349.416 	"/>
	
		<rect x="554.07" y="291.004" fill="none" stroke="#FFFFFF" stroke-width="3" stroke-linecap="round" stroke-miterlimit="10" width="12" height="8.29"/>
	
		<rect x="554.07" y="308.432" fill="none" stroke="#FFFFFF" stroke-width="3" stroke-linecap="round" stroke-miterlimit="10" width="12" height="8.291"/>
	
		<rect x="554.07" y="325.859" fill="none" stroke="#FFFFFF" stroke-width="3" stroke-linecap="round" stroke-miterlimit="10" width="12" height="8.289"/>
	
		<rect x="579.32" y="287.872" fill="none" stroke="#FFFFFF" stroke-width="3" stroke-linecap="round" stroke-miterlimit="10" width="26.5" height="9.81"/>
	
		<rect x="579.32" y="269.072" fill="none" stroke="#FFFFFF" stroke-width="3" stroke-linecap="round" stroke-miterlimit="10" width="26.5" height="9.809"/>
	
		<rect x="579.32" y="250.271" fill="none" stroke="#FFFFFF" stroke-width="3" stroke-linecap="round" stroke-miterlimit="10" width="26.5" height="9.81"/>
	
		<rect x="579.32" y="345.271" fill="none" stroke="#FFFFFF" stroke-width="3" stroke-linecap="round" stroke-miterlimit="10" width="26.5" height="9.809"/>
	
		<rect x="579.32" y="326.473" fill="none" stroke="#FFFFFF" stroke-width="3" stroke-linecap="round" stroke-miterlimit="10" width="26.5" height="9.809"/>
	
		<rect x="579.32" y="307.672" fill="none" stroke="#FFFFFF" stroke-width="3" stroke-linecap="round" stroke-miterlimit="10" width="26.5" height="9.809"/>
</g>
<g>
	<path fill="none" stroke="#FFFFFF" stroke-width="3" stroke-miterlimit="10" d="M578.539,203.69
		c0-23.576-19.655-42.759-43.231-42.759c-0.115,0-0.707,0-0.822-0.003l-10.938-0.173c-40.212-0.084-73.646-27.295-83.819-64.266"/>
	<g>
		<g>
			<path fill="none" stroke="#FFFFFF" stroke-width="3" stroke-miterlimit="10" d="M460.634,84.647
				c0.276,1.653,0.619,3.286,1.021,4.896"/>
			<path fill="none" stroke="#FFFFFF" stroke-width="3" stroke-miterlimit="10" stroke-dasharray="9.668,9.668" d="M464.688,98.716
				c9.631,23.104,32.302,39.409,59.037,39.443c0.057,0,5.389,0.088,5.445,0.088c0.059,0.002,6.278,0.089,6.337,0.089
				c28.868,0.038,53.88,19.016,62.368,45.069"/>
			<path fill="none" stroke="#FFFFFF" stroke-width="3" stroke-miterlimit="10" d="M599.199,188.063
				c0.392,1.61,0.72,3.246,0.982,4.901"/>
		</g>
	</g>
	<path fill="none" stroke="#FFFFFF" stroke-width="3" stroke-miterlimit="10" d="M481.539,72.805
		c0,23.577,18.788,42.759,42.365,42.759c0.115,0-0.161,0-0.045,0.003l11.852,0.174c41.02,0.086,76.294,28.396,86.111,66.502"/>
</g>
<g>
	<path fill="none" stroke="#FFFFFF" stroke-width="3" stroke-miterlimit="10" d="M25.347,2.061v104.848
		c0,9.717,6.844,12.032,10.25,12.963l1.338,0.441c8.814,2.508,15.412,10.068,15.412,21.882v48.095l13.9-2.936l-17.322,41.471
		l-17.809-41.471l12.229,2.929v-48.088c0-9.739-5.416-12.239-8.989-13.216l-1.482-0.488c-6.295-1.792-16.525-6.979-16.525-21.434
		V1.429"/>
</g>
<g>
	<path fill="none" stroke="#FFFFFF" stroke-width="3" stroke-linecap="round" stroke-linejoin="round" stroke-miterlimit="10" d="
		M492.896,349.534c2.173,0.924,4.561,1.437,7.07,1.437c9.983,0,17.19-8.094,17.19-18.076c0-8.935-6.481-16.348-14.999-17.811
		c-0.402-7.35-6.484-13.184-13.936-13.184c-7.707,0-13.957,6.248-13.957,13.957c0,0.867,0.084,1.718,0.234,2.543
		c-7.459,1.229-13.151,7.705-13.151,15.513c0,8.687,7.041,15.728,15.727,15.728c3.031,0,6.722-1.34,9.12-2.824"/>
	<path fill="none" stroke="#FFFFFF" stroke-width="3" stroke-linecap="square" stroke-linejoin="round" stroke-miterlimit="10" d="
		M492.354,345.491v26.1c0,1.525-1.579,2.638-3.104,2.638h-0.096c-1.524,0-2.991-1.112-2.991-2.638v-42.015"/>
	<path fill="none" stroke="#FFFFFF" stroke-width="3" stroke-linecap="round" stroke-linejoin="round" stroke-miterlimit="10" d="
		M500.852,358.742c13.56,2.046,23.265,7.544,23.265,14.006c0,8.206-15.663,14.857-34.981,14.857
		c-19.321,0-34.984-6.651-34.984-14.857c0-6.516,9.87-12.05,23.604-14.057"/>
	<path fill="none" stroke="#FFFFFF" stroke-width="3" stroke-linecap="round" stroke-linejoin="round" stroke-miterlimit="10" d="
		M450.093,370.701c-3.565,9.581,12.47,19.619,24.261,19.619"/>
	<path fill="none" stroke="#FFFFFF" stroke-width="3" stroke-linecap="round" stroke-linejoin="round" stroke-miterlimit="10" d="
		M508.154,356.496c13.558,2.045,20.363,9.148,20.363,15.609"/>
</g>
<g>
	
		<polyline fill="none" stroke="#FFFFFF" stroke-width="3" stroke-linecap="square" stroke-linejoin="round" stroke-miterlimit="10" points="
		579.531,24.757 564.166,36.711 579.531,49.908 	"/>
	
		<polyline fill="none" stroke="#FFFFFF" stroke-width="3" stroke-linecap="square" stroke-linejoin="round" stroke-miterlimit="10" points="
		602.855,49.908 618.221,37.954 602.855,24.757 	"/>
	
		<line fill="none" stroke="#FFFFFF" stroke-width="3" stroke-linecap="round" stroke-linejoin="round" stroke-miterlimit="10" x1="585.595" y1="60.576" x2="597.668" y2="14.549"/>
</g>
<g>
	<circle fill="none" stroke="#FFFFFF" stroke-width="3" stroke-miterlimit="10" cx="110.876" cy="93.482" r="3.331"/>
	<path fill="none" stroke="#FFFFFF" stroke-width="3" stroke-linecap="square" stroke-linejoin="round" stroke-miterlimit="10" d="
		M73.555,104.988l-17.569,3.334L66.961,82.16l-0.165-0.904c-8.268-23.95,4.447-50.065,28.396-58.331
		c23.947-8.267,50.064,4.446,58.33,28.396c8.269,23.949-5.309,48.735-29.256,57.001c-11.441,3.95-24.583,1.937-33.092-3.223"/>
	<path fill="none" stroke="#FFFFFF" stroke-width="3" stroke-linecap="square" stroke-linejoin="round" stroke-miterlimit="10" d="
		M115.005,79.914c-1.18,1.517-3.023,2.485-5.09,2.485c-3.564,0-6.451-2.89-6.451-6.452c0-1.494,0.504-2.867,1.354-3.963
		l14.479-14.498c0,0,2.897-2.896,2.897-7.848c0-6.721-5.406-12.076-12.076-12.076c-5.148,0-9.547,3.221-11.283,7.758"/>
</g>
<g>
	<circle fill="none" stroke="#FFFFFF" stroke-width="3" stroke-miterlimit="10" cx="328.877" cy="307.104" r="2.843"/>
	
		<line fill="none" stroke="#FFFFFF" stroke-width="3" stroke-miterlimit="10" x1="322.318" y1="388.834" x2="334.317" y2="388.868"/>
	<path fill="none" stroke="#FFFFFF" stroke-width="3" stroke-miterlimit="10" d="M353.818,388.777
		c-0.014,4.731-1.97,9.142-5.915,9.13l-38.57-0.11c-3.944-0.012-8.527-4.439-8.515-9.172l0.241-83.994
		c0.014-4.734,4.615-6.844,8.561-6.833l38.57,0.11c3.943,0.012,5.883,2.141,5.869,6.875L353.818,388.777z"/>
	<line fill="none" stroke="#FFFFFF" stroke-width="3" stroke-miterlimit="10" x1="302.347" y1="378.775" x2="355.347" y2="378.93"/>
	
		<line fill="none" stroke="#FFFFFF" stroke-width="3" stroke-miterlimit="10" x1="302.521" y1="317.777" x2="355.521" y2="317.929"/>
	<g>
		<path fill="none" stroke="#FFFFFF" stroke-width="3" stroke-linejoin="round" stroke-miterlimit="10" d="M326.93,349.848
			l13.659,0.039c-0.021,7-6.037,13.309-13.437,13.286c-7.399-0.021-13.5-6.073-13.479-13.475c0.021-7.399,6.295-13.431,13.295-13.41
			L326.93,349.848z"/>
		<path fill="none" stroke="#FFFFFF" stroke-width="3" stroke-linejoin="round" stroke-miterlimit="10" d="M331.943,345.188
			l0.038-13.412c7,0.021,13.251,6.072,13.229,13.399L331.943,345.188z"/>
	</g>
</g>
<g>
	<path fill="none" stroke="#FFFFFF" stroke-width="3" stroke-miterlimit="10" d="M217.665,74.774h35.229
		c2.687,0,4.271,2.37,4.271,5.055v0.28c0,2.685-1.586,4.665-4.271,4.665h-39.229"/>
	<path fill="none" stroke="#FFFFFF" stroke-width="3" stroke-miterlimit="10" d="M201.665,84.774h18.229
		c2.687,0,4.271,2.37,4.271,5.055v0.28c0,2.685-1.586,4.665-4.271,4.665h-33.64c-6.159,0-15.946-4.121-15.946-13.33"/>
	<path fill="none" stroke="#FFFFFF" stroke-width="3" stroke-miterlimit="10" d="M216.665,64.774h21.229
		c2.687,0,4.271,2.37,4.271,5.055v0.28c0,2.685-1.586,4.665-4.271,4.665h-21.229"/>
	<path fill="none" stroke="#FFFFFF" stroke-width="3" stroke-miterlimit="10" d="M216.665,54.774h14.229
		c2.687,0,4.271,2.37,4.271,5.055v0.28c0,2.685-1.586,4.665-4.271,4.665h-14.229"/>
	<path fill="none" stroke="#FFFFFF" stroke-width="3" stroke-miterlimit="10" d="M216.665,54.774h7.229
		c2.687,0,4.271-1.98,4.271-4.665v-0.28c0-2.685-1.586-5.055-4.271-5.055h-33.64c-4.315,0-7.68,2.521-9.93,5.418"/>
	<path fill="none" stroke="#FFFFFF" stroke-width="3" stroke-miterlimit="10" d="M256.334,68.984
		c2.859-2.86,6.812-4.628,11.177-4.628c8.73,0,15.807,7.075,15.807,15.807c0,8.729-7.074,15.807-15.807,15.807
		c-4.646,0-8.826-2.006-11.719-5.199"/>
	<path fill="none" stroke="#FFFFFF" stroke-width="3" stroke-miterlimit="10" d="M259.874,72.823
		c1.877-1.88,4.473-3.041,7.339-3.041c5.731,0,10.38,4.646,10.38,10.381c0,5.732-4.646,10.379-10.38,10.379
		c-3.052,0-5.796-1.315-7.694-3.414"/>
</g>
<g>
	<g>
		<path fill="none" stroke="#FFFFFF" stroke-width="3" stroke-linecap="square" stroke-linejoin="round" stroke-miterlimit="10" d="
			M529.312,64.634c-4.007,8.677,1.115,19.576,1.115,19.576s11.62-3.166,15.629-11.844c4.009-8.676-1.114-19.576-1.114-19.576
			S533.319,55.958,529.312,64.634z"/>
		<path fill="none" stroke="#FFFFFF" stroke-width="3" stroke-linecap="square" stroke-linejoin="round" stroke-miterlimit="10" d="
			M523.791,90.362c3.988,0,5.743-3.072,7.021-6.893l7.103-15.646"/>
	</g>
	<g>
		<path fill="none" stroke="#FFFFFF" stroke-width="3" stroke-linecap="square" stroke-linejoin="round" stroke-miterlimit="10" d="
			M502.312,42.634c-4.007,8.677,1.115,19.576,1.115,19.576s11.62-3.166,15.629-11.844c4.009-8.676-1.114-19.576-1.114-19.576
			S506.319,33.958,502.312,42.634z"/>
		<path fill="none" stroke="#FFFFFF" stroke-width="3" stroke-linecap="square" stroke-linejoin="round" stroke-miterlimit="10" d="
			M496.79,68.362c3.989,0,5.744-3.072,7.021-6.893l7.103-15.646"/>
	</g>
</g>
<g>
	<g>
		
			<circle fill="none" stroke="#FFFFFF" stroke-width="3" stroke-linecap="round" stroke-linejoin="round" stroke-miterlimit="10" cx="110.844" cy="164.899" r="18.325"/>
		<path fill="none" stroke="#FFFFFF" stroke-width="3" stroke-linecap="round" stroke-linejoin="round" stroke-miterlimit="10" d="
			M110.752,183.225c-5.855,0-10.601-8.205-10.601-18.326s4.744-18.324,10.601-18.324"/>
		<path fill="none" stroke="#FFFFFF" stroke-width="3" stroke-linecap="round" stroke-linejoin="round" stroke-miterlimit="10" d="
			M110.766,183.225c5.855,0,10.603-8.205,10.603-18.326s-4.746-18.324-10.603-18.324"/>
	</g>
	
		<line fill="none" stroke="#FFFFFF" stroke-width="3" stroke-linecap="round" stroke-linejoin="round" stroke-miterlimit="10" x1="111.285" y1="140.077" x2="111.285" y2="131.568"/>
	
		<line fill="none" stroke="#FFFFFF" stroke-width="3" stroke-linecap="round" stroke-linejoin="round" stroke-miterlimit="10" x1="111.285" y1="198.785" x2="111.285" y2="189.426"/>
	
		<line fill="none" stroke="#FFFFFF" stroke-width="3" stroke-linecap="round" stroke-linejoin="round" stroke-miterlimit="10" x1="85.334" y1="166.027" x2="75.975" y2="166.027"/>
	
		<line fill="none" stroke="#FFFFFF" stroke-width="3" stroke-linecap="round" stroke-linejoin="round" stroke-miterlimit="10" x1="143.191" y1="166.027" x2="134.683" y2="166.027"/>
	<g>
		
			<line fill="none" stroke="#FFFFFF" stroke-width="3" stroke-linecap="round" stroke-linejoin="round" stroke-miterlimit="10" x1="92.85" y1="147.822" x2="87.234" y2="142.208"/>
		
			<line fill="none" stroke="#FFFFFF" stroke-width="3" stroke-linecap="round" stroke-linejoin="round" stroke-miterlimit="10" x1="133.166" y1="142.208" x2="127.551" y2="147.822"/>
	</g>
	<g>
		
			<line fill="none" stroke="#FFFFFF" stroke-width="3" stroke-linecap="round" stroke-linejoin="round" stroke-miterlimit="10" x1="92.85" y1="182.524" x2="87.234" y2="188.137"/>
		
			<line fill="none" stroke="#FFFFFF" stroke-width="3" stroke-linecap="round" stroke-linejoin="round" stroke-miterlimit="10" x1="133.166" y1="188.137" x2="127.551" y2="182.524"/>
	</g>
	
		<line fill="none" stroke="#FFFFFF" stroke-width="3" stroke-linecap="round" stroke-linejoin="round" stroke-miterlimit="10" x1="111.285" y1="146.884" x2="111.285" y2="183.47"/>
</g>
</svg>
