<svg xmlns="http://www.w3.org/2000/svg" preserveAspectRatio="xMidYMid slice" viewBox="0 0 1450 871"><g stroke="#33A1DF" stroke-width="3" stroke-miterlimit="10" fill="none"><circle cx="40.641" cy="303.783" r="2.914"/><path stroke-linecap="square" stroke-linejoin="round" d="M49 314.5h-32.584c-4.054 0-5.712-4.001-3.686-7.514l24.551-43.088c2.028-3.512 5.346-3.793 7.375-.282l24.551 43.513c2.026 3.511.368 7.371-3.686 7.371h-4.521"/><path stroke-linecap="square" stroke-linejoin="round" d="M42.5 293.5c0 1.104-.896 2-2 2s-2-.896-2-2v-17c0-1.104.896-2 2-2s2 .896 2 2v17z"/></g><g stroke="#33A1DF" stroke-width="3" stroke-miterlimit="10" fill="none"><circle cx="954.641" cy="260.783" r="2.914"/><path stroke-linecap="square" stroke-linejoin="round" d="M963 271.5h-32.584c-4.054 0-5.712-4.001-3.686-7.514l24.551-43.088c2.028-3.512 5.346-3.793 7.375-.282l24.551 43.513c2.026 3.511.368 7.371-3.686 7.371h-4.521"/><path stroke-linecap="square" stroke-linejoin="round" d="M956.5 250.5c0 1.104-.896 2-2 2s-2-.896-2-2v-17c0-1.104.896-2 2-2s2 .896 2 2v17z"/></g><g stroke="#33A1DF" stroke-width="3" stroke-miterlimit="10" fill="none"><path d="M170.892 325.067v-10.302c0-.682.873-1.196 1.556-1.196h13.077c3.228 0 4.068-1.372 4.068-5.059v-21.492c0-7.518 3.056-10.285 6.774-11.649-3.719-1.357-6.774-4.125-6.774-11.636v-21.496000000000002c0-3.624-.722-4.706-4.068-4.706h-13.696000000000002c-.342 0-.933-.563-.933-1.25v-7.476c0-.683.871-1.243 1.557-1.243h14.796999999999999c7.536 0 12.311 4.884 12.311 12.179v20.212s.249 3.742.428 5.016c.475 3.371 4.602 6.256 7.16 6.221h3.916c.688 0 .962.535.962 1.221v7.477c0 .683-.273 1.273-.962 1.273h-3.578c-3.264-.044-7.386 2.705-7.7 6.805-.092 1.193-.224 4.877-.224 4.877M199.562 292.842v18.166c0 7.458-4.773 12.537-12.311 12.537h-2.121"/></g><g stroke="#33A1DF" stroke-width="3" stroke-linecap="square" stroke-linejoin="round" stroke-miterlimit="10" fill="none"><path d="M451.977 21.936c-6.334 6.547-13.172 6.401-19.35 0l-.012-.049c-6.177-6.4-13.016-6.547-19.351 0M400.178 42.792c-6.334 6.548-13.174 6.401-19.352 0l-.01-.049c-6.178-6.401-13.017-6.548-19.352 0M311.178 40.792c-6.334 6.548-13.174 6.401-19.352 0l-.01-.049c-6.178-6.401-13.017-6.548-19.352 0M399.525 17.414c-6.333 6.547-13.172 6.402-19.35 0l-.01-.049c-6.179-6.4-13.018-6.547-19.352 0M374.148 25.223c-6.334 6.547-13.172 6.402-19.351 0l-.011-.049c-6.177-6.4-13.016-6.547-19.35 0M296.148 23.223c-6.334 6.547-13.172 6.402-19.351 0l-.011-.049c-6.177-6.4-13.016-6.547-19.35 0M330.525 16.414c-6.333 6.547-13.172 6.402-19.35 0l-.01-.049c-6.179-6.4-13.018-6.547-19.352 0M343.148 34.223c-6.334 6.547-13.172 6.402-19.351 0l-.011-.049c-6.177-6.4-13.016-6.547-19.35 0M430.148 33.223c-6.334 6.547-13.172 6.402-19.351 0l-.011-.049c-6.177-6.4-13.016-6.547-19.35 0"/></g><g stroke="#33A1DF" stroke-width="3" stroke-miterlimit="10" fill="none"><path d="M324.504 344.482c0-23.576 19.656-42.758 43.233-42.758l.822-.003 10.938-.173c40.212-.084 73.646-27.295 83.82-64.266"/><path stroke-dasharray="9.668,9.668" d="M438.356 239.508c-9.631 23.104-32.303 39.409-59.038 39.443l-5.446.088c-.058.002-6.279.089-6.337.089-28.87.038-53.879 19.016-62.368 45.069"/><path d="M303.845 328.855c-.391 1.611-.718 3.247-.982 4.902M421.504 213.597c0 23.577-18.788 42.758-42.365 42.758l.045.003-11.851.174c-41.019.086-76.294 28.396-86.112 66.502"/></g><g stroke="#33A1DF" stroke-width="3" stroke-miterlimit="10" fill="none"><path d="M1147.035 344.482c0-23.576-19.656-42.758-43.234-42.758l-.821-.003-10.938-.173c-40.212-.084-73.646-27.295-83.82-64.266"/><path stroke-dasharray="9.668,9.668" d="M1033.182 239.508c9.632 23.104 32.304 39.409 59.039 39.443l5.447.088c.057.002 6.278.089 6.336.089 28.87.038 53.879 19.016 62.368 45.069"/><path d="M1167.694 328.855c.392 1.611.719 3.247.982 4.902M1050.035 213.597c0 23.577 18.788 42.758 42.365 42.758l-.045.003 11.851.174c41.019.086 76.294 28.396 86.112 66.502"/></g><g stroke="#33A1DF" stroke-width="3" stroke-miterlimit="10" fill="none"><path d="M366.254 127.5c16.982 0 30.75-14.296 30.75-31.278s-13.768-30.751-30.75-30.751c-1.315 0-2.608.092-3.88.253-5.182-9.672-15.381-16.253-27.12-16.253-15.953 0-29.066 12.148-30.599 27.698-1.9-.452-3.882-.698-5.921-.698-14.09 0-25.514 11.425-25.514 25.515s11.424 25.515 25.514 25.515h67.52z"/><path stroke-linecap="round" d="M387.857 98.7c0-14.219-11.526-25.786-25.745-25.786-1.102 0-2.184.055-3.248.189-4.339-8.098-12.878-13.617-22.706-13.617"/></g><g stroke="#33A1DF" stroke-width="3" stroke-linecap="square" stroke-linejoin="round" stroke-miterlimit="10" fill="none"><path d="M91.5 267.457c0 2.094 1.859 4.043 3.956 4.043h40.782c2.096 0 3.262-1.949 3.262-4.043v-24.972c0-2.095-1.166-3.985-3.262-3.985h-40.782c-2.097 0-3.956 1.891-3.956 3.985v24.972z"/><circle cx="133.232" cy="286.639" r="5.659"/><circle cx="96.591" cy="286.639" r="5.659"/><path d="M125.451 302.707l22.593 42.821M134.425 302.707l22.593 42.821"/><path d="M147.5 238.978c0-4.13-3.348-7.478-7.479-7.478h-48.042c-4.131 0-7.479 3.348-7.479 7.478v56.045c0 4.13 3.348 7.478 7.479 7.478h48.043c4.131 0 7.479-3.348 7.479-7.478v-56.045zM105.661 302.707l-68.593 114.821M96.688 302.707l-68.593 114.821"/></g><g stroke="#33A1DF" stroke-width="3" stroke-linejoin="round" stroke-miterlimit="10" fill="none"><path stroke-linecap="round" d="M352.113 197.572c2.457 1.045 5.158 1.623 7.997 1.623 11.291 0 19.443-9.152 19.443-20.443 0-10.104-7.331-18.489-16.964-20.143-.455-8.311-7.335-14.91-15.76-14.91-8.718 0-15.785 7.067-15.785 15.785 0 .983.094 1.943.266 2.877-8.437 1.389-14.875 8.713-14.875 17.544 0 9.823 7.962 17.786 17.786 17.786 3.427 0 7.601-1.514 10.315-3.193"/><path stroke-linecap="square" d="M351.5 193v29.518c0 1.724-1.786 2.982-3.51 2.982h-.107c-1.726 0-3.383-1.259-3.383-2.982v-47.518"/><path stroke-linecap="round" d="M361.11 207.986c15.335 2.314 26.312 8.531 26.312 15.84 0 9.281-17.714 16.805-39.565 16.805s-39.565-7.523-39.565-16.805c0-7.368 11.162-13.628 26.693-15.896M303.703 221.512c-4.033 10.836 14.104 22.188 27.438 22.188M369.369 205.445c15.332 2.314 23.031 10.347 23.031 17.654"/></g><path stroke="#33A1DF" stroke-width="3" stroke-miterlimit="10" d="M275.5 156v45.084c0 9.717-6.844 12.032-10.25 12.963l-1.338.441c-8.814 2.508-15.412 10.069-15.412 21.882v48.095l-13.9-2.936 17.322 41.471 17.809-41.471-12.23 2.929v-48.088c0-9.739 5.418-12.239 8.99-13.216l1.484-.488c6.295-1.792 16.525-6.979 16.525-21.434v-66.232" fill="none"/><g stroke="#33A1DF" stroke-width="3" stroke-miterlimit="10" fill="none"><circle cx="316.178" cy="402.403" r="24.236"/><circle cx="202.827" cy="402.403" r="24.236"/><path d="M317.119 402.366l-32.027-61.419s-1.629-4.447-6.061-4.447h-13.031"/><path stroke-linejoin="round" d="M298.056 366.152l-50.797 35.348h-44.092l29.273-28.81 60.208-16.893M247.259 401.453l-25.206-50.98"/><path stroke-linecap="round" stroke-linejoin="round" d="M211 350.5h19"/></g><g stroke="#33A1DF" stroke-width="3" stroke-miterlimit="10" fill="none"><circle cx="569.208" cy="87.963" r="3.331"/><path stroke-linecap="square" stroke-linejoin="round" d="M531.888 99.469l-17.569 3.334 10.975-26.162-.165-.905c-8.267-23.95 4.447-50.065 28.397-58.331 23.947-8.266 50.064 4.447 58.33 28.397 8.267 23.949-5.309 48.735-29.256 57.001-11.443 3.95-24.583 1.936-33.092-3.223M573.338 74.395c-1.18 1.516-3.023 2.485-5.09 2.485-3.564 0-6.451-2.89-6.451-6.452 0-1.494.504-2.867 1.355-3.963l14.478-14.498s2.898-2.896 2.898-7.848c0-6.721-5.407-12.076-12.077-12.076-5.148 0-9.546 3.221-11.283 7.758"/></g><g stroke="#33A1DF" stroke-width="3" stroke-miterlimit="10" fill="none"><path d="M412.737 366.645c0 4.794-7.772 8.681-17.363 8.681s-17.362-3.887-17.362-8.681M415.516 380.998c0 5.561-9.017 10.07-20.142 10.07-11.122 0-20.141-4.51-20.141-10.07M407.182 337.938c0 3.26-5.286 5.903-11.808 5.903-6.52 0-11.808-2.644-11.808-5.903M409.96 352.522c0 4.026-6.53 7.292-14.586 7.292s-14.584-3.266-14.584-7.292M407.486 406.789c-3.469 1.014-7.52 1.596-11.834 1.596-12.748 0-23.152-5.09-23.152-11.367v-.693l13.055-70.842c0-2.646 4.408-4.792 9.701-4.792s9.701 2.146 9.701 4.792l13.693 70.79M417.799 392.406l5.407 5.408c2.95 2.949 3.338 5.987.104 8.491-5.045 3.907-21.988 12.96-21.988 12.96-5.56 3.266-10.575-.104-10.575-.104s-17.275-9.384-22.429-13.398c-3.289-2.563-2.995-5.601-.104-8.492l5.646-5.646"/></g><g stroke="#33A1DF" stroke-width="3" stroke-miterlimit="10" fill="none"><path d="M127.5 146v35.229c0 2.685-2.37 4.271-5.054 4.271h-.281c-2.684 0-4.665-1.586-4.665-4.271v-39.229M117.5 130v18.229c0 2.685-2.37 4.271-5.054 4.271h-.281c-2.684 0-4.665-1.586-4.665-4.271v-33.64c0-6.159 4.121-15.947 13.33-15.947M137.5 145v21.229c0 2.685-2.37 4.271-5.054 4.271h-.281c-2.684 0-4.665-1.586-4.665-4.271v-21.229M147.5 145v14.229c0 2.685-2.37 4.271-5.054 4.271h-.281c-2.684 0-4.665-1.586-4.665-4.271v-14.229M147.5 145v7.229c0 2.685 1.981 4.271 4.665 4.271h.281c2.684 0 5.054-1.586 5.054-4.271v-33.64c0-4.316-2.521-7.68-5.418-9.93M133.29 184.669c2.86 2.86 4.628 6.812 4.628 11.177 0 8.73-7.075 15.807-15.806 15.807-8.729 0-15.807-7.076-15.807-15.807 0-4.647 2.006-8.826 5.199-11.719M129.451 188.209c1.88 1.877 3.041 4.473 3.041 7.339 0 5.732-4.647 10.38-10.38 10.38s-10.379-4.647-10.379-10.38c0-3.052 1.315-5.796 3.414-7.695"/></g><g stroke="#33A1DF" stroke-width="3" stroke-linecap="square" stroke-linejoin="round" stroke-miterlimit="10" fill="none"><path d="M148.433 374.82c-4.007 8.677 1.115 19.577 1.115 19.577s11.62-3.166 15.629-11.844c4.008-8.676-1.114-19.576-1.114-19.576s-11.623 3.167-15.63 11.843zM142.911 400.549c3.989 0 5.744-3.073 7.022-6.893l7.102-15.645"/><path d="M111.433 388.82c-4.007 8.677 1.115 19.577 1.115 19.577s11.62-3.166 15.629-11.844c4.008-8.676-1.114-19.576-1.114-19.576s-11.623 3.167-15.63 11.843zM105.911 414.549c3.989 0 5.744-3.073 7.022-6.893l7.102-15.645"/><path d="M84.433 366.82c-4.007 8.677 1.115 19.577 1.115 19.577s11.62-3.166 15.629-11.844c4.008-8.676-1.114-19.576-1.114-19.576s-11.623 3.167-15.63 11.843zM78.911 392.549c3.989 0 5.744-3.073 7.022-6.893l7.102-15.645"/></g><g stroke="#33A1DF" stroke-width="3" stroke-linecap="square" stroke-linejoin="round" stroke-miterlimit="10" fill="none"><path d="M1307.433 161.82c-4.007 8.677 1.115 19.577 1.115 19.577s11.62-3.166 15.629-11.844c4.008-8.676-1.114-19.576-1.114-19.576s-11.623 3.167-15.63 11.843zM1301.911 187.549c3.989 0 5.744-3.073 7.022-6.893l7.102-15.645"/><path d="M1280.433 139.82c-4.007 8.677 1.115 19.577 1.115 19.577s11.62-3.166 15.629-11.844c4.008-8.676-1.114-19.576-1.114-19.576s-11.623 3.167-15.63 11.843zM1274.911 165.549c3.989 0 5.744-3.073 7.022-6.893l7.102-15.645"/></g><g stroke="#33A1DF" stroke-width="3" stroke-linecap="square" stroke-linejoin="round" stroke-miterlimit="10" fill="none"><path d="M1159.433 516.82c-4.007 8.677 1.115 19.577 1.115 19.577s11.62-3.166 15.629-11.844c4.008-8.676-1.114-19.576-1.114-19.576s-11.623 3.167-15.63 11.843zM1153.911 542.549c3.989 0 5.744-3.073 7.022-6.893l7.102-15.645"/><path d="M1171.433 462.82c-4.007 8.677 1.115 19.577 1.115 19.577s11.62-3.166 15.629-11.844c4.008-8.676-1.114-19.576-1.114-19.576s-11.623 3.167-15.63 11.843zM1165.911 488.549c3.989 0 5.744-3.073 7.022-6.893l7.102-15.645"/><path d="M1132.433 494.82c-4.007 8.677 1.115 19.577 1.115 19.577s11.62-3.166 15.629-11.844c4.008-8.676-1.114-19.576-1.114-19.576s-11.623 3.167-15.63 11.843zM1126.911 520.549c3.989 0 5.744-3.073 7.022-6.893l7.102-15.645"/></g><g stroke="#33A1DF" stroke-width="3" stroke-linecap="square" stroke-linejoin="round" stroke-miterlimit="10" fill="none"><path d="M825.433 364.82c-4.007 8.677 1.115 19.577 1.115 19.577s11.62-3.166 15.629-11.844c4.008-8.676-1.114-19.576-1.114-19.576s-11.623 3.167-15.63 11.843zM819.911 390.549c3.989 0 5.744-3.073 7.022-6.893l7.102-15.645"/><path d="M788.433 378.82c-4.007 8.677 1.115 19.577 1.115 19.577s11.62-3.166 15.629-11.844c4.008-8.676-1.114-19.576-1.114-19.576s-11.623 3.167-15.63 11.843zM782.911 404.549c3.989 0 5.744-3.073 7.022-6.893l7.102-15.645"/><path d="M761.433 356.82c-4.007 8.677 1.115 19.577 1.115 19.577s11.62-3.166 15.629-11.844c4.008-8.676-1.114-19.576-1.114-19.576s-11.623 3.167-15.63 11.843zM755.911 382.549c3.989 0 5.744-3.073 7.022-6.893l7.102-15.645"/></g><g stroke="#33A1DF" stroke-width="3" stroke-linecap="square" stroke-linejoin="round" stroke-miterlimit="10" fill="none"><path d="M702.433 122.82c-4.007 8.677 1.115 19.577 1.115 19.577s11.62-3.166 15.629-11.844c4.008-8.676-1.114-19.576-1.114-19.576s-11.623 3.167-15.63 11.843zM696.911 148.549c3.989 0 5.744-3.073 7.022-6.893l7.102-15.645"/><path d="M665.433 136.82c-4.007 8.677 1.115 19.577 1.115 19.577s11.62-3.166 15.629-11.844c4.008-8.676-1.114-19.576-1.114-19.576s-11.623 3.167-15.63 11.843zM659.911 162.549c3.989 0 5.744-3.073 7.022-6.893l7.102-15.645"/><path d="M638.433 114.82c-4.007 8.677 1.115 19.577 1.115 19.577s11.62-3.166 15.629-11.844c4.008-8.676-1.114-19.576-1.114-19.576s-11.623 3.167-15.63 11.843zM632.911 140.549c3.989 0 5.744-3.073 7.022-6.893l7.102-15.645"/></g><g stroke="#33A1DF" stroke-width="3" stroke-linecap="square" stroke-linejoin="round" stroke-miterlimit="10" fill="none"><path d="M188.187 174.82c4.007 8.677-1.115 19.577-1.115 19.577s-11.62-3.166-15.629-11.844c-4.009-8.676 1.114-19.576 1.114-19.576s11.622 3.167 15.63 11.843zM193.708 200.549c-3.989 0-5.744-3.073-7.022-6.893l-7.102-15.645"/><path d="M225.187 188.82c4.007 8.677-1.115 19.577-1.115 19.577s-11.62-3.166-15.629-11.844c-4.009-8.676 1.114-19.576 1.114-19.576s11.622 3.167 15.63 11.843zM230.708 214.549c-3.989 0-5.744-3.073-7.022-6.893l-7.102-15.645"/><path d="M252.187 166.82c4.007 8.677-1.115 19.577-1.115 19.577s-11.62-3.166-15.629-11.844c-4.009-8.676 1.114-19.576 1.114-19.576s11.622 3.167 15.63 11.843zM257.708 192.549c-3.989 0-5.744-3.073-7.022-6.893l-7.102-15.645"/></g><g stroke="#33A1DF" stroke-width="3" stroke-linecap="square" stroke-linejoin="round" stroke-miterlimit="10" fill="none"><path d="M1261.433 276.82c-4.007 8.677 1.115 19.577 1.115 19.577s11.62-3.166 15.629-11.844c4.008-8.676-1.114-19.576-1.114-19.576s-11.623 3.167-15.63 11.843zM1255.911 302.549c3.989 0 5.744-3.073 7.022-6.893l7.102-15.645"/><path d="M1224.433 290.82c-4.007 8.677 1.115 19.577 1.115 19.577s11.62-3.166 15.629-11.844c4.008-8.676-1.114-19.576-1.114-19.576s-11.623 3.167-15.63 11.843zM1218.911 316.549c3.989 0 5.744-3.073 7.022-6.893l7.102-15.645"/><path d="M1197.433 268.82c-4.007 8.677 1.115 19.577 1.115 19.577s11.62-3.166 15.629-11.844c4.008-8.676-1.114-19.576-1.114-19.576s-11.623 3.167-15.63 11.843zM1191.911 294.549c3.989 0 5.744-3.073 7.022-6.893l7.102-15.645"/></g><path stroke="#33A1DF" stroke-width="3" stroke-miterlimit="10" fill="none" d="M614 433.5h28M577 368.5h28"/><g stroke="#33A1DF" stroke-width="3" stroke-miterlimit="10" fill="none"><path stroke-linecap="square" stroke-linejoin="round" d="M496 433.5h34.5v-47h35v-29h48v19h38v90.5"/><path d="M614 386.5h28M614 405.5h28M614 423.5h28M614 414.5h28M614 396.5h28M539 405.5h27M539 423.5h27M539 414.5h27M539 396.5h27M577 386.5h28M577 377.5h28M577 406.5h28M577 423.5h28M577 414.5h28M577 396.5h28M635.5 369v-9.5h36v64.5M551.5 369v-9.5h-35v65.5M588.5 342v-10.5h36v45.5"/></g><g stroke="#33A1DF" stroke-width="3" stroke-miterlimit="10" fill="none"><path d="M529.872 298.588l-10.157 16.271c-2.22 3.813-4.016 7.661-4.016 12.245 0 11.413 9.252 20.664 20.665 20.664s20.665-9.251 20.665-20.664c0-4.647-1.535-8.937-4.125-12.389l-16.54-28.014"/><path stroke-linecap="round" d="M550.999 326.58c0 8.76-6.095 15.849-13.626 15.849"/><path d="M523.5 287v-11.51c0-19.081 15.969-34.604 35.247-34.604 19.151 0 34.753 15.622 34.753 34.825v57.289M574.5 333v-57.264c0-8.075-7.262-14.788-15.387-14.788-8.25 0-15.613 6.489-15.613 14.542v11.51M522 287.5h9"/></g><g stroke="#33A1DF" stroke-width="3" stroke-linejoin="round" stroke-miterlimit="10" fill="none"><path stroke-linecap="square" d="M32.958 21.746l-18.788 14.616 18.788 16.136M61.473 52.498l18.788-14.616-18.788-16.136"/><path stroke-linecap="round" d="M40.369 65.541l14.763-56.275"/></g><g stroke="#33A1DF" stroke-width="3" stroke-miterlimit="10" fill="none"><path stroke-linecap="square" stroke-linejoin="round" d="M63 88.5h36.5v-61h31v-15h86v15h34v109.5"/><path stroke-linecap="round" d="M108.5 37.5h12v12h-12zM227.5 43.5h12v12h-12zM227.5 64.5h12v12h-12zM227.5 85.5h12v12h-12zM227.5 106.5h12v12h-12zM138.5 21.5h12v12h-12zM157.5 29.5h12v12h-12zM157.5 49.5h12v12h-12zM177.5 43.5h12v12h-12zM177.5 64.5h12v12h-12zM177.5 85.5h12v12h-12zM183.5 106.5h12v12h-12zM196.5 21.5h12v12h-12z"/><path stroke-linecap="square" stroke-linejoin="round" d="M216.5 28v132M130.5 28v45"/></g><g stroke="#33A1DF" stroke-width="3" stroke-miterlimit="10" fill="none"><path d="M507.5 174v-25.859c0-2.013 2.029-3.496 4.042-3.496 4.139 0 3.958 3.375 3.958 3.375v28.98M500.5 175v-31.359c0-2.013 1.529-3.496 3.542-3.496 3.708 0 3.458 3.375 3.458 3.375v31.48M492.5 175v-26.859c0-2.013 2.029-3.496 4.042-3.496 3.433 0 3.958 3.375 3.958 3.375v26.98M473.5 421v-104.203c0-4.466 5.144-6.297 8.595-6.297h2.825c4.084 0 14.354-2.848 19.471-9.648 4.777-6.352 6.109-14.155 6.109-23.872v-67.093c10 0 12.4-7.12 12.4-11.739l-.148-25.204c0-2.013-1.482-3.443-3.495-3.443h-.211c-2.013 0-3.546 1.378-3.546 3.391v13.108M492.5 175v-17.98s-.723-3.375-3.58-3.375c-2.014 0-3.729 1.483-3.729 3.496l.177 37.98c0 3.237 3.133 7.363 5.133 7.363v74.495c0 12.021-4.829 13.521-9.58 13.521h-4.825c-12.036 0-22.595 5.78-22.595 26.297v104.203"/><path stroke-linecap="square" d="M507 140.5h31.5v38h-13.5"/></g><g stroke="#33A1DF" stroke-width="3" stroke-linejoin="round" stroke-miterlimit="10" fill="none"><path stroke-linecap="round" d="M552.52 182.637s5.18-10.315 18.449-10.315c13.271 0 18.786 7.394 18.786 7.394s2.856-8.028 10.624-7.704c7.769.323 7.889 5 10.293 6.822 1.51 1.145 5.287.882 5.287.882s-5.503-17.751-4.207-31.021c1.294-13.271-9.273-15.535-9.273-15.535M552.52 216.584c.971.322 33.015 12.188 53.729 2.146 20.716-10.043 39.164-25.838 39.164-25.838s2.59-17.658-9.711-36.432c-12.299-18.772-22.008-30.747-22.008-30.747s-13.593-10.708-26.217-10.708l-9.387 13.942s2.277 7.445 11.016 7.445c0 0 9.311 1.207 10.178-7.454"/><path stroke-linecap="square" d="M583.507 192.278l-9.133 7.107 9.133 7.844M597.371 207.229l9.135-7.106-9.135-7.845"/><path stroke-linecap="round" d="M587.112 213.571l7.176-27.36"/></g><g stroke="#33A1DF" stroke-width="3" stroke-linecap="round" stroke-linejoin="round" stroke-miterlimit="10" fill="none"><circle cx="674.981" cy="46.173" r="21.537"/><path d="M674.874 67.711c-6.882 0-12.458-9.643-12.458-21.538s5.576-21.537 12.458-21.537M674.891 67.711c6.88 0 12.459-9.643 12.459-21.538s-5.579-21.537-12.459-21.537M675.5 17v-10M675.5 86v-11M645 47.5h-11M713 47.5h-10M653.834 26.104l-6.6-6.599M701.217 19.505l-6.6 6.599M653.834 66.889l-6.6 6.596M701.217 73.485l-6.6-6.596M675.5 25v43"/></g><path stroke="#33A1DF" stroke-width="3" stroke-miterlimit="10" d="M198.5 835v-42.084c0-9.717 6.896-12.032 10.303-12.963l1.312-.441c8.814-2.508 15.386-10.069 15.386-21.882v-48.095l13.953 2.936-17.299-41.471-17.849 41.471 12.193-2.929v48.088c0 9.739-5.365 12.239-8.938 13.216l-1.511.488c-6.295 1.792-16.552 6.979-16.552 21.434v66.232" fill="none"/><g stroke="#33A1DF" stroke-width="3" stroke-miterlimit="10" fill="none"><path stroke-linecap="square" stroke-linejoin="round" d="M1329.717 630.469l17.568 3.334-10.973-26.162.165-.905c8.267-23.95-4.447-50.065-28.397-58.331-23.947-8.266-50.064 4.447-58.33 28.397-8.268 23.949 5.309 48.735 29.256 57.001 11.443 3.95 24.583 1.936 33.092-3.223"/><circle cx="1293.208" cy="618.963" r="3.331"/><path stroke-linecap="square" stroke-linejoin="round" d="M1297.338 605.395c-1.18 1.516-3.023 2.485-5.09 2.485-3.564 0-6.451-2.89-6.451-6.452 0-1.494.504-2.867 1.355-3.963l14.478-14.498s2.898-2.896 2.898-7.848c0-6.721-5.407-12.076-12.077-12.076-5.148 0-9.546 3.221-11.283 7.758"/></g><g stroke="#33A1DF" stroke-width="3" stroke-linecap="square" stroke-linejoin="round" stroke-miterlimit="10" fill="none"><path d="M73.823 769.484c6.68 1.914 9.805 7.759 9.805 21.248l-.069 70.987c0-38.245-31.059-8.035-69.059-8.035v-77.987c5 0 9.395-.362 13.883-.922"/><path d="M83.326 861.72c0-38.245 31.174-8.035 69.174-8.035v-77.987c-38 0-69.186-23.21-69.186 15.035l.012 70.987zM83.327 863.795c0-25.795 31.177-4.545 69.177-4.545M83.505 863.795c0-25.795-31.177-4.545-69.177-4.545M83.504 863.795M27 797.5h43M27 803.5h43M27 809.5h43M27 815.5h43M27 821.5h43M27 827.5h43"/><path d="M96.5 800.5h18v17h-18zM105.5 822.5h23v12h-23zM119.5 789.5h18v28h-18z"/></g><path stroke="#33A1DF" stroke-width="3" stroke-linecap="square" stroke-linejoin="round" stroke-miterlimit="10" fill="none" d="M607.5 501v36"/><path stroke="#33A1DF" stroke-width="3" stroke-linecap="square" stroke-linejoin="round" stroke-miterlimit="10" d="M615.002 500.5c1.65 0 1.953-.852.673-1.893l-38.346-31.193c-1.28-1.041-3.374-1.041-4.654 0l-38.346 31.193c-1.28 1.041-.978 1.893.673 1.893h80zM542.5 501v36M553.5 501v36M569.5 501v36M580.5 501v36M596.5 501v36M618 539.5h-86M618 545.5h-86M618 551.5h-86" fill="none"/><path stroke="#33A1DF" stroke-width="3" stroke-linecap="square" stroke-linejoin="round" stroke-miterlimit="10" fill="none" d="M555.5 438.5h20v12h-20zM575.5 466v-27"/><g stroke="#33A1DF" stroke-width="3" stroke-miterlimit="10" fill="none"><path d="M144 705.5h-35.03c-2.685 0-4.47-2.176-4.47-4.859v-.281c0-2.684 1.785-4.859 4.47-4.859h39.03M160 695.5h-18.03c-2.685 0-4.47-2.176-4.47-4.859v-.281c0-2.684 1.785-4.859 4.47-4.859h33.64c6.159 0 15.848 4.121 15.848 13.33M145 715.5h-21.03c-2.685 0-4.47-2.176-4.47-4.859v-.281c0-2.684 1.785-4.859 4.47-4.859h21.03M145 725.5h-14.03c-2.685 0-4.47-2.176-4.47-4.859v-.281c0-2.684 1.785-4.859 4.47-4.859h14.03M145 725.5h-7.03c-2.685 0-4.47 2.176-4.47 4.859v.281c0 2.684 1.785 4.859 4.47 4.859h33.64c4.316 0 7.58-2.521 9.83-5.418M105.53 711.484c-2.86 2.86-6.812 4.629-11.177 4.629-8.73 0-15.807-7.076-15.807-15.807 0-8.729 7.076-15.807 15.807-15.807 4.647 0 8.826 2.006 11.719 5.199M101.99 707.646c-1.877 1.879-4.473 3.04-7.34 3.04-5.732 0-10.379-4.647-10.379-10.38s4.646-10.379 10.379-10.379c3.053 0 5.797 1.316 7.696 3.414"/></g><g stroke="#33A1DF" stroke-width="3" stroke-linejoin="round" stroke-miterlimit="10" fill="none"><path stroke-linecap="square" d="M1287.959 486.746l-18.789 14.616 18.789 16.136M1316.473 517.498l18.788-14.616-18.788-16.136"/><path stroke-linecap="round" d="M1295.369 530.541l14.763-56.275"/></g><g stroke="#33A1DF" stroke-width="3" stroke-miterlimit="10" fill="none"><path stroke-linecap="square" stroke-linejoin="round" d="M289 522.5h-28.5v-61h-31v-15h-84v15h-34v109.5"/><path stroke-linecap="round" d="M123.5 477.5h12v36h-12zM239.5 473.5h12v36h-12zM158.5 460.5h12v36h-12zM181.5 460.5h12v36h-12zM204.5 460.5h12v36h-12z"/><path stroke-linecap="square" stroke-linejoin="round" d="M145.5 462v66M229.5 462v45"/></g><g stroke="#33A1DF" stroke-width="3" stroke-miterlimit="10" fill="none"><path stroke-linecap="square" stroke-linejoin="round" d="M729 90.5h28.5v-61h31v-15h84v15h34v109.5"/><path stroke-linecap="round" d="M882.5 45.5h12v36h-12zM766.5 41.5h12v36h-12zM847.5 28.5h12v36h-12zM824.5 28.5h12v36h-12zM801.5 28.5h12v36h-12z"/><path stroke-linecap="square" stroke-linejoin="round" d="M872.5 30v66M788.5 30v45"/></g><g stroke="#33A1DF" stroke-width="3" stroke-miterlimit="10" fill="none"><path d="M510.5 607v-25.859c0-2.013-2.029-3.496-4.042-3.496-4.14 0-3.958 3.375-3.958 3.375v28.98M517.5 608v-31.359c0-2.013-1.529-3.496-3.542-3.496-3.708 0-3.458 3.375-3.458 3.375v31.48M525.5 608v-26.859c0-2.013-2.029-3.496-4.042-3.496-3.433 0-3.958 3.375-3.958 3.375v26.98M544.5 854v-104.203c0-4.466-5.138-6.297-8.589-6.297h-2.825c-4.084 0-14.355-2.848-19.473-9.648-4.777-6.352-6.113-14.155-6.113-23.872v-67.093c-10 0-12.396-7.12-12.396-11.739l.148-25.204c0-2.013 1.484-3.443 3.497-3.443h.211c2.013 0 3.54 1.378 3.54 3.391v13.108M525.5 608v-17.98s.727-3.375 3.584-3.375c2.014 0 3.729 1.483 3.729 3.496l-.181 37.98c0 3.237-3.133 7.363-5.133 7.363v74.495c0 12.021 4.836 13.521 9.586 13.521h4.825c12.036 0 22.589 5.78 22.589 26.297v104.203"/><path stroke-linecap="square" d="M511 573.5h-31.5v38h13.5"/></g><g stroke="#33A1DF" stroke-width="3" stroke-linejoin="round" stroke-miterlimit="10" fill="none"><path stroke-linecap="round" d="M653.639 666.584c-.971.322-33.015 12.188-53.729 2.146-20.716-10.043-39.164-25.838-39.164-25.838s-2.591-17.658 9.711-36.432c12.298-18.772 22.008-30.747 22.008-30.747s13.593-10.708 26.217-10.708l9.387 13.942s-2.277 7.445-11.016 7.445c0 0-9.311 1.207-10.178-7.454M653.639 632.637s-5.181-10.315-18.449-10.315c-13.271 0-18.787 7.394-18.787 7.394s-2.855-8.028-10.623-7.704c-7.769.323-7.889 5-10.293 6.822-1.51 1.145-5.287.882-5.287.882s5.502-17.751 4.207-31.021c-1.294-13.271 9.273-15.535 9.273-15.535"/><path stroke-linecap="square" d="M622.65 642.278l9.133 7.107-9.133 7.844M608.787 657.229l-9.135-7.106 9.135-7.845"/><path stroke-linecap="round" d="M619.046 663.571l-7.176-27.36"/></g><g stroke="#33A1DF" stroke-width="3" stroke-linejoin="round" stroke-miterlimit="10" fill="none"><path stroke-linecap="round" d="M1132.113 197.572c2.457 1.045 5.158 1.623 7.997 1.623 11.291 0 19.442-9.152 19.442-20.443 0-10.104-7.33-18.489-16.963-20.143-.455-8.311-7.335-14.91-15.76-14.91-8.718 0-15.785 7.067-15.785 15.785 0 .983.094 1.943.266 2.877-8.437 1.389-14.875 8.713-14.875 17.544 0 9.823 7.962 17.786 17.786 17.786 3.427 0 7.601-1.514 10.315-3.193"/><path stroke-linecap="square" d="M1131.5 193v29.518c0 1.724-1.786 2.982-3.51 2.982h-.107c-1.726 0-3.383-1.259-3.383-2.982v-47.518"/><path stroke-linecap="round" d="M1141.11 207.986c15.335 2.314 26.312 8.531 26.312 15.84 0 9.281-17.714 16.805-39.565 16.805s-39.564-7.523-39.564-16.805c0-7.368 11.161-13.628 26.692-15.896M1083.703 221.512c-4.033 10.836 14.104 22.188 27.438 22.188M1149.369 205.445c15.332 2.314 23.031 10.347 23.031 17.654"/></g><g stroke="#33A1DF" stroke-width="3" stroke-miterlimit="10" fill="none"><path d="M767.229 328.067v-10.302c0-.682-.873-1.196-1.557-1.196h-13.075999999999999c-3.229 0-4.068-1.372-4.068-5.059v-21.492c0-7.518-3.056-10.285-6.775-11.649 3.72-1.357 6.775-4.125 6.775-11.636v-21.496000000000002c0-3.624.722-4.706 4.068-4.706h13.696000000000002c.342 0 .933-.563.933-1.25v-7.476c0-.683-.872-1.243-1.558-1.243h-14.796c-7.537 0-12.311 4.884-12.311 12.179v20.212s-.249 3.742-.428 5.016c-.475 3.371-4.602 6.256-7.16 6.221h-3.916c-.689 0-.962.535-.962 1.221v7.477c0 .683.272 1.273.962 1.273h3.578c3.264-.044 7.386 2.705 7.699 6.805.093 1.193.225 4.877.225 4.877M738.559 295.842v18.166c0 7.458 4.773 12.537 12.311 12.537h2.121"/></g><g stroke="#33A1DF" stroke-width="3" stroke-linecap="square" stroke-linejoin="round" stroke-miterlimit="10" fill="none"><path d="M849.5 270.457c0 2.094-1.578 4.043-3.675 4.043h-40.782c-2.096 0-3.543-1.949-3.543-4.043v-24.972c0-2.095 1.447-3.985 3.543-3.985h40.782c2.097 0 3.675 1.891 3.675 3.985v24.972z"/><circle cx="809.049" cy="289.639" r="5.659"/><circle cx="845.69" cy="289.639" r="5.659"/><path d="M816.83 305.707l-12.593 20.821M807.856 305.707l-12.592 20.821"/><path d="M857.5 298.022c0 4.13-3.348 7.478-7.479 7.478h-48.043c-4.131 0-7.479-3.348-7.479-7.478v-56.045c0-4.13 3.348-7.478 7.479-7.478h48.043c4.131 0 7.479 3.348 7.479 7.478v56.045zM836.619 305.707l12.594 20.821M845.594 305.707l12.592 20.821"/></g><path stroke="#33A1DF" stroke-width="3" stroke-miterlimit="10" d="M920.5 138v66.084c0 9.717-6.844 12.032-10.25 12.963l-1.338.441c-8.814 2.508-15.412 10.069-15.412 21.882v113.095l-13.9-2.936 17.322 41.471 17.809-41.471-12.23 2.929v-113.088c0-9.739 5.418-12.239 8.99-13.216l1.484-.488c6.295-1.792 16.525-6.979 16.525-21.434v-44.232" fill="none"/><g stroke="#33A1DF" stroke-width="3" stroke-miterlimit="10" fill="none"><circle cx="1159.828" cy="402.403" r="24.236"/><circle cx="1273.179" cy="402.403" r="24.236"/><path d="M1158.885 402.366l32.027-61.419s1.631-4.447 6.062-4.447h13.026"/><path stroke-linejoin="round" d="M1177.95 366.152l50.797 35.348h44.092l-29.274-28.81-60.208-16.893M1228.747 401.453l25.206-50.98"/><path stroke-linecap="round" stroke-linejoin="round" d="M1265 350.5h-19"/></g><g stroke="#33A1DF" stroke-width="3" stroke-miterlimit="10" fill="none"><circle cx="1294.208" cy="87.963" r="3.331"/><path stroke-linecap="square" stroke-linejoin="round" d="M1256.888 99.469l-17.569 3.334 10.975-26.162-.165-.905c-8.267-23.95 4.447-50.065 28.397-58.331 23.947-8.266 50.064 4.447 58.33 28.397 8.267 23.949-5.309 48.735-29.256 57.001-11.443 3.95-24.583 1.936-33.092-3.223M1298.338 74.395c-1.18 1.516-3.023 2.485-5.09 2.485-3.564 0-6.451-2.89-6.451-6.452 0-1.494.504-2.867 1.355-3.963l14.478-14.498s2.898-2.896 2.898-7.848c0-6.721-5.407-12.076-12.077-12.076-5.148 0-9.546 3.221-11.283 7.758"/></g><g stroke="#33A1DF" stroke-width="3" stroke-linecap="round" stroke-miterlimit="10" fill="none"><path d="M1029.586 228.812s-21.175-43.242-21.175-54.938 9.48-21.176 21.175-21.176 21.176 9.48 21.176 21.176c0 7.482-8.668 27.877-14.912 41.6"/><circle cx="1029.555" cy="176.103" r="8.557"/></g><g stroke="#33A1DF" stroke-width="3" stroke-miterlimit="10" fill="none"><path d="M1103.737 366.645c0 4.794-7.772 8.681-17.363 8.681s-17.362-3.887-17.362-8.681M1106.516 380.998c0 5.561-9.017 10.07-20.142 10.07-11.122 0-20.141-4.51-20.141-10.07M1098.182 337.938c0 3.26-5.286 5.903-11.808 5.903-6.52 0-11.808-2.644-11.808-5.903M1100.96 352.522c0 4.026-6.53 7.292-14.586 7.292s-14.584-3.266-14.584-7.292M1098.486 406.789c-3.469 1.014-7.52 1.596-11.834 1.596-12.748 0-23.152-5.09-23.152-11.367v-.693l13.055-70.842c0-2.646 4.408-4.792 9.701-4.792s9.701 2.146 9.701 4.792l13.693 70.79M1108.799 392.406l5.407 5.408c2.95 2.949 3.338 5.987.104 8.491-5.045 3.907-21.988 12.96-21.988 12.96-5.56 3.266-10.575-.104-10.575-.104s-17.275-9.384-22.429-13.398c-3.289-2.563-2.995-5.601-.104-8.492l5.646-5.646"/></g><path stroke="#33A1DF" stroke-width="3" stroke-linecap="square" stroke-linejoin="round" stroke-miterlimit="10" fill="none" d="M1148.5 69v36"/><path stroke="#33A1DF" stroke-width="3" stroke-linecap="square" stroke-linejoin="round" stroke-miterlimit="10" d="M1141.004 68.5c-1.65 0-1.953-.852-.673-1.893l38.346-31.193c1.28-1.041 3.374-1.041 4.654 0l38.346 31.193c1.28 1.041.978 1.893-.673 1.893h-80zM1213.5 69v36M1202.5 69v36M1186.5 69v36M1175.5 69v36M1159.5 69v36M1138 107.5h86M1138 113.5h86M1138 119.5h86" fill="none"/><path stroke="#33A1DF" stroke-width="3" stroke-linecap="square" stroke-linejoin="round" stroke-miterlimit="10" fill="none" d="M1180.5 6.5h20v12h-20zM1180.5 34v-27"/><g stroke="#33A1DF" stroke-width="3" stroke-miterlimit="10" fill="none"><path d="M855.5 172v-34.838c0-2.685 2.375-4.662 5.059-4.662h.281c2.684 0 4.66 1.978 4.66 4.662v38.838M865.5 188v-17.838c0-2.685 2.375-4.662 5.059-4.662h.281c2.684 0 4.66 1.978 4.66 4.662v33.64c0 6.159-4.121 15.751-13.33 15.751M845.5 173v-20.838c0-2.685 2.375-4.662 5.059-4.662h.281c2.684 0 4.66 1.978 4.66 4.662v20.838M835.5 173v-13.838c0-2.685 2.375-4.662 5.059-4.662h.281c2.684 0 4.66 1.978 4.66 4.662v13.838M835.5 173v-6.838c0-2.685-1.977-4.662-4.66-4.662h-.281c-2.684 0-5.059 1.978-5.059 4.662v33.64c0 4.316 2.521 7.483 5.418 9.733M849.715 133.723c-2.86-2.86-4.629-6.812-4.629-11.177 0-8.73 7.076-15.807 15.807-15.807 8.729 0 15.807 7.076 15.807 15.807 0 4.647-2.006 8.826-5.199 11.719M853.553 130.183c-1.879-1.877-3.04-4.473-3.04-7.339 0-5.732 4.647-10.38 10.38-10.38s10.379 4.647 10.379 10.38c0 3.052-1.316 5.796-3.414 7.695"/></g><g stroke="#33A1DF" stroke-width="3" stroke-linecap="square" stroke-linejoin="round" stroke-miterlimit="10" fill="none"><path d="M943.186 28.82c4.008 8.677-1.114 19.577-1.114 19.577s-11.62-3.166-15.629-11.844c-4.009-8.676 1.114-19.576 1.114-19.576s11.622 3.167 15.629 11.843zM948.709 54.549c-3.99 0-5.745-3.073-7.023-6.893l-7.102-15.645"/><path d="M980.186 42.82c4.008 8.677-1.114 19.577-1.114 19.577s-11.62-3.166-15.629-11.844c-4.009-8.676 1.114-19.576 1.114-19.576s11.622 3.167 15.629 11.843zM985.709 68.549c-3.99 0-5.745-3.073-7.023-6.893l-7.102-15.645"/><path d="M1007.186 20.82c4.008 8.677-1.114 19.577-1.114 19.577s-11.62-3.166-15.629-11.844c-4.009-8.676 1.114-19.576 1.114-19.576s11.622 3.167 15.629 11.843zM1012.709 46.549c-3.99 0-5.745-3.073-7.023-6.893l-7.102-15.645"/></g><g stroke="#33A1DF" stroke-width="3" stroke-miterlimit="10" fill="none"><path d="M1414.207 245.937l-7.893 12.642c-1.724 2.963-3.119 5.952-3.119 9.514 0 8.867 7.188 16.055 16.057 16.055 8.866 0 16.055-7.188 16.055-16.055 0-3.611-1.192-6.943-3.205-9.625l-12.85-21.766"/><path stroke-linecap="round" d="M1429.621 265.686c0 6.805-4.736 12.312-10.587 12.312"/></g><g stroke="#33A1DF" stroke-width="3" stroke-miterlimit="10" fill="none"><path d="M1421.295 329.937l7.891 12.642c1.726 2.963 3.121 5.952 3.121 9.514 0 8.867-7.188 16.055-16.055 16.055-8.868 0-16.057-7.188-16.057-16.055 0-3.611 1.192-6.943 3.205-9.625l12.852-21.766"/><path stroke-linecap="round" d="M1405.881 349.686c0 6.805 4.734 12.312 10.587 12.312"/></g><g stroke="#33A1DF" stroke-width="3" stroke-miterlimit="10" fill="none"><path d="M1408.133 168.588l10.158 16.271c2.22 3.813 4.016 7.661 4.016 12.245 0 11.413-9.252 20.664-20.665 20.664s-20.665-9.251-20.665-20.664c0-4.647 1.535-8.937 4.125-12.389l16.54-28.014"/><path stroke-linecap="round" d="M1387.007 196.58c0 8.76 6.095 15.849 13.626 15.849"/><path d="M1414.5 157v-11.51c0-19.081-15.969-34.604-35.248-34.604-19.151 0-34.752 15.622-34.752 34.825v97.289M1363.5 255v-109.264c0-8.075 7.262-14.788 15.387-14.788 8.25 0 15.613 6.489 15.613 14.542v11.51M1416 157.5h-9"/></g><g stroke="#33A1DF" stroke-width="3" stroke-linejoin="round" stroke-miterlimit="10" fill="none"><path stroke-linecap="round" d="M1285.639 238.584c-.971.322-33.015 12.188-53.729 2.146-20.716-10.043-39.164-25.838-39.164-25.838s-2.591-17.658 9.711-36.432c12.298-18.772 22.008-30.747 22.008-30.747s13.593-10.708 26.217-10.708l9.387 13.942s-2.277 7.445-11.016 7.445c0 0-9.311 1.207-10.178-7.454M1285.639 204.637s-5.18-10.315-18.449-10.315c-13.271 0-18.787 7.394-18.787 7.394s-2.855-8.028-10.623-7.704c-7.769.323-7.889 5-10.293 6.822-1.51 1.145-5.287.882-5.287.882s5.502-17.751 4.207-31.021c-1.294-13.271 9.273-15.535 9.273-15.535"/><path stroke-linecap="square" d="M1254.65 214.278l9.133 7.107-9.133 7.844M1240.787 229.229l-9.135-7.106 9.135-7.845"/><path stroke-linecap="round" d="M1251.046 235.571l-7.177-27.36"/></g><g stroke="#33A1DF" stroke-width="3" stroke-linecap="round" stroke-linejoin="round" stroke-miterlimit="10" fill="none"><circle cx="1399.981" cy="46.173" r="21.537"/><path d="M1399.875 67.711c-6.883 0-12.459-9.643-12.459-21.538s5.576-21.537 12.459-21.537M1399.891 67.711c6.879 0 12.459-9.643 12.459-21.538s-5.58-21.537-12.459-21.537M1400.5 17v-10M1400.5 86v-11M1370 47.5h-11M1438 47.5h-10M1378.834 26.104l-6.6-6.599M1426.217 19.505l-6.6 6.599M1378.834 66.889l-6.6 6.596M1426.217 73.485l-6.6-6.596M1400.5 25v43"/></g><g stroke="#33A1DF" stroke-width="3" stroke-miterlimit="10" fill="none"><path d="M843.229 750.067v-10.302c0-.682-.873-1.196-1.557-1.196h-13.075999999999999c-3.229 0-4.068-1.372-4.068-5.059v-21.492c0-7.518-3.056-10.285-6.775-11.649 3.72-1.357 6.775-4.125 6.775-11.636v-21.496000000000002c0-3.624.722-4.706 4.068-4.706h13.696000000000002c.342 0 .933-.563.933-1.25v-7.476c0-.683-.872-1.243-1.558-1.243h-14.796c-7.537 0-12.311 4.884-12.311 12.179v20.212s-.249 3.742-.428 5.016c-.475 3.371-4.602 6.256-7.16 6.221h-3.916c-.689 0-.962.535-.962 1.221v7.477c0 .683.272 1.273.962 1.273h3.578c3.264-.044 7.386 2.705 7.699 6.805.093 1.193.225 4.877.225 4.877M814.559 717.842v18.166c0 7.458 4.773 12.537 12.311 12.537h2.121"/></g><g stroke="#33A1DF" stroke-width="3" stroke-linecap="square" stroke-linejoin="round" stroke-miterlimit="10" fill="none"><path d="M1143.977 443.936c-6.334 6.547-13.172 6.401-19.35 0l-.012-.049c-6.177-6.4-13.016-6.547-19.351 0M1092.178 464.792c-6.334 6.548-13.174 6.401-19.352 0l-.01-.049c-6.178-6.401-13.017-6.548-19.352 0M1003.178 462.792c-6.334 6.548-13.174 6.401-19.352 0l-.01-.049c-6.178-6.401-13.017-6.548-19.352 0M1091.525 439.414c-6.333 6.547-13.172 6.402-19.35 0l-.01-.049c-6.179-6.4-13.018-6.547-19.352 0M1066.148 447.223c-6.334 6.547-13.172 6.402-19.351 0l-.011-.049c-6.177-6.4-13.016-6.547-19.35 0M988.148 445.223c-6.334 6.547-13.172 6.402-19.351 0l-.011-.049c-6.177-6.4-13.016-6.547-19.35 0M1022.525 438.414c-6.333 6.547-13.172 6.402-19.35 0l-.01-.049c-6.179-6.4-13.018-6.547-19.352 0M1035.148 456.223c-6.334 6.547-13.172 6.402-19.351 0l-.011-.049c-6.177-6.4-13.016-6.547-19.35 0M1122.148 455.223c-6.334 6.547-13.172 6.402-19.351 0l-.011-.049c-6.177-6.4-13.016-6.547-19.35 0"/></g><g stroke="#33A1DF" stroke-width="3" stroke-miterlimit="10" fill="none"><path d="M1074.254 560.5c16.982 0 30.75-14.296 30.75-31.278s-13.768-30.751-30.75-30.751c-1.315 0-2.608.092-3.88.253-5.182-9.672-15.381-16.253-27.12-16.253-15.953 0-29.066 12.148-30.599 27.698-1.9-.452-3.882-.698-5.921-.698-14.09 0-25.514 11.425-25.514 25.515s11.424 25.515 25.514 25.515h67.52z"/><path stroke-linecap="round" d="M1095.857 531.7c0-14.219-11.526-25.786-25.745-25.786-1.102 0-2.184.055-3.248.189-4.339-8.098-12.878-13.617-22.706-13.617"/></g><g stroke="#33A1DF" stroke-width="3" stroke-linecap="square" stroke-linejoin="round" stroke-miterlimit="10" fill="none"><path d="M926.5 692.457c0 2.094-1.578 4.043-3.675 4.043h-40.782c-2.096 0-3.543-1.949-3.543-4.043v-24.972c0-2.095 1.447-3.985 3.543-3.985h40.782c2.097 0 3.675 1.891 3.675 3.985v24.972z"/><circle cx="885.049" cy="711.639" r="5.659"/><circle cx="921.69" cy="711.639" r="5.659"/><path d="M892.83 727.707l-12.593 20.821M883.856 727.707l-12.592 20.821"/><path d="M933.5 720.022c0 4.13-3.348 7.478-7.479 7.478h-48.043c-4.131 0-7.479-3.348-7.479-7.478v-56.045c0-4.13 3.348-7.478 7.479-7.478h48.043c4.131 0 7.479 3.348 7.479 7.478v56.045zM912.619 727.707l12.594 20.821M921.594 727.707l12.592 20.821"/></g><path stroke="#33A1DF" stroke-width="3" stroke-miterlimit="10" d="M1006.5 592v42.084c0 9.717-6.844 12.032-10.25 12.963l-1.338.441c-8.814 2.508-15.412 10.069-15.412 21.882v48.095l-13.9-2.936 17.322 41.471 17.809-41.471-12.23 2.929v-48.088c0-9.739 5.418-12.239 8.99-13.216l1.484-.488c6.295-1.792 16.525-6.979 16.525-21.434v-66.232" fill="none"/><g stroke="#33A1DF" stroke-width="3" stroke-linecap="square" stroke-linejoin="round" stroke-miterlimit="10" fill="none"><path d="M808.357 861.72c0-38.245 31.143-8.035 69.143-8.035v-77.987c-38 0-69.168-23.21-69.168 15.035l.025 70.987zM808.59 861.72c0-38.245-31.09-8.035-69.09-8.035v-77.987c38 0 69.143-23.21 69.143 15.035l-.053 70.987zM808.505 863.795c0-25.795-31.177-4.545-69.177-4.545M808.327 863.795c0-25.795 31.177-4.545 69.177-4.545M808.328 863.795M865 797.5h-43M865 803.5h-43M865 809.5h-43M865 815.5h-43M865 821.5h-43M865 827.5h-43"/><path d="M777.5 800.5h18v17h-18zM763.5 822.5h23v12h-23zM754.5 789.5h18v28h-18z"/></g><g stroke="#33A1DF" stroke-width="3" stroke-miterlimit="10" fill="none"><path d="M909 595.5h35.035c2.686 0 4.465 2.568 4.465 5.252v.281c0 2.684-1.779 4.467-4.465 4.467h-39.035M893 605.5h18.035c2.686 0 4.465 2.568 4.465 5.252v.281c0 2.684-1.779 4.467-4.465 4.467h-33.639c-6.159 0-15.85-4.121-15.85-13.33M908 585.5h21.035c2.686 0 4.465 2.568 4.465 5.252v.281c0 2.684-1.779 4.467-4.465 4.467h-21.035M908 575.5h14.035c2.686 0 4.465 2.568 4.465 5.252v.281c0 2.684-1.779 4.467-4.465 4.467h-14.035M908 575.5h7.035c2.686 0 4.465-1.783 4.465-4.467v-.281c0-2.684-1.779-5.252-4.465-5.252h-33.639c-4.316 0-7.582 2.521-9.832 5.418M947.476 589.908c2.86-2.86 6.812-4.629 11.177-4.629 8.73 0 15.807 7.076 15.807 15.807 0 8.729-7.076 15.807-15.807 15.807-4.647 0-8.826-2.006-11.719-5.199M951.016 593.746c1.877-1.879 4.473-3.04 7.339-3.04 5.731 0 10.38 4.647 10.38 10.38s-4.648 10.379-10.38 10.379c-3.052 0-5.796-1.316-7.695-3.414"/></g><g stroke="#33A1DF" stroke-width="3" stroke-miterlimit="10" fill="none"><path stroke-linecap="square" stroke-linejoin="round" d="M1225 859.5h34.5v-47h35v-29h48v19h38v57h34.5"/><path d="M1343 812.5h28M1343 831.5h28M1343 849.5h28M1343 840.5h28M1343 822.5h28M1268 831.5h27M1268 849.5h27M1268 840.5h27M1268 822.5h27M1306 812.5h28M1306 803.5h28M1306 794.5h28M1306 831.5h28M1306 849.5h28M1306 840.5h28M1306 822.5h28M1364.5 795v-9.5h36v71.5M1280.5 795v-9.5h-35v65.5M1317.5 768v-10.5h36v45.5"/></g><g stroke="#33A1DF" stroke-width="3" stroke-miterlimit="10" fill="none"><path d="M1258.872 724.588l-10.157 16.271c-2.22 3.813-4.016 7.661-4.016 12.245 0 11.413 9.252 20.664 20.665 20.664s20.665-9.251 20.665-20.664c0-4.647-1.535-8.937-4.125-12.389l-16.54-28.014"/><path stroke-linecap="round" d="M1280 752.58c0 8.76-6.096 15.849-13.627 15.849"/><path d="M1252.5 713v-11.51c0-19.081 15.969-34.604 35.247-34.604 19.151 0 34.753 15.622 34.753 34.825v57.289M1303.5 759v-57.264c0-8.075-7.262-14.788-15.387-14.788-8.25 0-15.613 6.489-15.613 14.542v11.51M1251 713.5h9"/></g><g stroke="#33A1DF" stroke-width="3" stroke-linejoin="round" stroke-miterlimit="10" fill="none"><path stroke-linecap="square" d="M710.745 419.843l-18.787 14.616 18.787 16.136M739.261 450.595l18.787-14.616-18.787-16.136"/><path stroke-linecap="round" d="M718.157 463.638l14.761-56.276"/></g><g stroke="#33A1DF" stroke-width="3" stroke-linejoin="round" stroke-miterlimit="10" fill="none"><path stroke-linecap="square" d="M1104.745 777.843l-18.786 14.616 18.786 16.136M1133.261 808.595l18.787-14.616-18.787-16.136"/><path stroke-linecap="round" d="M1112.157 821.638l14.761-56.276"/></g><g stroke="#33A1DF" stroke-width="3" stroke-miterlimit="10" fill="none"><circle cx="859.641" cy="516.783" r="2.914"/><path stroke-linecap="square" stroke-linejoin="round" d="M868 527.5h-32.584c-4.054 0-5.712-4.001-3.686-7.514l24.551-43.088c2.028-3.512 5.346-3.793 7.375-.282l24.551 43.513c2.026 3.511.368 7.371-3.686 7.371h-4.521"/><path stroke-linecap="square" stroke-linejoin="round" d="M861.5 506.5c0 1.104-.896 2-2 2s-2-.896-2-2v-17c0-1.104.896-2 2-2s2 .896 2 2v17zM749 489.5h36.5v-61h31v-15h86v15h34v109.5"/><path stroke-linecap="round" d="M794.5 438.5h12v12h-12zM911.5 444.5h12v12h-12zM911.5 471.5h12v12h-12zM824.5 422.5h12v12h-12zM843.5 430.5h12v12h-12zM863.5 444.5h12v12h-12zM882.5 422.5h12v12h-12z"/><path stroke-linecap="square" stroke-linejoin="round" d="M902.5 429v66M816.5 429v45"/></g><g stroke="#33A1DF" stroke-width="3" stroke-miterlimit="10" fill="none"><path d="M1232.5 468v-25.859c0-2.013 2.029-3.496 4.043-3.496 4.138 0 3.957 3.375 3.957 3.375v28.98M1225.5 469v-31.359c0-2.013 1.529-3.496 3.543-3.496 3.707 0 3.457 3.375 3.457 3.375v31.48M1217.5 469v-26.859c0-2.013 2.029-3.496 4.043-3.496 3.432 0 3.957 3.375 3.957 3.375v26.98M1198.5 854v-104.203c0-4.466 5.144-6.297 8.595-6.297h2.825c4.084 0 14.354-2.848 19.471-9.648 4.777-6.352 6.109-14.155 6.109-23.872v-206.093c10 0 12.4-7.12 12.4-11.739l-.148-25.204c0-2.013-1.482-3.443-3.495-3.443h-.211c-2.013 0-3.546 1.378-3.546 3.391v13.108M1217.5 469v-17.98s-.723-3.375-3.58-3.375c-2.014 0-3.729 1.483-3.729 3.496l.177 37.98c0 3.237 3.133 7.363 5.133 7.363v213.495c0 12.021-4.829 13.521-9.58 13.521h-4.825c-12.036 0-22.595 5.78-22.595 26.297v104.203"/><path stroke-linecap="square" d="M1232 434.5h31.5v38h-13.5"/></g><g stroke="#33A1DF" stroke-width="3" stroke-linecap="round" stroke-linejoin="round" stroke-miterlimit="10" fill="none"><circle cx="56.165" cy="471.261" r="22.685"/><path d="M56.053 493.947c-7.249 0-13.122-10.156-13.122-22.687 0-12.529 5.873-22.685 13.122-22.685M56.07 493.947c7.246 0 13.123-10.156 13.123-22.687 0-12.529-5.877-22.685-13.123-22.685M56.5 441v-11M56.5 513v-11M25 472.5h-12M96 472.5h-10M33.891 450.122l-6.951-6.95M83.8 443.172l-6.952 6.95M33.891 493.081l-6.951 6.948M83.8 500.029l-6.952-6.948M56.5 449v45"/></g><g stroke="#33A1DF" stroke-width="3" stroke-linecap="round" stroke-linejoin="round" stroke-miterlimit="10" fill="none"><path d="M634.004 298.959l33.062 20.155M661.504 297.018l-32.943 22.316M671.394 338.889l-16.34-70.91M628.561 319.334l11.833-51.355M637.573 282.235l22.516 14.355M657.98 282.541l-22.707 12M633 267.5h84M698.5 259v112M613.418 265.658l6.427 5.842h6.318c3.226 0 6.337-2.615 6.337-5.842v-6.316c0-3.227-3.111-5.842-6.337-5.842h-13.163M717 258.5h-63.996l-5.139-48.217-5.869 48.217h-8.996M647.865 210.283l-22.953 38.338M647.754 210.283l50.309 48.217"/><circle cx="693.261" cy="386.113" r="5.192"/><circle cx="703.657" cy="386.113" r="5.192"/><circle cx="698.458" cy="395.354" r="5.192"/><path d="M693.326 397.564c-1.114.727-2.506 1.028-3.908.73-2.807-.594-4.6-3.351-4.005-6.156.319-1.509 1.266-2.726 2.51-3.434M697.959 401.028c0 2.604 1.521 4.044 2.069 4.352 2.502 1.401 5.667.511 7.067-1.991.378-.673 1.144-2.028.646-3.712M697.52 405.38c-2.502 1.401-5.666.511-7.068-1.991-.377-.673-1.138-1.771-.646-3.712M703.204 397.564c1.114.727 2.506 1.028 3.909.73 2.805-.594 4.599-3.351 4.004-6.156-.319-1.509-1.266-2.726-2.51-3.434"/><path d="M696.016 370.449c3.079 3.078 2.072 7.131 2.072 7.131s-4.357.701-7.132-2.072c-2.713-2.713-2.912-7.971-2.912-7.971s5.004-.056 7.972 2.912zM700.67 370.449c-3.078 3.078-2.072 7.131-2.072 7.131s4.358.701 7.132-2.072c2.713-2.713 2.912-7.971 2.912-7.971s-5.004-.056-7.972 2.912z"/></g><g stroke="#33A1DF" stroke-width="3" stroke-linecap="round" stroke-linejoin="round" stroke-miterlimit="10" fill="none"><path d="M711.612 749.889l16.339-70.91M754.445 730.334l-11.833-51.355M749.002 709.959l-33.064 20.155M721.502 708.018l32.943 22.316M745.433 693.235l-22.515 14.355M725.025 693.541l22.707 12M750 678.5h-84M769.586 676.658l-6.425 5.842h-6.318c-3.226 0-6.343-2.615-6.343-5.842v-6.316c0-3.227 3.117-5.842 6.343-5.842h13.157M666 669.5h64.002l5.139-48.217 5.869 48.217h8.99M735.141 621.283l22.953 38.338M735.252 621.283l-50.31 48.217M684.5 669v156"/><circle cx="689.745" cy="841.113" r="5.192"/><circle cx="679.349" cy="841.113" r="5.192"/><circle cx="684.547" cy="850.354" r="5.192"/><path d="M689.68 852.564c1.114.727 2.506 1.028 3.909.73 2.806-.594 4.597-3.351 4.004-6.156-.319-1.509-1.266-2.726-2.51-3.434M685.047 856.028c0 2.604-1.521 4.044-2.069 4.352-2.502 1.401-5.667.511-7.067-1.991-.379-.673-1.145-2.028-.646-3.712M685.486 860.38c2.501 1.401 5.666.511 7.067-1.991.378-.673 1.139-1.771.646-3.712M679.801 852.564c-1.113.727-2.505 1.028-3.908.73-2.806-.594-4.599-3.351-4.004-6.156.319-1.509 1.266-2.726 2.51-3.434"/><path d="M686.99 825.449c-3.079 3.078-2.072 7.131-2.072 7.131s4.357.701 7.131-2.072c2.714-2.713 2.913-7.971 2.913-7.971s-5.004-.056-7.972 2.912zM682.336 825.449c3.078 3.078 2.072 7.131 2.072 7.131s-4.359.701-7.132-2.072c-2.713-2.713-2.912-7.971-2.912-7.971s5.003-.056 7.972 2.912z"/></g><g stroke="#33A1DF" stroke-width="3" stroke-linecap="round" stroke-linejoin="round" stroke-miterlimit="10" fill="none"><path d="M1372.754 636.283l50.309 48.217M1396.394 764.889l-16.341-70.91M1353.561 745.334l11.833-51.355M1386.504 723.018l-32.943 22.316M1362.573 708.235l22.516 14.355M1382.98 708.541l-22.707 12M1358 693.5h84M1359.004 724.959l33.062 20.155M1338.418 691.658l6.427 5.842h6.318c3.226 0 6.337-2.615 6.337-5.842v-6.316c0-3.227-3.111-5.842-6.337-5.842h-13.163M1442 684.5h-63.996l-5.139-48.217-5.869 48.217h-8.996M1372.865 636.283l-22.953 38.338M1423.5 684v112"/><circle cx="1418.261" cy="811.113" r="5.192"/><circle cx="1428.657" cy="811.113" r="5.192"/><circle cx="1423.458" cy="820.354" r="5.192"/><path d="M1418.326 822.564c-1.114.727-2.506 1.028-3.908.73-2.807-.594-4.6-3.351-4.005-6.156.319-1.509 1.266-2.726 2.51-3.434M1422.959 826.028c0 2.604 1.521 4.044 2.069 4.352 2.502 1.401 5.667.511 7.067-1.991.378-.673 1.144-2.028.646-3.712M1422.52 830.38c-2.502 1.401-5.666.511-7.068-1.991-.377-.673-1.138-1.771-.646-3.712M1428.203 822.564c1.115.727 2.507 1.028 3.91.73 2.805-.594 4.599-3.351 4.004-6.156-.319-1.509-1.266-2.726-2.51-3.434"/><path d="M1421.016 795.449c3.079 3.078 2.072 7.131 2.072 7.131s-4.357.701-7.132-2.072c-2.713-2.713-2.912-7.971-2.912-7.971s5.004-.056 7.972 2.912zM1425.67 795.449c-3.078 3.078-2.072 7.131-2.072 7.131s4.358.701 7.132-2.072c2.713-2.713 2.912-7.971 2.912-7.971s-5.004-.056-7.972 2.912z"/></g><path stroke="#33A1DF" stroke-width="3" stroke-linecap="square" stroke-linejoin="round" stroke-miterlimit="10" fill="none" d="M1423.5 455v36"/><path stroke="#33A1DF" stroke-width="3" stroke-linecap="square" stroke-linejoin="round" stroke-miterlimit="10" d="M1430.619 454.5c1.65 0 1.953-.852.674-1.893l-38.347-31.193c-1.28-1.041-3.374-1.041-4.653 0l-38.347 31.193c-1.28 1.041-.978 1.893.673 1.893h80zM1358.5 455v36M1369.5 455v36M1385.5 455v36M1396.5 455v36M1412.5 455v36M1434 493.5h-86M1434 499.5h-86M1389 505.5h-41M1434 505.5h-9" fill="none"/><path stroke="#33A1DF" stroke-width="3" stroke-linecap="square" stroke-linejoin="round" stroke-miterlimit="10" fill="none" d="M1371.5 392.5h20v12h-20zM1391.5 420v-27"/><g stroke="#33A1DF" stroke-width="3" stroke-miterlimit="10" fill="none"><circle stroke-linecap="square" stroke-linejoin="round" cx="1407.076" cy="530.426" r="30.926"/><circle stroke-linecap="square" stroke-linejoin="round" cx="1407.078" cy="531.289" r="19.606"/><path d="M1400.5 561v49.677c0 3.817 2.629 6.823 6.447 6.823h.174c3.818 0 7.379-3.006 7.379-6.823v-49.677M1400 571.5h14"/><path stroke-linecap="square" stroke-linejoin="round" d="M1394.732 528.033c0-5.52 5.041-9.984 11.27-9.984"/></g><g stroke="#33A1DF" stroke-width="3" stroke-linecap="round" stroke-linejoin="round" stroke-miterlimit="10" fill="none"><path d="M323.877 535.69c-10.625-3.096-15.295-16.212-5.997-26.46M323.877 460.009c-10.625 3.093-15.295 16.21-5.997 26.457M327.663 469.584c-10.508-17.685 4.876-23.135 12.093-21.299 5.059 1.289 9.744 4.362 9.744 9.744v79.187c0 5.382-4.686 8.455-9.744 9.743-7.217 1.837-22.447-3.533-11.939-21.22M315.196 512.754c-12.312-5.252-12.997-23.383-.109-30.425M381.699 459.56c10.624 3.096 15.292 16.212 5.997 26.46M381.699 535.242c10.624-3.094 15.292-16.211 5.997-26.458M377.912 525.666c10.508 17.685-4.66 23.135-11.879 21.299-5.061-1.289-9.533-4.362-9.533-9.744v-79.187c0-5.382 4.473-8.455 9.533-9.743 7.219-1.837 22.341 3.532 11.832 21.22M390.379 482.497c12.312 5.251 12.996 23.382.111 30.424M340.217 470.549c0 7.663-5.465 13.861-12.222 13.861M364.8 470.549c0 7.663 5.466 13.861 12.222 13.861M340.217 526.143c0-7.66-5.465-13.857-12.222-13.857M364.8 526.143c0-7.66 5.466-13.857 12.222-13.857M385.217 498.881c-4.777-5.416-12.509-5.416-17.285 0M335.198 498.881c-4.775-5.416-12.508-5.416-17.282 0"/></g><g stroke="#33A1DF" stroke-width="3" stroke-linecap="round" stroke-linejoin="round" stroke-miterlimit="10" fill="none"><path d="M1048.877 112.69c-10.625-3.096-15.295-16.212-5.997-26.46M1048.877 37.009c-10.625 3.093-15.295 16.21-5.997 26.457M1052.663 46.584c-10.508-17.685 4.876-23.135 12.093-21.299 5.059 1.289 9.744 4.362 9.744 9.744v79.187c0 5.382-4.686 8.455-9.744 9.743-7.217 1.837-22.447-3.533-11.939-21.22M1040.196 89.754c-12.312-5.252-12.997-23.383-.11-30.425M1106.699 36.56c10.624 3.096 15.292 16.212 5.997 26.46M1106.699 112.242c10.624-3.094 15.292-16.211 5.997-26.458M1102.912 102.666c10.508 17.685-4.66 23.135-11.879 21.299-5.061-1.289-9.533-4.362-9.533-9.744v-79.188c0-5.382 4.473-8.455 9.533-9.743 7.219-1.837 22.341 3.532 11.832 21.22M1115.379 59.497c12.312 5.251 12.996 23.382.111 30.424M1065.217 47.549c0 7.663-5.465 13.861-12.222 13.861M1089.8 47.549c0 7.663 5.466 13.861 12.222 13.861M1065.217 103.143c0-7.66-5.465-13.857-12.222-13.857M1089.8 103.143c0-7.66 5.466-13.857 12.222-13.857M1110.217 75.881c-4.777-5.416-12.508-5.416-17.285 0M1060.198 75.881c-4.775-5.416-12.508-5.416-17.282 0"/></g><g stroke="#33A1DF" stroke-width="3" stroke-miterlimit="10" fill="none"><path d="M76.5 202.353c0 4.732-1.944 9.147-5.888 9.147h-38.571c-3.945 0-8.541-4.415-8.541-9.147v-83.995c0-4.734 4.596-6.857 8.541-6.857h38.571c3.943 0 5.888 2.123 5.888 6.857v83.995zM25 192.5h53M25 131.5h53"/><circle cx="51.325" cy="120.751" r="2.843"/><path d="M45 202.5h12"/><g stroke-linecap="round" stroke-linejoin="round"><circle cx="50.68" cy="162.342" r="15.778"/><path d="M50.534 162.054l.129-15.095M50.61 162.222l-10.131-11.911M50.61 162.222l-5.847 14.752M50.61 162.222l15.774 1.655"/></g></g><g stroke="#33A1DF" stroke-width="3" stroke-miterlimit="10" fill="none"><circle cx="48.325" cy="553.751" r="2.843"/><path d="M42 635.5h12"/><path d="M73.5 635.353c0 4.732-1.944 9.147-5.888 9.147h-38.571c-3.945 0-8.541-4.415-8.541-9.147v-83.995c0-4.734 4.596-6.857 8.541-6.857h38.571c3.943 0 5.888 2.123 5.888 6.857v83.995zM22 625.5h53M22 564.5h53"/><g stroke-linejoin="round"><path d="M46.5 596.5h13.659c0 7-5.999 13.325-13.398 13.325s-13.517-6.035-13.517-13.435 6.256-13.449 13.256-13.449v13.559zM51.5 591.826v-13.412c7 0 13.268 6.033 13.268 13.361l-13.268.051z"/></g></g><g stroke="#33A1DF" stroke-width="3" stroke-miterlimit="10" fill="none"><g stroke-linecap="round" stroke-linejoin="round"><circle cx="799.68" cy="586.342" r="15.778"/><path d="M799.534 586.054l.129-15.095M799.61 586.222l-10.131-11.911M799.61 586.222l-5.847 14.752M799.61 586.222l15.774 1.655"/></g><path d="M826.5 625.353c0 4.732-1.944 9.147-5.888 9.147h-38.571c-3.945 0-8.541-4.415-8.541-9.147v-83.995c0-4.734 4.596-6.857 8.541-6.857h38.571c3.943 0 5.888 2.123 5.888 6.857v83.995zM775 615.5h53M775 554.5h53"/><circle cx="801.325" cy="543.751" r="2.843"/><path d="M795 625.5h12"/></g><g stroke="#33A1DF" stroke-width="3" stroke-miterlimit="10" fill="none"><path d="M786.5 202.353c0 4.732-1.944 9.147-5.888 9.147h-38.571c-3.945 0-8.541-4.415-8.541-9.147v-83.995c0-4.734 4.596-6.857 8.541-6.857h38.571c3.943 0 5.888 2.123 5.888 6.857v83.995zM735 192.5h53M735 131.5h53"/><circle cx="761.325" cy="120.751" r="2.843"/><path d="M755 202.5h12"/><g stroke-linejoin="round"><path d="M758.5 164.5h13.659c0 7-5.999 13.325-13.398 13.325s-13.517-6.035-13.517-13.435 6.256-13.449 13.256-13.449v13.559zM763.5 159.826v-13.412c7 0 13.268 6.033 13.268 13.361l-13.268.051z"/></g></g><g stroke="#33A1DF" stroke-width="3" stroke-linejoin="round" stroke-miterlimit="10" fill="none"><path stroke-linecap="round" d="M196.163 582.499M180.165 582.717c-3.623 2.52-8.024 3.996-12.771 3.996-12.37 0-22.396-10.027-22.396-22.396 0-12.37 10.026-22.396 22.396-22.396 12.368 0 22.396 10.026 22.396 22.396 0 4.626-1.405 8.927-3.808 12.495M202.535 564.317c0-12.37 10.028-22.396 22.396-22.396 12.369 0 22.396 10.026 22.396 22.396 0 12.368-10.026 22.396-22.396 22.396M206.451 576.969"/><g stroke-linecap="round"><path d="M164.257 567.561l-6.27 5.068M177.991 556.097l-6.668 5.511"/></g><g stroke-linecap="round"><path d="M228.822 567.561l6.269 5.068M215.088 556.097l6.667 5.511"/></g><path stroke-linecap="round" d="M179.108 604.318M196.163 609.852M185.793 610.376c2.521 3.622 3.997 8.024 3.997 12.771 0 12.369-10.027 22.396-22.396 22.396-12.37 0-22.396-10.026-22.396-22.396s10.026-22.396 22.396-22.396c4.626 0 8.927 1.403 12.495 3.807M212.159 604.102c3.623-2.521 8.024-3.997 12.772-3.997 12.369 0 22.396 10.026 22.396 22.396s-10.026 22.396-22.396 22.396c-12.368 0-22.396-10.027-22.396-22.396 0-4.626 1.403-8.926 3.806-12.494"/><path d="M209.201 592.987c0-2.263-.57-4.393-1.575-6.253l20.46-20.457c1.51-1.511 1.51-3.959 0-5.471-1.511-1.51-3.961-1.51-5.473 0l-20.495 20.495c-1.823-.955-3.896-1.496-6.098-1.496-2.262 0-4.391.571-6.251 1.574l-20.575-20.573c-1.51-1.51-3.96-1.51-5.469 0-1.512 1.512-1.512 3.96 0 5.471l20.611 20.611c-.956 1.823-1.496 3.896-1.496 6.099 0 3.106 2.199 7.441 2.199 7.441l-20.456 20.456c-1.513 1.511-1.801 3.669-.289 5.182 1.511 1.51 3.67 1.223 5.183-.288l20.496-20.495c1.656.79 4.307 1.316 6.509 1.316 2.262 0 3.792.264 6.667-1.755l20.573 20.571c1.512 1.514 3.673 1.799 5.183.289s1.222-3.672-.288-5.182l-20.613-20.611c0 .001 1.197-3.291 1.197-6.924z"/><g stroke-linecap="round"><path d="M228.066 619.258l6.271-5.068M214.333 630.723l6.668-5.512"/></g><g stroke-linecap="round"><path d="M163.505 619.258l-6.272-5.068M177.236 630.723l-6.668-5.514"/></g></g><g stroke="#33A1DF" stroke-width="3" stroke-linejoin="round" stroke-miterlimit="10" fill="none"><path stroke-linecap="round" d="M985.163 334.499M969.165 334.717c-3.622 2.52-8.024 3.996-12.771 3.996-12.37 0-22.396-10.027-22.396-22.396 0-12.37 10.026-22.396 22.396-22.396 12.368 0 22.396 10.026 22.396 22.396 0 4.626-1.405 8.927-3.808 12.495M991.535 316.317c0-12.37 10.028-22.396 22.396-22.396 12.369 0 22.396 10.026 22.396 22.396 0 12.368-10.026 22.396-22.396 22.396M995.451 328.969"/><g stroke-linecap="round"><path d="M953.257 319.561l-6.27 5.068M966.991 308.097l-6.668 5.511"/></g><g stroke-linecap="round"><path d="M1017.822 319.561l6.269 5.068M1004.088 308.097l6.667 5.511"/></g><path stroke-linecap="round" d="M968.108 356.318M985.163 361.852M974.793 362.376c2.521 3.622 3.997 8.024 3.997 12.771 0 12.369-10.027 22.396-22.396 22.396-12.37 0-22.396-10.026-22.396-22.396s10.026-22.396 22.396-22.396c4.626 0 8.927 1.403 12.495 3.807M1001.159 356.102c3.623-2.521 8.024-3.997 12.772-3.997 12.369 0 22.396 10.026 22.396 22.396s-10.026 22.396-22.396 22.396c-12.368 0-22.396-10.027-22.396-22.396 0-4.626 1.403-8.926 3.806-12.494"/><path d="M998.201 344.987c0-2.263-.57-4.393-1.574-6.253l20.459-20.457c1.51-1.511 1.51-3.959 0-5.471-1.511-1.51-3.961-1.51-5.473 0l-20.495 20.495c-1.823-.955-3.896-1.496-6.098-1.496-2.262 0-4.391.571-6.251 1.574l-20.575-20.573c-1.51-1.51-3.96-1.51-5.469 0-1.512 1.512-1.512 3.96 0 5.471l20.61 20.611c-.955 1.823-1.495 3.896-1.495 6.099 0 3.106 2.199 7.441 2.199 7.441l-20.456 20.456c-1.513 1.511-1.801 3.669-.289 5.182 1.511 1.51 3.67 1.223 5.183-.288l20.496-20.495c1.656.79 4.307 1.316 6.509 1.316 2.262 0 3.792.264 6.667-1.755l20.573 20.571c1.512 1.514 3.673 1.799 5.183.289s1.222-3.672-.288-5.182l-20.613-20.611c0 .001 1.197-3.291 1.197-6.924z"/><g stroke-linecap="round"><path d="M1017.066 371.258l6.27-5.068M1003.334 382.723l6.668-5.512"/></g><g stroke-linecap="round"><path d="M952.505 371.258l-6.272-5.068M966.236 382.723l-6.668-5.514"/></g></g><path stroke="#33A1DF" stroke-width="3" stroke-miterlimit="10" d="M423.035 769.482c0-23.576-19.656-42.758-43.234-42.758l-.821-.003-10.938-.173c-40.212-.084-73.646-27.295-83.82-64.266" fill="none"/><g stroke="#33A1DF" stroke-width="3" stroke-miterlimit="10" fill="none"><path d="M305.128 650.439c.278 1.654.618 3.287 1.02 4.896"/><path stroke-dasharray="9.668,9.668" d="M309.182 664.508c9.632 23.104 32.304 39.409 59.039 39.443l5.446.088c.058.002 6.279.089 6.337.089 28.869.038 53.879 19.016 62.369 45.069"/><path d="M443.693 753.855c.391 1.611.72 3.247.983 4.902"/></g><path stroke="#33A1DF" stroke-width="3" stroke-miterlimit="10" d="M326.035 638.597c0 23.577 18.788 42.758 42.365 42.758l-.045.003 11.851.174c41.019.086 76.294 28.396 86.112 66.502" fill="none"/><g stroke="#33A1DF" stroke-width="3" stroke-linejoin="round" stroke-miterlimit="10" fill="none"><path stroke-linecap="round" d="M416.113 620.572c2.457 1.045 5.158 1.623 7.997 1.623 11.291 0 19.443-9.152 19.443-20.443 0-10.104-7.331-18.489-16.964-20.143-.455-8.311-7.335-14.91-15.76-14.91-8.718 0-15.785 7.067-15.785 15.785 0 .983.094 1.943.266 2.877-8.437 1.389-14.875 8.713-14.875 17.544 0 9.823 7.962 17.786 17.786 17.786 3.427 0 7.601-1.514 10.315-3.193"/><path stroke-linecap="square" d="M415.5 616v29.518c0 1.724-1.786 2.982-3.51 2.982h-.107c-1.726 0-3.383-1.259-3.383-2.982v-47.518"/><path stroke-linecap="round" d="M425.11 630.986c15.335 2.314 26.312 8.531 26.312 15.84 0 9.281-17.714 16.805-39.565 16.805s-39.565-7.523-39.565-16.805c0-7.368 11.162-13.628 26.693-15.896M367.703 644.512c-4.033 10.836 14.104 22.188 27.438 22.188M433.369 628.445c15.332 2.314 23.031 10.347 23.031 17.654"/></g><g stroke="#33A1DF" stroke-width="3" stroke-miterlimit="10" fill="none"><circle cx="363.828" cy="834.403" r="24.236"/><circle cx="477.179" cy="834.403" r="24.236"/><path d="M362.885 834.366l32.027-61.419s1.631-4.447 6.062-4.447h13.026"/><path stroke-linejoin="round" d="M381.95 798.152l50.797 35.348h44.092l-29.274-28.81-60.208-16.893M432.747 833.453l25.206-50.98"/><path stroke-linecap="round" stroke-linejoin="round" d="M469 782.5h-19"/></g><g stroke="#33A1DF" stroke-width="3" stroke-linecap="round" stroke-miterlimit="10" fill="none"><path d="M302.587 635.812s-21.176-43.242-21.176-54.938 9.48-21.176 21.176-21.176c11.694 0 21.175 9.48 21.175 21.176 0 7.482-8.668 27.877-14.912 41.6"/><circle cx="302.555" cy="583.103" r="8.557"/></g><g stroke="#33A1DF" stroke-width="3" stroke-miterlimit="10" fill="none"><path d="M273.737 803.645c0 4.794-7.772 8.681-17.363 8.681s-17.362-3.887-17.362-8.681M276.516 817.998c0 5.561-9.017 10.07-20.142 10.07-11.123 0-20.141-4.51-20.141-10.07M268.182 774.938c0 3.26-5.286 5.903-11.808 5.903-6.52 0-11.808-2.644-11.808-5.903M270.96 789.522c0 4.026-6.53 7.292-14.586 7.292s-14.584-3.266-14.584-7.292M268.486 843.789c-3.469 1.014-7.52 1.596-11.834 1.596-12.748 0-23.152-5.09-23.152-11.367v-.693l13.055-70.842c0-2.646 4.408-4.792 9.701-4.792s9.701 2.146 9.701 4.792l13.693 70.79M278.799 829.406l5.407 5.408c2.95 2.949 3.338 5.987.104 8.491-5.045 3.907-21.988 12.96-21.988 12.96-5.56 3.266-10.575-.104-10.575-.104s-17.275-9.384-22.429-13.398c-3.289-2.563-2.995-5.601-.104-8.492l5.646-5.646"/></g><g stroke="#33A1DF" stroke-width="3" stroke-linecap="square" stroke-linejoin="round" stroke-miterlimit="10" fill="none"><path d="M297.187 754.82c4.007 8.677-1.115 19.577-1.115 19.577s-11.62-3.166-15.629-11.844c-4.009-8.676 1.114-19.576 1.114-19.576s11.622 3.167 15.63 11.843zM302.708 780.549c-3.989 0-5.744-3.073-7.022-6.893l-7.102-15.645"/><path d="M334.187 768.82c4.007 8.677-1.115 19.577-1.115 19.577s-11.62-3.166-15.629-11.844c-4.009-8.676 1.114-19.576 1.114-19.576s11.622 3.167 15.63 11.843zM339.708 794.549c-3.989 0-5.744-3.073-7.022-6.893l-7.102-15.645"/><path d="M361.187 746.82c4.007 8.677-1.115 19.577-1.115 19.577s-11.62-3.166-15.629-11.844c-4.009-8.676 1.114-19.576 1.114-19.576s11.622 3.167 15.63 11.843zM366.708 772.549c-3.989 0-5.744-3.073-7.022-6.893l-7.102-15.645"/></g><path stroke="#33A1DF" stroke-width="3" stroke-miterlimit="10" d="M1049.328 776.482c0-23.576 19.656-42.758 43.233-42.758l.822-.003 10.938-.173c40.212-.084 73.646-27.295 83.82-64.266" fill="none"/><g stroke="#33A1DF" stroke-width="3" stroke-miterlimit="10" fill="none"><path d="M1167.234 657.439c-.277 1.654-.619 3.287-1.02 4.896"/><path stroke-dasharray="9.668,9.668" d="M1163.18 671.508c-9.631 23.104-32.302 39.409-59.037 39.443l-5.446.088c-.058.002-6.278.089-6.337.089-28.869.038-53.879 19.016-62.369 45.069"/><path d="M1028.668 760.855c-.391 1.611-.719 3.247-.982 4.902"/></g><path stroke="#33A1DF" stroke-width="3" stroke-miterlimit="10" d="M1146.328 645.597c0 23.577-18.788 42.758-42.365 42.758l.045.003-11.851.174c-41.019.086-76.294 28.396-86.112 66.502" fill="none"/><g stroke="#33A1DF" stroke-width="3" stroke-linejoin="round" stroke-miterlimit="10" fill="none"><path stroke-linecap="round" d="M1072.25 627.572c-2.457 1.045-5.158 1.623-7.998 1.623-11.29 0-19.442-9.152-19.442-20.443 0-10.104 7.331-18.489 16.964-20.143.454-8.311 7.335-14.91 15.76-14.91 8.719 0 15.785 7.067 15.785 15.785 0 .983-.094 1.943-.266 2.877 8.437 1.389 14.875 8.713 14.875 17.544 0 9.823-7.963 17.786-17.786 17.786-3.427 0-7.601-1.514-10.315-3.193"/><path stroke-linecap="square" d="M1072.5 623v29.518c0 1.724 2.149 2.982 3.873 2.982h.107c1.726 0 3.02-1.259 3.02-2.982v-47.518"/><path stroke-linecap="round" d="M1063.252 637.986c-15.334 2.314-26.312 8.531-26.312 15.84 0 9.281 17.714 16.805 39.565 16.805s39.565-7.523 39.565-16.805c0-7.368-11.162-13.628-26.693-15.896M1120.66 651.512c4.033 10.836-14.104 22.188-27.438 22.188M1054.994 635.445c-15.333 2.314-23.031 10.347-23.031 17.654"/></g><g stroke="#33A1DF" stroke-width="3" stroke-miterlimit="10" fill="none"><circle cx="1038.536" cy="834.403" r="24.236"/><circle cx="925.184" cy="834.403" r="24.236"/><path d="M1039.297 834.366l-31.937-61.419s-1.54-4.447-5.971-4.447h-13.39"/><path stroke-linejoin="round" d="M1020.413 798.152l-50.798 35.348h-44.091l29.274-28.81 60.208-16.893M969.615 833.453l-25.205-50.98"/><path stroke-linecap="round" stroke-linejoin="round" d="M933 782.5h19"/></g><g stroke="#33A1DF" stroke-width="3" stroke-linecap="round" stroke-miterlimit="10" fill="none"><path d="M1169.776 642.812s21.175-43.242 21.175-54.938-9.479-21.176-21.175-21.176c-11.694 0-21.175 9.48-21.175 21.176 0 7.482 8.668 27.877 14.911 41.6"/><circle cx="1169.809" cy="590.103" r="8.557"/></g><g stroke="#33A1DF" stroke-width="3" stroke-linejoin="round" stroke-miterlimit="10" fill="none"><path d="M645.287 505.732l69.476 69.476-6.652 6.652-69.476-69.476zM631.996 519.036l69.476 69.476-6.652 6.652-69.476-69.476zM657.857 493.167l69.477 69.477-6.651 6.651-69.477-69.477zM670.418 480.602l69.476 69.476-5.914 5.914-69.476-69.476zM683.721 467.298l69.478 69.478-5.913 5.913-69.478-69.478z"/></g><g stroke="#33A1DF" stroke-width="3" stroke-linejoin="round" stroke-miterlimit="10" fill="none"><path d="M1381.923 297.402l-69.477 69.477-6.652-6.652 69.477-69.477zM1395.216 310.69l-69.477 69.477-6.652-6.652 69.477-69.477zM1369.347 284.819l-69.477 69.477-6.651-6.651 69.477-69.477zM1356.042 271.517l-69.476 69.476-5.913-5.913 69.476-69.476zM1342.738 258.212l-69.477 69.477-5.913-5.913 69.477-69.477z"/></g><g stroke="#33A1DF" stroke-width="3" stroke-miterlimit="10" fill="none"><path d="M604.488 708.322c5.126-1.49 10.547-2.29 16.155-2.29 18.377 0 34.75 8.586 45.321 21.966l-45.321 99.5-45.323-99.498c3.207-4.059 6.947-7.676 11.113-10.746M581.699 741.159c8.944-10.374 19.657-19.127 38.944-19.127 18.438 0 29.701 8.796 38.905 19.202"/><circle cx="604.37" cy="747.605" r="11.371"/><circle cx="622.37" cy="778.605" r="11.371"/><circle cx="635.37" cy="744.605" r="11.371"/></g><g stroke="#33A1DF" stroke-width="3" stroke-miterlimit="10" fill="none"><path d="M955.488 81.322c5.126-1.49 10.547-2.29 16.155-2.29 18.377 0 34.75 8.586 45.321 21.966l-45.321 99.5-45.323-99.498c3.207-4.059 6.947-7.676 11.113-10.746M932.699 114.159c8.944-10.374 19.657-19.127 38.944-19.127 18.438 0 29.701 8.796 38.905 19.202"/><circle cx="955.37" cy="120.605" r="11.371"/><circle cx="973.37" cy="151.605" r="11.371"/><circle cx="986.37" cy="117.605" r="11.371"/></g><g stroke="#33A1DF" stroke-width="3" stroke-miterlimit="10" fill="none"><circle stroke-linecap="square" stroke-linejoin="round" cx="48.546" cy="750.664" r="30.926"/><circle stroke-linecap="square" stroke-linejoin="round" cx="48.547" cy="749.801" r="19.606"/><path d="M41.5 720v-49.587c0-3.817 3.098-6.913 6.916-6.913h.174c3.818 0 6.91 3.096 6.91 6.913v49.587M41 709.5h14"/><path stroke-linecap="square" stroke-linejoin="round" d="M61.001 753.049c0 5.52-5.041 9.985-11.271 9.985"/></g><path stroke="#33A1DF" stroke-width="3" stroke-linecap="square" stroke-linejoin="round" stroke-miterlimit="10" fill="none" d="M427.5 69v36"/><path stroke="#33A1DF" stroke-width="3" stroke-linecap="square" stroke-linejoin="round" stroke-miterlimit="10" d="M420.004 68.5c-1.65 0-1.953-.852-.673-1.893l38.346-31.193c1.28-1.041 3.374-1.041 4.654 0l38.346 31.193c1.28 1.041.978 1.893-.673 1.893h-80zM492.5 69v36M481.5 69v36M465.5 69v36M454.5 69v36M438.5 69v36M417 107.5h86M417 113.5h86M462 119.5h41M417 119.5h8" fill="none"/><path stroke="#33A1DF" stroke-width="3" stroke-linecap="square" stroke-linejoin="round" stroke-miterlimit="10" fill="none" d="M459.5 6.5h20v12h-20zM459.5 34v-27"/><g stroke="#33A1DF" stroke-width="3" stroke-miterlimit="10" fill="none"><circle stroke-linecap="square" stroke-linejoin="round" cx="443.546" cy="144.426" r="30.926"/><circle stroke-linecap="square" stroke-linejoin="round" cx="443.544" cy="145.289" r="19.606"/><path d="M450.5 175v49.677c0 3.817-3.006 6.823-6.824 6.823h-.174c-3.818 0-7.002-3.006-7.002-6.823v-49.677M451 185.5h-14"/></g><path stroke="#33A1DF" stroke-width="3" stroke-linecap="square" stroke-linejoin="round" stroke-miterlimit="10" d="M431.68 142.641c0-5.52 5.041-9.984 11.271-9.985" fill="none"/><g stroke="#33A1DF" stroke-width="3" stroke-miterlimit="10" fill="none"><circle cx="457.208" cy="520.963" r="3.331"/><path stroke-linecap="square" stroke-linejoin="round" d="M493.717 532.469l17.568 3.334-10.973-26.162.165-.905c8.267-23.95-4.447-50.065-28.397-58.331-23.947-8.266-50.064 4.447-58.33 28.397-8.268 23.949 5.309 48.735 29.256 57.001 11.443 3.95 24.583 1.936 33.092-3.223M452.5 466.859c0-2.025 1.734-3.573 4-3.573 2.268 0 4 1.74 4 3.767v40.826c0 2.026-1.732 3.67-4 3.67-2.266 0-4-1.644-4-3.67v-28.879"/></g></svg>