<?xml version="1.0" encoding="utf-8"?>
<!-- Generator: Adobe Illustrator 19.0.0, SVG Export Plug-In . SVG Version: 6.00 Build 0)  -->
<svg version="1.1" xmlns="http://www.w3.org/2000/svg" xmlns:xlink="http://www.w3.org/1999/xlink" x="0px" y="0px"
	 viewBox="0 0 1280 450" style="enable-background:new 0 0 1280 450;" xml:space="preserve">
<style type="text/css">
	.st0{fill:#03A678;}
	.st1{clip-path:url(#XMLID_5_);}
	.st2{fill:none;stroke:#66CC99;stroke-width:4.3802;stroke-miterlimit:10;}
	.st3{fill:none;stroke:#66CC99;stroke-width:4.3802;stroke-miterlimit:10;stroke-dasharray:10.0632,10.0632;}
	.st4{fill:none;stroke:#66CC99;stroke-width:4.3802;stroke-miterlimit:10;stroke-dasharray:9.9725,9.9725;}
	.st5{fill:none;stroke:#66CC99;stroke-width:4.3802;stroke-miterlimit:10;stroke-dasharray:10;}
	.st6{fill:none;stroke:#66CC99;stroke-width:5;stroke-miterlimit:10;}
	.st7{fill:#66CC99;}
	.st8{fill:none;stroke:#66CC99;stroke-width:5;stroke-linecap:round;stroke-miterlimit:10;}
	.st9{fill:none;stroke:#66CC99;stroke-width:5;stroke-linecap:round;stroke-linejoin:bevel;stroke-miterlimit:10;}
</style>
<g id="Ebene_2">
	<rect id="XMLID_126_" x="0" y="0" class="st0" width="1280" height="450"/>
</g>
<g id="Ebene_1">
	<g id="XMLID_26_">
		<defs>
			<rect id="XMLID_25_" y="-3.5" width="1280" height="453.5"/>
		</defs>
		<clipPath id="XMLID_5_">
			<use xlink:href="#XMLID_25_"  style="overflow:visible;"/>
		</clipPath>
		<g id="XMLID_24_" class="st1">
			<polygon id="XMLID_4094_" class="st2" points="292.4,195.6 260.4,198.6 275.7,228 			"/>
			<g id="XMLID_4087_">
				<g id="XMLID_134_">
					<path id="XMLID_137_" class="st2" d="M189.5,514.9c-1.1-1.3-2.1-2.6-3.1-3.9"/>
					<path id="XMLID_136_" class="st3" d="M180.3,502.9c-52.2-73.6-26.9-134.1-4.9-150c47-34,101,6.3,133-38
						c23.5-32.6,8.6-79.9-18.2-98.2"/>
					<path id="XMLID_135_" class="st2" d="M286,214c-1.5-0.8-3-1.5-4.5-2.1"/>
				</g>
			</g>
			<polygon id="XMLID_4085_" class="st2" points="1000.4,34.6 968.4,37.6 983.7,67 			"/>
			<g id="XMLID_4078_">
				<g id="XMLID_20_">
					<path id="XMLID_34_" class="st2" d="M897.5,353.9c-1.4-1-2.7-2-4-3"/>
					<path id="XMLID_23_" class="st4" d="M885.8,344.5c-74.5-65-34.8-139.3-2.3-152.6c57.7-23.8,101,6.3,133-38
						c23.5-32.6,8.6-79.9-18.2-98.3"/>
					<path id="XMLID_21_" class="st2" d="M994,53c-1.5-0.8-3-1.5-4.5-2.1"/>
				</g>
			</g>
			<polygon id="XMLID_4076_" class="st2" points="1198.6,121.6 1167,116.1 1174,148.5 			"/>
			<path id="XMLID_4074_" class="st5" d="M998.2,297.3c54.5,49,132.8,49.5,178,8.5c51.1-46.4,55.2-141.5,9.3-171"/>
			<polygon id="XMLID_4072_" class="st2" points="40.9,73.6 72.6,68.1 65.6,100.5 			"/>
			<path id="XMLID_4070_" class="st5" d="M241.3,249.3c-54.5,49-132.8,49.5-178,8.5c-51.1-46.4-55.2-141.5-9.3-171"/>
			<polygon id="XMLID_4068_" class="st2" points="1218.1,51 1237,25.1 1254.5,53.2 			"/>
			<path id="XMLID_4066_" class="st5" d="M1484.3,38c-5.1,73.2-61,127.9-122,129.8c-69,2.2-138-63.4-125.5-116.5"/>
			<g id="XMLID_19_">
				<path id="XMLID_4064_" class="st5" d="M689.5,288.9c-75.1,54.9-138.4,31.4-168.6-15c-36-55.4-0.3-127.1,2.3-132.3"/>
				<polygon id="XMLID_4063_" class="st2" points="539,149 534.5,117.2 505.9,133.8 				"/>
			</g>
			<polygon id="XMLID_4054_" class="st6" points="169.5,195.9 132.3,168.8 94.5,195.9 94.5,180.6 132.3,153.5 169.2,180.6 			"/>
			<polyline id="XMLID_4053_" class="st6" points="157.3,187.7 157.3,217.9 108.3,217.9 108.3,187.7 			"/>
			<polygon id="XMLID_4051_" class="st6" points="1131.2,60.8 1094.1,33.7 1056.5,60.8 1056.5,45.6 1094.1,18.5 1131,45.6 			"/>
			<polyline id="XMLID_4050_" class="st6" points="1118.9,52.6 1118.9,82.8 1069.9,82.8 1069.9,52.6 			"/>
			<g id="XMLID_22_">
				<line id="XMLID_4048_" class="st6" x1="822.1" y1="96.5" x2="848.5" y2="143.4"/>
				<polygon id="XMLID_4047_" class="st6" points="882.2,62 821.4,95.7 805.7,67.2 866.5,33.6 889.6,37.9 				"/>
			</g>
			<path id="XMLID_4045_" class="st5" d="M623.5,416.9c65,3.8,87.2-24.9,92.2-49c3.7-17.9-4.6-41.5,3-62.4
				c9.6-26.4,31.7-40.8,56.8-46.5"/>
			<polygon id="XMLID_4044_" class="st2" points="778.1,276.6 800.3,253.4 769.5,241.2 			"/>
			<g id="XMLID_149_">
				<path id="XMLID_4041_" class="st5" d="M423.3,197.9c-65,3.8-87.2-24.9-92.2-49c-3.7-17.9,4.6-41.5-3-62.4
					c-9.6-26.4-31.7-40.8-56.8-46.5"/>
				<polygon id="XMLID_4040_" class="st2" points="268.6,57.6 246.5,34.4 277.2,22.2 				"/>
			</g>
			<path id="XMLID_127_" class="st5" d="M1258.1,469.8c-3.7-17.9,4.6-41.5-3-62.4c-9.6-26.4-31.7-40.8-56.8-46.5"/>
			<polygon id="XMLID_4036_" class="st2" points="1195.6,378.6 1173.5,355.4 1204.2,343.2 			"/>
			<path id="XMLID_4033_" class="st5" d="M-53.3,519.4c-9.1-64.5,17.7-88.9,41.4-95.9c17.6-5.2,41.8,1.2,62-8.1
				c25.5-11.7,38.1-34.9,41.8-60.4"/>
			<polygon id="XMLID_4032_" class="st2" points="73.9,353.9 95.3,329.9 109.9,359.6 			"/>
			<g id="XMLID_2_">
				<path id="XMLID_4029_" class="st6" d="M362.2,268h78.6c6.6,0,11.8,5.3,11.8,11.9v15.2c0,6.6-5.2,11.9-11.8,11.9h-19.4
					c-1.2,4,2.3,8,2.3,8s-12.3,3-13.4-8h-48c-6.6,0-12.7-5.3-12.7-11.9v-15.2C349.5,273.3,355.6,268,362.2,268z"/>
				<path id="XMLID_64_" class="st7" d="M372.7,283.7l-3,9.6l-1.8,0l-1.7-6.8l-1.7,6.8l-1.8,0l-3-9.6l2.1,0l1.8,7l1.7-7l1.9,0l1.7,7
					l1.8-7L372.7,283.7z"/>
				<path id="XMLID_66_" class="st7" d="M382.4,289.1l-6.8,0c0,1.4,0.8,2.6,2.4,2.6c1,0,2-0.6,2.5-1.6l1.7,0.7
					c-0.9,1.8-2,2.7-4.2,2.7c-3.2,0-4.5-2.7-4.5-4.9c0-2.3,1.3-4.9,4.5-4.9c3.1,0,4.4,2.5,4.4,4.6L382.4,289.1z M375.7,287.4l4.7,0
					c-0.2-1.1-0.9-2.1-2.3-2.1C376.7,285.3,375.9,286.2,375.7,287.4z"/>
				<path id="XMLID_69_" class="st7" d="M386.6,279.8l0,13.5l-2,0l0-13.5L386.6,279.8z"/>
				<path id="XMLID_71_" class="st7" d="M397.3,290.8c-0.8,1.7-2.1,2.6-4.1,2.6c-3,0-4.5-2.3-4.5-4.9c0-2.6,1.5-4.9,4.5-4.9
					c2,0,3.4,0.9,4.1,2.6l-1.8,0.8c-0.5-1-1.2-1.7-2.4-1.7c-1.7,0-2.4,1.4-2.4,3.2c0,1.8,0.7,3.2,2.4,3.2c1.1,0,1.9-0.6,2.4-1.7
					L397.3,290.8z"/>
				<path id="XMLID_73_" class="st7" d="M403.7,283.6c3,0,4.7,2.2,4.7,4.9c0,2.7-1.8,4.9-4.7,4.9c-3,0-4.7-2.2-4.7-4.9
					S400.7,283.6,403.7,283.6z M403.7,291.7c1.7,0,2.6-1.6,2.6-3.2s-0.9-3.2-2.6-3.2c-1.7,0-2.6,1.6-2.6,3.2
					C401,290.1,401.9,291.7,403.7,291.7z"/>
				<path id="XMLID_76_" class="st7" d="M412.7,283.7l0,1.6c0.8-1.2,1.7-1.8,2.9-1.8c1.3,0,2.4,0.8,2.6,2c0.7-1.3,1.7-2,3-2
					c1.7,0,2.7,1.2,2.7,2.9l0,6.9l-2,0l0-6.4c0-1-0.6-1.6-1.4-1.6c-1.2,0-2.2,1.5-2.2,4.1l0,3.8l-2,0l0-6.4c0-1-0.6-1.6-1.4-1.6
					c-1.2,0-2.2,1.5-2.2,4.4l0,3.6l-2,0l0-9.6L412.7,283.7z"/>
				<path id="XMLID_78_" class="st7" d="M435,289.1l-6.8,0c0,1.4,0.8,2.6,2.4,2.6c1,0,2-0.6,2.5-1.6l1.7,0.7c-0.9,1.8-2,2.7-4.2,2.7
					c-3.2,0-4.5-2.7-4.5-4.9c0-2.3,1.3-4.9,4.5-4.9c3.1,0,4.4,2.5,4.4,4.6L435,289.1z M428.3,287.4l4.7,0c-0.2-1.1-0.9-2.1-2.3-2.1
					C429.3,285.3,428.5,286.2,428.3,287.4z"/>
				<path id="XMLID_81_" class="st7" d="M439.2,290.5c0.8,0,1.4,0.6,1.4,1.4s-0.6,1.4-1.4,1.4s-1.4-0.6-1.4-1.4
					S438.4,290.5,439.2,290.5z M440.6,280l-0.5,9.1l-1.7,0l-0.5-9.1L440.6,280z"/>
			</g>
			<path id="XMLID_4011_" class="st5" d="M702.5,529.9c-75.1,54.9-138.4,31.4-168.6-15c-36-55.4-0.3-127.1,2.3-132.3"/>
			<polygon id="XMLID_4010_" class="st2" points="552,390 547.5,358.2 518.9,374.8 			"/>
			<path id="XMLID_4002_" class="st5" d="M846.7,547.4c-9.1-64.5,17.7-88.9,41.4-95.9c17.6-5.2,41.8,1.2,62-8.1
				c25.5-11.7,38.1-34.9,41.8-60.4"/>
			<polygon id="XMLID_4001_" class="st2" points="973.9,381.9 995.3,357.9 1009.9,387.6 			"/>
			<g id="XMLID_145_">
				<path id="XMLID_3999_" class="st5" d="M576.7,233.4c-9.1-64.5,17.7-88.9,41.4-95.9c17.6-5.2,41.8,1.2,62-8.1
					c25.5-11.7,38.1-34.9,41.8-60.4"/>
				<polygon id="XMLID_3998_" class="st2" points="703.9,67.9 725.3,43.9 739.9,73.6 				"/>
			</g>
			<g id="XMLID_151_">
				<path id="XMLID_3996_" class="st6" d="M627.7,22h-63.6c-6.6,0-12.7,5.3-12.7,11.9v15.2c0,6.6,6.1,11.9,12.7,11.9h4.4
					c1.2,4-2.3,8-2.3,8s12.3,3,13.4-8h48c6.6,0,11.8-5.3,11.8-11.9V33.9C639.5,27.3,634.3,22,627.7,22z"/>
				<path id="XMLID_3994_" class="st7" d="M569,39l-1.3,1.1c-0.5-0.6-1.1-0.9-1.7-0.9c-0.5,0-1,0.3-1,1c0,0.7,0.7,1,1.8,1.4
					c1.3,0.5,2.8,1.1,2.8,2.9c0,1.7-1.3,3.1-3.4,3.1c-2,0-3.3-1.4-3.8-2.6L564,44c0.4,0.9,1.1,1.8,2.2,1.8c0.8,0,1.3-0.4,1.3-1.3
					c0-0.9-1.2-1.1-2.3-1.6c-1.1-0.5-2.1-1.2-2.1-2.7c0-1.5,1.3-2.8,3-2.8C567.2,37.4,568.3,38,569,39z"/>
				<path id="XMLID_3991_" class="st7" d="M575.3,41.4h1.7v-0.4c0-1.2-0.9-1.7-1.9-1.7c-0.8,0-1.5,0.4-1.8,1.3l-1.9-0.4
					c0.4-1.7,1.8-2.7,3.7-2.7c2.3,0,3.9,1,3.9,3.9v6.1h-1.7l-0.2-1.3c-0.6,0.9-1.7,1.4-3.1,1.4c-1.6,0-3-0.9-3-3
					C571.1,42.6,572.8,41.4,575.3,41.4z M574.4,45.8c1.3,0,2.6-0.8,2.6-2.5v-0.2h-1.8c-1.3,0-2,0.6-2,1.5
					C573.2,45.3,573.6,45.8,574.4,45.8z"/>
				<path id="XMLID_3989_" class="st7" d="M583.7,33.6v13.9h-2V33.6H583.7z"/>
				<path id="XMLID_3986_" class="st7" d="M590.2,41.4h1.7v-0.4c0-1.2-0.9-1.7-1.9-1.7c-0.8,0-1.5,0.4-1.8,1.3l-1.9-0.4
					c0.4-1.7,1.8-2.7,3.7-2.7c2.3,0,3.9,1,3.9,3.9v6.1h-1.7l-0.2-1.3c-0.6,0.9-1.7,1.4-3.1,1.4c-1.6,0-3-0.9-3-3
					C586,42.6,587.7,41.4,590.2,41.4z M589.4,45.8c1.3,0,2.6-0.8,2.6-2.5v-0.2h-1.8c-1.3,0-2,0.6-2,1.5
					C588.1,45.3,588.5,45.8,589.4,45.8z"/>
				<path id="XMLID_3983_" class="st7" d="M600.2,41.4h1.7v-0.4c0-1.2-0.9-1.7-1.9-1.7c-0.8,0-1.5,0.4-1.8,1.3l-1.9-0.4
					c0.4-1.7,1.8-2.7,3.7-2.7c2.3,0,3.9,1,3.9,3.9v6.1h-1.7l-0.2-1.3c-0.6,0.9-1.7,1.4-3.1,1.4c-1.6,0-3-0.9-3-3
					C595.9,42.6,597.7,41.4,600.2,41.4z M599.3,45.8c1.3,0,2.6-0.8,2.6-2.5v-0.2h-1.8c-1.3,0-2,0.6-2,1.5
					C598.1,45.3,598.5,45.8,599.3,45.8z"/>
				<path id="XMLID_3981_" class="st7" d="M608.5,37.6v1.7c0.8-1.2,1.8-1.8,3-1.8c1.3,0,2.4,0.8,2.7,2c0.7-1.3,1.8-2,3.1-2
					c1.8,0,2.8,1.2,2.8,3v7.1h-2v-6.6c0-1.1-0.6-1.6-1.4-1.6c-1.2,0-2.3,1.5-2.3,4.3v4h-2v-6.6c0-1.1-0.6-1.6-1.4-1.6
					c-1.2,0-2.3,1.5-2.3,4.5v3.7h-2v-9.9H608.5z"/>
				<path id="XMLID_3978_" class="st7" d="M625.1,44.6c0.9,0,1.5,0.6,1.5,1.5c0,0.8-0.6,1.5-1.5,1.5c-0.9,0-1.5-0.6-1.5-1.5
					C623.7,45.2,624.3,44.6,625.1,44.6z M626.5,33.7l-0.5,9.4h-1.7l-0.5-9.4H626.5z"/>
			</g>
			<path id="XMLID_3954_" class="st8" d="M98.8,32c18.9-18.9,49-19.2,67.4-0.8"/>
			<path id="XMLID_3953_" class="st8" d="M106.5,42.1c14.5-14.5,37.7-14.8,51.9-0.7"/>
			<path id="XMLID_3952_" class="st8" d="M114.2,52.2c10.1-10.1,26.4-10.4,36.3-0.5"/>
			<circle id="XMLID_3951_" class="st7" cx="132.5" cy="62.8" r="6.1"/>
			<path id="XMLID_3949_" class="st8" d="M396.8,388c18.9-18.9,49-19.2,67.4-0.8"/>
			<path id="XMLID_3948_" class="st8" d="M404.5,398.1c14.5-14.5,37.7-14.8,51.9-0.7"/>
			<path id="XMLID_3947_" class="st8" d="M412.2,408.2c10.1-10.1,26.4-10.4,36.3-0.5"/>
			<circle id="XMLID_3946_" class="st7" cx="430.5" cy="418.8" r="6.1"/>
			<path id="XMLID_3944_" class="st8" d="M893.8,257c18.9-18.9,49-19.2,67.4-0.8"/>
			<path id="XMLID_3943_" class="st8" d="M901.5,267.1c14.5-14.5,37.7-14.8,51.9-0.7"/>
			<path id="XMLID_3942_" class="st8" d="M909.2,277.2c10.1-10.1,26.4-10.4,36.3-0.5"/>
			<circle id="XMLID_3941_" class="st7" cx="927.5" cy="287.8" r="6.1"/>
			<polyline id="XMLID_3935_" class="st8" points="200.9,111.1 184.2,121.8 200.9,133.7 			"/>
			<polyline id="XMLID_3934_" class="st8" points="240.3,133.7 257,122.9 240.3,111.1 			"/>
			<line id="XMLID_3933_" class="st9" x1="209.9" y1="141.7" x2="231.3" y2="102.6"/>
			<polyline id="XMLID_3927_" class="st8" points="707.9,163.1 691.2,173.8 707.9,185.7 			"/>
			<polyline id="XMLID_3926_" class="st8" points="747.3,185.7 764,174.9 747.3,163.1 			"/>
			<line id="XMLID_3925_" class="st9" x1="716.9" y1="193.7" x2="738.3" y2="154.6"/>
			<polyline id="XMLID_3923_" class="st8" points="1091.9,389.1 1075.2,399.8 1091.9,411.7 			"/>
			<polyline id="XMLID_3922_" class="st8" points="1131.3,411.7 1148,400.9 1131.3,389.1 			"/>
			<line id="XMLID_3921_" class="st9" x1="1100.9" y1="419.7" x2="1122.3" y2="380.6"/>
			<circle id="XMLID_3901_" class="st6" cx="240.5" cy="401.8" r="21"/>
			<path id="XMLID_3898_" class="st7" d="M240.4,387.9c1.6,0,2.8,1.3,2.8,2.8c0,1.5-1.2,2.7-2.8,2.7c-1.6,0-2.8-1.2-2.8-2.7
				C237.6,389.2,238.8,387.9,240.4,387.9z M242.4,396.2l0,19.4h-4v-19.4H242.4z"/>
			<g id="XMLID_12_">
				<circle id="XMLID_3895_" class="st6" cx="1083.5" cy="216.8" r="21"/>
				<path id="XMLID_3892_" class="st7" d="M1083.4,202.9c1.6,0,2.8,1.3,2.8,2.8c0,1.5-1.2,2.7-2.8,2.7c-1.6,0-2.8-1.2-2.8-2.7
					C1080.6,204.2,1081.8,202.9,1083.4,202.9z M1085.4,211.2v19.4h-4v-19.4H1085.4z"/>
			</g>
			<path id="XMLID_3883_" class="st6" d="M437.4,127.8h-21.8c-5.1,0-9.3-4.2-9.3-9.3V73.3c0-5.1,4.2-9.3,9.3-9.3h21.8
				c5.1,0,9.3,4.2,9.3,9.3v45.1C446.7,123.6,442.5,127.8,437.4,127.8z"/>
			<line id="XMLID_3882_" class="st6" x1="405" y1="114" x2="446" y2="114"/>
			<circle id="XMLID_3881_" class="st7" cx="434.6" cy="75.9" r="3.2"/>
			<path id="XMLID_3879_" class="st8" d="M456.6,70.4c0-9.5-7.7-17.3-17.3-17.3"/>
			<path id="XMLID_3878_" class="st8" d="M468.1,68.9c0-14.8-12-26.8-26.8-26.8"/>
			<path id="XMLID_1_" class="st6" d="M755.2,381h106.6c6.6,0,11.8,5.3,11.8,11.9v15.2c0,6.6-5.2,11.9-11.8,11.9h-19.4
				c-1.2,4,2.3,8,2.3,8s-12.3,3-13.4-8h-76c-6.6,0-12.7-5.3-12.7-11.9v-15.2C742.5,386.3,748.6,381,755.2,381z"/>
			<g id="XMLID_4_">
				<path id="XMLID_7_" class="st7" d="M767.2,396.5l-3,9.6l-1.8,0l-1.7-6.8l-1.7,6.8l-1.8,0l-3-9.6l2.1,0l1.8,7l1.7-7l1.9,0l1.7,7
					l1.8-7L767.2,396.5z"/>
				<path id="XMLID_9_" class="st7" d="M769.8,392.4c0.8,0,1.4,0.6,1.4,1.4c0,0.8-0.6,1.4-1.4,1.4s-1.4-0.6-1.4-1.4
					C768.4,393,769,392.4,769.8,392.4z M770.8,396.5l0,9.6l-2,0l0-9.6L770.8,396.5z"/>
				<path id="XMLID_42_" class="st7" d="M775.3,392.6l0,13.5l-2,0l0-13.5L775.3,392.6z"/>
				<path id="XMLID_44_" class="st7" d="M779.9,392.6l0,13.5l-2,0l0-13.5L779.9,392.6z"/>
				<path id="XMLID_46_" class="st7" d="M784.6,392.6l0,7.7l3.5-3.8l2.5,0l-4,4.4l4.3,5.2l-2.5,0l-3.7-4.6l0,4.6l-2,0l0-13.5
					L784.6,392.6z"/>
				<path id="XMLID_48_" class="st7" d="M796,396.3c3,0,4.7,2.2,4.7,4.9c0,2.7-1.8,4.9-4.7,4.9c-3,0-4.7-2.2-4.7-4.9
					S793,396.3,796,396.3z M796,404.5c1.7,0,2.6-1.6,2.6-3.2c0-1.6-0.9-3.2-2.6-3.2c-1.7,0-2.6,1.6-2.6,3.2
					C793.4,402.9,794.3,404.5,796,404.5z"/>
				<path id="XMLID_51_" class="st7" d="M805,396.5l0,1.6c0.8-1.2,1.7-1.8,2.9-1.8c1.3,0,2.4,0.8,2.6,2c0.7-1.3,1.7-2,3-2
					c1.7,0,2.7,1.2,2.7,2.9l0,6.9l-2,0l0-6.4c0-1-0.6-1.6-1.4-1.6c-1.2,0-2.2,1.5-2.2,4.1l0,3.8l-2,0l0-6.4c0-1-0.6-1.6-1.4-1.6
					c-1.2,0-2.2,1.5-2.2,4.4l0,3.6l-2,0l0-9.6L805,396.5z"/>
				<path id="XMLID_53_" class="st7" d="M821,396.5l0,1.6c0.8-1.2,1.7-1.8,2.9-1.8c1.3,0,2.4,0.8,2.6,2c0.7-1.3,1.7-2,3-2
					c1.8,0,2.7,1.2,2.7,2.9l0,6.9l-2,0l0-6.4c0-1-0.6-1.6-1.4-1.6c-1.2,0-2.2,1.5-2.2,4.1l0,3.8l-2,0l0-6.4c0-1-0.6-1.6-1.4-1.6
					c-1.2,0-2.2,1.5-2.2,4.4l0,3.6l-2,0l0-9.6L821,396.5z"/>
				<path id="XMLID_55_" class="st7" d="M843.4,401.8l-6.8,0c0,1.4,0.8,2.6,2.4,2.6c1,0,2-0.6,2.5-1.6l1.7,0.7
					c-0.9,1.8-2,2.7-4.2,2.7c-3.2,0-4.5-2.7-4.5-4.9c0-2.3,1.3-4.9,4.5-4.9c3.1,0,4.4,2.5,4.4,4.6L843.4,401.8z M836.6,400.2l4.7,0
					c-0.2-1.1-0.9-2.1-2.3-2.1C837.6,398.1,836.8,399,836.6,400.2z"/>
				<path id="XMLID_58_" class="st7" d="M847.4,396.5l0,1.6c0.7-1.1,1.8-1.8,3.1-1.8c1.7,0,2.8,1,2.8,2.9l0,6.9l-2,0l0-6.2
					c0-1.3-0.6-1.7-1.5-1.7c-1.2,0-2.5,1.5-2.5,4.1l0,3.9l-2,0l0-9.6L847.4,396.5z"/>
				<path id="XMLID_60_" class="st7" d="M858.3,403.3c0.8,0,1.4,0.6,1.4,1.4s-0.6,1.4-1.4,1.4s-1.4-0.6-1.4-1.4
					S857.4,403.3,858.3,403.3z M859.6,392.7l-0.5,9.1l-1.7,0l-0.5-9.1L859.6,392.7z"/>
			</g>
		</g>
	</g>
</g>
</svg>
