<?xml version="1.0" encoding="utf-8"?>
<!-- Generator: Adobe Illustrator 16.0.0, SVG Export Plug-In . SVG Version: 6.00 Build 0)  -->
<!DOCTYPE svg PUBLIC "-//W3C//DTD SVG 1.0//EN" "http://www.w3.org/TR/2001/REC-SVG-20010904/DTD/svg10.dtd">
<svg version="1.0" id="Ebene_1" xmlns="http://www.w3.org/2000/svg" xmlns:xlink="http://www.w3.org/1999/xlink" x="0px" y="0px"
	 width="1280px" height="450px" viewBox="0 0 1280 450" enable-background="new 0 0 1280 450" xml:space="preserve">
<polygon fill="#03A678" points="0,-1.772 0,450 1299.766,450 1299.985,-1.772 "/>
<polygon fill="none" stroke="#66CC99" stroke-width="4.38" stroke-miterlimit="10" points="282.9,206.705 250.938,209.703 
	266.2,239.085 "/>
<g>
	<defs>
		<polygon id="SVGID_1_" points="1.466,-0.774 1.25,601.915 1280,601.915 1280,-0.774 		"/>
	</defs>
	<clipPath id="SVGID_2_">
		<use xlink:href="#SVGID_1_"  overflow="visible"/>
	</clipPath>
	<path clip-path="url(#SVGID_2_)" fill="none" stroke="#66CC99" stroke-width="4.38" stroke-miterlimit="10" d="M180,525.974
		c-1.061-1.309-2.097-2.615-3.108-3.917"/>
	
		<path clip-path="url(#SVGID_2_)" fill="none" stroke="#66CC99" stroke-width="4.38" stroke-miterlimit="10" stroke-dasharray="10.063,10.063" d="
		M170.892,513.974c-52.159-73.639-26.856-134.111-4.892-150c47-34,101.006,6.299,133-38c23.527-32.576,8.569-79.891-18.199-98.229"
		/>
	<path clip-path="url(#SVGID_2_)" fill="none" stroke="#66CC99" stroke-width="4.38" stroke-miterlimit="10" d="M276.515,225.115
		c-1.477-0.803-2.983-1.519-4.514-2.142"/>
	<polygon clip-path="url(#SVGID_2_)" fill="none" stroke="#66CC99" stroke-width="4.38" stroke-miterlimit="10" points="
		974.9,63.705 942.938,66.703 958.199,96.084 	"/>
	<path clip-path="url(#SVGID_2_)" fill="none" stroke="#66CC99" stroke-width="4.38" stroke-miterlimit="10" d="M872,382.974
		c-1.355-1.008-2.679-2.02-3.975-3.034"/>
	
		<path clip-path="url(#SVGID_2_)" fill="none" stroke="#66CC99" stroke-width="4.38" stroke-miterlimit="10" stroke-dasharray="9.973,9.973" d="
		M860.334,373.585c-74.461-64.969-34.76-139.26-2.334-152.61c57.724-23.77,101.007,6.299,133-38
		c23.539-32.592,8.556-79.935-18.236-98.255"/>
	<path clip-path="url(#SVGID_2_)" fill="none" stroke="#66CC99" stroke-width="4.38" stroke-miterlimit="10" d="M968.515,82.115
		c-1.478-0.803-2.983-1.519-4.515-2.141"/>
	<polygon clip-path="url(#SVGID_2_)" fill="none" stroke="#66CC99" stroke-width="4.38" stroke-miterlimit="10" points="
		1189.129,132.742 1157.502,127.228 1164.5,159.59 	"/>
	
		<path clip-path="url(#SVGID_2_)" fill="none" stroke="#66CC99" stroke-width="4.38" stroke-miterlimit="10" stroke-dasharray="10,10" d="
		M988.727,308.384c54.54,49.045,132.756,49.525,177.964,8.512c51.147-46.402,55.181-141.51,9.285-170.999"/>
	<polygon clip-path="url(#SVGID_2_)" fill="none" stroke="#66CC99" stroke-width="4.38" stroke-miterlimit="10" points="
		31.493,84.742 63.12,79.228 56.122,111.59 	"/>
	
		<path clip-path="url(#SVGID_2_)" fill="none" stroke="#66CC99" stroke-width="4.38" stroke-miterlimit="10" stroke-dasharray="10,10" d="
		M231.895,260.384c-54.54,49.045-132.756,49.525-177.964,8.512C2.784,222.493-1.25,127.385,44.646,97.896"/>
	<polygon clip-path="url(#SVGID_2_)" fill="none" stroke="#66CC99" stroke-width="4.38" stroke-miterlimit="10" points="
		1208.648,62.121 1227.555,36.176 1245.016,64.307 	"/>
	
		<path clip-path="url(#SVGID_2_)" fill="none" stroke="#66CC99" stroke-width="4.38" stroke-miterlimit="10" stroke-dasharray="10,10" d="
		M1474.811,49.123c-5.127,73.169-61.03,127.876-122.039,129.807c-69.025,2.185-138.027-63.392-125.524-116.494"/>
	
		<path clip-path="url(#SVGID_2_)" fill="none" stroke="#66CC99" stroke-width="4.38" stroke-miterlimit="10" stroke-dasharray="10,10" d="
		M656,353.974c-75.054,54.938-138.408,31.424-168.585-15.002c-35.98-55.354-0.292-127.099,2.322-132.312"/>
	<polygon clip-path="url(#SVGID_2_)" fill="none" stroke="#66CC99" stroke-width="4.38" stroke-miterlimit="10" points="
		505.513,214.097 501.05,182.305 472.4,198.899 	"/>
	<path clip-path="url(#SVGID_2_)" fill="none" stroke="#66CC99" stroke-width="5" stroke-miterlimit="10" d="M170.63,638.043h-31.76
		c-5.169,0-9.398-4.229-9.398-9.396v-21.485c0-5.169,4.229-9.396,9.398-9.396h31.76c5.169,0,9.397,4.228,9.397,9.396v21.485
		C180.027,633.814,175.799,638.043,170.63,638.043z"/>
	<path clip-path="url(#SVGID_2_)" fill="none" stroke="#66CC99" stroke-width="5" stroke-miterlimit="10" d="M145.502,597.82v-2.989
		c0-5.169,4.229-9.398,9.397-9.398h0.523c5.169,0,9.398,4.229,9.398,9.398v2.989"/>
	<polygon clip-path="url(#SVGID_2_)" fill="none" stroke="#66CC99" stroke-width="5" stroke-miterlimit="10" points="160,207.01 
		123.033,179.894 85.5,207.01 85.5,191.757 123.033,164.641 159.876,191.757 	"/>
	<polyline clip-path="url(#SVGID_2_)" fill="none" stroke="#66CC99" stroke-width="5" stroke-miterlimit="10" points="
		147.839,198.796 147.839,228.963 98.839,228.963 98.839,198.796 	"/>
	<polygon clip-path="url(#SVGID_2_)" fill="none" stroke="#66CC99" stroke-width="5" stroke-miterlimit="10" points="
		1121.727,71.937 1084.896,44.821 1047.5,71.937 1047.5,56.684 1084.896,29.568 1121.671,56.684 	"/>
	<polyline clip-path="url(#SVGID_2_)" fill="none" stroke="#66CC99" stroke-width="5" stroke-miterlimit="10" points="
		1109.497,63.723 1109.497,93.89 1060.497,93.89 1060.497,63.723 	"/>
	
		<line clip-path="url(#SVGID_2_)" fill="none" stroke="#66CC99" stroke-width="5" stroke-miterlimit="10" x1="812.64" y1="133.6" x2="839" y2="180.474"/>
	<polygon clip-path="url(#SVGID_2_)" fill="none" stroke="#66CC99" stroke-width="5" stroke-miterlimit="10" points="
		872.773,99.128 811.954,132.761 796.226,104.32 857.046,70.687 880.161,75.014 	"/>
	
		<path clip-path="url(#SVGID_2_)" fill="none" stroke="#66CC99" stroke-width="4.38" stroke-miterlimit="10" stroke-dasharray="10,10" d="
		M614,478.974c65.021,3.818,87.175-24.88,92.209-49.047c3.734-17.924-4.589-41.518,3.021-62.431
		c9.597-26.375,31.719-40.781,56.77-46.522"/>
	<polygon clip-path="url(#SVGID_2_)" fill="none" stroke="#66CC99" stroke-width="4.38" stroke-miterlimit="10" points="
		768.676,338.69 790.863,315.488 760.085,303.285 	"/>
	
		<path clip-path="url(#SVGID_2_)" fill="none" stroke="#66CC99" stroke-width="4.38" stroke-miterlimit="10" stroke-dasharray="10,10" d="
		M438.864,208.974c-65.022,3.818-87.175-24.88-92.209-49.047c-3.734-17.924,4.588-41.518-3.021-62.431
		c-9.597-26.375-31.719-40.781-56.77-46.522"/>
	<polygon clip-path="url(#SVGID_2_)" fill="none" stroke="#66CC99" stroke-width="4.38" stroke-miterlimit="10" points="
		284.188,68.691 262,45.488 292.778,33.285 	"/>
	
		<path clip-path="url(#SVGID_2_)" fill="none" stroke="#66CC99" stroke-width="4.38" stroke-miterlimit="10" stroke-dasharray="10,10" d="
		M1340.863,529.974c-65.021,3.818-87.175-24.88-92.209-49.047c-3.734-17.924,4.589-41.518-3.021-62.431
		c-9.598-26.375-31.72-40.781-56.771-46.522"/>
	<polygon clip-path="url(#SVGID_2_)" fill="none" stroke="#66CC99" stroke-width="4.38" stroke-miterlimit="10" points="
		1186.188,389.691 1164,366.488 1194.778,354.285 	"/>
	
		<path clip-path="url(#SVGID_2_)" fill="none" stroke="#66CC99" stroke-width="4.38" stroke-miterlimit="10" stroke-dasharray="10,10" d="
		M-91.775,540.557c-9.082-64.497,17.724-88.906,41.402-95.887c17.562-5.176,41.753,1.205,61.98-8.076
		c25.509-11.706,38.073-34.925,41.761-60.358"/>
	<polygon clip-path="url(#SVGID_2_)" fill="none" stroke="#66CC99" stroke-width="4.38" stroke-miterlimit="10" points="
		35.493,375.006 56.818,351.009 71.479,380.695 	"/>
	<path clip-path="url(#SVGID_2_)" fill="none" stroke="#66CC99" stroke-width="5" stroke-miterlimit="10" d="M359.711,277.415
		h40.557c6.6,0,12.232,4.959,12.232,11.559v15.187c0,6.6-5.632,12.255-12.232,12.255h-4.402c-1.171,4,2.266,7.955,2.266,7.955
		s-12.286,3.045-13.406-7.955h-25.015c-6.6,0-12.211-5.655-12.211-12.255v-15.187C347.5,282.374,353.111,277.415,359.711,277.415z"
		/>
	<path clip-path="url(#SVGID_2_)" fill="#66CC99" d="M360.01,289.825v5.322c0.662-0.955,1.726-1.726,3.12-1.726
		c1.707,0,2.735,0.918,2.735,2.882v6.517h-1.908V296.8c0-1.414-0.587-1.689-1.45-1.689c-1.046,0-2.497,1.341-2.497,3.8v3.91h-1.908
		v-12.995H360.01z"/>
	<path clip-path="url(#SVGID_2_)" fill="#66CC99" d="M376.423,298.727h-6.552c0,1.358,0.789,2.552,2.294,2.552
		c0.991,0,1.946-0.552,2.423-1.561l1.633,0.643c-0.899,1.743-1.946,2.605-4.056,2.605c-3.047,0-4.313-2.569-4.313-4.771
		s1.266-4.772,4.313-4.772c2.955,0,4.258,2.405,4.258,4.478V298.727z M369.908,297.13h4.497c-0.164-1.028-0.862-2.019-2.239-2.019
		C370.898,295.111,370.109,295.973,369.908,297.13"/>
	<rect x="378.504" y="289.824" clip-path="url(#SVGID_2_)" fill="#66CC99" width="1.908" height="12.995"/>
	<rect x="382.913" y="289.824" clip-path="url(#SVGID_2_)" fill="#66CC99" width="1.908" height="12.995"/>
	<path clip-path="url(#SVGID_2_)" fill="#66CC99" d="M391.431,293.422c2.862,0,4.551,2.166,4.551,4.771
		c0,2.607-1.689,4.772-4.551,4.772c-2.863,0-4.552-2.165-4.552-4.772C386.879,295.588,388.568,293.422,391.431,293.422
		 M391.431,301.277c1.669,0,2.532-1.523,2.532-3.084c0-1.56-0.863-3.083-2.532-3.083c-1.671,0-2.533,1.523-2.533,3.083
		C388.898,299.754,389.76,301.277,391.431,301.277"/>
	<path clip-path="url(#SVGID_2_)" fill="#66CC99" d="M400.154,300.14c0.807,0,1.394,0.588,1.394,1.377s-0.587,1.376-1.394,1.376
		s-1.395-0.587-1.395-1.376S399.347,300.14,400.154,300.14 M401.458,289.972l-0.496,8.792h-1.614l-0.496-8.792H401.458z"/>
	
		<path clip-path="url(#SVGID_2_)" fill="none" stroke="#66CC99" stroke-width="4.38" stroke-miterlimit="10" stroke-dasharray="10,10" d="
		M683,586.974c-75.054,54.938-138.408,31.424-168.585-15.002c-35.98-55.354-0.292-127.099,2.322-132.312"/>
	<polygon clip-path="url(#SVGID_2_)" fill="none" stroke="#66CC99" stroke-width="4.38" stroke-miterlimit="10" points="
		532.513,447.097 528.05,415.305 499.4,431.899 	"/>
	<polygon clip-path="url(#SVGID_2_)" fill="none" stroke="#66CC99" stroke-width="5" stroke-miterlimit="10" points="
		363.463,492.319 326.265,465.204 288.5,492.319 288.5,477.066 326.265,449.95 363.224,477.066 	"/>
	<polyline clip-path="url(#SVGID_2_)" fill="none" stroke="#66CC99" stroke-width="5" stroke-miterlimit="10" points="
		351.303,484.105 351.303,514.272 302.303,514.272 302.303,484.105 	"/>
	
		<line clip-path="url(#SVGID_2_)" fill="none" stroke="#66CC99" stroke-width="5" stroke-miterlimit="10" x1="103.748" y1="546.6" x2="77.387" y2="593.474"/>
	<polygon clip-path="url(#SVGID_2_)" fill="none" stroke="#66CC99" stroke-width="5" stroke-miterlimit="10" points="
		43.614,512.128 104.434,545.761 120.162,517.32 59.342,483.687 36.227,488.014 	"/>
	
		<path clip-path="url(#SVGID_2_)" fill="none" stroke="#66CC99" stroke-width="4.38" stroke-miterlimit="10" stroke-dasharray="10,10" d="
		M853.225,562.557c-9.082-64.497,17.725-88.906,41.402-95.887c17.562-5.176,41.753,1.205,61.979-8.076
		c25.51-11.706,38.073-34.925,41.762-60.358"/>
	<polygon clip-path="url(#SVGID_2_)" fill="none" stroke="#66CC99" stroke-width="4.38" stroke-miterlimit="10" points="
		980.492,397.006 1001.818,373.009 1016.479,402.695 	"/>
	
		<path clip-path="url(#SVGID_2_)" fill="none" stroke="#66CC99" stroke-width="4.38" stroke-miterlimit="10" stroke-dasharray="10,10" d="
		M619.225,216.557c-9.082-64.497,17.724-88.906,41.402-95.886c17.562-5.176,41.753,1.205,61.979-8.077
		c25.51-11.706,38.073-34.924,41.762-60.358"/>
	<polygon clip-path="url(#SVGID_2_)" fill="none" stroke="#66CC99" stroke-width="4.38" stroke-miterlimit="10" points="
		746.492,51.006 767.818,27.009 782.479,56.696 	"/>
	<path clip-path="url(#SVGID_2_)" fill="none" stroke="#66CC99" stroke-width="5" stroke-miterlimit="10" d="M615.289,44.415
		h-63.557c-6.6,0-12.232,4.959-12.232,11.559V71.16c0,6.6,5.632,12.255,12.232,12.255h4.402c1.171,4-2.266,7.955-2.266,7.955
		s12.286,3.045,13.406-7.955h48.015c6.6,0,12.211-5.655,12.211-12.255V55.974C627.5,49.374,621.889,44.415,615.289,44.415z"/>
	<path clip-path="url(#SVGID_2_)" fill="#66CC99" d="M556.503,61.085l-1.292,1.136c-0.489-0.626-1.096-0.9-1.722-0.9
		c-0.509,0-0.978,0.333-0.978,0.978c0,0.705,0.743,1.019,1.761,1.409c1.331,0.51,2.76,1.097,2.76,2.858
		c0,1.704-1.312,3.132-3.426,3.132c-2.035,0-3.308-1.409-3.817-2.643l1.723-0.939c0.391,0.88,1.077,1.781,2.172,1.781
		c0.784,0,1.332-0.391,1.332-1.291c0-0.862-1.195-1.097-2.349-1.586c-1.135-0.47-2.114-1.194-2.114-2.701
		c0-1.527,1.252-2.799,3.034-2.799C554.781,59.52,555.877,60.106,556.503,61.085"/>
	<path clip-path="url(#SVGID_2_)" fill="#66CC99" d="M562.87,63.474h1.702v-0.43c0-1.234-0.88-1.723-1.918-1.723
		c-0.802,0-1.506,0.43-1.84,1.312l-1.859-0.392c0.411-1.664,1.82-2.721,3.719-2.721c2.291,0,3.935,0.998,3.935,3.895v6.127h-1.723
		l-0.196-1.293c-0.646,0.901-1.663,1.449-3.053,1.449c-1.644,0-3.034-0.939-3.034-2.995
		C558.603,64.668,560.345,63.474,562.87,63.474 M561.989,67.896c1.253,0,2.583-0.802,2.583-2.505v-0.216h-1.781
		c-1.252,0-2.035,0.588-2.035,1.527C560.756,67.369,561.128,67.896,561.989,67.896"/>
	<rect x="569.198" y="55.683" clip-path="url(#SVGID_2_)" fill="#66CC99" width="2.036" height="13.858"/>
	<path clip-path="url(#SVGID_2_)" fill="#66CC99" d="M577.793,63.474h1.702v-0.43c0-1.234-0.88-1.723-1.918-1.723
		c-0.802,0-1.506,0.43-1.84,1.312l-1.859-0.392c0.412-1.664,1.82-2.721,3.719-2.721c2.291,0,3.935,0.998,3.935,3.895v6.127h-1.723
		l-0.196-1.293c-0.646,0.901-1.663,1.449-3.053,1.449c-1.644,0-3.034-0.939-3.034-2.995
		C573.526,64.668,575.268,63.474,577.793,63.474 M576.912,67.896c1.253,0,2.583-0.802,2.583-2.505v-0.216h-1.781
		c-1.252,0-2.035,0.588-2.035,1.527C575.679,67.369,576.051,67.896,576.912,67.896"/>
	<path clip-path="url(#SVGID_2_)" fill="#66CC99" d="M587.762,63.474h1.702v-0.43c0-1.234-0.88-1.723-1.918-1.723
		c-0.802,0-1.507,0.43-1.84,1.312l-1.859-0.392c0.411-1.664,1.82-2.721,3.719-2.721c2.291,0,3.935,0.998,3.935,3.895v6.127h-1.723
		l-0.196-1.293c-0.646,0.901-1.663,1.449-3.053,1.449c-1.644,0-3.034-0.939-3.034-2.995
		C583.495,64.668,585.236,63.474,587.762,63.474 M586.88,67.896c1.253,0,2.583-0.802,2.583-2.505v-0.216h-1.781
		c-1.252,0-2.035,0.588-2.035,1.527C585.647,67.369,586.02,67.896,586.88,67.896"/>
	<path clip-path="url(#SVGID_2_)" fill="#66CC99" d="M596.066,59.676v1.683c0.802-1.232,1.781-1.839,2.975-1.839
		c1.331,0,2.427,0.803,2.721,2.035c0.685-1.291,1.8-2.035,3.073-2.035c1.801,0,2.818,1.233,2.818,2.955v7.066h-2.036v-6.615
		c0-1.078-0.586-1.604-1.447-1.604c-1.214,0-2.311,1.546-2.311,4.266v3.954h-2.035v-6.615c0-1.078-0.587-1.604-1.449-1.604
		c-1.232,0-2.309,1.546-2.309,4.481v3.739h-2.036v-9.865H596.066z"/>
	<path clip-path="url(#SVGID_2_)" fill="#66CC99" d="M612.693,66.684c0.862,0,1.488,0.626,1.488,1.468
		c0,0.841-0.626,1.468-1.488,1.468c-0.861,0-1.488-0.627-1.488-1.468C611.205,67.31,611.832,66.684,612.693,66.684 M614.083,55.84
		l-0.528,9.376h-1.723l-0.529-9.376H614.083z"/>
	<path clip-path="url(#SVGID_2_)" fill="none" stroke="#66CC99" stroke-width="5" stroke-miterlimit="10" d="M1159.289,520.415
		h-63.557c-6.601,0-12.232,4.959-12.232,11.559v15.187c0,6.6,5.632,12.255,12.232,12.255h4.401c1.171,4-2.266,7.955-2.266,7.955
		s12.286,3.045,13.405-7.955h48.016c6.6,0,12.211-5.655,12.211-12.255v-15.187C1171.5,525.374,1165.889,520.415,1159.289,520.415z"
		/>
	<path clip-path="url(#SVGID_2_)" fill="#66CC99" d="M1100.503,537.085l-1.292,1.136c-0.488-0.626-1.095-0.899-1.722-0.899
		c-0.509,0-0.978,0.333-0.978,0.978c0,0.705,0.742,1.02,1.761,1.409c1.331,0.51,2.76,1.097,2.76,2.858
		c0,1.703-1.312,3.132-3.426,3.132c-2.035,0-3.309-1.409-3.817-2.644l1.723-0.938c0.392,0.879,1.077,1.779,2.173,1.779
		c0.784,0,1.332-0.391,1.332-1.291c0-0.861-1.195-1.097-2.35-1.586c-1.135-0.47-2.114-1.193-2.114-2.7c0-1.527,1.252-2.8,3.034-2.8
		C1098.781,535.52,1099.877,536.105,1100.503,537.085"/>
	<path clip-path="url(#SVGID_2_)" fill="#66CC99" d="M1106.87,539.474h1.702v-0.43c0-1.234-0.881-1.724-1.918-1.724
		c-0.803,0-1.508,0.431-1.84,1.312l-1.859-0.392c0.411-1.664,1.82-2.722,3.719-2.722c2.291,0,3.936,0.998,3.936,3.896v6.127h-1.724
		l-0.196-1.293c-0.646,0.9-1.662,1.448-3.053,1.448c-1.644,0-3.034-0.938-3.034-2.994
		C1102.603,540.668,1104.345,539.474,1106.87,539.474 M1105.989,543.896c1.253,0,2.583-0.802,2.583-2.505v-0.216h-1.781
		c-1.252,0-2.035,0.589-2.035,1.527C1104.756,543.369,1105.128,543.896,1105.989,543.896"/>
	<rect x="1113.198" y="531.683" clip-path="url(#SVGID_2_)" fill="#66CC99" width="2.036" height="13.858"/>
	<path clip-path="url(#SVGID_2_)" fill="#66CC99" d="M1121.793,539.474h1.702v-0.43c0-1.234-0.88-1.724-1.918-1.724
		c-0.802,0-1.506,0.431-1.84,1.312l-1.859-0.392c0.411-1.664,1.82-2.722,3.72-2.722c2.291,0,3.935,0.998,3.935,3.896v6.127h-1.723
		l-0.196-1.293c-0.646,0.9-1.663,1.448-3.053,1.448c-1.645,0-3.034-0.938-3.034-2.994
		C1117.526,540.668,1119.269,539.474,1121.793,539.474 M1120.912,543.896c1.253,0,2.583-0.802,2.583-2.505v-0.216h-1.781
		c-1.252,0-2.034,0.589-2.034,1.527C1119.68,543.369,1120.051,543.896,1120.912,543.896"/>
	<path clip-path="url(#SVGID_2_)" fill="#66CC99" d="M1131.761,539.474h1.702v-0.43c0-1.234-0.88-1.724-1.918-1.724
		c-0.802,0-1.507,0.431-1.84,1.312l-1.858-0.392c0.411-1.664,1.819-2.722,3.719-2.722c2.291,0,3.935,0.998,3.935,3.896v6.127h-1.723
		l-0.196-1.293c-0.646,0.9-1.663,1.448-3.053,1.448c-1.644,0-3.034-0.938-3.034-2.994
		C1127.494,540.668,1129.236,539.474,1131.761,539.474 M1130.881,543.896c1.253,0,2.582-0.802,2.582-2.505v-0.216h-1.78
		c-1.252,0-2.035,0.589-2.035,1.527C1129.647,543.369,1130.02,543.896,1130.881,543.896"/>
	<path clip-path="url(#SVGID_2_)" fill="#66CC99" d="M1140.066,535.676v1.684c0.802-1.232,1.78-1.839,2.975-1.839
		c1.331,0,2.427,0.803,2.721,2.034c0.686-1.291,1.801-2.034,3.073-2.034c1.801,0,2.818,1.232,2.818,2.954v7.066h-2.036v-6.615
		c0-1.078-0.586-1.604-1.447-1.604c-1.214,0-2.311,1.546-2.311,4.266v3.954h-2.035v-6.615c0-1.078-0.587-1.604-1.449-1.604
		c-1.232,0-2.309,1.546-2.309,4.48v3.739h-2.036v-9.865H1140.066z"/>
	<path clip-path="url(#SVGID_2_)" fill="#66CC99" d="M1156.693,542.684c0.861,0,1.487,0.626,1.487,1.468s-0.626,1.469-1.487,1.469
		s-1.488-0.627-1.488-1.469S1155.832,542.684,1156.693,542.684 M1158.083,531.84l-0.528,9.376h-1.723l-0.529-9.376H1158.083z"/>
	
		<path clip-path="url(#SVGID_2_)" fill="none" stroke="#66CC99" stroke-width="5" stroke-linecap="round" stroke-miterlimit="10" d="
		M89.342,43.131c18.871-18.871,49.032-19.25,67.435-0.846"/>
	
		<path clip-path="url(#SVGID_2_)" fill="none" stroke="#66CC99" stroke-width="5" stroke-linecap="round" stroke-miterlimit="10" d="
		M97.042,53.243c14.51-14.51,37.702-14.801,51.853-0.651"/>
	
		<path clip-path="url(#SVGID_2_)" fill="none" stroke="#66CC99" stroke-width="5" stroke-linecap="round" stroke-miterlimit="10" d="
		M104.742,63.354c10.149-10.149,26.371-10.353,36.271-0.456"/>
	<path clip-path="url(#SVGID_2_)" fill="#66CC99" d="M129.083,73.897c0,3.355-2.72,6.075-6.074,6.075
		c-3.355,0-6.075-2.72-6.075-6.075c0-3.355,2.72-6.074,6.075-6.074S129.083,70.542,129.083,73.897"/>
	
		<path clip-path="url(#SVGID_2_)" fill="none" stroke="#66CC99" stroke-width="5" stroke-linecap="round" stroke-miterlimit="10" d="
		M387.342,399.132c18.871-18.871,49.033-19.25,67.435-0.847"/>
	
		<path clip-path="url(#SVGID_2_)" fill="none" stroke="#66CC99" stroke-width="5" stroke-linecap="round" stroke-miterlimit="10" d="
		M395.042,409.243c14.51-14.51,37.702-14.801,51.853-0.651"/>
	
		<path clip-path="url(#SVGID_2_)" fill="none" stroke="#66CC99" stroke-width="5" stroke-linecap="round" stroke-miterlimit="10" d="
		M402.742,419.354c10.149-10.148,26.371-10.353,36.271-0.456"/>
	<path clip-path="url(#SVGID_2_)" fill="#66CC99" d="M427.083,429.897c0,3.355-2.72,6.074-6.074,6.074
		c-3.355,0-6.075-2.719-6.075-6.074c0-3.354,2.72-6.074,6.075-6.074S427.083,426.543,427.083,429.897"/>
	
		<path clip-path="url(#SVGID_2_)" fill="none" stroke="#66CC99" stroke-width="5" stroke-linecap="round" stroke-miterlimit="10" d="
		M884.342,268.132c18.871-18.871,49.032-19.25,67.435-0.847"/>
	
		<path clip-path="url(#SVGID_2_)" fill="none" stroke="#66CC99" stroke-width="5" stroke-linecap="round" stroke-miterlimit="10" d="
		M892.042,278.243c14.51-14.51,37.702-14.801,51.853-0.651"/>
	
		<path clip-path="url(#SVGID_2_)" fill="none" stroke="#66CC99" stroke-width="5" stroke-linecap="round" stroke-miterlimit="10" d="
		M899.742,288.354c10.148-10.148,26.371-10.353,36.271-0.456"/>
	<path clip-path="url(#SVGID_2_)" fill="#66CC99" d="M924.083,298.897c0,3.355-2.72,6.074-6.074,6.074s-6.075-2.719-6.075-6.074
		c0-3.354,2.721-6.074,6.075-6.074C921.364,292.823,924.083,295.543,924.083,298.897"/>
	
		<polyline clip-path="url(#SVGID_2_)" fill="none" stroke="#66CC99" stroke-width="5" stroke-linecap="round" stroke-miterlimit="10" points="
		401.457,557.234 384.739,567.943 401.457,579.766 	"/>
	
		<polyline clip-path="url(#SVGID_2_)" fill="none" stroke="#66CC99" stroke-width="5" stroke-linecap="round" stroke-miterlimit="10" points="
		440.81,579.766 457.528,569.057 440.81,557.234 	"/>
	
		<line clip-path="url(#SVGID_2_)" fill="none" stroke="#66CC99" stroke-width="5" stroke-linecap="round" stroke-linejoin="bevel" stroke-miterlimit="10" x1="410.403" y1="587.803" x2="431.862" y2="548.679"/>
	
		<polyline clip-path="url(#SVGID_2_)" fill="none" stroke="#66CC99" stroke-width="5" stroke-linecap="round" stroke-miterlimit="10" points="
		191.457,122.235 174.739,132.944 191.457,144.766 	"/>
	
		<polyline clip-path="url(#SVGID_2_)" fill="none" stroke="#66CC99" stroke-width="5" stroke-linecap="round" stroke-miterlimit="10" points="
		230.81,144.766 247.528,134.057 230.81,122.235 	"/>
	
		<line clip-path="url(#SVGID_2_)" fill="none" stroke="#66CC99" stroke-width="5" stroke-linecap="round" stroke-linejoin="bevel" stroke-miterlimit="10" x1="200.403" y1="152.802" x2="221.862" y2="113.678"/>
	
		<polyline clip-path="url(#SVGID_2_)" fill="none" stroke="#66CC99" stroke-width="5" stroke-linecap="round" stroke-miterlimit="10" points="
		1085.457,413.234 1068.739,423.943 1085.457,435.766 	"/>
	
		<polyline clip-path="url(#SVGID_2_)" fill="none" stroke="#66CC99" stroke-width="5" stroke-linecap="round" stroke-miterlimit="10" points="
		1124.811,435.766 1141.528,425.057 1124.811,413.234 	"/>
	
		<line clip-path="url(#SVGID_2_)" fill="none" stroke="#66CC99" stroke-width="5" stroke-linecap="round" stroke-linejoin="bevel" stroke-miterlimit="10" x1="1094.402" y1="443.803" x2="1115.861" y2="404.679"/>
	
		<polyline clip-path="url(#SVGID_2_)" fill="none" stroke="#66CC99" stroke-width="5" stroke-linecap="round" stroke-miterlimit="10" points="
		763.457,409.234 746.739,419.943 763.457,431.766 	"/>
	
		<polyline clip-path="url(#SVGID_2_)" fill="none" stroke="#66CC99" stroke-width="5" stroke-linecap="round" stroke-miterlimit="10" points="
		802.811,431.766 819.528,421.057 802.811,409.234 	"/>
	
		<line clip-path="url(#SVGID_2_)" fill="none" stroke="#66CC99" stroke-width="5" stroke-linecap="round" stroke-linejoin="bevel" stroke-miterlimit="10" x1="772.402" y1="439.803" x2="793.861" y2="400.679"/>
	<path clip-path="url(#SVGID_2_)" fill="none" stroke="#66CC99" stroke-width="5" stroke-miterlimit="10" d="M591.711,518.415
		h40.557c6.6,0,12.232,4.959,12.232,11.559v15.187c0,6.6-5.632,12.255-12.232,12.255h-4.402c-1.171,4,2.266,7.955,2.266,7.955
		s-12.286,3.045-13.406-7.955h-25.015c-6.6,0-12.211-5.655-12.211-12.255v-15.187C579.5,523.374,585.111,518.415,591.711,518.415z"
		/>
	<path clip-path="url(#SVGID_2_)" fill="#66CC99" d="M592.502,530.899v5.386c0.668-0.965,1.746-1.745,3.157-1.745
		c1.727,0,2.767,0.928,2.767,2.915v6.593h-1.931v-6.091c0-1.431-0.595-1.709-1.468-1.709c-1.058,0-2.525,1.354-2.525,3.844v3.956
		h-1.932v-13.148H592.502z"/>
	<path clip-path="url(#SVGID_2_)" fill="#66CC99" d="M604.635,538.291h1.616v-0.407c0-1.172-0.835-1.636-1.82-1.636
		c-0.761,0-1.429,0.408-1.745,1.244l-1.764-0.372c0.39-1.578,1.727-2.581,3.528-2.581c2.173,0,3.733,0.947,3.733,3.696v5.812h-1.635
		l-0.185-1.227c-0.613,0.855-1.579,1.375-2.897,1.375c-1.56,0-2.878-0.891-2.878-2.842
		C600.587,539.423,602.24,538.291,604.635,538.291 M603.8,542.487c1.189,0,2.451-0.761,2.451-2.377v-0.204h-1.69
		c-1.188,0-1.931,0.558-1.931,1.448C602.629,541.986,602.982,542.487,603.8,542.487"/>
	<rect x="610.639" y="530.9" clip-path="url(#SVGID_2_)" fill="#66CC99" width="1.932" height="13.147"/>
	<rect x="615.099" y="530.9" clip-path="url(#SVGID_2_)" fill="#66CC99" width="1.932" height="13.147"/>
	<path clip-path="url(#SVGID_2_)" fill="#66CC99" d="M623.718,534.539c2.897,0,4.606,2.191,4.606,4.828
		c0,2.638-1.709,4.829-4.606,4.829s-4.605-2.191-4.605-4.829C619.113,536.73,620.821,534.539,623.718,534.539 M623.718,542.487
		c1.69,0,2.563-1.541,2.563-3.12c0-1.578-0.873-3.119-2.563-3.119s-2.563,1.541-2.563,3.119
		C621.155,540.946,622.028,542.487,623.718,542.487"/>
	<path clip-path="url(#SVGID_2_)" fill="#66CC99" d="M632.545,541.337c0.818,0,1.412,0.594,1.412,1.393s-0.594,1.393-1.412,1.393
		c-0.817,0-1.411-0.594-1.411-1.393S631.728,541.337,632.545,541.337 M633.864,531.048l-0.501,8.896h-1.635l-0.501-8.896H633.864z"
		/>
	
		<circle clip-path="url(#SVGID_2_)" fill="none" stroke="#66CC99" stroke-width="5" stroke-miterlimit="10" cx="231" cy="412.915" r="21"/>
	<path clip-path="url(#SVGID_2_)" fill="#66CC99" d="M230.91,399.003c1.579,0,2.772,1.269,2.772,2.809
		c0,1.542-1.193,2.734-2.772,2.734s-2.773-1.192-2.773-2.734C228.137,400.271,229.331,399.003,230.91,399.003 M232.912,407.28
		v19.407h-4.004V407.28H232.912z"/>
	
		<circle clip-path="url(#SVGID_2_)" fill="none" stroke="#66CC99" stroke-width="5" stroke-miterlimit="10" cx="1074" cy="227.915" r="21"/>
	<path clip-path="url(#SVGID_2_)" fill="#66CC99" d="M1073.91,214.003c1.579,0,2.771,1.269,2.771,2.809
		c0,1.542-1.192,2.734-2.771,2.734s-2.773-1.192-2.773-2.734C1071.137,215.271,1072.331,214.003,1073.91,214.003 M1075.912,222.28
		v19.407h-4.004V222.28H1075.912z"/>
	
		<circle clip-path="url(#SVGID_2_)" fill="none" stroke="#66CC99" stroke-width="5" stroke-miterlimit="10" cx="749" cy="553.915" r="21"/>
	<path clip-path="url(#SVGID_2_)" fill="#66CC99" d="M748.91,540.003c1.579,0,2.771,1.269,2.771,2.809
		c0,1.542-1.192,2.734-2.771,2.734s-2.773-1.192-2.773-2.734C746.137,541.271,747.331,540.003,748.91,540.003 M750.912,548.28
		v19.407h-4.004V548.28H750.912z"/>
	<path clip-path="url(#SVGID_2_)" fill="none" stroke="#66CC99" stroke-width="5" stroke-miterlimit="10" d="M427.913,138.915
		h-21.794c-5.137,0-9.341-4.203-9.341-9.34V84.43c0-5.138,4.204-9.341,9.341-9.341h21.794c5.137,0,9.34,4.203,9.34,9.341v45.145
		C437.253,134.712,433.05,138.915,427.913,138.915z"/>
	
		<line clip-path="url(#SVGID_2_)" fill="none" stroke="#66CC99" stroke-width="5" stroke-miterlimit="10" x1="396" y1="125.415" x2="437" y2="125.415"/>
	<path clip-path="url(#SVGID_2_)" fill="#66CC99" d="M428.317,87.014c0,1.763-1.429,3.191-3.191,3.191
		c-1.763,0-3.192-1.428-3.192-3.191c0-1.763,1.429-3.191,3.192-3.191C426.888,83.823,428.317,85.251,428.317,87.014"/>
	
		<path clip-path="url(#SVGID_2_)" fill="none" stroke="#66CC99" stroke-width="5" stroke-linecap="round" stroke-miterlimit="10" d="
		M447.106,81.484c0-9.544-7.723-17.266-17.266-17.266"/>
	
		<path clip-path="url(#SVGID_2_)" fill="none" stroke="#66CC99" stroke-width="5" stroke-linecap="round" stroke-miterlimit="10" d="
		M458.646,80.022c0-14.816-11.989-26.805-26.805-26.805"/>
	<path clip-path="url(#SVGID_2_)" fill="none" stroke="#66CC99" stroke-width="5" stroke-miterlimit="10" d="M949.913,594.915
		h-21.794c-5.138,0-9.341-4.203-9.341-9.34V540.43c0-5.138,4.203-9.341,9.341-9.341h21.794c5.137,0,9.34,4.203,9.34,9.341v45.146
		C959.253,590.712,955.05,594.915,949.913,594.915z"/>
	
		<line clip-path="url(#SVGID_2_)" fill="none" stroke="#66CC99" stroke-width="5" stroke-miterlimit="10" x1="918" y1="581.415" x2="959" y2="581.415"/>
	<path clip-path="url(#SVGID_2_)" fill="#66CC99" d="M950.316,543.015c0,1.763-1.429,3.19-3.19,3.19
		c-1.764,0-3.192-1.428-3.192-3.19c0-1.764,1.429-3.191,3.192-3.191C948.888,539.823,950.316,541.251,950.316,543.015"/>
	
		<path clip-path="url(#SVGID_2_)" fill="none" stroke="#66CC99" stroke-width="5" stroke-linecap="round" stroke-miterlimit="10" d="
		M969.106,537.484c0-9.544-7.723-17.267-17.266-17.267"/>
	
		<path clip-path="url(#SVGID_2_)" fill="none" stroke="#66CC99" stroke-width="5" stroke-linecap="round" stroke-miterlimit="10" d="
		M980.646,536.022c0-14.816-11.989-26.805-26.806-26.805"/>
	<polygon clip-path="url(#SVGID_2_)" fill="none" stroke="#66CC99" stroke-width="4.38" stroke-miterlimit="10" points="
		1186.648,609.121 1205.555,583.176 1223.016,611.307 	"/>
	
		<path clip-path="url(#SVGID_2_)" fill="none" stroke="#66CC99" stroke-width="4.38" stroke-miterlimit="10" stroke-dasharray="10,10" d="
		M1452.811,596.123c-5.127,73.169-61.03,127.876-122.039,129.807c-69.025,2.186-138.027-63.392-125.524-116.493"/>
	<polygon clip-path="url(#SVGID_2_)" fill="none" stroke="#66CC99" stroke-width="4.38" stroke-miterlimit="10" points="
		262.188,627.691 240,604.488 270.778,592.285 	"/>
</g>
</svg>
