<?xml version="1.0" encoding="utf-8"?>
<!-- Generator: Adobe Illustrator 22.0.1, SVG Export Plug-In . SVG Version: 6.00 Build 0)  -->
<svg version="1.1" id="Ebene_1" xmlns="http://www.w3.org/2000/svg" xmlns:xlink="http://www.w3.org/1999/xlink" x="0px" y="0px"
	 viewBox="0 0 1281 422.6" style="enable-background:new 0 0 1281 422.6;" xml:space="preserve">
<style type="text/css">
	.st0{opacity:0.3;fill:#33AFE3;enable-background:new    ;}
	.st1{fill:#CF5549;}
	.st2{fill:#FFFFFF;stroke:#59AF70;stroke-width:14.3801;stroke-miterlimit:10;}
	.st3{fill:none;stroke:#999999;stroke-width:4.8272;}
	.st4{fill:none;stroke:#FF8000;stroke-width:14.4817;}
	.st5{fill:#FF8000;}
	.st6{fill:none;stroke:#00BFFF;stroke-width:14.4817;}
	.st7{fill:#00BFFF;}
	.st8{fill:none;}
	.st9{fill:#CF5549;stroke:#CF5549;stroke-width:2.2477;stroke-miterlimit:10;}
	.st10{font-family:'ApercuPro-Mono';}
	.st11{font-size:39px;}
	.st12{font-family:'ApercuPro';}
	.st13{font-size:34px;}
</style>
<polygon id="XMLID_2_" class="st0" points="1280.6,422.6 0,422.6 0.4,0 1281,0 "/>
<g id="XMLID_599_">
	<g id="XMLID_604_">
		<path id="XMLID_28_" class="st1" d="M435.1,330.4v5.1h-6.4c-1.8,0-2.6,0.9-2.6,3v12.2c0,4.5-1.7,6-4,6.6c2.3,0.7,4,2,4,6.6v12.2
			c0,2.2,0.8,3,2.6,3h6.4v5.1h-7.9c-3.4,0-5.7-2.7-5.7-6.7v-11.6c0-4.7-2.3-6.1-5.7-6.1V355c3.4,0,5.7-1.3,5.7-6.1v-11.7
			c0-4.1,2.3-6.7,5.7-6.7L435.1,330.4 M435.1,327.6h-7.9c-5,0-8.5,4-8.5,9.6v11.7c0,2.7-0.6,3.2-2.8,3.2c-1.6,0-2.8,1.2-2.8,2.8v5.2
			c0,1.6,1.2,2.8,2.8,2.8c2.3,0,2.8,0.6,2.8,3.2v11.7c0,5.7,3.5,9.6,8.5,9.6h7.9c1.6,0,2.8-1.2,2.8-2.8v-5.1c0-1.6-1.2-2.8-2.8-2.8
			H429c0-0.1,0-0.1,0-0.2v-12.3c0-2.8-0.6-5-1.8-6.6c1.2-1.6,1.8-3.8,1.8-6.6v-12.1c0-0.1,0-0.1,0-0.2h6.2c1.6,0,2.8-1.2,2.8-2.8
			v-5.1C437.9,328.9,436.7,327.6,435.1,327.6L435.1,327.6z"/>
	</g>
	<g id="XMLID_610_">
		<path id="XMLID_24_" class="st1" d="M463.8,330.4l-15.5,54h-4.9l15.5-54H463.8 M463.8,327.6h-4.9c-1.2,0-2.4,0.9-2.7,2.1l-15.5,54
			c-0.3,0.9-0.1,1.8,0.5,2.5c0.6,0.8,1.4,1.1,2.3,1.1h4.9c1.2,0,2.4-0.9,2.7-2.1l15.5-54c0.3-0.9,0.1-1.8-0.5-2.5
			C465.5,328.1,464.6,327.6,463.8,327.6L463.8,327.6z"/>
	</g>
	<g id="XMLID_618_">
		<path id="XMLID_23_" class="st1" d="M855.7,330.4c3.4,0,5.7,2.7,5.7,6.7v11.7c0,4.7,2.3,6.1,5.7,6.1v5.2c-3.4,0-5.7,1.3-5.7,6.1
			v11.7c0,4.1-2.3,6.7-5.7,6.7h-7.9v-5.1h6.4c1.8,0,2.6-0.9,2.6-3v-12.3c0-4.5,1.7-6,4-6.6c-2.3-0.7-4-2-4-6.6v-12.1
			c0-2.2-0.8-3-2.6-3h-6.4v-5.1L855.7,330.4 M855.7,327.6h-7.9c-1.6,0-2.8,1.2-2.8,2.8v5.1c0,1.6,1.2,2.8,2.8,2.8h6.2
			c0,0.1,0,0.1,0,0.2v12.2c0,2.8,0.6,5,1.8,6.6c-1.2,1.6-1.8,3.8-1.8,6.6v12.2c0,0.1,0,0.1,0,0.2h-6.2c-1.6,0-2.8,1.2-2.8,2.8v5.1
			c0,1.6,1.2,2.8,2.8,2.8h7.9c5,0,8.5-4,8.5-9.6v-11.6c0-2.7,0.6-3.2,2.8-3.2c1.6,0,2.8-1.2,2.8-2.8V355c0-1.6-1.2-2.8-2.8-2.8
			c-2.3,0-2.8-0.6-2.8-3.2v-11.7C864.2,331.6,860.7,327.6,855.7,327.6L855.7,327.6z"/>
	</g>
</g>
<g id="XMLID_166_">
	<polygon id="XMLID_167_" class="st2" points="1088.2,268.1 438.4,268.1 368,293.9 368,268.1 199,268.1 199,47.6 1088.2,47.6 	"/>
</g>
<g transform="translate(0,0)">
	<g>
		<path class="st3" d="M518.5,143l120.7,42.9L747.8,143"/>
	</g>
	<g>
		<circle class="st4" cx="518.5" cy="143" r="29.5"/>
		<circle class="st5" cx="518.5" cy="143" r="9.7"/>
	</g>
	<g>
		<path class="st6" d="M683,185.9l-63.5,36.7v-73.4L683,185.9z"/>
		<circle class="st7" cx="639.2" cy="185.9" r="9.7"/>
	</g>
	<g>
		<path class="st4" d="M803.5,143l-87.3,50.4V92.6L803.5,143z"/>
		<circle class="st5" cx="747.8" cy="143" r="9.7"/>
	</g>
</g>
<rect x="471" y="341.1" class="st8" width="364" height="53.9"/>
<text transform="matrix(1 0 0 1 470.9983 368.7583)" class="st9 st10 st11">opendataday.org</text>
<rect x="786" y="212.7" class="st8" width="323.8" height="35.9"/>
<text transform="matrix(1 0 0 1 786.0001 236.7272)" class="st9 st12 st13">3. März 2018</text>
</svg>
