<svg version="1.1" xmlns="http://www.w3.org/2000/svg" xmlns:xlink="http://www.w3.org/1999/xlink" x="0px" y="0px" viewBox="0 0 640 415" enable-background="new 0 0 640 415" xml:space="preserve">

<g id="Ebene_1">
	<g>
		<g>
			
				<path fill="none" stroke="#FFFFFF" stroke-width="3" stroke-linecap="square" stroke-linejoin="round" stroke-miterlimit="10" d="
				M154.339,113.097c3.543,7.672-0.985,17.31-0.985,17.31s-10.274-2.8-13.819-10.473c-3.544-7.671,0.986-17.309,0.986-17.309
				S150.797,105.426,154.339,113.097z"/>
			
				<path fill="none" stroke="#FFFFFF" stroke-width="3" stroke-linecap="square" stroke-linejoin="round" stroke-miterlimit="10" d="
				M159.222,135.846c-3.527,0-5.078-2.717-6.209-6.095l-6.279-13.833"/>
		</g>
		<g>
			
				<path fill="none" stroke="#FFFFFF" stroke-width="3" stroke-linecap="square" stroke-linejoin="round" stroke-miterlimit="10" d="
				M178.213,93.645c3.542,7.672-0.986,17.31-0.986,17.31s-10.274-2.8-13.819-10.473c-3.544-7.671,0.986-17.309,0.986-17.309
				S174.67,85.974,178.213,93.645z"/>
			
				<path fill="none" stroke="#FFFFFF" stroke-width="3" stroke-linecap="square" stroke-linejoin="round" stroke-miterlimit="10" d="
				M183.095,116.394c-3.527,0-5.078-2.717-6.209-6.095l-6.279-13.833"/>
		</g>
	</g>
	<g>
		<g>
			
				<path fill="none" stroke="#FFFFFF" stroke-width="3" stroke-linecap="square" stroke-linejoin="round" stroke-miterlimit="10" d="
				M541.445,290.425c6.68,1.914,9.805,7.759,9.805,21.248l-0.068,70.986c0-38.245-31.059-8.035-69.059-8.035v-77.986
				c5,0,9.395-0.362,13.883-0.922"/>
			
				<path fill="none" stroke="#FFFFFF" stroke-width="3" stroke-linecap="square" stroke-linejoin="round" stroke-miterlimit="10" d="
				M550.949,382.66c0-38.245,31.174-8.035,69.174-8.035v-77.986c-38,0-69.186-23.21-69.186,15.035L550.949,382.66z"/>
			
				<path fill="none" stroke="#FFFFFF" stroke-width="3" stroke-linecap="square" stroke-linejoin="round" stroke-miterlimit="10" d="
				M550.949,384.735c0-25.795,31.178-4.545,69.178-4.545"/>
			
				<path fill="none" stroke="#FFFFFF" stroke-width="3" stroke-linecap="square" stroke-linejoin="round" stroke-miterlimit="10" d="
				M551.127,384.735c0-25.795-31.176-4.545-69.176-4.545"/>
			<g>
				
					<line fill="none" stroke="#FFFFFF" stroke-width="3" stroke-linecap="square" stroke-linejoin="round" stroke-miterlimit="10" x1="494.623" y1="318.44" x2="537.623" y2="318.44"/>
				
					<line fill="none" stroke="#FFFFFF" stroke-width="3" stroke-linecap="square" stroke-linejoin="round" stroke-miterlimit="10" x1="494.623" y1="324.44" x2="537.623" y2="324.44"/>
				
					<line fill="none" stroke="#FFFFFF" stroke-width="3" stroke-linecap="square" stroke-linejoin="round" stroke-miterlimit="10" x1="494.623" y1="330.44" x2="537.623" y2="330.44"/>
			</g>
			<g>
				
					<line fill="none" stroke="#FFFFFF" stroke-width="3" stroke-linecap="square" stroke-linejoin="round" stroke-miterlimit="10" x1="494.623" y1="336.44" x2="537.623" y2="336.44"/>
				
					<line fill="none" stroke="#FFFFFF" stroke-width="3" stroke-linecap="square" stroke-linejoin="round" stroke-miterlimit="10" x1="494.623" y1="342.44" x2="537.623" y2="342.44"/>
				
					<line fill="none" stroke="#FFFFFF" stroke-width="3" stroke-linecap="square" stroke-linejoin="round" stroke-miterlimit="10" x1="494.623" y1="348.44" x2="537.623" y2="348.44"/>
			</g>
			
				<rect x="564.123" y="321.44" fill="none" stroke="#FFFFFF" stroke-width="3" stroke-linecap="square" stroke-linejoin="round" stroke-miterlimit="10" width="18" height="17"/>
			
				<rect x="573.123" y="343.44" fill="none" stroke="#FFFFFF" stroke-width="3" stroke-linecap="square" stroke-linejoin="round" stroke-miterlimit="10" width="23" height="12"/>
			
				<rect x="587.123" y="310.44" fill="none" stroke="#FFFFFF" stroke-width="3" stroke-linecap="square" stroke-linejoin="round" stroke-miterlimit="10" width="18" height="28"/>
		</g>
		<g>
			
				<circle fill="none" stroke="#FFFFFF" stroke-width="3" stroke-linecap="square" stroke-linejoin="round" stroke-miterlimit="10" cx="516.168" cy="271.604" r="30.926"/>
			
				<circle fill="none" stroke="#FFFFFF" stroke-width="3" stroke-linecap="square" stroke-linejoin="round" stroke-miterlimit="10" cx="516.17" cy="270.742" r="19.606"/>
			<path fill="none" stroke="#FFFFFF" stroke-width="3" stroke-miterlimit="10" d="M509.123,240.94v-49.587
				c0-3.817,3.098-6.913,6.916-6.913h0.174c3.818,0,6.91,3.096,6.91,6.913v49.587"/>
			
				<line fill="none" stroke="#FFFFFF" stroke-width="3" stroke-miterlimit="10" x1="508.623" y1="230.44" x2="522.623" y2="230.44"/>
			
				<path fill="none" stroke="#FFFFFF" stroke-width="3" stroke-linecap="square" stroke-linejoin="round" stroke-miterlimit="10" d="
				M528.623,273.989c0,5.521-5.041,9.985-11.27,9.985"/>
		</g>
	</g>
	<g>
		<path fill="none" stroke="#FFFFFF" stroke-width="3" stroke-miterlimit="10" d="M568.08,131.104
			c4.457-1.295,9.168-1.99,14.043-1.99c15.975,0,30.207,7.463,39.396,19.094l-39.396,86.492l-39.396-86.49
			c2.787-3.527,6.037-6.672,9.658-9.342"/>
		<path fill="none" stroke="#FFFFFF" stroke-width="3" stroke-miterlimit="10" d="M548.271,159.647
			c7.773-9.018,17.086-16.626,33.852-16.626c16.027,0,25.818,7.646,33.818,16.691"/>
		<path fill="none" stroke="#FFFFFF" stroke-width="3" stroke-miterlimit="10" d="M567.977,155.367c5.461,0,9.887,4.425,9.887,9.884
			c0,5.458-4.426,9.885-9.887,9.885c-5.457,0-9.883-4.427-9.883-9.885C558.094,159.792,562.52,155.367,567.977,155.367z"/>
		<path fill="none" stroke="#FFFFFF" stroke-width="3" stroke-miterlimit="10" d="M583.623,182.314c5.461,0,9.887,4.425,9.887,9.884
			c0,5.458-4.426,9.884-9.887,9.884c-5.457,0-9.883-4.426-9.883-9.884C573.74,186.739,578.166,182.314,583.623,182.314z"/>
		<circle fill="none" stroke="#FFFFFF" stroke-width="3" stroke-miterlimit="10" cx="594.924" cy="162.643" r="9.884"/>
	</g>
	<g>
		<g>
			
				<path fill="none" stroke="#FFFFFF" stroke-width="3" stroke-linecap="square" stroke-linejoin="round" stroke-miterlimit="10" d="
				M507.574,104.362c-4.008,8.677,1.115,19.576,1.115,19.576s11.619-3.166,15.629-11.844c4.008-8.676-1.115-19.576-1.115-19.576
				S511.582,95.687,507.574,104.362z"/>
			
				<path fill="none" stroke="#FFFFFF" stroke-width="3" stroke-linecap="square" stroke-linejoin="round" stroke-miterlimit="10" d="
				M502.053,130.091c3.988,0,5.744-3.072,7.021-6.893l7.102-15.646"/>
		</g>
		<g>
			
				<path fill="none" stroke="#FFFFFF" stroke-width="3" stroke-linecap="square" stroke-linejoin="round" stroke-miterlimit="10" d="
				M470.574,118.362c-4.008,8.677,1.115,19.576,1.115,19.576s11.619-3.166,15.629-11.844c4.008-8.676-1.115-19.576-1.115-19.576
				S474.582,109.687,470.574,118.362z"/>
			
				<path fill="none" stroke="#FFFFFF" stroke-width="3" stroke-linecap="square" stroke-linejoin="round" stroke-miterlimit="10" d="
				M465.053,144.091c3.988,0,5.744-3.072,7.021-6.893l7.102-15.646"/>
		</g>
		<g>
			
				<path fill="none" stroke="#FFFFFF" stroke-width="3" stroke-linecap="square" stroke-linejoin="round" stroke-miterlimit="10" d="
				M443.574,96.362c-4.008,8.677,1.115,19.576,1.115,19.576s11.619-3.166,15.629-11.844c4.008-8.676-1.115-19.576-1.115-19.576
				S447.582,87.687,443.574,96.362z"/>
			
				<path fill="none" stroke="#FFFFFF" stroke-width="3" stroke-linecap="square" stroke-linejoin="round" stroke-miterlimit="10" d="
				M438.053,122.091c3.988,0,5.744-3.072,7.021-6.893l7.102-15.646"/>
		</g>
	</g>
	<g>
		<path fill="none" stroke="#FFFFFF" stroke-width="3" stroke-linecap="square" stroke-linejoin="round" stroke-miterlimit="10" d="
			M615.232,37.647c-6.334,6.548-13.172,6.401-19.35,0l-0.012-0.049c-6.178-6.399-13.016-6.547-19.352,0"/>
		<path fill="none" stroke="#FFFFFF" stroke-width="3" stroke-linecap="square" stroke-linejoin="round" stroke-miterlimit="10" d="
			M563.434,58.504c-6.334,6.548-13.174,6.401-19.352,0l-0.01-0.049c-6.18-6.401-13.018-6.548-19.354,0"/>
		<path fill="none" stroke="#FFFFFF" stroke-width="3" stroke-linecap="square" stroke-linejoin="round" stroke-miterlimit="10" d="
			M474.434,56.504c-6.334,6.548-13.174,6.401-19.352,0l-0.01-0.049c-6.18-6.401-13.018-6.548-19.354,0"/>
		<path fill="none" stroke="#FFFFFF" stroke-width="3" stroke-linecap="square" stroke-linejoin="round" stroke-miterlimit="10" d="
			M562.781,33.126c-6.334,6.547-13.172,6.402-19.352,0l-0.01-0.049c-6.178-6.4-13.018-6.547-19.352,0"/>
		<path fill="none" stroke="#FFFFFF" stroke-width="3" stroke-linecap="square" stroke-linejoin="round" stroke-miterlimit="10" d="
			M537.404,40.935c-6.334,6.547-13.174,6.402-19.352,0l-0.012-0.049c-6.176-6.399-13.016-6.547-19.35,0"/>
		<path fill="none" stroke="#FFFFFF" stroke-width="3" stroke-linecap="square" stroke-linejoin="round" stroke-miterlimit="10" d="
			M459.404,38.935c-6.334,6.547-13.174,6.402-19.352,0l-0.012-0.049c-6.176-6.399-13.016-6.547-19.35,0"/>
		<path fill="none" stroke="#FFFFFF" stroke-width="3" stroke-linecap="square" stroke-linejoin="round" stroke-miterlimit="10" d="
			M493.781,32.126c-6.334,6.547-13.172,6.402-19.352,0l-0.01-0.049c-6.178-6.4-13.018-6.547-19.352,0"/>
		<path fill="none" stroke="#FFFFFF" stroke-width="3" stroke-linecap="square" stroke-linejoin="round" stroke-miterlimit="10" d="
			M506.404,49.935c-6.334,6.547-13.174,6.402-19.352,0l-0.012-0.049c-6.176-6.399-13.016-6.547-19.35,0"/>
		<path fill="none" stroke="#FFFFFF" stroke-width="3" stroke-linecap="square" stroke-linejoin="round" stroke-miterlimit="10" d="
			M593.404,48.935c-6.334,6.547-13.174,6.402-19.352,0l-0.012-0.049c-6.176-6.399-13.016-6.547-19.35,0"/>
	</g>
	<g>
		<g>
			
				<polyline fill="none" stroke="#FFFFFF" stroke-width="3" stroke-linecap="square" stroke-linejoin="round" stroke-miterlimit="10" points="
				19.874,398.444 46.384,398.444 46.384,362.329 73.279,362.329 73.279,340.044 110.164,340.044 110.164,354.645 139.363,354.645 
				139.363,398.444 165.874,398.444 			"/>
			
				<line fill="none" stroke="#FFFFFF" stroke-width="3" stroke-miterlimit="10" x1="110.547" y1="362.329" x2="132.063" y2="362.329"/>
			
				<line fill="none" stroke="#FFFFFF" stroke-width="3" stroke-miterlimit="10" x1="110.547" y1="376.929" x2="132.063" y2="376.929"/>
			
				<line fill="none" stroke="#FFFFFF" stroke-width="3" stroke-miterlimit="10" x1="110.547" y1="390.761" x2="132.063" y2="390.761"/>
			
				<line fill="none" stroke="#FFFFFF" stroke-width="3" stroke-miterlimit="10" x1="110.547" y1="383.845" x2="132.063" y2="383.845"/>
			
				<line fill="none" stroke="#FFFFFF" stroke-width="3" stroke-miterlimit="10" x1="110.547" y1="370.013" x2="132.063" y2="370.013"/>
			
				<line fill="none" stroke="#FFFFFF" stroke-width="3" stroke-miterlimit="10" x1="52.916" y1="376.929" x2="73.664" y2="376.929"/>
			
				<line fill="none" stroke="#FFFFFF" stroke-width="3" stroke-miterlimit="10" x1="52.916" y1="390.761" x2="73.664" y2="390.761"/>
			
				<line fill="none" stroke="#FFFFFF" stroke-width="3" stroke-miterlimit="10" x1="52.916" y1="383.845" x2="73.664" y2="383.845"/>
			
				<line fill="none" stroke="#FFFFFF" stroke-width="3" stroke-miterlimit="10" x1="52.916" y1="370.013" x2="73.664" y2="370.013"/>
			
				<line fill="none" stroke="#FFFFFF" stroke-width="3" stroke-miterlimit="10" x1="82.116" y1="362.329" x2="103.631" y2="362.329"/>
			
				<line fill="none" stroke="#FFFFFF" stroke-width="3" stroke-miterlimit="10" x1="82.116" y1="355.413" x2="103.631" y2="355.413"/>
			
				<line fill="none" stroke="#FFFFFF" stroke-width="3" stroke-miterlimit="10" x1="82.116" y1="348.497" x2="103.631" y2="348.497"/>
			
				<line fill="none" stroke="#FFFFFF" stroke-width="3" stroke-miterlimit="10" x1="82.116" y1="376.929" x2="103.631" y2="376.929"/>
			
				<line fill="none" stroke="#FFFFFF" stroke-width="3" stroke-miterlimit="10" x1="82.116" y1="390.761" x2="103.631" y2="390.761"/>
			
				<line fill="none" stroke="#FFFFFF" stroke-width="3" stroke-miterlimit="10" x1="82.116" y1="383.845" x2="103.631" y2="383.845"/>
			
				<line fill="none" stroke="#FFFFFF" stroke-width="3" stroke-miterlimit="10" x1="82.116" y1="370.013" x2="103.631" y2="370.013"/>
			<polyline fill="none" stroke="#FFFFFF" stroke-width="3" stroke-miterlimit="10" points="127.068,348.882 127.068,341.581 
				154.732,341.581 154.732,396.523 			"/>
			<polyline fill="none" stroke="#FFFFFF" stroke-width="3" stroke-miterlimit="10" points="62.521,348.882 62.521,341.581 
				35.626,341.581 35.626,391.913 			"/>
			<polyline fill="none" stroke="#FFFFFF" stroke-width="3" stroke-miterlimit="10" points="90.953,328.134 90.953,320.065 
				118.616,320.065 118.616,355.028 			"/>
		</g>
		<g>
			<g>
				<path fill="none" stroke="#FFFFFF" stroke-width="3" stroke-miterlimit="10" d="M45.902,294.775l-7.806,12.503
					c-1.705,2.93-3.085,5.887-3.085,9.408c0,8.771,7.109,15.879,15.879,15.879c8.771,0,15.88-7.108,15.88-15.879
					c0-3.57-1.18-6.866-3.17-9.52l-12.71-21.525"/>
				<path fill="none" stroke="#FFFFFF" stroke-width="3" stroke-linecap="round" stroke-miterlimit="10" d="M62.136,316.285
					c0,6.731-4.684,12.179-10.471,12.179"/>
				<path fill="none" stroke="#FFFFFF" stroke-width="3" stroke-miterlimit="10" d="M41.005,285.87v-8.844
					c0-14.662,12.271-26.591,27.084-26.591c14.717,0,26.705,12.005,26.705,26.761v44.021"/>
				<path fill="none" stroke="#FFFFFF" stroke-width="3" stroke-miterlimit="10" d="M80.195,321.218v-44.002
					c0-6.205-5.58-11.363-11.824-11.363c-6.339,0-11.997,4.986-11.997,11.174v8.844"/>
				
					<line fill="none" stroke="#FFFFFF" stroke-width="3" stroke-miterlimit="10" x1="39.853" y1="286.255" x2="46.768" y2="286.255"/>
			</g>
		</g>
	</g>
	<g>
		
			<polyline fill="none" stroke="#FFFFFF" stroke-width="3" stroke-linecap="square" stroke-linejoin="round" stroke-miterlimit="10" points="
			361.766,55.999 346.4,67.953 361.766,81.15 		"/>
		
			<polyline fill="none" stroke="#FFFFFF" stroke-width="3" stroke-linecap="square" stroke-linejoin="round" stroke-miterlimit="10" points="
			385.088,81.15 400.453,69.196 385.088,55.999 		"/>
		
			<line fill="none" stroke="#FFFFFF" stroke-width="3" stroke-linecap="round" stroke-linejoin="round" stroke-miterlimit="10" x1="367.828" y1="91.818" x2="379.9" y2="45.791"/>
	</g>
	<g>
		<path fill="none" stroke="#FFFFFF" stroke-width="3" stroke-linecap="square" stroke-linejoin="round" stroke-miterlimit="10" d="
			M27.272,169.982c-1.438,0-1.702-0.742-0.586-1.649l33.425-27.19c1.116-0.908,2.941-0.908,4.058,0l33.425,27.19
			c1.116,0.907,0.853,1.649-0.587,1.649H27.272z"/>
		
			<line fill="none" stroke="#FFFFFF" stroke-width="3" stroke-linecap="square" stroke-linejoin="round" stroke-miterlimit="10" x1="90.465" y1="170.418" x2="90.465" y2="201.799"/>
		
			<line fill="none" stroke="#FFFFFF" stroke-width="3" stroke-linecap="square" stroke-linejoin="round" stroke-miterlimit="10" x1="80.877" y1="170.418" x2="80.877" y2="201.799"/>
		
			<line fill="none" stroke="#FFFFFF" stroke-width="3" stroke-linecap="square" stroke-linejoin="round" stroke-miterlimit="10" x1="66.93" y1="170.418" x2="66.93" y2="201.799"/>
		
			<line fill="none" stroke="#FFFFFF" stroke-width="3" stroke-linecap="square" stroke-linejoin="round" stroke-miterlimit="10" x1="57.342" y1="170.418" x2="57.342" y2="201.799"/>
		
			<line fill="none" stroke="#FFFFFF" stroke-width="3" stroke-linecap="square" stroke-linejoin="round" stroke-miterlimit="10" x1="43.395" y1="170.418" x2="43.395" y2="201.799"/>
		
			<line fill="none" stroke="#FFFFFF" stroke-width="3" stroke-linecap="square" stroke-linejoin="round" stroke-miterlimit="10" x1="24.654" y1="203.979" x2="99.619" y2="203.979"/>
		
			<line fill="none" stroke="#FFFFFF" stroke-width="3" stroke-linecap="square" stroke-linejoin="round" stroke-miterlimit="10" x1="24.654" y1="209.208" x2="99.619" y2="209.208"/>
		
			<line fill="none" stroke="#FFFFFF" stroke-width="3" stroke-linecap="square" stroke-linejoin="round" stroke-miterlimit="10" x1="24.654" y1="214.438" x2="99.619" y2="214.438"/>
		
			<rect x="61.701" y="115.938" fill="none" stroke="#FFFFFF" stroke-width="3" stroke-linecap="square" stroke-linejoin="round" stroke-miterlimit="10" width="17.433" height="10.46"/>
		
			<line fill="none" stroke="#FFFFFF" stroke-width="3" stroke-linecap="square" stroke-linejoin="round" stroke-miterlimit="10" x1="61.701" y1="139.91" x2="61.701" y2="116.374"/>
		
			<line fill="none" stroke="#FFFFFF" stroke-width="3" stroke-linecap="square" stroke-linejoin="round" stroke-miterlimit="10" x1="33.806" y1="170.418" x2="33.806" y2="201.799"/>
	</g>
	<g>
		<path fill="none" stroke="#FFFFFF" stroke-width="3" stroke-linecap="round" stroke-linejoin="round" stroke-miterlimit="10" d="
			M266.534,386.144c-0.971,0.322-33.015,12.188-53.729,2.146c-20.716-10.043-39.164-25.838-39.164-25.838
			s-2.591-17.658,9.711-36.433c12.298-18.772,22.008-30.747,22.008-30.747s13.594-10.708,26.217-10.708l9.387,13.942
			c0,0-2.275,7.445-11.016,7.445c0,0-9.311,1.207-10.178-7.455"/>
		<path fill="none" stroke="#FFFFFF" stroke-width="3" stroke-linecap="round" stroke-linejoin="round" stroke-miterlimit="10" d="
			M266.534,352.196c0,0-5.18-10.314-18.448-10.314c-13.272,0-18.788,7.394-18.788,7.394s-2.854-8.028-10.622-7.704
			c-7.77,0.323-7.89,5-10.294,6.822c-1.51,1.145-5.287,0.882-5.287,0.882s5.502-17.751,4.208-31.021
			c-1.294-13.271,9.272-15.535,9.272-15.535"/>
		<g>
			
				<polyline fill="none" stroke="#FFFFFF" stroke-width="3" stroke-linecap="square" stroke-linejoin="round" stroke-miterlimit="10" points="
				235.546,361.837 244.679,368.944 235.546,376.788 			"/>
			
				<polyline fill="none" stroke="#FFFFFF" stroke-width="3" stroke-linecap="square" stroke-linejoin="round" stroke-miterlimit="10" points="
				221.683,376.788 212.548,369.683 221.683,361.837 			"/>
			
				<line fill="none" stroke="#FFFFFF" stroke-width="3" stroke-linecap="round" stroke-linejoin="round" stroke-miterlimit="10" x1="231.941" y1="383.13" x2="224.765" y2="355.771"/>
		</g>
	</g>
	<g>
		
			<rect x="277.221" y="349.452" transform="matrix(-0.7071 -0.7071 0.7071 -0.7071 287.8174 825.3263)" fill="none" stroke="#FFFFFF" stroke-width="3" stroke-linejoin="round" stroke-miterlimit="10" width="75.236" height="7.204"/>
		
			<rect x="267.042" y="359.626" transform="matrix(-0.7071 -0.7071 0.7071 -0.7071 263.2437 835.4966)" fill="none" stroke="#FFFFFF" stroke-width="3" stroke-linejoin="round" stroke-miterlimit="10" width="75.239" height="7.205"/>
		
			<rect x="286.851" y="339.818" transform="matrix(-0.7071 -0.7071 0.7071 -0.7071 311.0694 815.688)" fill="none" stroke="#FFFFFF" stroke-width="3" stroke-linejoin="round" stroke-miterlimit="10" width="75.236" height="7.202"/>
		
			<rect x="296.756" y="330.315" transform="matrix(-0.7071 -0.7071 0.7071 -0.7071 334.9936 805.7858)" fill="none" stroke="#FFFFFF" stroke-width="3" stroke-linejoin="round" stroke-miterlimit="10" width="75.236" height="6.403"/>
		
			<rect x="306.944" y="320.127" transform="matrix(-0.7071 -0.7071 0.7071 -0.7071 359.5884 795.5979)" fill="none" stroke="#FFFFFF" stroke-width="3" stroke-linejoin="round" stroke-miterlimit="10" width="75.236" height="6.403"/>
	</g>
	<g>
		<path fill="none" stroke="#FFFFFF" stroke-width="3" stroke-linecap="round" stroke-miterlimit="10" d="M293.613,96.574
			c0,0-21.175-43.242-21.175-54.938s9.479-21.176,21.175-21.176s21.176,9.479,21.176,21.176c0,7.481-8.668,27.877-14.912,41.601"/>
		
			<circle fill="none" stroke="#FFFFFF" stroke-width="3" stroke-linecap="round" stroke-miterlimit="10" cx="293.582" cy="43.865" r="8.557"/>
	</g>
	<g>
		<circle fill="none" stroke="#FFFFFF" stroke-width="3" stroke-miterlimit="10" cx="108.928" cy="64.562" r="15.08"/>
		<circle fill="none" stroke="#FFFFFF" stroke-width="3" stroke-miterlimit="10" cx="38.399" cy="64.562" r="15.08"/>
		<path fill="none" stroke="#FFFFFF" stroke-width="3" stroke-miterlimit="10" d="M109.514,64.539L89.586,26.322
			c0,0-1.014-2.767-3.771-2.767c-2.756,0-8.108,0-8.108,0"/>
		<polyline fill="none" stroke="#FFFFFF" stroke-width="3" stroke-linejoin="round" stroke-miterlimit="10" points="97.653,42.006 
			66.045,64 38.611,64 56.825,46.074 94.289,35.562 		"/>
		
			<line fill="none" stroke="#FFFFFF" stroke-width="3" stroke-linejoin="round" stroke-miterlimit="10" x1="66.045" y1="63.971" x2="50.362" y2="32.25"/>
		
			<line fill="none" stroke="#FFFFFF" stroke-width="3" stroke-linecap="round" stroke-linejoin="round" stroke-miterlimit="10" x1="43.485" y1="32.267" x2="55.307" y2="32.267"/>
	</g>
	<g>
		<path fill="none" stroke="#FFFFFF" stroke-width="3" stroke-miterlimit="10" d="M152.341,0c0.035,2.185,0.182,33.397,1.112,36.803
			l0.441,1.338c2.508,8.814,10.068,15.412,21.882,15.412h48.095l-2.936,13.9l41.471-17.322l-41.471-17.809l2.929,12.229h-48.088
			c-9.739,0-12.239-5.416-13.216-8.989l-0.488-1.483c-1.792-6.295-0.697-33.409-0.697-34.079"/>
	</g>
	<g>
		<path fill="none" stroke="#FFFFFF" stroke-width="3" stroke-linecap="round" stroke-linejoin="round" stroke-miterlimit="10" d="
			M426.659,352.849c2.163,0.92,4.54,1.43,7.04,1.43c9.939,0,17.115-8.058,17.115-17.997c0-8.894-6.454-16.275-14.934-17.731
			c-0.401-7.316-6.457-13.126-13.873-13.126c-7.675,0-13.896,6.221-13.896,13.896c0,0.865,0.083,1.711,0.234,2.533
			c-7.427,1.223-13.096,7.67-13.096,15.443c0,8.648,7.011,15.658,15.658,15.658c3.018,0,6.691-1.334,9.08-2.812"/>
		<path fill="none" stroke="#FFFFFF" stroke-width="3" stroke-linecap="square" stroke-linejoin="round" stroke-miterlimit="10" d="
			M426.119,348.823v25.985c0,1.519-1.572,2.626-3.09,2.626h-0.095c-1.519,0-2.978-1.109-2.978-2.626v-41.83"/>
		<path fill="none" stroke="#FFFFFF" stroke-width="3" stroke-linecap="round" stroke-linejoin="round" stroke-miterlimit="10" d="
			M434.579,362.017c13.499,2.037,23.162,7.51,23.162,13.943c0,8.171-15.594,14.794-34.829,14.794s-34.829-6.623-34.829-14.794
			c0-6.486,9.826-11.996,23.498-13.993"/>
		<path fill="none" stroke="#FFFFFF" stroke-width="3" stroke-linecap="round" stroke-linejoin="round" stroke-miterlimit="10" d="
			M384.043,373.923c-3.551,9.539,12.416,19.533,24.153,19.533"/>
		<path fill="none" stroke="#FFFFFF" stroke-width="3" stroke-linecap="round" stroke-linejoin="round" stroke-miterlimit="10" d="
			M441.85,359.78c13.497,2.036,20.274,9.107,20.274,15.541"/>
	</g>
</g>
</svg>
