<?xml version="1.0" encoding="utf-8"?>
<!-- Generator: Adobe Illustrator 16.0.4, SVG Export Plug-In . SVG Version: 6.00 Build 0)  -->
<!DOCTYPE svg PUBLIC "-//W3C//DTD SVG 1.1//EN" "http://www.w3.org/Graphics/SVG/1.1/DTD/svg11.dtd">
<svg version="1.1" xmlns="http://www.w3.org/2000/svg" xmlns:xlink="http://www.w3.org/1999/xlink" x="0px" y="0px" viewBox="0 0 640 415" enable-background="new 0 0 640 415" xml:space="preserve">

<g id="Ebene_1">
	<g>
		<path fill="none" stroke="#FFFFFF" stroke-width="3" stroke-miterlimit="10" d="M95.824,280.859
			c9.355,0,16.941-7.876,16.941-17.232c0-9.355-7.586-16.941-16.941-16.941c-0.725,0-1.437,0.05-2.137,0.139
			c-2.855-5.329-8.475-8.954-14.943-8.954c-8.787,0-16.012,6.693-16.857,15.26c-1.047-0.249-2.139-0.385-3.262-0.385
			c-7.764,0-14.058,6.295-14.058,14.058s6.295,14.058,14.058,14.058L95.824,280.859L95.824,280.859z"/>
		<path fill="none" stroke="#FFFFFF" stroke-width="3" stroke-linecap="round" stroke-miterlimit="10" d="M107.727,264.992
			c0-7.833-6.351-14.206-14.184-14.206c-0.607,0-1.203,0.029-1.791,0.104c-2.39-4.462-7.094-7.502-12.509-7.502"/>
	</g>
	<g>
		<g>
			
				<path fill="none" stroke="#FFFFFF" stroke-width="3" stroke-linecap="square" stroke-linejoin="round" stroke-miterlimit="10" d="
				M325.697,79.358h-7.958V98.23h-13.004V45.322h20.962c11.737,0,18.056,8.318,18.056,17.015
				C343.753,71.031,337.435,79.358,325.697,79.358z M325.099,56.988h-7.359v10.697h7.359c3.568,0,5.65-2.595,5.65-5.349
				C330.749,59.589,328.667,56.988,325.099,56.988z"/>
		</g>
		<polygon fill="none" stroke="#FFFFFF" stroke-width="3" stroke-linecap="round" stroke-miterlimit="10" points="319.5,29.922 
			355.5,41.826 355.5,32.67 319.5,20.669 283.5,32.67 283.5,41.826 		"/>
	</g>
	<path fill="none" stroke="#FFFFFF" stroke-width="3" stroke-miterlimit="10" d="M455.917,35.684l-6.23-16.09
		c-1.164-3.078-3.711-5.699-8.53-5.722h-8.785h-15.017h-8.939c-4.797,0.022-7.342,2.644-8.528,5.722l-6.232,16.09
		c-2.475,0.318-6.853,3.227-6.846,8.734V64.9h6.081v6.539c-0.017,8.062,11.393,7.967,11.389,0V64.9h20.533h20.483v6.539
		c0.023,7.967,11.433,8.062,11.439,0V64.9h6.081V44.418C462.795,38.91,458.415,36.002,455.917,35.684z M398.763,52.539
		c-2.914,0.009-5.273-2.422-5.262-5.411c-0.012-3.01,2.348-5.442,5.262-5.417c2.905-0.025,5.264,2.407,5.26,5.417
		C404.026,50.117,401.667,52.547,398.763,52.539z M424.812,35.531h-0.051h-24.62l4.7-12.669c0.566-1.798,1.446-3.085,3.525-3.116
		h16.395h0.051h16.447c2.048,0.031,2.93,1.317,3.524,3.116l4.7,12.669H424.812z M450.862,52.539
		c-2.935,0.009-5.295-2.422-5.312-5.411c0.017-3.01,2.377-5.442,5.312-5.417c2.885-0.025,5.242,2.407,5.262,5.417
		C456.104,50.117,453.747,52.547,450.862,52.539z"/>
	<g>
		
			<polyline fill="none" stroke="#FFFFFF" stroke-width="3" stroke-linecap="square" stroke-linejoin="round" stroke-miterlimit="10" points="
			190.704,386.644 162.204,386.644 162.204,325.644 131.204,325.644 131.204,310.644 47.204,310.644 47.204,325.644 13.204,325.644 
			13.204,404.604 		"/>
		
			<rect x="25.204" y="341.644" fill="none" stroke="#FFFFFF" stroke-width="3" stroke-linecap="round" stroke-miterlimit="10" width="12" height="36"/>
		
			<rect x="141.204" y="337.644" fill="none" stroke="#FFFFFF" stroke-width="3" stroke-linecap="round" stroke-miterlimit="10" width="12" height="36"/>
		
			<rect x="60.204" y="324.644" fill="none" stroke="#FFFFFF" stroke-width="3" stroke-linecap="round" stroke-miterlimit="10" width="12" height="36"/>
		
			<rect x="83.204" y="324.644" fill="none" stroke="#FFFFFF" stroke-width="3" stroke-linecap="round" stroke-miterlimit="10" width="12" height="36"/>
		
			<rect x="106.204" y="324.644" fill="none" stroke="#FFFFFF" stroke-width="3" stroke-linecap="round" stroke-miterlimit="10" width="12" height="36"/>
		
			<line fill="none" stroke="#FFFFFF" stroke-width="3" stroke-linecap="square" stroke-linejoin="round" stroke-miterlimit="10" x1="47.204" y1="326.144" x2="47.204" y2="392.144"/>
		
			<line fill="none" stroke="#FFFFFF" stroke-width="3" stroke-linecap="square" stroke-linejoin="round" stroke-miterlimit="10" x1="131.204" y1="326.144" x2="131.204" y2="371.144"/>
	</g>
	<g>
		<path fill="none" stroke="#FFFFFF" stroke-width="3" stroke-linecap="round" stroke-linejoin="round" stroke-miterlimit="10" d="
			M214.096,319.681c-2.555,1.777-5.659,2.818-9.007,2.818c-8.726,0-15.796-7.072-15.796-15.795c0-8.725,7.07-15.797,15.796-15.797
			c8.723,0,15.796,7.072,15.796,15.797c0,3.262-0.991,6.295-2.686,8.812"/>
		<path fill="none" stroke="#FFFFFF" stroke-width="3" stroke-linecap="round" stroke-linejoin="round" stroke-miterlimit="10" d="
			M229.873,306.704c0-8.725,7.072-15.797,15.797-15.797c8.723,0,15.795,7.072,15.795,15.797c0,8.722-7.071,15.795-15.795,15.795"/>
		
			<line fill="none" stroke="#FFFFFF" stroke-width="3" stroke-linecap="round" stroke-linejoin="round" stroke-miterlimit="10" x1="202.876" y1="308.991" x2="198.453" y2="312.565"/>
		
			<line fill="none" stroke="#FFFFFF" stroke-width="3" stroke-linecap="round" stroke-linejoin="round" stroke-miterlimit="10" x1="212.562" y1="300.905" x2="207.859" y2="304.793"/>
		
			<line fill="none" stroke="#FFFFFF" stroke-width="3" stroke-linecap="round" stroke-linejoin="round" stroke-miterlimit="10" x1="248.413" y1="308.991" x2="252.835" y2="312.565"/>
		
			<line fill="none" stroke="#FFFFFF" stroke-width="3" stroke-linecap="round" stroke-linejoin="round" stroke-miterlimit="10" x1="238.727" y1="300.905" x2="243.429" y2="304.793"/>
		<path fill="none" stroke="#FFFFFF" stroke-width="3" stroke-linecap="round" stroke-linejoin="round" stroke-miterlimit="10" d="
			M218.065,339.188c1.778,2.555,2.819,5.659,2.819,9.007c0,8.724-7.072,15.796-15.796,15.796c-8.726,0-15.796-7.071-15.796-15.796
			c0-8.724,7.07-15.796,15.796-15.796c3.263,0,6.296,0.99,8.812,2.686"/>
		<path fill="none" stroke="#FFFFFF" stroke-width="3" stroke-linecap="round" stroke-linejoin="round" stroke-miterlimit="10" d="
			M236.661,334.763c2.556-1.777,5.659-2.818,9.009-2.818c8.723,0,15.795,7.071,15.795,15.795c0,8.725-7.071,15.796-15.795,15.796
			c-8.725,0-15.797-7.071-15.797-15.796c0-3.262,0.989-6.295,2.685-8.812"/>
		<path fill="none" stroke="#FFFFFF" stroke-width="3" stroke-linejoin="round" stroke-miterlimit="10" d="M234.575,326.924
			c0-1.597-0.402-3.099-1.111-4.409l14.431-14.429c1.064-1.066,1.064-2.792,0-3.859c-1.066-1.064-2.794-1.064-3.86,0l-14.455,14.455
			c-1.286-0.673-2.747-1.056-4.301-1.056c-1.596,0-3.097,0.403-4.408,1.111l-14.513-14.511c-1.064-1.064-2.792-1.064-3.856,0
			c-1.066,1.067-1.066,2.793,0,3.859l14.536,14.536c-0.674,1.286-1.055,2.748-1.055,4.302c0,2.19,1.551,5.248,1.551,5.248
			l-14.427,14.427c-1.067,1.066-1.271,2.588-0.204,3.656c1.065,1.064,2.588,0.861,3.655-0.203l14.456-14.455
			c1.168,0.557,3.037,0.928,4.591,0.928c1.595,0,2.674,0.187,4.701-1.238l14.511,14.509c1.066,1.067,2.59,1.269,3.655,0.204
			s0.862-2.59-0.203-3.655l-14.538-14.536C233.73,331.808,234.575,329.486,234.575,326.924z"/>
		
			<line fill="none" stroke="#FFFFFF" stroke-width="3" stroke-linecap="round" stroke-linejoin="round" stroke-miterlimit="10" x1="247.881" y1="345.452" x2="252.303" y2="341.878"/>
		
			<line fill="none" stroke="#FFFFFF" stroke-width="3" stroke-linecap="round" stroke-linejoin="round" stroke-miterlimit="10" x1="238.194" y1="353.538" x2="242.897" y2="349.651"/>
		
			<line fill="none" stroke="#FFFFFF" stroke-width="3" stroke-linecap="round" stroke-linejoin="round" stroke-miterlimit="10" x1="202.346" y1="345.452" x2="197.922" y2="341.878"/>
		
			<line fill="none" stroke="#FFFFFF" stroke-width="3" stroke-linecap="round" stroke-linejoin="round" stroke-miterlimit="10" x1="212.03" y1="353.538" x2="207.327" y2="349.649"/>
	</g>
	<g>
		
			<polyline fill="none" stroke="#FFFFFF" stroke-width="3" stroke-linecap="square" stroke-linejoin="round" stroke-miterlimit="10" points="
			545.737,271.361 545.737,256.701 564.666,256.701 564.75,234.678 622.766,234.678 622.766,347.987 		"/>
		
			<rect x="554.958" y="289.575" fill="none" stroke="#FFFFFF" stroke-width="3" stroke-linecap="round" stroke-miterlimit="10" width="12" height="8.29"/>
		
			<rect x="554.958" y="307.003" fill="none" stroke="#FFFFFF" stroke-width="3" stroke-linecap="round" stroke-miterlimit="10" width="12" height="8.29"/>
		
			<rect x="554.958" y="324.431" fill="none" stroke="#FFFFFF" stroke-width="3" stroke-linecap="round" stroke-miterlimit="10" width="12" height="8.29"/>
		
			<rect x="580.208" y="286.443" fill="none" stroke="#FFFFFF" stroke-width="3" stroke-linecap="round" stroke-miterlimit="10" width="26.5" height="9.809"/>
		
			<rect x="580.208" y="267.644" fill="none" stroke="#FFFFFF" stroke-width="3" stroke-linecap="round" stroke-miterlimit="10" width="26.5" height="9.809"/>
		
			<rect x="580.208" y="248.844" fill="none" stroke="#FFFFFF" stroke-width="3" stroke-linecap="round" stroke-miterlimit="10" width="26.5" height="9.809"/>
		
			<rect x="580.208" y="343.843" fill="none" stroke="#FFFFFF" stroke-width="3" stroke-linecap="round" stroke-miterlimit="10" width="26.5" height="9.809"/>
		
			<rect x="580.208" y="325.043" fill="none" stroke="#FFFFFF" stroke-width="3" stroke-linecap="round" stroke-miterlimit="10" width="26.5" height="9.809"/>
		
			<rect x="580.208" y="306.243" fill="none" stroke="#FFFFFF" stroke-width="3" stroke-linecap="round" stroke-miterlimit="10" width="26.5" height="9.809"/>
	</g>
	<g>
		<path fill="none" stroke="#FFFFFF" stroke-width="3" stroke-miterlimit="10" d="M579.428,214.105
			c0-23.577-19.656-42.759-43.232-42.759c-0.115,0-0.707,0-0.822-0.003l-10.938-0.173c-40.212-0.084-73.646-27.295-83.819-64.266"/>
		<g>
			<g>
				<path fill="none" stroke="#FFFFFF" stroke-width="3" stroke-miterlimit="10" d="M461.521,95.062
					c0.277,1.653,0.619,3.286,1.021,4.896"/>
				<path fill="none" stroke="#FFFFFF" stroke-width="3" stroke-miterlimit="10" stroke-dasharray="9.668,9.668" d="M465.576,109.13
					c9.631,23.104,32.302,39.409,59.037,39.443c0.057,0,5.389,0.088,5.445,0.088c0.059,0.002,6.279,0.089,6.337,0.089
					c28.869,0.038,53.88,19.016,62.369,45.069"/>
				<path fill="none" stroke="#FFFFFF" stroke-width="3" stroke-miterlimit="10" d="M600.088,198.478
					c0.391,1.61,0.719,3.246,0.982,4.901"/>
			</g>
		</g>
		<path fill="none" stroke="#FFFFFF" stroke-width="3" stroke-miterlimit="10" d="M482.428,83.219
			c0,23.577,18.788,42.759,42.365,42.759c0.115,0-0.161,0-0.045,0.003l11.851,0.174c41.02,0.086,76.294,28.396,86.112,66.502"/>
	</g>
	<g>
		<path fill="none" stroke="#FFFFFF" stroke-width="3" stroke-miterlimit="10" d="M26.234,0.632v104.848
			c0,9.717,6.844,12.032,10.25,12.963l1.338,0.441c8.814,2.508,15.412,10.068,15.412,21.882v48.095l13.9-2.936l-17.322,41.471
			l-17.809-41.471l12.229,2.929v-48.088c0-9.739-5.416-12.239-8.989-13.216l-1.483-0.488c-6.295-1.792-16.525-6.979-16.525-21.434V0
			"/>
	</g>
	<g>
		<path fill="none" stroke="#FFFFFF" stroke-width="3" stroke-linecap="round" stroke-linejoin="round" stroke-miterlimit="10" d="
			M497.087,348.877c2.173,0.924,4.561,1.436,7.07,1.436c9.984,0,17.191-8.093,17.191-18.076c0-8.934-6.482-16.347-14.999-17.81
			c-0.403-7.349-6.485-13.184-13.936-13.184c-7.707,0-13.957,6.248-13.957,13.957c0,0.868,0.084,1.718,0.235,2.544
			c-7.459,1.229-13.152,7.704-13.152,15.512c0,8.686,7.041,15.727,15.727,15.727c3.031,0,6.721-1.339,9.12-2.823"/>
		<path fill="none" stroke="#FFFFFF" stroke-width="3" stroke-linecap="square" stroke-linejoin="round" stroke-miterlimit="10" d="
			M496.545,344.834v26.1c0,1.525-1.579,2.637-3.104,2.637h-0.095c-1.525,0-2.991-1.112-2.991-2.637v-42.015"/>
		<path fill="none" stroke="#FFFFFF" stroke-width="3" stroke-linecap="round" stroke-linejoin="round" stroke-miterlimit="10" d="
			M505.042,358.085c13.56,2.046,23.265,7.544,23.265,14.006c0,8.206-15.663,14.858-34.982,14.858
			c-19.321,0-34.984-6.652-34.984-14.858c0-6.515,9.87-12.05,23.603-14.056"/>
		<path fill="none" stroke="#FFFFFF" stroke-width="3" stroke-linecap="round" stroke-linejoin="round" stroke-miterlimit="10" d="
			M454.283,370.044c-3.565,9.581,12.47,19.619,24.261,19.619"/>
		<path fill="none" stroke="#FFFFFF" stroke-width="3" stroke-linecap="round" stroke-linejoin="round" stroke-miterlimit="10" d="
			M512.345,355.839c13.557,2.045,20.363,9.148,20.363,15.609"/>
	</g>
	<g>
		
			<polyline fill="none" stroke="#FFFFFF" stroke-width="3" stroke-linecap="square" stroke-linejoin="round" stroke-miterlimit="10" points="
			580.42,23.328 565.055,35.282 580.42,48.479 		"/>
		
			<polyline fill="none" stroke="#FFFFFF" stroke-width="3" stroke-linecap="square" stroke-linejoin="round" stroke-miterlimit="10" points="
			603.743,48.479 619.108,36.525 603.743,23.328 		"/>
		
			<line fill="none" stroke="#FFFFFF" stroke-width="3" stroke-linecap="round" stroke-linejoin="round" stroke-miterlimit="10" x1="586.482" y1="59.147" x2="598.556" y2="13.12"/>
	</g>
	<g>
		<circle fill="none" stroke="#FFFFFF" stroke-width="3" stroke-miterlimit="10" cx="98.644" cy="86.633" r="3.331"/>
		<path fill="none" stroke="#FFFFFF" stroke-width="3" stroke-linecap="square" stroke-linejoin="round" stroke-miterlimit="10" d="
			M61.322,98.139l-17.569,3.334l10.976-26.162l-0.165-0.904c-8.267-23.95,4.447-50.065,28.396-58.331
			c23.947-8.267,50.064,4.446,58.33,28.396c8.268,23.949-5.309,48.735-29.256,57.001c-11.442,3.95-24.583,1.937-33.092-3.223"/>
		<path fill="none" stroke="#FFFFFF" stroke-width="3" stroke-linecap="square" stroke-linejoin="round" stroke-miterlimit="10" d="
			M102.772,73.065c-1.18,1.517-3.023,2.485-5.09,2.485c-3.564,0-6.451-2.89-6.451-6.452c0-1.494,0.504-2.867,1.355-3.963
			l14.478-14.498c0,0,2.898-2.896,2.898-7.848c0-6.721-5.407-12.076-12.077-12.076c-5.148,0-9.546,3.221-11.283,7.758"/>
	</g>
	<g>
		<circle fill="none" stroke="#FFFFFF" stroke-width="3" stroke-miterlimit="10" cx="320.708" cy="305.675" r="2.843"/>
		
			<line fill="none" stroke="#FFFFFF" stroke-width="3" stroke-miterlimit="10" x1="314.148" y1="387.405" x2="326.147" y2="387.439"/>
		<path fill="none" stroke="#FFFFFF" stroke-width="3" stroke-miterlimit="10" d="M345.648,387.349
			c-0.014,4.732-1.97,9.142-5.915,9.13l-38.57-0.11c-3.945-0.012-8.528-4.439-8.515-9.172l0.241-83.994
			c0.014-4.734,4.615-6.844,8.561-6.833l38.57,0.11c3.943,0.012,5.883,2.141,5.869,6.875L345.648,387.349z"/>
		<line fill="none" stroke="#FFFFFF" stroke-width="3" stroke-miterlimit="10" x1="294.177" y1="377.348" x2="347.177" y2="377.5"/>
		<line fill="none" stroke="#FFFFFF" stroke-width="3" stroke-miterlimit="10" x1="294.352" y1="316.349" x2="347.352" y2="316.5"/>
		<g>
			<path fill="none" stroke="#FFFFFF" stroke-width="3" stroke-linejoin="round" stroke-miterlimit="10" d="M318.76,348.418
				l13.659,0.04c-0.021,7-6.037,13.308-13.436,13.286c-7.4-0.021-13.5-6.074-13.479-13.475c0.021-7.399,6.295-13.43,13.295-13.41
				L318.76,348.418z"/>
			<path fill="none" stroke="#FFFFFF" stroke-width="3" stroke-linejoin="round" stroke-miterlimit="10" d="M323.773,343.759
				l0.038-13.412c7,0.02,13.251,6.071,13.229,13.399L323.773,343.759z"/>
		</g>
	</g>
	<g>
		<path fill="none" stroke="#FFFFFF" stroke-width="3" stroke-miterlimit="10" d="M205.758,67.33h35.229
			c2.686,0,4.271,2.37,4.271,5.055v0.28c0,2.685-1.586,4.665-4.271,4.665h-39.229"/>
		<path fill="none" stroke="#FFFFFF" stroke-width="3" stroke-miterlimit="10" d="M189.758,77.33h18.229
			c2.686,0,4.271,2.37,4.271,5.055v0.28c0,2.685-1.586,4.665-4.271,4.665h-33.64c-6.159,0-15.946-4.121-15.946-13.33"/>
		<path fill="none" stroke="#FFFFFF" stroke-width="3" stroke-miterlimit="10" d="M204.758,57.33h21.229
			c2.686,0,4.271,2.37,4.271,5.055v0.28c0,2.685-1.586,4.665-4.271,4.665h-21.229"/>
		<path fill="none" stroke="#FFFFFF" stroke-width="3" stroke-miterlimit="10" d="M204.758,47.33h14.229
			c2.686,0,4.271,2.37,4.271,5.055v0.28c0,2.685-1.586,4.665-4.271,4.665h-14.229"/>
		<path fill="none" stroke="#FFFFFF" stroke-width="3" stroke-miterlimit="10" d="M204.758,47.33h7.229
			c2.686,0,4.271-1.98,4.271-4.665v-0.28c0-2.685-1.586-5.055-4.271-5.055h-33.64c-4.315,0-7.68,2.521-9.93,5.418"/>
		<path fill="none" stroke="#FFFFFF" stroke-width="3" stroke-miterlimit="10" d="M244.427,61.54
			c2.86-2.86,6.812-4.628,11.177-4.628c8.73,0,15.807,7.075,15.807,15.807c0,8.729-7.075,15.807-15.807,15.807
			c-4.646,0-8.826-2.006-11.719-5.199"/>
		<path fill="none" stroke="#FFFFFF" stroke-width="3" stroke-miterlimit="10" d="M247.967,65.379
			c1.877-1.88,4.473-3.041,7.339-3.041c5.732,0,10.38,4.646,10.38,10.381c0,5.732-4.646,10.379-10.38,10.379
			c-3.052,0-5.796-1.315-7.694-3.414"/>
	</g>
	<g>
		<g>
			
				<path fill="none" stroke="#FFFFFF" stroke-width="3" stroke-linecap="square" stroke-linejoin="round" stroke-miterlimit="10" d="
				M524.155,58.38c-4.007,8.677,1.115,19.576,1.115,19.576s11.62-3.166,15.629-11.844c4.009-8.676-1.114-19.576-1.114-19.576
				S528.162,49.704,524.155,58.38z"/>
			
				<path fill="none" stroke="#FFFFFF" stroke-width="3" stroke-linecap="square" stroke-linejoin="round" stroke-miterlimit="10" d="
				M518.634,84.108c3.989,0,5.744-3.072,7.021-6.893l7.103-15.646"/>
		</g>
		<g>
			
				<path fill="none" stroke="#FFFFFF" stroke-width="3" stroke-linecap="square" stroke-linejoin="round" stroke-miterlimit="10" d="
				M497.155,36.38c-4.007,8.677,1.115,19.576,1.115,19.576s11.62-3.166,15.629-11.844c4.009-8.676-1.114-19.576-1.114-19.576
				S501.162,27.704,497.155,36.38z"/>
			
				<path fill="none" stroke="#FFFFFF" stroke-width="3" stroke-linecap="square" stroke-linejoin="round" stroke-miterlimit="10" d="
				M491.634,62.108c3.989,0,5.744-3.072,7.021-6.893l7.103-15.646"/>
		</g>
	</g>
	<g>
		<g>
			
				<path fill="none" stroke="#FFFFFF" stroke-width="3" stroke-linecap="square" stroke-linejoin="round" stroke-miterlimit="10" d="
				M605.887,110.962c-4.007,8.677,1.115,19.576,1.115,19.576s11.62-3.166,15.629-11.844c4.009-8.676-1.114-19.576-1.114-19.576
				S609.894,102.287,605.887,110.962z"/>
			
				<path fill="none" stroke="#FFFFFF" stroke-width="3" stroke-linecap="square" stroke-linejoin="round" stroke-miterlimit="10" d="
				M600.365,136.691c3.989,0,5.744-3.072,7.021-6.893l7.103-15.646"/>
		</g>
		<g>
			
				<path fill="none" stroke="#FFFFFF" stroke-width="3" stroke-linecap="square" stroke-linejoin="round" stroke-miterlimit="10" d="
				M578.887,88.962c-4.007,8.677,1.115,19.576,1.115,19.576s11.62-3.166,15.629-11.844c4.009-8.676-1.114-19.576-1.114-19.576
				S582.894,80.287,578.887,88.962z"/>
			
				<path fill="none" stroke="#FFFFFF" stroke-width="3" stroke-linecap="square" stroke-linejoin="round" stroke-miterlimit="10" d="
				M573.365,114.691c3.989,0,5.744-3.072,7.021-6.893l7.103-15.646"/>
		</g>
	</g>
	<g>
		<g>
			
				<circle fill="none" stroke="#FFFFFF" stroke-width="3" stroke-linecap="round" stroke-linejoin="round" stroke-miterlimit="10" cx="113.464" cy="154.111" r="18.325"/>
			<path fill="none" stroke="#FFFFFF" stroke-width="3" stroke-linecap="round" stroke-linejoin="round" stroke-miterlimit="10" d="
				M113.373,172.437c-5.855,0-10.6-8.205-10.6-18.326s4.744-18.324,10.6-18.324"/>
			<path fill="none" stroke="#FFFFFF" stroke-width="3" stroke-linecap="round" stroke-linejoin="round" stroke-miterlimit="10" d="
				M113.386,172.437c5.855,0,10.602-8.205,10.602-18.326s-4.746-18.324-10.602-18.324"/>
		</g>
		
			<line fill="none" stroke="#FFFFFF" stroke-width="3" stroke-linecap="round" stroke-linejoin="round" stroke-miterlimit="10" x1="113.906" y1="129.289" x2="113.906" y2="120.78"/>
		
			<line fill="none" stroke="#FFFFFF" stroke-width="3" stroke-linecap="round" stroke-linejoin="round" stroke-miterlimit="10" x1="113.906" y1="187.997" x2="113.906" y2="178.638"/>
		
			<line fill="none" stroke="#FFFFFF" stroke-width="3" stroke-linecap="round" stroke-linejoin="round" stroke-miterlimit="10" x1="87.955" y1="155.239" x2="78.595" y2="155.239"/>
		
			<line fill="none" stroke="#FFFFFF" stroke-width="3" stroke-linecap="round" stroke-linejoin="round" stroke-miterlimit="10" x1="145.812" y1="155.239" x2="137.303" y2="155.239"/>
		<g>
			
				<line fill="none" stroke="#FFFFFF" stroke-width="3" stroke-linecap="round" stroke-linejoin="round" stroke-miterlimit="10" x1="95.47" y1="137.034" x2="89.855" y2="131.42"/>
			
				<line fill="none" stroke="#FFFFFF" stroke-width="3" stroke-linecap="round" stroke-linejoin="round" stroke-miterlimit="10" x1="135.787" y1="131.42" x2="130.171" y2="137.034"/>
		</g>
		<g>
			
				<line fill="none" stroke="#FFFFFF" stroke-width="3" stroke-linecap="round" stroke-linejoin="round" stroke-miterlimit="10" x1="95.47" y1="171.736" x2="89.855" y2="177.349"/>
			
				<line fill="none" stroke="#FFFFFF" stroke-width="3" stroke-linecap="round" stroke-linejoin="round" stroke-miterlimit="10" x1="135.787" y1="177.349" x2="130.171" y2="171.736"/>
		</g>
		
			<line fill="none" stroke="#FFFFFF" stroke-width="3" stroke-linecap="round" stroke-linejoin="round" stroke-miterlimit="10" x1="113.906" y1="136.096" x2="113.906" y2="172.682"/>
	</g>
	<g>
		<path fill="none" stroke="#FFFFFF" stroke-width="3" stroke-miterlimit="10" d="M415.812,415.074
			c0-9.717-6.844-14.283-10.25-15.214l-1.338-0.441c-8.814-2.508-15.412-10.068-15.412-21.882v-48.095l-13.9,2.936l17.322-41.471
			l17.809,41.471l-12.229-2.929v48.088c0,9.739,5.416,12.239,8.989,13.216l1.483,0.488c6.295,1.792,16.525,9.229,16.525,23.685"/>
	</g>
</g>
</svg>
