<?xml version="1.0" encoding="utf-8"?>
<!-- Generator: Adobe Illustrator 16.0.4, SVG Export Plug-In . SVG Version: 6.00 Build 0)  -->
<!DOCTYPE svg PUBLIC "-//W3C//DTD SVG 1.1//EN" "http://www.w3.org/Graphics/SVG/1.1/DTD/svg11.dtd">
<svg version="1.1" xmlns="http://www.w3.org/2000/svg" xmlns:xlink="http://www.w3.org/1999/xlink" x="0px" y="0px" viewBox="0 0 640 415" enable-background="new 0 0 640 415" xml:space="preserve">

<g id="Ebene_1">
	<g>
		<path fill="none" stroke="#FFFFFF" stroke-width="3" stroke-miterlimit="10" d="M143.898,376.107
			c0-20.846,17.379-37.807,38.227-37.807c0.099,0,0.623,0,0.726-0.004l9.672-0.152c35.555-0.074,65.116-24.135,74.112-56.822"/>
		<g>
			<path fill="none" stroke="#FFFFFF" stroke-width="3" stroke-miterlimit="10" stroke-dasharray="9.668,9.668" d="M244.565,283.289
				c-8.517,20.428-28.563,34.846-52.201,34.875c-0.052,0-4.767,0.078-4.815,0.078c-0.051,0.002-5.553,0.078-5.604,0.078
				c-25.526,0.035-47.639,16.814-55.145,39.852"/>
			<path fill="none" stroke="#FFFFFF" stroke-width="3" stroke-miterlimit="10" d="M125.631,362.289
				c-0.345,1.424-0.635,2.871-0.867,4.334"/>
		</g>
		<path fill="none" stroke="#FFFFFF" stroke-width="3" stroke-miterlimit="10" d="M229.664,260.379
			c0,20.848-16.611,37.807-37.459,37.807c-0.101,0,0.143,0,0.04,0.002l-10.478,0.154c-36.269,0.076-67.459,25.107-76.141,58.801"/>
	</g>
	<g>
		<g>
			
				<path fill="none" stroke="#FFFFFF" stroke-width="3" stroke-linecap="square" stroke-linejoin="round" stroke-miterlimit="10" d="
				M244.49,72.594c-3.543,7.672,0.986,17.309,0.986,17.309s10.275-2.799,13.819-10.472c3.544-7.671-0.985-17.31-0.985-17.31
				S248.033,64.923,244.49,72.594z"/>
			
				<path fill="none" stroke="#FFFFFF" stroke-width="3" stroke-linecap="square" stroke-linejoin="round" stroke-miterlimit="10" d="
				M239.608,95.344c3.526,0,5.079-2.717,6.208-6.096l6.28-13.833"/>
		</g>
		<g>
			
				<path fill="none" stroke="#FFFFFF" stroke-width="3" stroke-linecap="square" stroke-linejoin="round" stroke-miterlimit="10" d="
				M220.617,53.142c-3.543,7.672,0.986,17.31,0.986,17.31s10.275-2.8,13.818-10.473c3.545-7.671-0.984-17.309-0.984-17.309
				S224.16,45.471,220.617,53.142z"/>
			
				<path fill="none" stroke="#FFFFFF" stroke-width="3" stroke-linecap="square" stroke-linejoin="round" stroke-miterlimit="10" d="
				M215.735,75.891c3.526,0,5.079-2.717,6.208-6.094l6.28-13.834"/>
		</g>
	</g>
	<g>
		<path fill="none" stroke="#FFFFFF" stroke-width="3" stroke-linecap="round" stroke-linejoin="round" stroke-miterlimit="10" d="
			M391.39,334.77c0,0,4.58-9.121,16.313-9.121c11.734,0,16.61,6.539,16.61,6.539s2.525-7.1,9.394-6.812
			c6.869,0.285,6.975,4.42,9.101,6.031c1.335,1.012,4.675,0.781,4.675,0.781s-4.865-15.695-3.72-27.43
			c1.145-11.734-8.198-13.734-8.198-13.734"/>
		<path fill="none" stroke="#FFFFFF" stroke-width="3" stroke-linecap="round" stroke-linejoin="round" stroke-miterlimit="10" d="
			M400.181,367.416c0.859,0.285,18.608,7.094,38.717-0.732c18.97-7.385,34.628-22.846,34.628-22.846s2.289-15.613-8.587-32.215
			c-10.874-16.598-19.458-27.186-19.458-27.186s-12.02-9.467-23.182-9.467l-8.3,12.326c0,0,2.014,6.584,9.741,6.584
			c0,0,8.232,1.066,8.998-6.592"/>
		<g>
			
				<polyline fill="none" stroke="#FFFFFF" stroke-width="3" stroke-linecap="square" stroke-linejoin="round" stroke-miterlimit="10" points="
				418.789,343.293 410.713,349.578 418.789,356.514 			"/>
			
				<polyline fill="none" stroke="#FFFFFF" stroke-width="3" stroke-linecap="square" stroke-linejoin="round" stroke-miterlimit="10" points="
				431.047,356.514 439.124,350.23 431.047,343.293 			"/>
			
				<line fill="none" stroke="#FFFFFF" stroke-width="3" stroke-linecap="round" stroke-linejoin="round" stroke-miterlimit="10" x1="421.977" y1="362.121" x2="428.321" y2="337.93"/>
		</g>
	</g>
	<g>
		<g>
			
				<circle fill="none" stroke="#FFFFFF" stroke-width="3" stroke-linecap="round" stroke-linejoin="round" stroke-miterlimit="10" cx="551.353" cy="150.084" r="16.203"/>
			<path fill="none" stroke="#FFFFFF" stroke-width="3" stroke-linecap="round" stroke-linejoin="round" stroke-miterlimit="10" d="
				M551.271,166.287c-5.178,0-9.373-7.254-9.373-16.203s4.195-16.202,9.373-16.202"/>
			<path fill="none" stroke="#FFFFFF" stroke-width="3" stroke-linecap="round" stroke-linejoin="round" stroke-miterlimit="10" d="
				M551.282,166.287c5.179,0,9.375-7.254,9.375-16.203s-4.196-16.202-9.375-16.202"/>
		</g>
		
			<line fill="none" stroke="#FFFFFF" stroke-width="3" stroke-linecap="round" stroke-linejoin="round" stroke-miterlimit="10" x1="551.742" y1="128.136" x2="551.742" y2="120.613"/>
		
			<line fill="none" stroke="#FFFFFF" stroke-width="3" stroke-linecap="round" stroke-linejoin="round" stroke-miterlimit="10" x1="551.742" y1="180.045" x2="551.742" y2="171.77"/>
		
			<line fill="none" stroke="#FFFFFF" stroke-width="3" stroke-linecap="round" stroke-linejoin="round" stroke-miterlimit="10" x1="528.797" y1="151.082" x2="520.521" y2="151.082"/>
		
			<line fill="none" stroke="#FFFFFF" stroke-width="3" stroke-linecap="round" stroke-linejoin="round" stroke-miterlimit="10" x1="579.953" y1="151.082" x2="572.431" y2="151.082"/>
		<g>
			
				<line fill="none" stroke="#FFFFFF" stroke-width="3" stroke-linecap="round" stroke-linejoin="round" stroke-miterlimit="10" x1="535.441" y1="134.985" x2="530.477" y2="130.021"/>
			
				<line fill="none" stroke="#FFFFFF" stroke-width="3" stroke-linecap="round" stroke-linejoin="round" stroke-miterlimit="10" x1="571.088" y1="130.021" x2="566.124" y2="134.985"/>
		</g>
		<g>
			
				<line fill="none" stroke="#FFFFFF" stroke-width="3" stroke-linecap="round" stroke-linejoin="round" stroke-miterlimit="10" x1="535.441" y1="165.667" x2="530.477" y2="170.63"/>
			
				<line fill="none" stroke="#FFFFFF" stroke-width="3" stroke-linecap="round" stroke-linejoin="round" stroke-miterlimit="10" x1="571.088" y1="170.63" x2="566.124" y2="165.667"/>
		</g>
		
			<line fill="none" stroke="#FFFFFF" stroke-width="3" stroke-linecap="round" stroke-linejoin="round" stroke-miterlimit="10" x1="551.742" y1="134.155" x2="551.742" y2="166.503"/>
	</g>
	<g>
		<path fill="none" stroke="#FFFFFF" stroke-width="3" stroke-miterlimit="10" d="M518.984,80.578c1.625,0,2.944,1.318,2.944,2.945
			s-1.319,2.945-2.944,2.945c-1.629,0-2.945-1.318-2.945-2.945S517.355,80.578,518.984,80.578z"/>
		<path fill="none" stroke="#FFFFFF" stroke-width="3" stroke-linecap="square" stroke-linejoin="round" stroke-miterlimit="10" d="
			M485.984,93.697l-15.534,2.947l9.704-23.132l-0.146-0.8c-7.31-21.176,3.933-44.268,25.107-51.575
			c21.175-7.31,44.267,3.931,51.575,25.107c7.311,21.176-4.693,43.092-25.868,50.399c-10.116,3.493-21.735,1.713-29.259-2.849"/>
		<path fill="none" stroke="#FFFFFF" stroke-width="3" stroke-linecap="square" stroke-linejoin="round" stroke-miterlimit="10" d="
			M522.634,71.527c-1.042,1.34-2.673,2.197-4.499,2.197c-3.153,0-5.705-2.555-5.705-5.705c0-1.321,0.446-2.535,1.198-3.504
			l12.802-12.819c0,0,2.562-2.562,2.562-6.938c0-5.942-4.781-10.678-10.679-10.678c-4.553,0-8.44,2.848-9.976,6.859"/>
	</g>
	<g>
		<g>
			<path fill="none" stroke="#FFFFFF" stroke-width="3" stroke-miterlimit="10" d="M523.347,230.207
				c0,4.238-6.873,7.676-15.354,7.676c-8.479,0-15.352-3.438-15.352-7.676"/>
			<path fill="none" stroke="#FFFFFF" stroke-width="3" stroke-miterlimit="10" d="M525.803,242.896
				c0,4.918-7.973,8.904-17.81,8.904c-9.834,0-17.808-3.986-17.808-8.904"/>
			<path fill="none" stroke="#FFFFFF" stroke-width="3" stroke-miterlimit="10" d="M518.434,204.824
				c0,2.883-4.673,5.219-10.44,5.219c-5.765,0-10.439-2.338-10.439-5.219"/>
			<path fill="none" stroke="#FFFFFF" stroke-width="3" stroke-miterlimit="10" d="M520.89,217.719
				c0,3.561-5.773,6.449-12.896,6.449c-7.122,0-12.895-2.889-12.895-6.449"/>
			<path fill="none" stroke="#FFFFFF" stroke-width="3" stroke-miterlimit="10" d="M518.703,265.701
				c-3.067,0.896-6.65,1.412-10.464,1.412c-11.271,0-20.471-4.502-20.471-10.051v-0.613l11.543-62.639
				c0-2.338,3.897-4.236,8.578-4.236c4.68,0,8.577,1.898,8.577,4.236l12.107,62.594"/>
		</g>
		<path fill="none" stroke="#FFFFFF" stroke-width="3" stroke-miterlimit="10" d="M527.821,252.984l4.781,4.781
			c2.608,2.607,2.95,5.293,0.091,7.508c-4.461,3.455-19.44,11.459-19.44,11.459c-4.916,2.889-9.352-0.092-9.352-0.092
			s-15.273-8.297-19.83-11.846c-2.908-2.268-2.648-4.953-0.093-7.508l4.993-4.994"/>
	</g>
	<g>
		<path fill="none" stroke="#FFFFFF" stroke-width="3" stroke-linecap="square" stroke-linejoin="round" stroke-miterlimit="10" d="
			M387.447,80.043c-1.459,0-1.727-0.752-0.594-1.673l33.904-27.581c1.132-0.92,2.982-0.92,4.115,0l33.905,27.581
			c1.132,0.921,0.865,1.673-0.596,1.673H387.447z"/>
		
			<line fill="none" stroke="#FFFFFF" stroke-width="3" stroke-linecap="square" stroke-linejoin="round" stroke-miterlimit="10" x1="451.549" y1="80.486" x2="451.549" y2="112.317"/>
		
			<line fill="none" stroke="#FFFFFF" stroke-width="3" stroke-linecap="square" stroke-linejoin="round" stroke-miterlimit="10" x1="441.822" y1="80.486" x2="441.822" y2="112.317"/>
		
			<line fill="none" stroke="#FFFFFF" stroke-width="3" stroke-linecap="square" stroke-linejoin="round" stroke-miterlimit="10" x1="427.676" y1="80.486" x2="427.676" y2="112.317"/>
		
			<line fill="none" stroke="#FFFFFF" stroke-width="3" stroke-linecap="square" stroke-linejoin="round" stroke-miterlimit="10" x1="417.949" y1="80.486" x2="417.949" y2="112.317"/>
		
			<line fill="none" stroke="#FFFFFF" stroke-width="3" stroke-linecap="square" stroke-linejoin="round" stroke-miterlimit="10" x1="403.802" y1="80.486" x2="403.802" y2="112.317"/>
		
			<line fill="none" stroke="#FFFFFF" stroke-width="3" stroke-linecap="square" stroke-linejoin="round" stroke-miterlimit="10" x1="384.792" y1="114.528" x2="460.833" y2="114.528"/>
		
			<line fill="none" stroke="#FFFFFF" stroke-width="3" stroke-linecap="square" stroke-linejoin="round" stroke-miterlimit="10" x1="384.792" y1="119.833" x2="460.833" y2="119.833"/>
		
			<line fill="none" stroke="#FFFFFF" stroke-width="3" stroke-linecap="square" stroke-linejoin="round" stroke-miterlimit="10" x1="384.792" y1="125.137" x2="460.833" y2="125.137"/>
		
			<rect x="422.37" y="25.224" fill="none" stroke="#FFFFFF" stroke-width="3" stroke-linecap="square" stroke-linejoin="round" stroke-miterlimit="10" width="17.684" height="10.61"/>
		
			<line fill="none" stroke="#FFFFFF" stroke-width="3" stroke-linecap="square" stroke-linejoin="round" stroke-miterlimit="10" x1="422.37" y1="49.54" x2="422.37" y2="25.667"/>
		
			<line fill="none" stroke="#FFFFFF" stroke-width="3" stroke-linecap="square" stroke-linejoin="round" stroke-miterlimit="10" x1="394.076" y1="80.486" x2="394.076" y2="112.317"/>
	</g>
	<g>
		
			<polyline fill="none" stroke="#FFFFFF" stroke-width="3" stroke-linecap="square" stroke-linejoin="round" stroke-miterlimit="10" points="
			590.91,364.957 577.324,375.527 590.91,387.195 		"/>
		
			<polyline fill="none" stroke="#FFFFFF" stroke-width="3" stroke-linecap="square" stroke-linejoin="round" stroke-miterlimit="10" points="
			611.533,387.195 625.119,376.625 611.533,364.957 		"/>
		
			<line fill="none" stroke="#FFFFFF" stroke-width="3" stroke-linecap="round" stroke-linejoin="round" stroke-miterlimit="10" x1="596.271" y1="396.629" x2="606.946" y2="355.932"/>
	</g>
	<g>
		
			<line fill="none" stroke="#FFFFFF" stroke-width="3" stroke-linecap="round" stroke-linejoin="round" stroke-miterlimit="10" x1="109.716" y1="292.93" x2="124.163" y2="230.232"/>
		
			<line fill="none" stroke="#FFFFFF" stroke-width="3" stroke-linecap="round" stroke-linejoin="round" stroke-miterlimit="10" x1="147.589" y1="275.641" x2="137.126" y2="230.232"/>
		
			<line fill="none" stroke="#FFFFFF" stroke-width="3" stroke-linecap="round" stroke-linejoin="round" stroke-miterlimit="10" x1="142.775" y1="257.625" x2="113.54" y2="275.445"/>
		
			<line fill="none" stroke="#FFFFFF" stroke-width="3" stroke-linecap="round" stroke-linejoin="round" stroke-miterlimit="10" x1="118.46" y1="255.908" x2="147.589" y2="275.641"/>
		
			<line fill="none" stroke="#FFFFFF" stroke-width="3" stroke-linecap="round" stroke-linejoin="round" stroke-miterlimit="10" x1="139.619" y1="242.838" x2="119.712" y2="255.529"/>
		
			<line fill="none" stroke="#FFFFFF" stroke-width="3" stroke-linecap="round" stroke-linejoin="round" stroke-miterlimit="10" x1="121.575" y1="243.107" x2="141.653" y2="253.719"/>
		
			<line fill="none" stroke="#FFFFFF" stroke-width="3" stroke-linecap="round" stroke-linejoin="round" stroke-miterlimit="10" x1="143.657" y1="229.809" x2="69.386" y2="229.809"/>
		<path fill="none" stroke="#FFFFFF" stroke-width="3" stroke-linecap="round" stroke-linejoin="round" stroke-miterlimit="10" d="
			M160.976,228.182l-5.681,5.164h-5.587c-2.852,0-5.607-2.312-5.607-5.164v-5.586c0-2.854,2.756-5.166,5.607-5.166h11.634"/>
		
			<polyline fill="none" stroke="#FFFFFF" stroke-width="3" stroke-linecap="round" stroke-linejoin="round" stroke-miterlimit="10" points="
			69.386,221.852 125.976,221.852 130.519,179.218 135.708,221.852 143.657,221.852 		"/>
		
			<line fill="none" stroke="#FFFFFF" stroke-width="3" stroke-linecap="round" stroke-linejoin="round" stroke-miterlimit="10" x1="130.519" y1="179.218" x2="150.813" y2="213.117"/>
		
			<line fill="none" stroke="#FFFFFF" stroke-width="3" stroke-linecap="round" stroke-linejoin="round" stroke-miterlimit="10" x1="130.618" y1="179.218" x2="86.134" y2="221.852"/>
		
			<line fill="none" stroke="#FFFFFF" stroke-width="3" stroke-linecap="round" stroke-linejoin="round" stroke-miterlimit="10" x1="85.743" y1="221.41" x2="85.743" y2="359.344"/>
		<g>
			
				<circle fill="none" stroke="#FFFFFF" stroke-width="3" stroke-linecap="round" stroke-linejoin="round" stroke-miterlimit="10" cx="90.381" cy="373.59" r="4.59"/>
			
				<circle fill="none" stroke="#FFFFFF" stroke-width="3" stroke-linecap="round" stroke-linejoin="round" stroke-miterlimit="10" cx="81.188" cy="373.59" r="4.59"/>
			
				<circle fill="none" stroke="#FFFFFF" stroke-width="3" stroke-linecap="round" stroke-linejoin="round" stroke-miterlimit="10" cx="85.784" cy="381.761" r="4.591"/>
			<path fill="none" stroke="#FFFFFF" stroke-width="3" stroke-linecap="round" stroke-linejoin="round" stroke-miterlimit="10" d="
				M90.323,383.715c0.984,0.643,2.215,0.908,3.457,0.646c2.48-0.525,4.063-2.963,3.539-5.443c-0.281-1.334-1.119-2.41-2.219-3.037"
				/>
			<path fill="none" stroke="#FFFFFF" stroke-width="3" stroke-linecap="round" stroke-linejoin="round" stroke-miterlimit="10" d="
				M86.228,386.777c0,2.303-1.346,3.576-1.83,3.848c-2.213,1.24-5.012,0.453-6.248-1.76c-0.336-0.596-1.014-1.793-0.572-3.281"/>
			<path fill="none" stroke="#FFFFFF" stroke-width="3" stroke-linecap="round" stroke-linejoin="round" stroke-miterlimit="10" d="
				M86.615,390.625c2.212,1.24,5.011,0.453,6.248-1.76c0.335-0.596,1.008-1.566,0.571-3.281"/>
			<path fill="none" stroke="#FFFFFF" stroke-width="3" stroke-linecap="round" stroke-linejoin="round" stroke-miterlimit="10" d="
				M81.589,383.715c-0.984,0.643-2.215,0.908-3.456,0.646c-2.481-0.525-4.065-2.963-3.54-5.443c0.282-1.334,1.119-2.41,2.219-3.037"
				/>
			<path fill="none" stroke="#FFFFFF" stroke-width="3" stroke-linecap="round" stroke-linejoin="round" stroke-miterlimit="10" d="
				M87.945,359.74c-2.723,2.723-1.833,6.305-1.833,6.305s3.854,0.621,6.306-1.832c2.399-2.398,2.575-7.047,2.575-7.047
				S90.569,357.117,87.945,359.74z"/>
			<path fill="none" stroke="#FFFFFF" stroke-width="3" stroke-linecap="round" stroke-linejoin="round" stroke-miterlimit="10" d="
				M83.83,359.74c2.722,2.723,1.832,6.305,1.832,6.305s-3.854,0.621-6.306-1.832c-2.4-2.398-2.575-7.047-2.575-7.047
				S81.205,357.117,83.83,359.74z"/>
		</g>
	</g>
	<g>
		<path fill="none" stroke="#FFFFFF" stroke-width="3" stroke-linecap="round" stroke-linejoin="round" stroke-miterlimit="10" d="
			M294.438,373.041c-9.395-2.738-13.524-14.334-5.304-23.395"/>
		<path fill="none" stroke="#FFFFFF" stroke-width="3" stroke-linecap="round" stroke-linejoin="round" stroke-miterlimit="10" d="
			M294.438,306.125c-9.395,2.734-13.524,14.332-5.304,23.393"/>
		<path fill="none" stroke="#FFFFFF" stroke-width="3" stroke-linecap="round" stroke-linejoin="round" stroke-miterlimit="10" d="
			M297.785,314.592c-9.291-15.639,4.312-20.457,10.692-18.832c4.473,1.139,8.616,3.855,8.616,8.615v33.658v2.838v33.52
			c0,4.758-4.144,7.477-8.616,8.615c-6.381,1.623-19.848-3.125-10.556-18.764"/>
		<path fill="none" stroke="#FFFFFF" stroke-width="3" stroke-linecap="round" stroke-linejoin="round" stroke-miterlimit="10" d="
			M286.762,352.762c-10.887-4.645-11.492-20.676-0.097-26.902"/>
		<path fill="none" stroke="#FFFFFF" stroke-width="3" stroke-linecap="round" stroke-linejoin="round" stroke-miterlimit="10" d="
			M345.562,305.729c9.395,2.736,13.521,14.334,5.303,23.395"/>
		<path fill="none" stroke="#FFFFFF" stroke-width="3" stroke-linecap="round" stroke-linejoin="round" stroke-miterlimit="10" d="
			M345.562,372.645c9.395-2.734,13.521-14.332,5.303-23.393"/>
		<path fill="none" stroke="#FFFFFF" stroke-width="3" stroke-linecap="round" stroke-linejoin="round" stroke-miterlimit="10" d="
			M342.215,364.178c9.289,15.639-4.119,20.455-10.504,18.832c-4.475-1.139-8.43-3.855-8.43-8.615v-33.66v-2.836v-33.52
			c0-4.76,3.955-7.477,8.43-8.615c6.385-1.625,19.754,3.123,10.463,18.762"/>
		<path fill="none" stroke="#FFFFFF" stroke-width="3" stroke-linecap="round" stroke-linejoin="round" stroke-miterlimit="10" d="
			M353.238,326.008c10.887,4.645,11.49,20.674,0.098,26.9"/>
		<g>
			<path fill="none" stroke="#FFFFFF" stroke-width="3" stroke-linecap="round" stroke-linejoin="round" stroke-miterlimit="10" d="
				M308.885,315.443c0,6.775-4.832,12.256-10.807,12.256"/>
			<path fill="none" stroke="#FFFFFF" stroke-width="3" stroke-linecap="round" stroke-linejoin="round" stroke-miterlimit="10" d="
				M330.621,315.443c0,6.775,4.832,12.256,10.807,12.256"/>
		</g>
		<g>
			<path fill="none" stroke="#FFFFFF" stroke-width="3" stroke-linecap="round" stroke-linejoin="round" stroke-miterlimit="10" d="
				M308.885,364.6c0-6.773-4.832-12.252-10.807-12.252"/>
			<path fill="none" stroke="#FFFFFF" stroke-width="3" stroke-linecap="round" stroke-linejoin="round" stroke-miterlimit="10" d="
				M330.621,364.6c0-6.773,4.832-12.252,10.807-12.252"/>
		</g>
		<path fill="none" stroke="#FFFFFF" stroke-width="3" stroke-linecap="round" stroke-linejoin="round" stroke-miterlimit="10" d="
			M348.674,340.494c-4.225-4.787-11.059-4.787-15.283,0"/>
		<path fill="none" stroke="#FFFFFF" stroke-width="3" stroke-linecap="round" stroke-linejoin="round" stroke-miterlimit="10" d="
			M304.448,340.494c-4.223-4.787-11.061-4.787-15.281,0"/>
	</g>
	<g>
		
			<rect x="517.919" y="341.105" transform="matrix(0.7071 -0.7071 0.7071 0.7071 -79.7193 498.0701)" fill="none" stroke="#FFFFFF" stroke-width="3" stroke-linejoin="round" stroke-miterlimit="10" width="86.877" height="8.317"/>
		
			<rect x="529.673" y="352.854" transform="matrix(0.7071 -0.7071 0.7071 0.7071 -84.5883 509.8067)" fill="none" stroke="#FFFFFF" stroke-width="3" stroke-linejoin="round" stroke-miterlimit="10" width="86.876" height="8.317"/>
		
			<rect x="506.798" y="329.981" transform="matrix(0.7071 -0.7071 0.7071 0.7071 -75.1122 486.9385)" fill="none" stroke="#FFFFFF" stroke-width="3" stroke-linejoin="round" stroke-miterlimit="10" width="86.878" height="8.316"/>
		
			<rect x="495.363" y="319.004" transform="matrix(0.7071 -0.7071 0.7071 0.7071 -70.3762 475.4973)" fill="none" stroke="#FFFFFF" stroke-width="3" stroke-linejoin="round" stroke-miterlimit="10" width="86.876" height="7.396"/>
		
			<rect x="483.6" y="307.243" transform="matrix(0.7071 -0.7071 0.7071 0.7071 -65.5018 463.7436)" fill="none" stroke="#FFFFFF" stroke-width="3" stroke-linejoin="round" stroke-miterlimit="10" width="86.875" height="7.393"/>
	</g>
	<g>
		
			<rect x="61.51" y="41.458" fill="none" stroke="#FFFFFF" stroke-width="3" stroke-linecap="round" stroke-miterlimit="10" width="10.609" height="7.33"/>
		
			<rect x="61.51" y="56.869" fill="none" stroke="#FFFFFF" stroke-width="3" stroke-linecap="round" stroke-miterlimit="10" width="10.609" height="7.33"/>
		
			<rect x="61.51" y="72.278" fill="none" stroke="#FFFFFF" stroke-width="3" stroke-linecap="round" stroke-miterlimit="10" width="10.609" height="7.33"/>
		
			<rect x="164.127" y="41.458" fill="none" stroke="#FFFFFF" stroke-width="3" stroke-linecap="round" stroke-miterlimit="10" width="10.609" height="7.33"/>
		
			<rect x="164.127" y="56.869" fill="none" stroke="#FFFFFF" stroke-width="3" stroke-linecap="round" stroke-miterlimit="10" width="10.609" height="7.33"/>
		
			<rect x="164.127" y="72.278" fill="none" stroke="#FFFFFF" stroke-width="3" stroke-linecap="round" stroke-miterlimit="10" width="10.609" height="7.33"/>
		
			<rect x="102.182" y="70.442" fill="none" stroke="#FFFFFF" stroke-width="3" stroke-linecap="round" stroke-miterlimit="10" width="31.832" height="10.61"/>
		
			<rect x="102.182" y="50.105" fill="none" stroke="#FFFFFF" stroke-width="3" stroke-linecap="round" stroke-miterlimit="10" width="31.832" height="10.611"/>
		
			<rect x="102.182" y="29.769" fill="none" stroke="#FFFFFF" stroke-width="3" stroke-linecap="round" stroke-miterlimit="10" width="31.832" height="10.61"/>
		
			<line fill="none" stroke="#FFFFFF" stroke-width="3" stroke-linecap="square" stroke-linejoin="round" stroke-miterlimit="10" x1="155.233" y1="31.291" x2="155.233" y2="89.647"/>
		
			<line fill="none" stroke="#FFFFFF" stroke-width="3" stroke-linecap="square" stroke-linejoin="round" stroke-miterlimit="10" x1="80.961" y1="31.291" x2="80.961" y2="71.08"/>
		
			<polyline fill="none" stroke="#FFFFFF" stroke-width="3" stroke-linecap="square" stroke-linejoin="round" stroke-miterlimit="10" points="
			28,84.5 53.5,84.5 53.5,30.5 80.5,30.5 80.5,17.5 154.5,17.5 154.5,30.5 185.5,30.5 185.5,109.5 200,109.5 		"/>
	</g>
	<g>
		<g>
			<g>
				<path fill="none" stroke="#FFFFFF" stroke-width="3" stroke-miterlimit="10" d="M55.848,145.566v-22.864
					c0-1.78,1.794-3.092,3.575-3.092c3.657,0,3.498,2.984,3.498,2.984v25.624"/>
				<path fill="none" stroke="#FFFFFF" stroke-width="3" stroke-miterlimit="10" d="M49.658,146.451v-27.729
					c0-1.779,1.352-3.091,3.133-3.091c3.277,0,3.057,2.984,3.057,2.984v27.835"/>
				<path fill="none" stroke="#FFFFFF" stroke-width="3" stroke-miterlimit="10" d="M42.584,146.451v-23.749
					c0-1.78,1.795-3.092,3.576-3.092c3.033,0,3.498,2.984,3.498,2.984v23.856"/>
				<path fill="none" stroke="#FFFFFF" stroke-width="3" stroke-miterlimit="10" d="M25.785,414.584v-15.76
					c0-7.93,4.549-9.664,7.599-9.664h2.497c6.029,0,12.692-2.518,17.217-8.531c4.226-5.615,5.402-12.514,5.402-21.105V182.702
					v-5.405c8.842,0,10.963-6.295,10.963-10.379l-0.129-22.285c0-1.78-1.312-3.044-3.092-3.044h-0.187
					c-1.78,0-3.135,1.218-3.135,2.998v11.59"/>
				<path fill="none" stroke="#FFFFFF" stroke-width="3" stroke-miterlimit="10" d="M42.584,146.451v-15.898
					c0,0-0.639-2.984-3.166-2.984c-1.779,0-3.296,1.312-3.296,3.091l0.155,33.582c0,2.862,2.772,6.511,4.541,6.511v11.95v176.82
					c0,10.629-4.271,11.955-8.473,11.955H28.08c-10.642,0-19.977,5.111-19.977,23.252v19.855"/>
			</g>
			<polyline fill="none" stroke="#FFFFFF" stroke-width="3" stroke-linecap="square" stroke-miterlimit="10" points="
				55.405,115.946 83.257,115.946 83.257,149.544 71.32,149.544 			"/>
		</g>
		<path fill="none" stroke="#FFFFFF" stroke-width="3" stroke-miterlimit="10" d="M16.625,414.584v-20.775
			c0-8.148,5.902-13.406,13.288-13.406h5.004c8.157,0,14.614-5.531,14.614-15c0-11.779,0-177.43,0-177.43"/>
		<path fill="none" stroke="#FFFFFF" stroke-width="3" stroke-linecap="square" stroke-linejoin="round" stroke-miterlimit="10" d="
			M54.063,185.527c-0.02,1.37-1.147,2.465-2.519,2.445l-4.136-0.06c-1.369-0.02-2.465-1.148-2.446-2.519l0.035-2.482
			c0.021-1.37,1.149-2.465,2.52-2.445l4.137,0.06c1.369,0.021,2.466,1.148,2.446,2.519L54.063,185.527z"/>
		
			<line fill="none" stroke="#FFFFFF" stroke-width="3" stroke-linecap="square" stroke-linejoin="round" stroke-miterlimit="10" x1="41" y1="182.5" x2="44" y2="182.5"/>
		
			<line fill="none" stroke="#FFFFFF" stroke-width="3" stroke-linecap="square" stroke-linejoin="round" stroke-miterlimit="10" x1="41" y1="185.5" x2="44" y2="185.5"/>
		
			<line fill="none" stroke="#FFFFFF" stroke-width="3" stroke-linecap="square" stroke-linejoin="round" stroke-miterlimit="10" x1="55" y1="182.5" x2="58" y2="182.5"/>
		
			<line fill="none" stroke="#FFFFFF" stroke-width="3" stroke-linecap="square" stroke-linejoin="round" stroke-miterlimit="10" x1="55" y1="185.5" x2="58" y2="185.5"/>
	</g>
	<g>
		<g>
			
				<polygon fill="none" stroke="#FFFFFF" stroke-width="3" stroke-linecap="square" stroke-linejoin="round" stroke-miterlimit="10" points="
				343.5,57.623 343.5,114.5 288.5,114.5 288.5,36.5 322.525,36.5 			"/>
			
				<polyline fill="none" stroke="#FFFFFF" stroke-width="3" stroke-linecap="square" stroke-linejoin="round" stroke-miterlimit="10" points="
				321.5,37 321.5,58.5 343,58.5 			"/>
		</g>
		<g>
			
				<line fill="none" stroke="#FFFFFF" stroke-width="3" stroke-linecap="square" stroke-linejoin="round" stroke-miterlimit="10" x1="301" y1="74.5" x2="331" y2="74.5"/>
			
				<line fill="none" stroke="#FFFFFF" stroke-width="3" stroke-linecap="square" stroke-linejoin="round" stroke-miterlimit="10" x1="301" y1="83.5" x2="331" y2="83.5"/>
			
				<line fill="none" stroke="#FFFFFF" stroke-width="3" stroke-linecap="square" stroke-linejoin="round" stroke-miterlimit="10" x1="301" y1="91.5" x2="331" y2="91.5"/>
			
				<line fill="none" stroke="#FFFFFF" stroke-width="3" stroke-linecap="square" stroke-linejoin="round" stroke-miterlimit="10" x1="301" y1="100.5" x2="331" y2="100.5"/>
		</g>
		
			<polyline fill="none" stroke="#FFFFFF" stroke-width="3" stroke-linecap="square" stroke-linejoin="round" stroke-miterlimit="10" points="
			295.5,36 295.5,29.5 350.5,29.5 350.5,107.5 344,107.5 		"/>
		<g>
			<path fill="none" stroke="#FFFFFF" stroke-width="3" stroke-linejoin="round" stroke-miterlimit="10" d="M305.08,45.686h-1.314
				c-0.934,0-1.313,0.08-1.58,0.347c-0.293,0.294-0.375,0.774-0.375,1.734v5.017c0,1.521-1.527,2.188-2.542,2.668
				c1.015,0.48,2.542,1.147,2.542,2.669v5.016c0,0.961,0.082,1.441,0.375,1.734c0.267,0.267,0.638,0.348,1.572,0.348h1.331"/>
		</g>
		<g>
			<path fill="none" stroke="#FFFFFF" stroke-width="3" stroke-linejoin="round" stroke-miterlimit="10" d="M308.519,65.218h1.173
				c0.934,0,1.314-0.081,1.581-0.348c0.292-0.293,0.374-0.773,0.374-1.734v-5.016c0-1.521,1.527-2.188,2.543-2.669
				c-1.016-0.479-2.543-1.146-2.543-2.668v-5.017c0-0.96-0.082-1.44-0.374-1.734c-0.267-0.267-0.638-0.347-1.573-0.347h-1.189"/>
		</g>
	</g>
	<g>
		<path fill="none" stroke="#FFFFFF" stroke-width="3" stroke-miterlimit="10" d="M590.996,0.172v85.707
			c0,9.717,6.844,12.032,10.25,12.963l1.338,0.441c8.814,2.508,15.412,10.068,15.412,21.882v110.219l13.9-2.936l-17.322,41.471
			l-17.809-41.471l12.229,2.928V121.165c0-9.739-5.416-12.239-8.989-13.216l-1.483-0.488c-6.295-1.792-16.525-6.979-16.525-21.434
			V-0.172"/>
	</g>
</g>
</svg>
