<svg version="1.1" xmlns="http://www.w3.org/2000/svg" xmlns:xlink="http://www.w3.org/1999/xlink" x="0px" y="0px" viewBox="0 0 640 415" enable-background="new 0 0 640 415" xml:space="preserve">

<g id="Ebene_1">
	<g>
		<path fill="none" stroke="#FFFFFF" stroke-width="3" stroke-miterlimit="10" d="M52.736,187.869
			c0-20.846,17.379-37.806,38.227-37.806c0.099,0,0.623,0,0.726-0.004l9.672-0.153c35.555-0.074,65.116-24.134,74.112-56.822"/>
		<g>
			<path fill="none" stroke="#FFFFFF" stroke-width="3" stroke-miterlimit="10" stroke-dasharray="9.668,9.668" d="M153.403,95.052
				c-8.517,20.428-28.563,34.845-52.201,34.875c-0.052,0-4.767,0.078-4.815,0.078c-0.051,0.002-5.553,0.078-5.604,0.078
				c-25.526,0.034-47.639,16.814-55.145,39.851"/>
			<path fill="none" stroke="#FFFFFF" stroke-width="3" stroke-miterlimit="10" d="M34.469,174.052
				c-0.345,1.424-0.635,2.87-0.867,4.334"/>
		</g>
		<path fill="none" stroke="#FFFFFF" stroke-width="3" stroke-miterlimit="10" d="M138.502,72.142
			c0,20.847-16.611,37.807-37.459,37.807c-0.101,0,0.143,0,0.04,0.002l-10.478,0.154c-36.269,0.076-67.459,25.106-76.141,58.8"/>
	</g>
	<g>
		<path fill="none" stroke="#FFFFFF" stroke-width="3" stroke-linecap="round" stroke-linejoin="round" stroke-miterlimit="10" d="
			M73.844,55.883c2.173,0.924,4.561,1.436,7.07,1.436c9.984,0,17.191-8.093,17.191-18.076c0-8.934-6.482-16.347-14.999-17.81
			c-0.403-7.349-6.485-13.184-13.936-13.184c-7.707,0-13.957,6.248-13.957,13.957c0,0.868,0.084,1.718,0.235,2.544
			c-7.459,1.229-13.152,7.704-13.152,15.512c0,8.686,7.041,15.727,15.727,15.727c3.031,0,6.721-1.339,9.12-2.823"/>
		<path fill="none" stroke="#FFFFFF" stroke-width="3" stroke-linecap="square" stroke-linejoin="round" stroke-miterlimit="10" d="
			M73.302,51.84v26.1c0,1.525-1.579,2.637-3.104,2.637h-0.095c-1.525,0-2.991-1.112-2.991-2.637V35.925"/>
		<path fill="none" stroke="#FFFFFF" stroke-width="3" stroke-linecap="round" stroke-linejoin="round" stroke-miterlimit="10" d="
			M81.799,65.091c13.56,2.046,23.265,7.544,23.265,14.006c0,8.206-15.663,14.858-34.982,14.858
			c-19.321,0-34.984-6.652-34.984-14.858c0-6.515,9.87-12.05,23.603-14.056"/>
		<path fill="none" stroke="#FFFFFF" stroke-width="3" stroke-linecap="round" stroke-linejoin="round" stroke-miterlimit="10" d="
			M31.04,77.05c-3.565,9.581,12.47,19.619,24.261,19.619"/>
		<path fill="none" stroke="#FFFFFF" stroke-width="3" stroke-linecap="round" stroke-linejoin="round" stroke-miterlimit="10" d="
			M89.102,62.845c13.557,2.045,20.363,9.148,20.363,15.609"/>
	</g>
	<g>
		<circle fill="none" stroke="#FFFFFF" stroke-width="3" stroke-miterlimit="10" cx="135.35" cy="246.077" r="21.429"/>
		<circle fill="none" stroke="#FFFFFF" stroke-width="3" stroke-miterlimit="10" cx="35.126" cy="246.077" r="21.429"/>
		<path fill="none" stroke="#FFFFFF" stroke-width="3" stroke-miterlimit="10" d="M136.182,246.045l-28.318-54.307
			c0,0-1.44-3.932-5.358-3.932c-3.916,0-11.521,0-11.521,0"/>
		<polyline fill="none" stroke="#FFFFFF" stroke-width="3" stroke-linejoin="round" stroke-miterlimit="10" points="
			119.326,214.024 74.412,245.278 35.427,245.278 61.309,219.805 114.545,204.868 		"/>
		
			<line fill="none" stroke="#FFFFFF" stroke-width="3" stroke-linejoin="round" stroke-miterlimit="10" x1="74.412" y1="245.237" x2="52.125" y2="200.161"/>
		
			<line fill="none" stroke="#FFFFFF" stroke-width="3" stroke-linecap="round" stroke-linejoin="round" stroke-miterlimit="10" x1="42.353" y1="200.185" x2="59.151" y2="200.185"/>
	</g>
	<g>
		<g>
			
				<path fill="none" stroke="#FFFFFF" stroke-width="3" stroke-linecap="square" stroke-linejoin="round" stroke-miterlimit="10" d="
				M536.658,155.942c-3.543,7.672,0.985,17.31,0.985,17.31s10.274-2.8,13.819-10.473c3.544-7.671-0.986-17.309-0.986-17.309
				S540.2,148.271,536.658,155.942z"/>
			
				<path fill="none" stroke="#FFFFFF" stroke-width="3" stroke-linecap="square" stroke-linejoin="round" stroke-miterlimit="10" d="
				M531.775,178.691c3.527,0,5.078-2.717,6.209-6.095l6.279-13.833"/>
		</g>
		<g>
			
				<path fill="none" stroke="#FFFFFF" stroke-width="3" stroke-linecap="square" stroke-linejoin="round" stroke-miterlimit="10" d="
				M512.784,136.49c-3.542,7.672,0.986,17.31,0.986,17.31s10.274-2.8,13.819-10.473c3.544-7.671-0.986-17.309-0.986-17.309
				S516.327,128.819,512.784,136.49z"/>
			
				<path fill="none" stroke="#FFFFFF" stroke-width="3" stroke-linecap="square" stroke-linejoin="round" stroke-miterlimit="10" d="
				M507.902,159.239c3.527,0,5.078-2.717,6.209-6.095l6.279-13.833"/>
		</g>
	</g>
	<g>
		<g>
			
				<path fill="none" stroke="#FFFFFF" stroke-width="3" stroke-linecap="square" stroke-linejoin="round" stroke-miterlimit="10" d="
				M196.438,287.629c-3.543,7.672,0.986,17.31,0.986,17.31s10.273-2.799,13.818-10.473c3.545-7.671-0.984-17.31-0.984-17.31
				S199.98,279.957,196.438,287.629z"/>
			
				<path fill="none" stroke="#FFFFFF" stroke-width="3" stroke-linecap="square" stroke-linejoin="round" stroke-miterlimit="10" d="
				M191.556,310.378c3.526,0,5.079-2.718,6.208-6.095l6.28-13.834"/>
		</g>
		<path fill="none" stroke="#FFFFFF" stroke-width="3" stroke-linecap="square" stroke-linejoin="round" stroke-miterlimit="10" d="
			M169.491,269.222c-3.543,7.672,0.986,17.31,0.986,17.31s10.274-2.8,13.819-10.473c3.544-7.672-0.986-17.31-0.986-17.31
			S173.034,261.55,169.491,269.222z"/>
		<path fill="none" stroke="#FFFFFF" stroke-width="3" stroke-linecap="square" stroke-linejoin="round" stroke-miterlimit="10" d="
			M164.609,291.97c3.527,0,5.078-2.717,6.208-6.094l6.28-13.834"/>
	</g>
	<g>
		<g>
			<circle fill="none" stroke="#FFFFFF" stroke-width="3" stroke-miterlimit="10" cx="300.876" cy="382.082" r="2.577"/>
			
				<path fill="none" stroke="#FFFFFF" stroke-width="3" stroke-linecap="square" stroke-linejoin="round" stroke-miterlimit="10" d="
				M308.268,391.557h-28.811c-3.585,0-5.051-3.537-3.259-6.643l21.708-38.099c1.792-3.105,4.727-3.354,6.521-0.249l21.708,38.474
				c1.791,3.104,0.325,6.517-3.26,6.517h-3.997"/>
			
				<path fill="none" stroke="#FFFFFF" stroke-width="3" stroke-linecap="square" stroke-linejoin="round" stroke-miterlimit="10" d="
				M302.52,372.989c0,0.976-0.792,1.769-1.768,1.769l0,0c-0.977,0-1.769-0.793-1.769-1.769v-15.031c0-0.976,0.792-1.769,1.769-1.769
				l0,0c0.976,0,1.768,0.793,1.768,1.769V372.989z"/>
		</g>
		<g>
			
				<polyline fill="none" stroke="#FFFFFF" stroke-width="3" stroke-linecap="square" stroke-linejoin="round" stroke-miterlimit="10" points="
				255.312,362.641 273.756,362.641 273.756,308.706 301.166,308.706 301.166,295.442 377.205,295.442 377.205,308.706 
				407.268,308.706 407.268,398.115 			"/>
			
				<rect x="281.713" y="317.548" fill="none" stroke="#FFFFFF" stroke-width="3" stroke-linecap="round" stroke-miterlimit="10" width="10.611" height="10.609"/>
			
				<rect x="386.932" y="322.853" fill="none" stroke="#FFFFFF" stroke-width="3" stroke-linecap="round" stroke-miterlimit="10" width="10.61" height="10.61"/>
			
				<rect x="386.932" y="341.421" fill="none" stroke="#FFFFFF" stroke-width="3" stroke-linecap="round" stroke-miterlimit="10" width="10.61" height="10.61"/>
			
				<rect x="308.238" y="303.4" fill="none" stroke="#FFFFFF" stroke-width="3" stroke-linecap="round" stroke-miterlimit="10" width="10.611" height="10.61"/>
			
				<rect x="325.039" y="310.474" fill="none" stroke="#FFFFFF" stroke-width="3" stroke-linecap="round" stroke-miterlimit="10" width="10.609" height="10.61"/>
			
				<rect x="325.039" y="328.157" fill="none" stroke="#FFFFFF" stroke-width="3" stroke-linecap="round" stroke-miterlimit="10" width="10.609" height="10.611"/>
			
				<rect x="342.723" y="322.853" fill="none" stroke="#FFFFFF" stroke-width="3" stroke-linecap="round" stroke-miterlimit="10" width="10.609" height="10.61"/>
			
				<rect x="342.723" y="341.421" fill="none" stroke="#FFFFFF" stroke-width="3" stroke-linecap="round" stroke-miterlimit="10" width="10.609" height="10.61"/>
			
				<rect x="359.521" y="303.4" fill="none" stroke="#FFFFFF" stroke-width="3" stroke-linecap="round" stroke-miterlimit="10" width="10.611" height="10.61"/>
			
				<line fill="none" stroke="#FFFFFF" stroke-width="3" stroke-linecap="square" stroke-linejoin="round" stroke-miterlimit="10" x1="377.205" y1="309.147" x2="377.205" y2="400.16"/>
			
				<line fill="none" stroke="#FFFFFF" stroke-width="3" stroke-linecap="square" stroke-linejoin="round" stroke-miterlimit="10" x1="301.166" y1="309.147" x2="301.166" y2="334.97"/>
		</g>
	</g>
	<g>
		<g>
			
				<circle fill="none" stroke="#FFFFFF" stroke-width="3" stroke-linecap="round" stroke-linejoin="round" stroke-miterlimit="10" cx="237.074" cy="62.599" r="16.203"/>
			<path fill="none" stroke="#FFFFFF" stroke-width="3" stroke-linecap="round" stroke-linejoin="round" stroke-miterlimit="10" d="
				M236.992,78.802c-5.177,0-9.371-7.255-9.371-16.203c0-8.949,4.194-16.203,9.371-16.203"/>
			<path fill="none" stroke="#FFFFFF" stroke-width="3" stroke-linecap="round" stroke-linejoin="round" stroke-miterlimit="10" d="
				M237.005,78.802c5.177,0,9.374-7.255,9.374-16.203c0-8.949-4.197-16.203-9.374-16.203"/>
		</g>
		
			<line fill="none" stroke="#FFFFFF" stroke-width="3" stroke-linecap="round" stroke-linejoin="round" stroke-miterlimit="10" x1="237.464" y1="40.651" x2="237.464" y2="33.128"/>
		
			<line fill="none" stroke="#FFFFFF" stroke-width="3" stroke-linecap="round" stroke-linejoin="round" stroke-miterlimit="10" x1="237.464" y1="92.561" x2="237.464" y2="84.284"/>
		
			<line fill="none" stroke="#FFFFFF" stroke-width="3" stroke-linecap="round" stroke-linejoin="round" stroke-miterlimit="10" x1="214.518" y1="63.597" x2="206.242" y2="63.597"/>
		
			<line fill="none" stroke="#FFFFFF" stroke-width="3" stroke-linecap="round" stroke-linejoin="round" stroke-miterlimit="10" x1="265.676" y1="63.597" x2="258.152" y2="63.597"/>
		<g>
			
				<line fill="none" stroke="#FFFFFF" stroke-width="3" stroke-linecap="round" stroke-linejoin="round" stroke-miterlimit="10" x1="221.164" y1="47.499" x2="216.199" y2="42.536"/>
			
				<line fill="none" stroke="#FFFFFF" stroke-width="3" stroke-linecap="round" stroke-linejoin="round" stroke-miterlimit="10" x1="256.811" y1="42.536" x2="251.846" y2="47.499"/>
		</g>
		<g>
			
				<line fill="none" stroke="#FFFFFF" stroke-width="3" stroke-linecap="round" stroke-linejoin="round" stroke-miterlimit="10" x1="221.164" y1="78.183" x2="216.199" y2="83.146"/>
			
				<line fill="none" stroke="#FFFFFF" stroke-width="3" stroke-linecap="round" stroke-linejoin="round" stroke-miterlimit="10" x1="256.811" y1="83.146" x2="251.846" y2="78.183"/>
		</g>
		
			<line fill="none" stroke="#FFFFFF" stroke-width="3" stroke-linecap="round" stroke-linejoin="round" stroke-miterlimit="10" x1="237.464" y1="46.67" x2="237.464" y2="79.019"/>
	</g>
	<g>
		<path fill="none" stroke="#FFFFFF" stroke-width="3" stroke-linecap="round" stroke-miterlimit="10" d="M159.467,83.288
			c0,0-18.724-38.234-18.724-48.576c0-10.341,8.382-18.723,18.724-18.723c10.34,0,18.723,8.382,18.723,18.723
			c0,6.615-7.664,24.648-13.186,36.783"/>
		
			<circle fill="none" stroke="#FFFFFF" stroke-width="3" stroke-linecap="round" stroke-miterlimit="10" cx="159.438" cy="36.683" r="7.566"/>
	</g>
	<g>
		<path fill="none" stroke="#FFFFFF" stroke-width="3" stroke-linecap="square" stroke-linejoin="round" stroke-miterlimit="10" d="
			M350.835,56.58c0,1.852-1.396,3.574-3.25,3.574h-36.059c-1.854,0-3.133-1.723-3.133-3.574V34.5c0-1.853,1.279-3.523,3.133-3.523
			h36.059c1.854,0,3.25,1.672,3.25,3.523V56.58z"/>
		
			<circle fill="none" stroke="#FFFFFF" stroke-width="3" stroke-linecap="square" stroke-linejoin="round" stroke-miterlimit="10" cx="314.183" cy="73.541" r="5.003"/>
		
			<circle fill="none" stroke="#FFFFFF" stroke-width="3" stroke-linecap="square" stroke-linejoin="round" stroke-miterlimit="10" cx="346.581" cy="73.541" r="5.003"/>
		
			<line fill="none" stroke="#FFFFFF" stroke-width="3" stroke-linecap="square" stroke-linejoin="round" stroke-miterlimit="10" x1="321.063" y1="87.748" x2="309.929" y2="106.158"/>
		
			<line fill="none" stroke="#FFFFFF" stroke-width="3" stroke-linecap="square" stroke-linejoin="round" stroke-miterlimit="10" x1="313.13" y1="87.748" x2="301.995" y2="106.158"/>
		<path fill="none" stroke="#FFFFFF" stroke-width="3" stroke-linecap="square" stroke-linejoin="round" stroke-miterlimit="10" d="
			M357.022,80.952c0,3.652-2.959,6.612-6.611,6.612h-42.479c-3.654,0-6.615-2.96-6.615-6.612V31.398
			c0-3.652,2.961-6.612,6.615-6.612h42.479c3.652,0,6.611,2.96,6.611,6.612V80.952z"/>
		
			<line fill="none" stroke="#FFFFFF" stroke-width="3" stroke-linecap="square" stroke-linejoin="round" stroke-miterlimit="10" x1="338.562" y1="87.748" x2="349.696" y2="106.158"/>
		
			<line fill="none" stroke="#FFFFFF" stroke-width="3" stroke-linecap="square" stroke-linejoin="round" stroke-miterlimit="10" x1="346.495" y1="87.748" x2="357.63" y2="106.158"/>
	</g>
	<g>
		<g>
			<g>
				<path fill="none" stroke="#FFFFFF" stroke-width="3" stroke-miterlimit="10" d="M463.646,305.967v-22.865
					c0-1.779-1.796-3.091-3.574-3.091c-3.66,0-3.499,2.984-3.499,2.984v25.624"/>
				<path fill="none" stroke="#FFFFFF" stroke-width="3" stroke-miterlimit="10" d="M469.835,306.851v-27.728
					c0-1.779-1.354-3.092-3.132-3.092c-3.279,0-3.058,2.984-3.058,2.984v27.835"/>
				<path fill="none" stroke="#FFFFFF" stroke-width="3" stroke-miterlimit="10" d="M476.908,306.851v-23.749
					c0-1.779-1.795-3.091-3.574-3.091c-3.035,0-3.499,2.984-3.499,2.984v23.855"/>
				<path fill="none" stroke="#FFFFFF" stroke-width="3" stroke-miterlimit="10" d="M493.708,415.191v-9.179
					c0-3.948-4.543-6.803-7.595-6.803h-3.855c-5.35,0-11.335-2.553-15.859-8.565c-4.224-5.616-5.406-12.516-5.406-21.107v-26.435
					v-5.405c-8.842,0-10.961-6.296-10.961-10.379l0.133-22.285c0-1.78,1.311-3.045,3.092-3.045h0.186
					c1.779,0,3.131,1.219,3.131,2.998v11.591"/>
				<path fill="none" stroke="#FFFFFF" stroke-width="3" stroke-miterlimit="10" d="M476.908,306.851v-15.898
					c0,0,0.643-2.983,3.169-2.983c1.78,0,3.297,1.312,3.297,3.091l-0.159,33.582c0,2.862-2.771,6.511-4.539,6.511v11.95v26.434
					c0,10.629,4.277,11.955,8.478,11.955h4.265c10.643,0,19.973,5.111,19.973,23.252v10.448"/>
			</g>
			<polyline fill="none" stroke="#FFFFFF" stroke-width="3" stroke-linecap="square" stroke-miterlimit="10" points="
				464.088,276.346 436.235,276.346 436.235,309.945 448.172,309.945 			"/>
		</g>
		<path fill="none" stroke="#FFFFFF" stroke-width="3" stroke-linecap="square" stroke-linejoin="round" stroke-miterlimit="10" d="
			M474.24,348.408c-0.02,1.369-1.147,2.464-2.52,2.443l-4.135-0.059c-1.369-0.02-2.465-1.148-2.445-2.519l0.035-2.482
			c0.02-1.37,1.148-2.465,2.519-2.445l4.137,0.06c1.37,0.021,2.466,1.148,2.446,2.519L474.24,348.408z"/>
		
			<line fill="none" stroke="#FFFFFF" stroke-width="3" stroke-linecap="square" stroke-linejoin="round" stroke-miterlimit="10" x1="461" y1="344.5" x2="464" y2="344.5"/>
		
			<line fill="none" stroke="#FFFFFF" stroke-width="3" stroke-linecap="square" stroke-linejoin="round" stroke-miterlimit="10" x1="461" y1="348.5" x2="464" y2="348.5"/>
		
			<line fill="none" stroke="#FFFFFF" stroke-width="3" stroke-linecap="square" stroke-linejoin="round" stroke-miterlimit="10" x1="475" y1="344.5" x2="478" y2="344.5"/>
		
			<line fill="none" stroke="#FFFFFF" stroke-width="3" stroke-linecap="square" stroke-linejoin="round" stroke-miterlimit="10" x1="475" y1="348.5" x2="478" y2="348.5"/>
		
			<line fill="none" stroke="#FFFFFF" stroke-width="3" stroke-linecap="square" stroke-linejoin="round" stroke-miterlimit="10" x1="461" y1="363.5" x2="478" y2="363.5"/>
		<path fill="none" stroke="#FFFFFF" stroke-width="3" stroke-miterlimit="10" d="M502.55,415.191v-13.488
			c0-8.147-5.903-10.958-13.287-10.958h-5.005c-3.76,0-7.35-1.972-10.627-7.065c-4.415-6.861-3.796-20.153-3.796-20.153"/>
	</g>
	<g>
		
			<polyline fill="none" stroke="#FFFFFF" stroke-width="3" stroke-linecap="square" stroke-linejoin="round" stroke-miterlimit="10" points="
			132.553,376.502 115.498,376.502 115.498,334.945 84.551,334.945 84.551,309.304 42.109,309.304 42.109,326.104 8.51,326.104 
			8.51,406.122 		"/>
		<line fill="none" stroke="#FFFFFF" stroke-width="3" stroke-miterlimit="10" x1="33.695" y1="335.432" x2="20.896" y2="335.432"/>
		<line fill="none" stroke="#FFFFFF" stroke-width="3" stroke-miterlimit="10" x1="33.695" y1="351.546" x2="20.896" y2="351.546"/>
		<line fill="none" stroke="#FFFFFF" stroke-width="3" stroke-miterlimit="10" x1="33.695" y1="367.66" x2="20.896" y2="367.66"/>
		<line fill="none" stroke="#FFFFFF" stroke-width="3" stroke-miterlimit="10" x1="33.695" y1="359.604" x2="20.896" y2="359.604"/>
		<line fill="none" stroke="#FFFFFF" stroke-width="3" stroke-miterlimit="10" x1="33.695" y1="343.488" x2="20.896" y2="343.488"/>
		<line fill="none" stroke="#FFFFFF" stroke-width="3" stroke-miterlimit="10" x1="105.411" y1="344.44" x2="92.61" y2="344.44"/>
		<line fill="none" stroke="#FFFFFF" stroke-width="3" stroke-miterlimit="10" x1="105.411" y1="360.556" x2="92.61" y2="360.556"/>
		<line fill="none" stroke="#FFFFFF" stroke-width="3" stroke-miterlimit="10" x1="105.411" y1="376.67" x2="92.61" y2="376.67"/>
		<line fill="none" stroke="#FFFFFF" stroke-width="3" stroke-miterlimit="10" x1="105.411" y1="368.612" x2="92.61" y2="368.612"/>
		<line fill="none" stroke="#FFFFFF" stroke-width="3" stroke-miterlimit="10" x1="105.411" y1="352.498" x2="92.61" y2="352.498"/>
		<line fill="none" stroke="#FFFFFF" stroke-width="3" stroke-miterlimit="10" x1="74.383" y1="335.549" x2="51.539" y2="335.549"/>
		<line fill="none" stroke="#FFFFFF" stroke-width="3" stroke-miterlimit="10" x1="74.383" y1="327.521" x2="51.539" y2="327.521"/>
		<line fill="none" stroke="#FFFFFF" stroke-width="3" stroke-miterlimit="10" x1="74.383" y1="319.492" x2="51.539" y2="319.492"/>
		<line fill="none" stroke="#FFFFFF" stroke-width="3" stroke-miterlimit="10" x1="74.383" y1="351.604" x2="51.539" y2="351.604"/>
		<line fill="none" stroke="#FFFFFF" stroke-width="3" stroke-miterlimit="10" x1="74.383" y1="367.66" x2="51.539" y2="367.66"/>
		<line fill="none" stroke="#FFFFFF" stroke-width="3" stroke-miterlimit="10" x1="74.383" y1="359.633" x2="51.539" y2="359.633"/>
		<line fill="none" stroke="#FFFFFF" stroke-width="3" stroke-miterlimit="10" x1="74.383" y1="343.576" x2="51.539" y2="343.576"/>
	</g>
	<g>
		<circle fill="none" stroke="#FFFFFF" stroke-width="3" stroke-miterlimit="10" cx="563.764" cy="351.962" r="2.945"/>
		<path fill="none" stroke="#FFFFFF" stroke-width="3" stroke-linecap="square" stroke-linejoin="round" stroke-miterlimit="10" d="
			M596.045,362.136l15.534,2.947l-9.703-23.132l0.146-0.8c7.311-21.176-3.931-44.267-25.108-51.575
			c-21.173-7.31-44.266,3.931-51.573,25.107c-7.311,21.176,4.693,43.092,25.867,50.399c10.118,3.493,21.736,1.713,29.26-2.85"/>
		<path fill="none" stroke="#FFFFFF" stroke-width="3" stroke-linecap="square" stroke-linejoin="round" stroke-miterlimit="10" d="
			M559.602,304.124c0-1.791,1.533-3.159,3.537-3.159l0,0c2.005,0,3.537,1.538,3.537,3.331v36.098c0,1.791-1.532,3.245-3.537,3.245
			l0,0c-2.004,0-3.537-1.454-3.537-3.245v-25.535"/>
	</g>
	<g>
		<g>
			
				<path fill="none" stroke="#FFFFFF" stroke-width="3" stroke-linecap="square" stroke-linejoin="round" stroke-miterlimit="10" d="
				M450.236,47.935c-3.543,7.672,0.986,17.309,0.986,17.309s10.274-2.799,13.819-10.472c3.544-7.671-0.985-17.31-0.985-17.31
				S453.78,40.264,450.236,47.935z"/>
			
				<path fill="none" stroke="#FFFFFF" stroke-width="3" stroke-linecap="square" stroke-linejoin="round" stroke-miterlimit="10" d="
				M445.355,70.684c3.526,0,5.078-2.717,6.207-6.095l6.281-13.833"/>
		</g>
		<g>
			
				<path fill="none" stroke="#FFFFFF" stroke-width="3" stroke-linecap="square" stroke-linejoin="round" stroke-miterlimit="10" d="
				M417.521,60.313c-3.543,7.672,0.986,17.309,0.986,17.309s10.274-2.799,13.818-10.472c3.545-7.672-0.984-17.31-0.984-17.31
				S421.065,52.643,417.521,60.313z"/>
			
				<path fill="none" stroke="#FFFFFF" stroke-width="3" stroke-linecap="square" stroke-linejoin="round" stroke-miterlimit="10" d="
				M412.64,83.062c3.527,0,5.079-2.717,6.208-6.095l6.28-13.833"/>
		</g>
		<g>
			
				<path fill="none" stroke="#FFFFFF" stroke-width="3" stroke-linecap="square" stroke-linejoin="round" stroke-miterlimit="10" d="
				M393.648,40.861c-3.543,7.672,0.986,17.309,0.986,17.309s10.274-2.799,13.818-10.472c3.544-7.672-0.984-17.31-0.984-17.31
				S397.192,33.189,393.648,40.861z"/>
			
				<path fill="none" stroke="#FFFFFF" stroke-width="3" stroke-linecap="square" stroke-linejoin="round" stroke-miterlimit="10" d="
				M388.767,63.609c3.527,0,5.079-2.716,6.208-6.094l6.28-13.833"/>
		</g>
	</g>
	<g>
		<g>
			<path fill="none" stroke="#FFFFFF" stroke-width="3" stroke-miterlimit="10" d="M536.914,76.384v29.667
				c0,4.184-1.719,8.087-5.205,8.087h-34.104c-3.489,0-7.552-3.903-7.552-8.087V31.782c0-4.186,4.062-6.062,7.552-6.062h34.104
				c3.486,0,5.205,1.877,5.205,6.062v34.602"/>
			
				<line fill="none" stroke="#FFFFFF" stroke-width="3" stroke-miterlimit="10" x1="491.379" y1="97.338" x2="538.241" y2="97.338"/>
			
				<line fill="none" stroke="#FFFFFF" stroke-width="3" stroke-miterlimit="10" x1="491.379" y1="43.402" x2="538.241" y2="43.402"/>
			<circle fill="none" stroke="#FFFFFF" stroke-width="3" stroke-miterlimit="10" cx="514.655" cy="33.898" r="2.514"/>
			
				<line fill="none" stroke="#FFFFFF" stroke-width="3" stroke-miterlimit="10" x1="509.062" y1="106.18" x2="519.673" y2="106.18"/>
		</g>
		<g>
			<path fill="none" stroke="#FFFFFF" stroke-width="3" stroke-miterlimit="10" d="M563.885,76.383h-35.029
				c-2.686,0-4.471-2.176-4.471-4.859v-0.28c0-2.685,1.785-4.859,4.471-4.859h39.029"/>
			<path fill="none" stroke="#FFFFFF" stroke-width="3" stroke-miterlimit="10" d="M579.885,66.383h-18.029
				c-2.686,0-4.471-2.176-4.471-4.859v-0.28c0-2.685,1.785-4.859,4.471-4.859h33.639c6.16,0,15.849,4.121,15.849,13.33"/>
			<path fill="none" stroke="#FFFFFF" stroke-width="3" stroke-miterlimit="10" d="M564.885,86.383h-21.029
				c-2.686,0-4.471-2.176-4.471-4.859v-0.28c0-2.685,1.785-4.859,4.471-4.859h21.029"/>
			<path fill="none" stroke="#FFFFFF" stroke-width="3" stroke-miterlimit="10" d="M564.885,96.383h-14.029
				c-2.686,0-4.471-2.176-4.471-4.859v-0.28c0-2.685,1.785-4.859,4.471-4.859h14.029"/>
			<path fill="none" stroke="#FFFFFF" stroke-width="3" stroke-miterlimit="10" d="M564.885,96.383h-7.029
				c-2.686,0-4.471,2.176-4.471,4.859v0.28c0,2.685,1.785,4.859,4.471,4.859h33.639c4.316,0,7.58-2.521,9.83-5.418"/>
			<path fill="none" stroke="#FFFFFF" stroke-width="3" stroke-miterlimit="10" d="M525.414,82.367
				c-2.859,2.859-6.812,4.629-11.176,4.629c-8.73,0-15.808-7.076-15.808-15.808c0-8.729,7.076-15.807,15.808-15.807
				c4.646,0,8.826,2.006,11.719,5.199"/>
			<path fill="none" stroke="#FFFFFF" stroke-width="3" stroke-miterlimit="10" d="M521.875,78.529
				c-1.877,1.879-4.473,3.039-7.34,3.039c-5.732,0-10.379-4.646-10.379-10.38c0-5.732,4.646-10.379,10.379-10.379
				c3.053,0,5.797,1.316,7.695,3.414"/>
		</g>
	</g>
	<g>
		
			<polyline fill="none" stroke="#FFFFFF" stroke-width="3" stroke-linecap="square" stroke-linejoin="round" stroke-miterlimit="10" points="
			233.469,358.031 214.54,358.031 214.456,325.186 156.44,325.186 156.44,405.801 143.738,405.801 		"/>
		
			<rect x="212.248" y="380.083" fill="none" stroke="#FFFFFF" stroke-width="3" stroke-linecap="round" stroke-miterlimit="10" width="12" height="8.29"/>
		
			<rect x="212.248" y="397.511" fill="none" stroke="#FFFFFF" stroke-width="3" stroke-linecap="round" stroke-miterlimit="10" width="12" height="8.29"/>
		
			<rect x="172.498" y="376.951" fill="none" stroke="#FFFFFF" stroke-width="3" stroke-linecap="round" stroke-miterlimit="10" width="26.5" height="9.809"/>
		
			<rect x="172.498" y="358.151" fill="none" stroke="#FFFFFF" stroke-width="3" stroke-linecap="round" stroke-miterlimit="10" width="26.5" height="9.809"/>
		
			<rect x="172.498" y="339.352" fill="none" stroke="#FFFFFF" stroke-width="3" stroke-linecap="round" stroke-miterlimit="10" width="26.5" height="9.809"/>
		
			<rect x="172.498" y="396.751" fill="none" stroke="#FFFFFF" stroke-width="3" stroke-linecap="round" stroke-miterlimit="10" width="26.5" height="9.809"/>
	</g>
	<g>
		<path fill="none" stroke="#FFFFFF" stroke-width="3" stroke-miterlimit="10" d="M601.834,266.695h-10.163
			c-7.535,0-12.311-4.884-12.311-12.179v-3.913v-16.299c0,0-0.25-3.742-0.428-5.016c-0.476-3.371-4.603-6.256-7.16-6.221h-3.916
			c-0.688,0-0.963-0.535-0.963-1.222v-7.478c0-0.683,0.273-1.272,0.963-1.272h3.578c3.264,0.044,7.385-2.705,7.699-6.805
			c0.092-1.193,0.225-4.877,0.225-4.877"/>
		<path fill="none" stroke="#FFFFFF" stroke-width="3" stroke-miterlimit="10" d="M601.834,180.689h-6.175h-2.264
			c-3.227,0-4.067,1.371-4.067,5.059v2.188v11.992v7.312c0,7.518-3.056,10.285-6.774,11.648c3.719,1.357,6.774,4.125,6.774,11.637
			v5.191v13.178v3.127c0,3.623,0.722,4.705,4.067,4.705h7.759"/>
		<path fill="none" stroke="#FFFFFF" stroke-width="3" stroke-miterlimit="10" d="M579.358,201.416v-13.744v-4.422
			c0-7.458,4.773-12.537,12.312-12.537h2.121"/>
	</g>
</g>
</svg>
