<?xml version="1.0" encoding="utf-8"?>
<!-- Generator: Adobe Illustrator 19.0.0, SVG Export Plug-In . SVG Version: 6.00 Build 0)  -->
<svg version="1.1" id="Ebene_1" xmlns="http://www.w3.org/2000/svg" xmlns:xlink="http://www.w3.org/1999/xlink" x="0px" y="0px"
	 viewBox="-287 409.7 20.4 23.2" style="enable-background:new -287 409.7 20.4 23.2;" xml:space="preserve">
<style type="text/css">
	.st0{fill:#FFFFFF;}
</style>
<g id="XMLID_1689_">
	<g id="XMLID_1690_">
		<path class="st0" d="M-267.4,420l-2.7,2.6l-4.7-4.7v14h-3.9v-14l-4.7,4.7l-2.7-2.6l9.4-9.4L-267.4,420z"/>
		<path d="M-274.9,432.8h-3.9c-0.5,0-0.8-0.4-0.8-0.8v-12l-3.3,3.2c-0.3,0.3-0.9,0.3-1.2,0l-2.7-2.6c-0.2-0.2-0.3-0.4-0.3-0.6
			c0-0.2,0.1-0.4,0.2-0.6l9.4-9.4c0.3-0.3,0.9-0.3,1.2,0l9.4,9.4c0.2,0.2,0.2,0.4,0.2,0.6s-0.1,0.4-0.3,0.6l-2.7,2.6
			c-0.3,0.3-0.9,0.3-1.2,0l-3.3-3.2v12C-274,432.4-274.4,432.8-274.9,432.8z M-277.9,431.1h2.2V418c0-0.3,0.2-0.6,0.5-0.8
			c0.3-0.1,0.7-0.1,0.9,0.2l4.1,4.1l1.5-1.4l-8.2-8.2l-8.2,8.2l1.5,1.4l4.1-4.1c0.2-0.2,0.6-0.3,0.9-0.2c0.3,0.1,0.5,0.4,0.5,0.8
			V431.1z"/>
	</g>
</g>
</svg>
