<?xml version="1.0" encoding="utf-8"?>
<!-- Generator: Adobe Illustrator 16.0.4, SVG Export Plug-In . SVG Version: 6.00 Build 0)  -->
<!DOCTYPE svg PUBLIC "-//W3C//DTD SVG 1.1//EN" "http://www.w3.org/Graphics/SVG/1.1/DTD/svg11.dtd">
<svg version="1.1" id="Ebene_1" xmlns="http://www.w3.org/2000/svg" xmlns:xlink="http://www.w3.org/1999/xlink" x="0px" y="0px"
	 width="141px" height="98px" viewBox="23.134 16.279 141 98" enable-background="new 23.134 16.279 141 98" xml:space="preserve">
<g>
	<path fill="#19181B" d="M72.005,80.134c0,1.063-0.696,1.48-1.254,1.48c-0.735,0-1.09-0.519-1.09-1.293v-4.433h-1.037v4.875
		c0,1.09,0.606,1.649,1.723,1.649c0.671,0,1.279-0.316,1.622-0.902h0.037v0.773h1.104c-0.038-0.442-0.067-0.888-0.067-1.33v-5.066
		h-1.037V80.134L72.005,80.134z"/>
	<path fill="#19181B" d="M79.425,82.284v-4.43c0-1.268-0.34-2.092-1.709-2.092c-0.822,0-1.305,0.229-1.709,0.953h-0.048v-0.824
		h-1.103c0.038,0.443,0.062,0.883,0.062,1.33v5.062h1.042v-3.785c0-0.873,0.163-1.888,1.301-1.888c0.888,0,1.129,0.557,1.129,1.242
		v4.43L79.425,82.284L79.425,82.284z"/>
	<path fill="#19181B" d="M84.529,76.536h-0.038c-0.353-0.507-0.797-0.773-1.406-0.773c-2.065,0-2.113,1.837-2.113,3.434
		c0,2.812,1.037,3.217,2.062,3.217c0.671,0,1.114-0.293,1.471-0.891h0.023v0.765h1.04v-9.145h-1.04V76.536L84.529,76.536z
		 M84.529,78.826c0,1.293,0,2.736-1.167,2.736c-1.3,0-1.3-1.395-1.3-2.355c0-1.711,0.154-2.596,1.266-2.596
		C84.479,76.612,84.529,77.981,84.529,78.826"/>
	<polygon fill="#19181B" points="91.102,82.284 91.102,78.107 94.292,78.107 94.292,77.093 91.102,77.093 91.102,74.152 
		94.469,74.152 94.469,73.143 89.937,73.143 89.937,82.284 	"/>
	<path fill="#19181B" d="M97.658,82.413c1.354,0,2.43-0.404,2.43-3.233c0-1.872-0.213-3.417-2.43-3.417
		c-2.215,0-2.43,1.545-2.43,3.417C95.229,82.009,96.3,82.413,97.658,82.413 M97.658,81.564c-1.077,0-1.344-0.747-1.344-2.824
		c0-1.749,0.544-2.128,1.344-2.128c0.795,0,1.345,0.379,1.345,2.128C99.003,80.817,98.735,81.564,97.658,81.564"/>
	<path fill="#19181B" d="M102.748,75.888h-1.037v6.396h1.037V78.51c0-0.86,0.293-1.733,1.445-1.733c0.188,0,0.369,0.038,0.558,0.064
		v-1.079c-1.016,0-1.546,0.111-1.974,1.09h-0.029V75.888L102.748,75.888z"/>
	<path fill="#19181B" d="M109.937,80.462c0-1.952-3.195-1.925-3.195-3.053c0-0.557,0.434-0.861,0.988-0.861
		c0.659,0,1.017,0.358,1.002,1.025h1.151c0.09-1.266-0.883-1.811-2.025-1.811c-1.799,0-2.203,1.079-2.203,1.746
		c0,1.916,3.191,1.939,3.191,3.077c0,0.662-0.482,0.979-1.106,0.979c-1.047,0-1.061-0.861-1.061-1.228h-1.177
		c-0.041,1.468,0.823,2.077,2.205,2.077C108.975,82.413,109.937,81.868,109.937,80.462"/>
	<path fill="#19181B" d="M115.667,77.943c0.065-1.436-0.681-2.18-1.962-2.18c-2.215,0-2.432,1.547-2.432,3.42
		c0,2.824,1.08,3.231,2.432,3.231c0.714,0,2.055-0.457,2.016-2.256h-1.09c0.036,1.154-0.686,1.406-0.925,1.406
		c-1.075,0-1.339-0.75-1.339-2.824c0-1.749,0.541-2.128,1.339-2.128c0.393,0,0.911,0.278,0.889,1.33H115.667z"/>
	<path fill="#19181B" d="M121.898,82.284v-4.532c0-1.444-0.606-1.989-1.696-1.989c-0.835,0-1.316,0.203-1.731,0.953h-0.053v-3.573
		h-1.037v9.142h1.037v-3.762c0-1.076,0.265-1.911,1.301-1.911c0.89,0,1.142,0.557,1.142,1.342v4.33L121.898,82.284L121.898,82.284z"
		/>
	<path fill="#19181B" d="M127.144,80.134c0,1.063-0.697,1.48-1.256,1.48c-0.733,0-1.088-0.519-1.088-1.293v-4.433h-1.039v4.875
		c0,1.09,0.606,1.649,1.723,1.649c0.673,0,1.279-0.316,1.622-0.902h0.038v0.773h1.101c-0.04-0.442-0.063-0.888-0.063-1.33v-5.066
		h-1.037V80.134z"/>
	<path fill="#19181B" d="M134.564,82.284v-4.43c0-1.268-0.343-2.092-1.71-2.092c-0.821,0-1.303,0.229-1.709,0.953h-0.051v-0.824
		h-1.1c0.035,0.443,0.062,0.883,0.062,1.33v5.062h1.037v-3.785c0-0.873,0.166-1.888,1.307-1.888c0.885,0,1.127,0.557,1.127,1.242
		v4.43L134.564,82.284L134.564,82.284z"/>
	<path fill="#19181B" d="M139.67,76.677h-0.027c-0.291-0.621-0.82-0.915-1.492-0.915c-0.519,0-2,0.19-2,3.129
		c0,1.898,0.338,3.393,2.074,3.393c0.559,0,1.14-0.29,1.406-0.797h0.04v1.33c0,0.656-0.394,1.102-1.116,1.102
		c-0.571,0-0.962-0.328-0.975-0.925h-1.166c-0.088,1.177,0.875,1.707,1.938,1.707c1.401,0,2.355-0.336,2.355-1.766v-7.047h-1.037
		L139.67,76.677L139.67,76.677z M139.692,79.056c0,0.891,0.04,2.366-1.213,2.366c-0.773,0-1.243-0.48-1.243-2.531
		c0-0.85,0.04-2.267,1.218-2.267C139.754,76.624,139.692,78.107,139.692,79.056"/>
	<path fill="#19181B" d="M68.167,62.322v0.785h0.989v5.608h1.037v-5.608h1.292v-0.785h-1.292v-1.09c0-0.518,0.189-0.986,1.292-0.914
		v-0.744c-0.149-0.026-0.28-0.035-0.494-0.035c-0.922,0-1.834,0.249-1.834,1.545v1.238H68.167z"/>
	<path fill="#19181B" d="M75.904,66.564c0,1.066-0.698,1.482-1.256,1.482c-0.733,0-1.087-0.521-1.087-1.292v-4.433h-1.04v4.875
		c0,1.09,0.607,1.646,1.722,1.646c0.67,0,1.28-0.316,1.623-0.896h0.039v0.771h1.1c-0.037-0.442-0.063-0.889-0.063-1.33v-5.065
		h-1.037V66.564z M76.446,59.931h-1.189v1.315h1.189V59.931z M74.218,59.931h-1.191v1.315h1.191V59.931z"/>
	<path fill="#19181B" d="M79.891,62.322h-1.037v6.393h1.037v-3.771c0-0.864,0.293-1.733,1.447-1.733
		c0.188,0,0.364,0.038,0.553,0.062v-1.076c-1.011,0-1.546,0.111-1.976,1.09h-0.023V62.322z"/>
	<path fill="#19181B" d="M87.989,68.717c1.038,0,2.748-0.229,2.748-2.569c0-1.255-0.571-2.04-1.877-2.192v-0.064
		c1.18-0.264,1.573-1.024,1.573-2.168c0-0.176-0.051-0.718-0.369-1.216c-0.341-0.504-0.772-0.935-2.038-0.935H85.05v9.144
		L87.989,68.717L87.989,68.717z M86.215,60.584h1.643c0.978,0,1.406,0.624,1.406,1.383c0,0.885-0.44,1.444-1.354,1.455h-1.696
		L86.215,60.584L86.215,60.584z M86.215,64.437h1.243c1.189,0,2.087,0.252,2.087,1.711c0,0.671-0.443,1.555-1.688,1.555h-1.643
		V64.437z"/>
	<path fill="#19181B" d="M92.34,60.687h1.166v-1.113H92.34V60.687z M93.44,62.322h-1.039v6.393h1.039V62.322z"/>
	<rect x="95.338" y="59.573" fill="#19181B" width="1.037" height="9.142"/>
	<path fill="#19181B" d="M101.556,62.966h-0.041c-0.354-0.504-0.798-0.771-1.405-0.771c-2.063,0-2.113,1.834-2.113,3.431
		c0,2.812,1.037,3.217,2.066,3.217c0.668,0,1.11-0.29,1.467-0.889h0.026v0.763h1.038v-9.144h-1.038V62.966z M101.556,65.26
		c0,1.293,0,2.736-1.166,2.736c-1.307,0-1.307-1.395-1.307-2.356c0-1.71,0.155-2.599,1.269-2.599
		C101.504,63.042,101.556,64.41,101.556,65.26"/>
	<path fill="#19181B" d="M107.925,66.567c0,1.063-0.696,1.479-1.254,1.479c-0.734,0-1.087-0.521-1.087-1.292v-4.433h-1.043v4.875
		c0,1.09,0.609,1.646,1.723,1.646c0.672,0,1.281-0.316,1.62-0.899h0.041v0.771h1.103c-0.041-0.439-0.067-0.886-0.067-1.328v-5.065
		h-1.035V66.567L107.925,66.567z"/>
	<path fill="#19181B" d="M115.346,68.717v-4.433c0-1.267-0.342-2.089-1.709-2.089c-0.824,0-1.305,0.229-1.709,0.95h-0.053v-0.824
		h-1.102c0.038,0.442,0.067,0.885,0.067,1.33v5.065h1.034v-3.785c0-0.876,0.167-1.891,1.305-1.891c0.889,0,1.13,0.557,1.13,1.242
		v4.433L115.346,68.717L115.346,68.717z"/>
	<path fill="#19181B" d="M120.448,63.107h-0.024c-0.291-0.617-0.824-0.911-1.494-0.911c-0.52,0-1.998,0.19-1.998,3.126
		c0,1.901,0.34,3.393,2.074,3.393c0.557,0,1.14-0.291,1.408-0.795h0.035v1.328c0,0.659-0.391,1.104-1.112,1.104
		c-0.571,0-0.962-0.33-0.976-0.925h-1.169c-0.088,1.177,0.876,1.707,1.942,1.707c1.402,0,2.355-0.34,2.355-1.769v-7.044h-1.041
		L120.448,63.107L120.448,63.107z M120.475,65.485c0,0.892,0.039,2.37-1.217,2.37c-0.77,0-1.24-0.48-1.24-2.534
		c0-0.847,0.039-2.265,1.218-2.265C120.536,63.057,120.475,64.536,120.475,65.485"/>
	<path fill="#19181B" d="M71.6,55.15c1.04,0,2.75-0.229,2.75-2.573c0-1.251-0.571-2.039-1.876-2.191v-0.062
		c1.181-0.266,1.573-1.028,1.573-2.168c0-0.176-0.052-0.718-0.369-1.216c-0.337-0.504-0.77-0.935-2.039-0.935h-2.975v9.144
		L71.6,55.15L71.6,55.15z M69.828,47.016h1.648c0.974,0,1.406,0.624,1.406,1.384c0,0.885-0.447,1.441-1.358,1.453h-1.696
		L69.828,47.016L69.828,47.016z M69.828,50.869h1.244c1.188,0,2.087,0.252,2.087,1.707c0,0.674-0.444,1.559-1.683,1.559h-1.648
		V50.869z"/>
	<path fill="#19181B" d="M79.245,52.999c0,1.061-0.699,1.477-1.258,1.477c-0.73,0-1.088-0.518-1.088-1.289v-4.436h-1.037v4.878
		c0,1.09,0.609,1.646,1.721,1.646c0.673,0,1.282-0.32,1.622-0.899h0.04v0.771h1.1c-0.037-0.443-0.063-0.886-0.063-1.328V48.75
		h-1.037V52.999z"/>
	<path fill="#19181B" d="M86.668,55.15v-4.433c0-1.269-0.343-2.089-1.709-2.089c-0.826,0-1.305,0.229-1.712,0.949h-0.05v-0.823
		h-1.102c0.038,0.442,0.064,0.885,0.064,1.33v5.065h1.037v-3.789c0-0.873,0.163-1.887,1.306-1.887c0.886,0,1.125,0.557,1.125,1.242
		v4.433L86.668,55.15L86.668,55.15z"/>
	<path fill="#19181B" d="M91.769,49.399h-0.035c-0.355-0.508-0.799-0.771-1.406-0.771c-2.065,0-2.116,1.834-2.116,3.428
		c0,2.812,1.038,3.22,2.064,3.22c0.669,0,1.111-0.291,1.467-0.889h0.026v0.763h1.04v-9.144h-1.04V49.399z M91.769,51.693
		c0,1.289,0,2.736-1.164,2.736c-1.306,0-1.306-1.395-1.306-2.356c0-1.711,0.151-2.599,1.268-2.599
		C91.717,49.475,91.769,50.843,91.769,51.693"/>
	<path fill="#19181B" d="M99.091,52.284v-0.542c0-2.115-0.458-3.114-2.28-3.114c-2.215,0-2.431,1.544-2.431,3.419
		c0,2.822,1.073,3.227,2.431,3.227c1.342,0,2.215-0.645,2.228-2.062h-1.138c-0.039,0.644-0.408,1.216-1.117,1.216
		c-0.809,0-1.292-0.355-1.292-2.142L99.091,52.284L99.091,52.284z M95.491,51.502c0.014-1.772,0.558-2.089,1.217-2.089
		c0.761,0,1.279,0.226,1.279,2.089H95.491z"/>
	<path fill="#19181B" d="M104.815,53.324c0-1.948-3.191-1.924-3.191-3.049c0-0.56,0.429-0.861,0.987-0.861
		c0.659,0,1.015,0.354,0.999,1.025h1.154c0.088-1.269-0.888-1.811-2.027-1.811c-1.8,0-2.204,1.075-2.204,1.746
		c0,1.913,3.194,1.939,3.194,3.076c0,0.659-0.482,0.976-1.103,0.976c-1.05,0-1.065-0.861-1.065-1.228h-1.176
		c-0.039,1.471,0.822,2.078,2.205,2.078C103.85,55.276,104.815,54.731,104.815,53.324"/>
	<path fill="#19181B" d="M110.612,55.15v-4.307c0-0.24,0.05-0.873,0.355-1.125c0.277-0.232,0.392-0.243,0.785-0.243
		c0.834,0,1.014,0.595,1.014,1.242v4.433h1.037v-4.863c0-1.506-1.079-1.658-1.748-1.658c-0.579,0-1.164,0.138-1.516,0.82
		c-0.243-0.579-0.918-0.82-1.498-0.82c-0.747,0-1.292,0.24-1.591,0.922h-0.028v-0.796h-1.102c0.038,0.442,0.062,0.885,0.062,1.33
		v5.065h1.04v-4.307c0-0.24,0.05-0.621,0.239-0.938c0.153-0.243,0.584-0.431,0.9-0.431c0.835,0,1.011,0.595,1.011,1.242v4.433
		H110.612z"/>
	<path fill="#19181B" d="M115.573,47.119h1.167v-1.113h-1.167V47.119z M116.676,48.751h-1.04v6.398h1.04V48.751z"/>
	<path fill="#19181B" d="M123.068,55.15v-4.433c0-1.269-0.339-2.089-1.71-2.089c-0.821,0-1.3,0.229-1.707,0.949h-0.05v-0.823h-1.103
		c0.039,0.442,0.062,0.885,0.062,1.33v5.065h1.041v-3.789c0-0.873,0.167-1.887,1.306-1.887c0.886,0,1.125,0.557,1.125,1.242v4.433
		L123.068,55.15L123.068,55.15z"/>
	<path fill="#19181B" d="M124.843,47.119h1.165v-1.113h-1.165V47.119z M125.946,48.751h-1.037v6.398h1.037V48.751z"/>
	<path fill="#19181B" d="M131.846,53.324c0-1.948-3.193-1.924-3.193-3.049c0-0.56,0.431-0.861,0.987-0.861
		c0.66,0,1.015,0.354,0.999,1.025h1.154c0.089-1.269-0.887-1.811-2.029-1.811c-1.797,0-2.201,1.075-2.201,1.746
		c0,1.913,3.193,1.939,3.193,3.076c0,0.659-0.484,0.976-1.102,0.976c-1.055,0-1.066-0.861-1.066-1.228h-1.18
		c-0.035,1.471,0.825,2.078,2.207,2.078C130.881,55.276,131.846,54.731,131.846,53.324"/>
	<path fill="#19181B" d="M132.537,48.751v0.788h1.051v4.547c0,0.732,0.441,1.137,1.428,1.137c0.343,0,0.686-0.076,1.028-0.1v-0.798
		c-0.226,0.026-0.391,0.05-0.466,0.05c-0.949,0-0.949-0.519-0.949-0.926v-3.911h1.389V48.75h-1.389v-1.693l-1.043,0.466v1.228
		L132.537,48.751L132.537,48.751z"/>
	<path fill="#19181B" d="M141.602,52.284v-0.542c0-2.115-0.455-3.114-2.279-3.114c-2.215,0-2.432,1.544-2.432,3.419
		c0,2.822,1.075,3.227,2.432,3.227c1.341,0,2.215-0.645,2.229-2.062h-1.139c-0.041,0.644-0.406,1.216-1.115,1.216
		c-0.812,0-1.293-0.355-1.293-2.142L141.602,52.284L141.602,52.284z M138.004,51.502c0.014-1.772,0.557-2.089,1.218-2.089
		c0.757,0,1.278,0.226,1.278,2.089H138.004z"/>
	<path fill="#19181B" d="M144.172,48.751h-1.037v6.396h1.037v-3.771c0-0.864,0.293-1.734,1.443-1.734
		c0.189,0,0.369,0.036,0.559,0.062v-1.075c-1.016,0-1.545,0.111-1.977,1.09h-0.025V48.751z"/>
	<path fill="#19181B" d="M147.215,47.119h1.166v-1.113h-1.166V47.119z M148.319,48.751h-1.039v6.398h1.039V48.751z"/>
	<path fill="#19181B" d="M153.535,52.999c0,1.061-0.695,1.477-1.253,1.477c-0.737,0-1.09-0.518-1.09-1.289v-4.436h-1.037v4.878
		c0,1.09,0.606,1.646,1.723,1.646c0.669,0,1.278-0.32,1.618-0.899h0.039v0.771h1.103c-0.04-0.443-0.065-0.886-0.065-1.328V48.75
		h-1.037V52.999z"/>
	<path fill="#19181B" d="M160.662,55.15v-4.307c0-0.24,0.053-0.873,0.356-1.125c0.281-0.232,0.392-0.243,0.784-0.243
		c0.838,0,1.014,0.595,1.014,1.242v4.433h1.042v-4.863c0-1.506-1.079-1.658-1.749-1.658c-0.581,0-1.165,0.138-1.519,0.82
		c-0.239-0.579-0.915-0.82-1.495-0.82c-0.748,0-1.293,0.24-1.593,0.922h-0.029v-0.796h-1.102c0.042,0.442,0.064,0.885,0.064,1.33
		v5.065h1.037v-4.307c0-0.24,0.049-0.621,0.241-0.938c0.15-0.243,0.584-0.431,0.9-0.431c0.831,0,1.012,0.595,1.012,1.242v4.433
		H160.662z"/>
	<rect x="56.644" y="91.334" fill="#F7D000" width="4.005" height="22.613"/>
	<rect x="56.644" y="68.64" fill="#E0001A" width="4.005" height="22.694"/>
	<rect x="56.644" y="46.103" fill="#19181B" width="4.005" height="22.611"/>
	<path fill="#19181B" d="M39.136,52.049c0.101,0.007,0.198,0.01,0.299,0.01c1.789,0,3.56-1.151,3.56-2.635
		c0-0.788-0.357-1.341-0.794-1.953c-0.258,0.044-0.494,0.067-0.679,0.067c-0.808,0-1.248-0.434-1.278-0.86
		c0-0.382,0.312-0.672,0.796-0.672c0.751,0,2.123,0.7,3.502,0.7c-0.136,0.106-0.363,0.211-0.636,0.314
		c0.812,0.729,1.352,1.707,1.559,2.751l2.113,3.384c0.357,0.565,1.108,1.675,2.237,2.543c-1.367,0-2.273,0.032-3.433-1.796
		L45.3,52.165c-0.079,0.226-0.182,0.445-0.296,0.659l2.156,3.452c0.359,0.571,1.103,1.672,2.236,2.543
		c-1.366,0-2.271,0.035-3.428-1.796l-1.858-2.971c-0.138,0.146-0.286,0.29-0.439,0.43l2.619,4.192
		c0.359,0.572,1.099,1.673,2.237,2.543c-1.367,0-2.275,0.032-3.432-1.799l-2.553-4.083c-0.167,0.105-0.338,0.205-0.517,0.304
		l3.114,4.989c0.36,0.571,1.102,1.67,2.238,2.543c-1.368,0-2.273,0.029-3.429-1.798l-3.208-5.136
		c-0.189,0.073-0.382,0.141-0.58,0.205l3.629,5.804c0.349,0.562,1.108,1.678,2.233,2.543c-1.366,0-2.275,0.032-3.428-1.798
		l-3.866-6.185l-0.119,0.02c-0.105,0.337-0.18,0.647-0.18,0.958c0,1.945,1.279,3.659,2.808,4.983
		c-0.097,0.044-0.267,0.059-0.425,0.059c-0.315,0-0.519-0.017-0.665-0.041c0.357,0.806,1.119,1.846,1.503,2.385
		c0.501-0.087,1.23-0.161,1.709-0.161c0.497,0,0.552,0.293,0.552,0.554c0,0.454-0.211,0.82-0.456,1.019
		c-0.092-0.234-0.281-0.545-1.203-0.545l-0.093,0.006c0.268,0.302,1.111,0.984,1.111,1.535c0,0.363-0.396,0.908-0.922,0.908
		c0.03-0.117,0.026-0.226,0.026-0.307c0-0.446-0.396-0.965-0.729-1.328c0.008,0.105,0.006,0.094,0.006,0.22
		c0,1.055-0.095,1.538-0.765,1.538c-0.328,0-0.554-0.178-0.631-0.234c0.432-0.398,0.457-0.715,0.457-1.307l-0.005-0.51
		c-0.003-0.135,0-0.311,0.021-0.441c-0.241-0.033-0.334-0.033-0.519-0.033c0,0-0.953-0.073-1.178,0.42
		c-0.258-0.232-0.631-0.568-0.631-0.941c0-0.24,0.113-0.516,0.602-0.516c0.188,0,0.768,0.114,1.257,0.114
		c-0.129-0.29-0.716-1.143-1.217-1.766c-0.078,0.243-0.198,0.504-0.461,0.714c-0.038-0.398-0.272-1.655-0.891-2.391
		c-0.072,0.498-0.172,1.008-0.172,2.079c0,2.616,0.628,4.55,1.964,4.92c-0.174,0.302-0.541,0.577-0.922,0.577
		c-0.488,0-0.755-0.557-1.027-1.075c-0.138,0.384-0.528,1.327-0.92,1.327s-0.782-0.943-0.922-1.327
		c-0.272,0.519-0.539,1.075-1.028,1.075c-0.382,0-0.747-0.275-0.923-0.577c1.336-0.369,1.965-2.303,1.965-4.92
		c0-1.072-0.097-1.581-0.169-2.079c-0.622,0.734-0.856,1.992-0.891,2.391c-0.267-0.21-0.387-0.472-0.46-0.714
		c-0.506,0.624-1.089,1.477-1.223,1.766c0.492,0,1.073-0.114,1.259-0.114c0.489,0,0.605,0.275,0.605,0.516
		c0,0.373-0.378,0.708-0.633,0.941c-0.229-0.492-1.178-0.42-1.178-0.42c-0.185,0-0.281,0-0.518,0.033
		c0.017,0.131,0.021,0.307,0.017,0.441v0.51c0,0.592,0.021,0.908,0.457,1.307c-0.079,0.057-0.304,0.234-0.633,0.234
		c-0.669,0-0.766-0.483-0.766-1.538c0-0.126-0.004-0.114,0.004-0.22c-0.333,0.363-0.727,0.882-0.727,1.328
		c0,0.081-0.006,0.189,0.026,0.307c-0.526,0-0.926-0.545-0.926-0.908c0-0.551,0.844-1.233,1.113-1.535l-0.091-0.006
		c-0.922,0-1.11,0.311-1.204,0.545c-0.246-0.199-0.456-0.565-0.456-1.019c0-0.261,0.054-0.554,0.553-0.554
		c0.48,0,1.209,0.074,1.71,0.161c0.382-0.539,1.146-1.579,1.498-2.385c-0.141,0.023-0.344,0.041-0.663,0.041
		c-0.155,0-0.329-0.015-0.425-0.059c1.532-1.324,2.804-3.038,2.804-4.983c0-0.311-0.07-0.621-0.178-0.958l-0.113-0.02l-3.867,6.185
		c-1.156,1.831-2.061,1.798-3.429,1.798c1.125-0.864,1.882-1.98,2.235-2.543l3.628-5.804c-0.198-0.064-0.391-0.132-0.58-0.205
		l-3.209,5.136c-1.157,1.828-2.065,1.798-3.431,1.798c1.139-0.873,1.877-1.972,2.236-2.543L31.2,55.64
		c-0.18-0.1-0.349-0.199-0.518-0.304l-2.554,4.082c-1.156,1.831-2.064,1.799-3.432,1.799c1.138-0.87,1.881-1.972,2.238-2.544
		l2.619-4.192c-0.155-0.141-0.3-0.284-0.437-0.431l-1.859,2.972c-1.158,1.83-2.065,1.796-3.432,1.796
		c1.137-0.87,1.881-1.972,2.238-2.543l2.156-3.452c-0.114-0.214-0.216-0.434-0.295-0.659l-1.084,1.737
		c-1.155,1.829-2.062,1.797-3.432,1.797c1.134-0.867,1.885-1.978,2.24-2.543l2.114-3.384c0.205-1.044,0.744-2.021,1.556-2.752
		c-0.272-0.103-0.498-0.207-0.636-0.313c1.383,0,2.749-0.7,3.501-0.7c0.487,0,0.795,0.29,0.795,0.672
		c-0.03,0.427-0.47,0.86-1.278,0.86c-0.185,0-0.418-0.023-0.677-0.067c-0.437,0.613-0.791,1.167-0.791,1.954
		c0,1.483,1.77,2.635,3.56,2.635c0.097,0,0.193-0.003,0.294-0.01c0.356-1.201,1.112-1.985,1.709-2.757
		c-0.721-0.264-1.525-0.949-1.525-1.263c0.092-0.05,1.476,0.384,1.617,0.421c0.031,0.012,0.062,0.012,0.092,0
		c0.172-0.049,0.311-0.296,0.311-0.322c-0.148-0.023-1.016-0.135-1.608-0.352c-0.452-0.165-0.68-0.463-0.68-0.578
		c0.144-0.02,0.694,0.267,1.499,0.267c0.298,0,0.356-0.016,0.655-0.05c-0.211-0.495-0.603-0.914-1.042-0.914
		c-0.175,0-0.562,0.11-0.886,0.272c-0.226-0.35-0.424-0.809-0.424-1.061c0-0.297,0.295-0.645,1.121-0.645
		c0.233,0,0.449,0.021,0.65,0.059c0.161,0.029,0.299,0.064,0.443,0.123c-0.01-0.021-0.017-0.064-0.017-0.105
		c0-0.114,0.104-0.234,0.492-0.234c0.681,0,1.38,0.223,2.234,0.223c0.223,0,0.375-0.006,0.504-0.059
		c-0.057,0.17-0.298,0.419-0.518,0.621c0.135,0.188,0.489,0.639,0.489,1.362c0,1.163-0.765,2.127-0.765,3.301
		C38.438,51.066,38.974,51.681,39.136,52.049 M37.083,46.495c0.634,0.123,1.063-0.688,0.462-0.835
		c0.083,0.27-0.321,0.457-0.321,0.457s-0.156-0.358,0.044-0.562c-0.369-0.179-0.46,0.038-0.47,0.266
		C36.945,46.017,37.04,46.24,37.083,46.495 M36.548,47.743c0.119-0.27,0.277-0.592,0.277-0.944c0-0.979-0.812-1.444-1.898-1.444
		c-0.558,0-0.839,0.179-0.839,0.36s0.185,0.577,0.257,0.7c0.201-0.091,0.562-0.196,0.771-0.196
		C35.862,46.22,36.421,47.058,36.548,47.743 M29.613,49.483c0-0.949,0.62-1.67,0.967-2.098l-0.232-0.052
		c-0.334,0.287-1.271,1.306-1.271,2.592c0,2.26,2.27,4.352,4.852,4.368c-0.025-0.246-0.044-0.504-0.044-0.785
		c0-0.172,0.009-0.346,0.022-0.504C31.626,53.005,29.613,51.367,29.613,49.483 M34.105,63.121c-0.075-0.272-0.148-0.472-0.432-0.472
		c-0.148,0-0.218,0.022-0.306,0.055c-0.307,0.859-1.499,2.467-1.688,2.719c-0.51-0.084-1.23-0.175-1.811-0.175
		c-0.136,0-0.324-0.013-0.324,0.313c0,0.188,0.085,0.521,0.185,0.633c0.258-0.305,0.702-0.392,1.245-0.392
		c0.212,0,0.467,0.073,0.564,0.097c-0.693,0.703-1.346,1.286-1.346,1.678c0,0.214,0.226,0.504,0.415,0.602
		c0-0.575,0.593-1.368,1.178-1.813c0,0.078,0.028,0.381,0.028,0.705c0,1.087,0.108,1.298,0.526,1.298
		c0.075,0,0.203-0.023,0.255-0.053c-0.228-0.258-0.321-0.604-0.321-1.248c0-0.182,0.006-0.357,0.006-0.51
		c0-0.284-0.029-0.486-0.054-0.645c0.163-0.023,0.523-0.076,0.791-0.076c0.567,0,0.922,0.059,1.178,0.313
		c0.185-0.142,0.387-0.407,0.387-0.589c0-0.262-0.174-0.278-0.359-0.278c-0.292,0-0.524,0.114-1.619,0.114
		C32.82,64.782,33.45,63.918,34.105,63.121 M40.622,65.398c-1.094,0-1.33-0.114-1.617-0.114c-0.185,0-0.36,0.017-0.36,0.278
		c0,0.182,0.205,0.448,0.39,0.589c0.257-0.255,0.608-0.313,1.18-0.313c0.264,0,0.628,0.052,0.786,0.076
		c-0.021,0.158-0.053,0.36-0.053,0.645c0,0.152,0.005,0.328,0.005,0.51c0,0.645-0.093,0.99-0.318,1.248
		c0.05,0.029,0.178,0.053,0.255,0.053c0.42,0,0.524-0.211,0.524-1.298c0-0.325,0.029-0.627,0.029-0.705
		c0.581,0.445,1.18,1.238,1.18,1.813c0.188-0.098,0.413-0.388,0.413-0.602c0-0.392-0.655-0.976-1.35-1.678
		c0.097-0.023,0.354-0.097,0.567-0.097c0.545,0,0.985,0.087,1.243,0.392c0.102-0.11,0.184-0.445,0.184-0.633
		c0-0.326-0.189-0.313-0.321-0.313c-0.581,0-1.3,0.091-1.815,0.175c-0.188-0.252-1.375-1.859-1.685-2.719
		c-0.091-0.032-0.157-0.055-0.306-0.055c-0.286,0-0.359,0.199-0.432,0.472C39.775,63.918,40.408,64.782,40.622,65.398
		 M44.146,49.925c0-1.286-0.937-2.305-1.266-2.592l-0.237,0.052c0.352,0.428,0.97,1.148,0.97,2.098c0,1.866-1.975,3.489-4.228,3.519
		c0.018,0.193,0.015,0.363,0.015,0.507c0,0.27-0.017,0.53-0.048,0.782C41.909,54.247,44.146,52.167,44.146,49.925"/>
	<path fill="#19181B" d="M71.388,19.302c0-0.672-0.274-1.038-1.011-1.038c-0.229,0-1.055,0.042-1.055,1.236v1.931
		c0,1.251,0.365,1.567,1.055,1.567c0.522,0,0.87-0.144,1.021-0.252v-1.71h-1.051v-0.633h1.78v2.78
		c-0.466,0.252-1.013,0.424-1.749,0.424c-1.211,0-1.797-0.624-1.797-2.208v-1.872c0-1.141,0.586-1.872,1.797-1.872
		c1.234,0,1.819,0.453,1.774,1.646H71.388z"/>
	<polygon fill="#19181B" points="73.488,23.491 73.488,17.776 76.433,17.776 76.433,18.411 74.217,18.411 74.217,20.245 
		76.273,20.245 76.273,20.878 74.217,20.878 74.217,22.858 76.478,22.858 76.478,23.491 	"/>
	<polygon fill="#19181B" points="77.389,23.491 77.389,17.776 80.221,17.776 80.221,18.411 78.118,18.411 78.118,20.245 
		80.111,20.245 80.111,20.878 78.118,20.878 78.118,23.491 	"/>
	<path fill="#19181B" d="M83.807,17.105h-0.743v-0.826h0.743V17.105z M83.782,21.432v-1.931c0-1.195-0.819-1.234-1.049-1.234
		c-0.231,0-1.053,0.039-1.053,1.234v1.931c0,1.251,0.36,1.567,1.053,1.567C83.42,22.999,83.782,22.683,83.782,21.432 M82.414,17.105
		h-0.743v-0.826h0.743V17.105z M80.933,21.4v-1.875c0-1.138,0.587-1.869,1.8-1.869c1.21,0,1.795,0.732,1.795,1.869V21.4
		c0,1.584-0.584,2.208-1.795,2.208C81.52,23.608,80.933,22.984,80.933,21.4"/>
	<path fill="#19181B" d="M86.507,20.231h1.093c0.521,0,0.773-0.453,0.773-0.949c0-0.413-0.203-0.87-0.765-0.87h-1.102L86.507,20.231
		L86.507,20.231z M86.507,20.863v2.629h-0.729v-5.716h1.972c1.015,0,1.371,0.715,1.371,1.423c0,0.672-0.374,1.189-1.046,1.307v0.016
		c0.654,0.103,0.894,0.328,0.936,1.474c0.005,0.246,0.084,1.14,0.193,1.497h-0.756c-0.209-0.396-0.162-1.141-0.224-1.898
		c-0.053-0.701-0.615-0.73-0.861-0.73H86.507z"/>
	<path fill="#19181B" d="M90.939,22.856h0.69c1.011,0,1.384-0.378,1.384-1.707v-1.155c0-1.16-0.356-1.585-1.116-1.585H90.94
		L90.939,22.856L90.939,22.856z M90.209,17.776h1.758c0.729,0,1.252,0.261,1.534,0.87c0.23,0.485,0.255,1.622,0.255,1.804
		c0,1.222-0.11,1.925-0.347,2.303c-0.308,0.492-0.888,0.738-1.886,0.738h-1.313V17.776z"/>
	<polygon fill="#19181B" points="95.031,23.491 95.031,17.776 97.975,17.776 97.975,18.411 95.758,18.411 95.758,20.245 
		97.817,20.245 97.817,20.878 95.758,20.878 95.758,22.858 98.023,22.858 98.023,23.491 	"/>
	<path fill="#19181B" d="M99.701,20.231h1.09c0.523,0,0.778-0.453,0.778-0.949c0-0.413-0.206-0.87-0.769-0.87h-1.1V20.231z
		 M99.701,20.863v2.629h-0.729v-5.716h1.969c1.015,0,1.371,0.715,1.371,1.423c0,0.672-0.374,1.189-1.044,1.307v0.016
		c0.653,0.103,0.894,0.328,0.932,1.474c0.009,0.246,0.088,1.14,0.199,1.497h-0.761c-0.205-0.396-0.158-1.141-0.224-1.898
		c-0.053-0.701-0.615-0.73-0.861-0.73H99.701z"/>
	<polygon fill="#19181B" points="106.596,17.776 106.596,18.408 105.092,18.408 105.092,23.491 104.363,23.491 104.363,18.408 
		102.858,18.408 102.858,17.776 	"/>
	<polygon fill="#19181B" points="111.088,23.491 110.218,23.491 108.566,17.776 109.357,17.776 110.662,22.803 110.679,22.803 
		112.016,17.776 112.758,17.776 	"/>
	<path fill="#19181B" d="M116.328,21.432v-1.931c0-1.195-0.819-1.234-1.052-1.234c-0.229,0-1.05,0.039-1.05,1.234v1.931
		c0,1.251,0.359,1.567,1.05,1.567C115.965,22.999,116.328,22.683,116.328,21.432 M113.479,21.4v-1.875
		c0-1.138,0.588-1.869,1.797-1.869c1.213,0,1.797,0.732,1.797,1.869V21.4c0,1.584-0.584,2.208-1.797,2.208
		C114.067,23.608,113.479,22.984,113.479,21.4"/>
	<polygon fill="#19181B" points="119.03,23.491 118.348,23.491 118.348,17.776 119.526,17.776 120.967,22.572 120.985,22.572 
		122.44,17.776 123.641,17.776 123.641,23.491 122.914,23.491 122.914,18.411 122.899,18.411 121.299,23.491 120.612,23.491 
		119.043,18.411 119.03,18.411 	"/>
</g>
</svg>
