<svg version="1" xmlns="http://www.w3.org/2000/svg" xmlns:xlink="http://www.w3.org/1999/xlink" width="344" height="184" viewBox="0 0 344 184"><defs><path id="a" d="M1.213 2.513h341.574V183.93H1.213V2.514zm0 0"/></defs><defs><path id="c" d="M1.213 2.513h341.574V183.93H1.213z"/></defs><clipPath id="b"><use xlink:href="#a" overflow="visible"/></clipPath><clipPath id="d" clip-path="url(#b)"><use xlink:href="#c" overflow="visible"/></clipPath><path clip-path="url(#d)" fill-rule="evenodd" clip-rule="evenodd" fill="#A4354A" d="M114.887 98.35c0 7.636 3.354 15.7 12.92 15.7 8.565 0 12.054-8.064 12.054-15.7 0-7.633-3.488-15.703-12.054-15.703-9.564 0-12.92 8.07-12.92 15.704z"/><path clip-path="url(#d)" fill-rule="evenodd" clip-rule="evenodd" fill="#A4354A" d="M101.707 98.35c0 7.636-3.5 15.7-12.062 15.7-9.564 0-12.92-8.064-12.92-15.7 0-8.35 3-15.703 12.92-15.703 8.563 0 12.062 8.07 12.062 15.704zm-29.614 26.047l4.476.004.02-14.628h.146c1.925 5.277 7.276 8.062 12.775 8.062 11.204 0 16.555-9.068 16.555-19.484 0-10.42-5.35-19.48-16.554-19.48-5.923 0-11.062 3.063-13.133 8.06h-.145v-6.992h-4.14v44.46zm-9.12-26.046c0 7.636-3.5 15.7-12.06 15.7-9.568 0-12.918-8.064-12.918-15.7 0-7.633 3.35-15.703 12.917-15.703 8.56 0 12.062 8.07 12.062 15.704zm-29.18 18.413h4.14v-6.99h.142c2.07 4.99 7.21 8.062 13.133 8.062 11.207 0 16.554-9.068 16.554-19.484 0-10.42-5.347-19.48-16.554-19.48-5.496 0-10.847 2.78-12.772 8.06h-.146v-13.9h-4.497v43.733zm94.014 1.072c-5.927 0-11.062-3.072-13.13-8.062h-.15v6.99h-4.136V73.03h4.498v13.9h.146c1.923-5.28 7.274-8.06 12.774-8.06 3.227 0 5.952.767 8.222 2.086-11.426-23.816-35.76-40.27-63.944-40.27-39.143 0-70.873 31.732-70.873 70.874 0 39.14 31.73 70.877 70.873 70.877 39.142 0 70.875-31.736 70.875-70.877 0-1.418-.055-2.816-.134-4.21-2.31 6.135-7.264 10.485-15.02 10.485zM161.26 158.034c0 2.238-.864 4.438-3.433 4.438-2.598 0-3.62-2.088-3.62-4.35 0-2.158.98-4.33 3.505-4.33 2.447 0 3.55 2.084 3.55 4.242zm-8.87 10.227h1.883v-5.923h.045c.847 1.352 2.528 1.797 3.708 1.797 3.507 0 5.238-2.736 5.238-5.975s-1.756-6.036-5.282-6.036c-1.58 0-3.046.557-3.665 1.826h-.045v-1.56h-1.883v15.87zM164.853 158.144c0 3.34 1.93 5.99 5.567 5.99 3.643 0 5.58-2.65 5.58-5.99 0-3.375-1.937-6.02-5.58-6.02-3.637 0-5.567 2.645-5.567 6.02zm1.996 0c0-2.803 1.596-4.352 3.57-4.352 1.97 0 3.57 1.55 3.57 4.352 0 2.775-1.6 4.328-3.57 4.328-1.974 0-3.57-1.553-3.57-4.328zM178.535 163.866h1.887v-15.844h-1.887v15.844zM183.678 163.866h1.89V152.39h-1.89v11.476zm1.888-15.844h-1.89v2.307h1.89v-2.308zM191.33 148.95h-1.89v3.44h-1.952v1.667h1.953v7.3c0 2.11.772 2.51 2.726 2.51h1.438v-1.67h-.863c-1.167 0-1.41-.15-1.41-1.015v-7.125h2.274v-1.666h-2.273v-3.44zM196.02 163.866h1.89V152.39h-1.89v11.476zm1.89-15.844h-1.89v2.307h1.89v-2.308zM200.318 160.247c.113 2.846 2.285 3.887 4.857 3.887 2.33 0 4.883-.89 4.883-3.613 0-2.218-1.86-2.843-3.748-3.265-1.754-.418-3.748-.65-3.748-2.004 0-1.15 1.305-1.458 2.44-1.458 1.243 0 2.528.465 2.66 1.926h1.892c-.158-2.79-2.184-3.594-4.71-3.594-1.993 0-4.28.96-4.28 3.264 0 2.195 1.883 2.826 3.744 3.242 1.887.426 3.756.66 3.756 2.13 0 1.438-1.598 1.712-2.768 1.712-1.56 0-3.027-.533-3.09-2.225h-1.888zM222.107 156.073c-.266-2.725-2.357-3.95-4.95-3.95-3.642 0-5.417 2.71-5.417 6.15 0 3.417 1.867 5.86 5.375 5.86 2.885 0 4.637-1.662 5.062-4.463h-1.932c-.246 1.727-1.336 2.8-3.156 2.8-2.396 0-3.358-2.087-3.358-4.196 0-2.328.857-4.482 3.58-4.482 1.557 0 2.547.844 2.842 2.28h1.953zM224.502 163.866h1.88v-6.486c0-2.06 1.112-3.588 3.394-3.588 1.44 0 2.334.914 2.334 2.31v7.765H234v-7.547c0-2.465-.94-4.195-3.953-4.195-1.38 0-3.002.576-3.617 1.95h-.05v-6.052h-1.878v15.843zM244.97 160.228c-.337 1.486-1.42 2.244-2.966 2.244-2.518 0-3.652-1.773-3.582-3.777h8.586c.11-2.773-1.13-6.57-5.19-6.57-3.134 0-5.39 2.53-5.39 5.97.105 3.51 1.842 6.04 5.504 6.04 2.574 0 4.385-1.377 4.896-3.906h-1.86v-.002zm-6.548-3.194c.127-1.758 1.31-3.242 3.287-3.242 1.86 0 3.214 1.447 3.302 3.242h-6.59zM258.193 156.604h4.824c1.775 0 3.443.588 3.443 2.645 0 1.73-1.16 2.84-2.973 2.84h-5.295v-5.486zm-2.1 7.262h7.653c3.15 0 4.814-2.223 4.814-4.55 0-1.952-1.06-3.423-3.014-3.82v-.046c1.46-.596 2.352-1.86 2.352-3.55a3.763 3.763 0 0 0-1.865-3.302c-.957-.576-2.797-.576-4.197-.576h-5.744v15.844zm2.1-14.07h4.227c1.812 0 3.363.312 3.363 2.506 0 1.666-.973 2.53-3.363 2.53h-4.227v-5.036zM271.303 163.866h1.89V152.39h-1.89v11.476zm1.89-15.844h-1.89v2.307h1.89v-2.308zM276.44 163.866h1.888v-15.844h-1.887v15.844zM291.498 148.022h-1.89v5.902h-.04c-.838-1.355-2.527-1.8-3.705-1.8-3.5 0-5.23 2.73-5.23 5.97s1.742 6.04 5.27 6.04c1.578 0 3.043-.56 3.666-1.82h.04v1.552h1.89v-15.844h-.002zm-8.873 10.21c0-2.25.865-4.44 3.436-4.44 2.6 0 3.622 2.084 3.622 4.352 0 2.152-.975 4.328-3.508 4.328-2.442 0-3.55-2.088-3.55-4.24zM304.117 152.392h-1.883v6.484c0 2.062-1.117 3.596-3.398 3.596-1.445 0-2.32-.916-2.32-2.316v-7.764h-1.89v7.55c0 2.458.93 4.192 3.938 4.192 1.648 0 2.94-.666 3.738-2.088h.04v1.82h1.774v-11.474zM307.168 163.866h1.89v-6.486c0-2.06 1.11-3.588 3.396-3.588 1.44 0 2.326.914 2.326 2.31v7.765h1.885v-7.547c0-2.465-.926-4.195-3.95-4.195-1.632 0-2.925.668-3.728 2.086h-.043v-1.817h-1.775v11.473h-.002zM324.334 162.337c-2.48 0-3.242-2.31-3.242-4.37 0-2.204.982-4.175 3.398-4.175 2.375 0 3.266 2.084 3.266 4.102 0 2.158-.934 4.443-3.422 4.443zm5.28-9.945h-1.776v1.64h-.043.023c-.686-1.26-1.977-1.907-3.418-1.907-3.97 0-5.307 3.352-5.307 6.06 0 3.124 1.715 5.813 5.13 5.813 1.44 0 2.954-.684 3.57-2.086h.044v.76c0 2.566-.973 4.346-3.438 4.346-1.243 0-2.89-.486-2.976-1.865h-1.89c.114 2.508 2.6 3.375 4.75 3.375 3.624 0 5.327-1.91 5.327-5.635v-10.5h.003zM154.51 134.417h4.814c1.775 0 3.44.586 3.44 2.646 0 1.73-1.153 2.842-2.972 2.842h-5.282v-5.488zm-2.113 7.262h7.657c3.153 0 4.817-2.222 4.817-4.552 0-1.947-1.063-3.418-3.018-3.818v-.043c1.467-.604 2.35-1.86 2.35-3.55 0-1.556-.82-2.69-1.86-3.31-.95-.572-2.794-.572-4.193-.572h-5.753v15.844zm2.113-14.07h4.21c1.825 0 3.38.307 3.38 2.506 0 1.664-.976 2.527-3.38 2.527h-4.21v-5.033zM176.773 130.204h-1.88v6.477c0 2.07-1.112 3.6-3.402 3.6-1.44 0-2.328-.91-2.328-2.31v-7.766h-1.888v7.543c0 2.47.93 4.197 3.946 4.197 1.648 0 2.93-.666 3.734-2.086H175v1.82h1.773v-11.474zM179.832 141.68h1.88v-6.485c0-2.06 1.112-3.59 3.397-3.59 1.44 0 2.33.908 2.33 2.307v7.768h1.888v-7.55c0-2.464-.94-4.19-3.955-4.19-1.64 0-2.936.666-3.725 2.086h-.043v-1.82h-1.773v11.473zM202.635 125.835h-1.893v5.902h-.04c-.85-1.355-2.536-1.8-3.712-1.8-3.508 0-5.236 2.726-5.236 5.972 0 3.24 1.76 6.034 5.283 6.034 1.576 0 3.04-.55 3.664-1.82h.042v1.555h1.893v-15.845zm-8.89 10.207c0-2.246.872-4.438 3.448-4.438 2.59 0 3.615 2.084 3.615 4.35 0 2.152-.975 4.324-3.508 4.324-2.437 0-3.554-2.088-3.554-4.236zM213.662 138.036c-.326 1.484-1.42 2.242-2.963 2.242-2.51 0-3.642-1.775-3.573-3.77h8.582c.112-2.774-1.128-6.57-5.19-6.57-3.132 0-5.394 2.53-5.394 5.972.11 3.51 1.846 6.035 5.506 6.035 2.566 0 4.395-1.375 4.898-3.908h-1.868zm-6.535-3.19c.13-1.757 1.305-3.24 3.287-3.24 1.86 0 3.215 1.44 3.3 3.24h-6.587zM217.143 138.058c.113 2.846 2.285 3.887 4.86 3.887 2.333 0 4.878-.887 4.878-3.61 0-2.23-1.858-2.843-3.745-3.267-1.746-.43-3.748-.65-3.748-1.998 0-1.156 1.318-1.465 2.44-1.465 1.24 0 2.53.46 2.665 1.928h1.89c-.153-2.795-2.18-3.594-4.71-3.594-1.998 0-4.28.954-4.28 3.26 0 2.204 1.888 2.82 3.747 3.24 1.89.427 3.747.667 3.747 2.132 0 1.438-1.594 1.707-2.764 1.707-1.555 0-3.03-.528-3.094-2.222h-1.887zM228.264 141.68h9.677v-1.67h-7.327l7.012-8.52v-1.286H228.7v1.666h6.486l-6.922 8.36v1.45zM247.98 138.036c-.327 1.484-1.425 2.242-2.968 2.242-2.51 0-3.646-1.775-3.574-3.77h8.59c.11-2.774-1.133-6.57-5.195-6.57-3.13 0-5.395 2.53-5.395 5.972.115 3.51 1.846 6.035 5.51 6.035 2.568 0 4.393-1.375 4.902-3.908h-1.87zm-6.542-3.19c.13-1.757 1.31-3.24 3.28-3.24 1.868 0 3.22 1.44 3.313 3.24h-6.592zM252.188 141.68h1.89v-6.485c0-2.06 1.104-3.59 3.403-3.59 1.44 0 2.32.908 2.32 2.307v7.768h1.892v-7.55c0-2.464-.936-4.19-3.95-4.19-1.646 0-2.933.666-3.73 2.086h-.044v-1.82h-1.78v11.473zM267.36 126.77h-1.886v3.435h-1.953v1.666h1.954v7.306c0 2.104.77 2.504 2.723 2.504h1.443v-1.67h-.86c-1.177 0-1.42-.15-1.42-1.012v-7.127h2.28v-1.665h-2.28v-3.436zM272.104 141.68h1.883v-5.106c0-2.91 1.105-4.64 4.152-4.64v-1.995c-2.048-.065-3.308.84-4.222 2.687h-.04v-2.422h-1.774v11.474zM286.643 137.683c0 1.043-1.014 2.596-3.496 2.596-1.164 0-2.227-.44-2.227-1.69 0-1.392 1.062-1.837 2.307-2.06 1.268-.22 2.693-.246 3.416-.78v1.933zm3.068 2.486a1.58 1.58 0 0 1-.573.108c-.604 0-.604-.395-.604-1.28v-5.91c0-2.683-2.238-3.15-4.303-3.15-2.55 0-4.754 1-4.857 3.84h1.883c.09-1.69 1.27-2.173 2.867-2.173 1.193 0 2.55.266 2.55 1.908 0 1.42-1.774 1.283-3.862 1.682-1.95.38-3.882.936-3.882 3.53 0 2.288 1.71 3.22 3.79 3.22 1.603 0 3.003-.55 4.05-1.775 0 1.246.61 1.775 1.586 1.775.607 0 1.02-.107 1.357-.31v-1.466zM291.783 141.68h1.895v-15.845h-1.895v15.844zM304.74 138.036c-.33 1.484-1.412 2.242-2.97 2.242-2.52 0-3.644-1.775-3.573-3.77h8.588c.105-2.774-1.137-6.57-5.195-6.57-3.12 0-5.396 2.53-5.396 5.972.113 3.51 1.848 6.035 5.506 6.035 2.574 0 4.4-1.375 4.91-3.908h-1.87zm-6.543-3.19c.13-1.757 1.305-3.24 3.285-3.24 1.86 0 3.215 1.44 3.303 3.24h-6.588zM316.328 141.68h1.89v-9.81h2.214v-1.666h-2.213v-1.598c0-.996.528-1.29 1.438-1.29.336 0 .73.046 1.07.16v-1.642a4.635 4.635 0 0 0-1.22-.182c-2.07 0-3.18.975-3.18 2.842v1.71h-1.93v1.665h1.93v9.81zM328.178 128.544h1.994v-2.31h-1.994v2.31zm-4.174 0h1.994v-2.31h-1.994v2.31zm7.838 1.66h-1.89v6.477c0 2.07-1.114 3.6-3.394 3.6-1.45 0-2.33-.91-2.33-2.31v-7.766h-1.895v7.543c0 2.47.938 4.197 3.953 4.197 1.648 0 2.936-.666 3.73-2.086h.044v1.82h1.78v-11.474h.002zM334.822 141.68h1.89v-5.106c0-2.91 1.106-4.64 4.147-4.64v-1.995c-2.042-.065-3.31.84-4.218 2.687h-.045v-2.422h-1.775v11.474z"/><path clip-path="url(#d)" fill="#A4354A" d="M152.287 82.625h7.65v7.64h-7.65v-7.64zM152.287 109.108h7.65v7.645h-7.65v-7.645z"/><g fill="#8F3F4F"><path d="M164.21 17.985c-.866.31-2.575.82-4.596.82-2.265 0-4.13-.576-5.595-1.975-1.29-1.244-2.088-3.242-2.088-5.573.022-4.462 3.086-7.726 8.104-7.726 1.732 0 3.086.378 3.73.69l-.466 1.577c-.8-.355-1.798-.644-3.308-.644-3.64 0-6.017 2.265-6.017 6.017 0 3.796 2.287 6.04 5.772 6.04 1.266 0 2.13-.18 2.575-.4v-4.463h-3.042v-1.554h4.93v7.192zM168.45 13.634c.043 2.642 1.73 3.73 3.685 3.73 1.398 0 2.242-.244 2.974-.555l.333 1.398c-.69.31-1.865.666-3.575.666-3.308 0-5.284-2.176-5.284-5.417 0-3.24 1.91-5.794 5.04-5.794 3.51 0 4.44 3.086 4.44 5.062 0 .4-.045.71-.066.91h-7.55zm5.728-1.4c.02-1.243-.512-3.174-2.71-3.174-1.975 0-2.84 1.82-2.996 3.175h5.706zM178.95 18.65V9.395h-1.51V7.906h1.51v-.51c0-1.51.333-2.887 1.243-3.753.732-.71 1.71-1 2.62-1 .688 0 1.288.156 1.665.312l-.268 1.51c-.287-.134-.688-.245-1.242-.245-1.666 0-2.088 1.465-2.088 3.108v.577h2.598v1.488h-2.598v9.258h-1.93zM195.223 13.19c0 3.974-2.754 5.706-5.352 5.706-2.907 0-5.15-2.13-5.15-5.528 0-3.597 2.355-5.706 5.33-5.706 3.085 0 5.173 2.242 5.173 5.528zm-8.526.11c0 2.355 1.354 4.13 3.264 4.13 1.866 0 3.265-1.754 3.265-4.174 0-1.82-.91-4.13-3.22-4.13s-3.308 2.132-3.308 4.175zm.088-8.436c0-.622.512-1.132 1.133-1.132s1.088.488 1.088 1.132c0 .6-.443 1.132-1.088 1.132a1.122 1.122 0 0 1-1.133-1.132zm4.13 0c0-.622.49-1.132 1.11-1.132s1.088.488 1.088 1.132c0 .6-.443 1.132-1.088 1.132-.666 0-1.11-.532-1.11-1.132zM197.953 11.258a50.42 50.42 0 0 0-.09-3.353h1.71l.065 2.11h.09c.488-1.444 1.664-2.355 2.975-2.355.223 0 .377.022.555.066V9.57a2.946 2.946 0 0 0-.666-.067c-1.375 0-2.354 1.043-2.62 2.51a5.42 5.42 0 0 0-.09.91v5.727h-1.93v-7.392zM214.76 2.888v12.988c0 .955.02 2.043.088 2.775h-1.754l-.088-1.864h-.045c-.6 1.2-1.91 2.11-3.663 2.11-2.598 0-4.596-2.2-4.596-5.462-.02-3.575 2.2-5.772 4.82-5.772 1.642 0 2.75.777 3.24 1.643h.044V2.888h1.956zm-1.955 9.39c0-.243-.02-.576-.088-.82-.29-1.243-1.355-2.265-2.82-2.265-2.02 0-3.22 1.776-3.22 4.152 0 2.176 1.067 3.974 3.175 3.974 1.31 0 2.51-.867 2.865-2.332.066-.267.088-.533.088-.844V12.28zM219.354 13.634c.045 2.642 1.732 3.73 3.686 3.73 1.398 0 2.242-.244 2.975-.555l.334 1.398c-.69.31-1.866.666-3.575.666-3.31 0-5.285-2.176-5.285-5.417 0-3.24 1.91-5.794 5.04-5.794 3.51 0 4.44 3.086 4.44 5.062 0 .4-.045.71-.066.91h-7.55zm5.728-1.4c.02-1.243-.512-3.174-2.71-3.174-1.976 0-2.84 1.82-2.997 3.175h5.707zM229.654 11.258a50.42 50.42 0 0 0-.09-3.353h1.71l.065 2.11h.09c.487-1.444 1.663-2.355 2.974-2.355.223 0 .377.022.555.066V9.57a2.946 2.946 0 0 0-.667-.067c-1.375 0-2.354 1.043-2.62 2.51a5.42 5.42 0 0 0-.09.91v5.727h-1.93v-7.392zM239.533 4.82v3.086h2.797v1.488h-2.797v5.794c0 1.332.377 2.087 1.465 2.087.512 0 .89-.066 1.133-.133l.09 1.465c-.378.155-.978.267-1.73.267-.91 0-1.644-.29-2.11-.822-.555-.577-.756-1.532-.756-2.797v-5.86h-1.664v-1.49h1.664V5.332l1.91-.51z"/></g><g fill="#8F3F4F"><path d="M162.034 25.09v12.99c0 .954.022 2.042.09 2.774h-1.755l-.09-1.865h-.044c-.6 1.198-1.91 2.108-3.663 2.108-2.598 0-4.596-2.198-4.596-5.46-.022-3.576 2.198-5.773 4.818-5.773 1.643 0 2.753.777 3.24 1.643h.045V25.09h1.954zm-1.953 9.392c0-.244-.02-.577-.088-.82-.29-1.244-1.354-2.266-2.82-2.266-2.02 0-3.218 1.776-3.218 4.152 0 2.176 1.065 3.974 3.175 3.974 1.31 0 2.508-.866 2.863-2.33.066-.268.09-.534.09-.845v-1.865zM174.732 37.924c0 1.11.02 2.087.088 2.93h-1.73l-.11-1.753h-.046a4.042 4.042 0 0 1-3.552 2c-1.688 0-3.708-.934-3.708-4.708V30.11h1.954v5.95c0 2.04.622 3.418 2.398 3.418 1.31 0 2.22-.91 2.576-1.776.11-.29.178-.644.178-1V30.11h1.953v7.814zM178.44 33.46c0-1.265-.022-2.353-.09-3.352h1.71l.066 2.11h.088c.49-1.444 1.666-2.355 2.977-2.355.222 0 .378.022.556.066v1.842c-.2-.044-.4-.066-.666-.066-1.377 0-2.354 1.043-2.62 2.51a5.652 5.652 0 0 0-.09.91v5.727h-1.93V33.46zM193.824 40.455c-.51.266-1.643.622-3.086.622-3.24 0-5.35-2.198-5.35-5.484 0-3.308 2.264-5.706 5.77-5.706 1.155 0 2.177.29 2.71.555l-.443 1.51c-.467-.267-1.2-.51-2.266-.51-2.466 0-3.798 1.82-3.798 4.062 0 2.487 1.6 4.02 3.73 4.02 1.11 0 1.844-.29 2.398-.534l.334 1.465zM196.576 25.09h1.953v6.706h.044c.31-.555.8-1.043 1.398-1.376a4.025 4.025 0 0 1 1.998-.555c1.443 0 3.752.888 3.752 4.596v6.395h-1.953v-6.172c0-1.732-.646-3.197-2.487-3.197-1.266 0-2.266.888-2.62 1.954-.11.267-.134.555-.134.933v6.483h-1.954V25.09z"/></g><g fill="#8F3F4F"><path d="M224.457 25.09v12.99c0 .954.02 2.042.088 2.774h-1.754l-.087-1.865h-.045c-.6 1.198-1.91 2.108-3.664 2.108-2.598 0-4.596-2.198-4.596-5.46-.02-3.576 2.2-5.773 4.818-5.773 1.643 0 2.752.777 3.24 1.643h.045V25.09h1.957zm-1.955 9.392c0-.244-.02-.577-.088-.82-.29-1.244-1.355-2.266-2.82-2.266-2.02 0-3.22 1.776-3.22 4.152 0 2.176 1.067 3.974 3.175 3.974 1.31 0 2.51-.866 2.864-2.33.066-.268.088-.534.088-.845v-1.865zM230.34 27.09c.02.665-.467 1.198-1.244 1.198-.688 0-1.176-.533-1.176-1.2 0-.687.51-1.22 1.22-1.22.733 0 1.2.533 1.2 1.22zm-2.176 13.764V30.11h1.953v10.745h-1.953zM234.912 35.837c.043 2.642 1.73 3.73 3.684 3.73 1.4 0 2.244-.244 2.977-.555l.332 1.4c-.688.31-1.865.665-3.574.665-3.308 0-5.282-2.176-5.282-5.417 0-3.24 1.908-5.794 5.04-5.794 3.507 0 4.438 3.086 4.438 5.062 0 .4-.043.71-.066.91h-7.548zm5.727-1.4c.022-1.243-.51-3.174-2.71-3.174-1.975 0-2.842 1.82-2.996 3.175h5.705z"/></g></svg>