<?xml version="1.0" encoding="UTF-8" standalone="no"?>
<!DOCTYPE svg PUBLIC "-//W3C//DTD SVG 1.0//EN" "http://www.w3.org/TR/2001/REC-SVG-20010904/DTD/svg10.dtd">
<!-- Created with Inkscape (http://www.inkscape.org/) -->
<svg xmlns:svg="http://www.w3.org/2000/svg" xmlns="http://www.w3.org/2000/svg" version="1.0" width="800" height="250" id="svg2535">
  <defs id="defs2537"/>
  <g transform="translate(227.737,-179.32222)" id="layer1">
    <path d="M -43.259941,285.83799 C -43.259941,296.86922 -38.412275,308.52836 -24.598493,308.52836 C -12.220747,308.52836 -7.1739943,296.86922 -7.1739943,285.83799 C -7.1739943,274.80675 -12.220747,263.14645 -24.598493,263.14645 C -38.412275,263.14645 -43.259941,274.80675 -43.259941,285.83799 z" id="path12" style="fill:#a72546"/>
    <path d="M -43.25131,285.85662 C -43.25131,296.87857 -38.404479,308.53678 -24.588603,308.53678 C -12.192512,308.53678 -7.1400555,296.87857 -7.1400555,285.85662 C -7.1400555,274.8249 -12.192512,263.16668 -24.588603,263.16668 C -38.404479,263.16668 -43.25131,274.8249 -43.25131,285.85662" id="path2480" style="fill:#a72546;fill-opacity:1;fill-rule:nonzero;stroke:none"/>
    <path d="M -62.295861,285.85662 C -62.295861,296.87857 -67.367893,308.53678 -79.734638,308.53678 C -93.570092,308.53678 -98.407116,296.87857 -98.407116,285.85662 C -98.407116,273.79708 -94.07926,263.16668 -79.734638,263.16668 C -67.367893,263.16668 -62.295861,274.8249 -62.295861,285.85662 z M -105.10455,323.46438 L -98.622544,323.47418 L -98.602938,302.36996 L -98.397312,302.36996 C -95.616527,309.99528 -87.861627,314.01839 -79.920669,314.01839 C -63.754818,314.01839 -56.029285,300.91149 -56.029285,285.85662 C -56.029285,270.80177 -63.754818,257.71444 -79.920669,257.71444 C -88.498062,257.71444 -95.920068,262.14867 -98.896686,269.36287 L -99.121889,269.36287 L -99.121889,259.25124 L -105.10455,259.25124 L -105.10455,323.46438 z M -118.28396,285.85662 C -118.28396,296.87857 -123.35598,308.53678 -135.71291,308.53678 C -149.53858,308.53678 -154.38541,296.87857 -154.38541,285.85662 C -154.38541,274.8249 -149.53858,263.16668 -135.71291,263.16668 C -123.35598,263.16668 -118.28396,274.8249 -118.28396,285.85662 z M -160.45618,312.44243 L -154.48332,312.44243 L -154.48332,302.36996 L -154.26792,302.36996 C -151.27171,309.58416 -143.84969,314.01839 -135.2821,314.01839 C -119.09665,314.01839 -111.36132,300.91149 -111.36132,285.85662 C -111.36132,270.80177 -119.09665,257.71444 -135.2821,257.71444 C -143.22304,257.71444 -150.96816,261.72776 -153.73918,269.36287 L -153.96438,269.36287 L -153.96438,249.26687 L -160.45618,249.26687 L -160.45618,312.44243 z M -24.588603,314.01839 C -33.166025,314.01839 -40.588005,309.58416 -43.554849,302.36996 L -43.77025,302.36996 L -43.77025,312.44243 L -49.772488,312.44243 L -49.772488,249.26687 L -43.25131,249.26687 L -43.25131,269.36287 L -43.026105,269.36287 C -40.29426,261.72776 -32.549136,257.71444 -24.588603,257.71444 C -19.918039,257.71444 -15.962253,258.82054 -12.691888,260.71953 C -29.200433,226.31264 -64.391272,202.55573 -105.11432,202.55573 C -161.6801,202.55573 -207.53395,248.39569 -207.53395,304.93457 C -207.53395,361.50285 -161.6801,407.34281 -105.11432,407.34281 C -48.548533,407.34281 -2.7044918,361.50285 -2.7044918,304.93457 C -2.7044918,302.89855 -2.7730312,300.86253 -2.8709501,298.85587 C -6.1805068,307.71455 -13.357719,314.01839 -24.588603,314.01839" id="path2482" style="fill:#a72546;fill-opacity:1;fill-rule:evenodd;stroke:none"/>
    <path d="M 338.79049,325.57889 L 338.79049,328.91559 L 341.5181,328.91559 L 341.5181,325.57889 L 338.79049,325.57889 z M 356.62593,325.57889 L 356.62593,328.91559 L 359.35356,328.91559 L 359.35356,325.57889 L 356.62593,325.57889 z M 397.79174,325.57889 L 397.79174,348.48557 L 400.50613,348.48557 L 400.50613,339.11104 C 400.50613,336.13883 402.10435,333.92063 405.40525,333.92063 C 407.49035,333.92062 408.78164,335.24285 408.78164,337.25732 L 408.78164,348.48557 L 411.50926,348.48557 L 411.50926,337.5751 C 411.50926,334.01385 410.16124,331.52404 405.80247,331.52404 C 403.80803,331.52404 401.4738,332.34873 400.58558,334.34433 L 400.50613,334.34433 L 400.50613,325.57889 L 397.79174,325.57889 z M 443.41971,325.57889 L 443.41971,348.48557 L 454.48907,348.48557 C 459.04812,348.48557 461.44054,345.27646 461.44054,341.90486 C 461.4405,339.09286 459.91752,336.95243 457.08428,336.38343 L 457.08428,336.31722 C 459.19892,335.45963 460.4872,333.63747 460.4872,331.19301 C 460.4872,328.95943 459.30604,327.32398 457.79928,326.4263 C 456.41393,325.58872 453.75886,325.57889 451.73497,325.57889 L 443.41971,325.57889 z M 465.41279,325.57889 L 465.41279,328.91559 L 468.15363,328.91559 L 468.15363,325.57889 L 465.41279,325.57889 z M 491.85472,325.57889 L 491.85472,334.11925 L 491.78853,334.11925 C 490.58225,332.15426 488.14766,331.52404 486.45245,331.52404 C 481.39627,331.52404 478.89194,335.4564 478.89194,340.14383 C 478.89194,344.82186 481.39597,348.86956 486.4922,348.86956 C 488.7764,348.86956 490.89087,348.0606 491.78853,346.23462 L 491.85472,346.23462 L 491.85472,348.48557 L 494.58234,348.48557 L 494.58234,325.57889 L 491.85472,325.57889 z M 331.36238,325.59213 L 331.36238,348.48557 L 334.07674,348.48557 L 334.07674,325.59213 L 331.36238,325.59213 z M 472.8409,325.59213 L 472.8409,348.48557 L 475.56847,348.48557 L 475.56847,325.59213 L 472.8409,325.59213 z M 347.13222,326.92946 L 347.13222,331.89478 L 344.31194,331.89478 L 344.31194,334.31786 L 347.13222,334.31786 L 347.13222,344.87081 C 347.13222,347.91254 348.24217,348.48557 351.06478,348.48557 L 353.14357,348.48557 L 353.14357,346.07573 L 351.89893,346.07573 C 350.21317,346.07573 349.84662,345.85235 349.84662,344.606 L 349.84662,334.31786 L 353.14357,334.31786 L 353.14357,331.89478 L 349.84662,331.89478 L 349.84662,326.92946 L 347.13222,326.92946 z M 446.46512,328.14762 L 452.58239,328.14762 C 455.19649,328.14762 457.4418,328.60049 457.4418,331.76237 C 457.4418,334.1762 456.03408,335.43009 452.58239,335.43009 L 446.46512,335.43009 L 446.46512,328.14762 z M 301.66314,331.52404 C 299.37891,331.52404 297.26447,332.32357 296.36679,334.15897 L 296.31383,334.15897 L 296.31383,331.89478 L 293.58622,331.89478 L 293.58622,354.82794 L 296.31383,354.82794 L 296.31383,346.27435 L 296.36679,346.27435 C 297.59432,348.22874 300.03413,348.86956 301.72934,348.86956 C 306.80674,348.86956 309.30311,344.91452 309.30311,340.23652 C 309.30311,335.55965 306.76055,331.52404 301.66314,331.52404 z M 319.15432,331.52404 C 314.21165,331.75267 311.59378,335.49743 311.59378,340.22327 C 311.59378,345.04976 314.38778,348.86956 319.64421,348.86956 C 324.91127,348.86956 327.69465,345.04976 327.69465,340.22327 C 327.69465,335.34499 324.91127,331.52404 319.64421,331.52404 C 319.47994,331.52404 319.31376,331.51666 319.15432,331.52404 z M 369.37686,331.52404 C 366.5048,331.52404 363.1934,332.89303 363.1934,336.22454 C 363.1934,339.39584 365.91208,340.31336 368.59567,340.9118 C 371.32871,341.53029 374.03764,341.87291 374.03764,343.99692 C 374.03764,346.07262 371.7247,346.47296 370.03891,346.47296 C 367.7747,346.47296 365.65302,345.68661 365.56349,343.24219 L 362.83588,343.24219 C 363.00552,347.35238 366.13325,348.86956 369.85353,348.86956 C 373.22509,348.86956 376.92414,347.59206 376.92414,343.65265 C 376.92419,340.45073 374.22848,339.53472 371.49539,338.92567 C 368.97205,338.3178 366.0799,337.99475 366.0799,336.03916 C 366.0799,334.37342 367.96684,333.92063 369.60198,333.92063 C 371.39731,333.92062 373.25213,334.58661 373.44182,336.70121 L 376.18265,336.70121 C 375.96238,332.67228 373.02765,331.52404 369.37686,331.52404 z M 387.17257,331.52404 C 381.90673,331.52404 379.34724,335.42876 379.34724,340.39541 C 379.34724,345.34203 382.03016,348.86956 387.10639,348.86956 C 391.2755,348.86956 393.81012,346.4702 394.42855,342.42126 L 391.63476,342.42126 C 391.28486,344.91399 389.6996,346.47296 387.06665,346.47296 C 383.60555,346.47296 382.22049,343.44773 382.22049,340.39541 C 382.22049,337.03444 383.46771,333.92063 387.39768,333.92063 C 389.65245,333.92062 391.07352,335.14568 391.50235,337.23084 L 394.32263,337.23084 C 393.94328,333.29028 390.9223,331.52404 387.17257,331.52404 z M 422.38002,331.52404 C 418.08028,331.74281 415.01811,335.32213 415.01811,340.14383 C 415.16771,345.20121 417.67551,348.86956 422.96261,348.86956 C 426.6829,348.86956 429.30785,346.87974 430.04645,343.22895 L 427.35858,343.22895 C 426.86967,345.37417 425.30331,346.47296 423.06854,346.47296 C 419.43894,346.47296 417.80444,343.90722 417.90461,341.00448 L 430.31127,341.00448 C 430.47147,337.00503 428.67864,331.52404 422.80372,331.52404 C 422.66251,331.52404 422.5187,331.51698 422.38002,331.52404 z M 525.24819,331.52404 C 522.88501,331.52404 521.01719,332.47401 519.85914,334.52971 L 519.79297,334.52971 L 519.79297,331.89478 L 517.22419,331.89478 L 517.22419,348.48557 L 519.96507,348.48557 L 519.96507,339.11104 C 519.96507,336.13883 521.57533,333.92063 524.87745,333.92063 C 526.96137,333.92062 528.22737,335.24285 528.22737,337.25732 L 528.22737,348.48557 L 530.95498,348.48557 L 530.95498,337.5751 C 530.95502,334.01385 529.61755,331.52404 525.24819,331.52404 z M 542.14357,331.52404 C 536.40759,331.52404 534.46383,336.35688 534.46383,340.27624 C 534.46379,344.78462 536.94151,348.67094 541.87876,348.67094 C 543.96385,348.67093 546.14497,347.68091 547.04264,345.66526 L 547.10887,345.66526 L 547.10887,346.76425 C 547.10887,350.46449 545.7036,353.02718 542.14357,353.02718 C 540.34819,353.02718 537.96044,352.33489 537.84027,350.33929 L 535.11261,350.33929 C 535.28103,353.96062 538.87226,355.21193 541.98468,355.21193 C 547.22107,355.21192 549.66437,352.45484 549.66437,347.0688 L 549.66437,331.89478 L 547.10887,331.89478 L 547.10887,334.26489 L 547.08239,334.26489 C 546.09401,332.44009 544.22749,331.52404 542.14357,331.52404 z M 338.79049,331.89478 L 338.79049,348.48557 L 341.5181,348.48557 L 341.5181,331.89478 L 338.79049,331.89478 z M 356.62593,331.89478 L 356.62593,348.48557 L 359.35356,348.48557 L 359.35356,331.89478 L 356.62593,331.89478 z M 465.41279,331.89478 L 465.41279,348.48557 L 468.14042,348.48557 L 468.14042,331.89478 L 465.41279,331.89478 z M 499.11071,331.89478 L 499.11071,342.80524 C 499.11071,346.35585 500.45496,348.86956 504.80432,348.86956 C 507.18751,348.86956 509.06033,347.90517 510.20659,345.85064 L 510.25955,345.85064 L 510.25955,348.48557 L 512.82824,348.48557 L 512.82824,331.89478 L 510.11388,331.89478 L 510.11388,341.2693 C 510.11388,344.24153 508.48917,346.47296 505.18828,346.47296 C 503.10317,346.47296 501.83836,345.14809 501.83836,343.12302 L 501.83836,331.89478 L 499.11071,331.89478 z M 301.27915,333.92063 C 304.80975,333.92062 306.40337,336.92931 306.40337,340.05114 C 306.40337,343.28255 305.1595,346.47296 301.43804,346.47296 C 297.68832,346.47296 296.2079,343.44558 296.2079,340.18355 C 296.20791,337.06176 297.62839,333.92063 301.27915,333.92063 z M 319.64421,333.92063 C 322.48686,333.92062 324.79493,336.16376 324.79493,340.22327 C 324.79488,344.23219 322.48686,346.47296 319.64421,346.47296 C 316.7922,346.47296 314.48028,344.23219 314.48028,340.22327 C 314.48028,336.16376 316.79215,333.92063 319.64421,333.92063 z M 422.64483,333.92063 C 425.33783,333.92062 427.28194,336.01502 427.41154,338.60789 L 417.90461,338.60789 C 418.08367,336.06448 419.78219,333.92063 422.64483,333.92063 z M 486.73053,333.92063 C 490.49085,333.92062 491.96064,336.94124 491.96064,340.22327 C 491.96064,343.33452 490.56288,346.47296 486.90264,346.47296 C 483.37205,346.47296 481.76519,343.45485 481.76519,340.34244 C 481.76519,337.10166 483.02084,333.92063 486.73053,333.92063 z M 542.26271,333.92063 C 545.70381,333.92062 546.98968,336.92979 546.98968,339.85253 C 546.98972,342.96378 545.63771,346.27435 542.03765,346.27435 C 538.45639,346.27435 537.3636,342.94129 537.3636,339.95846 C 537.3636,336.77773 538.77218,333.92063 542.26271,333.92063 z M 446.46512,337.99881 L 453.44307,337.99881 C 456.00649,337.99881 458.40837,338.83997 458.40837,341.81218 C 458.40837,344.31553 456.74188,345.91684 454.11833,345.91684 L 446.46512,345.91684 L 446.46512,337.99881 z" id="path16" style="fill:#a72546;fill-opacity:1"/>
    <path d="M 252.41359,325.29845 C 249.42136,325.29845 247.80577,326.69686 247.80577,329.38988 L 247.80577,331.86592 L 245.02523,331.86592 L 245.02523,334.27575 L 247.80577,334.27575 L 247.80577,348.44346 L 250.54665,348.44346 L 250.54665,334.27575 L 253.75093,334.27575 L 253.75093,331.86592 L 250.54665,331.86592 L 250.54665,329.562 C 250.54665,328.12595 251.30576,327.69505 252.61223,327.69505 C 253.10113,327.69505 253.67637,327.76373 254.17464,327.93338 L 254.17464,325.55003 C 253.66573,325.39099 252.92136,325.29845 252.41359,325.29845 z M 10.926908,325.55003 L 10.926908,348.44346 L 21.996263,348.44346 C 26.554121,348.44346 28.947711,345.2464 28.947711,341.876 C 28.947707,339.06279 27.414069,336.93417 24.59147,336.35457 L 24.59147,336.3016 C 26.715481,335.42394 27.981129,333.61803 27.981129,331.16415 C 27.98112,328.91998 26.802599,327.28187 25.306476,326.3842 C 23.930521,325.55603 21.267228,325.55003 19.242165,325.55003 L 10.926908,325.55003 z M 80.785656,325.55003 L 80.785656,334.07714 L 80.732693,334.07714 C 79.506343,332.12275 77.062718,331.49517 75.356906,331.49517 C 70.290129,331.49517 67.796378,335.41808 67.796378,340.11497 C 67.796369,344.793 70.349541,348.82745 75.436351,348.82745 C 77.70999,348.82745 79.835022,348.04116 80.732693,346.20576 L 80.785656,346.20576 L 80.785656,348.44346 L 83.526513,348.44346 L 83.526513,325.55003 L 80.785656,325.55003 z M 212.34679,325.55003 L 212.34679,348.44346 L 215.08764,348.44346 L 215.08764,325.55003 L 212.34679,325.55003 z M 258.90165,326.13262 L 258.90165,329.46932 L 261.78811,329.46932 L 261.78811,326.13262 L 258.90165,326.13262 z M 264.93948,326.13262 L 264.93948,329.46932 L 267.82594,329.46932 L 267.82594,326.13262 L 264.93948,326.13262 z M 174.33229,326.9006 L 174.33229,331.86592 L 171.51199,331.86592 L 171.51199,334.27575 L 174.33229,334.27575 L 174.33229,344.82871 C 174.33229,347.86101 175.45282,348.44346 178.26482,348.44346 L 180.34364,348.44346 L 180.34364,346.03363 L 179.11224,346.03363 C 177.40645,346.03364 177.05991,345.81028 177.05991,344.56389 L 177.05991,334.27575 L 180.34364,334.27575 L 180.34364,331.86592 L 177.05991,331.86592 L 177.05991,326.9006 L 174.33229,326.9006 z M 13.985545,328.13199 L 20.063097,328.13199 C 22.696037,328.13199 24.948973,328.5622 24.948973,331.7335 C 24.948982,334.13791 23.534803,335.38798 20.063097,335.38798 L 13.985545,335.38798 L 13.985545,328.13199 z M 192.08828,331.48193 C 189.44171,331.55274 187.76187,332.86882 186.52712,335.37474 L 186.46091,335.37474 L 186.46091,331.86592 L 183.90543,331.86592 L 183.90543,348.44346 L 186.6198,348.44346 L 186.6198,341.06831 C 186.61979,336.85914 188.22289,334.36843 192.63116,334.36843 L 192.63116,331.49517 C 192.44597,331.48891 192.26472,331.47721 192.08828,331.48193 z M 282.72192,331.48193 C 280.09083,331.55274 278.39549,332.86882 277.16076,335.37474 L 277.1078,335.37474 L 277.1078,331.86592 L 274.53908,331.86592 L 274.53908,348.44346 L 277.27996,348.44346 L 277.27996,341.06831 C 277.27996,336.85914 278.87657,334.36843 283.26482,334.36843 L 283.26482,331.49517 C 283.08089,331.48891 282.89734,331.47721 282.72192,331.48193 z M 58.143795,331.49517 C 55.985523,331.60792 54.267424,332.57473 53.191715,334.50085 L 53.138752,334.50085 L 53.138752,331.86592 L 50.570026,331.86592 L 50.570026,348.44346 L 53.297642,348.44346 L 53.297642,339.08218 C 53.297638,336.10997 54.89587,333.89176 58.196758,333.89176 C 60.281903,333.89177 61.573176,335.20342 61.573176,337.22846 L 61.573176,348.44346 L 64.300792,348.44346 L 64.300792,337.54624 C 64.30078,333.98498 62.939518,331.49517 58.580744,331.49517 C 58.432971,331.49517 58.287682,331.48765 58.143795,331.49517 z M 94.50318,331.49517 C 90.195363,331.71401 87.128026,335.29439 87.128026,340.11497 C 87.287077,345.18293 89.786642,348.82745 95.072542,348.82745 C 98.793997,348.82745 101.42836,346.84323 102.15639,343.17361 L 99.455263,343.17361 C 98.975793,345.32708 97.399987,346.41761 95.165224,346.41761 C 91.545091,346.41761 89.9144,343.85712 90.014529,340.97562 L 102.40797,340.97562 C 102.5776,336.97496 100.79239,331.49517 94.926889,331.49517 C 94.785412,331.49517 94.642146,331.48812 94.50318,331.49517 z M 111.02776,331.49517 C 108.14509,331.49517 104.84428,332.86416 104.84428,336.19568 C 104.84428,339.37759 107.57738,340.26064 110.2598,340.86969 C 112.99286,341.48818 115.68855,341.84022 115.68855,343.95481 C 115.68855,346.02936 113.37296,346.41761 111.67657,346.41761 C 109.4324,346.41761 107.30511,345.65659 107.2144,343.21333 L 104.48678,343.21333 C 104.64582,347.32235 107.79623,348.82745 111.51768,348.82745 C 114.88808,348.82745 118.56181,347.54995 118.56181,343.61055 C 118.56181,340.3992 115.86877,339.50205 113.1463,338.88357 C 110.62292,338.26509 107.7308,337.95527 107.7308,336.0103 C 107.73079,334.33515 109.6404,333.89176 111.2661,333.89176 C 113.05085,333.89177 114.9201,334.55775 115.11919,336.67235 L 117.83357,336.67235 C 117.61445,332.63282 114.68797,331.49517 111.02776,331.49517 z M 144.07694,331.49517 C 139.77663,331.71401 136.70179,335.29439 136.70179,340.11497 C 136.87141,345.18293 139.36303,348.82745 144.65954,348.82745 C 148.36921,348.82745 151.01536,346.84323 151.74339,343.17361 L 149.04226,343.17361 C 148.57341,345.32708 146.9858,346.41761 144.75222,346.41761 C 141.13208,346.41761 139.48934,343.85712 139.58829,340.97562 L 152.00821,340.97562 C 152.16842,336.97496 150.37557,331.49517 144.50065,331.49517 C 144.35943,331.49517 144.21566,331.48812 144.07694,331.49517 z M 162.72006,331.49517 C 160.55507,331.60792 158.84368,332.57473 157.76798,334.50085 L 157.71502,334.50085 L 157.71502,331.86592 L 155.13305,331.86592 L 155.13305,348.44346 L 157.87391,348.44346 L 157.87391,339.08218 C 157.87391,336.10997 159.46535,333.89176 162.78627,333.89176 C 164.86082,333.89177 166.1362,335.20342 166.1362,337.22846 L 166.1362,348.44346 L 168.86382,348.44346 L 168.86382,337.54624 C 168.86383,333.98498 167.51579,331.49517 163.15701,331.49517 C 163.00865,331.49517 162.8644,331.48765 162.72006,331.49517 z M 201.42308,331.49517 C 197.73228,331.49517 194.55502,332.92082 194.40543,337.02985 L 197.13304,337.02985 C 197.26263,334.58656 198.96255,333.89176 201.27743,333.89176 C 202.99264,333.89177 204.95838,334.27209 204.95838,336.64586 C 204.95839,338.70037 202.39363,338.50375 199.37075,339.08218 C 196.55878,339.63115 193.76987,340.43018 193.76987,344.17991 C 193.76987,347.49141 196.2367,348.82745 199.23834,348.82745 C 201.55321,348.82745 203.58789,348.03785 205.10404,346.27196 C 205.10405,348.0673 205.9775,348.82745 207.3947,348.82745 C 208.27235,348.82745 208.86283,348.68029 209.34111,348.3905 L 209.34111,346.27196 C 208.9924,346.40154 208.74048,346.41761 208.52018,346.41761 C 207.64256,346.41761 207.64628,345.85033 207.64628,344.56389 L 207.64628,336.03679 C 207.64628,332.15631 204.40471,331.49517 201.42308,331.49517 z M 226.09077,331.49517 C 221.79954,331.71401 218.72886,335.29439 218.72886,340.11497 C 218.88791,345.18293 221.3863,348.82745 226.67337,348.82745 C 230.39365,348.82745 233.01979,346.84323 233.75725,343.17361 L 231.05612,343.17361 C 230.58724,345.32708 229.02088,346.41761 226.76608,346.41761 C 223.12588,346.41761 221.50198,343.85712 221.60214,340.97562 L 234.02207,340.97562 C 234.17163,336.97496 232.38003,331.49517 226.51448,331.49517 C 226.3736,331.49517 226.22924,331.48812 226.09077,331.49517 z M 32.430056,331.86592 L 32.430056,342.77638 C 32.430047,346.33641 33.778089,348.82745 38.136864,348.82745 C 40.521222,348.82745 42.369048,347.86306 43.525892,345.80854 L 43.592096,345.80854 L 43.592096,348.44346 L 46.147581,348.44346 L 46.147581,331.86592 L 43.446447,331.86592 L 43.446447,341.2272 C 43.446443,344.21942 41.832342,346.41761 38.520849,346.41761 C 36.44631,346.41761 35.157672,345.11803 35.157672,343.09416 L 35.157672,331.86592 L 32.430056,331.86592 z M 121.1835,331.86592 L 121.1835,334.27575 L 130.55803,334.27575 L 120.56118,346.36465 L 120.56118,348.44346 L 134.54352,348.44346 L 134.54352,346.03363 L 123.95084,346.03363 L 134.08009,333.73287 L 134.08009,331.86592 L 121.1835,331.86592 z M 256.50503,331.86592 L 256.50503,342.77638 C 256.50499,346.33641 257.85306,348.82745 262.21182,348.82745 C 264.59505,348.82745 266.44402,347.86306 267.60087,345.80854 L 267.66705,345.80854 L 267.66705,348.44346 L 270.23582,348.44346 L 270.23582,331.86592 L 267.50816,331.86592 L 267.50816,341.2272 C 267.50816,344.21942 265.88727,346.41761 262.59583,346.41761 C 260.5119,346.41761 259.23265,345.11803 259.23265,343.09416 L 259.23265,331.86592 L 256.50503,331.86592 z M 75.661445,333.89176 C 79.401735,333.89177 80.878342,336.90972 80.878342,340.18117 C 80.878342,343.29358 79.468464,346.41761 75.807095,346.41761 C 72.287087,346.41761 70.669644,343.40216 70.669644,340.30034 C 70.669639,337.04894 71.941172,333.89176 75.661445,333.89176 z M 94.768,333.89176 C 97.451581,333.89177 99.414549,335.97292 99.534708,338.56579 L 90.014529,338.56579 C 90.193593,336.03297 91.905344,333.89176 94.768,333.89176 z M 144.34176,333.89176 C 147.03478,333.89177 148.98269,335.97292 149.12171,338.56579 L 139.58829,338.56579 C 139.77795,336.03297 141.4897,333.89176 144.34176,333.89176 z M 226.35559,333.89176 C 229.03918,333.89177 231.00598,335.97292 231.13556,338.56579 L 221.60214,338.56579 C 221.80124,336.03297 223.48353,333.89176 226.35559,333.89176 z M 13.985545,337.9567 L 20.936994,337.9567 C 23.509842,337.9567 25.915555,338.80168 25.915555,341.78331 C 25.915555,344.27724 24.246394,345.88798 21.612277,345.88798 L 13.985545,345.88798 L 13.985545,337.9567 z M 204.91866,339.87663 L 204.91866,342.68369 C 204.91868,344.1798 203.45135,346.41761 199.86066,346.41761 C 198.18547,346.41761 196.65637,345.78607 196.65637,343.98129 C 196.65636,341.96565 198.18447,341.32135 199.97983,341.00211 C 201.80465,340.68286 203.87141,340.65531 204.91866,339.87663 z" id="path50" style="fill:#a72546"/>
    <polygon points="124.49,84.0802 125.428,84.0802 125.428,83.143 124.49,83.143 124.49,84.0802 " transform="matrix(11.780475,0,0,11.780475,-1455.7741,-716.34699)" id="polygon84" style="fill:#a72546;fill-rule:nonzero"/>
    <polygon points="124.49,87.3289 125.428,87.3289 125.428,86.391 124.49,86.391 124.49,87.3289 " transform="matrix(11.780475,0,0,11.780475,-1455.7741,-716.34699)" id="polygon86" style="fill:#a72546;fill-rule:nonzero"/>
  </g>
</svg>