<svg xmlns="http://www.w3.org/2000/svg" xmlns:xlink="http://www.w3.org/1999/xlink" viewBox="0 0 1280 800"><style>.st0{fill:#03a678}.st1{clip-path:url(#XMLID_28_)}.st2{fill:none;stroke:#6C9;stroke-miterlimit:10}.st2,.st3{stroke-width:4.3802}.st3{stroke-dasharray:10.0632,10.0632}.st3,.st4{fill:none;stroke:#6C9;stroke-miterlimit:10}.st4{stroke-dasharray:9.9725,9.9725}.st4,.st5{stroke-width:4.3802}.st5{stroke-dasharray:10}.st5,.st6{fill:none;stroke:#6C9;stroke-miterlimit:10}.st6{stroke-width:5}.st7{fill:#6C9}.st8{fill:none;stroke:#6C9;stroke-miterlimit:10}.st8,.st9{stroke-width:5;stroke-linecap:round}.st9{stroke-linejoin:bevel}.st9,.st10{fill:none;stroke:#6C9;stroke-miterlimit:10}.st10{stroke-width:4.3802;stroke-dasharray:10.4175,10.4175}</style><g id="Ebene_2"><path id="XMLID_857_" class="st0" d="M1279.6 800.7L-.9 799.3.4-.7 1280.9.7z"/></g><g id="Ebene_1"><g id="XMLID_26_"><defs><path id="XMLID_25_" d="M0 0h1280v800H0z"/></defs><clipPath id="XMLID_28_"><use xlink:href="#XMLID_25_" overflow="visible"/></clipPath><g id="XMLID_24_" class="st1"><path id="XMLID_4094_" class="st2" d="M292.4 199.1l-32 3 15.3 29.4z"/><g id="XMLID_4087_"><g id="XMLID_85_"><path id="XMLID_88_" class="st2" d="M189.5 518.4c-1.1-1.3-2.1-2.6-3.1-3.9"/><path id="XMLID_87_" class="st3" d="M180.3 506.4c-52.2-73.6-26.9-134.1-4.9-150 47-34 101 6.3 133-38 23.5-32.6 8.6-79.9-18.2-98.2"/><path id="XMLID_86_" class="st2" d="M286 217.6c-1.5-.8-3-1.5-4.5-2.1"/></g></g><path id="XMLID_4085_" class="st2" d="M984.4 56.1l-32 3 15.3 29.4z"/><g id="XMLID_4078_"><g id="XMLID_37_"><path id="XMLID_40_" class="st2" d="M881.5 375.4c-1.4-1-2.7-2-4-3"/><path id="XMLID_39_" class="st4" d="M869.8 366c-74.5-65-34.8-139.3-2.3-152.6 57.7-23.8 101 6.3 133-38 23.5-32.6 8.6-79.9-18.2-98.3"/><path id="XMLID_38_" class="st2" d="M978 74.6c-1.5-.8-3-1.5-4.5-2.1"/></g></g><path id="XMLID_4076_" class="st2" d="M1198.6 125.2l-31.6-5.5 7 32.3z"/><path id="XMLID_4074_" class="st5" d="M998.2 300.8c54.5 49 132.8 49.5 178 8.5 51.1-46.4 55.2-141.5 9.3-171"/><path id="XMLID_4072_" class="st2" d="M40.9 77.2l31.7-5.5-7 32.3z"/><path id="XMLID_4070_" class="st5" d="M241.3 252.8c-54.5 49-132.8 49.5-178 8.5-51.1-46.4-55.2-141.5-9.3-171"/><path id="XMLID_4068_" class="st2" d="M1218.1 54.6l18.9-26 17.5 28.1z"/><path id="XMLID_4066_" class="st5" d="M1484.3 41.6c-5.1 73.2-61 127.9-122 129.8-69 2.2-138-63.4-125.5-116.5"/><g id="XMLID_19_"><path id="XMLID_4064_" class="st5" d="M689.5 292.4c-75.1 54.9-138.4 31.4-168.6-15-36-55.4-.3-127.1 2.3-132.3"/><path id="XMLID_4063_" class="st2" d="M539 152.5l-4.5-31.8-28.6 16.6z"/></g><path id="XMLID_4054_" class="st6" d="M169.5 199.4l-37.2-27.1-37.8 27.1v-15.2l37.8-27.1 36.9 27.1z"/><path id="XMLID_4053_" class="st6" d="M157.3 191.2v30.2h-49v-30.2"/><path id="XMLID_4051_" class="st6" d="M1131.2 64.4l-37.1-27.1-37.6 27.1V49.1l37.6-27.1 36.9 27.1z"/><path id="XMLID_4050_" class="st6" d="M1118.9 56.2v30.1h-49V56.2"/><g id="XMLID_22_"><path id="XMLID_4048_" class="st6" d="M822.1 100l26.4 46.9"/><path id="XMLID_4047_" class="st6" d="M882.2 65.6l-60.8 33.6-15.7-28.4 60.8-33.7 23.1 4.3z"/></g><path id="XMLID_4045_" class="st5" d="M623.5 420.4c65 3.8 87.2-24.9 92.2-49 3.7-17.9-4.6-41.5 3-62.4 9.6-26.4 31.7-40.8 56.8-46.5"/><path id="XMLID_4044_" class="st2" d="M778.1 280.1l22.2-23.2-30.8-12.2z"/><g id="XMLID_149_"><path id="XMLID_4041_" class="st5" d="M423.3 201.4c-65 3.8-87.2-24.9-92.2-49-3.7-17.9 4.6-41.5-3-62.4-9.6-26.4-31.7-40.8-56.8-46.5"/><path id="XMLID_4040_" class="st2" d="M268.6 61.1l-22.1-23.2 30.7-12.2z"/></g><path id="XMLID_4037_" class="st5" d="M1350.3 522.4c-65 3.8-87.2-24.9-92.2-49-3.7-17.9 4.6-41.5-3-62.4-9.6-26.4-31.7-40.8-56.8-46.5"/><path id="XMLID_4036_" class="st2" d="M1195.6 382.1l-22.1-23.2 30.7-12.2z"/><path id="XMLID_4033_" class="st5" d="M-82.3 533c-9.1-64.5 17.7-88.9 41.4-95.9 17.6-5.2 41.8 1.2 62-8.1 25.5-11.7 38.1-34.9 41.8-60.4"/><path id="XMLID_4032_" class="st2" d="M44.9 367.4l21.4-24 14.6 29.7z"/><g id="XMLID_2_"><path id="XMLID_4029_" class="st6" d="M362.2 271.5h78.6c6.6 0 11.8 5.3 11.8 11.9v15.2c0 6.6-5.2 11.9-11.8 11.9h-19.4c-1.2 4 2.3 8 2.3 8s-12.3 3-13.4-8h-48c-6.6 0-12.7-5.3-12.7-11.9v-15.2c-.1-6.6 6-11.9 12.6-11.9z"/><path id="XMLID_64_" class="st7" d="M372.7 287.2l-3 9.6h-1.8l-1.7-6.8-1.7 6.8h-1.8l-3-9.6h2.1l1.8 7 1.7-7h1.9l1.7 7 1.8-7h2z"/><path id="XMLID_66_" class="st7" d="M382.4 292.6h-6.8c0 1.4.8 2.6 2.4 2.6 1 0 2-.6 2.5-1.6l1.7.7c-.9 1.8-2 2.7-4.2 2.7-3.2 0-4.5-2.7-4.5-4.9 0-2.3 1.3-4.9 4.5-4.9 3.1 0 4.4 2.5 4.4 4.6v.8zm-6.7-1.7h4.7c-.2-1.1-.9-2.1-2.3-2.1s-2.2.9-2.4 2.1z"/><path id="XMLID_69_" class="st7" d="M386.6 283.4v13.5h-2v-13.5h2z"/><path id="XMLID_71_" class="st7" d="M397.3 294.3c-.8 1.7-2.1 2.6-4.1 2.6-3 0-4.5-2.3-4.5-4.9 0-2.6 1.5-4.9 4.5-4.9 2 0 3.4.9 4.1 2.6l-1.8.8c-.5-1-1.2-1.7-2.4-1.7-1.7 0-2.4 1.4-2.4 3.2 0 1.8.7 3.2 2.4 3.2 1.1 0 1.9-.6 2.4-1.7l1.8.8z"/><path id="XMLID_73_" class="st7" d="M403.7 287.1c3 0 4.7 2.2 4.7 4.9s-1.8 4.9-4.7 4.9c-3 0-4.7-2.2-4.7-4.9-.1-2.7 1.7-4.9 4.7-4.9zm0 8.1c1.7 0 2.6-1.6 2.6-3.2s-.9-3.2-2.6-3.2c-1.7 0-2.6 1.6-2.6 3.2-.1 1.7.8 3.2 2.6 3.2z"/><path id="XMLID_76_" class="st7" d="M412.7 287.3v1.6c.8-1.2 1.7-1.8 2.9-1.8 1.3 0 2.4.8 2.6 2 .7-1.3 1.7-2 3-2 1.7 0 2.7 1.2 2.7 2.9v6.9h-2v-6.4c0-1-.6-1.6-1.4-1.6-1.2 0-2.2 1.5-2.2 4.1v3.8h-2v-6.4c0-1-.6-1.6-1.4-1.6-1.2 0-2.2 1.5-2.2 4.4v3.6h-2v-9.6l2 .1z"/><path id="XMLID_78_" class="st7" d="M435 292.6h-6.8c0 1.4.8 2.6 2.4 2.6 1 0 2-.6 2.5-1.6l1.7.7c-.9 1.8-2 2.7-4.2 2.7-3.2 0-4.5-2.7-4.5-4.9 0-2.3 1.3-4.9 4.5-4.9 3.1 0 4.4 2.5 4.4 4.6v.8zm-6.7-1.7h4.7c-.2-1.1-.9-2.1-2.3-2.1-1.4.1-2.2.9-2.4 2.1z"/><path id="XMLID_81_" class="st7" d="M439.2 294.1c.8 0 1.4.6 1.4 1.4 0 .8-.6 1.4-1.4 1.4s-1.4-.6-1.4-1.4c0-.8.6-1.4 1.4-1.4zm1.4-10.6l-.5 9.1h-1.7l-.5-9.1h2.7z"/></g><path id="XMLID_4011_" class="st5" d="M692.5 579.4c-75.1 54.9-138.4 31.4-168.6-15-36-55.4-.3-127.1 2.3-132.3"/><path id="XMLID_4010_" class="st2" d="M542 439.5l-4.5-31.8-28.6 16.6z"/><g id="XMLID_11_"><path id="XMLID_4008_" class="st6" d="M374.9 490.8l-37.4-27.2-38 27.2v-15.3l38-27.1 37.1 27.1z"/><path id="XMLID_4007_" class="st6" d="M362.8 482.5v30.2h-49v-30.2"/></g><path id="XMLID_4005_" class="st6" d="M113.2 539l-26.4 46.9"/><path id="XMLID_4004_" class="st6" d="M53.1 504.6l60.8 33.6 15.7-28.4-60.8-33.7-23.1 4.3z"/><path id="XMLID_4002_" class="st5" d="M862.7 555c-9.1-64.5 17.7-88.9 41.4-95.9 17.6-5.2 41.8 1.2 62-8.1 25.5-11.7 38.1-34.9 41.8-60.4"/><path id="XMLID_4001_" class="st2" d="M989.9 389.4l21.4-24 14.6 29.7z"/><g id="XMLID_145_"><path id="XMLID_3999_" class="st5" d="M576.7 237c-9.1-64.5 17.7-88.9 41.4-95.9 17.6-5.2 41.8 1.2 62-8.1 25.5-11.7 38.1-34.9 41.8-60.4"/><path id="XMLID_3998_" class="st2" d="M703.9 71.4l21.4-24 14.6 29.7z"/></g><g id="XMLID_151_"><path id="XMLID_3996_" class="st6" d="M627.7 25.5h-63.6c-6.6 0-12.7 5.3-12.7 11.9v15.2c0 6.6 6.1 11.9 12.7 11.9h4.4c1.2 4-2.3 8-2.3 8s12.3 3 13.4-8h48c6.6 0 11.8-5.3 11.8-11.9V37.4c.1-6.6-5.1-11.9-11.7-11.9z"/><path id="XMLID_3994_" class="st7" d="M569 42.5l-1.3 1.1c-.5-.6-1.1-.9-1.7-.9-.5 0-1 .3-1 1s.7 1 1.8 1.4c1.3.5 2.8 1.1 2.8 2.9 0 1.7-1.3 3.1-3.4 3.1-2 0-3.3-1.4-3.8-2.6l1.7-.9c.4.9 1.1 1.8 2.2 1.8.8 0 1.3-.4 1.3-1.3s-1.2-1.1-2.3-1.6c-1.1-.5-2.1-1.2-2.1-2.7 0-1.5 1.3-2.8 3-2.8 1 0 2.1.5 2.8 1.5z"/><path id="XMLID_3991_" class="st7" d="M575.3 44.9h1.7v-.4c0-1.2-.9-1.7-1.9-1.7-.8 0-1.5.4-1.8 1.3l-1.9-.4c.4-1.7 1.8-2.7 3.7-2.7 2.3 0 3.9 1 3.9 3.9V51h-1.7l-.2-1.3c-.6.9-1.7 1.4-3.1 1.4-1.6 0-3-.9-3-3 .1-2 1.8-3.2 4.3-3.2zm-.9 4.4c1.3 0 2.6-.8 2.6-2.5v-.2h-1.8c-1.3 0-2 .6-2 1.5 0 .7.4 1.2 1.2 1.2z"/><path id="XMLID_3989_" class="st7" d="M583.7 37.1V51h-2V37.1h2z"/><path id="XMLID_3986_" class="st7" d="M590.2 44.9h1.7v-.4c0-1.2-.9-1.7-1.9-1.7-.8 0-1.5.4-1.8 1.3l-1.9-.4c.4-1.7 1.8-2.7 3.7-2.7 2.3 0 3.9 1 3.9 3.9V51h-1.7l-.2-1.3c-.6.9-1.7 1.4-3.1 1.4-1.6 0-3-.9-3-3 .1-2 1.8-3.2 4.3-3.2zm-.8 4.4c1.3 0 2.6-.8 2.6-2.5v-.2h-1.8c-1.3 0-2 .6-2 1.5-.1.7.3 1.2 1.2 1.2z"/><path id="XMLID_3983_" class="st7" d="M600.2 44.9h1.7v-.4c0-1.2-.9-1.7-1.9-1.7-.8 0-1.5.4-1.8 1.3l-1.9-.4c.4-1.7 1.8-2.7 3.7-2.7 2.3 0 3.9 1 3.9 3.9V51h-1.7l-.2-1.3c-.6.9-1.7 1.4-3.1 1.4-1.6 0-3-.9-3-3 0-2 1.8-3.2 4.3-3.2zm-.9 4.4c1.3 0 2.6-.8 2.6-2.5v-.2h-1.8c-1.3 0-2 .6-2 1.5 0 .7.4 1.2 1.2 1.2z"/><path id="XMLID_3981_" class="st7" d="M608.5 41.1v1.7c.8-1.2 1.8-1.8 3-1.8 1.3 0 2.4.8 2.7 2 .7-1.3 1.8-2 3.1-2 1.8 0 2.8 1.2 2.8 3v7h-2v-6.6c0-1.1-.6-1.6-1.4-1.6-1.2 0-2.3 1.5-2.3 4.3v4h-2v-6.6c0-1.1-.6-1.6-1.4-1.6-1.2 0-2.3 1.5-2.3 4.5V51h-2v-9.9h1.8z"/><path id="XMLID_3978_" class="st7" d="M625.1 48.1c.9 0 1.5.6 1.5 1.5s-.6 1.5-1.5 1.5-1.5-.6-1.5-1.5.7-1.5 1.5-1.5zm1.4-10.8l-.5 9.4h-1.7l-.5-9.4h2.7z"/></g><g id="XMLID_132_"><path id="XMLID_3975_" class="st6" d="M1136.7 593.5h-63.6c-6.6 0-12.7 5.3-12.7 11.9v15.2c0 6.6 6.1 11.9 12.7 11.9h4.4c1.2 4-2.3 8-2.3 8s12.3 3 13.4-8h48c6.6 0 11.8-5.3 11.8-11.9v-15.2c.1-6.6-5.1-11.9-11.7-11.9z"/><path id="XMLID_3973_" class="st7" d="M1078 610.5l-1.3 1.1c-.5-.6-1.1-.9-1.7-.9-.5 0-1 .3-1 1s.7 1 1.8 1.4c1.3.5 2.8 1.1 2.8 2.9 0 1.7-1.3 3.1-3.4 3.1-2 0-3.3-1.4-3.8-2.6l1.7-.9c.4.9 1.1 1.8 2.2 1.8.8 0 1.3-.4 1.3-1.3s-1.2-1.1-2.3-1.6c-1.1-.5-2.1-1.2-2.1-2.7 0-1.5 1.3-2.8 3-2.8 1 0 2.1.5 2.8 1.5z"/><path id="XMLID_3970_" class="st7" d="M1084.3 612.9h1.7v-.4c0-1.2-.9-1.7-1.9-1.7-.8 0-1.5.4-1.8 1.3l-1.9-.4c.4-1.7 1.8-2.7 3.7-2.7 2.3 0 3.9 1 3.9 3.9v6.1h-1.7l-.2-1.3c-.6.9-1.7 1.4-3.1 1.4-1.6 0-3-.9-3-3 .1-2 1.8-3.2 4.3-3.2zm-.9 4.4c1.3 0 2.6-.8 2.6-2.5v-.2h-1.8c-1.3 0-2 .6-2 1.5 0 .7.4 1.2 1.2 1.2z"/><path id="XMLID_3968_" class="st7" d="M1092.7 605.1V619h-2v-13.9h2z"/><path id="XMLID_3965_" class="st7" d="M1099.2 612.9h1.7v-.4c0-1.2-.9-1.7-1.9-1.7-.8 0-1.5.4-1.8 1.3l-1.9-.4c.4-1.7 1.8-2.7 3.7-2.7 2.3 0 3.9 1 3.9 3.9v6.1h-1.7l-.2-1.3c-.6.9-1.7 1.4-3.1 1.4-1.6 0-3-.9-3-3 .1-2 1.8-3.2 4.3-3.2zm-.8 4.4c1.3 0 2.6-.8 2.6-2.5v-.2h-1.8c-1.3 0-2 .6-2 1.5-.1.7.3 1.2 1.2 1.2z"/><path id="XMLID_3962_" class="st7" d="M1109.2 612.9h1.7v-.4c0-1.2-.9-1.7-1.9-1.7-.8 0-1.5.4-1.8 1.3l-1.9-.4c.4-1.7 1.8-2.7 3.7-2.7 2.3 0 3.9 1 3.9 3.9v6.1h-1.7l-.2-1.3c-.6.9-1.7 1.4-3.1 1.4-1.6 0-3-.9-3-3 0-2 1.8-3.2 4.3-3.2zm-.9 4.4c1.3 0 2.6-.8 2.6-2.5v-.2h-1.8c-1.3 0-2 .6-2 1.5 0 .7.4 1.2 1.2 1.2z"/><path id="XMLID_3960_" class="st7" d="M1117.5 609.1v1.7c.8-1.2 1.8-1.8 3-1.8 1.3 0 2.4.8 2.7 2 .7-1.3 1.8-2 3.1-2 1.8 0 2.8 1.2 2.8 3v7.1h-2v-6.6c0-1.1-.6-1.6-1.4-1.6-1.2 0-2.3 1.5-2.3 4.3v4h-2v-6.6c0-1.1-.6-1.6-1.4-1.6-1.2 0-2.3 1.5-2.3 4.5v3.7h-2v-9.9h1.8z"/><path id="XMLID_3957_" class="st7" d="M1134.1 616.1c.9 0 1.5.6 1.5 1.5 0 .8-.6 1.5-1.5 1.5s-1.5-.6-1.5-1.5c.1-.9.7-1.5 1.5-1.5zm1.4-10.8l-.5 9.4h-1.7l-.5-9.4h2.7z"/></g><path id="XMLID_3954_" class="st8" d="M98.8 35.6c18.9-18.9 49-19.2 67.4-.8"/><path id="XMLID_3953_" class="st8" d="M106.5 45.7c14.5-14.5 37.7-14.8 51.9-.7"/><path id="XMLID_3952_" class="st8" d="M114.2 55.8c10.1-10.1 26.4-10.4 36.3-.5"/><circle id="XMLID_3951_" class="st7" cx="132.5" cy="66.3" r="6.1"/><path id="XMLID_3949_" class="st8" d="M396.8 391.6c18.9-18.9 49-19.2 67.4-.8"/><path id="XMLID_3948_" class="st8" d="M404.5 401.7c14.5-14.5 37.7-14.8 51.9-.7"/><path id="XMLID_3947_" class="st8" d="M412.2 411.8c10.1-10.1 26.4-10.4 36.3-.5"/><circle id="XMLID_3946_" class="st7" cx="430.5" cy="422.3" r="6.1"/><path id="XMLID_3944_" class="st8" d="M893.8 260.6c18.9-18.9 49-19.2 67.4-.8"/><path id="XMLID_3943_" class="st8" d="M901.5 270.7c14.5-14.5 37.7-14.8 51.9-.7"/><path id="XMLID_3942_" class="st8" d="M909.2 280.8c10.1-10.1 26.4-10.4 36.3-.5"/><circle id="XMLID_3941_" class="st7" cx="927.5" cy="291.3" r="6.1"/><g id="XMLID_152_"><path id="XMLID_3939_" class="st8" d="M850.9 639.7l-16.7 10.7 16.7 11.8"/><path id="XMLID_3938_" class="st8" d="M890.3 662.2l16.7-10.7-16.7-11.8"/><path id="XMLID_3937_" class="st9" d="M859.9 670.2l21.4-39.1"/></g><path id="XMLID_3935_" class="st8" d="M200.9 114.7l-16.7 10.7 16.7 11.8"/><path id="XMLID_3934_" class="st8" d="M240.3 137.2l16.7-10.7-16.7-11.8"/><path id="XMLID_3933_" class="st9" d="M209.9 145.2l21.4-39.1"/><path id="XMLID_3931_" class="st8" d="M1120.9 453.7l-16.7 10.7 16.7 11.8"/><path id="XMLID_3930_" class="st8" d="M1160.3 476.2l16.7-10.7-16.7-11.8"/><path id="XMLID_3929_" class="st9" d="M1129.9 484.2l21.4-39.1"/><path id="XMLID_3927_" class="st8" d="M707.9 166.7l-16.7 10.7 16.7 11.8"/><path id="XMLID_3926_" class="st8" d="M747.3 189.2l16.7-10.7-16.7-11.8"/><path id="XMLID_3925_" class="st9" d="M716.9 197.2l21.4-39.1"/><path id="XMLID_3923_" class="st8" d="M772.9 401.7l-16.7 10.7 16.7 11.8"/><path id="XMLID_3922_" class="st8" d="M812.3 424.2l16.7-10.7-16.7-11.8"/><path id="XMLID_3921_" class="st9" d="M781.9 432.2l21.4-39.1"/><circle id="XMLID_3901_" class="st6" cx="240.5" cy="405.4" r="21"/><path id="XMLID_3898_" class="st7" d="M240.4 391.4c1.6 0 2.8 1.3 2.8 2.8 0 1.5-1.2 2.7-2.8 2.7-1.6 0-2.8-1.2-2.8-2.7 0-1.5 1.2-2.8 2.8-2.8zm2 8.3v19.4h-4v-19.4h4z"/><g id="XMLID_12_"><circle id="XMLID_3895_" class="st6" cx="1083.5" cy="220.4" r="21"/><path id="XMLID_3892_" class="st7" d="M1083.4 206.4c1.6 0 2.8 1.3 2.8 2.8 0 1.5-1.2 2.7-2.8 2.7-1.6 0-2.8-1.2-2.8-2.7 0-1.5 1.2-2.8 2.8-2.8zm2 8.3v19.4h-4v-19.4h4z"/></g><circle id="XMLID_3889_" class="st6" cx="758.5" cy="546.4" r="21"/><path id="XMLID_3886_" class="st7" d="M758.4 532.4c1.6 0 2.8 1.3 2.8 2.8 0 1.5-1.2 2.7-2.8 2.7s-2.8-1.2-2.8-2.7c0-1.5 1.2-2.8 2.8-2.8zm2 8.3v19.4h-4v-19.4h4z"/><path id="XMLID_3883_" class="st6" d="M437.4 131.4h-21.8c-5.1 0-9.3-4.2-9.3-9.3V76.9c0-5.1 4.2-9.3 9.3-9.3h21.8c5.1 0 9.3 4.2 9.3 9.3V122c0 5.1-4.2 9.4-9.3 9.4z"/><path id="XMLID_3882_" class="st6" d="M405 117.5h41"/><circle id="XMLID_3881_" class="st7" cx="434.6" cy="79.5" r="3.2"/><path id="XMLID_3879_" class="st8" d="M456.6 73.9c0-9.5-7.7-17.3-17.3-17.3"/><path id="XMLID_3878_" class="st8" d="M468.1 72.5c0-14.8-12-26.8-26.8-26.8"/><path id="XMLID_3642_" class="st2" d="M989.4 639.1l-32 3 15.3 29.4z"/><g id="XMLID_20_"><g id="XMLID_35_"><path id="XMLID_90_" class="st2" d="M889.7 760.6c1.2 1 2.5 2 4 3.1"/><path id="XMLID_89_" class="st10" d="M902.4 769.3c28.1 16.1 75.8 26.9 103-10.8 23.5-32.5 8.6-79.7-18-98.1"/><path id="XMLID_63_" class="st2" d="M983 657.6c-1.5-.8-3-1.5-4.5-2.1"/></g></g><path id="XMLID_3633_" class="st2" d="M1179.6 715.2l-31.6-5.5 7 32.3z"/><path id="XMLID_97_" class="st5" d="M1198.3 800.1c-.1-30.4-10.7-58.1-31.9-71.7"/><path id="XMLID_3629_" class="st2" d="M59.9 672.2l31.7-5.5-7 32.3z"/><path id="XMLID_95_" class="st5" d="M47.7 800c-13.8-44.6-5.6-94.7 25.4-114.7"/><path id="XMLID_3625_" class="st2" d="M1196.1 601.6l18.9-26 17.5 28.1z"/><path id="XMLID_3623_" class="st5" d="M1462.3 588.6c-5.1 73.2-61 127.9-122 129.8-69 2.2-138-63.4-125.5-116.5"/><g id="XMLID_94_"><path id="XMLID_3614_" class="st6" d="M273.5 723.4l-37.2-27.1-37.8 27.1v-15.2l37.8-27.1 36.9 27.1z"/><path id="XMLID_3613_" class="st6" d="M261.3 715.2v30.2h-49v-30.2"/></g><g id="XMLID_23_"><path id="XMLID_3608_" class="st6" d="M502.1 715l26.4 46.9"/><path id="XMLID_3607_" class="st6" d="M562.2 680.6l-60.8 33.6-15.7-28.4 60.8-33.7 23.1 4.3z"/></g><g id="XMLID_5_"><path id="XMLID_3601_" class="st5" d="M426.3 742.4c-65 3.8-87.2-24.9-92.2-49-3.7-17.9 4.6-41.5-3-62.4-9.6-26.4-31.7-40.8-56.8-46.5"/><path id="XMLID_3600_" class="st2" d="M271.6 602.1l-22.1-23.2 30.7-12.2z"/></g><path id="XMLID_3556_" class="st5" d="M610.7 799c-9.1-64.5 17.7-88.9 41.4-95.9 17.6-5.2 41.8 1.2 62-8.1 25.5-11.7 38.1-34.9 41.8-60.4"/><path id="XMLID_3555_" class="st2" d="M737.9 633.4l21.4-24 14.6 29.7z"/><path id="XMLID_3518_" class="st8" d="M150.9 607.7l-16.7 10.7 16.7 11.8"/><path id="XMLID_3517_" class="st8" d="M190.3 630.2l16.7-10.7-16.7-11.8"/><path id="XMLID_3516_" class="st9" d="M159.9 638.2l21.4-39.1"/><g id="XMLID_6_"><path id="XMLID_3465_" class="st6" d="M400 623.5h41"/><g id="XMLID_3_"><path id="XMLID_3466_" class="st6" d="M432.4 637.4h-21.8c-5.1 0-9.3-4.2-9.3-9.3V583c0-5.1 4.2-9.3 9.3-9.3h21.8c5.1 0 9.3 4.2 9.3 9.3v45c0 5.1-4.2 9.4-9.3 9.4z"/><circle id="XMLID_3464_" class="st7" cx="429.6" cy="585.5" r="3.2"/><path id="XMLID_3462_" class="st8" d="M451.6 579.9c0-9.5-7.7-17.3-17.3-17.3"/><path id="XMLID_3461_" class="st8" d="M463.1 578.5c0-14.8-12-26.8-26.8-26.8"/></g></g><g id="XMLID_13_"><path id="XMLID_21_" class="st6" d="M972 551.5h41"/><g id="XMLID_14_"><path id="XMLID_18_" class="st6" d="M1004.4 565.4h-21.8c-5.1 0-9.3-4.2-9.3-9.3V511c0-5.1 4.2-9.3 9.3-9.3h21.8c5.1 0 9.3 4.2 9.3 9.3v45c0 5.1-4.2 9.4-9.3 9.4z"/><circle id="XMLID_17_" class="st7" cx="1001.6" cy="513.5" r="3.2"/><path id="XMLID_16_" class="st8" d="M1023.6 507.9c0-9.5-7.7-17.3-17.3-17.3"/><path id="XMLID_15_" class="st8" d="M1035.1 506.5c0-14.8-12-26.8-26.8-26.8"/></g></g><path id="XMLID_1_" class="st6" d="M576.2 487.5h106.6c6.6 0 11.8 5.3 11.8 11.9v15.2c0 6.6-5.2 11.9-11.8 11.9h-19.4c-1.2 4 2.3 8 2.3 8s-12.3 3-13.4-8h-76c-6.6 0-12.7-5.3-12.7-11.9v-15.2c-.1-6.6 6-11.9 12.6-11.9z"/><g id="XMLID_4_"><path id="XMLID_7_" class="st7" d="M588.2 503l-3 9.6h-1.8l-1.7-6.8-1.7 6.8h-1.8l-3-9.6h2.1l1.8 7 1.7-7h1.9l1.7 7 1.8-7h2z"/><path id="XMLID_9_" class="st7" d="M590.8 498.9c.8 0 1.4.6 1.4 1.4 0 .8-.6 1.4-1.4 1.4-.8 0-1.4-.6-1.4-1.4 0-.8.6-1.4 1.4-1.4zm1 4.1v9.6h-2V503h2z"/><path id="XMLID_42_" class="st7" d="M596.3 499.1v13.5h-2v-13.5h2z"/><path id="XMLID_44_" class="st7" d="M600.9 499.1v13.5h-2v-13.5h2z"/><path id="XMLID_46_" class="st7" d="M605.6 499.1v7.7l3.5-3.8h2.5l-4 4.4 4.3 5.2h-2.5l-3.7-4.6v4.6h-2v-13.5h1.9z"/><path id="XMLID_48_" class="st7" d="M617 502.9c3 0 4.7 2.2 4.7 4.9s-1.8 4.9-4.7 4.9c-3 0-4.7-2.2-4.7-4.9s1.7-4.9 4.7-4.9zm0 8.1c1.7 0 2.6-1.6 2.6-3.2s-.9-3.2-2.6-3.2c-1.7 0-2.6 1.6-2.6 3.2s.9 3.2 2.6 3.2z"/><path id="XMLID_51_" class="st7" d="M626 503v1.6c.8-1.2 1.7-1.8 2.9-1.8 1.3 0 2.4.8 2.6 2 .7-1.3 1.7-2 3-2 1.7 0 2.7 1.2 2.7 2.9v6.9h-2v-6.4c0-1-.6-1.6-1.4-1.6-1.2 0-2.2 1.5-2.2 4.1v3.8h-2v-6.4c0-1-.6-1.6-1.4-1.6-1.2 0-2.2 1.5-2.2 4.4v3.6h-2v-9.6l2 .1z"/><path id="XMLID_53_" class="st7" d="M642 503v1.6c.8-1.2 1.7-1.8 2.9-1.8 1.3 0 2.4.8 2.6 2 .7-1.3 1.7-2 3-2 1.8 0 2.7 1.2 2.7 2.9v6.9h-2v-6.4c0-1-.6-1.6-1.4-1.6-1.2 0-2.2 1.5-2.2 4.1v3.8h-2v-6.4c0-1-.6-1.6-1.4-1.6-1.2 0-2.2 1.5-2.2 4.4v3.6h-2v-9.6l2 .1z"/><path id="XMLID_55_" class="st7" d="M664.4 508.4h-6.8c0 1.4.8 2.6 2.4 2.6 1 0 2-.6 2.5-1.6l1.7.7c-.9 1.8-2 2.7-4.2 2.7-3.2 0-4.5-2.7-4.5-4.9 0-2.3 1.3-4.9 4.5-4.9 3.1 0 4.4 2.5 4.4 4.6v.8zm-6.8-1.7h4.7c-.2-1.1-.9-2.1-2.3-2.1s-2.2.9-2.4 2.1z"/><path id="XMLID_58_" class="st7" d="M668.4 503v1.6c.7-1.1 1.8-1.8 3.1-1.8 1.7 0 2.8 1 2.8 2.9v6.9h-2v-6.2c0-1.3-.6-1.7-1.5-1.7-1.2 0-2.5 1.5-2.5 4.1v3.9h-2v-9.6l2.1-.1z"/><path id="XMLID_60_" class="st7" d="M679.3 509.8c.8 0 1.4.6 1.4 1.4s-.6 1.4-1.4 1.4-1.4-.6-1.4-1.4c-.1-.8.5-1.4 1.4-1.4zm1.3-10.5l-.5 9.1h-1.7l-.5-9.1h2.7z"/></g><g id="XMLID_302_"><circle id="XMLID_306_" class="st6" cx="778.5" cy="734.4" r="21"/><path id="XMLID_303_" class="st7" d="M778.4 720.4c1.6 0 2.8 1.3 2.8 2.8 0 1.5-1.2 2.7-2.8 2.7s-2.8-1.2-2.8-2.7c0-1.5 1.2-2.8 2.8-2.8zm2 8.3v19.4h-4v-19.4h4z"/></g></g></g></g></svg>