<?xml version="1.0" encoding="utf-8"?>
<!-- Generator: Adobe Illustrator 16.0.0, SVG Export Plug-In . SVG Version: 6.00 Build 0)  -->
<!DOCTYPE svg PUBLIC "-//W3C//DTD SVG 1.1//EN" "http://www.w3.org/Graphics/SVG/1.1/DTD/svg11.dtd">
<svg version="1.1" id="Layer_1" xmlns="http://www.w3.org/2000/svg" xmlns:xlink="http://www.w3.org/1999/xlink" x="0px" y="0px"
	 width="630px" height="205px" viewBox="0 0 630 205" enable-background="new 0 0 630 205" xml:space="preserve">
<g>
	<g>
		<path d="M210.28,145.561c-31.053,0-47.628-24.29-47.628-46.199c0-25.657,20.882-47.575,50.568-47.575
			c28.723,0,46.684,22.519,46.684,46.195C259.904,121.081,242.15,145.561,210.28,145.561z M234.891,129.648
			c4.715-6.197,5.854-13.91,5.854-21.528c0-17.071-8.195-49.62-32.385-49.62c-6.453,0-12.873,2.513-17.567,6.587
			c-7.614,6.766-8.981,15.294-8.981,23.646c0,19.213,9.564,50.809,33.147,50.809C222.603,139.542,230.398,135.875,234.891,129.648z"
			/>
		<linearGradient id="SVGID_1_" gradientUnits="userSpaceOnUse" x1="211.2783" y1="36.4443" x2="211.2783" y2="98.2035">
			<stop  offset="0" style="stop-color:#FFFFFF;stop-opacity:0.15"/>
			<stop  offset="1" style="stop-color:#FFFFFF;stop-opacity:0"/>
		</linearGradient>
		<path fill="url(#SVGID_1_)" d="M210.28,145.561c-31.053,0-47.628-24.29-47.628-46.199c0-25.657,20.882-47.575,50.568-47.575
			c28.723,0,46.684,22.519,46.684,46.195C259.904,121.081,242.15,145.561,210.28,145.561z M234.891,129.648
			c4.715-6.197,5.854-13.91,5.854-21.528c0-17.071-8.195-49.62-32.385-49.62c-6.453,0-12.873,2.513-17.567,6.587
			c-7.614,6.766-8.981,15.294-8.981,23.646c0,19.213,9.564,50.809,33.147,50.809C222.603,139.542,230.398,135.875,234.891,129.648z"
			/>
	</g>
	<g>
		<path d="M504.842,142.841l5.775-5.768l-10.77-1.345c-2.726-0.331-4.743-2.604-4.743-5.402V15.892c0-1.42,0.572-2.741,1.503-3.671
			l7.122-7.111h-32.277l-8.348,8.34h12.528v118.616c0,1.421-0.58,2.741-1.511,3.672l-7.123,7.104H504.842z"/>
		<linearGradient id="SVGID_2_" gradientUnits="userSpaceOnUse" x1="486.8613" y1="-18.2983" x2="486.8613" y2="58.1448">
			<stop  offset="0" style="stop-color:#FFFFFF;stop-opacity:0.15"/>
			<stop  offset="1" style="stop-color:#FFFFFF;stop-opacity:0"/>
		</linearGradient>
		<path opacity="0.5" fill="url(#SVGID_2_)" d="M504.842,142.841l5.775-5.768l-10.77-1.345c-2.726-0.331-4.743-2.604-4.743-5.402
			V15.892c0-1.42,0.572-2.741,1.503-3.671l7.122-7.111h-32.277l-8.348,8.34h12.528v118.616c0,1.421-0.58,2.741-1.511,3.672
			l-7.123,7.104H504.842z"/>
	</g>
	<g>
		<path d="M570.893,135.474c-17.325,0-33.298-12.51-39.021-34.729l59.912-24.206c-3.207-11.559-12.303-24.753-35.938-24.753
			c-19.477,0-43.282,14.819-43.282,45.03c0,23.801,15.931,48.744,46.308,48.744c6.303,0,16.158-0.398,26.216-7.603
			c3.81-2.659,7.023-5.856,9.703-9.372C588.087,131.898,580.944,135.474,570.893,135.474z M552.239,58.396
			c10.653,0,19.525,8.828,19.525,16.626c0,2.732-1.967,3.899-5.711,5.267l-35.532,14.4C525,65.348,544.175,58.396,552.239,58.396z"
			/>
		<linearGradient id="SVGID_3_" gradientUnits="userSpaceOnUse" x1="553.6777" y1="36.4443" x2="553.6777" y2="98.2035">
			<stop  offset="0" style="stop-color:#FFFFFF;stop-opacity:0.15"/>
			<stop  offset="1" style="stop-color:#FFFFFF;stop-opacity:0"/>
		</linearGradient>
		<path fill="url(#SVGID_3_)" d="M570.893,135.474c-17.325,0-33.298-12.51-39.021-34.729l59.912-24.206
			c-3.207-11.559-12.303-24.753-35.938-24.753c-19.477,0-43.282,14.819-43.282,45.03c0,23.801,15.931,48.744,46.308,48.744
			c6.303,0,16.158-0.398,26.216-7.603c3.81-2.659,7.023-5.856,9.703-9.372C588.087,131.898,580.944,135.474,570.893,135.474z
			 M552.239,58.396c10.653,0,19.525,8.828,19.525,16.626c0,2.732-1.967,3.899-5.711,5.267l-35.532,14.4
			C525,65.348,544.175,58.396,552.239,58.396z"/>
	</g>
	<g>
		<path d="M317.411,145.561c-31.054,0-47.629-24.29-47.629-46.199c0-25.657,20.882-47.575,50.568-47.575
			c28.725,0,46.685,22.519,46.685,46.195C367.035,121.081,349.28,145.561,317.411,145.561z M342.021,129.648
			c4.716-6.197,5.855-13.91,5.855-21.528c0-17.071-8.196-49.62-32.385-49.62c-6.454,0-12.873,2.513-17.568,6.587
			c-7.613,6.766-8.981,15.294-8.981,23.646c0,19.213,9.565,50.809,33.148,50.809C329.733,139.542,337.529,135.875,342.021,129.648z"
			/>
		<linearGradient id="SVGID_4_" gradientUnits="userSpaceOnUse" x1="318.4082" y1="37.189" x2="318.4082" y2="115.1574">
			<stop  offset="0" style="stop-color:#FFFFFF;stop-opacity:0.15"/>
			<stop  offset="1" style="stop-color:#FFFFFF;stop-opacity:0"/>
		</linearGradient>
		<path fill="url(#SVGID_4_)" d="M317.411,145.561c-31.054,0-47.629-24.29-47.629-46.199c0-25.657,20.882-47.575,50.568-47.575
			c28.725,0,46.685,22.519,46.685,46.195C367.035,121.081,349.28,145.561,317.411,145.561z M342.021,129.648
			c4.716-6.197,5.855-13.91,5.855-21.528c0-17.071-8.196-49.62-32.385-49.62c-6.454,0-12.873,2.513-17.568,6.587
			c-7.613,6.766-8.981,15.294-8.981,23.646c0,19.213,9.565,50.809,33.148,50.809C329.733,139.542,337.529,135.875,342.021,129.648z"
			/>
	</g>
	<g>
		<path d="M445.028,137.314l-7.117-5.507c-2.162-1.785-5.207-4.138-5.207-8.475c0-4.373,2.816-7.709,5.355-9.68
			c8.5-6.599,16.627-13.644,16.627-28.22c0-13.271-8.002-21.009-12.981-25.375h11.04l8.272-8.271h-40.556
			c-28.364,0-42.784,17.663-42.784,37.241c0,15.146,11.502,31.28,32.259,31.28c1.667,0,5.863,0,5.863,0
			c-0.751,2.099-1.531,4.473-1.531,7.235c0,6.105,2.875,9.277,5.879,12.661c-8.89,0.583-25.496,2.276-37.73,9.761
			c-11.671,6.949-15.174,16.994-15.174,24.084c0,14.629,14.019,28.451,42.644,28.451c33.984,0,51.687-18.953,51.687-37.506
			C461.573,151.308,453.703,144.626,445.028,137.314z M419.883,114.5c-16.231,0-25.057-20.176-25.057-35.504
			c0-14.553,8.633-21.018,17.67-21.018c17.379,0,26.364,22.578,26.364,36.308C438.86,111.222,425.265,114.5,419.883,114.5z
			 M419.625,193.84c-21.126,0-34.782-10.104-34.782-24.131c0-13.993,12.634-18.753,16.988-20.346
			c8.289-2.772,18.959-3.143,20.766-3.143c1.948,0,2.935,0.006,4.498,0.168c15.036,10.747,21.539,16.033,21.539,26.113
			C448.634,183.745,438.542,193.84,419.625,193.84z"/>
		
			<radialGradient id="SVGID_5_" cx="377.2422" cy="46.5225" r="172.9278" gradientTransform="matrix(0.8147 0 0 0.8147 79.485 26.6054)" gradientUnits="userSpaceOnUse">
			<stop  offset="0" style="stop-color:#FFFFFF;stop-opacity:0.08"/>
			<stop  offset="1" style="stop-color:#FFFFFF;stop-opacity:0"/>
		</radialGradient>
		<path fill="url(#SVGID_5_)" d="M445.028,137.314l-7.117-5.507c-2.162-1.785-5.207-4.138-5.207-8.475
			c0-4.373,2.816-7.709,5.355-9.68c8.5-6.599,16.627-13.644,16.627-28.22c0-13.271-8.002-21.009-12.981-25.375h11.04l8.272-8.271
			h-40.556c-28.364,0-42.784,17.663-42.784,37.241c0,15.146,11.502,31.28,32.259,31.28c1.667,0,5.863,0,5.863,0
			c-0.751,2.099-1.531,4.473-1.531,7.235c0,6.105,2.875,9.277,5.879,12.661c-8.89,0.583-25.496,2.276-37.73,9.761
			c-11.671,6.949-15.174,16.994-15.174,24.084c0,14.629,14.019,28.451,42.644,28.451c33.984,0,51.687-18.953,51.687-37.506
			C461.573,151.308,453.703,144.626,445.028,137.314z M419.883,114.5c-16.231,0-25.057-20.176-25.057-35.504
			c0-14.553,8.633-21.018,17.67-21.018c17.379,0,26.364,22.578,26.364,36.308C438.86,111.222,425.265,114.5,419.883,114.5z
			 M419.625,193.84c-21.126,0-34.782-10.104-34.782-24.131c0-13.993,12.634-18.753,16.988-20.346
			c8.289-2.772,18.959-3.143,20.766-3.143c1.948,0,2.935,0.006,4.498,0.168c15.036,10.747,21.539,16.033,21.539,26.113
			C448.634,183.745,438.542,193.84,419.625,193.84z"/>
	</g>
	<g>
		<path d="M109.713,91.37l-8.349,8.341h25.044v35.227c-5.746,1.882-14.989,3.91-29.009,3.91c-37.745,0-65.112-33.299-65.112-70.674
			c0-34.09,22.417-57.988,53.208-57.988c17.871,0,30.343,5.799,40.913,15.841v11.5l19.062-19.061
			c-4.38-3.001-12.096-8.051-25.748-12.07C110.89,3.822,100.491,2.5,89.808,2.5c-51.651,0-78.738,37.923-78.738,71.229
			c0,47.89,35,73.814,75.503,73.814c28.038,0,50.051-6.343,59.314-8.895v-36.497c0-1.42,0.572-2.729,1.504-3.661l7.122-7.122
			H109.713z"/>
		
			<radialGradient id="SVGID_6_" cx="-47.4561" cy="-14.5649" r="192.6215" gradientTransform="matrix(0.8147 0 0 0.8147 79.485 26.6054)" gradientUnits="userSpaceOnUse">
			<stop  offset="0" style="stop-color:#FFFFFF;stop-opacity:0.08"/>
			<stop  offset="1" style="stop-color:#FFFFFF;stop-opacity:0"/>
		</radialGradient>
		<path fill="url(#SVGID_6_)" d="M109.713,91.37l-8.349,8.341h25.044v35.227c-5.746,1.882-14.989,3.91-29.009,3.91
			c-37.745,0-65.112-33.299-65.112-70.674c0-34.09,22.417-57.988,53.208-57.988c17.871,0,30.343,5.799,40.913,15.841v11.5
			l19.062-19.061c-4.38-3.001-12.096-8.051-25.748-12.07C110.89,3.822,100.491,2.5,89.808,2.5
			c-51.651,0-78.738,37.923-78.738,71.229c0,47.89,35,73.814,75.503,73.814c28.038,0,50.051-6.343,59.314-8.895v-36.497
			c0-1.42,0.572-2.729,1.504-3.661l7.122-7.122H109.713z"/>
	</g>
	<g>
		<g>
			<path d="M595.278,53.108h4.174v11.131h1.392V53.108h4.173v-1.391h-9.738V53.108z M616.982,51.718l-4.313,10.574l-4.312-10.574
				h-1.947v12.521h1.391V53.804l4.348,10.435h1.043l4.348-10.435v10.435h1.393V51.718H616.982z"/>
		</g>
	</g>
</g>
</svg>
