<?xml version="1.0" encoding="utf-8"?>
<!-- Generator: Adobe Illustrator 16.0.0, SVG Export Plug-In . SVG Version: 6.00 Build 0)  -->
<!DOCTYPE svg PUBLIC "-//W3C//DTD SVG 1.0//EN" "http://www.w3.org/TR/2001/REC-SVG-20010904/DTD/svg10.dtd">
<svg version="1.0" id="Ebene_1" xmlns="http://www.w3.org/2000/svg" xmlns:xlink="http://www.w3.org/1999/xlink" x="0px" y="0px"
	 width="34.293px" height="32px" viewBox="0 0 34.293 32" enable-background="new 0 0 34.293 32" xml:space="preserve">
<g>
	<g>
		<defs>
			<rect id="SVGID_1_" width="34.293" height="32"/>
		</defs>
		<clipPath id="SVGID_2_">
			<use xlink:href="#SVGID_1_"  overflow="visible"/>
		</clipPath>
		<path clip-path="url(#SVGID_2_)" fill="#2E94B6" d="M29.443,12.865h-1.828v2.622h1.828c0.852,0,1.41-0.543,1.41-1.311
			C30.853,13.409,30.295,12.865,29.443,12.865 M30.951,21.068l-1.939-3.962h-1.396v3.962h-1.938v-9.933h3.891
			c2.023,0,3.223,1.382,3.223,3.041c0,1.396-0.85,2.26-1.813,2.609l2.218,4.283H30.951z"/>
	</g>
	<polygon fill="#2E94B6" points="25.508,21.984 23.68,25.988 21.824,21.984 19.717,21.984 22.703,27.844 22.703,31.916 
		24.629,31.916 24.629,27.844 27.613,21.984 	"/>
	<polygon fill="#2E94B6" points="5.838,11.135 4.012,15.139 2.156,11.135 0.049,11.135 3.035,16.994 3.035,21.068 4.959,21.068 
		4.959,16.994 7.945,11.135 	"/>
	<g>
		<defs>
			<rect id="SVGID_3_" width="34.293" height="32"/>
		</defs>
		<clipPath id="SVGID_4_">
			<use xlink:href="#SVGID_3_"  overflow="visible"/>
		</clipPath>
		<path clip-path="url(#SVGID_4_)" fill="#2E94B6" d="M13.145,13.311c-0.279-0.321-0.712-0.53-1.242-0.53
			c-0.529,0-0.977,0.209-1.256,0.53c-0.375,0.419-0.473,0.879-0.473,2.791s0.098,2.371,0.473,2.791
			c0.279,0.321,0.727,0.53,1.256,0.53c0.53,0,0.963-0.209,1.242-0.53c0.377-0.419,0.488-0.879,0.488-2.791
			S13.521,13.73,13.145,13.311 M14.581,20.064c-0.698,0.696-1.547,1.086-2.678,1.086c-1.13,0-1.994-0.39-2.691-1.086
			c-1.005-1.005-0.977-2.246-0.977-3.962s-0.029-2.957,0.977-3.962c0.697-0.696,1.561-1.088,2.691-1.088
			c1.131,0,1.98,0.392,2.678,1.088c1.005,1.005,0.991,2.246,0.991,3.962S15.586,19.059,14.581,20.064"/>
		<path clip-path="url(#SVGID_4_)" fill="#2E94B6" d="M20.555,21.15c-2.037,0-3.655-1.381-3.655-3.486v-6.529h1.938v6.459
			c0,1.145,0.67,1.828,1.717,1.828c1.045,0,1.729-0.684,1.729-1.828v-6.459h1.926v6.529C24.209,19.77,22.591,21.15,20.555,21.15"/>
		<path clip-path="url(#SVGID_4_)" fill="#2E94B6" d="M3.777,32c-1.088,0-1.98-0.391-2.678-1.088
			c-1.005-1.004-0.977-2.246-0.977-3.961c0-1.716-0.029-2.957,0.977-3.962c0.698-0.697,1.59-1.088,2.678-1.088
			c1.855,0,3.307,1.061,3.654,3.139H5.465c-0.195-0.795-0.697-1.408-1.674-1.408c-0.531,0-0.963,0.195-1.242,0.516
			c-0.375,0.418-0.488,0.893-0.488,2.804c0,1.911,0.113,2.385,0.488,2.803c0.279,0.322,0.711,0.517,1.242,0.517
			c0.977,0,1.479-0.615,1.674-1.41h1.967C7.084,30.939,5.619,32,3.777,32"/>
	</g>
	<rect x="8.608" y="21.984" fill="#2E94B6" width="1.939" height="9.932"/>
	<polygon fill="#2E94B6" points="11.844,21.984 11.844,23.713 14.439,23.713 14.439,31.916 16.377,31.916 16.377,23.713 
		18.973,23.713 18.973,21.984 	"/>
	<path fill="#1D1D1B" d="M5.715,4.552V0.474h1.559v9.588H5.715V5.887H1.948v4.176H0.389V0.474h1.559l0,4.078H5.715z M5.326,0.084
		v4.078H2.338V0.084H0v10.367h2.338V6.275h2.988v4.176H5.52h2.143V0.084H5.326z"/>
	<path fill="#2E94B6" d="M13.423,0.298h-1.529l-3.812,9.977h2.215l0.639-1.434l3.434-0.012l0.51,1.446h2.188L13.423,0.298z
		 M13.844,7.124l-2.557-0.006l1.288-3.512L13.844,7.124z"/>
	<polyline fill="#1D1D1B" points="15.1,8.838 15.127,8.842 14.748,8.842 14.748,9.879 13.535,9.879 13.535,8.463 9.49,8.463 
		9.49,7.152 11.938,0.603 13.512,0.603 11.006,7.312 13.535,7.312 13.535,5.449 14.748,5.449 14.748,7.312 15.416,7.312 
		15.416,8.463 14.748,8.463 14.748,8.658 14.754,8.848 15.129,8.848 15.805,8.854 15.805,6.924 15.138,6.924 15.138,5.06 
		13.146,5.06 13.146,6.924 11.566,6.924 14.072,0.213 11.667,0.213 9.102,7.082 9.102,8.854 13.146,8.854 13.146,10.268 
		15.138,10.268 15.135,8.838 	"/>
	<g>
		<defs>
			<rect id="SVGID_5_" width="34.293" height="32"/>
		</defs>
		<clipPath id="SVGID_6_">
			<use xlink:href="#SVGID_5_"  overflow="visible"/>
		</clipPath>
		<path clip-path="url(#SVGID_6_)" fill="#1D1D1B" d="M20.738,10.341v-0.195c-1.047-0.002-1.885-0.369-2.553-1.036
			c-0.449-0.451-0.676-0.939-0.797-1.522c-0.121-0.583-0.128-1.26-0.128-2.053c0-0.088,0.001-0.177,0.001-0.268
			c0-0.09-0.001-0.18,0-0.268c-0.001-0.792,0.006-1.47,0.127-2.053c0.121-0.584,0.348-1.07,0.797-1.521
			c0.668-0.667,1.506-1.035,2.553-1.037c0.896,0,1.678,0.256,2.279,0.75c0.602,0.496,1.031,1.235,1.2,2.242l0.193-0.033V3.154
			h-1.977v0.194l0.189-0.045c-0.105-0.425-0.293-0.816-0.604-1.104c-0.309-0.288-0.736-0.461-1.268-0.459
			c-0.58-0.001-1.074,0.216-1.395,0.584l0.148,0.128L19.361,2.32c-0.104,0.115-0.195,0.242-0.267,0.395
			c-0.109,0.229-0.176,0.51-0.217,0.909c-0.041,0.4-0.057,0.921-0.057,1.644c0,0.965,0.027,1.57,0.105,2.006
			c0.041,0.219,0.095,0.395,0.168,0.548c0.072,0.152,0.163,0.278,0.267,0.393l0.145-0.13l-0.148,0.128
			c0.32,0.369,0.814,0.586,1.395,0.585c0.531,0,0.959-0.171,1.268-0.46c0.311-0.289,0.499-0.679,0.604-1.104l-0.189-0.047v0.195
			h1.977V7.188l-0.193-0.031c-0.168,1.006-0.602,1.745-1.204,2.24c-0.605,0.496-1.387,0.75-2.275,0.75V10.341v0.194
			c0.961,0.001,1.84-0.277,2.521-0.838c0.683-0.559,1.162-1.395,1.342-2.477l0.039-0.227h-2.359l-0.037,0.148
			c-0.091,0.374-0.252,0.69-0.489,0.911c-0.238,0.219-0.552,0.355-1.003,0.355c-0.485,0-0.859-0.176-1.1-0.451L19.65,7.955h0
			c-0.085-0.096-0.15-0.187-0.206-0.301c-0.081-0.172-0.142-0.406-0.18-0.782c-0.039-0.375-0.055-0.888-0.055-1.605
			c0-0.955,0.029-1.547,0.101-1.936c0.035-0.193,0.079-0.334,0.134-0.449c0.056-0.115,0.121-0.207,0.206-0.302l0.002-0.002
			c0.24-0.275,0.615-0.451,1.1-0.451c0.451,0.002,0.766,0.137,1.003,0.356c0.237,0.22,0.398,0.538,0.489,0.912l0.037,0.148h2.359
			l-0.039-0.227c-0.18-1.082-0.655-1.919-1.336-2.479C22.584,0.277,21.707,0,20.738,0c-1.139-0.002-2.096,0.416-2.828,1.15
			c-0.508,0.504-0.772,1.082-0.902,1.719C16.877,3.506,16.873,4.206,16.871,5c0,0.088,0,0.178,0,0.268s0,0.18,0,0.268
			c0.001,0.795,0.006,1.494,0.137,2.133c0.13,0.637,0.395,1.213,0.902,1.717c0.732,0.736,1.689,1.152,2.828,1.15V10.341z"/>
	</g>
	<path fill="#1D1D1B" d="M31.439,0.474h1.86l-3.129,3.751l3.442,5.837h-1.816l-2.646-4.688l-1.516,1.812v2.875h-1.559V0.474h1.559
		v4.699L31.439,0.474z M31.252,0.084l-3.23,3.99v-3.99h-2.336v10.367h2.336V7.33l1.064-1.273l2.482,4.395h0.113h2.611l-3.648-6.188
		l3.484-4.18H31.252z"/>
</g>
<g>
</g>
<g>
</g>
<g>
</g>
<g>
</g>
<g>
</g>
<g>
</g>
<g>
</g>
<g>
</g>
<g>
</g>
<g>
</g>
<g>
</g>
<g>
</g>
<g>
</g>
<g>
</g>
<g>
</g>
</svg>
