<?xml version="1.0" encoding="utf-8"?>
<!-- Generator: Adobe Illustrator 16.0.0, SVG Export Plug-In . SVG Version: 6.00 Build 0)  -->
<!DOCTYPE svg PUBLIC "-//W3C//DTD SVG 1.0//EN" "http://www.w3.org/TR/2001/REC-SVG-20010904/DTD/svg10.dtd">
<svg version="1.0" id="Ebene_1" xmlns="http://www.w3.org/2000/svg" xmlns:xlink="http://www.w3.org/1999/xlink" x="0px" y="0px"
	 width="489px" height="461px" viewBox="0 0 489 461" enable-background="new 0 0 489 461" xml:space="preserve">
<g>
	<polygon points="81.698,167.209 55.991,223.524 29.894,167.209 0.263,167.209 42.256,249.62 42.256,306.915 69.335,306.915 
		69.335,249.62 111.329,167.209 	"/>
	<g>
		<g>
			<path d="M184.455,197.817c-3.924-4.515-10.008-7.456-17.463-7.456c-7.46,0-13.735,2.943-17.661,7.456
				c-5.296,5.888-6.671,12.363-6.671,39.242c0,26.885,1.375,33.36,6.671,39.246c3.925,4.518,10.2,7.457,17.661,7.457
				c7.455,0,13.539-2.941,17.463-7.457c5.299-5.886,6.869-12.361,6.869-39.246C191.326,210.181,189.754,203.705,184.455,197.817
				 M204.668,292.791c-9.811,9.811-21.779,15.301-37.676,15.301c-15.894,0-28.061-5.49-37.869-15.301
				c-14.129-14.13-13.737-31.594-13.737-55.73c0-24.133-0.393-41.596,13.737-55.725c9.809-9.812,21.975-15.31,37.869-15.31
				c15.896,0,27.865,5.496,37.676,15.31c14.127,14.129,13.929,31.592,13.929,55.725
				C218.597,261.197,218.795,278.661,204.668,292.791"/>
			<path d="M291.104,308.094c-28.649,0-51.408-19.428-51.408-49.053v-91.834h27.272v90.85c0,16.092,9.421,25.707,24.136,25.707
				c14.718,0,24.332-9.615,24.332-25.707v-90.85h27.077v91.833C342.514,288.666,319.755,308.094,291.104,308.094"/>
			<path d="M416.703,191.537h-25.704v36.891h25.704c11.971,0,19.814-7.653,19.814-18.442
				C436.519,199.189,428.674,191.537,416.703,191.537 M437.892,306.918l-27.271-55.727h-19.623v55.727h-27.276V167.209h54.748
				c28.449,0,45.326,19.428,45.326,42.776c0,19.619-11.97,31.787-25.509,36.693l31.199,60.239L437.892,306.918L437.892,306.918z"/>
			<g>
				<path d="M65.387,460.698c-15.305,0-27.864-5.493-37.671-15.305c-14.131-14.131-13.738-31.593-13.738-55.729
					c0-24.134-0.393-41.597,13.738-55.728c9.809-9.81,22.368-15.308,37.671-15.308c26.1,0,46.505,14.913,51.41,44.155H89.129
					c-2.747-11.188-9.81-19.821-23.548-19.821c-7.453,0-13.535,2.744-17.46,7.261c-5.297,5.887-6.869,12.562-6.869,39.438
					c0,26.885,1.571,33.557,6.869,39.444c3.925,4.513,10.007,7.258,17.46,7.258c13.738,0,20.802-8.633,23.548-19.817h27.667
					C111.892,445.786,91.291,460.698,65.387,460.698"/>
			</g>
			<g>
				<rect x="133.343" y="319.812" width="27.278" height="139.707"/>
			</g>
			<g>
				<polygon points="242.634,344.145 242.634,459.521 215.358,459.521 215.358,344.145 178.86,344.145 178.86,319.812 
					279.133,319.812 279.133,344.145 				"/>
			</g>
			<g>
				<polygon points="361.659,402.225 361.659,459.521 334.578,459.521 334.578,402.225 292.586,319.814 322.217,319.814 
					348.317,376.127 374.021,319.814 403.651,319.814 				"/>
			</g>
			<path d="M207.021,131.771"/>
			<path d="M225.027,137.219"/>
		</g>
	</g>
	<path fill="#FFFFFF" d="M81.252,64.724V7.001h22.063v135.724H81.252v-59.11H27.938v59.109H5.875V7.001h22.06l0.003,57.724
		L81.252,64.724L81.252,64.724z M75.744,1.49v57.723H33.447V1.49H0.367v146.744h33.079V89.125h42.297v59.109h2.755h30.328V1.49
		H75.744z"/>
	<path d="M190.353,4.515H168.73l-53.97,141.234h31.358l9.034-20.302l48.597-0.178l7.207,20.479h30.971L190.353,4.515z
		 M196.304,101.135l-36.188-0.089l18.229-49.717L196.304,101.135z"/>
	<polyline fill="#FFFFFF" points="214.097,125.396 214.467,125.448 209.119,125.448 209.119,140.133 191.945,140.133 
		191.945,120.103 134.703,120.103 134.703,101.545 169.322,8.825 191.607,8.825 156.144,103.8 191.945,103.8 191.945,77.421 
		209.119,77.421 209.119,103.8 218.56,103.8 218.56,120.103 209.119,120.103 209.119,122.858 209.192,125.533 214.511,125.533 
		224.07,125.611 224.07,98.292 214.629,98.292 214.629,71.911 186.436,71.911 186.436,98.292 164.082,98.292 199.549,3.316 
		165.5,3.316 129.191,100.549 129.191,125.611 186.436,125.611 186.436,145.643 214.629,145.643 214.578,125.396 	"/>
	<g>
		<path fill="#FFFFFF" d="M293.896,146.668v-2.755c-14.807-0.023-26.672-5.234-36.136-14.661c-6.358-6.385-9.551-13.278-11.27-21.54
			c-1.709-8.25-1.818-17.852-1.813-29.066c0-1.241,0.003-2.502,0.003-3.786c0-1.283-0.003-2.545,0-3.785
			c-0.004-11.213,0.102-20.812,1.811-29.062c1.719-8.262,4.908-15.155,11.27-21.537c9.463-9.435,21.329-14.645,36.137-14.667
			c12.675,0.005,23.754,3.603,32.271,10.605c8.511,7.01,14.58,17.483,16.982,31.729l2.717-0.455v-2.754h-27.971v2.754l2.678-0.656
			c-1.479-6.015-4.156-11.543-8.535-15.621c-4.367-4.085-10.433-6.533-17.944-6.513c-8.203-0.013-15.201,3.061-19.732,8.284
			l2.08,1.808l-2.051-1.843c-1.463,1.627-2.756,3.417-3.779,5.578c-1.547,3.252-2.486,7.226-3.066,12.865
			c-0.578,5.653-0.799,13.038-0.799,23.269c0.008,13.646,0.387,22.222,1.508,28.394c0.562,3.082,1.326,5.585,2.357,7.748
			c1.023,2.161,2.314,3.95,3.779,5.578l2.051-1.844l-2.08,1.808c4.531,5.226,11.525,8.296,19.732,8.289
			c7.514,0.02,13.577-2.43,17.944-6.517c4.379-4.076,7.058-9.604,8.535-15.619l-2.679-0.656v2.755h27.972v-2.755l-2.717-0.455
			c-2.397,14.236-8.517,24.709-17.058,31.724c-8.544,7.005-19.624,10.603-32.197,10.607V146.668v2.755
			c13.61,0.004,26.038-3.937,35.692-11.859c9.662-7.91,16.438-19.753,18.996-35.072l0.537-3.21h-33.385l-0.517,2.099
			c-1.3,5.293-3.583,9.783-6.936,12.897c-3.369,3.104-7.82,5.02-14.193,5.041c-6.872-0.01-12.171-2.491-15.578-6.392l-0.022-0.029
			l-0.009-0.007c-1.207-1.347-2.123-2.633-2.897-4.262c-1.16-2.428-2.019-5.744-2.562-11.057s-0.769-12.562-0.769-22.713
			c-0.006-13.529,0.408-21.914,1.418-27.396c0.502-2.744,1.138-4.744,1.912-6.367c0.776-1.628,1.69-2.913,2.899-4.263l0.031-0.033
			c3.406-3.901,8.704-6.379,15.576-6.393c6.374,0.021,10.824,1.937,14.193,5.042c3.353,3.112,5.637,7.603,6.936,12.897l0.518,2.098
			h33.386l-0.539-3.208c-2.558-15.312-9.275-27.157-18.92-35.075c-9.633-7.928-22.062-11.867-35.771-11.86
			c-16.133-0.025-29.664,5.875-40.031,16.281c-7.174,7.15-10.928,15.307-12.771,24.32c-1.854,9.026-1.921,18.934-1.923,30.175
			c-0.002,1.245,0,2.507,0,3.784c0,1.278-0.002,2.539-0.002,3.787c0.004,11.242,0.072,21.148,1.925,30.177
			c1.845,9.016,5.6,17.172,12.771,24.323c10.367,10.403,23.898,16.299,40.031,16.276v-2.757L293.896,146.668L293.896,146.668z"/>
	</g>
	<path fill="#FFFFFF" d="M448.338,7.001h26.323l-44.288,53.107l48.723,82.615h-25.705L415.924,76.39l-21.443,25.642v40.692h-22.062
		V7.001h22.062v66.518L448.338,7.001z M445.709,1.49l-45.722,56.47V1.49h-33.082v146.744h33.082v-44.202l15.058-18.002
		l35.131,62.204h1.606h36.955v-0.001l-51.646-87.579l49.336-59.163L445.709,1.49L445.709,1.49z"/>
</g>
</svg>
