<?xml version="1.0" encoding="utf-8"?>
<!-- Generator: Adobe Illustrator 16.0.0, SVG Export Plug-In . SVG Version: 6.00 Build 0)  -->
<!DOCTYPE svg PUBLIC "-//W3C//DTD SVG 1.1//EN" "http://www.w3.org/Graphics/SVG/1.1/DTD/svg11.dtd">
<svg version="1.1" id="Layer_1" xmlns="http://www.w3.org/2000/svg" xmlns:xlink="http://www.w3.org/1999/xlink" x="0px" y="0px"
	 width="796.656px" height="205px" viewBox="0 0 796.656 205" enable-background="new 0 0 796.656 205" xml:space="preserve">
<g>
	<path d="M217.548,70.979c0,7.131,1.518,12.539,4.555,16.225s7.449,5.527,13.235,5.527c5.835,0,10.24-1.836,13.217-5.51
		c2.977-3.673,4.466-9.087,4.466-16.242c0-7.082-1.483-12.455-4.448-16.117c-2.965-3.66-7.353-5.491-13.162-5.491
		c-5.835,0-10.271,1.843-13.309,5.528S217.548,63.944,217.548,70.979L217.548,70.979z M259.504,70.979
		c0,8.428-2.131,15.054-6.393,19.88c-4.261,4.827-10.186,7.239-17.773,7.239c-7.756,0-13.739-2.371-17.952-7.113
		c-4.215-4.741-6.322-11.435-6.322-20.078c0-8.571,2.112-15.217,6.338-19.934c4.227-4.718,10.229-7.077,18.009-7.077
		c7.562,0,13.469,2.4,17.718,7.203C257.38,55.901,259.504,62.527,259.504,70.979L259.504,70.979z"/>
	<path d="M287.848,62.263c-4.034,0-6.952,1.116-8.751,3.35c-1.802,2.232-2.726,5.786-2.774,10.66v1.333
		c0,5.546,0.925,9.515,2.774,11.902c1.848,2.39,4.813,3.583,8.895,3.583c3.409,0,6.081-1.38,8.014-4.142
		c1.933-2.76,2.899-6.565,2.899-11.416c0-4.922-0.966-8.698-2.899-11.326C294.072,63.578,291.353,62.263,287.848,62.263
		L287.848,62.263z M288.713,98.098c-2.57,0-4.917-0.475-7.041-1.422c-2.126-0.949-3.909-2.407-5.35-4.376h-0.432
		c0.289,2.304,0.432,4.49,0.432,6.555v16.241h-5.978v-57.19h4.861l0.828,5.402h0.288c1.537-2.161,3.326-3.721,5.367-4.682
		c2.04-0.96,4.382-1.44,7.023-1.44c5.234,0,9.273,1.788,12.117,5.365c2.846,3.578,4.268,8.596,4.268,15.055
		c0,6.482-1.445,11.519-4.339,15.108C297.866,96.303,293.85,98.098,288.713,98.098L288.713,98.098z"/>
	<path d="M330.597,62.19c-3.168,0-5.696,1.033-7.58,3.099c-1.886,2.064-2.996,4.921-3.332,8.571h20.637
		c0-3.77-0.841-6.657-2.521-8.662C336.121,63.193,333.72,62.19,330.597,62.19L330.597,62.19z M332.219,98.098
		c-5.835,0-10.438-1.776-13.811-5.33c-3.374-3.554-5.061-8.487-5.061-14.802c0-6.363,1.567-11.417,4.7-15.163
		c3.134-3.744,7.341-5.617,12.624-5.617c4.946,0,8.859,1.626,11.741,4.88c2.88,3.253,4.322,7.544,4.322,12.875v3.781h-27.192
		c0.121,4.634,1.291,8.152,3.512,10.553s5.349,3.602,9.382,3.602c4.25,0,8.451-0.889,12.605-2.665v5.329
		c-2.113,0.913-4.112,1.567-5.997,1.964C337.159,97.899,334.884,98.098,332.219,98.098L332.219,98.098z"/>
	<path d="M383.935,97.377V71.843c0-3.217-0.732-5.618-2.198-7.203c-1.464-1.584-3.757-2.377-6.878-2.377
		c-4.13,0-7.155,1.116-9.076,3.35c-1.92,2.232-2.88,5.919-2.88,11.057v20.708h-5.978V57.905h4.861l0.972,5.402h0.289
		c1.226-1.945,2.94-3.452,5.15-4.52c2.208-1.068,4.669-1.603,7.383-1.603c4.754,0,8.33,1.146,10.731,3.438
		c2.401,2.293,3.603,5.961,3.603,11.003v25.75H383.935L383.935,97.377z"/>
	<polygon points="460.286,97.377 453.083,97.377 433.888,71.843 428.377,76.74 428.377,97.377 422.255,97.377 422.255,44.724 
		428.377,44.724 428.377,70.835 452.255,44.724 459.494,44.724 438.319,67.593 460.286,97.377 	"/>
	<path d="M493.636,97.377V71.843c0-3.217-0.732-5.618-2.198-7.203c-1.464-1.584-3.757-2.377-6.877-2.377
		c-4.131,0-7.156,1.116-9.076,3.35c-1.922,2.232-2.881,5.919-2.881,11.057v20.708h-5.979V57.905h4.863l0.972,5.402h0.289
		c1.226-1.945,2.94-3.452,5.15-4.52c2.208-1.068,4.67-1.603,7.384-1.603c4.753,0,8.329,1.146,10.73,3.438
		c2.401,2.293,3.603,5.961,3.603,11.003v25.75H493.636L493.636,97.377z"/>
	<path d="M515.893,77.605c0,5.041,1.008,8.884,3.027,11.524c2.016,2.642,4.981,3.961,8.895,3.961c3.913,0,6.884-1.313,8.914-3.943
		c2.029-2.629,3.043-6.477,3.043-11.542c0-5.019-1.015-8.829-3.043-11.435c-2.029-2.605-5.024-3.908-8.986-3.908
		c-3.915,0-6.866,1.284-8.859,3.854C516.89,68.687,515.893,72.516,515.893,77.605L515.893,77.605z M545.964,77.605
		c0,6.435-1.619,11.458-4.861,15.071c-3.241,3.614-7.719,5.421-13.433,5.421c-3.531,0-6.661-0.828-9.399-2.485
		c-2.738-1.656-4.853-4.033-6.34-7.131c-1.488-3.097-2.232-6.722-2.232-10.876c0-6.435,1.609-11.447,4.827-15.036
		c3.217-3.59,7.682-5.384,13.396-5.384c5.522,0,9.909,1.836,13.164,5.51C544.339,66.369,545.964,71.339,545.964,77.605
		L545.964,77.605z"/>
	<path d="M588.68,97.377l-7.24-23.157c-0.454-1.416-1.308-4.634-2.557-9.652h-0.286c-0.961,4.202-1.803,7.443-2.522,9.725
		l-7.454,23.085h-6.916l-10.769-39.472h6.266c2.547,9.916,4.483,17.468,5.819,22.653c1.331,5.187,2.093,8.68,2.283,10.48h0.29
		c0.263-1.369,0.69-3.139,1.277-5.312c0.59-2.173,1.101-3.895,1.533-5.168l7.238-22.653h6.483l7.058,22.653
		c1.346,4.129,2.257,7.599,2.736,10.408h0.289c0.095-0.864,0.354-2.196,0.773-3.998c0.42-1.801,2.923-11.489,7.51-29.063h6.193
		l-10.913,39.472H588.68L588.68,97.377z"/>
	<polygon points="619.795,97.377 613.817,97.377 613.817,41.339 619.795,41.339 619.795,97.377 	"/>
	<path d="M647.527,62.19c-3.168,0-5.696,1.033-7.582,3.099c-1.885,2.064-2.994,4.921-3.331,8.571h20.637
		c0-3.77-0.839-6.657-2.521-8.662C653.049,63.193,650.647,62.19,647.527,62.19L647.527,62.19z M649.148,98.098
		c-5.834,0-10.439-1.776-13.812-5.33c-3.374-3.554-5.062-8.487-5.062-14.802c0-6.363,1.566-11.417,4.7-15.163
		c3.134-3.744,7.341-5.617,12.624-5.617c4.946,0,8.859,1.626,11.74,4.88c2.881,3.253,4.321,7.544,4.321,12.875v3.781h-27.19
		c0.12,4.634,1.289,8.152,3.511,10.553c2.22,2.4,5.35,3.602,9.384,3.602c4.248,0,8.45-0.889,12.603-2.665v5.329
		c-2.11,0.913-4.109,1.567-5.995,1.964C654.087,97.899,651.812,98.098,649.148,98.098L649.148,98.098z"/>
	<path d="M688.763,93.091c4.083,0,7.043-1.109,8.878-3.33c1.837-2.221,2.755-5.804,2.755-10.75V77.75
		c0-5.595-0.93-9.586-2.791-11.976c-1.86-2.39-4.831-3.584-8.913-3.584c-3.504,0-6.189,1.363-8.051,4.089
		c-1.859,2.725-2.791,6.572-2.791,11.542c0,5.042,0.925,8.848,2.775,11.417C682.474,91.808,685.188,93.091,688.763,93.091
		L688.763,93.091z M700.721,92.083h-0.325c-2.76,4.01-6.892,6.015-12.387,6.015c-5.165,0-9.179-1.765-12.049-5.294
		c-2.868-3.529-4.304-8.547-4.304-15.054c0-6.508,1.44-11.562,4.321-15.162c2.883-3.603,6.893-5.402,12.031-5.402
		c5.354,0,9.457,1.944,12.316,5.833h0.468l-0.252-2.845l-0.146-2.773V41.339h5.98v56.038h-4.862L700.721,92.083L700.721,92.083z"/>
	<path d="M723.122,70.546c0,2.762,0.779,4.851,2.34,6.268s3.733,2.124,6.519,2.124c5.834,0,8.752-2.832,8.752-8.5
		c0-5.93-2.952-8.895-8.859-8.895c-2.811,0-4.971,0.756-6.481,2.269C723.878,65.324,723.122,67.569,723.122,70.546L723.122,70.546z
		 M719.88,104.004c0,2.136,0.901,3.757,2.701,4.862c1.8,1.103,4.382,1.655,7.742,1.655c5.019,0,8.735-0.751,11.147-2.251
		c2.414-1.501,3.619-3.534,3.619-6.103c0-2.138-0.661-3.621-1.98-4.449c-1.32-0.828-3.806-1.242-7.455-1.242h-7.166
		c-2.714,0-4.827,0.648-6.34,1.945C720.637,99.719,719.88,101.579,719.88,104.004L719.88,104.004z M751.357,57.905v3.781
		l-7.312,0.864c0.675,0.841,1.274,1.939,1.803,3.296s0.791,2.887,0.791,4.591c0,3.866-1.319,6.952-3.961,9.256
		c-2.642,2.306-6.266,3.458-10.876,3.458c-1.178,0-2.281-0.096-3.313-0.288c-2.547,1.346-3.818,3.037-3.818,5.078
		c0,1.081,0.443,1.879,1.334,2.396c0.886,0.517,2.412,0.774,4.573,0.774h6.986c4.273,0,7.557,0.899,9.851,2.701
		c2.292,1.8,3.439,4.417,3.439,7.852c0,4.367-1.753,7.699-5.259,9.992s-8.619,3.439-15.343,3.439c-5.162,0-9.142-0.961-11.938-2.881
		c-2.796-1.922-4.195-4.635-4.195-8.139c0-2.401,0.768-4.479,2.305-6.23c1.536-1.753,3.697-2.941,6.483-3.565
		c-1.011-0.456-1.854-1.165-2.541-2.125c-0.683-0.961-1.024-2.076-1.024-3.35c0-1.44,0.382-2.701,1.151-3.781
		c0.769-1.08,1.982-2.125,3.639-3.134c-2.042-0.84-3.705-2.269-4.989-4.285c-1.284-2.018-1.927-4.321-1.927-6.915
		c0-4.321,1.298-7.653,3.89-9.994c2.594-2.341,6.267-3.511,11.021-3.511c2.065,0,3.926,0.239,5.583,0.72H751.357L751.357,57.905z"/>
	<path d="M774.514,62.19c-3.167,0-5.695,1.033-7.581,3.099c-1.884,2.064-2.994,4.921-3.33,8.571h20.638
		c0-3.77-0.842-6.657-2.521-8.662C780.037,63.193,777.636,62.19,774.514,62.19L774.514,62.19z M776.137,98.098
		c-5.834,0-10.439-1.776-13.812-5.33s-5.062-8.487-5.062-14.802c0-6.363,1.567-11.417,4.7-15.163
		c3.134-3.744,7.342-5.617,12.625-5.617c4.945,0,8.858,1.626,11.741,4.88c2.88,3.253,4.32,7.544,4.32,12.875v3.781h-27.19
		c0.12,4.634,1.29,8.152,3.511,10.553c2.22,2.4,5.351,3.602,9.384,3.602c4.248,0,8.449-0.889,12.603-2.665v5.329
		c-2.11,0.913-4.11,1.567-5.996,1.964C781.075,97.899,778.801,98.098,776.137,98.098L776.137,98.098z"/>
	<polygon points="219.924,162.938 213.802,162.938 213.802,110.285 243.155,110.285 243.155,115.724 219.924,115.724 
		219.924,134.991 241.75,134.991 241.75,140.43 219.924,140.43 219.924,162.938 	"/>
	<path d="M254.966,143.167c0,5.042,1.009,8.884,3.026,11.526c2.016,2.64,4.981,3.96,8.896,3.96c3.912,0,6.884-1.314,8.913-3.944
		c2.029-2.627,3.045-6.477,3.045-11.542c0-5.019-1.016-8.829-3.045-11.435c-2.028-2.605-5.023-3.907-8.985-3.907
		c-3.914,0-6.867,1.284-8.86,3.854C255.962,134.248,254.966,138.077,254.966,143.167L254.966,143.167z M285.038,143.167
		c0,6.436-1.621,11.459-4.861,15.071c-3.242,3.614-7.72,5.422-13.434,5.422c-3.529,0-6.662-0.828-9.399-2.486
		c-2.738-1.656-4.851-4.033-6.339-7.131c-1.489-3.097-2.232-6.722-2.232-10.876c0-6.435,1.609-11.446,4.826-15.036
		s7.683-5.383,13.398-5.383c5.521,0,9.909,1.835,13.163,5.509C283.412,131.932,285.038,136.9,285.038,143.167L285.038,143.167z"/>
	<path d="M301.137,123.467v25.606c0,3.218,0.732,5.62,2.198,7.203c1.464,1.585,3.757,2.377,6.878,2.377
		c4.129,0,7.15-1.128,9.059-3.385c1.908-2.258,2.863-5.943,2.863-11.058v-20.744h5.979v39.472h-4.934l-0.865-5.294h-0.323
		c-1.226,1.944-2.924,3.434-5.097,4.466c-2.173,1.032-4.652,1.55-7.437,1.55c-4.802,0-8.397-1.142-10.787-3.422
		s-3.584-5.931-3.584-10.948v-25.823H301.137L301.137,123.467z"/>
	<path d="M367.802,162.938v-25.534c0-3.217-0.733-5.617-2.198-7.203c-1.465-1.584-3.758-2.376-6.878-2.376
		c-4.13,0-7.155,1.115-9.076,3.349c-1.921,2.232-2.881,5.919-2.881,11.057v20.708h-5.979v-39.472h4.862l0.973,5.402h0.288
		c1.224-1.944,2.94-3.452,5.149-4.52c2.208-1.068,4.67-1.602,7.384-1.602c4.752,0,8.33,1.146,10.731,3.438
		c2.401,2.292,3.602,5.961,3.602,11.002v25.75H367.802L367.802,162.938z"/>
	<path d="M400.97,158.653c4.081,0,7.041-1.11,8.877-3.331c1.839-2.221,2.757-5.804,2.757-10.75v-1.261
		c0-5.595-0.931-9.586-2.791-11.976c-1.861-2.389-4.833-3.583-8.916-3.583c-3.505,0-6.189,1.362-8.049,4.089
		c-1.861,2.724-2.791,6.572-2.791,11.541c0,5.043,0.924,8.848,2.773,11.417C394.679,157.369,397.392,158.653,400.97,158.653
		L400.97,158.653z M412.927,157.645h-0.323c-2.763,4.011-6.893,6.016-12.391,6.016c-5.162,0-9.177-1.766-12.046-5.295
		c-2.87-3.529-4.304-8.546-4.304-15.054c0-6.506,1.44-11.562,4.321-15.162c2.882-3.603,6.891-5.401,12.028-5.401
		c5.354,0,9.46,1.943,12.318,5.834H413l-0.254-2.847l-0.142-2.772V106.9h5.977v56.038h-4.861L412.927,157.645L412.927,157.645z"/>
	<path d="M442.028,158.725c3.72,0,6.645-1.02,8.768-3.061c2.125-2.04,3.189-4.898,3.189-8.571v-3.565l-5.98,0.252
		c-4.753,0.168-8.181,0.907-10.281,2.215c-2.102,1.309-3.152,3.345-3.152,6.104c0,2.162,0.655,3.806,1.963,4.935
		C437.844,158.161,439.674,158.725,442.028,158.725L442.028,158.725z M455.532,162.938l-1.188-5.618h-0.289
		c-1.969,2.474-3.931,4.147-5.887,5.023c-1.959,0.877-4.401,1.316-7.33,1.316c-3.913,0-6.982-1.009-9.202-3.026
		c-2.222-2.017-3.331-4.885-3.331-8.607c0-7.971,6.373-12.148,19.123-12.533l6.699-0.216v-2.448c0-3.099-0.665-5.385-2-6.861
		c-1.333-1.476-3.463-2.215-6.393-2.215c-3.291,0-7.011,1.008-11.165,3.024l-1.837-4.573c1.944-1.056,4.076-1.886,6.394-2.485
		c2.315-0.6,4.64-0.9,6.967-0.9c4.707,0,8.196,1.045,10.465,3.134s3.403,5.438,3.403,10.047v26.939H455.532L455.532,162.938z"/>
	<path d="M485.029,158.725c1.056,0,2.077-0.077,3.061-0.233c0.984-0.155,1.766-0.317,2.34-0.486v4.574
		c-0.649,0.312-1.602,0.57-2.862,0.775c-1.261,0.202-2.396,0.306-3.405,0.306c-7.633,0-11.45-4.022-11.45-12.066v-23.481h-5.655
		v-2.881l5.655-2.483l2.52-8.429h3.457v9.147h11.453v4.646h-11.453v23.23c0,2.376,0.563,4.202,1.693,5.474
		C481.511,158.091,483.061,158.725,485.029,158.725L485.029,158.725z"/>
	<path d="M504.298,162.938h-5.98v-39.472h5.98V162.938L504.298,162.938z M497.814,112.771c0-1.368,0.336-2.371,1.008-3.008
		c0.672-0.635,1.514-0.954,2.521-0.954c0.961,0,1.789,0.325,2.485,0.973c0.696,0.649,1.044,1.646,1.044,2.989
		c0,1.345-0.349,2.348-1.044,3.008c-0.696,0.661-1.524,0.99-2.485,0.99c-1.008,0-1.849-0.329-2.521-0.99
		C498.15,115.118,497.814,114.115,497.814,112.771L497.814,112.771z"/>
	<path d="M520.972,143.167c0,5.042,1.01,8.884,3.024,11.526c2.019,2.64,4.983,3.96,8.898,3.96c3.913,0,6.883-1.314,8.912-3.944
		c2.028-2.627,3.044-6.477,3.044-11.542c0-5.019-1.016-8.829-3.044-11.435c-2.029-2.605-5.025-3.907-8.987-3.907
		c-3.913,0-6.867,1.284-8.858,3.854C521.969,134.248,520.972,138.077,520.972,143.167L520.972,143.167z M551.045,143.167
		c0,6.436-1.623,11.459-4.863,15.071c-3.242,3.614-7.719,5.422-13.434,5.422c-3.529,0-6.663-0.828-9.401-2.486
		c-2.736-1.656-4.848-4.033-6.337-7.131c-1.487-3.097-2.233-6.722-2.233-10.876c0-6.435,1.608-11.446,4.825-15.036
		c3.217-3.59,7.684-5.383,13.399-5.383c5.521,0,9.91,1.835,13.164,5.509C549.416,131.932,551.045,136.9,551.045,143.167
		L551.045,143.167z"/>
	<path d="M588.534,162.938v-25.534c0-3.217-0.731-5.617-2.196-7.203c-1.465-1.584-3.758-2.376-6.879-2.376
		c-4.129,0-7.155,1.115-9.077,3.349c-1.919,2.232-2.88,5.919-2.88,11.057v20.708h-5.978v-39.472h4.86l0.975,5.402h0.287
		c1.224-1.944,2.94-3.452,5.148-4.52c2.21-1.068,4.671-1.602,7.384-1.602c4.753,0,8.332,1.146,10.733,3.438
		c2.401,2.292,3.6,5.961,3.6,11.002v25.75H588.534L588.534,162.938z"/>
	<path d="M96.442,188.303c-32.53,0-53.24-17.133-64.117-40.466l32.798-45.889l16.406,15.304v34.468h13.098v-98.44H81.529v49.083
		L33.366,54.998C44.5,32.776,64.925,16.696,96.442,16.696c30.536,0,50.645,15.256,61.935,36.583H97.958v98.44h13.097v-45.085h45.223
		V95.605h-45.223V64.31h51.565l0.635,0.001c4.352,11.937,6.42,25.087,6.42,38.188C169.676,145.128,147.816,188.303,96.442,188.303
		L96.442,188.303z M22.935,102.499c0-12.275,1.816-24.594,5.631-35.914l27.593,26.401l-29.288,39.861
		C24.213,123.107,22.935,112.788,22.935,102.499L22.935,102.499z M96.442,2.499c-62.472,0-90.436,50.225-90.436,100
		c0,49.773,27.964,100.001,90.436,100.001c62.284,0,90.163-50.228,90.163-100.001C186.604,52.724,158.726,2.499,96.442,2.499
		L96.442,2.499z"/>
</g>
</svg>
