<!DOCTYPE svg PUBLIC "-//W3C//DTD SVG 1.1//EN" "http://www.w3.org/Graphics/SVG/1.1/DTD/svg11.dtd">
<svg version="1.1" id="animation" xmlns="http://www.w3.org/2000/svg" xmlns:xlink="http://www.w3.org/1999/xlink" x="0px" y="0px"
	 width="2091px" height="800px" viewBox="0 0 2091 800" style="enable-background:new 0 0 2091 800;" xml:space="preserve">
<style type="text/css">#red{mix-blend-mode: multiply;}</style>
<g id="p">
	<path id="blue" style="fill:#009ACE;" d="M1101.3,110.8l51.9,15.8l58.6,95.7l-58.6,99.2c0,0-65.3,17.2-90.6,23.3H1005v147.8
		l58.2,19.1l-1.2,16l-94.4-1.2l-83.1,1.2l-1.8-16l46.9-19.1V143l-46.9-16.2l1.8-16H1101.3z M1005,314.9l42.8,8.5l80.5-55.6
		l26.8-45.5l-26.2-42.3l-75.8-43.3l-48.1,4.2V314.9z"/>
	<path id="red" style="fill:#FF0080;" d="M1149.2,123.9l51.9,15.8l58.6,95.7l-58.6,99.2c0,0-65.3,17.2-90.6,23.3h-57.6v147.8
		l58.2,19.1l-1.2,16l-94.4-1.2l-83.1,1.2l-1.8-16l46.9-19.1V156.1l-46.9-16.2l1.8-16L1149.2,123.9z M1052.9,328l42.8,8.5l80.5-55.6
		l26.8-45.5l-26.2-42.3l-75.8-43.3l-48.1,4.2V328z"/>
</g>
<g id="logo-text">
	<g>
		<g>
			<path style="fill:#1D1D1B;" d="M886.8,561.3h14.6c11.5,0,21.3,5.8,21.3,17.2c0,12.2-10.4,17.7-22.1,17.7h-6.1l0,21.3h-7.8
				L886.8,561.3z M894.5,589.7l6.2-0.1c5.1,0,13.9-1.9,13.9-11.1c0-8.8-8.5-10.8-13-10.8l-7.1-0.1V589.7z"/>
			<path style="fill:#1D1D1B;" d="M928.7,588.6c0-3.5-0.1-6.9-0.5-10.2h7l0.4,10.2h0.5c1.3-5.1,5.7-10.8,11.4-10.8
				c2.2,0,3.8,0.5,5,1.1v6.7c-1.1-0.5-2.8-1-4.4-1c-7.4,0-11.6,7.3-12,15.6l0,17.4h-7.4L928.7,588.6z"/>
			<path style="fill:#1D1D1B;" d="M974.4,577.4c13.4,0,19.2,11.8,19.2,20.6c0,10.4-6.8,20.8-19.2,20.8c-12.4,0-19.6-9.9-19.6-20.9
				C954.8,589,960.9,577.4,974.4,577.4z M974.3,613.3c6,0,11.7-4.8,11.7-15.4c0-9.9-5.4-15-11.7-15c-5.1,0-11.8,3.3-11.8,15
				C962.5,606,966.1,613.3,974.3,613.3z"/>
			<path style="fill:#1D1D1B;" d="M997,578.4h6.4l1.3-11.7h5.8v11.7h11.1v5.6h-11.1l0,22c0,3.5,1.8,5.6,5.4,5.6
				c2.2,0,4.6-0.7,5.7-1.2v5.8c-1.3,0.9-3.9,1.9-6.5,1.9c-7.6,0-11.8-4.5-11.8-12.1l0-22.1H997V578.4z"/>
			<path style="fill:#1D1D1B;" d="M1045.1,577.4c13.4,0,19.2,11.8,19.2,20.6c0,10.4-6.8,20.8-19.2,20.8c-12.4,0-19.6-9.9-19.6-20.9
				C1025.6,589,1031.6,577.4,1045.1,577.4z M1045,613.3c6,0,11.7-4.8,11.7-15.4c0-9.9-5.4-15-11.7-15c-5.1,0-11.8,3.3-11.8,15
				C1033.2,606,1036.9,613.3,1045,613.3z"/>
			<path style="fill:#1D1D1B;" d="M1067.8,578.4h6.4l1.3-11.7h5.8v11.7h11.1v5.6h-11.1l0,22c0,3.5,1.8,5.6,5.4,5.6
				c2.2,0,4.6-0.7,5.7-1.2v5.8c-1.3,0.9-3.9,1.9-6.5,1.9c-7.6,0-11.8-4.5-11.8-12.1V584h-6.2V578.4z"/>
			<path style="fill:#1D1D1B;" d="M1116.2,625.3c-2.3,6.1-6.3,7.9-11.1,7.9c-1.6,0-3.8-0.3-5.1-0.8v-6.2c1.1,0.4,3.2,0.7,4.2,0.7
				c2.6,0,4.1-0.9,5.1-3.2c0.8-1.6,2-5,2.3-6.2c0.4-1.7-0.7-2.7-2.3-2.6l-14-36.5h8.1l10.9,31h0.5l9.5-31h7.6
				C1119.1,617.5,1118.1,620.4,1116.2,625.3z"/>
			<path style="fill:#1D1D1B;" d="M1144.5,632.6h-7.3l0-48.4c0-1.6-0.1-4.2-0.2-5.8h6.9c0.1,1.5,0.1,4.4,0.1,5.8h0.5
				c2.6-4.1,6.5-6.5,11.6-6.5c10.8,0,16.7,9.6,16.7,20.4c0,11.3-6,20.4-16.3,20.4c-7,0-10.4-4.6-11.5-6.3h-0.5c0,0,0.1,2.7,0.1,5.3
				V632.6z M1154.4,583.4c-5.5,0-9.6,5.7-9.9,9.7v9.4c0.2,4.3,4.1,10.4,10.2,10.4c7.2,0,10.4-6.8,10.4-14.8
				C1165.1,589.3,1161.6,583.4,1154.4,583.4z"/>
			<path style="fill:#1D1D1B;" d="M1183.1,599c0.1,8.1,4,14,11.5,14c4.8,0,8.4-3.1,9.3-7.6h7.2c-0.9,6.5-6.7,13.2-16.9,13.2
				c-11,0-18.3-8.3-18.3-21c0-11,6.9-20.3,17.8-20.3c14.3,0,18.3,12.4,17.3,21.6H1183.1z M1203.8,593.5c0.1-3.7-1.9-10.8-9.9-10.8
				c-5.2,0-9.7,3.8-10.4,11L1203.8,593.5z"/>
		</g>
		<g>
			<path style="fill:#1D1D1B;" d="M886.8,634.8h31.4v6.6h-23.4V660h22.1v6.5h-22.1l0,24.5h-7.9L886.8,634.8z"/>
			<path style="fill:#1D1D1B;" d="M957.7,652l0,32.4c0,1.9,0.2,4.7,0.5,6.7h-7.6c-0.2-1.6-0.2-4.5-0.1-6.8h-0.5
				c-0.9,1.6-4.8,7.3-12.7,7.3c-5.2,0-13.3-2.9-13.3-14.7l0-24.9h7.5l0,25c0,5.1,2.3,8.7,7.4,8.7c5.3,0,9.9-4.7,11.1-11.5V652H957.7
				z"/>
			<path style="fill:#1D1D1B;" d="M964.9,658.7c0-1.9-0.1-4.4-0.4-6.7h7.6v6.7h0.5c1-1.8,5.3-7.5,12.6-7.5c4.7,0,12.9,2.6,12.9,14.4
				l0,25.5h-7.5l0-25.6c0-5.4-2.4-8.6-6.9-8.6c-5.4,0-9.9,5-11.4,11.5v22.7h-7.4L964.9,658.7z"/>
			<path style="fill:#1D1D1B;" d="M1031.1,634.8h7.3l0,50.5c0,1.6,0,4.2,0.2,5.8h-6.6c-0.1-1.6-0.1-4.1-0.1-5.8h-0.5
				c-2.6,4.1-6.5,6.5-11.6,6.5c-11,0-16.9-9.6-16.9-20.4c0-11.3,6-20.4,16.3-20.4c7,0,10.4,4.6,11.5,6.3h0.5c0,0-0.1-2.6-0.1-5.3
				V634.8z M1021.3,686.1c5.5,0,9.5-5.6,9.8-9.7v-9.5c-0.2-4.3-4.1-10.4-10.2-10.4c-7.2,0-10.4,6.8-10.4,14.8
				C1010.5,680.2,1014.1,686.1,1021.3,686.1z"/>
		</g>
	</g>
</g>
<g id="million-text">
	<g>
		<path d="M582,319h-0.6c-1.5,2.7-15,24.8-20.9,31.3v-14c4.8-5.7,15.5-21.3,18.5-26.7h12.3v68.8H582V319z"/>
		<path d="M610.6,388.2h-7.3c4.5-3.5,7.4-6.5,9.2-9.7c0.4-0.7,0.1-1.5-0.8-1.5c-3.9,0-7-2.8-7-6.9c0-4,3.2-6.9,7.2-6.9
			c3.9,0,7.1,2.6,7.3,6.9c0.1,1.5,0,3.1-0.4,4.7C617.6,379.1,614.5,384.1,610.6,388.2z"/>
		<path d="M632.1,378.5c0,0-0.3-4.4,0-7.4c1.2-12.4,7.3-18.3,14.9-23c3.2-2,6.4-4.3,9.8-7c4.1-3.1,7.3-7,7.3-13.3
			c0-6.2-4.1-11.5-10.9-11.5c-9.3,0-12.3,8.2-11.5,15H632c-1.1-12.8,7.5-23.1,21.4-23.1c12.4,0,20.4,9.1,20.4,20.1
			c0,8.2-4.3,14.6-11.3,19.9c-3.4,2.5-7.6,5.2-11,7.2c-4.4,2.6-11,6.8-10.5,15.2h31.9v8H632.1z"/>
		<path d="M720.3,306.7h12.3l18.1,56.2h0.6l17.6-56.2h12.2l9.8,71.7h-10.1l-7-56.9h-0.7l-18.7,58.2h-7.3l-19.1-58.2h-0.7l-6.9,56.9
			h-10.1L720.3,306.7z"/>
		<path d="M807.1,306.7c3.5,0,6.2,2.5,6.2,6.1c0,3.6-2.7,6-6.2,6c-3.5,0-6.1-2.4-6.1-6C801,309.2,803.6,306.7,807.1,306.7z
			 M802.4,328.6h9.3v49.9h-9.3V328.6z"/>
		<path d="M834,378.5h-9.3v-71.7h8.3l1,20.2V378.5z"/>
		<path d="M856.2,378.5h-9.3v-71.7h8.3l1,20.2V378.5z"/>
		<path d="M873.8,306.7c3.5,0,6.2,2.5,6.2,6.1c0,3.6-2.7,6-6.2,6c-3.5,0-6.1-2.4-6.1-6C867.8,309.2,870.3,306.7,873.8,306.7z
			 M869.2,328.6h9.3v49.9h-9.3V328.6z"/>
		<path d="M913.9,327.3c17.1,0,24.5,15.1,24.5,26.3c0,13.2-8.6,26.5-24.5,26.5c-15.8,0-24.9-12.6-24.9-26.6
			C888.9,342,896.7,327.3,913.9,327.3z M913.8,373.1c7.6,0,14.9-6.1,14.9-19.7c0-12.6-6.9-19.1-14.9-19.1c-6.5,0-15.1,4.2-15.1,19.2
			C898.7,363.7,903.3,373.1,913.8,373.1z"/>
		<path d="M948.8,337.1c0-2.5-0.1-5.7-0.5-8.5h9.6v8.5h0.6c1.3-2.3,6.8-9.5,16.1-9.5c6,0,16.5,3.3,16.5,18.4v32.5h-9.5v-32.7
			c0-6.9-3.1-10.9-8.7-10.9c-6.9,0-12.6,6.4-14.6,14.6v29h-9.4V337.1z"/>
		<path d="M1010.3,354.8c0.1,10.3,5.1,17.9,14.6,17.9c6.2,0,10.7-4,11.9-9.6h9.1c-1.1,8.2-8.5,16.9-21.6,16.9
			c-14,0-23.3-10.6-23.3-26.8c0-14,8.7-25.8,22.7-25.8c18.3,0,23.3,15.8,22.1,27.5H1010.3z M1036.6,347.9
			c0.1-4.8-2.5-13.8-12.6-13.8c-6.7,0-12.4,4.9-13.3,14L1036.6,347.9z"/>
		<path d="M1056.5,337.1c0-2.5-0.1-5.7-0.5-8.5h9.6v8.5h0.6c1.3-2.3,6.8-9.5,16.1-9.5c6,0,16.5,3.3,16.5,18.4v32.5h-9.5v-32.7
			c0-6.9-3.1-10.9-8.7-10.9c-6.9,0-12.6,6.4-14.6,14.6v29h-9.4V337.1z"/>
		<path d="M1169.2,334.9v6.2h-20.9c0,0-0.1,1.2-0.1,2.9c0,1.9,0.1,2.9,0.1,2.9h17.7v6.2h-17c1.2,9.6,5.4,18.9,14.8,18.9
			c3.5,0,10.8-1,11.2-12.4h9.2c-0.5,13-9.6,20.2-20.7,20.2c-14.9,0-22.1-12.9-24.1-26.6h-6.9v-6.2h6.3c0,0-0.1-1.5-0.1-3
			c0-1.5,0.1-2.8,0.1-2.8h-6.3v-6.2h6.9c2-13.7,9.5-26.7,24.4-26.7c11,0,19.7,7.2,20.3,20.4h-9.1c-0.3-11.7-7.6-12.9-11.3-12.9
			c-9.9,0-13.5,9.8-14.8,19.3H1169.2z"/>
		<path d="M1239.2,313.8c-6-1-8.1,2.8-8.1,7.3v7.5h9.1v7.3h-9.1v42.6h-9.2v-42.6h-8.2v-7.3h8.2v-7.3c0-9.1,4.5-15.3,13.9-15.3
			c1.3,0,2.5,0.1,3.5,0.4V313.8z"/>
		<path d="M1291.9,328.6v41.3c0,2.5,0.2,6,0.7,8.5h-9.6c-0.2-2.1-0.2-5.8-0.1-8.6h-0.6c-1.1,2.1-6.2,9.3-16.2,9.3
			c-6.7,0-17-3.7-17-18.8v-31.8h9.5v31.9c0,6.6,3,11.1,9.4,11.1c6.8,0,12.6-6,14.2-14.6v-28.4H1291.9z M1261.3,308.2
			c3.5,0,6.3,2.5,6.3,6.2s-2.8,6.1-6.3,6.1c-3.5,0-6.2-2.4-6.2-6.1S1257.9,308.2,1261.3,308.2z M1279.7,308.2c3.5,0,6.3,2.5,6.3,6.2
			s-2.8,6.1-6.3,6.1c-3.5,0-6.2-2.4-6.2-6.1S1276.2,308.2,1279.7,308.2z"/>
		<path d="M1305.1,341.6c0-4.5-0.1-8.7-0.6-13h8.9l0.5,13h0.6c1.7-6.5,7.3-13.8,14.5-13.8c2.8,0,4.9,0.7,6.4,1.4v8.5
			c-1.4-0.7-3.6-1.3-5.6-1.3c-9.4,0-14.8,9.3-15.3,19.9v22.2h-9.4V341.6z"/>
		<path d="M597.9,499.3c-19.2,0-35.4-15-35.4-38c0-19.4,13.7-37.3,35.5-37.3c21.8,0,35.7,17.3,35.7,37.6
			C633.6,485.3,616.9,499.3,597.9,499.3z M597.9,432.4c-15.4,0-25,13.2-25,29.1c0,16.9,9.7,29.4,25,29.4c16.6,0,25.4-13.5,25.4-29.3
			C623.3,443.8,612.6,432.4,597.9,432.4z"/>
		<path d="M653.4,516.8h-9.3v-61.7c0-2.1-0.1-5.4-0.2-7.4h8.7c0.1,1.9,0.1,5.6,0.1,7.5h0.6c3.4-5.2,8.2-8.3,14.8-8.3
			c13.8,0,21.3,12.2,21.3,26c0,14.4-7.6,26-20.8,26c-8.9,0-13.3-5.9-14.7-8h-0.6c0,0,0.1,3.5,0.1,6.8V516.8z M666,454.1
			c-7,0-12.2,7.3-12.6,12.4v12c0.2,5.5,5.2,13.2,13,13.2c9.1,0,13.2-8.6,13.2-18.9C679.6,461.7,675.1,454.1,666,454.1z"/>
		<path d="M706.5,474c0.1,10.3,5.1,17.9,14.6,17.9c6.2,0,10.7-4,11.9-9.6h9.1c-1.1,8.2-8.5,16.9-21.6,16.9
			c-14,0-23.3-10.6-23.3-26.8c0-14,8.7-25.8,22.7-25.8c18.3,0,23.3,15.8,22.1,27.5H706.5z M732.9,467.1c0.1-4.8-2.5-13.8-12.6-13.8
			c-6.7,0-12.4,4.9-13.3,14L732.9,467.1z"/>
		<path d="M752.7,456.3c0-2.5-0.1-5.7-0.5-8.5h9.6v8.5h0.6c1.3-2.3,6.8-9.5,16.1-9.5c6,0,16.5,3.3,16.5,18.4v32.5h-9.5V465
			c0-6.9-3.1-10.9-8.7-10.9c-6.9,0-12.6,6.4-14.6,14.6v29h-9.4V456.3z"/>
		<path d="M805.5,467.8h25.8v7.5h-25.8V467.8z"/>
		<path d="M850.1,476c0.1,5.3,2.6,14.9,15.8,14.9c11.7,0,15-7.2,15-11.6c0-7.7-5.4-10.4-17.1-13c-12.6-2.8-22.9-9.3-22.9-21.3
			c0-13.4,10.6-20.9,23.9-20.9c13.1,0,23.4,7.3,24.2,20.9h-10.2c-0.5-8.9-7.2-12.6-14.2-12.6c-8.3,0-13.8,5.4-13.8,12.1
			c0,8,7.6,10.7,17.2,12.9c13.8,3.2,23,8.6,23,20.8c0,12.5-9.8,21.2-25.9,21.2c-11.3,0-25-5.6-25.3-23.3H850.1z"/>
		<path d="M923.9,446.5c17.1,0,24.5,15.1,24.5,26.3c0,13.2-8.6,26.5-24.5,26.5c-15.8,0-24.9-12.6-24.9-26.6
			C899,461.2,906.7,446.5,923.9,446.5z M923.8,492.3c7.6,0,14.9-6.1,14.9-19.7c0-12.6-6.9-19.1-14.9-19.1c-6.5,0-15.1,4.2-15.1,19.2
			C908.7,483,913.4,492.3,923.8,492.3z"/>
		<path d="M1001.7,447.8v41.3c0,2.5,0.2,6,0.7,8.5h-9.6c-0.2-2.1-0.2-5.8-0.1-8.6H992c-1.1,2.1-6.2,9.3-16.2,9.3
			c-6.7,0-17-3.7-17-18.8v-31.8h9.5v31.9c0,6.6,3,11.1,9.4,11.1c6.8,0,12.6-6,14.2-14.6v-28.4H1001.7z"/>
		<path d="M1014.8,460.8c0-4.5-0.1-8.7-0.6-13h8.9l0.5,13h0.6c1.7-6.5,7.3-13.8,14.5-13.8c2.8,0,4.9,0.7,6.4,1.4v8.5
			c-1.4-0.7-3.6-1.3-5.6-1.3c-9.4,0-14.8,9.3-15.3,19.9v22.2h-9.4V460.8z"/>
		<path d="M1082.6,463.8c-0.3-3.7-3.6-10-11-10c-9.3,0-13.8,8.5-13.8,19.1c0,10.3,4.9,18.7,13.9,18.7c7.1,0,10.7-5.6,11.6-10.5h9.4
			c-1.7,9.6-8.7,18-21.1,18c-14.3,0-23.7-11.2-23.7-26c0-16.2,10.5-26.4,23.8-26.4c10.7,0,19.5,7.5,20.5,17.3H1082.6z"/>
		<path d="M1109,474c0.1,10.3,5.1,17.9,14.6,17.9c6.2,0,10.7-4,11.9-9.6h9.1c-1.1,8.2-8.5,16.9-21.6,16.9c-14,0-23.3-10.6-23.3-26.8
			c0-14,8.7-25.8,22.7-25.8c18.3,0,23.3,15.8,22.1,27.5H1109z M1135.3,467.1c0.1-4.8-2.5-13.8-12.6-13.8c-6.7,0-12.4,4.9-13.3,14
			L1135.3,467.1z"/>
		<path d="M1153.2,467.8h25.8v7.5h-25.8V467.8z"/>
		<path d="M1190.4,425.9h18.7c14.7,0,27.2,7.4,27.2,22c0,15.5-13.3,22.6-28.2,22.6h-7.7v27.2h-9.9V425.9z M1200.2,462.1l7.8-0.1
			c6.6,0,17.8-2.4,17.8-14.1c0-11.2-10.8-13.7-16.6-13.8l-9-0.1V462.1z"/>
		<path d="M1245.7,460.8c0-4.5-0.1-8.7-0.6-13h8.9l0.5,13h0.6c1.7-6.5,7.3-13.8,14.5-13.8c2.8,0,4.9,0.7,6.4,1.4v8.5
			c-1.4-0.7-3.6-1.3-5.6-1.3c-9.4,0-14.8,9.3-15.3,19.9v22.2h-9.4V460.8z"/>
		<path d="M1303.9,446.5c17.1,0,24.5,15.1,24.5,26.3c0,13.2-8.6,26.5-24.5,26.5c-15.8,0-24.9-12.6-24.9-26.6
			C1278.9,461.2,1286.7,446.5,1303.9,446.5z M1303.8,492.3c7.6,0,14.9-6.1,14.9-19.7c0-12.6-6.9-19.1-14.9-19.1
			c-6.5,0-15.1,4.2-15.1,19.2C1288.7,483,1293.3,492.3,1303.8,492.3z"/>
		<path d="M1332.4,509.8c4.8,0,7.2-1.6,7.2-8.5v-53.4h9.3v53.1c0,5.9-1.7,16.3-12.7,16.3c-1.2,0-2.6-0.1-3.8-0.4V509.8z
			 M1344.1,425.9c3.5,0,6.2,2.5,6.2,6.1c0,3.6-2.7,6-6.2,6c-3.5,0-6.1-2.4-6.1-6C1338,428.4,1340.6,425.9,1344.1,425.9z"/>
		<path d="M1368.7,474c0.1,10.3,5.1,17.9,14.6,17.9c6.2,0,10.7-4,11.9-9.6h9.1c-1.1,8.2-8.5,16.9-21.6,16.9
			c-14,0-23.3-10.6-23.3-26.8c0-14,8.7-25.8,22.7-25.8c18.3,0,23.3,15.8,22.1,27.5H1368.7z M1395.1,467.1
			c0.1-4.8-2.5-13.8-12.6-13.8c-6.7,0-12.4,4.9-13.3,14L1395.1,467.1z"/>
		<path d="M1414.9,425.9h9.2v44h0.6l20.7-22.3h11.9l-23,23.3l23.8,26.6h-11.8l-21.6-24.9h-0.6v24.9h-9.2V425.9z"/>
		<path d="M1460.1,447.8h8.1l1.7-14.9h7.4v14.9h14.1v7.2h-14.1v28.1c0,4.5,2.3,7.2,6.9,7.2c2.8,0,5.9-0.9,7.3-1.5v7.4
			c-1.7,1.2-5,2.5-8.3,2.5c-9.6,0-15-5.8-15-15.4v-28.2h-7.9V447.8z"/>
		<path d="M1505.6,474c0.1,10.3,5.1,17.9,14.6,17.9c6.2,0,10.7-4,11.9-9.6h9.1c-1.1,8.2-8.5,16.9-21.6,16.9
			c-14,0-23.3-10.6-23.3-26.8c0-14,8.7-25.8,22.7-25.8c18.3,0,23.3,15.8,22.1,27.5H1505.6z M1531.9,467.1
			c0.1-4.8-2.5-13.8-12.6-13.8c-6.7,0-12.4,4.9-13.3,14L1531.9,467.1z"/>
		<path d="M1559.3,483.5c3.9,0,7.2,3.1,7.2,7.2c0,4.1-3.3,7.1-7.2,7.1c-3.9,0-7.2-3-7.2-7.1C1552.1,486.5,1555.4,483.5,1559.3,483.5
			z"/>
	</g>
</g>
<g id="apply">
	<g id="apply-blue">
		<rect x="791.8" y="358.9" style="fill:#009ACE;" width="515.5" height="85.3"/>
	</g>
	
		<rect id="apply-border" x="791.8" y="358.9" style="fill:none;stroke:#000000;stroke-miterlimit:10;" width="515.2" height="85.8"/>
	
		<rect id="apply-border-blue" x="791.8" y="358.9" style="fill:none;stroke:#009ACE;stroke-miterlimit:10;" width="515.2" height="85.8"/>
	<g id="text-black">
		<path d="M807.1,410.8c-0.1,4.2,1.4,8.3,6,8.3c4.3,0,6.5-3.1,6.5-8.4v-30.8h6v30.8c0,8.6-5.3,13.5-12.6,13.5c-7.7,0-12-5.8-12-13.3
			H807.1z"/>
		<path d="M834.1,379.9h25.2v5.1H840v13.6h18.3v5.1h-18.3v14.5h19.8v5.3h-25.8V379.9z"/>
		<path d="M876.4,423.4V385h-12.9v-5.1h31.7v5.1h-12.8v38.4H876.4z"/>
		<path d="M898.2,417.5l22.7-32v-0.4h-21.5v-5.3h27.9v6.2l-22.5,31.7v0.4h22.1v5.3h-28.7V417.5z"/>
		<path d="M943.2,423.4V385h-12.9v-5.1h31.7v5.1h-12.8v38.4H943.2z"/>
		<path d="M981.1,379.9H992c8.4,0,14.5,4.5,14.5,11.7c0,5.8-4.3,8.7-6.7,9.5v0.4c2.5,0.5,8.1,3.4,8.1,10c0,7.8-6.2,12-15,12h-11.8
			V379.9z M986.9,399.1l5-0.1c2.6-0.1,8.6-0.8,8.6-7.1c0-5.4-5-7.1-8.3-7.1l-5.2-0.1V399.1z M987,418.6l6.3-0.1
			c4.8,0,8.5-2.5,8.5-7.2c0-4-3.6-7.2-8.4-7.2L987,404V418.6z"/>
		<path d="M1015.1,379.9h25.2v5.1h-19.2v13.6h18.3v5.1h-18.3v14.5h19.8v5.3h-25.8V379.9z"/>
		<path d="M1051.7,379.9l7.2,35.3h0.4l9.5-35.3h7.3l9.4,35.3h0.4l7.5-35.3h6.1l-10.3,43.5h-7.2l-9.5-36.1h-0.4l-9.8,36.1h-7.1
			l-10.1-43.5H1051.7z"/>
		<path d="M1105.5,379.9h25.2v5.1h-19.2v13.6h18.3v5.1h-18.3v14.5h19.8v5.3h-25.8V379.9z"/>
		<path d="M1137.9,379.9h10.3c8.4,0,16.2,3.9,16.2,12.1c0,6.6-5.4,10.6-11.6,11.6l17.1,19.8h-7.5l-16.1-19.1h-2.2v19.1h-6V379.9z
			 M1143.8,399.3l4.5-0.1c4.6-0.1,9.8-1.9,9.8-7.1c0-5.6-5.4-7.1-9.9-7.2l-4.5-0.1V399.3z"/>
		<path d="M1174,379.9h10.9c8.4,0,14.5,4.5,14.5,11.7c0,5.8-4.3,8.7-6.7,9.5v0.4c2.5,0.5,8.1,3.4,8.1,10c0,7.8-6.2,12-15,12H1174
			V379.9z M1179.8,399.1l5-0.1c2.6-0.1,8.6-0.8,8.6-7.1c0-5.4-5-7.1-8.3-7.1l-5.2-0.1V399.1z M1179.9,418.6l6.3-0.1
			c4.8,0,8.5-2.5,8.5-7.2c0-4-3.6-7.2-8.4-7.2l-6.4-0.1V418.6z"/>
		<path d="M1208,379.9h25.2v5.1H1214v13.6h18.3v5.1h-18.3v14.5h19.8v5.3H1208V379.9z"/>
		<path d="M1240.5,379.9h6l24.9,34.1h0.4v-34.1h5.5v43.5h-6l-24.9-34.3h-0.4v34.3h-5.5V379.9z"/>
		<path d="M1292.7,414.8c2.4,0,4.3,1.9,4.3,4.3c0,2.5-2,4.3-4.3,4.3c-2.4,0-4.3-1.8-4.3-4.3C1288.4,416.7,1290.4,414.8,1292.7,414.8
			z M1294.9,411.5h-4.4l-1-31.6h6.7L1294.9,411.5z"/>
	</g>
	<g id="text-white">
		<path style="fill:#FFFFFF;" d="M807.1,410.8c-0.1,4.2,1.4,8.3,6,8.3c4.3,0,6.5-3.1,6.5-8.4v-30.8h6v30.8c0,8.6-5.3,13.5-12.6,13.5
			c-7.7,0-12-5.8-12-13.3H807.1z"/>
		<path style="fill:#FFFFFF;" d="M834.1,379.9h25.2v5.1H840v13.6h18.3v5.1h-18.3v14.5h19.8v5.3h-25.8V379.9z"/>
		<path style="fill:#FFFFFF;" d="M876.4,423.4V385h-12.9v-5.1h31.7v5.1h-12.8v38.4H876.4z"/>
		<path style="fill:#FFFFFF;" d="M898.2,417.5l22.7-32v-0.4h-21.5v-5.3h27.9v6.2l-22.5,31.7v0.4h22.1v5.3h-28.7V417.5z"/>
		<path style="fill:#FFFFFF;" d="M943.2,423.4V385h-12.9v-5.1h31.7v5.1h-12.8v38.4H943.2z"/>
		<path style="fill:#FFFFFF;" d="M981.1,379.9H992c8.4,0,14.5,4.5,14.5,11.7c0,5.8-4.3,8.7-6.7,9.5v0.4c2.5,0.5,8.1,3.4,8.1,10
			c0,7.8-6.2,12-15,12h-11.8V379.9z M986.9,399.1l5-0.1c2.6-0.1,8.6-0.8,8.6-7.1c0-5.4-5-7.1-8.3-7.1l-5.2-0.1V399.1z M987,418.6
			l6.3-0.1c4.8,0,8.5-2.5,8.5-7.2c0-4-3.6-7.2-8.4-7.2L987,404V418.6z"/>
		<path style="fill:#FFFFFF;" d="M1015.1,379.9h25.2v5.1h-19.2v13.6h18.3v5.1h-18.3v14.5h19.8v5.3h-25.8V379.9z"/>
		<path style="fill:#FFFFFF;" d="M1051.7,379.9l7.2,35.3h0.4l9.5-35.3h7.3l9.4,35.3h0.4l7.5-35.3h6.1l-10.3,43.5h-7.2l-9.5-36.1
			h-0.4l-9.8,36.1h-7.1l-10.1-43.5H1051.7z"/>
		<path style="fill:#FFFFFF;" d="M1105.5,379.9h25.2v5.1h-19.2v13.6h18.3v5.1h-18.3v14.5h19.8v5.3h-25.8V379.9z"/>
		<path style="fill:#FFFFFF;" d="M1137.9,379.9h10.3c8.4,0,16.2,3.9,16.2,12.1c0,6.6-5.4,10.6-11.6,11.6l17.1,19.8h-7.5l-16.1-19.1
			h-2.2v19.1h-6V379.9z M1143.8,399.3l4.5-0.1c4.6-0.1,9.8-1.9,9.8-7.1c0-5.6-5.4-7.1-9.9-7.2l-4.5-0.1V399.3z"/>
		<path style="fill:#FFFFFF;" d="M1174,379.9h10.9c8.4,0,14.5,4.5,14.5,11.7c0,5.8-4.3,8.7-6.7,9.5v0.4c2.5,0.5,8.1,3.4,8.1,10
			c0,7.8-6.2,12-15,12H1174V379.9z M1179.8,399.1l5-0.1c2.6-0.1,8.6-0.8,8.6-7.1c0-5.4-5-7.1-8.3-7.1l-5.2-0.1V399.1z M1179.9,418.6
			l6.3-0.1c4.8,0,8.5-2.5,8.5-7.2c0-4-3.6-7.2-8.4-7.2l-6.4-0.1V418.6z"/>
		<path style="fill:#FFFFFF;" d="M1208,379.9h25.2v5.1H1214v13.6h18.3v5.1h-18.3v14.5h19.8v5.3H1208V379.9z"/>
		<path style="fill:#FFFFFF;" d="M1240.5,379.9h6l24.9,34.1h0.4v-34.1h5.5v43.5h-6l-24.9-34.3h-0.4v34.3h-5.5V379.9z"/>
		<path style="fill:#FFFFFF;" d="M1292.7,414.8c2.4,0,4.3,1.9,4.3,4.3c0,2.5-2,4.3-4.3,4.3c-2.4,0-4.3-1.8-4.3-4.3
			C1288.4,416.7,1290.4,414.8,1292.7,414.8z M1294.9,411.5h-4.4l-1-31.6h6.7L1294.9,411.5z"/>
	</g>
</g>
</svg>
