<?xml version="1.0" encoding="utf-8"?>
<!-- Generator: Adobe Illustrator 16.0.0, SVG Export Plug-In . SVG Version: 6.00 Build 0)  -->
<!DOCTYPE svg PUBLIC "-//W3C//DTD SVG 1.1//EN" "http://www.w3.org/Graphics/SVG/1.1/DTD/svg11.dtd">
<svg version="1.1" id="Ebene_1" xmlns="http://www.w3.org/2000/svg" xmlns:xlink="http://www.w3.org/1999/xlink" x="0px" y="0px"
	 width="17.974px" height="20px" viewBox="-0.274 -0.307 17.974 20" enable-background="new -0.274 -0.307 17.974 20"
	 xml:space="preserve">
<g>
	<path d="M8.832,2.402C4.35,2.335,0.664,5.916,0.598,10.398c-0.033,2.232,0.839,4.268,2.275,5.756l-2.029,2.03l1.202,1.202
		l2.138-2.139c1.262,0.852,2.774,1.361,4.41,1.387c1.72,0.025,3.321-0.491,4.648-1.385l2.137,2.137l1.202-1.202l-2.034-2.035
		c1.383-1.431,2.25-3.364,2.281-5.512C16.895,6.155,13.314,2.467,8.832,2.402z M7.713,11.455v-6h1.266v4.715h4.734v1.286H7.713z"/>
	<g>
		<path d="M5.424,1.092c-1.637-1.635-3.19-1.249-4.385-0.053c-1.195,1.196-1.584,2.749,0.053,4.386L5.424,1.092z"/>
		<path d="M16.389,1.039c-1.195-1.195-2.75-1.582-4.388,0.055l4.332,4.332C17.971,3.788,17.583,2.235,16.389,1.039z"/>
	</g>
</g>
</svg>
