<?xml version="1.0" encoding="utf-8"?>
<!-- Generator: Adobe Illustrator 19.0.0, SVG Export Plug-In . SVG Version: 6.00 Build 0)  -->
<svg version="1.1" id="Ebene_1" xmlns="http://www.w3.org/2000/svg" xmlns:xlink="http://www.w3.org/1999/xlink" x="0px" y="0px"
	 viewBox="0 0 1281 422.6" style="enable-background:new 0 0 1281 422.6;" xml:space="preserve">
<style type="text/css">
	.st0{opacity:0.3;fill:#E9EDF3;}
	.st1{fill:#CCCCCB;stroke:#010202;stroke-width:3;stroke-linejoin:round;stroke-miterlimit:10;}
	.st2{fill:#FFFFFF;stroke:#010202;stroke-width:3;stroke-linejoin:round;stroke-miterlimit:10;}
	.st3{fill:none;stroke:#010202;stroke-width:3;stroke-linejoin:round;stroke-miterlimit:10;}
	.st4{fill:#F8ED6F;stroke:#E62F32;stroke-width:3;stroke-linejoin:round;stroke-miterlimit:10;}
	.st5{fill:#F8ED6F;stroke:#010202;stroke-width:3;stroke-linejoin:round;stroke-miterlimit:10;}
	.st6{fill:none;stroke:#28285B;stroke-width:3;stroke-miterlimit:10;}
	.st7{fill:#E8CABF;stroke:#010202;stroke-width:3;stroke-linecap:round;stroke-linejoin:round;stroke-miterlimit:10;}
	.st8{fill:none;stroke:#30358C;stroke-width:3;stroke-linecap:round;stroke-linejoin:round;stroke-miterlimit:10;}
	.st9{fill:none;stroke:#010202;stroke-width:3;stroke-linecap:round;stroke-linejoin:round;stroke-miterlimit:10;}
	.st10{fill:none;stroke:#67B32E;stroke-width:3;stroke-linecap:round;stroke-linejoin:round;stroke-miterlimit:10;}
	.st11{fill:#FFFFFF;}
	.st12{fill:#E83B68;}
	.st13{fill:#010202;}
	.st14{fill:#E62F32;stroke:#010202;stroke-width:3;stroke-miterlimit:10;}
	.st15{fill:none;stroke:#69B539;stroke-width:3;stroke-miterlimit:10;}
	.st16{fill:none;stroke:#010202;stroke-width:3;stroke-miterlimit:10;}
	.st17{fill:none;stroke:#A24F99;stroke-width:3;stroke-miterlimit:10;}
	.st18{fill:#FFFFFF;stroke:#EA5627;stroke-width:3;stroke-miterlimit:10;}
	.st19{fill:none;stroke:#B3B2B2;stroke-width:3;stroke-miterlimit:10;}
	.st20{fill:none;stroke:#FFFFFF;stroke-width:3;stroke-miterlimit:10;}
	.st21{fill:#808081;}
	.st22{fill:none;stroke:#A6C4D5;stroke-width:3;stroke-linecap:round;stroke-miterlimit:10;}
	.st23{fill:#65328A;}
	.st24{fill:#A6C4D5;stroke:#010202;stroke-width:2.5;stroke-linejoin:round;stroke-miterlimit:10;}
	.st25{fill:#EF7E82;stroke:#010202;stroke-width:2.5;stroke-miterlimit:10;}
	.st26{fill:#FFFFFF;stroke:#010202;stroke-width:3;stroke-linecap:round;stroke-linejoin:round;stroke-miterlimit:10;}
</style>
<polygon id="XMLID_2_" class="st0" points="1280.6,422.6 0,422.6 0.4,0 1281,0 "/>
<g id="XMLID_148_">
	<g id="XMLID_149_">
		<rect id="XMLID_2264_" x="102.2" y="218" class="st1" width="69.3" height="9.4"/>
		<rect id="XMLID_2559_" x="110.1" y="227.5" class="st1" width="53.5" height="83.5"/>
		<rect id="XMLID_2263_" x="122.7" y="247.9" class="st2" width="28.3" height="40.9"/>
		<path id="XMLID_150_" class="st3" d="M154.7,218c0,0,0-17.3-11-22"/>
	</g>
	<path id="XMLID_2262_" class="st4" d="M145.4,195.6l-0.8,1.3c-0.9,1.5-2.9,1.9-4.4,1l-5.2-3.3c-1.5-0.9-1.9-2.9-1-4.4l0.8-1.3
		c0.9-1.5,2.9-1.9,4.4-1l5.2,3.3C145.9,192.1,146.4,194.1,145.4,195.6z"/>
</g>
<g id="XMLID_151_">
	<polyline id="XMLID_152_" class="st5" points="99.2,66.6 107.9,66.6 116.8,89.6 116.8,134.9 45.4,134.9 45.4,89.6 53.8,66.6 
		76.3,66.6 	"/>
	<polygon id="XMLID_2552_" class="st2" points="91.9,78.8 68.5,78.8 88.1,48.1 104.4,58.4 	"/>
	<line id="XMLID_2551_" class="st3" x1="61.2" y1="78.8" x2="100.5" y2="78.8"/>
	<line id="XMLID_2550_" class="st3" x1="45.4" y1="89.6" x2="116.8" y2="89.6"/>
</g>
<g id="XMLID_153_">
	<circle id="XMLID_2548_" class="st6" cx="274.2" cy="142.1" r="45.9"/>
	<line id="XMLID_2547_" class="st6" x1="244.7" y1="175.9" x2="274.2" y2="142.1"/>
	<line id="XMLID_2546_" class="st6" x1="274.2" y1="142.1" x2="274.2" y2="96.2"/>
	<line id="XMLID_2545_" class="st6" x1="316.8" y1="126.8" x2="274.2" y2="142.1"/>
	<line id="XMLID_2544_" class="st6" x1="311.3" y1="168.3" x2="274.2" y2="142.1"/>
</g>
<g id="XMLID_154_">
	<path id="XMLID_155_" class="st7" d="M625,290.2c0-3.4,2.7-6.1,6.1-6.1c3.4,0,6.1,2.7,6.1,6.1v18.3c0-3.4,2.7-6.1,6.1-6.1
		c3.4,0,6.1,2.7,6.1,6.1v3.8c0-3.4,2.7-6.1,6.1-6.1c3.4,0,6.1,2.7,6.1,6.1v3.8c0-3.4,2.7-6.1,6.1-6.1s6.1,2.7,6.1,6.1v0.4v29.8
		l-8,14.5v11.4h-35.1l-0.4-9.5c0,0-15.1-24.9-23.7-34.3c-1.1-1.3-0.4-5.9,2.3-6.9c2.7-1,10.1-0.3,16,8.6v-38.4V290.2z"/>
	<path id="XMLID_156_" class="st8" d="M637.2,308.5"/>
	<line id="XMLID_157_" class="st9" x1="637.2" y1="323" x2="637.2" y2="308.5"/>
	<line id="XMLID_158_" class="st9" x1="649.4" y1="323.7" x2="649.4" y2="312.3"/>
	<line id="XMLID_159_" class="st9" x1="661.6" y1="327.2" x2="661.6" y2="315.7"/>
	<path id="XMLID_160_" class="st8" d="M652.5,330.6"/>
	<path id="XMLID_161_" class="st10" d="M618.2,300.8c-2.4-2.9-3.8-6.6-3.8-10.7c0-9.3,7.5-16.8,16.8-16.8s16.8,7.5,16.8,16.8
		c0,2.3-0.5,4.5-1.3,6.5"/>
	<path id="XMLID_162_" class="st10" d="M613.6,303.7c-3-3.8-4.8-8.6-4.8-13.8c0-12.3,10-22.3,22.3-22.3c12.3,0,22.3,10,22.3,22.3
		c0,3.1-0.6,6-1.7,8.7"/>
</g>
<g id="XMLID_163_">
	<rect id="XMLID_2261_" x="944.6" y="60.1" class="st11" width="74.6" height="106.8"/>
	<path id="XMLID_2532_" class="st12" d="M958.6,82.9c0.3,0.3,0.8,0.5,1.1,0.5s0.8-0.2,1.1-0.5l2.1-2.1l2.1,2.1
		c0.3,0.3,0.8,0.5,1.1,0.5c0.3,0,0.8-0.2,1.1-0.5c0.6-0.6,0.6-1.6,0-2.2l-2.1-2.1l2.1-2.1c0.6-0.6,0.6-1.6,0-2.2
		c-0.6-0.6-1.6-0.6-2.2,0l-2.1,2.1l-2.1-2.1c-0.6-0.6-1.6-0.6-2.2,0c-0.6,0.6-0.6,1.6,0,2.2l2.1,2.1l-2.1,2.1
		C957.9,81.3,957.9,82.2,958.6,82.9z"/>
	<path id="XMLID_2531_" class="st13" d="M975.5,79.4h29.2c1,0,1.6-0.6,1.6-1.6c0-1-0.6-1.6-1.6-1.6h-29.2c-1,0-1.6,0.6-1.6,1.6
		C973.9,78.7,974.5,79.4,975.5,79.4z"/>
	<path id="XMLID_2530_" class="st12" d="M958.6,100.4c0.3,0.3,0.8,0.5,1.1,0.5s0.8-0.2,1.1-0.5l2.1-2.1l2.1,2.1
		c0.3,0.3,0.8,0.5,1.1,0.5c0.3,0,0.8-0.2,1.1-0.5c0.6-0.6,0.6-1.6,0-2.2l-2.1-2.1l2.1-2.1c0.6-0.6,0.6-1.6,0-2.2
		c-0.6-0.6-1.6-0.6-2.2,0l-2.1,2.1l-2.1-2.1c-0.6-0.6-1.6-0.6-2.2,0c-0.6,0.6-0.6,1.6,0,2.2l2.1,2.1l-2.1,2.1
		C957.9,98.7,957.9,99.8,958.6,100.4z"/>
	<path id="XMLID_2529_" class="st13" d="M975.5,96.9h29.2c1,0,1.6-0.6,1.6-1.6c0-1-0.6-1.6-1.6-1.6h-29.2c-1,0-1.6,0.6-1.6,1.6
		C973.9,96.3,974.5,96.9,975.5,96.9z"/>
	<path id="XMLID_2528_" class="st12" d="M958.6,117.8c0.3,0.3,0.8,0.5,1.1,0.5s0.8-0.2,1.1-0.5l2.1-2.1l2.1,2.1
		c0.3,0.3,0.8,0.5,1.1,0.5c0.3,0,0.8-0.2,1.1-0.5c0.6-0.6,0.6-1.6,0-2.2l-2.1-2.1l2.1-2.1c0.6-0.6,0.6-1.6,0-2.2
		c-0.6-0.6-1.6-0.6-2.2,0l-1.9,1.9l-2.1-2.1c-0.6-0.6-1.6-0.6-2.2,0c-0.6,0.6-0.6,1.6,0,2.2l2.1,2.1l-2.1,2.1
		C957.9,116.2,957.9,117.2,958.6,117.8z"/>
	<path id="XMLID_2527_" class="st13" d="M975.5,114.3h29.2c1,0,1.6-0.6,1.6-1.6c0-1-0.6-1.6-1.6-1.6h-29.2c-1,0-1.6,0.6-1.6,1.6
		C973.9,113.7,974.5,114.3,975.5,114.3z"/>
	<path id="XMLID_2526_" class="st12" d="M958.6,135.2c0.3,0.3,0.8,0.5,1.1,0.5s0.8-0.2,1.1-0.5l2.1-2.1l2.1,2.1
		c0.3,0.3,0.8,0.5,1.1,0.5c0.3,0,0.8-0.2,1.1-0.5c0.6-0.6,0.6-1.6,0-2.2l-2.1-2.1l2.1-2.1c0.6-0.6,0.6-1.6,0-2.2
		c-0.6-0.6-1.6-0.6-2.2,0l-1.9,2.1l-2.1-2.1c-0.6-0.6-1.6-0.6-2.2,0c-0.6,0.6-0.6,1.6,0,2.2l2.1,2.1l-2.1,2.1
		C957.9,133.6,957.9,134.6,958.6,135.2z"/>
	<path id="XMLID_2525_" class="st13" d="M975.5,131.7h29.2c1,0,1.6-0.6,1.6-1.6s-0.6-1.6-1.6-1.6h-29.2c-1,0-1.6,0.6-1.6,1.6
		S974.5,131.7,975.5,131.7z"/>
	<path id="XMLID_2524_" class="st12" d="M958.6,152.8c0.3,0.3,0.8,0.5,1.1,0.5s0.8-0.2,1.1-0.5l2.1-2.1l2.1,2.1
		c0.3,0.3,0.8,0.5,1.1,0.5c0.3,0,0.8-0.2,1.1-0.5c0.6-0.6,0.6-1.6,0-2.2l-2.1-2.1l2.1-2.1c0.6-0.6,0.6-1.6,0-2.2
		c-0.6-0.6-1.6-0.6-2.2,0l-2.1,2.1l-2.1-2.1c-0.6-0.6-1.6-0.6-2.2,0c-0.6,0.6-0.6,1.6,0,2.2l2.1,2.1l-2.1,2.1
		C957.9,151,957.9,152.1,958.6,152.8z"/>
	<path id="XMLID_2523_" class="st13" d="M975.5,149.3h29.2c1,0,1.6-0.6,1.6-1.6c0-1-0.6-1.6-1.6-1.6h-29.2c-1,0-1.6,0.6-1.6,1.6
		C973.9,148.6,974.5,149.3,975.5,149.3z"/>
</g>
<g id="XMLID_164_">
	<path id="XMLID_2521_" class="st2" d="M437.1,87.8L437.1,87.8c-7.8,0-14.2-6.4-14.2-14.2l0,0c0-7.8,6.4-14.2,14.2-14.2h0
		c7.8,0,14.2,6.4,14.2,14.2l0,0C451.4,81.4,445,87.8,437.1,87.8z"/>
	<path id="XMLID_2520_" class="st14" d="M420.8,90.4c0.9,0.9,2.3,1.4,3.2,1.4c0.9,0,2.3-0.5,3.2-1.4l10-10l12,11
		c0.9,0.9,2.3,1.4,3.2,1.4c0.9,0,2.3-0.5,3.2-1.4c1.8-1.8,1.8-4.5,0-6.3l-12-11l9-10c1.8-1.8,1.8-4.5,0-6.3c-1.8-1.8-4.5-1.8-6.3,0
		l-9,10l-5.9-5.9c-1.8-1.8-4.5-1.8-6.3,0c-1.8,1.8-1.8,4.5,0,6.3l5.9,5.9l-10,10C419,85.9,419,88.6,420.8,90.4z"/>
</g>
<g id="XMLID_165_">
	<rect id="XMLID_2260_" x="852.1" y="295.1" class="st15" width="26" height="67.5"/>
	<rect id="XMLID_2259_" x="885.5" y="284.9" class="st16" width="26" height="77.7"/>
	<rect id="XMLID_2258_" x="918.9" y="305.3" class="st17" width="26" height="57.3"/>
	<rect id="XMLID_2515_" x="952.3" y="337.1" class="st6" width="26" height="25.5"/>
</g>
<g id="XMLID_166_">
	<polygon id="XMLID_167_" class="st18" points="381.6,280.7 256.6,280.7 256.6,349.1 280.4,349.1 280.4,357.1 290.3,349.1 
		381.6,349.1 	"/>
	<circle id="XMLID_2512_" class="st16" cx="276.8" cy="368.3" r="2.9"/>
	<circle id="XMLID_2511_" class="st19" cx="266.8" cy="368.3" r="2.9"/>
	<circle id="XMLID_2510_" class="st19" cx="256.9" cy="368.3" r="2.9"/>
	<circle id="XMLID_2509_" class="st20" cx="286.7" cy="368.3" r="2.9"/>
	<circle id="XMLID_2508_" class="st20" cx="296.6" cy="368.3" r="2.9"/>
</g>
<g id="XMLID_569_">
	<g id="XMLID_570_">
		<g id="XMLID_571_">
			<g id="XMLID_572_">
				<path id="XMLID_2506_" class="st21" d="M1182.3,252.3h5.1v2.5c0,1.8-0.1,3.6-0.3,5.4l-0.3,2.5l-5.1-0.6l0.3-2.5
					c0.2-1.6,0.3-3.2,0.3-4.8V252.3z"/>
			</g>
			<g id="XMLID_573_">
				<path id="XMLID_574_" class="st21" d="M1180.5,266.5l4.7,1.9l-1,2.4c-1.4,3.4-3.2,6.6-5.5,9.5l-1.6,2l-4-3.1l1.6-2
					c2-2.6,3.6-5.4,4.8-8.3L1180.5,266.5z M1110.4,266.6l1,2.4c1.2,3,2.9,5.8,4.8,8.3l1.6,2l-4,3.1l-1.6-2c-2.2-2.9-4.1-6.1-5.5-9.5
					l-1-2.4L1110.4,266.6z M1169.9,282.5l3.1,4l-2,1.6c-2.9,2.2-6.1,4.1-9.5,5.5l-2.4,1l-2-4.7l2.4-1c3-1.2,5.8-2.9,8.3-4.8
					L1169.9,282.5z M1121,282.5l2,1.6c2.6,2,5.4,3.6,8.3,4.8l2.4,1l-1.9,4.7l-2.4-1c-3.4-1.4-6.6-3.2-9.5-5.5l-2-1.6L1121,282.5z
					 M1152.8,291l0.7,5.1l-2.5,0.3c-3.6,0.5-7.3,0.5-10.9,0l-2.5-0.3l0.7-5.1l2.5,0.3c3.2,0.4,6.5,0.4,9.6,0L1152.8,291z"/>
			</g>
			<g id="XMLID_575_">
				<path id="XMLID_2497_" class="st21" d="M1103.5,252.3h5.1v2.5c0,1.6,0.1,3.2,0.3,4.8l0.3,2.5l-5.1,0.6l-0.3-2.5
					c-0.2-1.8-0.3-3.6-0.3-5.4V252.3z"/>
			</g>
		</g>
		<g id="XMLID_576_">
			<g id="XMLID_577_">
				<path id="XMLID_2494_" class="st21" d="M1192,252.3h5.1v2.5c0,1.8-0.1,3.6-0.3,5.4l-0.3,2.5l-5.1-0.5l0.3-2.5
					c0.2-1.6,0.2-3.2,0.2-4.8V252.3z"/>
			</g>
			<g id="XMLID_578_">
				<path id="XMLID_579_" class="st21" d="M1190.6,266.1l4.9,1.5l-0.8,2.4c-1,3.2-2.3,6.3-3.9,9.3l-1.2,2.2l-4.5-2.4l1.2-2.2
					c1.4-2.7,2.6-5.5,3.5-8.4L1190.6,266.1z M1100.3,266.2l0.8,2.4c0.9,2.9,2.1,5.7,3.5,8.4l1.2,2.2l-4.5,2.4l-1.2-2.2
					c-1.6-3-2.9-6.1-3.9-9.3l-0.8-2.4L1100.3,266.2z M1182.9,282.5l3.9,3.2l-1.6,2c-2.1,2.6-4.5,5-7.1,7.1l-2,1.6l-3.2-3.9l2-1.6
					c2.3-1.9,4.5-4.1,6.4-6.4L1182.9,282.5z M1108,282.5l1.6,2c1.9,2.3,4.1,4.5,6.4,6.4l2,1.6l-3.2,3.9l-2-1.6
					c-2.6-2.1-5-4.5-7.2-7.1l-1.6-2L1108,282.5z M1169.6,294.7l2.4,4.5l-2.2,1.2c-3,1.6-6.1,2.9-9.3,3.8l-2.4,0.7l-1.5-4.9l2.4-0.7
					c2.9-0.9,5.7-2,8.4-3.5L1169.6,294.7z M1121.4,294.7l2.2,1.2c2.7,1.4,5.5,2.6,8.4,3.5l2.4,0.7l-1.5,4.9l-2.4-0.7
					c-3.2-1-6.3-2.3-9.3-3.8l-2.3-1.2L1121.4,294.7z M1152.6,300.9l0.5,5.1l-2.5,0.2c-3.3,0.3-6.7,0.3-10.1,0l-2.5-0.2l0.5-5.1
					l2.5,0.2c3,0.3,6.1,0.3,9.1,0L1152.6,300.9z"/>
			</g>
			<g id="XMLID_580_">
				<path id="XMLID_2483_" class="st21" d="M1093.8,252.3h5.1v2.5c0,1.6,0.1,3.2,0.2,4.8l0.3,2.5l-5.1,0.5l-0.3-2.5
					c-0.2-1.8-0.3-3.6-0.3-5.4V252.3z"/>
			</g>
		</g>
		<g id="XMLID_581_">
			<g id="XMLID_582_">
				<path id="XMLID_2480_" class="st21" d="M1065.8,252.3h5.1v2.5c0,1.6,0.1,3.3,0.2,4.9l0.2,2.5l-5.1,0.3l-0.2-2.5
					c-0.1-1.7-0.2-3.5-0.2-5.3V252.3z"/>
			</g>
			<g id="XMLID_583_">
				<path id="XMLID_584_" class="st21" d="M1071.8,266.9l0.5,2.5c0.6,3.2,1.5,6.4,2.5,9.4l0.8,2.4l-4.8,1.6l-0.8-2.4
					c-1.1-3.3-2-6.7-2.7-10.1l-0.5-2.5L1071.8,266.9z M1219,267l5,1l-0.5,2.5c-0.7,3.4-1.6,6.8-2.7,10.1l-0.8,2.4l-4.8-1.6l0.8-2.4
					c1-3.1,1.9-6.2,2.5-9.4L1219,267z M1077.5,285.5l1.1,2.3c1.4,2.9,3.1,5.7,4.9,8.4l1.4,2.1l-4.2,2.8l-1.4-2.1
					c-1.9-2.9-3.7-5.9-5.2-9l-1.1-2.3L1077.5,285.5z M1213.4,285.6l4.6,2.3l-1.1,2.3c-1.5,3.1-3.3,6.1-5.2,9l-1.4,2.1l-4.2-2.8
					l1.4-2.1c1.8-2.7,3.5-5.5,4.9-8.4L1213.4,285.6z M1087.7,302.1l1.7,1.9c2.1,2.4,4.5,4.8,6.9,6.9l1.9,1.7l-3.4,3.8l-1.9-1.7
					c-2.6-2.3-5.1-4.8-7.4-7.4l-1.7-1.9L1087.7,302.1z M1203.1,302.1l3.8,3.4l-1.7,1.9c-2.3,2.6-4.8,5.1-7.4,7.4l-1.9,1.7l-3.4-3.8
					l1.9-1.7c2.4-2.1,4.8-4.4,6.9-6.9L1203.1,302.1z M1101.9,315.4l2.1,1.4c2.7,1.8,5.5,3.4,8.4,4.9l2.3,1.1l-2.3,4.6l-2.3-1.1
					c-3.1-1.5-6.1-3.3-9-5.2l-2.1-1.4L1101.9,315.4z M1188.9,315.4l2.8,4.2l-2.1,1.4c-2.9,1.9-5.9,3.7-9,5.2l-2.3,1.1l-2.3-4.6
					l2.3-1.1c2.9-1.4,5.7-3.1,8.4-4.9L1188.9,315.4z M1119,324.6l2.4,0.8c3.1,1,6.2,1.9,9.4,2.5l2.5,0.5l-1,5l-2.5-0.5
					c-3.4-0.7-6.8-1.6-10.1-2.7l-2.4-0.8L1119,324.6z M1171.8,324.6l1.6,4.8l-2.4,0.8c-3.3,1.1-6.7,2-10.1,2.7l-2.5,0.5l-1-5
					l2.5-0.5c3.2-0.6,6.4-1.5,9.4-2.5L1171.8,324.6z M1138,329l2.5,0.2c3.2,0.2,6.5,0.2,9.7,0l2.5-0.2l0.3,5.1l-2.5,0.2
					c-3.4,0.2-6.9,0.2-10.4,0l-2.5-0.2L1138,329z"/>
			</g>
			<g id="XMLID_585_">
				<path id="XMLID_2465_" class="st21" d="M1220,252.3h5.1v2.5c0,1.7-0.1,3.5-0.2,5.3l-0.2,2.5l-5.1-0.3l0.2-2.5
					c0.1-1.6,0.2-3.3,0.2-4.9V252.3z"/>
			</g>
		</g>
		<g id="XMLID_586_">
			<g id="XMLID_587_">
				<path id="XMLID_2462_" class="st21" d="M1074.7,252.3h5.1v2.5c0,1.6,0.1,3.3,0.2,4.9l0.2,2.5l-5.1,0.4l-0.2-2.5
					c-0.1-1.7-0.2-3.5-0.2-5.3V252.3z"/>
			</g>
			<g id="XMLID_588_">
				<path id="XMLID_589_" class="st21" d="M1080.8,266.5l0.5,2.5c0.7,3,1.6,6,2.7,9l0.9,2.4l-4.8,1.8l-0.9-2.4
					c-1.2-3.1-2.1-6.4-2.9-9.7l-0.5-2.5L1080.8,266.5z M1210.1,266.6l5,1.1l-0.6,2.5c-0.7,3.3-1.7,6.5-2.9,9.6l-0.9,2.4l-4.8-1.8
					l0.9-2.4c1.1-2.9,2-5.9,2.7-8.9L1210.1,266.6z M1086.7,284.2l1.2,2.2c1.5,2.7,3.2,5.4,5.1,7.8l1.5,2l-4.1,3.1l-1.5-2
					c-2-2.7-3.9-5.5-5.5-8.5l-1.2-2.2L1086.7,284.2z M1204.2,284.2l4.5,2.5l-1.2,2.2c-1.6,2.9-3.5,5.8-5.5,8.4l-1.5,2l-4.1-3.1
					l1.5-2c1.9-2.5,3.6-5.1,5.1-7.8L1204.2,284.2z M1097.3,299.5l1.8,1.8c2.2,2.2,4.6,4.3,7.1,6.1l2,1.5l-3.1,4.1l-2-1.5
					c-2.7-2-5.2-4.2-7.6-6.6l-1.8-1.8L1097.3,299.5z M1193.5,299.6l3.6,3.6l-1.8,1.8c-2.4,2.4-4.9,4.6-7.6,6.6l-2,1.5l-3-4.1l2-1.5
					c2.5-1.9,4.9-3.9,7.1-6.1L1193.5,299.6z M1111.8,311.2l2.2,1.2c2.7,1.5,5.6,2.8,8.5,3.9l2.4,0.9l-1.8,4.8l-2.4-0.9
					c-3.1-1.2-6.2-2.6-9.2-4.2l-2.2-1.2L1111.8,311.2z M1179,311.3l2.4,4.5l-2.2,1.2c-2.9,1.6-6,3-9.2,4.2l-2.4,0.9l-1.8-4.8
					l2.4-0.9c2.9-1.1,5.8-2.4,8.5-3.9L1179,311.3z M1129,318.4l2.5,0.5c3,0.7,6.1,1.1,9.2,1.3l2.5,0.2l-0.4,5.1l-2.5-0.2
					c-3.3-0.2-6.7-0.7-10-1.4l-2.5-0.5L1129,318.4z M1161.8,318.4l1.1,5l-2.5,0.5c-3.3,0.7-6.6,1.2-10,1.4l-2.5,0.2l-0.4-5.1
					l2.5-0.2c3.1-0.2,6.2-0.7,9.2-1.3L1161.8,318.4z"/>
			</g>
			<g id="XMLID_590_">
				<path id="XMLID_2448_" class="st21" d="M1211.1,252.3h5.1v2.5c0,1.8-0.1,3.5-0.2,5.3l-0.2,2.5l-5.1-0.4l0.2-2.5
					c0.1-1.6,0.2-3.3,0.2-4.9V252.3z"/>
			</g>
		</g>
		<g id="XMLID_591_">
			<g id="XMLID_592_">
				<path id="XMLID_2445_" class="st21" d="M1084.3,252.3h5.1v2.5c0,1.6,0.1,3.3,0.2,4.9l0.2,2.5l-5.1,0.4l-0.2-2.5
					c-0.2-1.8-0.2-3.5-0.2-5.3V252.3z"/>
			</g>
			<g id="XMLID_593_">
				<path id="XMLID_594_" class="st21" d="M1090.6,266.9l0.7,2.5c0.8,3.1,2,6.2,3.3,9.2l1.1,2.3l-4.6,2.2l-1.1-2.3
					c-1.5-3.2-2.7-6.6-3.6-10l-0.7-2.5L1090.6,266.9z M1200.3,266.9l4.9,1.3l-0.7,2.5c-0.9,3.4-2.2,6.8-3.7,10l-1.1,2.3l-4.6-2.2
					l1.1-2.3c1.4-2.9,2.5-6,3.4-9.2L1200.3,266.9z M1098,284.9l1.5,2.1c1.9,2.7,4,5.2,6.3,7.5l1.8,1.8l-3.6,3.6l-1.8-1.8
					c-2.5-2.5-4.8-5.3-6.9-8.2l-1.5-2.1L1098,284.9z M1192.8,284.9l4.2,2.9l-1.5,2.1c-2,2.9-4.3,5.6-6.9,8.2l-1.8,1.8l-3.6-3.6
					l1.8-1.8c2.3-2.3,4.4-4.8,6.3-7.5L1192.8,284.9z M1111.2,299.3l2.1,1.5c2.7,1.9,5.5,3.5,8.5,4.9l2.3,1.1l-2.2,4.6l-2.3-1.1
					c-3.2-1.5-6.3-3.3-9.2-5.3l-2.1-1.5L1111.2,299.3z M1179.6,299.3l2.9,4.2l-2.1,1.5c-2.9,2-6,3.8-9.2,5.3l-2.3,1.1l-2.2-4.6
					l2.3-1.1c2.9-1.4,5.8-3,8.5-4.9L1179.6,299.3z M1128.4,308.3l2.5,0.7c3.1,0.8,6.4,1.4,9.6,1.7l2.5,0.2l-0.4,5.1l-2.5-0.2
					c-3.5-0.3-7.1-0.9-10.5-1.8l-2.5-0.7L1128.4,308.3z M1162.4,308.3l1.3,4.9l-2.5,0.7c-3.4,0.9-7,1.5-10.5,1.8l-2.5,0.2l-0.4-5.1
					l2.5-0.2c3.3-0.3,6.5-0.8,9.6-1.7L1162.4,308.3z"/>
			</g>
			<g id="XMLID_595_">
				<path id="XMLID_2433_" class="st21" d="M1201.5,252.3h5.1v2.5c0,1.8-0.1,3.6-0.2,5.3l-0.2,2.5l-5.1-0.4l0.2-2.5
					c0.1-1.6,0.2-3.3,0.2-4.9V252.3z"/>
			</g>
		</g>
	</g>
	<g id="XMLID_596_">
		<rect id="XMLID_260_" x="1093.4" y="213.1" class="st22" width="104.2" height="5.1"/>
		<polygon id="XMLID_597_" class="st22" points="1196.6,141.6 1094.4,141.6 1094.4,138.6 1145.6,127.7 1196.6,138.6 		"/>
		<polygon id="XMLID_598_" class="st22" points="1196.6,151.7 1196.6,146.6 1094.4,146.6 1094.4,151.7 1102.5,151.7 1102.5,202.6 
			1098.1,202.6 1098.1,207.8 1125.7,207.8 1125.7,202.6 1121.4,202.6 1121.4,151.7 1136,151.7 1136,202.6 1131.6,202.6 
			1131.6,207.8 1159.3,207.8 1159.3,202.6 1154.9,202.6 1154.9,151.7 1169.5,151.7 1169.5,202.6 1165.1,202.6 1165.1,207.8 
			1192.8,207.8 1192.8,202.6 1188.4,202.6 1188.4,151.7 		"/>
	</g>
</g>
<g id="XMLID_599_">
	<g id="XMLID_604_">
		<path id="XMLID_28_" class="st23" d="M678.4,50.7v5.4h-6.8c-1.9,0-2.7,0.9-2.7,3.2v12.9c0,4.8-1.8,6.3-4.2,7
			c2.4,0.7,4.2,2.1,4.2,7v12.9c0,2.3,0.8,3.2,2.7,3.2h6.8v5.4h-8.3c-3.6,0-6-2.9-6-7.1V88.4c0-5-2.4-6.4-6-6.4v-5.4
			c3.6,0,6-1.4,6-6.4V57.9c0-4.3,2.4-7.1,6-7.1H678.4 M678.4,47.7h-8.3c-5.3,0-9,4.2-9,10.1v12.3c0,2.8-0.6,3.4-3,3.4
			c-1.7,0-3,1.3-3,3V82c0,1.7,1.3,3,3,3c2.4,0,3,0.6,3,3.4v12.3c0,6,3.7,10.1,9,10.1h8.3c1.7,0,3-1.3,3-3v-5.4c0-1.7-1.3-3-3-3H672
			c0-0.1,0-0.1,0-0.2V86.2c0-3-0.6-5.3-1.9-7c1.3-1.7,1.9-4,1.9-7V59.4c0-0.1,0-0.1,0-0.2h6.5c1.7,0,3-1.3,3-3v-5.4
			C681.4,49.1,680.1,47.7,678.4,47.7L678.4,47.7z"/>
	</g>
	<g id="XMLID_610_">
		<path id="XMLID_24_" class="st23" d="M708.7,50.7l-16.4,57h-5.2l16.4-57H708.7 M708.7,47.7h-5.2c-1.3,0-2.5,0.9-2.9,2.2l-16.4,57
			c-0.3,0.9-0.1,1.9,0.5,2.6c0.6,0.8,1.5,1.2,2.4,1.2h5.2c1.3,0,2.5-0.9,2.9-2.2l16.4-57c0.3-0.9,0.1-1.9-0.5-2.6
			S709.6,47.7,708.7,47.7L708.7,47.7z"/>
	</g>
	<g id="XMLID_618_">
		<path id="XMLID_23_" class="st23" d="M726,50.7c3.6,0,6,2.8,6,7.1v12.3c0,5,2.4,6.4,6,6.4V82c-3.6,0-6,1.4-6,6.4v12.3
			c0,4.3-2.4,7.1-6,7.1h-8.3v-5.4h6.8c1.9,0,2.7-0.9,2.7-3.2V86.2c0-4.8,1.8-6.3,4.2-7c-2.4-0.7-4.2-2.1-4.2-7V59.4
			c0-2.3-0.8-3.2-2.7-3.2h-6.8v-5.4H726 M726,47.7h-8.3c-1.7,0-3,1.3-3,3v5.4c0,1.7,1.3,3,3,3h6.5c0,0.1,0,0.1,0,0.2v12.9
			c0,3,0.6,5.3,1.9,7c-1.3,1.7-1.9,4-1.9,7v12.9c0,0.1,0,0.1,0,0.2h-6.5c-1.7,0-3,1.3-3,3v5.4c0,1.7,1.3,3,3,3h8.3
			c5.3,0,9-4.2,9-10.1V88.4c0-2.8,0.6-3.4,3-3.4c1.7,0,3-1.3,3-3v-5.4c0-1.7-1.3-3-3-3c-2.4,0-3-0.6-3-3.4V57.9
			C735,51.9,731.3,47.7,726,47.7L726,47.7z"/>
	</g>
</g>
<g id="XMLID_2078_">
	<path id="XMLID_2079_" class="st13" d="M405.9,233.4h-6.4l-7.6-56.3h7.7l3.3,29.3l0.2,1.8h0.6l0.2-1.8l3.5-29.3h6l3.5,29.3l0.2,1.8
		h0.6l0.2-1.8l3.3-29.3h7.7l-7.6,56.3h-6.4l-3.8-26.7l-0.5-3.3h-0.3l-0.5,3.3L405.9,233.4z"/>
	<path id="XMLID_2081_" class="st13" d="M430.5,233.4l8.5-56.3h10.1l8.5,56.3h-8l-1.5-11.5h-8l-1.5,11.5H430.5z M444.5,195.4
		l-0.2-1.5h-0.5l-0.2,1.5l-2.4,17.8h5.7L444.5,195.4z"/>
	<path id="XMLID_2084_" class="st13" d="M476.1,208.9h-6.4v24.5h-8.3v-56.3h8.3v23.3h6.4v-23.3h8.3v56.3h-8.3V208.9z"/>
	<path id="XMLID_2086_" class="st13" d="M490.6,177.1h8.3v48.7h11v7.7h-19.2V177.1z"/>
	<path id="XMLID_2088_" class="st13" d="M526.9,192.2c0-1.8-0.1-3.9-0.6-5.5c-0.5-1.5-1.4-2.6-2.7-2.6c-2.1,0.1-2.8,2.3-2.8,5.6
		c0,1.9,0.8,3.9,2.1,6.1c1.2,2.1,2.8,4.4,4.4,6.7c1.9,2.8,3.8,5.7,5.3,8.6c1.5,2.8,2.5,5.7,2.5,8.8c0,3.8-0.6,7.3-2.4,9.9
		c-1.8,2.6-4.6,4.3-9.1,4.3c-5.3,0-8.3-2-10-5.1c-1.7-3.1-2.1-7.1-2.1-11.3l8.1-0.8c0,2.4,0.1,4.8,0.7,6.5c0.5,1.8,1.5,3.1,3.2,3.1
		c2.5,0,3.4-2.6,3.4-6.2c0-1.8-0.9-4-2.1-6.2c-0.7-1.1-1.4-2.2-2.1-3.4c-1.6-2.3-3.4-4.9-5.2-7.7c-1.8-2.8-3.2-5.7-4.1-8.7
		c-0.5-1.5-0.7-3-0.7-4.5c0-3.1,0.7-6.4,2.5-8.9c1.8-2.5,4.4-4.2,8.4-4.3c5-0.1,7.9,2,9.5,5c1.6,3.1,2.1,6.8,2.1,10L526.9,192.2z"/>
	<path id="XMLID_2090_" class="st13" d="M537.2,233.4l8.5-56.3h10.1l8.5,56.3h-8l-1.5-11.5h-8l-1.5,11.5H537.2z M551.2,195.4
		l-0.2-1.5h-0.5l-0.2,1.5l-2.4,17.8h5.7L551.2,195.4z"/>
	<path id="XMLID_2093_" class="st13" d="M568.1,177.1h8.3v48.7h11v7.7h-19.2V177.1z"/>
	<path id="XMLID_2095_" class="st13" d="M612.3,221.8c-0.1,2.3-0.5,4.4-1.4,6.1c-0.7,1.5-1.8,3-3.3,4.1c-1.5,1.2-3.6,1.9-6.4,1.9
		c-2.8,0-4.9-0.7-6.4-1.9c-1.5-1.2-2.5-2.6-3.2-4.1c-0.8-1.8-1.3-3.8-1.4-6.1v-33.2c0.1-2.2,0.5-4.3,1.4-6.1
		c0.7-1.5,1.7-3.1,3.2-4.2c1.5-1.2,3.7-1.9,6.4-1.9c2.8,0,4.8,0.8,6.4,1.9c1.5,1.1,2.6,2.7,3.3,4.2c0.8,1.8,1.3,3.8,1.4,6.1V221.8z
		 M604,188.7c0-1.5-0.3-2.6-1.1-3.5c-0.4-0.4-1-0.6-1.7-0.6c-1.5,0-2.1,1.1-2.5,2.1c-0.2,0.6-0.3,1.3-0.3,2.1v33.2
		c0,1.6,0.4,2.7,1.1,3.5c0.4,0.4,0.9,0.6,1.6,0.6c1.5,0,2.1-0.9,2.5-2.1c0.2-0.5,0.3-1.2,0.3-2.1V188.7z"/>
	<path id="XMLID_2098_" class="st13" d="M626.6,204.1l-0.7-2.6h-0.5v32h-7.6v-56.3h7.4l8,29.4l0.7,2.6h0.5v-32h7.6v56.3h-7.4
		L626.6,204.1z"/>
	<path id="XMLID_2100_" class="st13" d="M661.8,192.2c0-1.8-0.1-3.9-0.6-5.5c-0.5-1.5-1.4-2.6-2.7-2.6c-2.1,0.1-2.8,2.3-2.8,5.6
		c0,1.9,0.8,3.9,2.1,6.1c1.2,2.1,2.8,4.4,4.4,6.7c1.9,2.8,3.8,5.7,5.3,8.6c1.5,2.8,2.5,5.7,2.5,8.8c0,3.8-0.6,7.3-2.4,9.9
		c-1.8,2.6-4.6,4.3-9.1,4.3c-5.3,0-8.3-2-10-5.1c-1.7-3.1-2.1-7.1-2.1-11.3l8.1-0.8c0,2.4,0.1,4.8,0.7,6.5c0.5,1.8,1.5,3.1,3.2,3.1
		c2.5,0,3.4-2.6,3.4-6.2c0-1.8-0.9-4-2.1-6.2c-0.7-1.1-1.4-2.2-2.1-3.4c-1.6-2.3-3.4-4.9-5.2-7.7c-1.8-2.8-3.2-5.7-4.1-8.7
		c-0.5-1.5-0.7-3-0.7-4.5c0-3.1,0.7-6.4,2.5-8.9c1.8-2.5,4.4-4.2,8.4-4.3c5-0.1,7.9,2,9.5,5c1.6,3.1,2.1,6.8,2.1,10L661.8,192.2z"/>
</g>
<path id="XMLID_2102_" class="st24" d="M793.9,194.9V191c0-3.8,0.5-7.4,2.1-10.1c1.6-2.7,4.4-4.4,8.9-4.4c4.2,0,7.1,1.6,8.7,4.1
	c1.7,2.5,2.3,6.1,2.3,10c0,5.7-2.1,12.6-4.8,18.9c-2.8,6.4-6,12.2-8.1,15.8h13.1v8.2h-22.5v-8.2c2.5-3.9,4.8-7.9,6.9-11.9
	c1.8-3.4,3.4-7.2,4.8-11.1c1.3-3.9,2.3-7.7,2.4-11.2c0-1.5-0.1-3.3-0.5-4.6c-0.4-1.3-1.1-2.3-2.3-2.3c-1.1,0-1.8,0.8-2.2,2.1
	c-0.4,1.3-0.5,3-0.5,4.8v3.9H793.9z"/>
<path id="XMLID_2104_" class="st24" d="M843.9,221.8c-0.1,2.3-0.5,4.4-1.4,6.1c-0.7,1.5-1.8,3-3.3,4.1c-1.5,1.2-3.6,1.9-6.4,1.9
	c-2.8,0-4.9-0.7-6.4-1.9c-1.5-1.2-2.5-2.6-3.2-4.1c-0.8-1.8-1.3-3.8-1.4-6.1v-33.2c0.1-2.2,0.5-4.3,1.4-6.1c0.7-1.5,1.7-3.1,3.2-4.2
	c1.5-1.2,3.7-1.9,6.4-1.9c2.8,0,4.8,0.8,6.4,1.9c1.5,1.1,2.6,2.7,3.3,4.2c0.8,1.8,1.3,3.8,1.4,6.1V221.8z M835.7,188.7
	c0-1.5-0.3-2.6-1.1-3.5c-0.4-0.4-1-0.6-1.7-0.6c-1.5,0-2.1,1.1-2.5,2.1c-0.2,0.6-0.3,1.3-0.3,2.1v33.2c0,1.6,0.4,2.7,1.1,3.5
	c0.4,0.4,0.9,0.6,1.6,0.6c1.5,0,2.1-0.9,2.5-2.1c0.2-0.5,0.3-1.2,0.3-2.1V188.7z"/>
<path id="XMLID_2107_" class="st25" d="M847.8,189.3V184c3.4-0.7,5.5-2.5,7-4c0.8-0.9,1.4-1.9,1.8-2.9h5v56.3h-8.3v-44.1H847.8z"/>
<path id="XMLID_2109_" class="st25" d="M879.7,185.3h-12.4v-8.2h20.8v8.3l-8.3,48.1h-8.6L879.7,185.3z"/>
<g id="XMLID_2111_">
	<polygon id="XMLID_2112_" class="st5" points="781.2,222 685,222 696.6,190.5 769.6,190.5 	"/>
	<polygon id="XMLID_3_" class="st26" points="748,207.1 716.5,207.1 742.9,165.6 764.9,179.5 	"/>
	<line id="XMLID_1_" class="st9" x1="706.6" y1="207.1" x2="759.6" y2="207.1"/>
</g>
</svg>
