<?xml version="1.0" encoding="utf-8"?>
<!-- Generator: Adobe Illustrator 19.0.0, SVG Export Plug-In . SVG Version: 6.00 Build 0)  -->
<svg version="1.1" id="Ebene_1" xmlns="http://www.w3.org/2000/svg" xmlns:xlink="http://www.w3.org/1999/xlink" x="0px" y="0px"
	 viewBox="342 -431.1 1280.6 1702" style="enable-background:new 342 -431.1 1280.6 1702;" xml:space="preserve">
<style type="text/css">
	.st0{opacity:0.3;fill:#E9EDF3;enable-background:new    ;}
	.st1{opacity:0.3;}
	.st2{fill:#E9EDF3;}
	.st3{fill:#CCCCCB;stroke:#010202;stroke-width:3;stroke-linejoin:round;stroke-miterlimit:10;}
	.st4{fill:#FFFFFF;stroke:#010202;stroke-width:3;stroke-linejoin:round;stroke-miterlimit:10;}
	.st5{fill:none;stroke:#010202;stroke-width:3;stroke-linejoin:round;stroke-miterlimit:10;}
	.st6{fill:#F8ED6F;stroke:#E62F32;stroke-width:3;stroke-linejoin:round;stroke-miterlimit:10;}
	.st7{fill:#F8ED6F;stroke:#010202;stroke-width:3;stroke-linejoin:round;stroke-miterlimit:10;}
	.st8{fill:none;stroke:#28285B;stroke-width:3;stroke-miterlimit:10;}
	.st9{fill:none;stroke:#344F9D;stroke-width:3;stroke-miterlimit:10;}
	.st10{fill:none;stroke:#65328A;stroke-width:3;stroke-miterlimit:10;}
	.st11{fill:none;stroke:#8E2F89;stroke-width:3;stroke-miterlimit:10;}
	.st12{fill:#E8CABF;stroke:#010202;stroke-width:3;stroke-linecap:round;stroke-linejoin:round;stroke-miterlimit:10;}
	.st13{fill:none;stroke:#30358C;stroke-width:3;stroke-linecap:round;stroke-linejoin:round;stroke-miterlimit:10;}
	.st14{fill:none;stroke:#010202;stroke-width:3;stroke-linecap:round;stroke-linejoin:round;stroke-miterlimit:10;}
	.st15{fill:none;stroke:#67B32E;stroke-width:3;stroke-linecap:round;stroke-linejoin:round;stroke-miterlimit:10;}
	.st16{fill:#FFFFFF;stroke:#EA5627;stroke-width:3;stroke-miterlimit:10;}
	.st17{fill:none;stroke:#010202;stroke-width:3;stroke-miterlimit:10;}
	.st18{fill:none;stroke:#B3B2B2;stroke-width:3;stroke-miterlimit:10;}
	.st19{fill:none;stroke:#FFFFFF;stroke-width:3;stroke-miterlimit:10;}
	.st20{fill:#FFFFFF;}
	.st21{fill:#E83B68;}
	.st22{fill:#010202;}
	.st23{fill:#E62F32;stroke:#010202;stroke-width:3;stroke-miterlimit:10;}
	.st24{fill:#808081;}
	.st25{fill:none;stroke:#3953A1;stroke-width:3;stroke-miterlimit:10;}
	.st26{fill:none;stroke:#69B539;stroke-width:3;stroke-miterlimit:10;}
	.st27{fill:none;stroke:#A24F99;stroke-width:3;stroke-miterlimit:10;}
	.st28{fill:none;stroke:#E62F32;stroke-width:3;stroke-miterlimit:10;}
	.st29{fill:none;stroke:#A6C4D5;stroke-width:3;stroke-linecap:round;stroke-miterlimit:10;}
	.st30{fill:#65328A;}
	.st31{fill:#A6539B;}
</style>
<g>
	<rect id="XMLID_88_" x="342" y="-431.1" class="st0" width="1280.6" height="1702"/>
</g>
<g class="st1">
	<polygon id="XMLID_89_" class="st2" points="1622.6,1270.9 342,1270.9 342.4,-431.1 1623,-431.1 	"/>
</g>
<g id="XMLID_9_">
	<g id="XMLID_10_">
		<rect id="XMLID_3051_" x="420.5" y="988.1" class="st3" width="69.3" height="9.4"/>
		<rect id="XMLID_3050_" x="428.4" y="997.6" class="st3" width="53.5" height="83.5"/>
		<rect id="XMLID_3049_" x="441" y="1018.1" class="st4" width="28.3" height="40.9"/>
		<path id="XMLID_11_" class="st5" d="M473,988.1c0,0,0-17.3-11-22"/>
	</g>
	<path id="XMLID_3046_" class="st6" d="M463.7,965.7l-0.8,1.3c-0.9,1.5-2.9,1.9-4.4,1l-5.2-3.3c-1.5-0.9-1.9-2.9-1-4.4l0.8-1.3
		c0.9-1.5,2.9-1.9,4.4-1l5.2,3.3C464.2,962.2,464.7,964.2,463.7,965.7z"/>
</g>
<g id="XMLID_12_">
	<polyline id="XMLID_13_" class="st7" points="1541.5,1148.7 1550.2,1148.7 1559.1,1171.7 1559.1,1217 1487.7,1217 1487.7,1171.7 
		1496.1,1148.7 1518.6,1148.7 	"/>
	<polygon id="XMLID_3043_" class="st4" points="1534.2,1161 1510.8,1161 1530.4,1130.2 1546.7,1140.5 	"/>
	<line id="XMLID_3042_" class="st5" x1="1503.5" y1="1161" x2="1542.8" y2="1161"/>
	<line id="XMLID_3041_" class="st5" x1="1487.7" y1="1171.7" x2="1559.1" y2="1171.7"/>
</g>
<g id="XMLID_14_">
	<polyline id="XMLID_15_" class="st7" points="1043.5,708.7 1052.2,708.7 1061.1,731.7 1061.1,777 989.7,777 989.7,731.7 
		998.1,708.7 1020.6,708.7 	"/>
	<polygon id="XMLID_3038_" class="st4" points="1036.2,721 1012.8,721 1032.4,690.2 1048.7,700.5 	"/>
	<line id="XMLID_3037_" class="st5" x1="1005.5" y1="721" x2="1044.8" y2="721"/>
	<line id="XMLID_3036_" class="st5" x1="989.7" y1="731.7" x2="1061.1" y2="731.7"/>
</g>
<g id="XMLID_16_">
	<polyline id="XMLID_17_" class="st7" points="711.5,532.7 720.2,532.7 729.1,555.7 729.1,601 657.7,601 657.7,555.7 666.1,532.7 
		688.6,532.7 	"/>
	<polygon id="XMLID_3033_" class="st4" points="704.2,545 680.8,545 700.4,514.2 716.7,524.5 	"/>
	<line id="XMLID_3032_" class="st5" x1="673.5" y1="545" x2="712.8" y2="545"/>
	<line id="XMLID_3031_" class="st5" x1="657.7" y1="555.7" x2="729.1" y2="555.7"/>
</g>
<g id="XMLID_18_">
	<circle id="XMLID_3029_" class="st8" cx="441.4" cy="693.2" r="45.9"/>
	<line id="XMLID_3028_" class="st8" x1="412" y1="727.1" x2="441.4" y2="693.2"/>
	<line id="XMLID_3027_" class="st8" x1="441.4" y1="693.2" x2="441.4" y2="647.3"/>
	<line id="XMLID_3026_" class="st8" x1="484" y1="677.9" x2="441.4" y2="693.2"/>
	<line id="XMLID_3025_" class="st8" x1="478.6" y1="719.4" x2="441.4" y2="693.2"/>
</g>
<g id="XMLID_19_">
	<rect id="XMLID_3023_" x="1134.9" y="1156.3" class="st9" width="26" height="67.5"/>
	<rect id="XMLID_3022_" x="1168.3" y="1146.1" class="st10" width="26" height="77.7"/>
	<rect id="XMLID_3021_" x="1201.6" y="1166.5" class="st11" width="26" height="57.3"/>
	<rect id="XMLID_3020_" x="1235" y="1198.3" class="st8" width="26" height="25.5"/>
</g>
<g id="XMLID_20_">
	<path id="XMLID_21_" class="st12" d="M1327.1,1092.3c0-3.4,2.7-6.1,6.1-6.1c3.4,0,6.1,2.7,6.1,6.1v18.3c0-3.4,2.7-6.1,6.1-6.1
		c3.4,0,6.1,2.7,6.1,6.1v3.8c0-3.4,2.7-6.1,6.1-6.1c3.4,0,6.1,2.7,6.1,6.1v3.8c0-3.4,2.7-6.1,6.1-6.1s6.1,2.7,6.1,6.1v0.4v29.8
		l-8,14.5v11.4h-35.1l-0.4-9.5c0,0-15.1-24.9-23.7-34.3c-1.1-1.3-0.4-5.9,2.3-6.9s10.1-0.3,16,8.6v-38.4v-1.5H1327.1z"/>
	<path id="XMLID_22_" class="st13" d="M1339.3,1110.6"/>
	<line id="XMLID_23_" class="st14" x1="1339.3" y1="1125.1" x2="1339.3" y2="1110.6"/>
	<line id="XMLID_24_" class="st14" x1="1351.5" y1="1125.9" x2="1351.5" y2="1114.4"/>
	<line id="XMLID_25_" class="st14" x1="1363.7" y1="1129.3" x2="1363.7" y2="1117.9"/>
	<path id="XMLID_26_" class="st13" d="M1354.5,1132.7"/>
	<path id="XMLID_27_" class="st15" d="M1320.2,1103c-2.4-2.9-3.8-6.6-3.8-10.7c0-9.3,7.5-16.8,16.8-16.8c9.3,0,16.8,7.5,16.8,16.8
		c0,2.3-0.5,4.5-1.3,6.5"/>
	<path id="XMLID_28_" class="st15" d="M1315.7,1105.9c-3-3.8-4.8-8.6-4.8-13.8c0-12.3,10-22.3,22.3-22.3c12.3,0,22.3,10,22.3,22.3
		c0,3.1-0.6,6-1.7,8.7"/>
</g>
<g id="XMLID_29_">
	<polygon id="XMLID_30_" class="st16" points="800.3,1082.8 675.3,1082.8 675.3,1151.3 699.1,1151.3 699.1,1159.3 709,1151.3 
		800.3,1151.3 	"/>
	<circle id="XMLID_3008_" class="st17" cx="695.5" cy="1170.4" r="2.9"/>
	<circle id="XMLID_3007_" class="st18" cx="685.5" cy="1170.4" r="2.9"/>
	<circle id="XMLID_3006_" class="st18" cx="675.6" cy="1170.4" r="2.9"/>
	<circle id="XMLID_3005_" class="st19" cx="705.4" cy="1170.4" r="2.9"/>
	<circle id="XMLID_3004_" class="st19" cx="715.3" cy="1170.4" r="2.9"/>
</g>
<g id="XMLID_31_">
	<rect id="XMLID_3002_" x="505" y="811" class="st20" width="74.6" height="106.8"/>
	<path id="XMLID_3001_" class="st21" d="M519,833.8c0.3,0.3,0.8,0.5,1.1,0.5c0.3,0,0.8-0.2,1.1-0.5l2.1-2.1l2.1,2.1
		c0.3,0.3,0.8,0.5,1.1,0.5c0.3,0,0.8-0.2,1.1-0.5c0.6-0.6,0.6-1.6,0-2.2l-2.1-2.1l2.1-2.1c0.6-0.6,0.6-1.6,0-2.2s-1.6-0.6-2.2,0
		l-2.1,2.1l-2.1-2.1c-0.6-0.6-1.6-0.6-2.2,0c-0.6,0.6-0.6,1.6,0,2.2l2.1,2.1l-2.1,2.1C518.4,832.2,518.4,833.1,519,833.8z"/>
	<path id="XMLID_3000_" class="st22" d="M535.9,830.2h29.2c1,0,1.6-0.6,1.6-1.6s-0.6-1.6-1.6-1.6h-29.2c-1,0-1.6,0.6-1.6,1.6
		S535,830.2,535.9,830.2z"/>
	<path id="XMLID_2999_" class="st21" d="M519,851.3c0.3,0.3,0.8,0.5,1.1,0.5c0.3,0,0.8-0.2,1.1-0.5l2.1-2.1l2.1,2.1
		c0.3,0.3,0.8,0.5,1.1,0.5c0.3,0,0.8-0.2,1.1-0.5c0.6-0.6,0.6-1.6,0-2.2l-2.1-2.1l2.1-2.1c0.6-0.6,0.6-1.6,0-2.2s-1.6-0.6-2.2,0
		l-2.1,2.1l-2.1-2.1c-0.6-0.6-1.6-0.6-2.2,0c-0.6,0.6-0.6,1.6,0,2.2l2.1,2.1l-2.1,2.1C518.4,849.6,518.4,850.7,519,851.3z"/>
	<path id="XMLID_2998_" class="st22" d="M535.9,847.8h29.2c1,0,1.6-0.6,1.6-1.6s-0.6-1.6-1.6-1.6h-29.2c-1,0-1.6,0.6-1.6,1.6
		S535,847.8,535.9,847.8z"/>
	<path id="XMLID_2997_" class="st21" d="M519,868.7c0.3,0.3,0.8,0.5,1.1,0.5c0.3,0,0.8-0.2,1.1-0.5l2.1-2.1l2.1,2.1
		c0.3,0.3,0.8,0.5,1.1,0.5c0.3,0,0.8-0.2,1.1-0.5c0.6-0.6,0.6-1.6,0-2.2l-2.1-2.1l2.1-2.1c0.6-0.6,0.6-1.6,0-2.2s-1.6-0.6-2.2,0
		l-1.9,1.9l-2.1-2.1c-0.6-0.6-1.6-0.6-2.2,0c-0.6,0.6-0.6,1.6,0,2.2l2.1,2.1l-2.1,2.1C518.4,867.1,518.4,868.1,519,868.7z"/>
	<path id="XMLID_2996_" class="st22" d="M535.9,865.2h29.2c1,0,1.6-0.6,1.6-1.6s-0.6-1.6-1.6-1.6h-29.2c-1,0-1.6,0.6-1.6,1.6
		S535,865.2,535.9,865.2z"/>
	<path id="XMLID_2995_" class="st21" d="M519,886.1c0.3,0.3,0.8,0.5,1.1,0.5c0.3,0,0.8-0.2,1.1-0.5l2.1-2.1l2.1,2.1
		c0.3,0.3,0.8,0.5,1.1,0.5c0.3,0,0.8-0.2,1.1-0.5c0.6-0.6,0.6-1.6,0-2.2l-2.1-2.1l2.1-2.1c0.6-0.6,0.6-1.6,0-2.2s-1.6-0.6-2.2,0
		l-1.9,2.1l-2.1-2.1c-0.6-0.6-1.6-0.6-2.2,0c-0.6,0.6-0.6,1.6,0,2.2l2.1,2.1l-2.1,2.1C518.4,884.5,518.4,885.5,519,886.1z"/>
	<path id="XMLID_2994_" class="st22" d="M535.9,882.6h29.2c1,0,1.6-0.6,1.6-1.6s-0.6-1.6-1.6-1.6h-29.2c-1,0-1.6,0.6-1.6,1.6
		S535,882.6,535.9,882.6z"/>
	<path id="XMLID_2993_" class="st21" d="M519,903.7c0.3,0.3,0.8,0.5,1.1,0.5c0.3,0,0.8-0.2,1.1-0.5l2.1-2.1l2.1,2.1
		c0.3,0.3,0.8,0.5,1.1,0.5c0.3,0,0.8-0.2,1.1-0.5c0.6-0.6,0.6-1.6,0-2.2l-2.1-2.1l2.1-2.1c0.6-0.6,0.6-1.6,0-2.2s-1.6-0.6-2.2,0
		l-2.1,2.1l-2.1-2.1c-0.6-0.6-1.6-0.6-2.2,0c-0.6,0.6-0.6,1.6,0,2.2l2.1,2.1l-2.1,2.1C518.4,901.9,518.4,903,519,903.7z"/>
	<path id="XMLID_2992_" class="st22" d="M535.9,900.1h29.2c1,0,1.6-0.6,1.6-1.6s-0.6-1.6-1.6-1.6h-29.2c-1,0-1.6,0.6-1.6,1.6
		S535,900.1,535.9,900.1z"/>
</g>
<g id="XMLID_32_">
	<rect id="XMLID_2990_" x="1304" y="848" class="st20" width="74.6" height="106.8"/>
	<path id="XMLID_2989_" class="st21" d="M1318,870.8c0.3,0.3,0.8,0.5,1.1,0.5s0.8-0.2,1.1-0.5l2.1-2.1l2.1,2.1
		c0.3,0.3,0.8,0.5,1.1,0.5s0.8-0.2,1.1-0.5c0.6-0.6,0.6-1.6,0-2.2l-2.1-2.1l2.1-2.1c0.6-0.6,0.6-1.6,0-2.2s-1.6-0.6-2.2,0l-2.1,2.1
		l-2.1-2.1c-0.6-0.6-1.6-0.6-2.2,0s-0.6,1.6,0,2.2l2.1,2.1l-2.1,2.1C1317.4,869.2,1317.4,870.1,1318,870.8z"/>
	<path id="XMLID_2988_" class="st22" d="M1334.9,867.2h29.2c1,0,1.6-0.6,1.6-1.6s-0.6-1.6-1.6-1.6h-29.2c-1,0-1.6,0.6-1.6,1.6
		S1334,867.2,1334.9,867.2z"/>
	<path id="XMLID_2987_" class="st21" d="M1318,888.3c0.3,0.3,0.8,0.5,1.1,0.5s0.8-0.2,1.1-0.5l2.1-2.1l2.1,2.1
		c0.3,0.3,0.8,0.5,1.1,0.5s0.8-0.2,1.1-0.5c0.6-0.6,0.6-1.6,0-2.2l-2.1-2.1l2.1-2.1c0.6-0.6,0.6-1.6,0-2.2s-1.6-0.6-2.2,0l-2.1,2.1
		l-2.1-2.1c-0.6-0.6-1.6-0.6-2.2,0s-0.6,1.6,0,2.2l2.1,2.1l-2.1,2.1C1317.4,886.6,1317.4,887.7,1318,888.3z"/>
	<path id="XMLID_2986_" class="st22" d="M1334.9,884.8h29.2c1,0,1.6-0.6,1.6-1.6s-0.6-1.6-1.6-1.6h-29.2c-1,0-1.6,0.6-1.6,1.6
		S1334,884.8,1334.9,884.8z"/>
	<path id="XMLID_2985_" class="st21" d="M1318,905.7c0.3,0.3,0.8,0.5,1.1,0.5s0.8-0.2,1.1-0.5l2.1-2.1l2.1,2.1
		c0.3,0.3,0.8,0.5,1.1,0.5s0.8-0.2,1.1-0.5c0.6-0.6,0.6-1.6,0-2.2l-2.1-2.1l2.1-2.1c0.6-0.6,0.6-1.6,0-2.2s-1.6-0.6-2.2,0l-1.9,1.9
		l-2.1-2.1c-0.6-0.6-1.6-0.6-2.2,0s-0.6,1.6,0,2.2l2.1,2.1l-2.1,2.1C1317.4,904.1,1317.4,905.1,1318,905.7z"/>
	<path id="XMLID_2984_" class="st22" d="M1334.9,902.2h29.2c1,0,1.6-0.6,1.6-1.6s-0.6-1.6-1.6-1.6h-29.2c-1,0-1.6,0.6-1.6,1.6
		S1334,902.2,1334.9,902.2z"/>
	<path id="XMLID_2983_" class="st21" d="M1318,923.1c0.3,0.3,0.8,0.5,1.1,0.5s0.8-0.2,1.1-0.5l2.1-2.1l2.1,2.1
		c0.3,0.3,0.8,0.5,1.1,0.5s0.8-0.2,1.1-0.5c0.6-0.6,0.6-1.6,0-2.2l-2.1-2.1l2.1-2.1c0.6-0.6,0.6-1.6,0-2.2s-1.6-0.6-2.2,0l-1.9,2.1
		l-2.1-2.1c-0.6-0.6-1.6-0.6-2.2,0s-0.6,1.6,0,2.2l2.1,2.1l-2.1,2.1C1317.4,921.5,1317.4,922.5,1318,923.1z"/>
	<path id="XMLID_2982_" class="st22" d="M1334.9,919.6h29.2c1,0,1.6-0.6,1.6-1.6s-0.6-1.6-1.6-1.6h-29.2c-1,0-1.6,0.6-1.6,1.6
		S1334,919.6,1334.9,919.6z"/>
	<path id="XMLID_2981_" class="st21" d="M1318,940.7c0.3,0.3,0.8,0.5,1.1,0.5s0.8-0.2,1.1-0.5l2.1-2.1l2.1,2.1
		c0.3,0.3,0.8,0.5,1.1,0.5s0.8-0.2,1.1-0.5c0.6-0.6,0.6-1.6,0-2.2l-2.1-2.1l2.1-2.1c0.6-0.6,0.6-1.6,0-2.2s-1.6-0.6-2.2,0l-2.1,2.1
		l-2.1-2.1c-0.6-0.6-1.6-0.6-2.2,0s-0.6,1.6,0,2.2l2.1,2.1l-2.1,2.1C1317.4,938.9,1317.4,940,1318,940.7z"/>
	<path id="XMLID_2980_" class="st22" d="M1334.9,937.1h29.2c1,0,1.6-0.6,1.6-1.6s-0.6-1.6-1.6-1.6h-29.2c-1,0-1.6,0.6-1.6,1.6
		S1334,937.1,1334.9,937.1z"/>
</g>
<g id="XMLID_33_">
	<path id="XMLID_2978_" class="st4" d="M647.6,745.1L647.6,745.1c-7.8,0-14.2-6.4-14.2-14.2l0,0c0-7.8,6.4-14.2,14.2-14.2l0,0
		c7.8,0,14.2,6.4,14.2,14.2l0,0C661.8,738.7,655.4,745.1,647.6,745.1z"/>
	<path id="XMLID_2977_" class="st7" d="M631.3,747.7c0.9,0.9,2.3,1.4,3.2,1.4s2.3-0.5,3.2-1.4l10-10l12,11c0.9,0.9,2.3,1.4,3.2,1.4
		s2.3-0.5,3.2-1.4c1.8-1.8,1.8-4.5,0-6.3l-12-11l9-10c1.8-1.8,1.8-4.5,0-6.3s-4.5-1.8-6.3,0l-9,10l-5.9-5.9c-1.8-1.8-4.5-1.8-6.3,0
		c-1.8,1.8-1.8,4.5,0,6.3l5.9,5.9l-10,10C629.5,743.2,629.5,745.9,631.3,747.7z"/>
</g>
<path id="XMLID_34_" class="st9" d="M574.3,1120.4l-15.8-1.6c-2.1-0.1-3.9,1.4-4,3.5l0,0c-0.1,2.1,1.4,3.9,3.5,4l6.3,0.8l-41,33.1
	l-29.1-21.7l-50.8,39.6c-1.6,1.3-1.9,3.7-0.7,5.3c0.7,1,1.9,1.5,3,1.5c0.8,0,1.6-0.3,2.3-0.8l46.3-36l29.2,21.8l45.5-36.7l-0.8,7.2
	c-0.3,2.1,1.1,4,3.2,4.3c2.1,0.3,4-1.1,4.3-3.2l2.1-16.6C578.3,1120.6,578.3,1120.6,574.3,1120.4z"/>
<g id="XMLID_35_">
	<path id="XMLID_36_" class="st12" d="M702.5,872.2c0-3.4,2.7-6.1,6.1-6.1c3.4,0,6.1,2.7,6.1,6.1v18.3c0-3.4,2.7-6.1,6.1-6.1
		c3.4,0,6.1,2.7,6.1,6.1v3.8c0-3.4,2.7-6.1,6.1-6.1c3.4,0,6.1,2.7,6.1,6.1v3.8c0-3.4,2.7-6.1,6.1-6.1c3.4,0,6.1,2.7,6.1,6.1v0.4
		v29.8l-8,14.5v11.4h-35.1l-0.4-9.5c0,0-15.1-24.9-23.7-34.3c-1.1-1.3-0.4-5.9,2.3-6.9c2.7-1,10.1-0.3,16,8.6v-38.4L702.5,872.2
		L702.5,872.2z"/>
	<path id="XMLID_37_" class="st13" d="M714.7,890.5"/>
	<line id="XMLID_38_" class="st14" x1="714.7" y1="905" x2="714.7" y2="890.5"/>
	<line id="XMLID_39_" class="st14" x1="726.9" y1="905.8" x2="726.9" y2="894.3"/>
	<line id="XMLID_40_" class="st14" x1="739.1" y1="909.2" x2="739.1" y2="897.8"/>
	<path id="XMLID_41_" class="st13" d="M729.9,912.6"/>
	<path id="XMLID_42_" class="st15" d="M695.6,882.9c-2.4-2.9-3.8-6.6-3.8-10.7c0-9.3,7.5-16.8,16.8-16.8c9.3,0,16.8,7.5,16.8,16.8
		c0,2.3-0.5,4.5-1.3,6.5"/>
	<path id="XMLID_43_" class="st15" d="M691.1,885.8c-3-3.8-4.8-8.6-4.8-13.8c0-12.3,10-22.3,22.3-22.3c12.3,0,22.3,10,22.3,22.3
		c0,3.1-0.6,6-1.7,8.7"/>
</g>
<g id="XMLID_44_">
	<path id="XMLID_2965_" class="st4" d="M1475.1,1022.4L1475.1,1022.4c-7.8,0-14.2-6.4-14.2-14.2l0,0c0-7.8,6.4-14.2,14.2-14.2l0,0
		c7.8,0,14.2,6.4,14.2,14.2l0,0C1489.3,1016,1482.9,1022.4,1475.1,1022.4z"/>
	<path id="XMLID_2964_" class="st23" d="M1458.7,1025c0.9,0.9,2.3,1.4,3.2,1.4s2.3-0.5,3.2-1.4l10-10l12,11c0.9,0.9,2.3,1.4,3.2,1.4
		s2.3-0.5,3.2-1.4c1.8-1.8,1.8-4.5,0-6.3l-12-11l9-10c1.8-1.8,1.8-4.5,0-6.3s-4.5-1.8-6.3,0l-9,10l-5.9-5.9c-1.8-1.8-4.5-1.8-6.3,0
		s-1.8,4.5,0,6.3l5.9,5.9l-10,10C1456.9,1020.5,1456.9,1023.2,1458.7,1025z"/>
</g>
<g id="XMLID_45_">
	<g id="XMLID_46_">
		<g id="XMLID_47_">
			<path id="XMLID_2962_" class="st24" d="M1019.6,1150.4h5.1v2.5c0,1.8-0.1,3.6-0.3,5.4l-0.3,2.5l-5.1-0.6l0.3-2.5
				c0.2-1.6,0.3-3.2,0.3-4.8V1150.4z"/>
		</g>
		<g id="XMLID_48_">
			<path id="XMLID_49_" class="st24" d="M1017.8,1164.7l4.7,1.9l-1,2.4c-1.4,3.4-3.2,6.6-5.5,9.5l-1.6,2l-4-3.1l1.6-2
				c2-2.6,3.6-5.4,4.8-8.3L1017.8,1164.7z M947.7,1164.7l1,2.4c1.2,3,2.9,5.8,4.8,8.3l1.6,2l-4,3.1l-1.6-2c-2.2-2.9-4.1-6.1-5.5-9.5
				l-1-2.4L947.7,1164.7z M1007.2,1180.6l3.1,4l-2,1.6c-2.9,2.2-6.1,4.1-9.5,5.5l-2.4,1l-2-4.7l2.4-1c3-1.2,5.8-2.9,8.3-4.8
				L1007.2,1180.6z M958.3,1180.7l2,1.6c2.6,2,5.4,3.6,8.3,4.8l2.4,1l-1.9,4.7l-2.4-1c-3.4-1.4-6.6-3.2-9.5-5.5l-2-1.6L958.3,1180.7
				z M990.1,1189.2l0.7,5.1l-2.5,0.3c-3.6,0.5-7.3,0.5-10.9,0l-2.5-0.3l0.7-5.1l2.5,0.3c3.2,0.4,6.5,0.4,9.6,0L990.1,1189.2z"/>
		</g>
		<g id="XMLID_50_">
			<path id="XMLID_2953_" class="st24" d="M940.8,1150.4h5.1v2.5c0,1.6,0.1,3.2,0.3,4.8l0.3,2.5l-5.1,0.6l-0.3-2.5
				c-0.2-1.8-0.3-3.6-0.3-5.4V1150.4z"/>
		</g>
	</g>
	<g id="XMLID_51_">
		<g id="XMLID_52_">
			<path id="XMLID_2950_" class="st24" d="M1029.2,1150.4h5.1v2.5c0,1.8-0.1,3.6-0.3,5.4l-0.3,2.5l-5.1-0.5l0.3-2.5
				c0.2-1.6,0.2-3.2,0.2-4.8L1029.2,1150.4L1029.2,1150.4z"/>
		</g>
		<g id="XMLID_53_">
			<path id="XMLID_54_" class="st24" d="M1027.9,1164.3l4.9,1.5l-0.8,2.4c-1,3.2-2.3,6.3-3.9,9.3l-1.2,2.2l-4.5-2.4l1.2-2.2
				c1.4-2.7,2.6-5.5,3.5-8.4L1027.9,1164.3z M937.5,1164.3l0.8,2.4c0.9,2.9,2.1,5.7,3.5,8.4l1.2,2.2l-4.5,2.4l-1.2-2.2
				c-1.6-3-2.9-6.1-3.9-9.3l-0.8-2.4L937.5,1164.3z M1020.2,1180.6l3.9,3.2l-1.6,2c-2.1,2.6-4.5,5-7.1,7.1l-2,1.6l-3.2-3.9l2-1.6
				c2.3-1.9,4.5-4.1,6.4-6.4L1020.2,1180.6z M945.3,1180.7l1.6,2c1.9,2.3,4.1,4.5,6.4,6.4l2,1.6l-3.2,4l-2-1.6
				c-2.6-2.1-5-4.5-7.2-7.1l-1.6-2L945.3,1180.7z M1006.8,1192.8l2.4,4.5l-2.2,1.2c-3,1.6-6.1,2.9-9.3,3.8l-2.4,0.7l-1.5-4.9
				l2.4-0.7c2.9-0.9,5.7-2,8.4-3.5L1006.8,1192.8z M958.7,1192.9l2.3,1.2c2.7,1.4,5.5,2.6,8.4,3.5l2.4,0.7l-1.5,4.9l-2.4-0.7
				c-3.2-1-6.3-2.3-9.3-3.8l-2.3-1.2L958.7,1192.9z M989.8,1199l0.5,5.1l-2.5,0.2c-3.3,0.3-6.7,0.3-10.1,0l-2.5-0.2l0.5-5.1l2.5,0.2
				c3,0.3,6.1,0.3,9.1,0L989.8,1199z"/>
		</g>
		<g id="XMLID_55_">
			<path id="XMLID_2939_" class="st24" d="M931.1,1150.4h5.1v2.5c0,1.6,0.1,3.2,0.2,4.8l0.3,2.5l-5.1,0.5l-0.3-2.5
				c-0.2-1.8-0.3-3.6-0.3-5.4L931.1,1150.4L931.1,1150.4z"/>
		</g>
	</g>
	<g id="XMLID_56_">
		<g id="XMLID_57_">
			<path id="XMLID_2936_" class="st24" d="M903.1,1150.4h5.1v2.5c0,1.6,0.1,3.3,0.2,4.9l0.2,2.5l-5.1,0.3l-0.2-2.5
				c-0.1-1.7-0.2-3.5-0.2-5.3V1150.4z"/>
		</g>
		<g id="XMLID_58_">
			<path id="XMLID_59_" class="st24" d="M909.1,1165.1l0.5,2.5c0.6,3.2,1.5,6.4,2.5,9.4l0.8,2.4l-4.8,1.6l-0.8-2.4
				c-1.1-3.3-2-6.7-2.7-10.1l-0.5-2.5L909.1,1165.1z M1056.3,1165.2l5,1l-0.5,2.5c-0.7,3.4-1.6,6.8-2.7,10.1l-0.8,2.4l-4.8-1.6
				l0.8-2.4c1-3.1,1.9-6.2,2.5-9.4L1056.3,1165.2z M914.7,1183.7l1.1,2.3c1.4,2.9,3.1,5.7,4.9,8.4l1.4,2.1l-4.2,2.8l-1.4-2.1
				c-1.9-2.9-3.7-5.9-5.2-9l-1.1-2.3L914.7,1183.7z M1050.7,1183.8l4.6,2.3l-1.1,2.3c-1.5,3.1-3.3,6.1-5.2,9l-1.4,2.1l-4.2-2.8
				l1.4-2.1c1.8-2.7,3.5-5.5,4.9-8.4L1050.7,1183.8z M925,1200.2l1.7,1.9c2.1,2.4,4.5,4.8,6.9,6.9l1.9,1.7l-3.4,3.8l-1.9-1.7
				c-2.6-2.3-5.1-4.8-7.4-7.4l-1.7-1.9L925,1200.2z M1040.4,1200.3l3.8,3.4l-1.7,1.9c-2.3,2.6-4.8,5.1-7.4,7.3l-1.9,1.7l-3.4-3.8
				l1.9-1.7c2.4-2.1,4.8-4.4,6.9-6.9L1040.4,1200.3z M939.2,1213.5l2.1,1.4c2.7,1.8,5.5,3.4,8.4,4.9l2.3,1.1l-2.3,4.6l-2.3-1.1
				c-3.1-1.5-6.1-3.3-9-5.2l-2.1-1.4L939.2,1213.5z M1026.2,1213.6l2.8,4.2l-2.1,1.4c-2.9,1.9-5.9,3.7-9,5.2l-2.3,1.1l-2.3-4.6
				l2.3-1.1c2.9-1.4,5.7-3.1,8.4-4.9L1026.2,1213.6z M956.3,1222.8l2.4,0.8c3.1,1,6.2,1.9,9.4,2.5l2.5,0.5l-1,5l-2.5-0.5
				c-3.4-0.7-6.8-1.6-10.1-2.7l-2.4-0.8L956.3,1222.8z M1009.1,1222.8l1.6,4.8l-2.4,0.8c-3.3,1.1-6.7,2-10.1,2.7l-2.5,0.5l-1-5
				l2.5-0.5c3.2-0.6,6.4-1.5,9.4-2.5L1009.1,1222.8z M975.3,1227.2l2.5,0.2c3.2,0.2,6.5,0.2,9.7,0l2.5-0.2l0.3,5.1l-2.5,0.2
				c-3.4,0.2-6.9,0.2-10.4,0l-2.5-0.2L975.3,1227.2z"/>
		</g>
		<g id="XMLID_60_">
			<path id="XMLID_2921_" class="st24" d="M1057.3,1150.4h5.1v2.5c0,1.7-0.1,3.5-0.2,5.3l-0.2,2.5l-5.1-0.3l0.2-2.5
				c0.1-1.6,0.2-3.3,0.2-4.9V1150.4z"/>
		</g>
	</g>
	<g id="XMLID_61_">
		<g id="XMLID_62_">
			<path id="XMLID_2918_" class="st24" d="M912,1150.4h5.1v2.5c0,1.6,0.1,3.3,0.2,4.9l0.2,2.5l-5.1,0.4l-0.2-2.5
				c-0.1-1.7-0.2-3.5-0.2-5.3V1150.4z"/>
		</g>
		<g id="XMLID_63_">
			<path id="XMLID_64_" class="st24" d="M918.1,1164.6l0.5,2.5c0.7,3,1.6,6,2.7,9l0.9,2.4l-4.8,1.8l-0.9-2.4
				c-1.2-3.1-2.1-6.4-2.9-9.7l-0.5-2.5L918.1,1164.6z M1047.4,1164.7l5,1.1l-0.6,2.5c-0.7,3.3-1.7,6.5-2.9,9.6l-0.9,2.4l-4.8-1.8
				l0.9-2.4c1.1-2.9,2-5.9,2.7-8.9L1047.4,1164.7z M924,1182.3l1.2,2.2c1.5,2.7,3.2,5.4,5.1,7.8l1.5,2l-4.1,3.1l-1.5-2
				c-2-2.7-3.9-5.5-5.5-8.5l-1.2-2.2L924,1182.3z M1041.5,1182.4l4.5,2.5l-1.2,2.2c-1.6,2.9-3.5,5.8-5.5,8.4l-1.5,2l-4.1-3.1l1.5-2
				c1.9-2.5,3.6-5.1,5.1-7.8L1041.5,1182.4z M934.6,1197.6l1.8,1.8c2.2,2.2,4.6,4.3,7.1,6.1l2,1.5l-3.1,4.1l-2-1.5
				c-2.7-2-5.2-4.2-7.6-6.6l-1.8-1.8L934.6,1197.6z M1030.8,1197.7l3.6,3.6l-1.8,1.8c-2.4,2.4-4.9,4.6-7.6,6.6l-2,1.5l-3-4.1l2-1.5
				c2.5-1.9,4.9-3.9,7.1-6.1L1030.8,1197.7z M949.1,1209.4l2.2,1.2c2.7,1.5,5.6,2.8,8.5,3.9l2.4,0.9l-1.8,4.8l-2.4-0.9
				c-3.1-1.2-6.2-2.6-9.2-4.2l-2.2-1.2L949.1,1209.4z M1016.3,1209.4l2.4,4.5l-2.2,1.2c-2.9,1.6-6,3-9.2,4.2l-2.4,0.9l-1.8-4.8
				l2.4-0.9c2.9-1.1,5.8-2.4,8.5-3.9L1016.3,1209.4z M966.3,1216.6l2.5,0.5c3,0.7,6.1,1.1,9.2,1.3l2.5,0.2l-0.4,5.1l-2.5-0.2
				c-3.3-0.2-6.7-0.7-10-1.4l-2.5-0.5L966.3,1216.6z M999.1,1216.6l1.1,5l-2.5,0.5c-3.3,0.7-6.6,1.2-10,1.4l-2.5,0.2l-0.4-5.1
				l2.5-0.2c3.1-0.2,6.2-0.7,9.2-1.3L999.1,1216.6z"/>
		</g>
		<g id="XMLID_65_">
			<path id="XMLID_2904_" class="st24" d="M1048.4,1150.4h5.1v2.5c0,1.8-0.1,3.5-0.2,5.3l-0.2,2.5l-5.1-0.4l0.2-2.5
				c0.1-1.6,0.2-3.3,0.2-4.9V1150.4z"/>
		</g>
	</g>
	<g id="XMLID_66_">
		<g id="XMLID_67_">
			<path id="XMLID_2901_" class="st24" d="M921.6,1150.4h5.1v2.5c0,1.6,0.1,3.3,0.2,4.9l0.2,2.5l-5.1,0.4l-0.2-2.5
				c-0.2-1.8-0.2-3.5-0.2-5.3V1150.4z"/>
		</g>
		<g id="XMLID_68_">
			<path id="XMLID_69_" class="st24" d="M927.9,1165l0.7,2.5c0.8,3.1,2,6.2,3.3,9.2l1.1,2.3l-4.6,2.2l-1.1-2.3
				c-1.5-3.2-2.7-6.6-3.6-10l-0.7-2.5L927.9,1165z M1037.5,1165.1l4.9,1.3l-0.7,2.5c-0.9,3.4-2.2,6.8-3.7,10l-1.1,2.3l-4.6-2.2
				l1.1-2.3c1.4-2.9,2.5-6,3.4-9.2L1037.5,1165.1z M935.3,1183l1.5,2.1c1.9,2.7,4,5.2,6.3,7.5l1.8,1.8l-3.6,3.6l-1.8-1.8
				c-2.5-2.5-4.8-5.3-6.9-8.2l-1.5-2.1L935.3,1183z M1030.1,1183.1l4.2,2.9l-1.5,2.1c-2,2.9-4.3,5.6-6.9,8.2l-1.8,1.8l-3.6-3.6
				l1.8-1.8c2.3-2.3,4.4-4.8,6.3-7.5L1030.1,1183.1z M948.5,1197.4l2.1,1.5c2.7,1.9,5.5,3.5,8.5,4.9l2.3,1.1l-2.2,4.6l-2.3-1.1
				c-3.2-1.5-6.3-3.3-9.2-5.3l-2.1-1.5L948.5,1197.4z M1016.9,1197.5l2.9,4.2l-2.1,1.5c-2.9,2-6,3.8-9.2,5.3l-2.3,1.1l-2.2-4.6
				l2.3-1.1c2.9-1.4,5.8-3,8.5-4.9L1016.9,1197.5z M965.7,1206.5l2.5,0.7c3.1,0.8,6.4,1.4,9.6,1.7l2.5,0.2l-0.4,5.1l-2.5-0.2
				c-3.5-0.3-7.1-0.9-10.5-1.8l-2.5-0.7L965.7,1206.5z M999.7,1206.5l1.3,4.9l-2.5,0.7c-3.4,0.9-7,1.5-10.5,1.8l-2.5,0.2l-0.4-5.1
				l2.5-0.2c3.3-0.3,6.5-0.8,9.6-1.7L999.7,1206.5z"/>
		</g>
		<g id="XMLID_70_">
			<path id="XMLID_2889_" class="st24" d="M1038.8,1150.4h5.1v2.5c0,1.8-0.1,3.6-0.2,5.3l-0.2,2.5l-5.1-0.4l0.2-2.5
				c0.1-1.6,0.2-3.3,0.2-4.9V1150.4z"/>
		</g>
	</g>
</g>
<g id="XMLID_71_">
	<g id="XMLID_72_">
		<rect id="XMLID_2885_" x="1140.5" y="915.1" class="st3" width="69.3" height="9.4"/>
		<rect id="XMLID_2884_" x="1148.4" y="924.5" class="st3" width="53.5" height="83.5"/>
		<rect id="XMLID_2883_" x="1161" y="945" class="st4" width="28.3" height="40.9"/>
		<path id="XMLID_73_" class="st5" d="M1193,915.1c0,0,0-17.3-11-22"/>
	</g>
	<path id="XMLID_2278_" class="st6" d="M1183.7,892.6l-0.8,1.3c-0.9,1.5-2.9,1.9-4.4,1l-5.2-3.3c-1.5-0.9-1.9-2.9-1-4.4l0.8-1.3
		c0.9-1.5,2.9-1.9,4.4-1l5.2,3.3C1184.2,889.2,1184.7,891.2,1183.7,892.6z"/>
</g>
<g id="XMLID_74_">
	<g id="XMLID_75_">
		<rect id="XMLID_2878_" x="1504.5" y="344.1" class="st3" width="69.3" height="9.4"/>
		<rect id="XMLID_2277_" x="1512.4" y="353.6" class="st3" width="53.5" height="83.5"/>
		<rect id="XMLID_2276_" x="1525" y="374.1" class="st4" width="28.3" height="40.9"/>
		<path id="XMLID_76_" class="st5" d="M1557,344.1c0,0,0-17.3-11-22"/>
	</g>
	<path id="XMLID_2275_" class="st6" d="M1547.7,321.7l-0.8,1.3c-0.9,1.5-2.9,1.9-4.4,1l-5.2-3.3c-1.5-0.9-1.9-2.9-1-4.4l0.8-1.3
		c0.9-1.5,2.9-1.9,4.4-1l5.2,3.3C1548.2,318.2,1548.7,320.2,1547.7,321.7z"/>
</g>
<g id="XMLID_77_">
	<circle id="XMLID_2871_" class="st25" cx="1443.4" cy="549.2" r="45.9"/>
	<line id="XMLID_2870_" class="st25" x1="1414" y1="583.1" x2="1443.4" y2="549.2"/>
	<line id="XMLID_2869_" class="st25" x1="1443.4" y1="549.2" x2="1443.4" y2="503.3"/>
	<line id="XMLID_2868_" class="st25" x1="1486" y1="533.9" x2="1443.4" y2="549.2"/>
	<line id="XMLID_2867_" class="st25" x1="1480.6" y1="575.4" x2="1443.4" y2="549.2"/>
</g>
<g id="XMLID_78_">
	<rect id="XMLID_2865_" x="951.9" y="510.3" class="st26" width="26" height="67.5"/>
	<rect id="XMLID_2864_" x="985.3" y="500.1" class="st17" width="26" height="77.7"/>
	<rect id="XMLID_2274_" x="1018.6" y="520.5" class="st27" width="26" height="57.3"/>
	<rect id="XMLID_2273_" x="1052" y="552.3" class="st8" width="26" height="25.5"/>
</g>
<g id="XMLID_79_">
	<polygon id="XMLID_80_" class="st16" points="1541.3,710.8 1416.3,710.8 1416.3,779.3 1440.1,779.3 1440.1,787.3 1450,779.3 
		1541.3,779.3 	"/>
	<circle id="XMLID_2859_" class="st17" cx="1436.5" cy="798.4" r="2.9"/>
	<circle id="XMLID_2858_" class="st18" cx="1426.5" cy="798.4" r="2.9"/>
	<circle id="XMLID_2857_" class="st18" cx="1416.6" cy="798.4" r="2.9"/>
	<circle id="XMLID_2856_" class="st19" cx="1446.4" cy="798.4" r="2.9"/>
	<circle id="XMLID_2855_" class="st19" cx="1456.3" cy="798.4" r="2.9"/>
</g>
<g id="XMLID_81_">
	<rect id="XMLID_2853_" x="1171" y="524" class="st20" width="74.6" height="106.8"/>
	<path id="XMLID_2852_" class="st21" d="M1185,546.8c0.3,0.3,0.8,0.5,1.1,0.5s0.8-0.2,1.1-0.5l2.1-2.1l2.1,2.1
		c0.3,0.3,0.8,0.5,1.1,0.5s0.8-0.2,1.1-0.5c0.6-0.6,0.6-1.6,0-2.2l-2.1-2.1l2.1-2.1c0.6-0.6,0.6-1.6,0-2.2c-0.6-0.6-1.6-0.6-2.2,0
		l-2.1,2.1l-2.1-2.1c-0.6-0.6-1.6-0.6-2.2,0s-0.6,1.6,0,2.2l2.1,2.1l-2.1,2.1C1184.4,545.2,1184.4,546.1,1185,546.8z"/>
	<path id="XMLID_2851_" class="st22" d="M1201.9,543.2h29.2c1,0,1.6-0.6,1.6-1.6s-0.6-1.6-1.6-1.6h-29.2c-1,0-1.6,0.6-1.6,1.6
		S1201,543.2,1201.9,543.2z"/>
	<path id="XMLID_2850_" class="st21" d="M1185,564.3c0.3,0.3,0.8,0.5,1.1,0.5s0.8-0.2,1.1-0.5l2.1-2.1l2.1,2.1
		c0.3,0.3,0.8,0.5,1.1,0.5s0.8-0.2,1.1-0.5c0.6-0.6,0.6-1.6,0-2.2l-2.1-2.1l2.1-2.1c0.6-0.6,0.6-1.6,0-2.2c-0.6-0.6-1.6-0.6-2.2,0
		l-2.1,2.1l-2.1-2.1c-0.6-0.6-1.6-0.6-2.2,0s-0.6,1.6,0,2.2l2.1,2.1l-2.1,2.1C1184.4,562.6,1184.4,563.7,1185,564.3z"/>
	<path id="XMLID_2849_" class="st22" d="M1201.9,560.8h29.2c1,0,1.6-0.6,1.6-1.6s-0.6-1.6-1.6-1.6h-29.2c-1,0-1.6,0.6-1.6,1.6
		S1201,560.8,1201.9,560.8z"/>
	<path id="XMLID_2848_" class="st21" d="M1185,581.7c0.3,0.3,0.8,0.5,1.1,0.5s0.8-0.2,1.1-0.5l2.1-2.1l2.1,2.1
		c0.3,0.3,0.8,0.5,1.1,0.5s0.8-0.2,1.1-0.5c0.6-0.6,0.6-1.6,0-2.2l-2.1-2.1l2.1-2.1c0.6-0.6,0.6-1.6,0-2.2c-0.6-0.6-1.6-0.6-2.2,0
		l-1.9,1.9l-2.1-2.1c-0.6-0.6-1.6-0.6-2.2,0s-0.6,1.6,0,2.2l2.1,2.1l-2.1,2.1C1184.4,580.1,1184.4,581.1,1185,581.7z"/>
	<path id="XMLID_2847_" class="st22" d="M1201.9,578.2h29.2c1,0,1.6-0.6,1.6-1.6s-0.6-1.6-1.6-1.6h-29.2c-1,0-1.6,0.6-1.6,1.6
		S1201,578.2,1201.9,578.2z"/>
	<path id="XMLID_2846_" class="st21" d="M1185,599.1c0.3,0.3,0.8,0.5,1.1,0.5s0.8-0.2,1.1-0.5l2.1-2.1l2.1,2.1
		c0.3,0.3,0.8,0.5,1.1,0.5s0.8-0.2,1.1-0.5c0.6-0.6,0.6-1.6,0-2.2l-2.1-2.1l2.1-2.1c0.6-0.6,0.6-1.6,0-2.2c-0.6-0.6-1.6-0.6-2.2,0
		l-1.9,2.1l-2.1-2.1c-0.6-0.6-1.6-0.6-2.2,0s-0.6,1.6,0,2.2l2.1,2.1l-2.1,2.1C1184.4,597.5,1184.4,598.5,1185,599.1z"/>
	<path id="XMLID_2845_" class="st22" d="M1201.9,595.6h29.2c1,0,1.6-0.6,1.6-1.6s-0.6-1.6-1.6-1.6h-29.2c-1,0-1.6,0.6-1.6,1.6
		S1201,595.6,1201.9,595.6z"/>
	<path id="XMLID_2844_" class="st21" d="M1185,616.7c0.3,0.3,0.8,0.5,1.1,0.5s0.8-0.2,1.1-0.5l2.1-2.1l2.1,2.1
		c0.3,0.3,0.8,0.5,1.1,0.5s0.8-0.2,1.1-0.5c0.6-0.6,0.6-1.6,0-2.2l-2.1-2.1l2.1-2.1c0.6-0.6,0.6-1.6,0-2.2s-1.6-0.6-2.2,0l-2.1,2.1
		l-2.1-2.1c-0.6-0.6-1.6-0.6-2.2,0s-0.6,1.6,0,2.2l2.1,2.1l-2.1,2.1C1184.4,614.9,1184.4,616,1185,616.7z"/>
	<path id="XMLID_2843_" class="st22" d="M1201.9,613.1h29.2c1,0,1.6-0.6,1.6-1.6s-0.6-1.6-1.6-1.6h-29.2c-1,0-1.6,0.6-1.6,1.6
		S1201,613.1,1201.9,613.1z"/>
</g>
<g id="XMLID_82_">
	<rect id="XMLID_2841_" x="819" y="651" class="st20" width="74.6" height="106.8"/>
	<path id="XMLID_2840_" class="st21" d="M833,673.8c0.3,0.3,0.8,0.5,1.1,0.5c0.3,0,0.8-0.2,1.1-0.5l2.1-2.1l2.1,2.1
		c0.3,0.3,0.8,0.5,1.1,0.5c0.3,0,0.8-0.2,1.1-0.5c0.6-0.6,0.6-1.6,0-2.2l-2.1-2.1l2.1-2.1c0.6-0.6,0.6-1.6,0-2.2s-1.6-0.6-2.2,0
		l-2.1,2.1l-2.1-2.1c-0.6-0.6-1.6-0.6-2.2,0s-0.6,1.6,0,2.2l2.1,2.1l-2.1,2.1C832.4,672.2,832.4,673.1,833,673.8z"/>
	<path id="XMLID_2839_" class="st22" d="M849.9,670.2h29.2c1,0,1.6-0.6,1.6-1.6s-0.6-1.6-1.6-1.6h-29.2c-1,0-1.6,0.6-1.6,1.6
		S849,670.2,849.9,670.2z"/>
	<path id="XMLID_2838_" class="st21" d="M833,691.3c0.3,0.3,0.8,0.5,1.1,0.5c0.3,0,0.8-0.2,1.1-0.5l2.1-2.1l2.1,2.1
		c0.3,0.3,0.8,0.5,1.1,0.5c0.3,0,0.8-0.2,1.1-0.5c0.6-0.6,0.6-1.6,0-2.2l-2.1-2.1l2.1-2.1c0.6-0.6,0.6-1.6,0-2.2s-1.6-0.6-2.2,0
		l-2.1,2.1l-2.1-2.1c-0.6-0.6-1.6-0.6-2.2,0s-0.6,1.6,0,2.2l2.1,2.1l-2.1,2.1C832.4,689.6,832.4,690.7,833,691.3z"/>
	<path id="XMLID_2837_" class="st22" d="M849.9,687.8h29.2c1,0,1.6-0.6,1.6-1.6s-0.6-1.6-1.6-1.6h-29.2c-1,0-1.6,0.6-1.6,1.6
		C848.3,687.2,849,687.8,849.9,687.8z"/>
	<path id="XMLID_2836_" class="st21" d="M833,708.7c0.3,0.3,0.8,0.5,1.1,0.5c0.3,0,0.8-0.2,1.1-0.5l2.1-2.1l2.1,2.1
		c0.3,0.3,0.8,0.5,1.1,0.5c0.3,0,0.8-0.2,1.1-0.5c0.6-0.6,0.6-1.6,0-2.2l-2.1-2.1l2.1-2.1c0.6-0.6,0.6-1.6,0-2.2s-1.6-0.6-2.2,0
		l-1.9,1.9l-2.1-2.1c-0.6-0.6-1.6-0.6-2.2,0s-0.6,1.6,0,2.2l2.1,2.1l-2.1,2.1C832.4,707.1,832.4,708.1,833,708.7z"/>
	<path id="XMLID_2835_" class="st22" d="M849.9,705.2h29.2c1,0,1.6-0.6,1.6-1.6s-0.6-1.6-1.6-1.6h-29.2c-1,0-1.6,0.6-1.6,1.6
		S849,705.2,849.9,705.2z"/>
	<path id="XMLID_2834_" class="st21" d="M833,726.1c0.3,0.3,0.8,0.5,1.1,0.5c0.3,0,0.8-0.2,1.1-0.5l2.1-2.1l2.1,2.1
		c0.3,0.3,0.8,0.5,1.1,0.5c0.3,0,0.8-0.2,1.1-0.5c0.6-0.6,0.6-1.6,0-2.2l-2.1-2.1l2.1-2.1c0.6-0.6,0.6-1.6,0-2.2s-1.6-0.6-2.2,0
		l-1.9,2.1l-2.1-2.1c-0.6-0.6-1.6-0.6-2.2,0s-0.6,1.6,0,2.2l2.1,2.1l-2.1,2.1C832.4,724.5,832.4,725.5,833,726.1z"/>
	<path id="XMLID_2833_" class="st22" d="M849.9,722.6h29.2c1,0,1.6-0.6,1.6-1.6s-0.6-1.6-1.6-1.6h-29.2c-1,0-1.6,0.6-1.6,1.6
		S849,722.6,849.9,722.6z"/>
	<path id="XMLID_2832_" class="st21" d="M833,743.7c0.3,0.3,0.8,0.5,1.1,0.5c0.3,0,0.8-0.2,1.1-0.5l2.1-2.1l2.1,2.1
		c0.3,0.3,0.8,0.5,1.1,0.5c0.3,0,0.8-0.2,1.1-0.5c0.6-0.6,0.6-1.6,0-2.2l-2.1-2.1l2.1-2.1c0.6-0.6,0.6-1.6,0-2.2s-1.6-0.6-2.2,0
		l-2.1,2.1l-2.1-2.1c-0.6-0.6-1.6-0.6-2.2,0s-0.6,1.6,0,2.2l2.1,2.1l-2.1,2.1C832.4,741.9,832.4,743,833,743.7z"/>
	<path id="XMLID_2831_" class="st22" d="M849.9,740.1h29.2c1,0,1.6-0.6,1.6-1.6s-0.6-1.6-1.6-1.6h-29.2c-1,0-1.6,0.6-1.6,1.6
		C848.3,739.5,849,740.1,849.9,740.1z"/>
</g>
<g id="XMLID_83_">
	<path id="XMLID_84_" class="st12" d="M1193.1,704.6c0-3.4,2.7-6.1,6.1-6.1c3.4,0,6.1,2.7,6.1,6.1v18.3c0-3.4,2.7-6.1,6.1-6.1
		c3.4,0,6.1,2.7,6.1,6.1v3.8c0-3.4,2.7-6.1,6.1-6.1c3.4,0,6.1,2.7,6.1,6.1v3.8c0-3.4,2.7-6.1,6.1-6.1c3.4,0,6.1,2.7,6.1,6.1v0.4
		v29.8l-8,14.5v11.4h-35.1l-0.4-9.5c0,0-15.1-24.9-23.7-34.3c-1.1-1.3-0.4-5.9,2.3-6.9s10.1-0.3,16,8.6v-38.4v-1.5H1193.1z"/>
	<path id="XMLID_85_" class="st13" d="M1205.3,722.9"/>
	<line id="XMLID_86_" class="st14" x1="1205.3" y1="737.4" x2="1205.3" y2="722.9"/>
	<line id="XMLID_90_" class="st14" x1="1217.5" y1="738.1" x2="1217.5" y2="726.7"/>
	<line id="XMLID_91_" class="st14" x1="1229.8" y1="741.6" x2="1229.8" y2="730.1"/>
	<path id="XMLID_92_" class="st13" d="M1220.6,745"/>
	<path id="XMLID_93_" class="st15" d="M1186.3,715.3c-2.4-2.9-3.8-6.6-3.8-10.7c0-9.3,7.5-16.8,16.8-16.8c9.3,0,16.8,7.5,16.8,16.8
		c0,2.3-0.5,4.5-1.3,6.5"/>
	<path id="XMLID_94_" class="st15" d="M1181.8,718.2c-3-3.8-4.8-8.6-4.8-13.8c0-12.3,10-22.3,22.3-22.3c12.3,0,22.3,10,22.3,22.3
		c0,3.1-0.6,6-1.7,8.7"/>
</g>
<g id="XMLID_95_">
	<path id="XMLID_2820_" class="st4" d="M577.1,1228.4L577.1,1228.4c-7.8,0-14.2-6.4-14.2-14.2l0,0c0-7.8,6.4-14.2,14.2-14.2l0,0
		c7.8,0,14.2,6.4,14.2,14.2l0,0C591.3,1222,584.9,1228.4,577.1,1228.4z"/>
	<path id="XMLID_2819_" class="st23" d="M560.7,1231c0.9,0.9,2.3,1.4,3.2,1.4c0.9,0,2.3-0.5,3.2-1.4l10-10l12,11
		c0.9,0.9,2.3,1.4,3.2,1.4s2.3-0.5,3.2-1.4c1.8-1.8,1.8-4.5,0-6.3l-12-11l9-10c1.8-1.8,1.8-4.5,0-6.3c-1.8-1.8-4.5-1.8-6.3,0l-9,10
		l-5.9-5.9c-1.8-1.8-4.5-1.8-6.3,0c-1.8,1.8-1.8,4.5,0,6.3l5.9,5.9l-10,10C558.9,1226.5,558.9,1229.2,560.7,1231z"/>
</g>
<path id="XMLID_96_" class="st27" d="M952.3,858.8l-15.8-1.6c-2.1-0.1-3.9,1.4-4,3.5l0,0c-0.1,2.1,1.4,3.9,3.5,4l6.3,0.8l-41,33.1
	l-29.1-21.7l-50.8,39.6c-1.6,1.3-1.9,3.7-0.7,5.3c0.7,1,1.9,1.5,3,1.5c0.8,0,1.6-0.3,2.3-0.8l46.3-36l29.2,21.8l45.5-36.7l-0.8,7.2
	c-0.3,2.1,1.1,4,3.2,4.3c2.1,0.3,4-1.1,4.3-3.2l2.1-16.6C956.4,859.1,956.4,859.1,952.3,858.8z"/>
<g id="XMLID_97_">
	<g id="XMLID_98_">
		<rect id="XMLID_2272_" x="388.5" y="169.2" class="st3" width="69.3" height="9.4"/>
		<rect id="XMLID_2815_" x="396.4" y="178.6" class="st3" width="53.5" height="83.5"/>
		<rect id="XMLID_2271_" x="409" y="199.1" class="st4" width="28.3" height="40.9"/>
		<path id="XMLID_99_" class="st5" d="M441,169.2c0,0,0-17.3-11-22"/>
	</g>
	<path id="XMLID_2270_" class="st6" d="M431.7,146.7l-0.8,1.3c-0.9,1.5-2.9,1.9-4.4,1l-5.2-3.3c-1.5-0.9-1.9-2.9-1-4.4l0.8-1.3
		c0.9-1.5,2.9-1.9,4.4-1l5.2,3.3C432.2,143.3,432.7,145.2,431.7,146.7z"/>
</g>
<g id="XMLID_100_">
	<polyline id="XMLID_101_" class="st7" points="501.5,-333.3 510.2,-333.3 519.1,-310.3 519.1,-265 447.7,-265 447.7,-310.3 
		456.1,-333.3 478.6,-333.3 	"/>
	<polygon id="XMLID_2808_" class="st4" points="494.2,-321 470.8,-321 490.4,-351.8 506.7,-341.5 	"/>
	<line id="XMLID_2807_" class="st5" x1="463.5" y1="-321" x2="502.8" y2="-321"/>
	<line id="XMLID_2806_" class="st5" x1="447.7" y1="-310.3" x2="519.1" y2="-310.3"/>
</g>
<g id="XMLID_102_">
	<polyline id="XMLID_103_" class="st7" points="1079.5,-80.3 1088.2,-80.3 1097.1,-57.3 1097.1,-12 1025.7,-12 1025.7,-57.3 
		1034.1,-80.3 1056.6,-80.3 	"/>
	<polygon id="XMLID_2803_" class="st4" points="1072.2,-68 1048.8,-68 1068.4,-98.8 1084.7,-88.5 	"/>
	<line id="XMLID_2802_" class="st5" x1="1041.5" y1="-68" x2="1080.8" y2="-68"/>
	<line id="XMLID_2801_" class="st5" x1="1025.7" y1="-57.3" x2="1097.1" y2="-57.3"/>
</g>
<g id="XMLID_104_">
	<circle id="XMLID_2799_" class="st28" cx="433.4" cy="-125.8" r="45.9"/>
	<line id="XMLID_2798_" class="st28" x1="404" y1="-91.9" x2="433.4" y2="-125.8"/>
	<line id="XMLID_2797_" class="st28" x1="433.4" y1="-125.8" x2="433.4" y2="-171.7"/>
	<line id="XMLID_2796_" class="st28" x1="476" y1="-141.1" x2="433.4" y2="-125.8"/>
	<line id="XMLID_2795_" class="st28" x1="470.6" y1="-99.6" x2="433.4" y2="-125.8"/>
</g>
<g id="XMLID_105_">
	<rect id="XMLID_2793_" x="1102.9" y="358.3" class="st9" width="26" height="67.5"/>
	<rect id="XMLID_2792_" x="1136.3" y="348.1" class="st10" width="26" height="77.7"/>
	<rect id="XMLID_2269_" x="1169.6" y="368.5" class="st11" width="26" height="57.3"/>
	<rect id="XMLID_2268_" x="1203" y="400.3" class="st8" width="26" height="25.5"/>
</g>
<g id="XMLID_106_">
	<path id="XMLID_107_" class="st12" d="M1364.1,278.3c0-3.4,2.7-6.1,6.1-6.1s6.1,2.7,6.1,6.1v18.3c0-3.4,2.7-6.1,6.1-6.1
		s6.1,2.7,6.1,6.1v3.8c0-3.4,2.7-6.1,6.1-6.1s6.1,2.7,6.1,6.1v3.8c0-3.4,2.7-6.1,6.1-6.1s6.1,2.7,6.1,6.1v0.4v29.8l-8,14.5v11.4
		h-35.1l-0.4-9.5c0,0-15.1-24.9-23.7-34.3c-1.1-1.3-0.4-5.9,2.3-6.9s10.1-0.3,16,8.6v-38.4v-1.5H1364.1z"/>
	<path id="XMLID_108_" class="st13" d="M1376.3,296.6"/>
	<line id="XMLID_109_" class="st14" x1="1376.3" y1="311.1" x2="1376.3" y2="296.6"/>
	<line id="XMLID_110_" class="st14" x1="1388.5" y1="311.9" x2="1388.5" y2="300.4"/>
	<line id="XMLID_111_" class="st14" x1="1400.7" y1="315.3" x2="1400.7" y2="303.9"/>
	<path id="XMLID_112_" class="st13" d="M1391.5,318.7"/>
	<path id="XMLID_113_" class="st15" d="M1357.2,289c-2.4-2.9-3.8-6.6-3.8-10.7c0-9.3,7.5-16.8,16.8-16.8s16.8,7.5,16.8,16.8
		c0,2.3-0.5,4.5-1.3,6.5"/>
	<path id="XMLID_114_" class="st15" d="M1352.7,291.9c-3-3.8-4.8-8.6-4.8-13.8c0-12.3,10-22.3,22.3-22.3s22.3,10,22.3,22.3
		c0,3.1-0.6,6-1.7,8.7"/>
</g>
<g id="XMLID_115_">
	<path id="XMLID_116_" class="st12" d="M1228.1-380.7c0-3.4,2.7-6.1,6.1-6.1c3.4,0,6.1,2.7,6.1,6.1v18.3c0-3.4,2.7-6.1,6.1-6.1
		c3.4,0,6.1,2.7,6.1,6.1v3.8c0-3.4,2.7-6.1,6.1-6.1c3.4,0,6.1,2.7,6.1,6.1v3.8c0-3.4,2.7-6.1,6.1-6.1c3.4,0,6.1,2.7,6.1,6.1v0.4
		v29.8l-8,14.5v11.4h-35.1l-0.4-9.5c0,0-15.1-24.9-23.7-34.3c-1.1-1.3-0.4-5.9,2.3-6.9s10.1-0.3,16,8.6v-38.4v-1.5H1228.1z"/>
	<path id="XMLID_117_" class="st13" d="M1240.3-362.4"/>
	<line id="XMLID_118_" class="st14" x1="1240.3" y1="-347.9" x2="1240.3" y2="-362.4"/>
	<line id="XMLID_119_" class="st14" x1="1252.5" y1="-347.1" x2="1252.5" y2="-358.6"/>
	<line id="XMLID_120_" class="st14" x1="1264.7" y1="-343.7" x2="1264.7" y2="-355.1"/>
	<path id="XMLID_121_" class="st13" d="M1255.5-340.3"/>
	<path id="XMLID_122_" class="st15" d="M1221.2-370c-2.4-2.9-3.8-6.6-3.8-10.7c0-9.3,7.5-16.8,16.8-16.8c9.3,0,16.8,7.5,16.8,16.8
		c0,2.3-0.5,4.5-1.3,6.5"/>
	<path id="XMLID_123_" class="st15" d="M1216.7-367.1c-3-3.8-4.8-8.6-4.8-13.8c0-12.3,10-22.3,22.3-22.3c12.3,0,22.3,10,22.3,22.3
		c0,3.1-0.6,6-1.7,8.7"/>
</g>
<g id="XMLID_124_">
	<polygon id="XMLID_125_" class="st16" points="768.3,263.8 643.3,263.8 643.3,332.3 667.1,332.3 667.1,340.3 677,332.3 
		768.3,332.3 	"/>
	<circle id="XMLID_2769_" class="st17" cx="663.5" cy="351.4" r="2.9"/>
	<circle id="XMLID_2768_" class="st18" cx="653.5" cy="351.4" r="2.9"/>
	<circle id="XMLID_2767_" class="st18" cx="643.6" cy="351.4" r="2.9"/>
	<circle id="XMLID_2766_" class="st19" cx="673.4" cy="351.4" r="2.9"/>
	<circle id="XMLID_2765_" class="st19" cx="683.3" cy="351.4" r="2.9"/>
</g>
<g id="XMLID_126_">
	<rect id="XMLID_2763_" x="473" y="-8" class="st20" width="74.6" height="106.8"/>
	<path id="XMLID_2762_" class="st21" d="M487,14.8c0.3,0.3,0.8,0.5,1.1,0.5s0.8-0.2,1.1-0.5l2.1-2.1l2.1,2.1
		c0.3,0.3,0.8,0.5,1.1,0.5s0.8-0.2,1.1-0.5c0.6-0.6,0.6-1.6,0-2.2l-2.1-2.1l2.1-2.1c0.6-0.6,0.6-1.6,0-2.2s-1.6-0.6-2.2,0l-2.1,2.1
		l-2.1-2.1c-0.6-0.6-1.6-0.6-2.2,0s-0.6,1.6,0,2.2l2.1,2.1l-2.1,2.1C486.4,13.2,486.4,14.1,487,14.8z"/>
	<path id="XMLID_2761_" class="st22" d="M503.9,11.3h29.2c1,0,1.6-0.6,1.6-1.6s-0.6-1.6-1.6-1.6h-29.2c-1,0-1.6,0.6-1.6,1.6
		C502.3,10.6,503,11.3,503.9,11.3z"/>
	<path id="XMLID_2760_" class="st21" d="M487,32.3c0.3,0.3,0.8,0.5,1.1,0.5s0.8-0.2,1.1-0.5l2.1-2.1l2.1,2.1
		c0.3,0.3,0.8,0.5,1.1,0.5s0.8-0.2,1.1-0.5c0.6-0.6,0.6-1.6,0-2.2l-2.1-2.1l2.1-2.1c0.6-0.6,0.6-1.6,0-2.2s-1.6-0.6-2.2,0l-2.1,2.1
		l-2.1-2.1c-0.6-0.6-1.6-0.6-2.2,0s-0.6,1.6,0,2.2l2.1,2.1l-2.1,2.1C486.4,30.6,486.4,31.7,487,32.3z"/>
	<path id="XMLID_2759_" class="st22" d="M503.9,28.8h29.2c1,0,1.6-0.6,1.6-1.6s-0.6-1.6-1.6-1.6h-29.2c-1,0-1.6,0.6-1.6,1.6
		S503,28.8,503.9,28.8z"/>
	<path id="XMLID_2758_" class="st21" d="M487,49.7c0.3,0.3,0.8,0.5,1.1,0.5s0.8-0.2,1.1-0.5l2.1-2.1l2.1,2.1
		c0.3,0.3,0.8,0.5,1.1,0.5s0.8-0.2,1.1-0.5c0.6-0.6,0.6-1.6,0-2.2l-2.1-2.1l2.1-2.1c0.6-0.6,0.6-1.6,0-2.2s-1.6-0.6-2.2,0l-1.9,1.9
		l-2.1-2.1c-0.6-0.6-1.6-0.6-2.2,0s-0.6,1.6,0,2.2l2.1,2.1l-2.1,2.1C486.4,48.1,486.4,49.1,487,49.7z"/>
	<path id="XMLID_2757_" class="st22" d="M503.9,46.2h29.2c1,0,1.6-0.6,1.6-1.6s-0.6-1.6-1.6-1.6h-29.2c-1,0-1.6,0.6-1.6,1.6
		C502.3,45.6,503,46.2,503.9,46.2z"/>
	<path id="XMLID_2756_" class="st21" d="M487,67.1c0.3,0.3,0.8,0.5,1.1,0.5s0.8-0.2,1.1-0.5l2.1-2.1l2.1,2.1
		c0.3,0.3,0.8,0.5,1.1,0.5s0.8-0.2,1.1-0.5c0.6-0.6,0.6-1.6,0-2.2l-2.1-2.1l2.1-2.1c0.6-0.6,0.6-1.6,0-2.2s-1.6-0.6-2.2,0l-1.9,2.1
		l-2.1-2.1c-0.6-0.6-1.6-0.6-2.2,0s-0.6,1.6,0,2.2l2.1,2.1l-2.1,2.1C486.4,65.5,486.4,66.5,487,67.1z"/>
	<path id="XMLID_2755_" class="st22" d="M503.9,63.6h29.2c1,0,1.6-0.6,1.6-1.6s-0.6-1.6-1.6-1.6h-29.2c-1,0-1.6,0.6-1.6,1.6
		S503,63.6,503.9,63.6z"/>
	<path id="XMLID_2754_" class="st21" d="M487,84.7c0.3,0.3,0.8,0.5,1.1,0.5s0.8-0.2,1.1-0.5l2.1-2.1l2.1,2.1
		c0.3,0.3,0.8,0.5,1.1,0.5s0.8-0.2,1.1-0.5c0.6-0.6,0.6-1.6,0-2.2l-2.1-2.1l2.1-2.1c0.6-0.6,0.6-1.6,0-2.2s-1.6-0.6-2.2,0l-2.1,2.1
		l-2.1-2.1c-0.6-0.6-1.6-0.6-2.2,0s-0.6,1.6,0,2.2l2.1,2.1l-2.1,2.1C486.4,82.9,486.4,84,487,84.7z"/>
	<path id="XMLID_2753_" class="st22" d="M503.9,81.2h29.2c1,0,1.6-0.6,1.6-1.6s-0.6-1.6-1.6-1.6h-29.2c-1,0-1.6,0.6-1.6,1.6
		C502.3,80.5,503,81.2,503.9,81.2z"/>
</g>
<g id="XMLID_127_">
	<rect id="XMLID_2751_" x="1272" y="29" class="st20" width="74.6" height="106.8"/>
	<path id="XMLID_2750_" class="st21" d="M1286,51.8c0.3,0.3,0.8,0.5,1.1,0.5s0.8-0.2,1.1-0.5l2.1-2.1l2.1,2.1
		c0.3,0.3,0.8,0.5,1.1,0.5s0.8-0.2,1.1-0.5c0.6-0.6,0.6-1.6,0-2.2l-2.1-2.1l2.1-2.1c0.6-0.6,0.6-1.6,0-2.2s-1.6-0.6-2.2,0l-2.1,2.1
		l-2.1-2.1c-0.6-0.6-1.6-0.6-2.2,0s-0.6,1.6,0,2.2l2.1,2.1l-2.1,2.1C1285.4,50.2,1285.4,51.1,1286,51.8z"/>
	<path id="XMLID_2749_" class="st22" d="M1302.9,48.3h29.2c1,0,1.6-0.6,1.6-1.6s-0.6-1.6-1.6-1.6h-29.2c-1,0-1.6,0.6-1.6,1.6
		C1301.3,47.6,1302,48.3,1302.9,48.3z"/>
	<path id="XMLID_2748_" class="st21" d="M1286,69.3c0.3,0.3,0.8,0.5,1.1,0.5s0.8-0.2,1.1-0.5l2.1-2.1l2.1,2.1
		c0.3,0.3,0.8,0.5,1.1,0.5s0.8-0.2,1.1-0.5c0.6-0.6,0.6-1.6,0-2.2l-2.1-2.1l2.1-2.1c0.6-0.6,0.6-1.6,0-2.2s-1.6-0.6-2.2,0l-2.1,2.1
		l-2.1-2.1c-0.6-0.6-1.6-0.6-2.2,0s-0.6,1.6,0,2.2l2.1,2.1l-2.1,2.1C1285.4,67.6,1285.4,68.7,1286,69.3z"/>
	<path id="XMLID_2747_" class="st22" d="M1302.9,65.8h29.2c1,0,1.6-0.6,1.6-1.6s-0.6-1.6-1.6-1.6h-29.2c-1,0-1.6,0.6-1.6,1.6
		S1302,65.8,1302.9,65.8z"/>
	<path id="XMLID_2746_" class="st21" d="M1286,86.7c0.3,0.3,0.8,0.5,1.1,0.5s0.8-0.2,1.1-0.5l2.1-2.1l2.1,2.1
		c0.3,0.3,0.8,0.5,1.1,0.5s0.8-0.2,1.1-0.5c0.6-0.6,0.6-1.6,0-2.2l-2.1-2.1l2.1-2.1c0.6-0.6,0.6-1.6,0-2.2s-1.6-0.6-2.2,0l-1.9,1.9
		l-2.1-2.1c-0.6-0.6-1.6-0.6-2.2,0s-0.6,1.6,0,2.2l2.1,2.1l-2.1,2.1C1285.4,85.1,1285.4,86.1,1286,86.7z"/>
	<path id="XMLID_2745_" class="st22" d="M1302.9,83.2h29.2c1,0,1.6-0.6,1.6-1.6s-0.6-1.6-1.6-1.6h-29.2c-1,0-1.6,0.6-1.6,1.6
		S1302,83.2,1302.9,83.2z"/>
	<path id="XMLID_2744_" class="st21" d="M1286,104.1c0.3,0.3,0.8,0.5,1.1,0.5s0.8-0.2,1.1-0.5l2.1-2.1l2.1,2.1
		c0.3,0.3,0.8,0.5,1.1,0.5s0.8-0.2,1.1-0.5c0.6-0.6,0.6-1.6,0-2.2l-2.1-2.1l2.1-2.1c0.6-0.6,0.6-1.6,0-2.2c-0.6-0.6-1.6-0.6-2.2,0
		l-1.9,2.1l-2.1-2.1c-0.6-0.6-1.6-0.6-2.2,0s-0.6,1.6,0,2.2l2.1,2.1l-2.1,2.1C1285.4,102.5,1285.4,103.5,1286,104.1z"/>
	<path id="XMLID_2743_" class="st22" d="M1302.9,100.6h29.2c1,0,1.6-0.6,1.6-1.6s-0.6-1.6-1.6-1.6h-29.2c-1,0-1.6,0.6-1.6,1.6
		C1301.3,100,1302,100.6,1302.9,100.6z"/>
	<path id="XMLID_2742_" class="st21" d="M1286,121.7c0.3,0.3,0.8,0.5,1.1,0.5s0.8-0.2,1.1-0.5l2.1-2.1l2.1,2.1
		c0.3,0.3,0.8,0.5,1.1,0.5s0.8-0.2,1.1-0.5c0.6-0.6,0.6-1.6,0-2.2l-2.1-2.1l2.1-2.1c0.6-0.6,0.6-1.6,0-2.2c-0.6-0.6-1.6-0.6-2.2,0
		l-2.1,2.1l-2.1-2.1c-0.6-0.6-1.6-0.6-2.2,0s-0.6,1.6,0,2.2l2.1,2.1l-2.1,2.1C1285.4,119.9,1285.4,121,1286,121.7z"/>
	<path id="XMLID_2741_" class="st22" d="M1302.9,118.2h29.2c1,0,1.6-0.6,1.6-1.6s-0.6-1.6-1.6-1.6h-29.2c-1,0-1.6,0.6-1.6,1.6
		C1301.3,117.5,1302,118.2,1302.9,118.2z"/>
</g>
<g id="XMLID_128_">
	<path id="XMLID_2739_" class="st4" d="M853.6,57.1L853.6,57.1c-7.8,0-14.2-6.4-14.2-14.2l0,0c0-7.8,6.4-14.2,14.2-14.2l0,0
		c7.8,0,14.2,6.4,14.2,14.2l0,0C867.8,50.7,861.4,57.1,853.6,57.1z"/>
	<path id="XMLID_2738_" class="st7" d="M837.3,59.8c0.9,0.9,2.3,1.4,3.2,1.4s2.3-0.5,3.2-1.4l10-10l12,11c0.9,0.9,2.3,1.4,3.2,1.4
		s2.3-0.5,3.2-1.4c1.8-1.8,1.8-4.5,0-6.3l-12-11l9-10c1.8-1.8,1.8-4.5,0-6.3s-4.5-1.8-6.3,0l-9,10l-5.9-5.9c-1.8-1.8-4.5-1.8-6.3,0
		c-1.8,1.8-1.8,4.5,0,6.3l5.9,5.9l-10,10C835.5,55.2,835.5,57.9,837.3,59.8z"/>
</g>
<g id="XMLID_129_">
	<path id="XMLID_130_" class="st12" d="M670.5,53.2c0-3.4,2.7-6.1,6.1-6.1c3.4,0,6.1,2.7,6.1,6.1v18.3c0-3.4,2.7-6.1,6.1-6.1
		c3.4,0,6.1,2.7,6.1,6.1v3.8c0-3.4,2.7-6.1,6.1-6.1c3.4,0,6.1,2.7,6.1,6.1v3.8c0-3.4,2.7-6.1,6.1-6.1c3.4,0,6.1,2.7,6.1,6.1v0.4
		v29.8l-8,14.5v11.4h-35.1l-0.4-9.5c0,0-15.1-24.9-23.7-34.3c-1.1-1.3-0.4-5.9,2.3-6.9c2.7-1,10.1-0.3,16,8.6V54.7L670.5,53.2
		L670.5,53.2z"/>
	<path id="XMLID_131_" class="st13" d="M682.7,71.5"/>
	<line id="XMLID_132_" class="st14" x1="682.7" y1="86" x2="682.7" y2="71.5"/>
	<line id="XMLID_133_" class="st14" x1="694.9" y1="86.8" x2="694.9" y2="75.4"/>
	<line id="XMLID_134_" class="st14" x1="707.1" y1="90.2" x2="707.1" y2="78.8"/>
	<path id="XMLID_135_" class="st13" d="M697.9,93.7"/>
	<path id="XMLID_136_" class="st15" d="M663.6,63.9c-2.4-2.9-3.8-6.6-3.8-10.7c0-9.3,7.5-16.8,16.8-16.8c9.3,0,16.8,7.5,16.8,16.8
		c0,2.3-0.5,4.5-1.3,6.5"/>
	<path id="XMLID_137_" class="st15" d="M659.1,66.8c-3-3.8-4.8-8.6-4.8-13.8c0-12.3,10-22.3,22.3-22.3c12.3,0,22.3,10,22.3,22.3
		c0,3.1-0.6,6-1.7,8.7"/>
</g>
<g id="XMLID_138_">
	<path id="XMLID_2727_" class="st4" d="M1472.1,202.4L1472.1,202.4c-7.8,0-14.2-6.4-14.2-14.2l0,0c0-7.8,6.4-14.2,14.2-14.2l0,0
		c7.8,0,14.2,6.4,14.2,14.2l0,0C1486.3,196,1479.9,202.4,1472.1,202.4z"/>
	<path id="XMLID_2726_" class="st23" d="M1455.7,205c0.9,0.9,2.3,1.4,3.2,1.4s2.3-0.5,3.2-1.4l10-10l12,11c0.9,0.9,2.3,1.4,3.2,1.4
		s2.3-0.5,3.2-1.4c1.8-1.8,1.8-4.5,0-6.3l-12-11l9-10c1.8-1.8,1.8-4.5,0-6.3s-4.5-1.8-6.3,0l-9,10l-5.9-5.9c-1.8-1.8-4.5-1.8-6.3,0
		s-1.8,4.5,0,6.3l5.9,5.9l-10,10C1453.9,200.5,1453.9,203.2,1455.7,205z"/>
</g>
<g id="XMLID_139_">
	<g id="XMLID_140_">
		<rect id="XMLID_2724_" x="1108.5" y="96.1" class="st3" width="69.3" height="9.4"/>
		<rect id="XMLID_2723_" x="1116.4" y="105.6" class="st3" width="53.5" height="83.5"/>
		<rect id="XMLID_2722_" x="1129" y="126" class="st4" width="28.3" height="40.9"/>
		<path id="XMLID_141_" class="st5" d="M1161,96.1c0,0,0-17.3-11-22"/>
	</g>
	<path id="XMLID_2267_" class="st6" d="M1151.7,73.7l-0.8,1.3c-0.9,1.5-2.9,1.9-4.4,1l-5.2-3.3c-1.5-0.9-1.9-2.9-1-4.4l0.8-1.3
		c0.9-1.5,2.9-1.9,4.4-1l5.2,3.3C1152.2,70.2,1152.7,72.2,1151.7,73.7z"/>
</g>
<g id="XMLID_142_">
	<rect id="XMLID_2717_" x="907.9" y="-347.7" class="st26" width="26" height="67.5"/>
	<rect id="XMLID_2716_" x="941.3" y="-357.9" class="st17" width="26" height="77.7"/>
	<rect id="XMLID_2266_" x="974.6" y="-337.5" class="st27" width="26" height="57.3"/>
	<rect id="XMLID_2265_" x="1008" y="-305.7" class="st8" width="26" height="25.5"/>
</g>
<g id="XMLID_143_">
	<polygon id="XMLID_144_" class="st16" points="1461.9,-131.2 1336.8,-131.2 1336.8,-62.7 1360.7,-62.7 1360.7,-54.7 1370.5,-62.7 
		1461.9,-62.7 	"/>
	<circle id="XMLID_2711_" class="st17" cx="1357.1" cy="-43.6" r="2.9"/>
	<circle id="XMLID_2710_" class="st18" cx="1347.1" cy="-43.6" r="2.9"/>
	<circle id="XMLID_2709_" class="st18" cx="1337.2" cy="-43.6" r="2.9"/>
	<circle id="XMLID_2708_" class="st19" cx="1367" cy="-43.6" r="2.9"/>
	<circle id="XMLID_2707_" class="st19" cx="1376.9" cy="-43.6" r="2.9"/>
</g>
<g id="XMLID_145_">
	<rect id="XMLID_2705_" x="1092" y="-265" class="st20" width="74.6" height="106.8"/>
	<path id="XMLID_2704_" class="st21" d="M1106-242.2c0.3,0.3,0.8,0.5,1.1,0.5s0.8-0.2,1.1-0.5l2.1-2.1l2.1,2.1
		c0.3,0.3,0.8,0.5,1.1,0.5s0.8-0.2,1.1-0.5c0.6-0.6,0.6-1.6,0-2.2l-2.1-2.1l2.1-2.1c0.6-0.6,0.6-1.6,0-2.2c-0.6-0.6-1.6-0.6-2.2,0
		l-2.1,2.1l-2.1-2.1c-0.6-0.6-1.6-0.6-2.2,0s-0.6,1.6,0,2.2l2.1,2.1l-2.1,2.1C1105.4-243.8,1105.4-242.9,1106-242.2z"/>
	<path id="XMLID_2703_" class="st22" d="M1122.9-245.7h29.2c1,0,1.6-0.6,1.6-1.6s-0.6-1.6-1.6-1.6h-29.2c-1,0-1.6,0.6-1.6,1.6
		C1121.3-246.4,1122-245.7,1122.9-245.7z"/>
	<path id="XMLID_2702_" class="st21" d="M1106-224.7c0.3,0.3,0.8,0.5,1.1,0.5s0.8-0.2,1.1-0.5l2.1-2.1l2.1,2.1
		c0.3,0.3,0.8,0.5,1.1,0.5s0.8-0.2,1.1-0.5c0.6-0.6,0.6-1.6,0-2.2l-2.1-2.1l2.1-2.1c0.6-0.6,0.6-1.6,0-2.2c-0.6-0.6-1.6-0.6-2.2,0
		l-2.1,2.1l-2.1-2.1c-0.6-0.6-1.6-0.6-2.2,0s-0.6,1.6,0,2.2l2.1,2.1l-2.1,2.1C1105.4-226.4,1105.4-225.3,1106-224.7z"/>
	<path id="XMLID_2701_" class="st22" d="M1122.9-228.2h29.2c1,0,1.6-0.6,1.6-1.6s-0.6-1.6-1.6-1.6h-29.2c-1,0-1.6,0.6-1.6,1.6
		C1121.3-228.8,1122-228.2,1122.9-228.2z"/>
	<path id="XMLID_2700_" class="st21" d="M1106-207.3c0.3,0.3,0.8,0.5,1.1,0.5s0.8-0.2,1.1-0.5l2.1-2.1l2.1,2.1
		c0.3,0.3,0.8,0.5,1.1,0.5s0.8-0.2,1.1-0.5c0.6-0.6,0.6-1.6,0-2.2l-2.1-2.1l2.1-2.1c0.6-0.6,0.6-1.6,0-2.2c-0.6-0.6-1.6-0.6-2.2,0
		l-1.9,1.9l-2.1-2.1c-0.6-0.6-1.6-0.6-2.2,0s-0.6,1.6,0,2.2l2.1,2.1l-2.1,2.1C1105.4-208.9,1105.4-207.9,1106-207.3z"/>
	<path id="XMLID_2699_" class="st22" d="M1122.9-210.8h29.2c1,0,1.6-0.6,1.6-1.6s-0.6-1.6-1.6-1.6h-29.2c-1,0-1.6,0.6-1.6,1.6
		S1122-210.8,1122.9-210.8z"/>
	<path id="XMLID_2698_" class="st21" d="M1106-189.9c0.3,0.3,0.8,0.5,1.1,0.5s0.8-0.2,1.1-0.5l2.1-2.1l2.1,2.1
		c0.3,0.3,0.8,0.5,1.1,0.5s0.8-0.2,1.1-0.5c0.6-0.6,0.6-1.6,0-2.2l-2.1-2.1l2.1-2.1c0.6-0.6,0.6-1.6,0-2.2c-0.6-0.6-1.6-0.6-2.2,0
		l-1.9,2.1l-2.1-2.1c-0.6-0.6-1.6-0.6-2.2,0s-0.6,1.6,0,2.2l2.1,2.1l-2.1,2.1C1105.4-191.5,1105.4-190.5,1106-189.9z"/>
	<path id="XMLID_2697_" class="st22" d="M1122.9-193.4h29.2c1,0,1.6-0.6,1.6-1.6s-0.6-1.6-1.6-1.6h-29.2c-1,0-1.6,0.6-1.6,1.6
		C1121.3-194,1122-193.4,1122.9-193.4z"/>
	<path id="XMLID_2696_" class="st21" d="M1106-172.3c0.3,0.3,0.8,0.5,1.1,0.5s0.8-0.2,1.1-0.5l2.1-2.1l2.1,2.1
		c0.3,0.3,0.8,0.5,1.1,0.5s0.8-0.2,1.1-0.5c0.6-0.6,0.6-1.6,0-2.2l-2.1-2.1l2.1-2.1c0.6-0.6,0.6-1.6,0-2.2c-0.6-0.6-1.6-0.6-2.2,0
		l-2.1,2.1l-2.1-2.1c-0.6-0.6-1.6-0.6-2.2,0s-0.6,1.6,0,2.2l2.1,2.1l-2.1,2.1C1105.4-174.1,1105.4-173,1106-172.3z"/>
	<path id="XMLID_2695_" class="st22" d="M1122.9-175.8h29.2c1,0,1.6-0.6,1.6-1.6s-0.6-1.6-1.6-1.6h-29.2c-1,0-1.6,0.6-1.6,1.6
		S1122-175.8,1122.9-175.8z"/>
</g>
<g id="XMLID_146_">
	<rect id="XMLID_2693_" x="755" y="-172" class="st20" width="74.6" height="106.8"/>
	<path id="XMLID_2692_" class="st21" d="M769-149.2c0.3,0.3,0.8,0.5,1.1,0.5c0.3,0,0.8-0.2,1.1-0.5l2.1-2.1l2.1,2.1
		c0.3,0.3,0.8,0.5,1.1,0.5c0.3,0,0.8-0.2,1.1-0.5c0.6-0.6,0.6-1.6,0-2.2l-2.1-2.1l2.1-2.1c0.6-0.6,0.6-1.6,0-2.2s-1.6-0.6-2.2,0
		l-2.1,2.1l-2.1-2.1c-0.6-0.6-1.6-0.6-2.2,0s-0.6,1.6,0,2.2l2.1,2.1l-2.1,2.1C768.4-150.8,768.4-149.9,769-149.2z"/>
	<path id="XMLID_2691_" class="st22" d="M785.9-152.7h29.2c1,0,1.6-0.6,1.6-1.6s-0.6-1.6-1.6-1.6h-29.2c-1,0-1.6,0.6-1.6,1.6
		C784.3-153.4,785-152.7,785.9-152.7z"/>
	<path id="XMLID_2690_" class="st21" d="M769-131.7c0.3,0.3,0.8,0.5,1.1,0.5c0.3,0,0.8-0.2,1.1-0.5l2.1-2.1l2.1,2.1
		c0.3,0.3,0.8,0.5,1.1,0.5c0.3,0,0.8-0.2,1.1-0.5c0.6-0.6,0.6-1.6,0-2.2l-2.1-2.1l2.1-2.1c0.6-0.6,0.6-1.6,0-2.2s-1.6-0.6-2.2,0
		l-2.1,2.1l-2.1-2.1c-0.6-0.6-1.6-0.6-2.2,0s-0.6,1.6,0,2.2l2.1,2.1l-2.1,2.1C768.4-133.4,768.4-132.3,769-131.7z"/>
	<path id="XMLID_2689_" class="st22" d="M785.9-135.2h29.2c1,0,1.6-0.6,1.6-1.6s-0.6-1.6-1.6-1.6h-29.2c-1,0-1.6,0.6-1.6,1.6
		S785-135.2,785.9-135.2z"/>
	<path id="XMLID_2688_" class="st21" d="M769-114.3c0.3,0.3,0.8,0.5,1.1,0.5c0.3,0,0.8-0.2,1.1-0.5l2.1-2.1l2.1,2.1
		c0.3,0.3,0.8,0.5,1.1,0.5c0.3,0,0.8-0.2,1.1-0.5c0.6-0.6,0.6-1.6,0-2.2l-2.1-2.1l2.1-2.1c0.6-0.6,0.6-1.6,0-2.2s-1.6-0.6-2.2,0
		l-1.9,1.9l-2.1-2.1c-0.6-0.6-1.6-0.6-2.2,0s-0.6,1.6,0,2.2l2.1,2.1l-2.1,2.1C768.4-115.9,768.4-114.9,769-114.3z"/>
	<path id="XMLID_2687_" class="st22" d="M785.9-117.8h29.2c1,0,1.6-0.6,1.6-1.6s-0.6-1.6-1.6-1.6h-29.2c-1,0-1.6,0.6-1.6,1.6
		C784.3-118.4,785-117.8,785.9-117.8z"/>
	<path id="XMLID_2686_" class="st21" d="M769-96.9c0.3,0.3,0.8,0.5,1.1,0.5c0.3,0,0.8-0.2,1.1-0.5l2.1-2.1l2.1,2.1
		c0.3,0.3,0.8,0.5,1.1,0.5c0.3,0,0.8-0.2,1.1-0.5c0.6-0.6,0.6-1.6,0-2.2l-2.1-2.1l2.1-2.1c0.6-0.6,0.6-1.6,0-2.2s-1.6-0.6-2.2,0
		l-1.9,2.1l-2.1-2.1c-0.6-0.6-1.6-0.6-2.2,0s-0.6,1.6,0,2.2l2.1,2.1l-2.1,2.1C768.4-98.5,768.4-97.5,769-96.9z"/>
	<path id="XMLID_2685_" class="st22" d="M785.9-100.4h29.2c1,0,1.6-0.6,1.6-1.6s-0.6-1.6-1.6-1.6h-29.2c-1,0-1.6,0.6-1.6,1.6
		S785-100.4,785.9-100.4z"/>
	<path id="XMLID_2684_" class="st21" d="M769-79.3c0.3,0.3,0.8,0.5,1.1,0.5c0.3,0,0.8-0.2,1.1-0.5l2.1-2.1l2.1,2.1
		c0.3,0.3,0.8,0.5,1.1,0.5c0.3,0,0.8-0.2,1.1-0.5c0.6-0.6,0.6-1.6,0-2.2l-2.1-2.1l2.1-2.1c0.6-0.6,0.6-1.6,0-2.2s-1.6-0.6-2.2,0
		l-2.1,2.1l-2.1-2.1c-0.6-0.6-1.6-0.6-2.2,0s-0.6,1.6,0,2.2l2.1,2.1l-2.1,2.1C768.4-81.1,768.4-80,769-79.3z"/>
	<path id="XMLID_2683_" class="st22" d="M785.9-82.8h29.2c1,0,1.6-0.6,1.6-1.6s-0.6-1.6-1.6-1.6h-29.2c-1,0-1.6,0.6-1.6,1.6
		C784.3-83.5,785-82.8,785.9-82.8z"/>
</g>
<path id="XMLID_147_" class="st9" d="M1534.3-9.6l-15.8-1.6c-2.1-0.1-3.9,1.4-4,3.5l0,0c-0.1,2.1,1.4,3.9,3.5,4l6.3,0.8l-41,33.1
	l-29.1-21.7l-50.8,39.6c-1.6,1.3-1.9,3.7-0.7,5.3c0.7,1,1.9,1.5,3,1.5c0.8,0,1.6-0.3,2.3-0.8l46.3-36l29.2,21.8L1529,3.2l-0.8,7.2
	c-0.3,2.1,1.1,4,3.2,4.3s4-1.1,4.3-3.2l2.1-16.6C1538.3-9.3,1538.3-9.3,1534.3-9.6z"/>
<g id="XMLID_168_">
	<rect id="XMLID_2257_" x="930.6" y="1111.3" class="st29" width="104.2" height="5.1"/>
	<polygon id="XMLID_169_" class="st29" points="1033.8,1039.7 931.7,1039.7 931.7,1036.8 982.9,1025.9 1033.8,1036.8 	"/>
	<polygon id="XMLID_170_" class="st29" points="1033.8,1049.9 1033.8,1044.7 931.7,1044.7 931.7,1049.9 939.8,1049.9 939.8,1100.8 
		935.4,1100.8 935.4,1105.9 963,1105.9 963,1100.8 958.6,1100.8 958.6,1049.9 973.3,1049.9 973.3,1100.8 968.9,1100.8 968.9,1105.9 
		996.6,1105.9 996.6,1100.8 992.2,1100.8 992.2,1049.9 1006.8,1049.9 1006.8,1100.8 1002.4,1100.8 1002.4,1105.9 1030.1,1105.9 
		1030.1,1100.8 1025.7,1100.8 1025.7,1049.9 	"/>
</g>
<g id="XMLID_171_">
	<g id="XMLID_172_">
		<g id="XMLID_173_">
			<path id="XMLID_2676_" class="st24" d="M544.6,485.4h5.1v2.5c0,1.8-0.1,3.6-0.3,5.4l-0.4,2.6l-5.1-0.6l0.3-2.5
				c0.2-1.6,0.3-3.2,0.3-4.8L544.6,485.4L544.6,485.4z"/>
		</g>
		<g id="XMLID_174_">
			<path id="XMLID_175_" class="st24" d="M542.8,499.7l4.7,1.9l-1,2.4c-1.4,3.4-3.2,6.6-5.5,9.5l-1.6,2l-4-3.1l1.6-2
				c2-2.6,3.6-5.4,4.8-8.3L542.8,499.7z M472.7,499.7l1,2.4c1.2,3,2.9,5.8,4.8,8.3l1.6,2l-4,3.1l-1.6-2c-2.2-2.9-4.1-6.1-5.5-9.5
				l-1-2.4L472.7,499.7z M532.2,515.6l3.1,4l-2,1.6c-2.9,2.2-6.1,4.1-9.5,5.5l-2.4,1l-2-4.7l2.4-1c3-1.2,5.8-2.9,8.3-4.8
				L532.2,515.6z M483.3,515.7l2,1.6c2.6,2,5.4,3.6,8.3,4.8l2.4,1l-1.9,4.7l-2.4-1c-3.4-1.4-6.6-3.2-9.5-5.5l-2-1.6L483.3,515.7z
				 M515.1,524.2l0.7,5.1l-2.5,0.3c-3.6,0.5-7.3,0.5-10.9,0l-2.5-0.3l0.7-5.1l2.5,0.3c3.2,0.4,6.5,0.4,9.6,0L515.1,524.2z"/>
		</g>
		<g id="XMLID_176_">
			<path id="XMLID_2667_" class="st24" d="M465.8,485.4h5.1v2.5c0,1.6,0.1,3.2,0.3,4.8l0.3,2.5l-5.1,0.6l-0.3-2.5
				c-0.2-1.8-0.3-3.6-0.3-5.4C465.8,487.9,465.8,485.4,465.8,485.4z"/>
		</g>
	</g>
	<g id="XMLID_177_">
		<g id="XMLID_178_">
			<path id="XMLID_2664_" class="st24" d="M554.2,485.4h5.1v2.5c0,1.8-0.1,3.6-0.3,5.4l-0.3,2.5l-5.1-0.5l0.3-2.5
				c0.2-1.6,0.2-3.2,0.2-4.8v-2.6H554.2z"/>
		</g>
		<g id="XMLID_179_">
			<path id="XMLID_180_" class="st24" d="M552.9,499.3l4.9,1.5l-0.8,2.4c-1,3.2-2.3,6.3-3.9,9.3l-1.2,2.2l-4.5-2.4l1.2-2.2
				c1.4-2.7,2.6-5.5,3.5-8.4L552.9,499.3z M462.5,499.3l0.8,2.4c0.9,2.9,2.1,5.7,3.5,8.4l1.2,2.2l-4.5,2.4l-1.2-2.2
				c-1.6-3-2.9-6.1-3.9-9.3l-0.8-2.4L462.5,499.3z M545.2,515.6l3.9,3.2l-1.6,2c-2.1,2.6-4.5,5-7.1,7.1l-2,1.6l-3.2-3.9l2-1.6
				c2.3-1.9,4.5-4.1,6.4-6.4L545.2,515.6z M470.3,515.7l1.6,2c1.9,2.3,4.1,4.5,6.4,6.4l2,1.6l-3.2,3.9l-2-1.6
				c-2.6-2.1-5-4.5-7.2-7.1l-1.6-2L470.3,515.7z M531.8,527.8l2.4,4.5l-2.2,1.2c-3,1.6-6.1,2.9-9.3,3.8l-2.4,0.7l-1.5-4.9l2.4-0.7
				c2.9-0.9,5.7-2,8.4-3.5L531.8,527.8z M483.7,527.9l2.3,1.2c2.7,1.4,5.5,2.6,8.4,3.5l2.4,0.7l-1.5,4.9l-2.4-0.7
				c-3.2-1-6.3-2.3-9.3-3.8l-2.3-1.2L483.7,527.9z M514.8,534l0.5,5.1l-2.5,0.2c-3.3,0.3-6.7,0.3-10.1,0l-2.5-0.2l0.5-5.1l2.5,0.2
				c3,0.3,6.1,0.3,9.1,0L514.8,534z"/>
		</g>
		<g id="XMLID_181_">
			<path id="XMLID_2653_" class="st24" d="M456.1,485.4h5.1v2.5c0,1.6,0.1,3.2,0.2,4.8l0.3,2.5l-5.1,0.5l-0.3-2.5
				c-0.2-1.8-0.3-3.6-0.3-5.4v-2.4H456.1z"/>
		</g>
	</g>
	<g id="XMLID_182_">
		<g id="XMLID_183_">
			<path id="XMLID_2650_" class="st24" d="M428.1,485.4h5.1v2.5c0,1.6,0.1,3.3,0.2,4.9l0.2,2.5l-5.1,0.3l-0.2-2.5
				c-0.1-1.7-0.2-3.5-0.2-5.3V485.4z"/>
		</g>
		<g id="XMLID_184_">
			<path id="XMLID_185_" class="st24" d="M434.1,500.1l0.5,2.5c0.6,3.2,1.5,6.4,2.5,9.4l0.8,2.4l-4.8,1.6l-0.8-2.4
				c-1.1-3.3-2-6.7-2.7-10.1l-0.5-2.5L434.1,500.1z M581.3,500.2l5,1l-0.5,2.5c-0.7,3.4-1.6,6.8-2.7,10.1l-0.8,2.4l-4.8-1.6l0.8-2.4
				c1-3.1,1.9-6.2,2.5-9.4L581.3,500.2z M439.7,518.7l1.1,2.3c1.4,2.9,3.1,5.7,4.9,8.4l1.4,2.1l-4.2,2.8l-1.4-2.1
				c-1.9-2.9-3.7-5.9-5.2-9l-1.1-2.3L439.7,518.7z M575.7,518.8l4.6,2.3l-1.1,2.3c-1.5,3.1-3.3,6.1-5.2,9l-1.4,2.1l-4.2-2.8l1.4-2.1
				c1.8-2.7,3.5-5.5,4.9-8.4L575.7,518.8z M450,535.2l1.7,1.9c2.1,2.4,4.5,4.8,6.9,6.9l1.9,1.7l-3.4,3.8l-1.9-1.7
				c-2.6-2.3-5.1-4.8-7.4-7.4l-1.7-1.9L450,535.2z M565.4,535.3l3.8,3.4l-1.7,1.9c-2.3,2.6-4.8,5.1-7.4,7.4l-1.9,1.7l-3.4-3.8
				l1.9-1.7c2.4-2.1,4.8-4.4,6.9-6.9L565.4,535.3z M464.2,548.5l2.1,1.4c2.7,1.8,5.5,3.4,8.4,4.9l2.3,1.1l-2.3,4.6l-2.3-1.1
				c-3.1-1.5-6.1-3.3-9-5.2l-2.1-1.4L464.2,548.5z M551.2,548.6l2.8,4.2l-2.1,1.4c-2.9,1.9-5.9,3.7-9,5.2l-2.3,1.1l-2.3-4.6l2.3-1.1
				c2.9-1.4,5.7-3.1,8.4-4.9L551.2,548.6z M481.3,557.8l2.4,0.8c3.1,1,6.2,1.9,9.4,2.5l2.5,0.5l-1,5l-2.5-0.5
				c-3.4-0.7-6.8-1.6-10.1-2.7l-2.4-0.8L481.3,557.8z M534.1,557.8l1.6,4.8l-2.4,0.8c-3.3,1.1-6.7,2-10.1,2.7l-2.5,0.5l-1-5l2.5-0.5
				c3.2-0.6,6.4-1.5,9.4-2.5L534.1,557.8z M500.3,562.2l2.5,0.2c3.2,0.2,6.5,0.2,9.7,0l2.5-0.2l0.3,5.1l-2.5,0.2
				c-3.4,0.2-6.9,0.2-10.4,0l-2.5-0.2L500.3,562.2z"/>
		</g>
		<g id="XMLID_186_">
			<path id="XMLID_2635_" class="st24" d="M582.3,485.4h5.1v2.5c0,1.7-0.1,3.5-0.2,5.3l-0.2,2.5l-5.1-0.3l0.2-2.5
				c0.1-1.6,0.2-3.3,0.2-4.9V485.4z"/>
		</g>
	</g>
	<g id="XMLID_187_">
		<g id="XMLID_188_">
			<path id="XMLID_2632_" class="st24" d="M437,485.4h5.1v2.5c0,1.6,0.1,3.3,0.2,4.9l0.2,2.5l-5.1,0.4l-0.2-2.5
				c-0.1-1.7-0.2-3.5-0.2-5.3V485.4z"/>
		</g>
		<g id="XMLID_189_">
			<path id="XMLID_190_" class="st24" d="M443.1,499.6l0.5,2.5c0.7,3,1.6,6,2.7,9l0.9,2.4l-4.8,1.8l-0.9-2.4
				c-1.2-3.1-2.1-6.4-2.9-9.7l-0.5-2.5L443.1,499.6z M572.4,499.7l5,1.1l-0.6,2.5c-0.7,3.3-1.7,6.5-2.9,9.6l-0.9,2.4l-4.8-1.8
				l0.9-2.4c1.1-2.9,2-5.9,2.7-8.9L572.4,499.7z M449,517.3l1.2,2.2c1.5,2.7,3.2,5.4,5.1,7.8l1.5,2l-4.1,3.1l-1.5-2
				c-2-2.7-3.9-5.5-5.5-8.5l-1.2-2.2L449,517.3z M566.5,517.4l4.5,2.5l-1.2,2.2c-1.6,2.9-3.5,5.8-5.5,8.4l-1.5,2l-4.1-3.1l1.5-2
				c1.9-2.5,3.6-5.1,5.1-7.8L566.5,517.4z M459.6,532.6l1.8,1.8c2.2,2.2,4.6,4.3,7.1,6.1l2,1.5l-3.1,4.1l-2-1.5
				c-2.7-2-5.2-4.2-7.6-6.6l-1.8-1.8L459.6,532.6z M555.8,532.7l3.6,3.6l-1.8,1.8c-2.4,2.4-4.9,4.6-7.6,6.6l-2,1.5l-3-4.1l2-1.5
				c2.5-1.9,4.9-3.9,7.1-6.1L555.8,532.7z M474.1,544.4l2.2,1.2c2.7,1.5,5.6,2.8,8.5,3.9l2.4,0.9l-1.8,4.8l-2.4-0.9
				c-3.1-1.2-6.2-2.6-9.2-4.2l-2.2-1.2L474.1,544.4z M541.3,544.4l2.4,4.5l-2.2,1.2c-2.9,1.6-6,3-9.2,4.2l-2.4,0.9l-1.8-4.8l2.4-0.9
				c2.9-1.1,5.8-2.4,8.5-3.9L541.3,544.4z M491.3,551.6l2.5,0.5c3,0.7,6.1,1.1,9.2,1.3l2.5,0.2l-0.4,5.1l-2.5-0.2
				c-3.3-0.2-6.7-0.7-10-1.4l-2.5-0.5L491.3,551.6z M524.1,551.6l1.1,5l-2.5,0.5c-3.3,0.7-6.6,1.2-10,1.4l-2.5,0.2l-0.4-5.1l2.5-0.2
				c3.1-0.2,6.2-0.7,9.2-1.3L524.1,551.6z"/>
		</g>
		<g id="XMLID_191_">
			<path id="XMLID_2618_" class="st24" d="M573.4,485.4h5.1v2.5c0,1.8-0.1,3.5-0.2,5.3l-0.2,2.5l-5.1-0.4l0.2-2.5
				c0.1-1.6,0.2-3.3,0.2-4.9V485.4z"/>
		</g>
	</g>
	<g id="XMLID_192_">
		<g id="XMLID_193_">
			<path id="XMLID_2615_" class="st24" d="M446.6,485.4h5.1v2.5c0,1.6,0.1,3.3,0.2,4.9l0.2,2.5l-5.1,0.4l-0.2-2.5
				c-0.2-1.8-0.2-3.5-0.2-5.3V485.4z"/>
		</g>
		<g id="XMLID_194_">
			<path id="XMLID_195_" class="st24" d="M452.9,500l0.7,2.5c0.8,3.1,2,6.2,3.3,9.2l1.1,2.3l-4.6,2.2l-1.1-2.3
				c-1.5-3.2-2.7-6.6-3.6-10l-0.7-2.5L452.9,500z M562.5,500.1l4.9,1.3l-0.7,2.5c-0.9,3.4-2.2,6.8-3.7,10l-1.1,2.3l-4.6-2.2l1.1-2.3
				c1.4-2.9,2.5-6,3.4-9.2L562.5,500.1z M460.3,518l1.5,2.1c1.9,2.7,4,5.2,6.3,7.5l1.8,1.8l-3.6,3.6l-1.8-1.8
				c-2.5-2.5-4.8-5.3-6.9-8.2l-1.5-2.1L460.3,518z M555.1,518.1l4.2,2.9l-1.5,2.1c-2,2.9-4.3,5.6-6.9,8.2l-1.8,1.8l-3.6-3.6l1.8-1.8
				c2.3-2.3,4.4-4.8,6.3-7.5L555.1,518.1z M473.5,532.4l2.1,1.5c2.7,1.9,5.5,3.5,8.5,4.9l2.3,1.1l-2.2,4.6l-2.3-1.1
				c-3.2-1.5-6.3-3.3-9.2-5.3l-2.1-1.5L473.5,532.4z M541.9,532.5l2.9,4.2l-2.1,1.5c-2.9,2-6,3.8-9.2,5.3l-2.3,1.1L529,540l2.3-1.1
				c2.9-1.4,5.8-3,8.5-4.9L541.9,532.5z M490.7,541.5l2.5,0.7c3.1,0.8,6.4,1.4,9.6,1.7l2.5,0.2l-0.4,5.1l-2.5-0.2
				c-3.5-0.3-7.1-0.9-10.5-1.8l-2.5-0.7L490.7,541.5z M524.7,541.5l1.3,4.9l-2.5,0.7c-3.4,0.9-7,1.5-10.5,1.8l-2.5,0.2l-0.4-5.1
				l2.5-0.2c3.3-0.3,6.5-0.8,9.6-1.7L524.7,541.5z"/>
		</g>
		<g id="XMLID_196_">
			<path id="XMLID_2603_" class="st24" d="M563.8,485.4h5.1v2.5c0,1.8-0.1,3.6-0.2,5.3l-0.2,2.5l-5.1-0.4l0.2-2.5
				c0.1-1.6,0.2-3.3,0.2-4.9V485.4z"/>
		</g>
	</g>
</g>
<g id="XMLID_197_">
	<rect id="XMLID_2256_" x="455.6" y="446.3" class="st29" width="104.2" height="5.1"/>
	<polygon id="XMLID_198_" class="st29" points="558.8,374.7 456.7,374.7 456.7,371.8 507.9,360.9 558.8,371.8 	"/>
	<polygon id="XMLID_199_" class="st29" points="558.8,384.9 558.8,379.7 456.7,379.7 456.7,384.9 464.8,384.9 464.8,435.8 
		460.4,435.8 460.4,440.9 488,440.9 488,435.8 483.6,435.8 483.6,384.9 498.3,384.9 498.3,435.8 493.9,435.8 493.9,440.9 
		521.6,440.9 521.6,435.8 517.2,435.8 517.2,384.9 531.8,384.9 531.8,435.8 527.4,435.8 527.4,440.9 555.1,440.9 555.1,435.8 
		550.7,435.8 550.7,384.9 	"/>
</g>
<g id="XMLID_200_">
	<g id="XMLID_201_">
		<g id="XMLID_202_">
			<path id="XMLID_2595_" class="st24" d="M978.6,265.4h5.1v2.5c0,1.8-0.1,3.6-0.3,5.4l-0.4,2.6l-5.1-0.6l0.3-2.5
				c0.2-1.6,0.3-3.2,0.3-4.8L978.6,265.4L978.6,265.4z"/>
		</g>
		<g id="XMLID_203_">
			<path id="XMLID_204_" class="st24" d="M976.8,279.7l4.7,1.9l-1,2.4c-1.4,3.4-3.2,6.6-5.5,9.5l-1.6,2l-4-3.1l1.6-2
				c2-2.6,3.6-5.4,4.8-8.3L976.8,279.7z M906.7,279.7l1,2.4c1.2,3,2.9,5.8,4.8,8.3l1.6,2l-4,3.1l-1.6-2c-2.2-2.9-4.1-6.1-5.5-9.5
				l-1-2.4L906.7,279.7z M966.2,295.6l3.1,4l-2,1.6c-2.9,2.2-6.1,4.1-9.5,5.5l-2.4,1l-2-4.7l2.4-1c3-1.2,5.8-2.9,8.3-4.8
				L966.2,295.6z M917.3,295.7l2,1.6c2.6,2,5.4,3.6,8.3,4.8l2.4,1l-1.9,4.7l-2.4-1c-3.4-1.4-6.6-3.2-9.5-5.5l-2-1.6L917.3,295.7z
				 M949.1,304.2l0.7,5.1l-2.5,0.3c-3.6,0.5-7.3,0.5-10.9,0l-2.5-0.3l0.7-5.1l2.5,0.3c3.2,0.4,6.5,0.4,9.6,0L949.1,304.2z"/>
		</g>
		<g id="XMLID_205_">
			<path id="XMLID_2586_" class="st24" d="M899.8,265.4h5.1v2.5c0,1.6,0.1,3.2,0.3,4.8l0.3,2.5l-5.1,0.6l-0.3-2.5
				c-0.2-1.8-0.3-3.6-0.3-5.4V265.4z"/>
		</g>
	</g>
	<g id="XMLID_206_">
		<g id="XMLID_207_">
			<path id="XMLID_2583_" class="st24" d="M988.2,265.4h5.1v2.5c0,1.8-0.1,3.6-0.3,5.4l-0.3,2.5l-5.1-0.5l0.3-2.5
				c0.2-1.6,0.2-3.2,0.2-4.8L988.2,265.4L988.2,265.4z"/>
		</g>
		<g id="XMLID_208_">
			<path id="XMLID_209_" class="st24" d="M986.9,279.3l4.9,1.5l-0.8,2.4c-1,3.2-2.3,6.3-3.9,9.3l-1.2,2.2l-4.5-2.4l1.2-2.2
				c1.4-2.7,2.6-5.5,3.5-8.4L986.9,279.3z M896.5,279.3l0.8,2.4c0.9,2.9,2.1,5.7,3.5,8.4l1.2,2.2l-4.5,2.4l-1.2-2.2
				c-1.6-3-2.9-6.1-3.9-9.3l-0.8-2.4L896.5,279.3z M979.2,295.6l3.9,3.2l-1.6,2c-2.1,2.6-4.5,5-7.1,7.1l-2,1.6l-3.2-3.9l2-1.6
				c2.3-1.9,4.5-4.1,6.4-6.4L979.2,295.6z M904.3,295.7l1.6,2c1.9,2.3,4.1,4.5,6.4,6.4l2,1.6l-3.2,3.9l-2-1.6
				c-2.6-2.1-5-4.5-7.2-7.1l-1.6-2L904.3,295.7z M965.8,307.8l2.4,4.5l-2.2,1.2c-3,1.6-6.1,2.9-9.3,3.8l-2.4,0.7l-1.5-4.9l2.4-0.7
				c2.9-0.9,5.7-2,8.4-3.5L965.8,307.8z M917.7,307.9l2.3,1.2c2.7,1.4,5.5,2.6,8.4,3.5l2.4,0.7l-1.5,4.9l-2.4-0.7
				c-3.2-1-6.3-2.3-9.3-3.8l-2.3-1.2L917.7,307.9z M948.8,314l0.5,5.1l-2.5,0.2c-3.3,0.3-6.7,0.3-10.1,0l-2.5-0.2l0.5-5.1l2.5,0.2
				c3,0.3,6.1,0.3,9.1,0L948.8,314z"/>
		</g>
		<g id="XMLID_210_">
			<path id="XMLID_2572_" class="st24" d="M890.1,265.4h5.1v2.5c0,1.6,0.1,3.2,0.2,4.8l0.3,2.5l-5.1,0.5l-0.3-2.5
				c-0.2-1.8-0.3-3.6-0.3-5.4L890.1,265.4L890.1,265.4z"/>
		</g>
	</g>
	<g id="XMLID_211_">
		<g id="XMLID_212_">
			<path id="XMLID_2569_" class="st24" d="M862.1,265.4h5.1v2.5c0,1.6,0.1,3.3,0.2,4.9l0.2,2.5l-5.1,0.3l-0.2-2.5
				c-0.1-1.7-0.2-3.5-0.2-5.3V265.4z"/>
		</g>
		<g id="XMLID_213_">
			<path id="XMLID_214_" class="st24" d="M868.1,280.1l0.5,2.5c0.6,3.2,1.5,6.4,2.5,9.4l0.8,2.4l-4.8,1.6l-0.8-2.4
				c-1.1-3.3-2-6.7-2.7-10.1l-0.5-2.5L868.1,280.1z M1015.3,280.2l5,1l-0.5,2.5c-0.7,3.4-1.6,6.8-2.7,10.1l-0.8,2.4l-4.8-1.6
				l0.8-2.4c1-3.1,1.9-6.2,2.5-9.4L1015.3,280.2z M873.7,298.7l1.1,2.3c1.4,2.9,3.1,5.7,4.9,8.4l1.4,2.1l-4.2,2.8l-1.4-2.1
				c-1.9-2.9-3.7-5.9-5.2-9l-1.1-2.3L873.7,298.7z M1009.7,298.8l4.6,2.3l-1.1,2.3c-1.5,3.1-3.3,6.1-5.2,9l-1.4,2.1l-4.2-2.8
				l1.4-2.1c1.8-2.7,3.5-5.5,4.9-8.4L1009.7,298.8z M884,315.2l1.7,1.9c2.1,2.4,4.5,4.8,6.9,6.9l1.9,1.7l-3.4,3.8l-1.9-1.7
				c-2.6-2.3-5.1-4.8-7.4-7.4l-1.7-1.9L884,315.2z M999.4,315.3l3.8,3.4l-1.7,1.9c-2.3,2.6-4.8,5.1-7.4,7.4l-1.9,1.7l-3.4-3.8
				l1.9-1.7c2.4-2.1,4.8-4.4,6.9-6.9L999.4,315.3z M898.2,328.5l2.1,1.4c2.7,1.8,5.5,3.4,8.4,4.9l2.3,1.1l-2.3,4.6l-2.3-1.1
				c-3.1-1.5-6.1-3.3-9-5.2l-2.1-1.4L898.2,328.5z M985.2,328.6l2.8,4.2l-2.1,1.4c-2.9,1.9-5.9,3.7-9,5.2l-2.3,1.1l-2.3-4.6l2.3-1.1
				c2.9-1.4,5.7-3.1,8.4-4.9L985.2,328.6z M915.3,337.8l2.4,0.8c3.1,1,6.2,1.9,9.4,2.5l2.5,0.5l-1,5l-2.5-0.5
				c-3.4-0.7-6.8-1.6-10.1-2.7l-2.4-0.8L915.3,337.8z M968.1,337.8l1.6,4.8l-2.4,0.8c-3.3,1.1-6.7,2-10.1,2.7l-2.5,0.5l-1-5l2.5-0.5
				c3.2-0.6,6.4-1.5,9.4-2.5L968.1,337.8z M934.3,342.2l2.5,0.2c3.2,0.2,6.5,0.2,9.7,0l2.5-0.2l0.3,5.1l-2.5,0.2
				c-3.4,0.2-6.9,0.2-10.4,0l-2.5-0.2L934.3,342.2z"/>
		</g>
		<g id="XMLID_215_">
			<path id="XMLID_2554_" class="st24" d="M1016.3,265.4h5.1v2.5c0,1.7-0.1,3.5-0.2,5.3l-0.2,2.5l-5.1-0.3l0.2-2.5
				c0.1-1.6,0.2-3.3,0.2-4.9V265.4z"/>
		</g>
	</g>
	<g id="XMLID_216_">
		<g id="XMLID_217_">
			<path id="XMLID_2551_" class="st24" d="M871,265.4h5.1v2.5c0,1.6,0.1,3.3,0.2,4.9l0.2,2.5l-5.1,0.4l-0.2-2.5
				c-0.1-1.7-0.2-3.5-0.2-5.3V265.4z"/>
		</g>
		<g id="XMLID_218_">
			<path id="XMLID_219_" class="st24" d="M877.1,279.6l0.5,2.5c0.7,3,1.6,6,2.7,9l0.9,2.4l-4.8,1.8l-0.9-2.4
				c-1.2-3.1-2.1-6.4-2.9-9.7l-0.5-2.5L877.1,279.6z M1006.4,279.7l5,1.1l-0.6,2.5c-0.7,3.3-1.7,6.5-2.9,9.6l-0.9,2.4l-4.8-1.8
				l0.9-2.4c1.1-2.9,2-5.9,2.7-8.9L1006.4,279.7z M883,297.3l1.2,2.2c1.5,2.7,3.2,5.4,5.1,7.8l1.5,2l-4.1,3.1l-1.5-2
				c-2-2.7-3.9-5.5-5.5-8.5l-1.2-2.2L883,297.3z M1000.5,297.4l4.5,2.5l-1.2,2.2c-1.6,2.9-3.5,5.8-5.5,8.4l-1.5,2l-4.1-3.1l1.5-2
				c1.9-2.5,3.6-5.1,5.1-7.8L1000.5,297.4z M893.6,312.6l1.8,1.8c2.2,2.2,4.6,4.3,7.1,6.1l2,1.5l-3.1,4.1l-2-1.5
				c-2.7-2-5.2-4.2-7.6-6.6l-1.8-1.8L893.6,312.6z M989.8,312.7l3.6,3.6l-1.8,1.8c-2.4,2.4-4.9,4.6-7.6,6.6l-2,1.5l-3-4.1l2-1.5
				c2.5-1.9,4.9-3.9,7.1-6.1L989.8,312.7z M908.1,324.4l2.2,1.2c2.7,1.5,5.6,2.8,8.5,3.9l2.4,0.9l-1.8,4.8l-2.4-0.9
				c-3.1-1.2-6.2-2.6-9.2-4.2l-2.2-1.2L908.1,324.4z M975.3,324.4l2.4,4.5l-2.2,1.2c-2.9,1.6-6,3-9.2,4.2l-2.4,0.9l-1.8-4.8l2.4-0.9
				c2.9-1.1,5.8-2.4,8.5-3.9L975.3,324.4z M925.3,331.6l2.5,0.5c3,0.7,6.1,1.1,9.2,1.3l2.5,0.2l-0.4,5.1l-2.5-0.2
				c-3.3-0.2-6.7-0.7-10-1.4l-2.5-0.5L925.3,331.6z M958.1,331.6l1.1,5l-2.5,0.5c-3.3,0.7-6.6,1.2-10,1.4l-2.5,0.2l-0.4-5.1l2.5-0.2
				c3.1-0.2,6.2-0.7,9.2-1.3L958.1,331.6z"/>
		</g>
		<g id="XMLID_220_">
			<path id="XMLID_2537_" class="st24" d="M1007.4,265.4h5.1v2.5c0,1.8-0.1,3.5-0.2,5.3l-0.2,2.5l-5.1-0.4l0.2-2.5
				c0.1-1.6,0.2-3.3,0.2-4.9V265.4z"/>
		</g>
	</g>
	<g id="XMLID_221_">
		<g id="XMLID_222_">
			<path id="XMLID_2534_" class="st24" d="M880.6,265.4h5.1v2.5c0,1.6,0.1,3.3,0.2,4.9l0.2,2.5l-5.1,0.4l-0.2-2.5
				c-0.2-1.8-0.2-3.5-0.2-5.3V265.4z"/>
		</g>
		<g id="XMLID_223_">
			<path id="XMLID_224_" class="st24" d="M886.9,280l0.7,2.5c0.8,3.1,2,6.2,3.3,9.2l1.1,2.3l-4.6,2.2l-1.1-2.3
				c-1.5-3.2-2.7-6.6-3.6-10l-0.7-2.5L886.9,280z M996.5,280.1l4.9,1.3l-0.7,2.5c-0.9,3.4-2.2,6.8-3.7,10l-1.1,2.3l-4.6-2.2l1.1-2.3
				c1.4-2.9,2.5-6,3.4-9.2L996.5,280.1z M894.3,298l1.5,2.1c1.9,2.7,4,5.2,6.3,7.5l1.8,1.8l-3.6,3.6l-1.8-1.8
				c-2.5-2.5-4.8-5.3-6.9-8.2l-1.5-2.1L894.3,298z M989.1,298.1l4.2,2.9l-1.5,2.1c-2,2.9-4.3,5.6-6.9,8.2l-1.8,1.8l-3.6-3.6l1.8-1.8
				c2.3-2.3,4.4-4.8,6.3-7.5L989.1,298.1z M907.5,312.4l2.1,1.5c2.7,1.9,5.5,3.5,8.5,4.9l2.3,1.1l-2.2,4.6l-2.3-1.1
				c-3.2-1.5-6.3-3.3-9.2-5.3l-2.1-1.5L907.5,312.4z M975.9,312.5l2.9,4.2l-2.1,1.5c-2.9,2-6,3.8-9.2,5.3l-2.3,1.1L963,320l2.3-1.1
				c2.9-1.4,5.8-3,8.5-4.9L975.9,312.5z M924.7,321.5l2.5,0.7c3.1,0.8,6.4,1.4,9.6,1.7l2.5,0.2l-0.4,5.1l-2.5-0.2
				c-3.5-0.3-7.1-0.9-10.5-1.8l-2.5-0.7L924.7,321.5z M958.7,321.5l1.3,4.9l-2.5,0.7c-3.4,0.9-7,1.5-10.5,1.8l-2.5,0.2l-0.4-5.1
				l2.5-0.2c3.3-0.3,6.5-0.8,9.6-1.7L958.7,321.5z"/>
		</g>
		<g id="XMLID_225_">
			<path id="XMLID_2522_" class="st24" d="M997.8,265.4h5.1v2.5c0,1.8-0.1,3.6-0.2,5.3l-0.2,2.5l-5.1-0.4l0.2-2.5
				c0.1-1.6,0.2-3.3,0.2-4.9V265.4z"/>
		</g>
	</g>
</g>
<g id="XMLID_226_">
	<rect id="XMLID_2255_" x="889.6" y="226.3" class="st29" width="104.2" height="5.1"/>
	<polygon id="XMLID_227_" class="st29" points="992.8,154.7 890.7,154.7 890.7,151.8 941.9,140.9 992.8,151.8 	"/>
	<polygon id="XMLID_228_" class="st29" points="992.8,164.9 992.8,159.7 890.7,159.7 890.7,164.9 898.8,164.9 898.8,215.8 
		894.4,215.8 894.4,220.9 922,220.9 922,215.8 917.6,215.8 917.6,164.9 932.3,164.9 932.3,215.8 927.9,215.8 927.9,220.9 
		955.6,220.9 955.6,215.8 951.2,215.8 951.2,164.9 965.8,164.9 965.8,215.8 961.4,215.8 961.4,220.9 989.1,220.9 989.1,215.8 
		984.7,215.8 984.7,164.9 	"/>
</g>
<g id="XMLID_229_">
	<g id="XMLID_230_">
		<g id="XMLID_231_">
			<g id="XMLID_232_">
				<path id="XMLID_2514_" class="st24" d="M1530.6-267.6h5.1v2.5c0,1.8-0.1,3.6-0.3,5.4l-0.3,2.5l-5.1-0.6l0.3-2.5
					c0.2-1.6,0.3-3.2,0.3-4.8V-267.6z"/>
			</g>
			<g id="XMLID_233_">
				<path id="XMLID_234_" class="st24" d="M1528.8-253.3l4.7,1.9l-1,2.4c-1.4,3.4-3.2,6.6-5.5,9.5l-1.6,2l-4-3.1l1.6-2
					c2-2.6,3.6-5.4,4.8-8.3L1528.8-253.3z M1458.7-253.3l1,2.4c1.2,3,2.9,5.8,4.8,8.3l1.6,2l-4,3.1l-1.6-2c-2.2-2.9-4.1-6.1-5.5-9.5
					l-1-2.4L1458.7-253.3z M1518.2-237.4l3.1,4l-2,1.6c-2.9,2.2-6.1,4.1-9.5,5.5l-2.4,1l-2-4.7l2.4-1c3-1.2,5.8-2.9,8.3-4.8
					L1518.2-237.4z M1469.3-237.3l2,1.6c2.6,2,5.4,3.6,8.3,4.8l2.4,1l-1.9,4.7l-2.4-1c-3.4-1.4-6.6-3.2-9.5-5.5l-2-1.6L1469.3-237.3
					z M1501.1-228.8l0.7,5.1l-2.5,0.3c-3.6,0.5-7.3,0.5-10.9,0l-2.5-0.3l0.7-5.1l2.5,0.3c3.2,0.4,6.5,0.4,9.6,0L1501.1-228.8z"/>
			</g>
			<g id="XMLID_235_">
				<path id="XMLID_2505_" class="st24" d="M1451.8-267.6h5.1v2.5c0,1.6,0.1,3.2,0.3,4.8l0.3,2.5l-5.1,0.6l-0.3-2.5
					c-0.2-1.8-0.3-3.6-0.3-5.4V-267.6z"/>
			</g>
		</g>
		<g id="XMLID_236_">
			<g id="XMLID_237_">
				<path id="XMLID_2502_" class="st24" d="M1540.2-267.6h5.1v2.5c0,1.8-0.1,3.6-0.3,5.4l-0.3,2.5l-5.1-0.5l0.3-2.5
					c0.2-1.6,0.2-3.2,0.2-4.8v-2.6H1540.2z"/>
			</g>
			<g id="XMLID_238_">
				<path id="XMLID_239_" class="st24" d="M1538.9-253.7l4.9,1.5l-0.8,2.4c-1,3.2-2.3,6.3-3.9,9.3l-1.2,2.2l-4.5-2.4l1.2-2.2
					c1.4-2.7,2.6-5.5,3.5-8.4L1538.9-253.7z M1448.5-253.7l0.8,2.4c0.9,2.9,2.1,5.7,3.5,8.4l1.2,2.2l-4.5,2.4l-1.2-2.2
					c-1.6-3-2.9-6.1-3.9-9.3l-0.8-2.4L1448.5-253.7z M1531.2-237.4l3.9,3.2l-1.6,2c-2.1,2.6-4.5,5-7.1,7.1l-2,1.6l-3.2-3.9l2-1.6
					c2.3-1.9,4.5-4.1,6.4-6.4L1531.2-237.4z M1456.3-237.3l1.6,2c1.9,2.3,4.1,4.5,6.4,6.4l2,1.6l-3.2,3.9l-2-1.6
					c-2.6-2.1-5-4.5-7.2-7.1l-1.6-2L1456.3-237.3z M1517.8-225.2l2.4,4.5l-2.2,1.2c-3,1.6-6.1,2.9-9.3,3.8l-2.4,0.7l-1.5-4.9
					l2.4-0.7c2.9-0.9,5.7-2,8.4-3.5L1517.8-225.2z M1469.7-225.1l2.3,1.2c2.7,1.4,5.5,2.6,8.4,3.5l2.4,0.7l-1.5,4.9l-2.4-0.7
					c-3.2-1-6.3-2.3-9.3-3.8l-2.3-1.2L1469.7-225.1z M1500.8-219l0.5,5.1l-2.5,0.2c-3.3,0.3-6.7,0.3-10.1,0l-2.5-0.2l0.5-5.1
					l2.5,0.2c3,0.3,6.1,0.3,9.1,0L1500.8-219z"/>
			</g>
			<g id="XMLID_240_">
				<path id="XMLID_2491_" class="st24" d="M1442.1-267.6h5.1v2.5c0,1.6,0.1,3.2,0.2,4.8l0.3,2.5l-5.1,0.5l-0.3-2.5
					c-0.2-1.8-0.3-3.6-0.3-5.4v-2.4H1442.1z"/>
			</g>
		</g>
		<g id="XMLID_241_">
			<g id="XMLID_242_">
				<path id="XMLID_2488_" class="st24" d="M1414.1-267.6h5.1v2.5c0,1.6,0.1,3.3,0.2,4.9l0.2,2.5l-5.1,0.3l-0.2-2.5
					c-0.1-1.7-0.2-3.5-0.2-5.3V-267.6z"/>
			</g>
			<g id="XMLID_243_">
				<path id="XMLID_244_" class="st24" d="M1420.1-252.9l0.5,2.5c0.6,3.2,1.5,6.4,2.5,9.4l0.8,2.4l-4.8,1.6l-0.8-2.4
					c-1.1-3.3-2-6.7-2.7-10.1l-0.5-2.5L1420.1-252.9z M1567.3-252.8l5,1l-0.5,2.5c-0.7,3.4-1.6,6.8-2.7,10.1l-0.8,2.4l-4.8-1.6
					l0.8-2.4c1-3.1,1.9-6.2,2.5-9.4L1567.3-252.8z M1425.7-234.3l1.1,2.3c1.4,2.9,3.1,5.7,4.9,8.4l1.4,2.1l-4.2,2.8l-1.4-2.1
					c-1.9-2.9-3.7-5.9-5.2-9l-1.1-2.3L1425.7-234.3z M1561.7-234.2l4.6,2.3l-1.1,2.3c-1.5,3.1-3.3,6.1-5.2,9l-1.4,2.1l-4.2-2.8
					l1.4-2.1c1.8-2.7,3.5-5.5,4.9-8.4L1561.7-234.2z M1436-217.8l1.7,1.9c2.1,2.4,4.5,4.8,6.9,6.9l1.9,1.7l-3.4,3.8l-1.9-1.7
					c-2.6-2.3-5.1-4.8-7.4-7.4l-1.7-1.9L1436-217.8z M1551.4-217.7l3.8,3.4l-1.7,1.9c-2.3,2.6-4.8,5.1-7.4,7.3l-1.9,1.7l-3.4-3.8
					l1.9-1.7c2.4-2.1,4.8-4.4,6.9-6.9L1551.4-217.7z M1450.2-204.5l2.1,1.4c2.7,1.8,5.5,3.4,8.4,4.9l2.3,1.1l-2.3,4.6l-2.3-1.1
					c-3.1-1.5-6.1-3.3-9-5.2l-2.1-1.4L1450.2-204.5z M1537.2-204.4l2.8,4.2l-2.1,1.4c-2.9,1.9-5.9,3.7-9,5.2l-2.3,1.1l-2.3-4.6
					l2.3-1.1c2.9-1.4,5.7-3.1,8.4-4.9L1537.2-204.4z M1467.3-195.2l2.4,0.8c3.1,1,6.2,1.9,9.4,2.5l2.5,0.5l-1,5l-2.5-0.5
					c-3.4-0.7-6.8-1.6-10.1-2.7l-2.4-0.8L1467.3-195.2z M1520.1-195.2l1.6,4.8l-2.4,0.8c-3.3,1.1-6.7,2-10.1,2.7l-2.5,0.5l-1-5
					l2.5-0.5c3.2-0.6,6.4-1.5,9.4-2.5L1520.1-195.2z M1486.3-190.8l2.5,0.2c3.2,0.2,6.5,0.2,9.7,0l2.5-0.2l0.3,5.1l-2.5,0.2
					c-3.4,0.2-6.9,0.2-10.4,0l-2.5-0.2L1486.3-190.8z"/>
			</g>
			<g id="XMLID_245_">
				<path id="XMLID_2473_" class="st24" d="M1568.3-267.6h5.1v2.5c0,1.7-0.1,3.5-0.2,5.3l-0.2,2.5l-5.1-0.3l0.2-2.5
					c0.1-1.6,0.2-3.3,0.2-4.9V-267.6z"/>
			</g>
		</g>
		<g id="XMLID_246_">
			<g id="XMLID_247_">
				<path id="XMLID_2470_" class="st24" d="M1423-267.6h5.1v2.5c0,1.6,0.1,3.3,0.2,4.9l0.2,2.5l-5.1,0.4l-0.2-2.5
					c-0.1-1.7-0.2-3.5-0.2-5.3V-267.6z"/>
			</g>
			<g id="XMLID_248_">
				<path id="XMLID_249_" class="st24" d="M1429.1-253.4l0.5,2.5c0.7,3,1.6,6,2.7,9l0.9,2.4l-4.8,1.8l-0.9-2.4
					c-1.2-3.1-2.1-6.4-2.9-9.7l-0.5-2.5L1429.1-253.4z M1558.4-253.3l5,1.1l-0.6,2.5c-0.7,3.3-1.7,6.5-2.9,9.6l-0.9,2.4l-4.8-1.8
					l0.9-2.4c1.1-2.9,2-5.9,2.7-8.9L1558.4-253.3z M1435-235.7l1.2,2.2c1.5,2.7,3.2,5.4,5.1,7.8l1.5,2l-4.1,3.1l-1.5-2
					c-2-2.7-3.9-5.5-5.5-8.5l-1.2-2.2L1435-235.7z M1552.5-235.6l4.5,2.5l-1.2,2.2c-1.6,2.9-3.5,5.8-5.5,8.4l-1.5,2l-4.1-3.1l1.5-2
					c1.9-2.5,3.6-5.1,5.1-7.8L1552.5-235.6z M1445.6-220.4l1.8,1.8c2.2,2.2,4.6,4.3,7.1,6.1l2,1.5l-3.1,4.1l-2-1.5
					c-2.7-2-5.2-4.2-7.6-6.6l-1.8-1.8L1445.6-220.4z M1541.8-220.3l3.6,3.6l-1.8,1.8c-2.4,2.4-4.9,4.6-7.6,6.6l-2,1.5l-3-4.1l2-1.5
					c2.5-1.9,4.9-3.9,7.1-6.1L1541.8-220.3z M1460.1-208.6l2.2,1.2c2.7,1.5,5.6,2.8,8.5,3.9l2.4,0.9l-1.8,4.8l-2.4-0.9
					c-3.1-1.2-6.2-2.6-9.2-4.2l-2.2-1.2L1460.1-208.6z M1527.3-208.6l2.4,4.5l-2.2,1.2c-2.9,1.6-6,3-9.2,4.2l-2.4,0.9l-1.8-4.8
					l2.4-0.9c2.9-1.1,5.8-2.4,8.5-3.9L1527.3-208.6z M1477.3-201.4l2.5,0.5c3,0.7,6.1,1.1,9.2,1.3l2.5,0.2l-0.4,5.1l-2.5-0.2
					c-3.3-0.2-6.7-0.7-10-1.4l-2.5-0.5L1477.3-201.4z M1510.1-201.4l1.1,5l-2.5,0.5c-3.3,0.7-6.6,1.2-10,1.4l-2.5,0.2l-0.4-5.1
					l2.5-0.2c3.1-0.2,6.2-0.7,9.2-1.3L1510.1-201.4z"/>
			</g>
			<g id="XMLID_250_">
				<path id="XMLID_2456_" class="st24" d="M1559.4-267.6h5.1v2.5c0,1.8-0.1,3.5-0.2,5.3l-0.2,2.5l-5.1-0.4l0.2-2.5
					c0.1-1.6,0.2-3.3,0.2-4.9V-267.6z"/>
			</g>
		</g>
		<g id="XMLID_251_">
			<g id="XMLID_252_">
				<path id="XMLID_2453_" class="st24" d="M1432.6-267.6h5.1v2.5c0,1.6,0.1,3.3,0.2,4.9l0.2,2.5l-5.1,0.4l-0.2-2.5
					c-0.2-1.8-0.2-3.5-0.2-5.3V-267.6z"/>
			</g>
			<g id="XMLID_253_">
				<path id="XMLID_254_" class="st24" d="M1438.9-253l0.7,2.5c0.8,3.1,2,6.2,3.3,9.2l1.1,2.3l-4.6,2.2l-1.1-2.3
					c-1.5-3.2-2.7-6.6-3.6-10l-0.7-2.5L1438.9-253z M1548.5-252.9l4.9,1.3l-0.7,2.5c-0.9,3.4-2.2,6.8-3.7,10l-1.1,2.3l-4.6-2.2
					l1.1-2.3c1.4-2.9,2.5-6,3.4-9.2L1548.5-252.9z M1446.3-235l1.5,2.1c1.9,2.7,4,5.2,6.3,7.5l1.8,1.8l-3.6,3.6l-1.8-1.8
					c-2.5-2.5-4.8-5.3-6.9-8.2l-1.5-2.1L1446.3-235z M1541.1-234.9l4.2,2.9l-1.5,2.1c-2,2.9-4.3,5.6-6.9,8.2l-1.8,1.8l-3.6-3.6
					l1.8-1.8c2.3-2.3,4.4-4.8,6.3-7.5L1541.1-234.9z M1459.5-220.6l2.1,1.5c2.7,1.9,5.5,3.5,8.5,4.9l2.3,1.1l-2.2,4.6l-2.3-1.1
					c-3.2-1.5-6.3-3.3-9.2-5.3l-2.1-1.5L1459.5-220.6z M1527.9-220.5l2.9,4.2l-2.1,1.5c-2.9,2-6,3.8-9.2,5.3l-2.3,1.1l-2.2-4.6
					l2.3-1.1c2.9-1.4,5.8-3,8.5-4.9L1527.9-220.5z M1476.7-211.5l2.5,0.7c3.1,0.8,6.4,1.4,9.6,1.7l2.5,0.2l-0.4,5.1l-2.5-0.2
					c-3.5-0.3-7.1-0.9-10.5-1.8l-2.5-0.7L1476.7-211.5z M1510.7-211.5l1.3,4.9l-2.5,0.7c-3.4,0.9-7,1.5-10.5,1.8l-2.5,0.2l-0.4-5.1
					l2.5-0.2c3.3-0.3,6.5-0.8,9.6-1.7L1510.7-211.5z"/>
			</g>
			<g id="XMLID_255_">
				<path id="XMLID_2441_" class="st24" d="M1549.8-267.6h5.1v2.5c0,1.8-0.1,3.6-0.2,5.3l-0.2,2.5l-5.1-0.4l0.2-2.5
					c0.1-1.6,0.2-3.3,0.2-4.9V-267.6z"/>
			</g>
		</g>
	</g>
	<g id="XMLID_256_">
		<rect id="XMLID_2254_" x="1441.6" y="-306.7" class="st29" width="104.2" height="5.1"/>
		<polygon id="XMLID_257_" class="st29" points="1544.8,-378.3 1442.7,-378.3 1442.7,-381.2 1493.9,-392.1 1544.8,-381.2 		"/>
		<polygon id="XMLID_258_" class="st29" points="1544.8,-368.1 1544.8,-373.3 1442.7,-373.3 1442.7,-368.1 1450.8,-368.1 
			1450.8,-317.2 1446.4,-317.2 1446.4,-312.1 1474,-312.1 1474,-317.2 1469.6,-317.2 1469.6,-368.1 1484.3,-368.1 1484.3,-317.2 
			1479.9,-317.2 1479.9,-312.1 1507.6,-312.1 1507.6,-317.2 1503.2,-317.2 1503.2,-368.1 1517.8,-368.1 1517.8,-317.2 
			1513.4,-317.2 1513.4,-312.1 1541.1,-312.1 1541.1,-317.2 1536.7,-317.2 1536.7,-368.1 		"/>
	</g>
</g>
<g id="XMLID_259_">
	<g id="XMLID_264_">
		<path id="XMLID_268_" class="st30" d="M699.7-304.1v5.4H693c-1.9,0-2.7,0.9-2.7,3.2v12.9c0,4.8-1.8,6.3-4.2,7
			c2.4,0.7,4.2,2.1,4.2,7v12.9c0,2.3,0.8,3.2,2.7,3.2h6.8v5.4h-8.3c-3.6,0-6-2.9-6-7.1v-12.3c0-5-2.4-6.4-6-6.4v-5.4
			c3.6,0,6-1.4,6-6.4V-297c0-4.3,2.4-7.1,6-7.1L699.7-304.1 M699.7-307.1h-8.3c-5.3,0-9,4.2-9,10.1v12.3c0,2.8-0.6,3.4-3,3.4
			c-1.7,0-3,1.3-3,3v5.4c0,1.7,1.3,3,3,3c2.4,0,3,0.6,3,3.4v12.3c0,6,3.7,10.1,9,10.1h8.3c1.7,0,3-1.3,3-3v-5.4c0-1.7-1.3-3-3-3
			h-6.5c0-0.1,0-0.1,0-0.2v-12.9c0-3-0.6-5.3-1.9-7c1.3-1.7,1.9-4,1.9-7v-12.9c0-0.1,0-0.1,0-0.2h6.5c1.7,0,3-1.3,3-3v-5.4
			C702.7-305.8,701.4-307.1,699.7-307.1L699.7-307.1z"/>
	</g>
	<g id="XMLID_273_">
		<path id="XMLID_262_" class="st30" d="M730-304.1l-16.4,57h-5.2l16.4-57H730 M730-307.1h-5.2c-1.3,0-2.5,0.9-2.9,2.2l-16.4,57
			c-0.3,0.9-0.1,1.9,0.5,2.6s1.5,1.2,2.4,1.2h5.2c1.3,0,2.5-0.9,2.9-2.2l16.4-57c0.3-0.9,0.1-1.9-0.5-2.6
			C731.8-306.7,730.9-307.1,730-307.1L730-307.1z"/>
	</g>
	<g id="XMLID_281_">
		<path id="XMLID_166_" class="st30" d="M747.3-304.1c3.6,0,6,2.8,6,7.1v12.3c0,5,2.4,6.4,6,6.4v5.4c-3.6,0-6,1.4-6,6.4v12.3
			c0,4.3-2.4,7.1-6,7.1H739v-5.4h6.8c1.9,0,2.7-0.9,2.7-3.2v-12.9c0-4.8,1.8-6.3,4.2-7c-2.4-0.7-4.2-2.1-4.2-7v-12.9
			c0-2.3-0.8-3.2-2.7-3.2H739v-5.4H747.3 M747.3-307.1H739c-1.7,0-3,1.3-3,3v5.4c0,1.7,1.3,3,3,3h6.5c0,0.1,0,0.1,0,0.2v12.9
			c0,3,0.6,5.3,1.9,7c-1.3,1.7-1.9,4-1.9,7v12.9c0,0.1,0,0.1,0,0.2H739c-1.7,0-3,1.3-3,3v5.4c0,1.7,1.3,3,3,3h8.3
			c5.3,0,9-4.2,9-10.1v-12.3c0-2.8,0.6-3.4,3-3.4c1.7,0,3-1.3,3-3v-5.4c0-1.7-1.3-3-3-3c-2.4,0-3-0.6-3-3.4V-297
			C756.3-302.9,752.6-307.1,747.3-307.1L747.3-307.1z"/>
	</g>
</g>
<g id="XMLID_283_">
	<g id="XMLID_288_">
		<path id="XMLID_271_" class="st31" d="M795.7,444.9v5.4H789c-1.9,0-2.7,0.9-2.7,3.2v12.9c0,4.8-1.8,6.3-4.2,7
			c2.4,0.7,4.2,2.1,4.2,7v12.9c0,2.3,0.8,3.2,2.7,3.2h6.8v5.4h-8.3c-3.6,0-6-2.9-6-7.1v-12.3c0-5-2.4-6.4-6-6.4v-5.4
			c3.6,0,6-1.4,6-6.4V452c0-4.3,2.4-7.1,6-7.1L795.7,444.9 M795.7,441.9h-8.3c-5.3,0-9,4.2-9,10.1v12.3c0,2.8-0.6,3.4-3,3.4
			c-1.7,0-3,1.3-3,3v5.4c0,1.7,1.3,3,3,3c2.4,0,3,0.6,3,3.4v12.3c0,6,3.7,10.1,9,10.1h8.3c1.7,0,3-1.3,3-3v-5.4c0-1.7-1.3-3-3-3
			h-6.5c0-0.1,0-0.1,0-0.2v-12.9c0-3-0.6-5.3-1.9-7c1.3-1.7,1.9-4,1.9-7v-12.9c0-0.1,0-0.1,0-0.2h6.5c1.7,0,3-1.3,3-3v-5.4
			C798.7,443.2,797.4,441.9,795.7,441.9L795.7,441.9z"/>
	</g>
	<g id="XMLID_294_">
		<path id="XMLID_164_" class="st31" d="M826,444.9l-16.4,57h-5.2l16.4-57H826 M826,441.9h-5.2c-1.3,0-2.5,0.9-2.9,2.2l-16.4,57
			c-0.3,0.9-0.1,1.9,0.5,2.6c0.6,0.8,1.5,1.2,2.4,1.2h5.2c1.3,0,2.5-0.9,2.9-2.2l16.4-57c0.3-0.9,0.1-1.9-0.5-2.6
			C827.8,442.3,826.9,441.9,826,441.9L826,441.9z"/>
	</g>
	<g id="XMLID_300_">
		<path id="XMLID_160_" class="st31" d="M843.3,444.9c3.6,0,6,2.8,6,7.1v12.3c0,5,2.4,6.4,6,6.4v5.4c-3.6,0-6,1.4-6,6.4v12.3
			c0,4.3-2.4,7.1-6,7.1H835v-5.4h6.8c1.9,0,2.7-0.9,2.7-3.2v-12.9c0-4.8,1.8-6.3,4.2-7c-2.4-0.7-4.2-2.1-4.2-7v-12.9
			c0-2.3-0.8-3.2-2.7-3.2H835v-5.4H843.3 M843.3,441.9H835c-1.7,0-3,1.3-3,3v5.4c0,1.7,1.3,3,3,3h6.5c0,0.1,0,0.1,0,0.2v12.9
			c0,3,0.6,5.3,1.9,7c-1.3,1.7-1.9,4-1.9,7v12.9c0,0.1,0,0.1,0,0.2H835c-1.7,0-3,1.3-3,3v5.4c0,1.7,1.3,3,3,3h8.3
			c5.3,0,9-4.2,9-10.1v-12.3c0-2.8,0.6-3.4,3-3.4c1.7,0,3-1.3,3-3v-5.4c0-1.7-1.3-3-3-3c-2.4,0-3-0.6-3-3.4V452
			C852.3,446.1,848.6,441.9,843.3,441.9L843.3,441.9z"/>
	</g>
</g>
</svg>
