<?xml version="1.0" encoding="utf-8"?>
<!-- Generator: Adobe Illustrator 19.0.0, SVG Export Plug-In . SVG Version: 6.00 Build 0)  -->
<svg version="1.1" id="Ebene_1" xmlns="http://www.w3.org/2000/svg" xmlns:xlink="http://www.w3.org/1999/xlink" x="0px" y="0px"
	 viewBox="342 -544.1 1280 1928" style="enable-background:new 342 -544.1 1280 1928;" xml:space="preserve">
<style type="text/css">
	.st0{fill:#FFFD6B;stroke:#000000;stroke-width:3;stroke-linejoin:round;stroke-miterlimit:10;}
	.st1{fill:#FFFFFF;stroke:#000000;stroke-width:3;stroke-linejoin:round;stroke-miterlimit:10;}
	.st2{fill:none;stroke:#000000;stroke-width:3;stroke-linejoin:round;stroke-miterlimit:10;}
	.st3{fill:#FF1D25;stroke:#000000;stroke-width:3;stroke-miterlimit:10;}
	.st4{fill:#FFFFFF;}
	.st5{fill:#FF3366;}
	.st6{fill:none;stroke:#FF1D25;stroke-width:3;stroke-miterlimit:10;}
	.st7{fill:#E9CABF;stroke:#000000;stroke-width:3;stroke-linecap:round;stroke-linejoin:round;stroke-miterlimit:10;}
	.st8{fill:none;stroke:#000000;stroke-width:3;stroke-linecap:round;stroke-linejoin:round;stroke-miterlimit:10;}
	.st9{fill:none;stroke:#00FF00;stroke-width:3;stroke-linecap:round;stroke-linejoin:round;stroke-miterlimit:10;}
	.st10{fill:#808080;}
	.st11{fill:none;stroke:#A6C4D5;stroke-width:3;stroke-linecap:round;stroke-miterlimit:10;}
</style>
<g id="MUSTER">
</g>
<g id="Ebene_4">
</g>
<g>
	<polyline class="st0" points="819.2,700.7 827.9,700.7 836.8,723.7 836.8,769 765.4,769 765.4,723.7 773.8,700.7 796.3,700.7 	"/>
	<polygon class="st1" points="811.9,713 788.5,713 808.1,682.2 824.4,692.5 	"/>
	<line class="st2" x1="781.2" y1="713" x2="820.5" y2="713"/>
	<line class="st2" x1="765.4" y1="723.7" x2="836.8" y2="723.7"/>
</g>
<g>
	<path class="st1" d="M1552.8-454.2L1552.8-454.2c-7.8,0-14.2-6.4-14.2-14.2l0,0c0-7.8,6.4-14.2,14.2-14.2l0,0
		c7.8,0,14.2,6.4,14.2,14.2l0,0C1567-460.6,1560.6-454.2,1552.8-454.2z"/>
	<path class="st3" d="M1536.5-451.6c0.9,0.9,2.3,1.4,3.2,1.4c0.9,0,2.3-0.5,3.2-1.4l10-10l12,11c0.9,0.9,2.3,1.4,3.2,1.4
		c0.9,0,2.3-0.5,3.2-1.4c1.8-1.8,1.8-4.5,0-6.3l-12-11l9-10c1.8-1.8,1.8-4.5,0-6.3s-4.5-1.8-6.3,0l-9,10l-5.9-5.9
		c-1.8-1.8-4.5-1.8-6.3,0s-1.8,4.5,0,6.3l5.9,5.9l-10,10C1534.7-456.1,1534.7-453.4,1536.5-451.6z"/>
</g>
<g>
	<rect x="1180.8" y="523" class="st4" width="74.6" height="106.8"/>
	<path class="st5" d="M1194.7,545.8c0.3,0.3,0.8,0.5,1.1,0.5c0.3,0,0.8-0.2,1.1-0.5l2.1-2.1l2.1,2.1c0.3,0.3,0.8,0.5,1.1,0.5
		c0.3,0,0.8-0.2,1.1-0.5c0.6-0.6,0.6-1.6,0-2.2l-2.1-2.1l2.1-2.1c0.6-0.6,0.6-1.6,0-2.2c-0.6-0.6-1.6-0.6-2.2,0l-2.1,2.1l-2.1-2.1
		c-0.6-0.6-1.6-0.6-2.2,0c-0.6,0.6-0.6,1.6,0,2.2l2.1,2.1l-2.1,2.1C1194.1,544.2,1194.1,545.1,1194.7,545.8z"/>
	<path d="M1211.6,542.2h29.2c1,0,1.6-0.6,1.6-1.6s-0.6-1.6-1.6-1.6h-29.2c-1,0-1.6,0.6-1.6,1.6S1210.7,542.2,1211.6,542.2z"/>
	<path class="st5" d="M1194.7,563.3c0.3,0.3,0.8,0.5,1.1,0.5c0.3,0,0.8-0.2,1.1-0.5l2.1-2.1l2.1,2.1c0.3,0.3,0.8,0.5,1.1,0.5
		c0.3,0,0.8-0.2,1.1-0.5c0.6-0.6,0.6-1.6,0-2.2l-2.1-2.1l2.1-2.1c0.6-0.6,0.6-1.6,0-2.2c-0.6-0.6-1.6-0.6-2.2,0l-2.1,2.1l-2.1-2.1
		c-0.6-0.6-1.6-0.6-2.2,0c-0.6,0.6-0.6,1.6,0,2.2l2.1,2.1l-2.1,2.1C1194.1,561.6,1194.1,562.7,1194.7,563.3z"/>
	<path d="M1211.6,559.8h29.2c1,0,1.6-0.6,1.6-1.6s-0.6-1.6-1.6-1.6h-29.2c-1,0-1.6,0.6-1.6,1.6S1210.7,559.8,1211.6,559.8z"/>
	<path class="st5" d="M1194.7,580.7c0.3,0.3,0.8,0.5,1.1,0.5c0.3,0,0.8-0.2,1.1-0.5l2.1-2.1l2.1,2.1c0.3,0.3,0.8,0.5,1.1,0.5
		c0.3,0,0.8-0.2,1.1-0.5c0.6-0.6,0.6-1.6,0-2.2l-2.1-2.1l2.1-2.1c0.6-0.6,0.6-1.6,0-2.2c-0.6-0.6-1.6-0.6-2.2,0l-1.9,1.9l-2.1-2.1
		c-0.6-0.6-1.6-0.6-2.2,0c-0.6,0.6-0.6,1.6,0,2.2l2.1,2.1l-2.1,2.1C1194.1,579.1,1194.1,580.1,1194.7,580.7z"/>
	<path d="M1211.6,577.2h29.2c1,0,1.6-0.6,1.6-1.6s-0.6-1.6-1.6-1.6h-29.2c-1,0-1.6,0.6-1.6,1.6S1210.7,577.2,1211.6,577.2z"/>
	<path class="st5" d="M1194.7,598.1c0.3,0.3,0.8,0.5,1.1,0.5c0.3,0,0.8-0.2,1.1-0.5l2.1-2.1l2.1,2.1c0.3,0.3,0.8,0.5,1.1,0.5
		c0.3,0,0.8-0.2,1.1-0.5c0.6-0.6,0.6-1.6,0-2.2l-2.1-2.1l2.1-2.1c0.6-0.6,0.6-1.6,0-2.2c-0.6-0.6-1.6-0.6-2.2,0l-1.9,2.1l-2.1-2.1
		c-0.6-0.6-1.6-0.6-2.2,0c-0.6,0.6-0.6,1.6,0,2.2l2.1,2.1l-2.1,2.1C1194.1,596.5,1194.1,597.5,1194.7,598.1z"/>
	<path d="M1211.6,594.6h29.2c1,0,1.6-0.6,1.6-1.6s-0.6-1.6-1.6-1.6h-29.2c-1,0-1.6,0.6-1.6,1.6S1210.7,594.6,1211.6,594.6z"/>
	<path class="st5" d="M1194.7,615.7c0.3,0.3,0.8,0.5,1.1,0.5c0.3,0,0.8-0.2,1.1-0.5l2.1-2.1l2.1,2.1c0.3,0.3,0.8,0.5,1.1,0.5
		c0.3,0,0.8-0.2,1.1-0.5c0.6-0.6,0.6-1.6,0-2.2l-2.1-2.1l2.1-2.1c0.6-0.6,0.6-1.6,0-2.2c-0.6-0.6-1.6-0.6-2.2,0l-2.1,2.1l-2.1-2.1
		c-0.6-0.6-1.6-0.6-2.2,0c-0.6,0.6-0.6,1.6,0,2.2l2.1,2.1l-2.1,2.1C1194.1,613.9,1194.1,615,1194.7,615.7z"/>
	<path d="M1211.6,612.1h29.2c1,0,1.6-0.6,1.6-1.6s-0.6-1.6-1.6-1.6h-29.2c-1,0-1.6,0.6-1.6,1.6S1210.7,612.1,1211.6,612.1z"/>
</g>
<g>
	<circle class="st6" cx="441.9" cy="-82.5" r="45.9"/>
	<line class="st6" x1="412.4" y1="-48.7" x2="441.9" y2="-82.5"/>
	<line class="st6" x1="441.9" y1="-82.5" x2="441.9" y2="-128.4"/>
	<line class="st6" x1="484.5" y1="-97.8" x2="441.9" y2="-82.5"/>
	<line class="st6" x1="479" y1="-56.3" x2="441.9" y2="-82.5"/>
</g>
<g>
	<path class="st7" d="M732.2-65.3c0-3.4,2.7-6.1,6.1-6.1c3.4,0,6.1,2.7,6.1,6.1V-47c0-3.4,2.7-6.1,6.1-6.1c3.4,0,6.1,2.7,6.1,6.1
		v3.8c0-3.4,2.7-6.1,6.1-6.1c3.4,0,6.1,2.7,6.1,6.1v3.8c0-3.4,2.7-6.1,6.1-6.1c3.4,0,6.1,2.7,6.1,6.1v0.4v29.8l-8,14.5v11.4h-35.1
		l-0.4-9.5c0,0-15.1-24.9-23.7-34.3c-1.1-1.3-0.4-5.9,2.3-6.9s10.1-0.3,16,8.6v-38.4L732.2-65.3L732.2-65.3z"/>
	<line class="st8" x1="744.4" y1="-32.5" x2="744.4" y2="-47"/>
	<line class="st8" x1="756.6" y1="-31.7" x2="756.6" y2="-43.2"/>
	<line class="st8" x1="768.8" y1="-28.3" x2="768.8" y2="-39.7"/>
	<path class="st9" d="M725.3-54.6c-2.4-2.9-3.8-6.6-3.8-10.7c0-9.3,7.5-16.8,16.8-16.8s16.8,7.5,16.8,16.8c0,2.3-0.5,4.5-1.3,6.5"/>
	<path class="st9" d="M720.8-51.7c-3-3.8-4.8-8.6-4.8-13.8c0-12.3,10-22.3,22.3-22.3s22.3,10,22.3,22.3c0,3.1-0.6,6-1.7,8.7"/>
</g>
<g>
	<path class="st1" d="M1471.8,233.2L1471.8,233.2c-7.8,0-14.2-6.4-14.2-14.2l0,0c0-7.8,6.4-14.2,14.2-14.2l0,0
		c7.8,0,14.2,6.4,14.2,14.2l0,0C1486,226.8,1479.6,233.2,1471.8,233.2z"/>
	<path class="st3" d="M1455.5,235.8c0.9,0.9,2.3,1.4,3.2,1.4c0.9,0,2.3-0.5,3.2-1.4l10-10l12,11c0.9,0.9,2.3,1.4,3.2,1.4
		c0.9,0,2.3-0.5,3.2-1.4c1.8-1.8,1.8-4.5,0-6.3l-12-11l9-10c1.8-1.8,1.8-4.5,0-6.3s-4.5-1.8-6.3,0l-9,10l-5.9-5.9
		c-1.8-1.8-4.5-1.8-6.3,0s-1.8,4.5,0,6.3l5.9,5.9l-10,10C1453.7,231.3,1453.7,234,1455.5,235.8z"/>
</g>
<g>
	<rect x="1167.8" y="-208.5" class="st4" width="74.6" height="106.8"/>
	<path class="st5" d="M1181.7-185.7c0.3,0.3,0.8,0.5,1.1,0.5c0.3,0,0.8-0.2,1.1-0.5l2.1-2.1l2.1,2.1c0.3,0.3,0.8,0.5,1.1,0.5
		c0.3,0,0.8-0.2,1.1-0.5c0.6-0.6,0.6-1.6,0-2.2l-2.1-2.1l2.1-2.1c0.6-0.6,0.6-1.6,0-2.2c-0.6-0.6-1.6-0.6-2.2,0l-2.1,2.1l-2.1-2.1
		c-0.6-0.6-1.6-0.6-2.2,0c-0.6,0.6-0.6,1.6,0,2.2l2.1,2.1l-2.1,2.1C1181.1-187.3,1181.1-186.4,1181.7-185.7z"/>
	<path d="M1198.6-189.2h29.2c1,0,1.6-0.6,1.6-1.6s-0.6-1.6-1.6-1.6h-29.2c-1,0-1.6,0.6-1.6,1.6
		C1197-189.9,1197.7-189.2,1198.6-189.2z"/>
	<path class="st5" d="M1181.7-168.2c0.3,0.3,0.8,0.5,1.1,0.5c0.3,0,0.8-0.2,1.1-0.5l2.1-2.1l2.1,2.1c0.3,0.3,0.8,0.5,1.1,0.5
		c0.3,0,0.8-0.2,1.1-0.5c0.6-0.6,0.6-1.6,0-2.2l-2.1-2.1l2.1-2.1c0.6-0.6,0.6-1.6,0-2.2c-0.6-0.6-1.6-0.6-2.2,0l-2.1,2.1l-2.1-2.1
		c-0.6-0.6-1.6-0.6-2.2,0c-0.6,0.6-0.6,1.6,0,2.2l2.1,2.1l-2.1,2.1C1181.1-169.9,1181.1-168.8,1181.7-168.2z"/>
	<path d="M1198.6-171.7h29.2c1,0,1.6-0.6,1.6-1.6s-0.6-1.6-1.6-1.6h-29.2c-1,0-1.6,0.6-1.6,1.6S1197.7-171.7,1198.6-171.7z"/>
	<path class="st5" d="M1181.7-150.8c0.3,0.3,0.8,0.5,1.1,0.5c0.3,0,0.8-0.2,1.1-0.5l2.1-2.1l2.1,2.1c0.3,0.3,0.8,0.5,1.1,0.5
		c0.3,0,0.8-0.2,1.1-0.5c0.6-0.6,0.6-1.6,0-2.2l-2.1-2.1l2.1-2.1c0.6-0.6,0.6-1.6,0-2.2c-0.6-0.6-1.6-0.6-2.2,0l-1.9,1.9l-2.1-2.1
		c-0.6-0.6-1.6-0.6-2.2,0c-0.6,0.6-0.6,1.6,0,2.2l2.1,2.1l-2.1,2.1C1181.1-152.4,1181.1-151.4,1181.7-150.8z"/>
	<path d="M1198.6-154.3h29.2c1,0,1.6-0.6,1.6-1.6s-0.6-1.6-1.6-1.6h-29.2c-1,0-1.6,0.6-1.6,1.6
		C1197-154.9,1197.7-154.3,1198.6-154.3z"/>
	<path class="st5" d="M1181.7-133.4c0.3,0.3,0.8,0.5,1.1,0.5c0.3,0,0.8-0.2,1.1-0.5l2.1-2.1l2.1,2.1c0.3,0.3,0.8,0.5,1.1,0.5
		c0.3,0,0.8-0.2,1.1-0.5c0.6-0.6,0.6-1.6,0-2.2l-2.1-2.1l2.1-2.1c0.6-0.6,0.6-1.6,0-2.2c-0.6-0.6-1.6-0.6-2.2,0l-1.9,2.1l-2.1-2.1
		c-0.6-0.6-1.6-0.6-2.2,0c-0.6,0.6-0.6,1.6,0,2.2l2.1,2.1l-2.1,2.1C1181.1-135,1181.1-134,1181.7-133.4z"/>
	<path d="M1198.6-136.9h29.2c1,0,1.6-0.6,1.6-1.6s-0.6-1.6-1.6-1.6h-29.2c-1,0-1.6,0.6-1.6,1.6S1197.7-136.9,1198.6-136.9z"/>
	<path class="st5" d="M1181.7-115.8c0.3,0.3,0.8,0.5,1.1,0.5c0.3,0,0.8-0.2,1.1-0.5l2.1-2.1l2.1,2.1c0.3,0.3,0.8,0.5,1.1,0.5
		c0.3,0,0.8-0.2,1.1-0.5c0.6-0.6,0.6-1.6,0-2.2l-2.1-2.1l2.1-2.1c0.6-0.6,0.6-1.6,0-2.2c-0.6-0.6-1.6-0.6-2.2,0l-2.1,2.1l-2.1-2.1
		c-0.6-0.6-1.6-0.6-2.2,0c-0.6,0.6-0.6,1.6,0,2.2l2.1,2.1l-2.1,2.1C1181.1-117.6,1181.1-116.5,1181.7-115.8z"/>
	<path d="M1198.6-119.3h29.2c1,0,1.6-0.6,1.6-1.6s-0.6-1.6-1.6-1.6h-29.2c-1,0-1.6,0.6-1.6,1.6C1197-120,1197.7-119.3,1198.6-119.3z
		"/>
</g>
<g>
	<g>
		<g>
			<g>
				<path class="st10" d="M934.3,1253.4h5.1v2.5c0,1.8-0.1,3.6-0.3,5.4l-0.3,2.5l-5.1-0.6l0.3-2.5c0.2-1.6,0.3-3.2,0.3-4.8V1253.4z"
					/>
			</g>
			<g>
				<path class="st10" d="M932.5,1267.7l4.7,1.9l-1,2.4c-1.4,3.4-3.2,6.6-5.5,9.5l-1.6,2l-4-3.1l1.6-2c2-2.6,3.6-5.4,4.8-8.3
					L932.5,1267.7z M862.4,1267.7l1,2.4c1.2,3,2.9,5.8,4.8,8.3l1.6,2l-4,3.1l-1.6-2c-2.2-2.9-4.1-6.1-5.5-9.5l-1-2.4L862.4,1267.7z
					 M921.9,1283.6l3.1,4l-2,1.6c-2.9,2.2-6.1,4.1-9.5,5.5l-2.4,1l-2-4.7l2.4-1c3-1.2,5.8-2.9,8.3-4.8L921.9,1283.6z M873,1283.7
					l2,1.6c2.6,2,5.4,3.6,8.3,4.8l2.4,1l-1.9,4.7l-2.4-1c-3.4-1.4-6.6-3.2-9.5-5.5l-2-1.6L873,1283.7z M904.8,1292.2l0.7,5.1
					l-2.5,0.3c-3.6,0.5-7.3,0.5-10.9,0l-2.5-0.3l0.7-5.1l2.5,0.3c3.2,0.4,6.5,0.4,9.6,0L904.8,1292.2z"/>
			</g>
			<g>
				<path class="st10" d="M855.5,1253.4h5.1v2.5c0,1.6,0.1,3.2,0.3,4.8l0.3,2.5l-5.1,0.6l-0.3-2.5c-0.2-1.8-0.3-3.6-0.3-5.4V1253.4z
					"/>
			</g>
		</g>
		<g>
			<g>
				<path class="st10" d="M944,1253.4h5.1v2.5c0,1.8-0.1,3.6-0.3,5.4l-0.3,2.5l-5.1-0.5l0.3-2.5c0.2-1.6,0.2-3.2,0.2-4.8L944,1253.4
					L944,1253.4z"/>
			</g>
			<g>
				<path class="st10" d="M942.6,1267.3l4.9,1.5l-0.8,2.4c-1,3.2-2.3,6.3-3.9,9.3l-1.2,2.2l-4.5-2.4l1.2-2.2
					c1.4-2.7,2.6-5.5,3.5-8.4L942.6,1267.3z M852.3,1267.3l0.8,2.4c0.9,2.9,2.1,5.7,3.5,8.4l1.2,2.2l-4.5,2.4l-1.2-2.2
					c-1.6-3-2.9-6.1-3.9-9.3l-0.8-2.4L852.3,1267.3z M934.9,1283.6l3.9,3.2l-1.6,2c-2.1,2.6-4.5,5-7.1,7.1l-2,1.6l-3.2-3.9l2-1.6
					c2.3-1.9,4.5-4.1,6.4-6.4L934.9,1283.6z M860,1283.7l1.6,2c1.9,2.3,4.1,4.5,6.4,6.4l2,1.6l-3.2,4l-2-1.6c-2.6-2.1-5-4.5-7.2-7.1
					l-1.6-2L860,1283.7z M921.6,1295.8l2.4,4.5l-2.2,1.2c-3,1.6-6.1,2.9-9.3,3.8l-2.4,0.7l-1.5-4.9l2.4-0.7c2.9-0.9,5.7-2,8.4-3.5
					L921.6,1295.8z M873.4,1295.9l2.3,1.2c2.7,1.4,5.5,2.6,8.4,3.5l2.4,0.7l-1.5,4.9l-2.4-0.7c-3.2-1-6.3-2.3-9.3-3.8l-2.3-1.2
					L873.4,1295.9z M904.6,1302l0.5,5.1l-2.5,0.2c-3.3,0.3-6.7,0.3-10.1,0l-2.5-0.2l0.5-5.1l2.5,0.2c3,0.3,6.1,0.3,9.1,0L904.6,1302
					z"/>
			</g>
			<g>
				<path class="st10" d="M845.8,1253.4h5.1v2.5c0,1.6,0.1,3.2,0.2,4.8l0.3,2.5l-5.1,0.5l-0.3-2.5c-0.2-1.8-0.3-3.6-0.3-5.4
					L845.8,1253.4L845.8,1253.4z"/>
			</g>
		</g>
		<g>
			<g>
				<path class="st10" d="M817.8,1253.4h5.1v2.5c0,1.6,0.1,3.3,0.2,4.9l0.2,2.5l-5.1,0.3l-0.2-2.5c-0.1-1.7-0.2-3.5-0.2-5.3V1253.4z
					"/>
			</g>
			<g>
				<path class="st10" d="M823.8,1268.1l0.5,2.5c0.6,3.2,1.5,6.4,2.5,9.4l0.8,2.4l-4.8,1.6l-0.8-2.4c-1.1-3.3-2-6.7-2.7-10.1
					l-0.5-2.5L823.8,1268.1z M971,1268.2l5,1l-0.5,2.5c-0.7,3.4-1.6,6.8-2.7,10.1l-0.8,2.4l-4.8-1.6l0.8-2.4c1-3.1,1.9-6.2,2.5-9.4
					L971,1268.2z M829.5,1286.7l1.1,2.3c1.4,2.9,3.1,5.7,4.9,8.4l1.4,2.1l-4.2,2.8l-1.4-2.1c-1.9-2.9-3.7-5.9-5.2-9l-1.1-2.3
					L829.5,1286.7z M965.4,1286.8l4.6,2.3l-1.1,2.3c-1.5,3.1-3.3,6.1-5.2,9l-1.4,2.1l-4.2-2.8l1.4-2.1c1.8-2.7,3.5-5.5,4.9-8.4
					L965.4,1286.8z M839.7,1303.2l1.7,1.9c2.1,2.4,4.5,4.8,6.9,6.9l1.9,1.7l-3.4,3.8l-1.9-1.7c-2.6-2.3-5.1-4.8-7.4-7.4l-1.7-1.9
					L839.7,1303.2z M955.1,1303.3l3.8,3.4l-1.7,1.9c-2.3,2.6-4.8,5.1-7.4,7.3l-1.9,1.7l-3.4-3.8l1.9-1.7c2.4-2.1,4.8-4.4,6.9-6.9
					L955.1,1303.3z M853.9,1316.5l2.1,1.4c2.7,1.8,5.5,3.4,8.4,4.9l2.3,1.1l-2.3,4.6l-2.3-1.1c-3.1-1.5-6.1-3.3-9-5.2l-2.1-1.4
					L853.9,1316.5z M940.9,1316.6l2.8,4.2l-2.1,1.4c-2.9,1.9-5.9,3.7-9,5.2l-2.3,1.1l-2.3-4.6l2.3-1.1c2.9-1.4,5.7-3.1,8.4-4.9
					L940.9,1316.6z M871,1325.8l2.4,0.8c3.1,1,6.2,1.9,9.4,2.5l2.5,0.5l-1,5l-2.5-0.5c-3.4-0.7-6.8-1.6-10.1-2.7l-2.4-0.8
					L871,1325.8z M923.8,1325.8l1.6,4.8l-2.4,0.8c-3.3,1.1-6.7,2-10.1,2.7l-2.5,0.5l-1-5l2.5-0.5c3.2-0.6,6.4-1.5,9.4-2.5
					L923.8,1325.8z M890,1330.2l2.5,0.2c3.2,0.2,6.5,0.2,9.7,0l2.5-0.2l0.3,5.1l-2.5,0.2c-3.4,0.2-6.9,0.2-10.4,0l-2.5-0.2
					L890,1330.2z"/>
			</g>
			<g>
				<path class="st10" d="M972,1253.4h5.1v2.5c0,1.7-0.1,3.5-0.2,5.3l-0.2,2.5l-5.1-0.3l0.2-2.5c0.1-1.6,0.2-3.3,0.2-4.9V1253.4z"/>
			</g>
		</g>
		<g>
			<g>
				<path class="st10" d="M826.7,1253.4h5.1v2.5c0,1.6,0.1,3.3,0.2,4.9l0.2,2.5l-5.1,0.4l-0.2-2.5c-0.1-1.7-0.2-3.5-0.2-5.3V1253.4z
					"/>
			</g>
			<g>
				<path class="st10" d="M832.8,1267.6l0.5,2.5c0.7,3,1.6,6,2.7,9l0.9,2.4l-4.8,1.8l-0.9-2.4c-1.2-3.1-2.1-6.4-2.9-9.7l-0.5-2.5
					L832.8,1267.6z M962.1,1267.7l5,1.1l-0.6,2.5c-0.7,3.3-1.7,6.5-2.9,9.6l-0.9,2.4l-4.8-1.8l0.9-2.4c1.1-2.9,2-5.9,2.7-8.9
					L962.1,1267.7z M838.7,1285.3l1.2,2.2c1.5,2.7,3.2,5.4,5.1,7.8l1.5,2l-4.1,3.1l-1.5-2c-2-2.7-3.9-5.5-5.5-8.5l-1.2-2.2
					L838.7,1285.3z M956.2,1285.4l4.5,2.5l-1.2,2.2c-1.6,2.9-3.5,5.8-5.5,8.4l-1.5,2l-4.1-3.1l1.5-2c1.9-2.5,3.6-5.1,5.1-7.8
					L956.2,1285.4z M849.3,1300.6l1.8,1.8c2.2,2.2,4.6,4.3,7.1,6.1l2,1.5l-3.1,4.1l-2-1.5c-2.7-2-5.2-4.2-7.6-6.6l-1.8-1.8
					L849.3,1300.6z M945.5,1300.7l3.6,3.6l-1.8,1.8c-2.4,2.4-4.9,4.6-7.6,6.6l-2,1.5l-3-4.1l2-1.5c2.5-1.9,4.9-3.9,7.1-6.1
					L945.5,1300.7z M863.8,1312.4l2.2,1.2c2.7,1.5,5.6,2.8,8.5,3.9l2.4,0.9l-1.8,4.8l-2.4-0.9c-3.1-1.2-6.2-2.6-9.2-4.2l-2.2-1.2
					L863.8,1312.4z M931,1312.4l2.4,4.5l-2.2,1.2c-2.9,1.6-6,3-9.2,4.2l-2.4,0.9l-1.8-4.8l2.4-0.9c2.9-1.1,5.8-2.4,8.5-3.9
					L931,1312.4z M881,1319.6l2.5,0.5c3,0.7,6.1,1.1,9.2,1.3l2.5,0.2l-0.4,5.1l-2.5-0.2c-3.3-0.2-6.7-0.7-10-1.4l-2.5-0.5
					L881,1319.6z M913.8,1319.6l1.1,5l-2.5,0.5c-3.3,0.7-6.6,1.2-10,1.4l-2.5,0.2l-0.4-5.1l2.5-0.2c3.1-0.2,6.2-0.7,9.2-1.3
					L913.8,1319.6z"/>
			</g>
			<g>
				<path class="st10" d="M963.1,1253.4h5.1v2.5c0,1.8-0.1,3.5-0.2,5.3l-0.2,2.5l-5.1-0.4l0.2-2.5c0.1-1.6,0.2-3.3,0.2-4.9V1253.4z"
					/>
			</g>
		</g>
		<g>
			<g>
				<path class="st10" d="M836.3,1253.4h5.1v2.5c0,1.6,0.1,3.3,0.2,4.9l0.2,2.5l-5.1,0.4l-0.2-2.5c-0.2-1.8-0.2-3.5-0.2-5.3V1253.4z
					"/>
			</g>
			<g>
				<path class="st10" d="M842.6,1268l0.7,2.5c0.8,3.1,2,6.2,3.3,9.2l1.1,2.3l-4.6,2.2l-1.1-2.3c-1.5-3.2-2.7-6.6-3.6-10l-0.7-2.5
					L842.6,1268z M952.3,1268.1l4.9,1.3l-0.7,2.5c-0.9,3.4-2.2,6.8-3.7,10l-1.1,2.3l-4.6-2.2l1.1-2.3c1.4-2.9,2.5-6,3.4-9.2
					L952.3,1268.1z M850,1286l1.5,2.1c1.9,2.7,4,5.2,6.3,7.5l1.8,1.8l-3.6,3.6l-1.8-1.8c-2.5-2.5-4.8-5.3-6.9-8.2l-1.5-2.1L850,1286
					z M944.8,1286.1l4.2,2.9l-1.5,2.1c-2,2.9-4.3,5.6-6.9,8.2l-1.8,1.8l-3.6-3.6l1.8-1.8c2.3-2.3,4.4-4.8,6.3-7.5L944.8,1286.1z
					 M863.2,1300.4l2.1,1.5c2.7,1.9,5.5,3.5,8.5,4.9l2.3,1.1l-2.2,4.6l-2.3-1.1c-3.2-1.5-6.3-3.3-9.2-5.3l-2.1-1.5L863.2,1300.4z
					 M931.6,1300.5l2.9,4.2l-2.1,1.5c-2.9,2-6,3.8-9.2,5.3l-2.3,1.1l-2.2-4.6l2.3-1.1c2.9-1.4,5.8-3,8.5-4.9L931.6,1300.5z
					 M880.4,1309.5l2.5,0.7c3.1,0.8,6.4,1.4,9.6,1.7l2.5,0.2l-0.4,5.1l-2.5-0.2c-3.5-0.3-7.1-0.9-10.5-1.8l-2.5-0.7L880.4,1309.5z
					 M914.4,1309.5l1.3,4.9l-2.5,0.7c-3.4,0.9-7,1.5-10.5,1.8l-2.5,0.2l-0.4-5.1l2.5-0.2c3.3-0.3,6.5-0.8,9.6-1.7L914.4,1309.5z"/>
			</g>
			<g>
				<path class="st10" d="M953.5,1253.4h5.1v2.5c0,1.8-0.1,3.6-0.2,5.3l-0.2,2.5l-5.1-0.4l0.2-2.5c0.1-1.6,0.2-3.3,0.2-4.9V1253.4z"
					/>
			</g>
		</g>
	</g>
	<g>
		<rect x="845.4" y="1214.3" class="st11" width="104.2" height="5.1"/>
		<polygon class="st11" points="948.6,1142.7 846.4,1142.7 846.4,1139.8 897.6,1128.9 948.6,1139.8 		"/>
		<polygon class="st11" points="948.6,1152.9 948.6,1147.7 846.4,1147.7 846.4,1152.9 854.5,1152.9 854.5,1203.8 850.1,1203.8 
			850.1,1208.9 877.7,1208.9 877.7,1203.8 873.4,1203.8 873.4,1152.9 888,1152.9 888,1203.8 883.6,1203.8 883.6,1208.9 
			911.3,1208.9 911.3,1203.8 906.9,1203.8 906.9,1152.9 921.5,1152.9 921.5,1203.8 917.1,1203.8 917.1,1208.9 944.8,1208.9 
			944.8,1203.8 940.4,1203.8 940.4,1152.9 		"/>
	</g>
</g>
</svg>
