<svg id="Ebene_1" xmlns="http://www.w3.org/2000/svg" viewBox="342 -544.1 1280 1928"><style>.st0,.st1{stroke-linejoin:round}.st0{stroke:#000;stroke-width:3;stroke-miterlimit:10;fill:#fffd6b}.st1{fill:#fff}.st1,.st2,.st3{stroke:#000;stroke-width:3;stroke-miterlimit:10}.st2{stroke-linejoin:round;fill:none}.st3{fill:#ff1d25}.st4{fill:#fff}.st5{fill:#f36}.st6,.st7,.st8,.st9{fill:none;stroke:#ff1d25;stroke-width:3;stroke-miterlimit:10}.st7,.st8,.st9{fill:#e9cabf;stroke:#000;stroke-linecap:round;stroke-linejoin:round}.st8,.st9{fill:none}.st9{stroke:#0f0}.st10{fill:gray}.st11{fill:none;stroke:#a6c4d5;stroke-width:3;stroke-linecap:round;stroke-miterlimit:10}</style><path class="st0" d="M819.2 700.7h8.7l8.9 23V769h-71.4v-45.3l8.4-23h22.5"/><path class="st1" d="M811.9 713h-23.4l19.6-30.8 16.3 10.3z"/><path class="st2" d="M781.2 713h39.3M765.4 723.7h71.4"/><path class="st1" d="M1552.8-454.2c-7.8 0-14.2-6.4-14.2-14.2 0-7.8 6.4-14.2 14.2-14.2 7.8 0 14.2 6.4 14.2 14.2 0 7.8-6.4 14.2-14.2 14.2z"/><path class="st3" d="M1536.5-451.6c.9.9 2.3 1.4 3.2 1.4.9 0 2.3-.5 3.2-1.4l10-10 12 11c.9.9 2.3 1.4 3.2 1.4.9 0 2.3-.5 3.2-1.4 1.8-1.8 1.8-4.5 0-6.3l-12-11 9-10c1.8-1.8 1.8-4.5 0-6.3s-4.5-1.8-6.3 0l-9 10-5.9-5.9c-1.8-1.8-4.5-1.8-6.3 0s-1.8 4.5 0 6.3l5.9 5.9-10 10c-2 1.8-2 4.5-.2 6.3z"/><path class="st4" d="M1180.8 523h74.6v106.8h-74.6z"/><path class="st5" d="M1194.7 545.8c.3.3.8.5 1.1.5.3 0 .8-.2 1.1-.5l2.1-2.1 2.1 2.1c.3.3.8.5 1.1.5.3 0 .8-.2 1.1-.5.6-.6.6-1.6 0-2.2l-2.1-2.1 2.1-2.1c.6-.6.6-1.6 0-2.2-.6-.6-1.6-.6-2.2 0l-2.1 2.1-2.1-2.1c-.6-.6-1.6-.6-2.2 0-.6.6-.6 1.6 0 2.2l2.1 2.1-2.1 2.1c-.6.6-.6 1.5 0 2.2z"/><path d="M1211.6 542.2h29.2c1 0 1.6-.6 1.6-1.6s-.6-1.6-1.6-1.6h-29.2c-1 0-1.6.6-1.6 1.6s.7 1.6 1.6 1.6z"/><path class="st5" d="M1194.7 563.3c.3.3.8.5 1.1.5.3 0 .8-.2 1.1-.5l2.1-2.1 2.1 2.1c.3.3.8.5 1.1.5.3 0 .8-.2 1.1-.5.6-.6.6-1.6 0-2.2l-2.1-2.1 2.1-2.1c.6-.6.6-1.6 0-2.2-.6-.6-1.6-.6-2.2 0l-2.1 2.1-2.1-2.1c-.6-.6-1.6-.6-2.2 0-.6.6-.6 1.6 0 2.2l2.1 2.1-2.1 2.1c-.6.5-.6 1.6 0 2.2z"/><path d="M1211.6 559.8h29.2c1 0 1.6-.6 1.6-1.6s-.6-1.6-1.6-1.6h-29.2c-1 0-1.6.6-1.6 1.6s.7 1.6 1.6 1.6z"/><path class="st5" d="M1194.7 580.7c.3.3.8.5 1.1.5.3 0 .8-.2 1.1-.5l2.1-2.1 2.1 2.1c.3.3.8.5 1.1.5.3 0 .8-.2 1.1-.5.6-.6.6-1.6 0-2.2l-2.1-2.1 2.1-2.1c.6-.6.6-1.6 0-2.2-.6-.6-1.6-.6-2.2 0l-1.9 1.9-2.1-2.1c-.6-.6-1.6-.6-2.2 0-.6.6-.6 1.6 0 2.2l2.1 2.1-2.1 2.1c-.8.8-.8 1.8-.2 2.4z"/><path d="M1211.6 577.2h29.2c1 0 1.6-.6 1.6-1.6s-.6-1.6-1.6-1.6h-29.2c-1 0-1.6.6-1.6 1.6s.7 1.6 1.6 1.6z"/><path class="st5" d="M1194.7 598.1c.3.3.8.5 1.1.5.3 0 .8-.2 1.1-.5l2.1-2.1 2.1 2.1c.3.3.8.5 1.1.5.3 0 .8-.2 1.1-.5.6-.6.6-1.6 0-2.2l-2.1-2.1 2.1-2.1c.6-.6.6-1.6 0-2.2-.6-.6-1.6-.6-2.2 0l-1.9 2.1-2.1-2.1c-.6-.6-1.6-.6-2.2 0-.6.6-.6 1.6 0 2.2l2.1 2.1-2.1 2.1c-.8.6-.8 1.6-.2 2.2z"/><path d="M1211.6 594.6h29.2c1 0 1.6-.6 1.6-1.6s-.6-1.6-1.6-1.6h-29.2c-1 0-1.6.6-1.6 1.6s.7 1.6 1.6 1.6z"/><path class="st5" d="M1194.7 615.7c.3.3.8.5 1.1.5.3 0 .8-.2 1.1-.5l2.1-2.1 2.1 2.1c.3.3.8.5 1.1.5.3 0 .8-.2 1.1-.5.6-.6.6-1.6 0-2.2l-2.1-2.1 2.1-2.1c.6-.6.6-1.6 0-2.2-.6-.6-1.6-.6-2.2 0l-2.1 2.1-2.1-2.1c-.6-.6-1.6-.6-2.2 0-.6.6-.6 1.6 0 2.2l2.1 2.1-2.1 2.1c-.6.4-.6 1.5 0 2.2z"/><path d="M1211.6 612.1h29.2c1 0 1.6-.6 1.6-1.6s-.6-1.6-1.6-1.6h-29.2c-1 0-1.6.6-1.6 1.6s.7 1.6 1.6 1.6z"/><g><circle class="st6" cx="441.9" cy="-82.5" r="45.9"/><path class="st6" d="M412.4-48.7l29.5-33.8M441.9-82.5v-45.9M484.5-97.8l-42.6 15.3M479-56.3l-37.1-26.2"/></g><g><path class="st7" d="M732.2-65.3c0-3.4 2.7-6.1 6.1-6.1 3.4 0 6.1 2.7 6.1 6.1V-47c0-3.4 2.7-6.1 6.1-6.1 3.4 0 6.1 2.7 6.1 6.1v3.8c0-3.4 2.7-6.1 6.1-6.1 3.4 0 6.1 2.7 6.1 6.1v3.8c0-3.4 2.7-6.1 6.1-6.1 3.4 0 6.1 2.7 6.1 6.1v30.2l-8 14.5v11.4h-35.1l-.4-9.5s-15.1-24.9-23.7-34.3c-1.1-1.3-.4-5.9 2.3-6.9s10.1-.3 16 8.6v-38.4l.1-1.5z"/><path class="st8" d="M744.4-32.5V-47M756.6-31.7v-11.5M768.8-28.3v-11.4"/><path class="st9" d="M725.3-54.6c-2.4-2.9-3.8-6.6-3.8-10.7 0-9.3 7.5-16.8 16.8-16.8s16.8 7.5 16.8 16.8c0 2.3-.5 4.5-1.3 6.5"/><path class="st9" d="M720.8-51.7c-3-3.8-4.8-8.6-4.8-13.8 0-12.3 10-22.3 22.3-22.3s22.3 10 22.3 22.3c0 3.1-.6 6-1.7 8.7"/></g><g><path class="st1" d="M1471.8 233.2c-7.8 0-14.2-6.4-14.2-14.2 0-7.8 6.4-14.2 14.2-14.2 7.8 0 14.2 6.4 14.2 14.2 0 7.8-6.4 14.2-14.2 14.2z"/><path class="st3" d="M1455.5 235.8c.9.9 2.3 1.4 3.2 1.4.9 0 2.3-.5 3.2-1.4l10-10 12 11c.9.9 2.3 1.4 3.2 1.4.9 0 2.3-.5 3.2-1.4 1.8-1.8 1.8-4.5 0-6.3l-12-11 9-10c1.8-1.8 1.8-4.5 0-6.3s-4.5-1.8-6.3 0l-9 10-5.9-5.9c-1.8-1.8-4.5-1.8-6.3 0s-1.8 4.5 0 6.3l5.9 5.9-10 10c-2 1.8-2 4.5-.2 6.3z"/></g><g><path class="st4" d="M1167.8-208.5h74.6v106.8h-74.6z"/><path class="st5" d="M1181.7-185.7c.3.3.8.5 1.1.5.3 0 .8-.2 1.1-.5l2.1-2.1 2.1 2.1c.3.3.8.5 1.1.5.3 0 .8-.2 1.1-.5.6-.6.6-1.6 0-2.2l-2.1-2.1 2.1-2.1c.6-.6.6-1.6 0-2.2-.6-.6-1.6-.6-2.2 0l-2.1 2.1-2.1-2.1c-.6-.6-1.6-.6-2.2 0-.6.6-.6 1.6 0 2.2l2.1 2.1-2.1 2.1c-.6.6-.6 1.5 0 2.2z"/><path d="M1198.6-189.2h29.2c1 0 1.6-.6 1.6-1.6s-.6-1.6-1.6-1.6h-29.2c-1 0-1.6.6-1.6 1.6 0 .9.7 1.6 1.6 1.6z"/><path class="st5" d="M1181.7-168.2c.3.3.8.5 1.1.5.3 0 .8-.2 1.1-.5l2.1-2.1 2.1 2.1c.3.3.8.5 1.1.5.3 0 .8-.2 1.1-.5.6-.6.6-1.6 0-2.2l-2.1-2.1 2.1-2.1c.6-.6.6-1.6 0-2.2-.6-.6-1.6-.6-2.2 0l-2.1 2.1-2.1-2.1c-.6-.6-1.6-.6-2.2 0-.6.6-.6 1.6 0 2.2l2.1 2.1-2.1 2.1c-.6.5-.6 1.6 0 2.2z"/><path d="M1198.6-171.7h29.2c1 0 1.6-.6 1.6-1.6s-.6-1.6-1.6-1.6h-29.2c-1 0-1.6.6-1.6 1.6s.7 1.6 1.6 1.6z"/><path class="st5" d="M1181.7-150.8c.3.3.8.5 1.1.5.3 0 .8-.2 1.1-.5l2.1-2.1 2.1 2.1c.3.3.8.5 1.1.5.3 0 .8-.2 1.1-.5.6-.6.6-1.6 0-2.2l-2.1-2.1 2.1-2.1c.6-.6.6-1.6 0-2.2-.6-.6-1.6-.6-2.2 0l-1.9 1.9-2.1-2.1c-.6-.6-1.6-.6-2.2 0-.6.6-.6 1.6 0 2.2l2.1 2.1-2.1 2.1c-.8.8-.8 1.8-.2 2.4z"/><path d="M1198.6-154.3h29.2c1 0 1.6-.6 1.6-1.6s-.6-1.6-1.6-1.6h-29.2c-1 0-1.6.6-1.6 1.6s.7 1.6 1.6 1.6z"/><path class="st5" d="M1181.7-133.4c.3.3.8.5 1.1.5.3 0 .8-.2 1.1-.5l2.1-2.1 2.1 2.1c.3.3.8.5 1.1.5.3 0 .8-.2 1.1-.5.6-.6.6-1.6 0-2.2l-2.1-2.1 2.1-2.1c.6-.6.6-1.6 0-2.2-.6-.6-1.6-.6-2.2 0l-1.9 2.1-2.1-2.1c-.6-.6-1.6-.6-2.2 0-.6.6-.6 1.6 0 2.2l2.1 2.1-2.1 2.1c-.8.6-.8 1.6-.2 2.2z"/><path d="M1198.6-136.9h29.2c1 0 1.6-.6 1.6-1.6s-.6-1.6-1.6-1.6h-29.2c-1 0-1.6.6-1.6 1.6s.7 1.6 1.6 1.6z"/><path class="st5" d="M1181.7-115.8c.3.3.8.5 1.1.5.3 0 .8-.2 1.1-.5l2.1-2.1 2.1 2.1c.3.3.8.5 1.1.5.3 0 .8-.2 1.1-.5.6-.6.6-1.6 0-2.2l-2.1-2.1 2.1-2.1c.6-.6.6-1.6 0-2.2-.6-.6-1.6-.6-2.2 0l-2.1 2.1-2.1-2.1c-.6-.6-1.6-.6-2.2 0-.6.6-.6 1.6 0 2.2l2.1 2.1-2.1 2.1c-.6.4-.6 1.5 0 2.2z"/><path d="M1198.6-119.3h29.2c1 0 1.6-.6 1.6-1.6s-.6-1.6-1.6-1.6h-29.2c-1 0-1.6.6-1.6 1.6 0 .9.7 1.6 1.6 1.6z"/></g><g><path class="st10" d="M934.3 1253.4h5.1v2.5c0 1.8-.1 3.6-.3 5.4l-.3 2.5-5.1-.6.3-2.5c.2-1.6.3-3.2.3-4.8v-2.5zM932.5 1267.7l4.7 1.9-1 2.4c-1.4 3.4-3.2 6.6-5.5 9.5l-1.6 2-4-3.1 1.6-2c2-2.6 3.6-5.4 4.8-8.3l1-2.4zm-70.1 0l1 2.4c1.2 3 2.9 5.8 4.8 8.3l1.6 2-4 3.1-1.6-2c-2.2-2.9-4.1-6.1-5.5-9.5l-1-2.4 4.7-1.9zm59.5 15.9l3.1 4-2 1.6c-2.9 2.2-6.1 4.1-9.5 5.5l-2.4 1-2-4.7 2.4-1c3-1.2 5.8-2.9 8.3-4.8l2.1-1.6zm-48.9.1l2 1.6c2.6 2 5.4 3.6 8.3 4.8l2.4 1-1.9 4.7-2.4-1c-3.4-1.4-6.6-3.2-9.5-5.5l-2-1.6 3.1-4zm31.8 8.5l.7 5.1-2.5.3c-3.6.5-7.3.5-10.9 0l-2.5-.3.7-5.1 2.5.3c3.2.4 6.5.4 9.6 0l2.4-.3zM855.5 1253.4h5.1v2.5c0 1.6.1 3.2.3 4.8l.3 2.5-5.1.6-.3-2.5c-.2-1.8-.3-3.6-.3-5.4v-2.5zM944 1253.4h5.1v2.5c0 1.8-.1 3.6-.3 5.4l-.3 2.5-5.1-.5.3-2.5c.2-1.6.2-3.2.2-4.8l.1-2.6zM942.6 1267.3l4.9 1.5-.8 2.4c-1 3.2-2.3 6.3-3.9 9.3l-1.2 2.2-4.5-2.4 1.2-2.2c1.4-2.7 2.6-5.5 3.5-8.4l.8-2.4zm-90.3 0l.8 2.4c.9 2.9 2.1 5.7 3.5 8.4l1.2 2.2-4.5 2.4-1.2-2.2c-1.6-3-2.9-6.1-3.9-9.3l-.8-2.4 4.9-1.5zm82.6 16.3l3.9 3.2-1.6 2c-2.1 2.6-4.5 5-7.1 7.1l-2 1.6-3.2-3.9 2-1.6c2.3-1.9 4.5-4.1 6.4-6.4l1.6-2zm-74.9.1l1.6 2c1.9 2.3 4.1 4.5 6.4 6.4l2 1.6-3.2 4-2-1.6c-2.6-2.1-5-4.5-7.2-7.1l-1.6-2 4-3.3zm61.6 12.1l2.4 4.5-2.2 1.2c-3 1.6-6.1 2.9-9.3 3.8l-2.4.7-1.5-4.9 2.4-.7c2.9-.9 5.7-2 8.4-3.5l2.2-1.1zm-48.2.1l2.3 1.2c2.7 1.4 5.5 2.6 8.4 3.5l2.4.7-1.5 4.9-2.4-.7c-3.2-1-6.3-2.3-9.3-3.8l-2.3-1.2 2.4-4.6zm31.2 6.1l.5 5.1-2.5.2c-3.3.3-6.7.3-10.1 0l-2.5-.2.5-5.1 2.5.2c3 .3 6.1.3 9.1 0l2.5-.2zM845.8 1253.4h5.1v2.5c0 1.6.1 3.2.2 4.8l.3 2.5-5.1.5-.3-2.5c-.2-1.8-.3-3.6-.3-5.4l.1-2.4z"/><g><path class="st10" d="M817.8 1253.4h5.1v2.5c0 1.6.1 3.3.2 4.9l.2 2.5-5.1.3-.2-2.5c-.1-1.7-.2-3.5-.2-5.3v-2.4zM823.8 1268.1l.5 2.5c.6 3.2 1.5 6.4 2.5 9.4l.8 2.4-4.8 1.6-.8-2.4c-1.1-3.3-2-6.7-2.7-10.1l-.5-2.5 5-.9zm147.2.1l5 1-.5 2.5c-.7 3.4-1.6 6.8-2.7 10.1l-.8 2.4-4.8-1.6.8-2.4c1-3.1 1.9-6.2 2.5-9.4l.5-2.6zm-141.5 18.5l1.1 2.3c1.4 2.9 3.1 5.7 4.9 8.4l1.4 2.1-4.2 2.8-1.4-2.1c-1.9-2.9-3.7-5.9-5.2-9l-1.1-2.3 4.5-2.2zm135.9.1l4.6 2.3-1.1 2.3c-1.5 3.1-3.3 6.1-5.2 9l-1.4 2.1-4.2-2.8 1.4-2.1c1.8-2.7 3.5-5.5 4.9-8.4l1-2.4zm-125.7 16.4l1.7 1.9c2.1 2.4 4.5 4.8 6.9 6.9l1.9 1.7-3.4 3.8-1.9-1.7c-2.6-2.3-5.1-4.8-7.4-7.4l-1.7-1.9 3.9-3.3zm115.4.1l3.8 3.4-1.7 1.9c-2.3 2.6-4.8 5.1-7.4 7.3l-1.9 1.7-3.4-3.8 1.9-1.7c2.4-2.1 4.8-4.4 6.9-6.9l1.8-1.9zm-101.2 13.2l2.1 1.4c2.7 1.8 5.5 3.4 8.4 4.9l2.3 1.1-2.3 4.6-2.3-1.1c-3.1-1.5-6.1-3.3-9-5.2l-2.1-1.4 2.9-4.3zm87 .1l2.8 4.2-2.1 1.4c-2.9 1.9-5.9 3.7-9 5.2l-2.3 1.1-2.3-4.6 2.3-1.1c2.9-1.4 5.7-3.1 8.4-4.9l2.2-1.3zm-69.9 9.2l2.4.8c3.1 1 6.2 1.9 9.4 2.5l2.5.5-1 5-2.5-.5c-3.4-.7-6.8-1.6-10.1-2.7l-2.4-.8 1.7-4.8zm52.8 0l1.6 4.8-2.4.8c-3.3 1.1-6.7 2-10.1 2.7l-2.5.5-1-5 2.5-.5c3.2-.6 6.4-1.5 9.4-2.5l2.5-.8zm-33.8 4.4l2.5.2c3.2.2 6.5.2 9.7 0l2.5-.2.3 5.1-2.5.2c-3.4.2-6.9.2-10.4 0l-2.5-.2.4-5.1zM972 1253.4h5.1v2.5c0 1.7-.1 3.5-.2 5.3l-.2 2.5-5.1-.3.2-2.5c.1-1.6.2-3.3.2-4.9v-2.6z"/></g><g><path class="st10" d="M826.7 1253.4h5.1v2.5c0 1.6.1 3.3.2 4.9l.2 2.5-5.1.4-.2-2.5c-.1-1.7-.2-3.5-.2-5.3v-2.5zM832.8 1267.6l.5 2.5c.7 3 1.6 6 2.7 9l.9 2.4-4.8 1.8-.9-2.4c-1.2-3.1-2.1-6.4-2.9-9.7l-.5-2.5 5-1.1zm129.3.1l5 1.1-.6 2.5c-.7 3.3-1.7 6.5-2.9 9.6l-.9 2.4-4.8-1.8.9-2.4c1.1-2.9 2-5.9 2.7-8.9l.6-2.5zm-123.4 17.6l1.2 2.2c1.5 2.7 3.2 5.4 5.1 7.8l1.5 2-4.1 3.1-1.5-2c-2-2.7-3.9-5.5-5.5-8.5l-1.2-2.2 4.5-2.4zm117.5.1l4.5 2.5-1.2 2.2c-1.6 2.9-3.5 5.8-5.5 8.4l-1.5 2-4.1-3.1 1.5-2c1.9-2.5 3.6-5.1 5.1-7.8l1.2-2.2zm-106.9 15.2l1.8 1.8c2.2 2.2 4.6 4.3 7.1 6.1l2 1.5-3.1 4.1-2-1.5c-2.7-2-5.2-4.2-7.6-6.6l-1.8-1.8 3.6-3.6zm96.2.1l3.6 3.6-1.8 1.8c-2.4 2.4-4.9 4.6-7.6 6.6l-2 1.5-3-4.1 2-1.5c2.5-1.9 4.9-3.9 7.1-6.1l1.7-1.8zm-81.7 11.7l2.2 1.2c2.7 1.5 5.6 2.8 8.5 3.9l2.4.9-1.8 4.8-2.4-.9c-3.1-1.2-6.2-2.6-9.2-4.2l-2.2-1.2 2.5-4.5zm67.2 0l2.4 4.5-2.2 1.2c-2.9 1.6-6 3-9.2 4.2l-2.4.9-1.8-4.8 2.4-.9c2.9-1.1 5.8-2.4 8.5-3.9l2.3-1.2zm-50 7.2l2.5.5c3 .7 6.1 1.1 9.2 1.3l2.5.2-.4 5.1-2.5-.2c-3.3-.2-6.7-.7-10-1.4l-2.5-.5 1.2-5zm32.8 0l1.1 5-2.5.5c-3.3.7-6.6 1.2-10 1.4l-2.5.2-.4-5.1 2.5-.2c3.1-.2 6.2-.7 9.2-1.3l2.6-.5zM963.1 1253.4h5.1v2.5c0 1.8-.1 3.5-.2 5.3l-.2 2.5-5.1-.4.2-2.5c.1-1.6.2-3.3.2-4.9v-2.5z"/></g><g><path class="st10" d="M836.3 1253.4h5.1v2.5c0 1.6.1 3.3.2 4.9l.2 2.5-5.1.4-.2-2.5c-.2-1.8-.2-3.5-.2-5.3v-2.5zM842.6 1268l.7 2.5c.8 3.1 2 6.2 3.3 9.2l1.1 2.3-4.6 2.2-1.1-2.3c-1.5-3.2-2.7-6.6-3.6-10l-.7-2.5 4.9-1.4zm109.7.1l4.9 1.3-.7 2.5c-.9 3.4-2.2 6.8-3.7 10l-1.1 2.3-4.6-2.2 1.1-2.3c1.4-2.9 2.5-6 3.4-9.2l.7-2.4zM850 1286l1.5 2.1c1.9 2.7 4 5.2 6.3 7.5l1.8 1.8-3.6 3.6-1.8-1.8c-2.5-2.5-4.8-5.3-6.9-8.2l-1.5-2.1 4.2-2.9zm94.8.1l4.2 2.9-1.5 2.1c-2 2.9-4.3 5.6-6.9 8.2l-1.8 1.8-3.6-3.6 1.8-1.8c2.3-2.3 4.4-4.8 6.3-7.5l1.5-2.1zm-81.6 14.3l2.1 1.5c2.7 1.9 5.5 3.5 8.5 4.9l2.3 1.1-2.2 4.6-2.3-1.1c-3.2-1.5-6.3-3.3-9.2-5.3l-2.1-1.5 2.9-4.2zm68.4.1l2.9 4.2-2.1 1.5c-2.9 2-6 3.8-9.2 5.3l-2.3 1.1-2.2-4.6 2.3-1.1c2.9-1.4 5.8-3 8.5-4.9l2.1-1.5zm-51.2 9l2.5.7c3.1.8 6.4 1.4 9.6 1.7l2.5.2-.4 5.1-2.5-.2c-3.5-.3-7.1-.9-10.5-1.8l-2.5-.7 1.3-5zm34 0l1.3 4.9-2.5.7c-3.4.9-7 1.5-10.5 1.8l-2.5.2-.4-5.1 2.5-.2c3.3-.3 6.5-.8 9.6-1.7l2.5-.6zM953.5 1253.4h5.1v2.5c0 1.8-.1 3.6-.2 5.3l-.2 2.5-5.1-.4.2-2.5c.1-1.6.2-3.3.2-4.9v-2.5z"/></g><g><path class="st11" d="M845.4 1214.3h104.2v5.1H845.4zM948.6 1142.7H846.4v-2.9l51.2-10.9 51 10.9zM948.6 1152.9v-5.2H846.4v5.2h8.1v50.9h-4.4v5.1h27.6v-5.1h-4.3v-50.9H888v50.9h-4.4v5.1h27.7v-5.1h-4.4v-50.9h14.6v50.9h-4.4v5.1h27.7v-5.1h-4.4v-50.9z"/></g></g></svg>