<?xml version="1.0" encoding="utf-8"?>
<!-- Generator: Adobe Illustrator 21.0.2, SVG Export Plug-In . SVG Version: 6.00 Build 0)  -->
<svg version="1.1" xmlns="http://www.w3.org/2000/svg" xmlns:xlink="http://www.w3.org/1999/xlink" x="0px" y="0px"
	 viewBox="0 0 1280 1928" style="enable-background:new 0 0 1280 1928;" xml:space="preserve">
<style type="text/css">
	.st0{fill:none;stroke:#1B1464;stroke-width:3;stroke-miterlimit:10;}
	.st1{fill:#FFFFFF;}
	.st2{fill:#FF3366;}
	.st3{fill:#CBCBCB;stroke:#000000;stroke-width:3;stroke-linejoin:round;stroke-miterlimit:10;}
	.st4{fill:#FFFFFF;stroke:#000000;stroke-width:3;stroke-linejoin:round;stroke-miterlimit:10;}
	.st5{fill:none;stroke:#000000;stroke-width:3;stroke-linejoin:round;stroke-miterlimit:10;}
	.st6{fill:#FFFD6B;stroke:#FF1D25;stroke-width:3;stroke-linejoin:round;stroke-miterlimit:10;}
	.st7{fill:none;stroke:#2E4CD9;stroke-width:3;stroke-miterlimit:10;}
	.st8{fill:none;stroke:#2543CC;stroke-width:3;stroke-miterlimit:10;}
	.st9{fill:none;stroke:#662D90;stroke-width:3;stroke-miterlimit:10;}
	.st10{fill:none;stroke:#92278E;stroke-width:3;stroke-miterlimit:10;}
	.st11{fill:#E9CABF;stroke:#000000;stroke-width:3;stroke-linecap:round;stroke-linejoin:round;stroke-miterlimit:10;}
	.st12{fill:none;stroke:#2E3191;stroke-width:3;stroke-linecap:round;stroke-linejoin:round;stroke-miterlimit:10;}
	.st13{fill:none;stroke:#000000;stroke-width:3;stroke-linecap:round;stroke-linejoin:round;stroke-miterlimit:10;}
	.st14{fill:none;stroke:#00FF00;stroke-width:3;stroke-linecap:round;stroke-linejoin:round;stroke-miterlimit:10;}
	.st15{fill:#FFFFFF;stroke:#FF5417;stroke-width:3;stroke-miterlimit:10;}
	.st16{fill:none;stroke:#000000;stroke-width:3;stroke-miterlimit:10;}
	.st17{fill:none;stroke:#B2B2B2;stroke-width:3;stroke-miterlimit:10;}
	.st18{fill:none;stroke:#FFFFFF;stroke-width:3;stroke-miterlimit:10;}
	.st19{fill:#662D90;}
	.st20{fill:#FFFD6B;stroke:#000000;stroke-width:3;stroke-linejoin:round;stroke-miterlimit:10;}
	.st21{fill:#FF1D25;stroke:#000000;stroke-width:3;stroke-miterlimit:10;}
	.st22{fill:none;stroke:#FF1D25;stroke-width:3;stroke-miterlimit:10;}
	.st23{fill:#808080;}
	.st24{fill:none;stroke:#A6C4D5;stroke-width:3;stroke-linecap:round;stroke-miterlimit:10;}
	.st25{fill:none;stroke:#D138CB;stroke-width:3;stroke-miterlimit:10;}
	.st26{fill:none;stroke:#2BF04C;stroke-width:3;stroke-miterlimit:10;}
	.st27{fill:#FF00FF;}
</style>
<g id="MUSTER">
	<g>
		<circle class="st0" cx="92.2" cy="1417.3" r="45.9"/>
		<line class="st0" x1="62.7" y1="1451.2" x2="92.2" y2="1417.3"/>
		<line class="st0" x1="92.2" y1="1417.3" x2="92.2" y2="1371.4"/>
		<line class="st0" x1="134.8" y1="1402" x2="92.2" y2="1417.3"/>
		<line class="st0" x1="129.3" y1="1443.5" x2="92.2" y2="1417.3"/>
	</g>
	<g>
		<rect x="184.8" y="1598.1" class="st1" width="74.6" height="106.8"/>
		<path class="st2" d="M198.7,1620.9c0.3,0.3,0.8,0.5,1.1,0.5c0.3,0,0.8-0.2,1.1-0.5l2.1-2.1l2.1,2.1c0.3,0.3,0.8,0.5,1.1,0.5
			s0.8-0.2,1.1-0.5c0.6-0.6,0.6-1.6,0-2.2l-2.1-2.1l2.1-2.1c0.6-0.6,0.6-1.6,0-2.2c-0.6-0.6-1.6-0.6-2.2,0l-2.1,2.1l-2.1-2.1
			c-0.6-0.6-1.6-0.6-2.2,0c-0.6,0.6-0.6,1.6,0,2.2l2.1,2.1l-2.1,2.1C198.1,1619.3,198.1,1620.2,198.7,1620.9z"/>
		<path d="M215.6,1617.3h29.2c1,0,1.6-0.6,1.6-1.6s-0.6-1.6-1.6-1.6h-29.2c-1,0-1.6,0.6-1.6,1.6S214.7,1617.3,215.6,1617.3z"/>
		<path class="st2" d="M198.7,1638.4c0.3,0.3,0.8,0.5,1.1,0.5c0.3,0,0.8-0.2,1.1-0.5l2.1-2.1l2.1,2.1c0.3,0.3,0.8,0.5,1.1,0.5
			s0.8-0.2,1.1-0.5c0.6-0.6,0.6-1.6,0-2.2l-2.1-2.1l2.1-2.1c0.6-0.6,0.6-1.6,0-2.2c-0.6-0.6-1.6-0.6-2.2,0l-2.1,2.1l-2.1-2.1
			c-0.6-0.6-1.6-0.6-2.2,0c-0.6,0.6-0.6,1.6,0,2.2l2.1,2.1l-2.1,2.1C198.1,1636.7,198.1,1637.8,198.7,1638.4z"/>
		<path d="M215.6,1634.9h29.2c1,0,1.6-0.6,1.6-1.6c0-1-0.6-1.6-1.6-1.6h-29.2c-1,0-1.6,0.6-1.6,1.6
			C214,1634.3,214.7,1634.9,215.6,1634.9z"/>
		<path class="st2" d="M198.7,1655.8c0.3,0.3,0.8,0.5,1.1,0.5c0.3,0,0.8-0.2,1.1-0.5l2.1-2.1l2.1,2.1c0.3,0.3,0.8,0.5,1.1,0.5
			s0.8-0.2,1.1-0.5c0.6-0.6,0.6-1.6,0-2.2l-2.1-2.1l2.1-2.1c0.6-0.6,0.6-1.6,0-2.2c-0.6-0.6-1.6-0.6-2.2,0l-1.9,1.9l-2.1-2.1
			c-0.6-0.6-1.6-0.6-2.2,0c-0.6,0.6-0.6,1.6,0,2.2l2.1,2.1l-2.1,2.1C198.1,1654.2,198.1,1655.2,198.7,1655.8z"/>
		<path d="M215.6,1652.3h29.2c1,0,1.6-0.6,1.6-1.6s-0.6-1.6-1.6-1.6h-29.2c-1,0-1.6,0.6-1.6,1.6S214.7,1652.3,215.6,1652.3z"/>
		<path class="st2" d="M198.7,1673.2c0.3,0.3,0.8,0.5,1.1,0.5c0.3,0,0.8-0.2,1.1-0.5l2.1-2.1l2.1,2.1c0.3,0.3,0.8,0.5,1.1,0.5
			s0.8-0.2,1.1-0.5c0.6-0.6,0.6-1.6,0-2.2l-2.1-2.1l2.1-2.1c0.6-0.6,0.6-1.6,0-2.2c-0.6-0.6-1.6-0.6-2.2,0l-1.9,2.1l-2.1-2.1
			c-0.6-0.6-1.6-0.6-2.2,0c-0.6,0.6-0.6,1.6,0,2.2l2.1,2.1l-2.1,2.1C198.1,1671.6,198.1,1672.6,198.7,1673.2z"/>
		<path d="M215.6,1669.7h29.2c1,0,1.6-0.6,1.6-1.6s-0.6-1.6-1.6-1.6h-29.2c-1,0-1.6,0.6-1.6,1.6S214.7,1669.7,215.6,1669.7z"/>
		<path class="st2" d="M198.7,1690.8c0.3,0.3,0.8,0.5,1.1,0.5c0.3,0,0.8-0.2,1.1-0.5l2.1-2.1l2.1,2.1c0.3,0.3,0.8,0.5,1.1,0.5
			s0.8-0.2,1.1-0.5c0.6-0.6,0.6-1.6,0-2.2l-2.1-2.1l2.1-2.1c0.6-0.6,0.6-1.6,0-2.2c-0.6-0.6-1.6-0.6-2.2,0l-2.1,2.1l-2.1-2.1
			c-0.6-0.6-1.6-0.6-2.2,0c-0.6,0.6-0.6,1.6,0,2.2l2.1,2.1l-2.1,2.1C198.1,1689,198.1,1690.1,198.7,1690.8z"/>
		<path d="M215.6,1687.2h29.2c1,0,1.6-0.6,1.6-1.6c0-1-0.6-1.6-1.6-1.6h-29.2c-1,0-1.6,0.6-1.6,1.6
			C214,1686.6,214.7,1687.2,215.6,1687.2z"/>
	</g>
	<g>
		<rect x="982.8" y="1537.1" class="st1" width="74.6" height="106.8"/>
		<path class="st2" d="M996.7,1559.9c0.3,0.3,0.8,0.5,1.1,0.5c0.3,0,0.8-0.2,1.1-0.5l2.1-2.1l2.1,2.1c0.3,0.3,0.8,0.5,1.1,0.5
			s0.8-0.2,1.1-0.5c0.6-0.6,0.6-1.6,0-2.2l-2.1-2.1l2.1-2.1c0.6-0.6,0.6-1.6,0-2.2c-0.6-0.6-1.6-0.6-2.2,0l-2.1,2.1l-2.1-2.1
			c-0.6-0.6-1.6-0.6-2.2,0c-0.6,0.6-0.6,1.6,0,2.2l2.1,2.1l-2.1,2.1C996.1,1558.3,996.1,1559.2,996.7,1559.9z"/>
		<path d="M1013.6,1556.3h29.2c1,0,1.6-0.6,1.6-1.6s-0.6-1.6-1.6-1.6h-29.2c-1,0-1.6,0.6-1.6,1.6S1012.7,1556.3,1013.6,1556.3z"/>
		<path class="st2" d="M996.7,1577.4c0.3,0.3,0.8,0.5,1.1,0.5c0.3,0,0.8-0.2,1.1-0.5l2.1-2.1l2.1,2.1c0.3,0.3,0.8,0.5,1.1,0.5
			s0.8-0.2,1.1-0.5c0.6-0.6,0.6-1.6,0-2.2l-2.1-2.1l2.1-2.1c0.6-0.6,0.6-1.6,0-2.2c-0.6-0.6-1.6-0.6-2.2,0l-2.1,2.1l-2.1-2.1
			c-0.6-0.6-1.6-0.6-2.2,0c-0.6,0.6-0.6,1.6,0,2.2l2.1,2.1l-2.1,2.1C996.1,1575.7,996.1,1576.8,996.7,1577.4z"/>
		<path d="M1013.6,1573.9h29.2c1,0,1.6-0.6,1.6-1.6c0-1-0.6-1.6-1.6-1.6h-29.2c-1,0-1.6,0.6-1.6,1.6
			C1012,1573.3,1012.7,1573.9,1013.6,1573.9z"/>
		<path class="st2" d="M996.7,1594.8c0.3,0.3,0.8,0.5,1.1,0.5c0.3,0,0.8-0.2,1.1-0.5l2.1-2.1l2.1,2.1c0.3,0.3,0.8,0.5,1.1,0.5
			s0.8-0.2,1.1-0.5c0.6-0.6,0.6-1.6,0-2.2l-2.1-2.1l2.1-2.1c0.6-0.6,0.6-1.6,0-2.2c-0.6-0.6-1.6-0.6-2.2,0l-1.9,1.9l-2.1-2.1
			c-0.6-0.6-1.6-0.6-2.2,0c-0.6,0.6-0.6,1.6,0,2.2l2.1,2.1l-2.1,2.1C996.1,1593.2,996.1,1594.2,996.7,1594.8z"/>
		<path d="M1013.6,1591.3h29.2c1,0,1.6-0.6,1.6-1.6s-0.6-1.6-1.6-1.6h-29.2c-1,0-1.6,0.6-1.6,1.6S1012.7,1591.3,1013.6,1591.3z"/>
		<path class="st2" d="M996.7,1612.2c0.3,0.3,0.8,0.5,1.1,0.5c0.3,0,0.8-0.2,1.1-0.5l2.1-2.1l2.1,2.1c0.3,0.3,0.8,0.5,1.1,0.5
			s0.8-0.2,1.1-0.5c0.6-0.6,0.6-1.6,0-2.2l-2.1-2.1l2.1-2.1c0.6-0.6,0.6-1.6,0-2.2c-0.6-0.6-1.6-0.6-2.2,0l-1.9,2.1l-2.1-2.1
			c-0.6-0.6-1.6-0.6-2.2,0c-0.6,0.6-0.6,1.6,0,2.2l2.1,2.1l-2.1,2.1C996.1,1610.6,996.1,1611.6,996.7,1612.2z"/>
		<path d="M1013.6,1608.7h29.2c1,0,1.6-0.6,1.6-1.6s-0.6-1.6-1.6-1.6h-29.2c-1,0-1.6,0.6-1.6,1.6S1012.7,1608.7,1013.6,1608.7z"/>
		<path class="st2" d="M996.7,1629.8c0.3,0.3,0.8,0.5,1.1,0.5c0.3,0,0.8-0.2,1.1-0.5l2.1-2.1l2.1,2.1c0.3,0.3,0.8,0.5,1.1,0.5
			s0.8-0.2,1.1-0.5c0.6-0.6,0.6-1.6,0-2.2l-2.1-2.1l2.1-2.1c0.6-0.6,0.6-1.6,0-2.2c-0.6-0.6-1.6-0.6-2.2,0l-2.1,2.1l-2.1-2.1
			c-0.6-0.6-1.6-0.6-2.2,0c-0.6,0.6-0.6,1.6,0,2.2l2.1,2.1l-2.1,2.1C996.1,1628,996.1,1629.1,996.7,1629.8z"/>
		<path d="M1013.6,1626.2h29.2c1,0,1.6-0.6,1.6-1.6c0-1-0.6-1.6-1.6-1.6h-29.2c-1,0-1.6,0.6-1.6,1.6
			C1012,1625.6,1012.7,1626.2,1013.6,1626.2z"/>
	</g>
	<g>
		<g>
			<rect x="767.2" y="1535.2" class="st3" width="69.3" height="9.4"/>
			<rect x="775.1" y="1544.6" class="st3" width="53.5" height="83.5"/>
			<rect x="787.7" y="1565.1" class="st4" width="28.3" height="40.9"/>
			<path class="st5" d="M819.7,1535.2c0,0,0-17.3-11-22"/>
		</g>
		<path class="st6" d="M810.4,1512.7l-0.8,1.3c-0.9,1.5-2.9,1.9-4.4,1l-5.2-3.3c-1.5-0.9-1.9-2.9-1-4.4l0.8-1.3
			c0.9-1.5,2.9-1.9,4.4-1l5.2,3.3C810.9,1509.3,811.4,1511.3,810.4,1512.7z"/>
	</g>
	<g>
		<circle class="st7" cx="1101.2" cy="1206.3" r="45.9"/>
		<line class="st7" x1="1071.7" y1="1240.2" x2="1101.2" y2="1206.3"/>
		<line class="st7" x1="1101.2" y1="1206.3" x2="1101.2" y2="1160.4"/>
		<line class="st7" x1="1143.8" y1="1191" x2="1101.2" y2="1206.3"/>
		<line class="st7" x1="1138.3" y1="1232.5" x2="1101.2" y2="1206.3"/>
	</g>
	<g>
		<rect x="807.6" y="749.2" class="st8" width="26" height="67.5"/>
		<rect x="841" y="739" class="st9" width="26" height="77.7"/>
		<rect x="874.4" y="759.4" class="st10" width="26" height="57.3"/>
		<rect x="907.8" y="791.2" class="st0" width="26" height="25.5"/>
	</g>
	<g>
		<path class="st11" d="M885.8,156.9c0-3.4,2.7-6.1,6.1-6.1c3.4,0,6.1,2.7,6.1,6.1v18.3c0-3.4,2.7-6.1,6.1-6.1
			c3.4,0,6.1,2.7,6.1,6.1v3.8c0-3.4,2.7-6.1,6.1-6.1c3.4,0,6.1,2.7,6.1,6.1v3.8c0-3.4,2.7-6.1,6.1-6.1c3.4,0,6.1,2.7,6.1,6.1v0.4
			V213l-8,14.5v11.4h-35.1l-0.4-9.5c0,0-15.1-24.9-23.7-34.3c-1.1-1.3-0.4-5.9,2.3-6.9c2.7-1,10.1-0.3,16,8.6v-38.4V156.9z"/>
		<line class="st13" x1="898" y1="189.7" x2="898" y2="175.2"/>
		<line class="st13" x1="910.2" y1="190.5" x2="910.2" y2="179"/>
		<line class="st13" x1="922.4" y1="193.9" x2="922.4" y2="182.5"/>
		<path class="st14" d="M878.9,167.6c-2.4-2.9-3.8-6.6-3.8-10.7c0-9.3,7.5-16.8,16.8-16.8c9.3,0,16.8,7.5,16.8,16.8
			c0,2.3-0.5,4.5-1.3,6.5"/>
		<path class="st14" d="M874.4,170.5c-3-3.8-4.8-8.6-4.8-13.8c0-12.3,10-22.3,22.3-22.3c12.3,0,22.3,10,22.3,22.3
			c0,3.1-0.6,6-1.7,8.7"/>
	</g>
	<g>
		<polygon class="st15" points="422.1,869.2 297,869.2 297,937.7 320.8,937.7 320.8,945.7 330.7,937.7 422.1,937.7 		"/>
		<circle class="st16" cx="317.2" cy="956.8" r="2.9"/>
		<circle class="st17" cx="307.3" cy="956.8" r="2.9"/>
		<circle class="st17" cx="297.3" cy="956.8" r="2.9"/>
		<circle class="st18" cx="327.1" cy="956.8" r="2.9"/>
		<circle class="st18" cx="337" cy="956.8" r="2.9"/>
	</g>
	<g>
		<polygon class="st15" points="1184.6,358.4 1059.6,358.4 1059.6,426.9 1083.4,426.9 1083.4,434.9 1093.3,426.9 1184.6,426.9 		"/>
		<circle class="st16" cx="1079.8" cy="446" r="2.9"/>
		<circle class="st17" cx="1069.8" cy="446" r="2.9"/>
		<circle class="st17" cx="1059.9" cy="446" r="2.9"/>
		<circle class="st18" cx="1089.7" cy="446" r="2.9"/>
		<circle class="st18" cx="1099.6" cy="446" r="2.9"/>
	</g>
	<g>
		<g>
			<path class="st19" d="M335.4,253.5v5.4h-6.8c-1.9,0-2.7,0.9-2.7,3.2V275c0,4.8-1.8,6.3-4.2,7c2.4,0.7,4.2,2.1,4.2,7v12.9
				c0,2.3,0.8,3.2,2.7,3.2h6.8v5.4h-8.3c-3.6,0-6-2.9-6-7.1v-12.3c0-5-2.4-6.4-6-6.4v-5.4c3.6,0,6-1.4,6-6.4v-12.3
				c0-4.3,2.4-7.1,6-7.1H335.4 M335.4,250.5h-8.3c-5.3,0-9,4.2-9,10.1v12.3c0,2.8-0.6,3.4-3,3.4c-1.7,0-3,1.3-3,3v5.4
				c0,1.7,1.3,3,3,3c2.4,0,3,0.6,3,3.4v12.3c0,6,3.7,10.1,9,10.1h8.3c1.7,0,3-1.3,3-3v-5.4c0-1.7-1.3-3-3-3H329c0-0.1,0-0.1,0-0.2
				V289c0-3-0.6-5.3-1.9-7c1.3-1.7,1.9-4,1.9-7v-12.9c0-0.1,0-0.1,0-0.2h6.5c1.7,0,3-1.3,3-3v-5.4
				C338.4,251.8,337.1,250.5,335.4,250.5L335.4,250.5z"/>
		</g>
		<g>
			<path class="st19" d="M365.7,253.5l-16.4,57h-5.2l16.4-57H365.7 M365.7,250.5h-5.2c-1.3,0-2.5,0.9-2.9,2.2l-16.4,57
				c-0.3,0.9-0.1,1.9,0.5,2.6c0.6,0.8,1.5,1.2,2.4,1.2h5.2c1.3,0,2.5-0.9,2.9-2.2l16.4-57c0.3-0.9,0.1-1.9-0.5-2.6
				C367.5,250.9,366.6,250.5,365.7,250.5L365.7,250.5z"/>
		</g>
		<g>
			<path class="st19" d="M383,253.5c3.6,0,6,2.8,6,7.1v12.3c0,5,2.4,6.4,6,6.4v5.4c-3.6,0-6,1.4-6,6.4v12.3c0,4.3-2.4,7.1-6,7.1
				h-8.3v-5.4h6.8c1.9,0,2.7-0.9,2.7-3.2V289c0-4.8,1.8-6.3,4.2-7c-2.4-0.7-4.2-2.1-4.2-7v-12.9c0-2.3-0.8-3.2-2.7-3.2h-6.8v-5.4
				H383 M383,250.5h-8.3c-1.7,0-3,1.3-3,3v5.4c0,1.7,1.3,3,3,3h6.5c0,0.1,0,0.1,0,0.2V275c0,3,0.6,5.3,1.9,7c-1.3,1.7-1.9,4-1.9,7
				v12.9c0,0.1,0,0.1,0,0.2h-6.5c-1.7,0-3,1.3-3,3v5.4c0,1.7,1.3,3,3,3h8.3c5.3,0,9-4.2,9-10.1v-12.3c0-2.8,0.6-3.4,3-3.4
				c1.7,0,3-1.3,3-3v-5.4c0-1.7-1.3-3-3-3c-2.4,0-3-0.6-3-3.4v-12.3C392,254.7,388.3,250.5,383,250.5L383,250.5z M381.7,261.9
				L381.7,261.9L381.7,261.9z M381.7,302.1L381.7,302.1L381.7,302.1L381.7,302.1z"/>
		</g>
	</g>
</g>
<g id="Ebene_4">
</g>
<g id="Ebene_3">
</g>
<g id="Ebene_2">
</g>
</svg>
