<svg xmlns="http://www.w3.org/2000/svg" viewBox="0 0 1280 1928"><style>.st0{fill:none;stroke:#1b1464;stroke-width:3;stroke-miterlimit:10}.st1{fill:#fff}.st2{fill:#f36}.st3{fill:#cbcbcb;stroke-width:3;stroke-miterlimit:10}.st3,.st4,.st5{stroke:#000;stroke-linejoin:round}.st4{stroke-width:3;stroke-miterlimit:10;fill:#fff}.st5{fill:none}.st10,.st5,.st6,.st7,.st8,.st9{stroke-width:3;stroke-miterlimit:10}.st6{stroke-linejoin:round;fill:#fffd6b;stroke:#ff1d25}.st10,.st7,.st8,.st9{fill:none;stroke:#2e4cd9}.st10,.st8,.st9{stroke:#2543cc}.st10,.st9{stroke:#662d90}.st10{stroke:#92278e}.st11,.st12,.st13{stroke-linecap:round;stroke-linejoin:round}.st11{stroke:#000;stroke-width:3;stroke-miterlimit:10;fill:#e9cabf}.st12,.st13{fill:none}.st12{stroke-width:3;stroke-miterlimit:10;stroke:#2e3191}.st13{stroke:#000}.st13,.st14,.st15,.st16,.st17,.st18{stroke-width:3;stroke-miterlimit:10}.st14{stroke-linecap:round;stroke-linejoin:round;fill:none;stroke:#0f0}.st15,.st16,.st17,.st18{fill:#fff;stroke:#ff5417}.st16,.st17,.st18{fill:none;stroke:#000}.st17,.st18{stroke:#b2b2b2}.st18{stroke:#fff}.st19{fill:#662d90}.st20,.st21,.st22{stroke:#000;stroke-width:3;stroke-miterlimit:10}.st20{stroke-linejoin:round;fill:#fffd6b}.st21,.st22{fill:#ff1d25}.st22{fill:none;stroke:#ff1d25}.st23{fill:gray}.st24,.st25,.st26{fill:none;stroke-width:3;stroke-miterlimit:10}.st24{stroke-linecap:round;stroke:#a6c4d5}.st25,.st26{stroke:#d138cb}.st26{stroke:#2bf04c}.st27{fill:#f0f}</style><g id="Ebene_2"><path class="st8" d="M187 1794.5l-15.8-1.6c-2.1-.1-3.9 1.4-4 3.5-.1 2.1 1.4 3.9 3.5 4l6.3.8-41 33.1-29.1-21.7-50.8 39.6c-1.6 1.3-1.9 3.7-.7 5.3.7 1 1.9 1.5 3 1.5.8 0 1.6-.3 2.3-.8l46.3-36 29.2 21.8 45.5-36.7-.8 7.2c-.3 2.1 1.1 4 3.2 4.3 2.1.3 4-1.1 4.3-3.2l2.1-16.6c.5-4.3.5-4.3-3.5-4.5z"/><path class="st11" d="M392.5 1487.3c0-3.4 2.7-6.1 6.1-6.1 3.4 0 6.1 2.7 6.1 6.1v18.3c0-3.4 2.7-6.1 6.1-6.1 3.4 0 6.1 2.7 6.1 6.1v3.8c0-3.4 2.7-6.1 6.1-6.1 3.4 0 6.1 2.7 6.1 6.1v3.8c0-3.4 2.7-6.1 6.1-6.1 3.4 0 6.1 2.7 6.1 6.1v30.2l-8 14.5v11.4h-35.1l-.4-9.5s-15.1-24.9-23.7-34.3c-1.1-1.3-.4-5.9 2.3-6.9 2.7-1 10.1-.3 16 8.6v-39.9z"/><path class="st13" d="M404.7 1520.1v-14.5M416.9 1520.9v-11.5M429.1 1524.3v-11.4"/><path class="st14" d="M385.7 1498c-2.4-2.9-3.8-6.6-3.8-10.7 0-9.3 7.5-16.8 16.8-16.8s16.8 7.5 16.8 16.8c0 2.3-.5 4.5-1.3 6.5"/><path class="st14" d="M381.2 1500.9c-3-3.8-4.8-8.6-4.8-13.8 0-12.3 10-22.3 22.3-22.3s22.3 10 22.3 22.3c0 3.1-.6 6-1.7 8.7"/><path class="st11" d="M1135 1440.9c0-3.4 2.7-6.1 6.1-6.1 3.4 0 6.1 2.7 6.1 6.1v18.3c0-3.4 2.7-6.1 6.1-6.1 3.4 0 6.1 2.7 6.1 6.1v3.8c0-3.4 2.7-6.1 6.1-6.1 3.4 0 6.1 2.7 6.1 6.1v3.8c0-3.4 2.7-6.1 6.1-6.1s6.1 2.7 6.1 6.1v30.2l-8 14.5v11.4h-35.1l-.4-9.5s-15.1-24.9-23.7-34.3c-1.1-1.3-.4-5.9 2.3-6.9 2.7-1 10.1-.3 16 8.6v-39.9z"/><path class="st13" d="M1147.2 1473.8v-14.5M1159.4 1474.5v-11.4M1171.6 1478v-11.5"/><path class="st14" d="M1128.1 1451.6c-2.4-2.9-3.8-6.6-3.8-10.7 0-9.3 7.5-16.8 16.8-16.8s16.8 7.5 16.8 16.8c0 2.3-.5 4.5-1.3 6.5"/><path class="st14" d="M1123.6 1454.5c-3-3.8-4.8-8.6-4.8-13.8 0-12.3 10-22.3 22.3-22.3s22.3 10 22.3 22.3c0 3.1-.6 6-1.7 8.7"/><path class="st25" d="M706 1354.9l-15.8-1.6c-2.1-.1-3.9 1.4-4 3.5-.1 2.1 1.4 3.9 3.5 4l6.3.8-41 33.1-29.1-21.7-50.8 39.6c-1.6 1.3-1.9 3.7-.7 5.3.7 1 1.9 1.5 3 1.5.8 0 1.6-.3 2.3-.8l46.3-36 29.2 21.8 45.5-36.7-.8 7.2c-.3 2.1 1.1 4 3.2 4.3 2.1.3 4-1.1 4.3-3.2l2.1-16.6c.6-4.2.6-4.2-3.5-4.5z"/><g><path class="st20" d="M159.2 113.3h8.7l8.9 23v45.3h-71.4v-45.3l8.4-23h22.5"/><path class="st4" d="M151.9 125.6h-23.4l19.6-30.8 16.3 10.3z"/><path class="st5" d="M121.2 125.6h39.3M105.4 136.3h71.4"/></g><g><path class="st11" d="M974.5 935.1c0-3.4 2.7-6.1 6.1-6.1 3.4 0 6.1 2.7 6.1 6.1v18.3c0-3.4 2.7-6.1 6.1-6.1 3.4 0 6.1 2.7 6.1 6.1v3.8c0-3.4 2.7-6.1 6.1-6.1 3.4 0 6.1 2.7 6.1 6.1v3.8c0-3.4 2.7-6.1 6.1-6.1 3.4 0 6.1 2.7 6.1 6.1v30.2l-8 14.5v11.4h-35.1l-.4-9.5s-15.1-24.9-23.7-34.3c-1.1-1.3-.4-5.9 2.3-6.9 2.7-1 10.1-.3 16 8.6v-39.9z"/><path class="st13" d="M986.7 967.9v-14.5M998.9 968.6v-11.4M1011.1 972.1v-11.5"/><path class="st14" d="M967.7 945.8c-2.4-2.9-3.8-6.6-3.8-10.7 0-9.3 7.5-16.8 16.8-16.8s16.8 7.5 16.8 16.8c0 2.3-.5 4.5-1.3 6.5"/><path class="st14" d="M963.1 948.7c-3-3.8-4.8-8.6-4.8-13.8 0-12.3 10-22.3 22.3-22.3s22.3 10 22.3 22.3c0 3.1-.6 6-1.7 8.7"/></g><g><path class="st1" d="M193.8 581.6h74.6v106.8h-74.6z"/><path class="st2" d="M207.7 604.4c.3.3.8.5 1.1.5.3 0 .8-.2 1.1-.5l2.1-2.1 2.1 2.1c.3.3.8.5 1.1.5s.8-.2 1.1-.5c.6-.6.6-1.6 0-2.2l-2.1-2.1 2.1-2.1c.6-.6.6-1.6 0-2.2-.6-.6-1.6-.6-2.2 0l-2.1 2.1-2.1-2.1c-.6-.6-1.6-.6-2.2 0-.6.6-.6 1.6 0 2.2l2.1 2.1-2.1 2.1c-.6.6-.6 1.5 0 2.2z"/><path d="M224.6 600.9h29.2c1 0 1.6-.6 1.6-1.6s-.6-1.6-1.6-1.6h-29.2c-1 0-1.6.6-1.6 1.6 0 .9.7 1.6 1.6 1.6z"/><path class="st2" d="M207.7 621.9c.3.3.8.5 1.1.5.3 0 .8-.2 1.1-.5l2.1-2.1 2.1 2.1c.3.3.8.5 1.1.5s.8-.2 1.1-.5c.6-.6.6-1.6 0-2.2l-2.1-2.1 2.1-2.1c.6-.6.6-1.6 0-2.2-.6-.6-1.6-.6-2.2 0l-2.1 2.1-2.1-2.1c-.6-.6-1.6-.6-2.2 0-.6.6-.6 1.6 0 2.2l2.1 2.1-2.1 2.1c-.6.5-.6 1.6 0 2.2z"/><path d="M224.6 618.4h29.2c1 0 1.6-.6 1.6-1.6s-.6-1.6-1.6-1.6h-29.2c-1 0-1.6.6-1.6 1.6s.7 1.6 1.6 1.6z"/><path class="st2" d="M207.7 639.3c.3.3.8.5 1.1.5.3 0 .8-.2 1.1-.5l2.1-2.1 2.1 2.1c.3.3.8.5 1.1.5s.8-.2 1.1-.5c.6-.6.6-1.6 0-2.2l-2.1-2.1 2.1-2.1c.6-.6.6-1.6 0-2.2-.6-.6-1.6-.6-2.2 0l-1.9 1.9-2.1-2.1c-.6-.6-1.6-.6-2.2 0-.6.6-.6 1.6 0 2.2l2.1 2.1-2.1 2.1c-.8.8-.8 1.8-.2 2.4z"/><path d="M224.6 635.8h29.2c1 0 1.6-.6 1.6-1.6s-.6-1.6-1.6-1.6h-29.2c-1 0-1.6.6-1.6 1.6s.7 1.6 1.6 1.6z"/><path class="st2" d="M207.7 656.7c.3.3.8.5 1.1.5.3 0 .8-.2 1.1-.5l2.1-2.1 2.1 2.1c.3.3.8.5 1.1.5s.8-.2 1.1-.5c.6-.6.6-1.6 0-2.2l-2.1-2.1 2.1-2.1c.6-.6.6-1.6 0-2.2-.6-.6-1.6-.6-2.2 0l-1.9 2.1-2.1-2.1c-.6-.6-1.6-.6-2.2 0-.6.6-.6 1.6 0 2.2l2.1 2.1-2.1 2.1c-.8.6-.8 1.6-.2 2.2z"/><path d="M224.6 653.2h29.2c1 0 1.6-.6 1.6-1.6s-.6-1.6-1.6-1.6h-29.2c-1 0-1.6.6-1.6 1.6s.7 1.6 1.6 1.6z"/><path class="st2" d="M207.7 674.3c.3.3.8.5 1.1.5.3 0 .8-.2 1.1-.5l2.1-2.1 2.1 2.1c.3.3.8.5 1.1.5s.8-.2 1.1-.5c.6-.6.6-1.6 0-2.2l-2.1-2.1 2.1-2.1c.6-.6.6-1.6 0-2.2-.6-.6-1.6-.6-2.2 0l-2.1 2.1-2.1-2.1c-.6-.6-1.6-.6-2.2 0-.6.6-.6 1.6 0 2.2l2.1 2.1-2.1 2.1c-.6.4-.6 1.5 0 2.2z"/><path d="M224.6 670.8h29.2c1 0 1.6-.6 1.6-1.6s-.6-1.6-1.6-1.6h-29.2c-1 0-1.6.6-1.6 1.6 0 .9.7 1.6 1.6 1.6z"/></g><g><path class="st26" d="M641.6 132.9h26v67.5h-26z"/><path class="st16" d="M675 122.7h26v77.7h-26z"/><path class="st25" d="M708.4 143.1h26v57.3h-26z"/><path class="st0" d="M741.8 174.9h26v25.5h-26z"/></g><path class="st8" d="M1148 560l-15.8-1.6c-2.1-.1-3.9 1.4-4 3.5-.1 2.1 1.4 3.9 3.5 4l6.3.8-41 33.1-29.1-21.7-50.8 39.6c-1.6 1.3-1.9 3.7-.7 5.3.7 1 1.9 1.5 3 1.5.8 0 1.6-.3 2.3-.8l46.3-36 29.2 21.8 45.5-36.7-.8 7.2c-.3 2.1 1.1 4 3.2 4.3 2.1.3 4-1.1 4.3-3.2l2.1-16.6c.5-4.2.5-4.2-3.5-4.5z"/><g><path class="st23" d="M202.3 1142.5h5.1v2.5c0 1.8-.1 3.6-.3 5.4l-.3 2.5-5.1-.6.3-2.5c.2-1.6.3-3.2.3-4.8v-2.5zM200.5 1156.8l4.7 1.9-1 2.4c-1.4 3.4-3.2 6.6-5.5 9.5l-1.6 2-4-3.1 1.6-2c2-2.6 3.6-5.4 4.8-8.3l1-2.4zm-70.1 0l1 2.4c1.2 3 2.9 5.8 4.8 8.3l1.6 2-4 3.1-1.6-2c-2.2-2.9-4.1-6.1-5.5-9.5l-1-2.4 4.7-1.9zm59.5 15.9l3.1 4-2 1.6c-2.9 2.2-6.1 4.1-9.5 5.5l-2.4 1-2-4.7 2.4-1c3-1.2 5.8-2.9 8.3-4.8l2.1-1.6zm-48.9.1l2 1.6c2.6 2 5.4 3.6 8.3 4.8l2.4 1-1.9 4.7-2.4-1c-3.4-1.4-6.6-3.2-9.5-5.5l-2-1.6 3.1-4zm31.8 8.5l.7 5.1-2.5.3c-3.6.5-7.3.5-10.9 0l-2.5-.3.7-5.1 2.5.3c3.2.4 6.5.4 9.6 0l2.4-.3zM123.5 1142.5h5.1v2.5c0 1.6.1 3.2.3 4.8l.3 2.5-5.1.6-.3-2.5c-.2-1.8-.3-3.6-.3-5.4v-2.5zM212 1142.5h5.1v2.5c0 1.8-.1 3.6-.3 5.4l-.3 2.5-5.1-.5.3-2.5c.2-1.6.2-3.2.2-4.8v-2.6zM210.6 1156.4l4.9 1.5-.8 2.4c-1 3.2-2.3 6.3-3.9 9.3l-1.2 2.2-4.5-2.4 1.2-2.2c1.4-2.7 2.6-5.5 3.5-8.4l.8-2.4zm-90.3 0l.8 2.4c.9 2.9 2.1 5.7 3.5 8.4l1.2 2.2-4.5 2.4-1.2-2.2c-1.6-3-2.9-6.1-3.9-9.3l-.8-2.4 4.9-1.5zm82.6 16.3l3.9 3.2-1.6 2c-2.1 2.6-4.5 5-7.1 7.1l-2 1.6-3.2-3.9 2-1.6c2.3-1.9 4.5-4.1 6.4-6.4l1.6-2zm-74.9.1l1.6 2c1.9 2.3 4.1 4.5 6.4 6.4l2 1.6-3.2 4-2-1.6c-2.6-2.1-5-4.5-7.2-7.1l-1.6-2 4-3.3zm61.6 12.1l2.4 4.5-2.2 1.2c-3 1.6-6.1 2.9-9.3 3.8l-2.4.7-1.5-4.9 2.4-.7c2.9-.9 5.7-2 8.4-3.5l2.2-1.1zm-48.2.1l2.3 1.2c2.7 1.4 5.5 2.6 8.4 3.5l2.4.7-1.5 4.9-2.4-.7c-3.2-1-6.3-2.3-9.3-3.8l-2.3-1.2 2.4-4.6zm31.2 6.1l.5 5.1-2.5.2c-3.3.3-6.7.3-10.1 0l-2.5-.2.5-5.1 2.5.2c3 .3 6.1.3 9.1 0l2.5-.2zM113.8 1142.5h5.1v2.5c0 1.6.1 3.2.2 4.8l.3 2.5-5.1.5-.3-2.5c-.2-1.8-.3-3.6-.3-5.4v-2.4z"/><g><path class="st23" d="M85.8 1142.5h5.1v2.5c0 1.6.1 3.3.2 4.9l.2 2.5-5.1.3-.2-2.5c-.1-1.7-.2-3.5-.2-5.3v-2.4zM91.8 1157.2l.5 2.5c.6 3.2 1.5 6.4 2.5 9.4l.8 2.4-4.8 1.6-.8-2.4c-1.1-3.3-2-6.7-2.7-10.1l-.5-2.5 5-.9zm147.2.1l5 1-.5 2.5c-.7 3.4-1.6 6.8-2.7 10.1l-.8 2.4-4.8-1.6.8-2.4c1-3.1 1.9-6.2 2.5-9.4l.5-2.6zm-141.5 18.5l1.1 2.3c1.4 2.9 3.1 5.7 4.9 8.4l1.4 2.1-4.2 2.8-1.4-2.1c-1.9-2.9-3.7-5.9-5.2-9L93 1178l4.5-2.2zm135.9.1l4.6 2.3-1.1 2.3c-1.5 3.1-3.3 6.1-5.2 9l-1.4 2.1-4.2-2.8 1.4-2.1c1.8-2.7 3.5-5.5 4.9-8.4l1-2.4zm-125.7 16.4l1.7 1.9c2.1 2.4 4.5 4.8 6.9 6.9l1.9 1.7-3.4 3.8-1.9-1.7c-2.6-2.3-5.1-4.8-7.4-7.4l-1.7-1.9 3.9-3.3zm115.4.1l3.8 3.4-1.7 1.9c-2.3 2.6-4.8 5.1-7.4 7.3l-1.9 1.7-3.4-3.8 1.9-1.7c2.4-2.1 4.8-4.4 6.9-6.9l1.8-1.9zm-101.2 13.2l2.1 1.4c2.7 1.8 5.5 3.4 8.4 4.9l2.3 1.1-2.3 4.6-2.3-1.1c-3.1-1.5-6.1-3.3-9-5.2l-2.1-1.4 2.9-4.3zm87 .1l2.8 4.2-2.1 1.4c-2.9 1.9-5.9 3.7-9 5.2l-2.3 1.1-2.3-4.6 2.3-1.1c2.9-1.4 5.7-3.1 8.4-4.9l2.2-1.3zm-69.9 9.2l2.4.8c3.1 1 6.2 1.9 9.4 2.5l2.5.5-1 5-2.5-.5c-3.4-.7-6.8-1.6-10.1-2.7l-2.4-.8 1.7-4.8zm52.8 0l1.6 4.8-2.4.8c-3.3 1.1-6.7 2-10.1 2.7l-2.5.5-1-5 2.5-.5c3.2-.6 6.4-1.5 9.4-2.5l2.5-.8zm-33.8 4.4l2.5.2c3.2.2 6.5.2 9.7 0l2.5-.2.3 5.1-2.5.2c-3.4.2-6.9.2-10.4 0l-2.5-.2.4-5.1zM240 1142.5h5.1v2.5c0 1.7-.1 3.5-.2 5.3l-.2 2.5-5.1-.3.2-2.5c.1-1.6.2-3.3.2-4.9v-2.6z"/></g><g><path class="st23" d="M94.7 1142.5h5.1v2.5c0 1.6.1 3.3.2 4.9l.2 2.5-5.1.4-.2-2.5c-.1-1.7-.2-3.5-.2-5.3v-2.5zM100.8 1156.7l.5 2.5c.7 3 1.6 6 2.7 9l.9 2.4-4.8 1.8-.9-2.4c-1.2-3.1-2.1-6.4-2.9-9.7l-.5-2.5 5-1.1zm129.3.1l5 1.1-.6 2.5c-.7 3.3-1.7 6.5-2.9 9.6l-.9 2.4-4.8-1.8.9-2.4c1.1-2.9 2-5.9 2.7-8.9l.6-2.5zm-123.4 17.6l1.2 2.2c1.5 2.7 3.2 5.4 5.1 7.8l1.5 2-4.1 3.1-1.5-2c-2-2.7-3.9-5.5-5.5-8.5l-1.2-2.2 4.5-2.4zm117.5.1l4.5 2.5-1.2 2.2c-1.6 2.9-3.5 5.8-5.5 8.4l-1.5 2-4.1-3.1 1.5-2c1.9-2.5 3.6-5.1 5.1-7.8l1.2-2.2zm-106.9 15.2l1.8 1.8c2.2 2.2 4.6 4.3 7.1 6.1l2 1.5-3.1 4.1-2-1.5c-2.7-2-5.2-4.2-7.6-6.6l-1.8-1.8 3.6-3.6zm96.2.1l3.6 3.6-1.8 1.8c-2.4 2.4-4.9 4.6-7.6 6.6l-2 1.5-3-4.1 2-1.5c2.5-1.9 4.9-3.9 7.1-6.1l1.7-1.8zm-81.7 11.7l2.2 1.2c2.7 1.5 5.6 2.8 8.5 3.9l2.4.9-1.8 4.8-2.4-.9c-3.1-1.2-6.2-2.6-9.2-4.2l-2.2-1.2 2.5-4.5zm67.2 0l2.4 4.5-2.2 1.2c-2.9 1.6-6 3-9.2 4.2l-2.4.9-1.8-4.8 2.4-.9c2.9-1.1 5.8-2.4 8.5-3.9l2.3-1.2zm-50 7.2l2.5.5c3 .7 6.1 1.1 9.2 1.3l2.5.2-.4 5.1-2.5-.2c-3.3-.2-6.7-.7-10-1.4l-2.5-.5 1.2-5zm32.8 0l1.1 5-2.5.5c-3.3.7-6.6 1.2-10 1.4l-2.5.2-.4-5.1 2.5-.2c3.1-.2 6.2-.7 9.2-1.3l2.6-.5zM231.1 1142.5h5.1v2.5c0 1.8-.1 3.5-.2 5.3l-.2 2.5-5.1-.4.2-2.5c.1-1.6.2-3.3.2-4.9v-2.5z"/></g><g><path class="st23" d="M104.3 1142.5h5.1v2.5c0 1.6.1 3.3.2 4.9l.2 2.5-5.1.4-.2-2.5c-.2-1.8-.2-3.5-.2-5.3v-2.5zM110.6 1157.1l.7 2.5c.8 3.1 2 6.2 3.3 9.2l1.1 2.3-4.6 2.2-1.1-2.3c-1.5-3.2-2.7-6.6-3.6-10l-.7-2.5 4.9-1.4zm109.7.1l4.9 1.3-.7 2.5c-.9 3.4-2.2 6.8-3.7 10l-1.1 2.3-4.6-2.2 1.1-2.3c1.4-2.9 2.5-6 3.4-9.2l.7-2.4zM118 1175.1l1.5 2.1c1.9 2.7 4 5.2 6.3 7.5l1.8 1.8-3.6 3.6-1.8-1.8c-2.5-2.5-4.8-5.3-6.9-8.2l-1.5-2.1 4.2-2.9zm94.8.1l4.2 2.9-1.5 2.1c-2 2.9-4.3 5.6-6.9 8.2l-1.8 1.8-3.6-3.6 1.8-1.8c2.3-2.3 4.4-4.8 6.3-7.5l1.5-2.1zm-81.6 14.3l2.1 1.5c2.7 1.9 5.5 3.5 8.5 4.9l2.3 1.1-2.2 4.6-2.3-1.1c-3.2-1.5-6.3-3.3-9.2-5.3l-2.1-1.5 2.9-4.2zm68.4.1l2.9 4.2-2.1 1.5c-2.9 2-6 3.8-9.2 5.3l-2.3 1.1-2.2-4.6 2.3-1.1c2.9-1.4 5.8-3 8.5-4.9l2.1-1.5zm-51.2 9l2.5.7c3.1.8 6.4 1.4 9.6 1.7l2.5.2-.4 5.1-2.5-.2c-3.5-.3-7.1-.9-10.5-1.8l-2.5-.7 1.3-5zm34 0l1.3 4.9-2.5.7c-3.4.9-7 1.5-10.5 1.8l-2.5.2-.4-5.1 2.5-.2c3.3-.3 6.5-.8 9.6-1.7l2.5-.6zM221.5 1142.5h5.1v2.5c0 1.8-.1 3.6-.2 5.3l-.2 2.5-5.1-.4.2-2.5c.1-1.6.2-3.3.2-4.9v-2.5z"/></g><g><path class="st24" d="M113.4 1103.4h104.2v5.1H113.4zM216.6 1031.8H114.4v-2.9l51.2-10.9 51 10.9zM216.6 1042v-5.2H114.4v5.2h8.1v50.9h-4.4v5.1h27.6v-5.1h-4.3V1042H156v50.9h-4.4v5.1h27.7v-5.1h-4.4V1042h14.6v50.9h-4.4v5.1h27.7v-5.1h-4.4V1042z"/></g></g><g><path class="st23" d="M686.5 636.7h5.1v2.5c0 1.8-.1 3.6-.3 5.4l-.3 2.5-5.1-.6.3-2.5c.2-1.6.3-3.2.3-4.8v-2.5zM684.6 651l4.7 1.9-1 2.4c-1.4 3.4-3.2 6.6-5.5 9.5l-1.6 2-4-3.1 1.6-2c2-2.6 3.6-5.4 4.8-8.3l1-2.4zm-70 0l1 2.4c1.2 3 2.9 5.8 4.8 8.3l1.6 2-4 3.1-1.6-2c-2.2-2.9-4.1-6.1-5.5-9.5l-1-2.4 4.7-1.9zm59.5 15.9l3.1 4-2 1.6c-2.9 2.2-6.1 4.1-9.5 5.5l-2.4 1-2-4.7 2.4-1c3-1.2 5.8-2.9 8.3-4.8l2.1-1.6zm-48.9.1l2 1.6c2.6 2 5.4 3.6 8.3 4.8l2.4 1-1.9 4.7-2.4-1c-3.4-1.4-6.6-3.2-9.5-5.5l-2-1.6 3.1-4zm31.8 8.5l.7 5.1-2.5.3c-3.6.5-7.3.5-10.9 0l-2.5-.3.7-5.1 2.5.3c3.2.4 6.5.4 9.6 0l2.4-.3zM607.7 636.7h5.1v2.5c0 1.6.1 3.2.3 4.8l.3 2.5-5.1.6-.3-2.5c-.2-1.8-.3-3.6-.3-5.4v-2.5zM696.1 636.7h5.1v2.5c0 1.8-.1 3.6-.3 5.4l-.3 2.5-5.1-.5.3-2.5c.2-1.6.2-3.2.2-4.8v-2.6zM694.8 650.6l4.9 1.5-.8 2.4c-1 3.2-2.3 6.3-3.9 9.3l-1.2 2.2-4.5-2.4 1.2-2.2c1.4-2.7 2.6-5.5 3.5-8.4l.8-2.4zm-90.4 0l.8 2.4c.9 2.9 2.1 5.7 3.5 8.4l1.2 2.2-4.5 2.4-1.2-2.2c-1.6-3-2.9-6.1-3.9-9.3l-.8-2.4 4.9-1.5zm82.7 16.3l3.9 3.2-1.6 2c-2.1 2.6-4.5 5-7.1 7.1l-2 1.6-3.2-3.9 2-1.6c2.3-1.9 4.5-4.1 6.4-6.4l1.6-2zm-74.9.1l1.6 2c1.9 2.3 4.1 4.5 6.4 6.4l2 1.6-3.2 4-2-1.6c-2.6-2.1-5-4.5-7.2-7.1l-1.6-2 4-3.3zm61.5 12.1l2.4 4.5-2.2 1.2c-3 1.6-6.1 2.9-9.3 3.8l-2.4.7-1.5-4.9 2.4-.7c2.9-.9 5.7-2 8.4-3.5l2.2-1.1zm-48.2.1l2.3 1.2c2.7 1.4 5.5 2.6 8.4 3.5l2.4.7-1.5 4.9-2.4-.7c-3.2-1-6.3-2.3-9.3-3.8l-2.3-1.2 2.4-4.6zm31.2 6.1l.5 5.1-2.5.2c-3.3.3-6.7.3-10.1 0l-2.5-.2.5-5.1 2.5.2c3 .3 6.1.3 9.1 0l2.5-.2zM598 636.7h5.1v2.5c0 1.6.1 3.2.2 4.8l.3 2.5-5.1.5-.3-2.5c-.2-1.8-.3-3.6-.3-5.4v-2.4z"/><g><path class="st23" d="M570 636.7h5.1v2.5c0 1.6.1 3.3.2 4.9l.2 2.5-5.1.3-.2-2.5c-.1-1.7-.2-3.5-.2-5.3v-2.4zM576 651.4l.5 2.5c.6 3.2 1.5 6.4 2.5 9.4l.8 2.4-4.8 1.6-.8-2.4c-1.1-3.3-2-6.7-2.7-10.1l-.5-2.5 5-.9zm147.2.1l5 1-.5 2.5c-.7 3.4-1.6 6.8-2.7 10.1l-.8 2.4-4.8-1.6.8-2.4c1-3.1 1.9-6.2 2.5-9.4l.5-2.6zM581.6 670l1.1 2.3c1.4 2.9 3.1 5.7 4.9 8.4l1.4 2.1-4.2 2.8-1.4-2.1c-1.9-2.9-3.7-5.9-5.2-9l-1.1-2.3 4.5-2.2zm136 .1l4.6 2.3-1.1 2.3c-1.5 3.1-3.3 6.1-5.2 9l-1.4 2.1-4.2-2.8 1.4-2.1c1.8-2.7 3.5-5.5 4.9-8.4l1-2.4zm-125.7 16.4l1.7 1.9c2.1 2.4 4.5 4.8 6.9 6.9l1.9 1.7-3.4 3.8-1.9-1.7c-2.6-2.3-5.1-4.8-7.4-7.4l-1.7-1.9 3.9-3.3zm115.4.1l3.8 3.4-1.7 1.9c-2.3 2.6-4.8 5.1-7.4 7.4l-1.9 1.7-3.4-3.8 1.9-1.7c2.4-2.1 4.8-4.4 6.9-6.9l1.8-2zm-101.2 13.3l2.1 1.4c2.7 1.8 5.5 3.4 8.4 4.9l2.3 1.1-2.3 4.6-2.3-1.1c-3.1-1.5-6.1-3.3-9-5.2l-2.1-1.4 2.9-4.3zm87 0l2.8 4.2-2.1 1.4c-2.9 1.9-5.9 3.7-9 5.2l-2.3 1.1-2.3-4.6 2.3-1.1c2.9-1.4 5.7-3.1 8.4-4.9l2.2-1.3zm-69.9 9.2l2.4.8c3.1 1 6.2 1.9 9.4 2.5l2.5.5-1 5-2.5-.5c-3.4-.7-6.8-1.6-10.1-2.7l-2.4-.8 1.7-4.8zm52.7 0l1.6 4.8-2.4.8c-3.3 1.1-6.7 2-10.1 2.7l-2.5.5-1-5 2.5-.5c3.2-.6 6.4-1.5 9.4-2.5l2.5-.8zm-33.8 4.4l2.5.2c3.2.2 6.5.2 9.7 0l2.5-.2.3 5.1-2.5.2c-3.4.2-6.9.2-10.4 0l-2.5-.2.4-5.1zM724.2 636.7h5.1v2.5c0 1.7-.1 3.5-.2 5.3l-.2 2.5-5.1-.3.2-2.5c.1-1.6.2-3.3.2-4.9v-2.6z"/></g><g><path class="st23" d="M578.9 636.7h5.1v2.5c0 1.6.1 3.3.2 4.9l.2 2.5-5.1.4-.2-2.5c-.1-1.7-.2-3.5-.2-5.3v-2.5zM585 650.9l.5 2.5c.7 3 1.6 6 2.7 9l.9 2.4-4.8 1.8-.9-2.4c-1.2-3.1-2.1-6.4-2.9-9.7l-.5-2.5 5-1.1zm129.2.1l5 1.1-.6 2.5c-.7 3.3-1.7 6.5-2.9 9.6l-.9 2.4-4.8-1.8.9-2.4c1.1-2.9 2-5.9 2.7-8.9l.6-2.5zm-123.4 17.6l1.2 2.2c1.5 2.7 3.2 5.4 5.1 7.8l1.5 2-4.1 3.1-1.5-2c-2-2.7-3.9-5.5-5.5-8.5l-1.2-2.2 4.5-2.4zm117.5.1l4.5 2.5-1.2 2.2c-1.6 2.9-3.5 5.8-5.5 8.4l-1.5 2-4.1-3.1 1.5-2c1.9-2.5 3.6-5.1 5.1-7.8l1.2-2.2zM601.5 684l1.8 1.8c2.2 2.2 4.6 4.3 7.1 6.1l2 1.5-3.1 4.1-2-1.5c-2.7-2-5.2-4.2-7.6-6.6l-1.8-1.8 3.6-3.6zm96.2 0l3.6 3.6-1.8 1.8c-2.4 2.4-4.9 4.6-7.6 6.6l-2 1.5-3-4.1 2-1.5c2.5-1.9 4.9-3.9 7.1-6.1l1.7-1.8zM616 695.7l2.2 1.2c2.7 1.5 5.6 2.8 8.5 3.9l2.4.9-1.8 4.8-2.4-.9c-3.1-1.2-6.2-2.6-9.2-4.2l-2.2-1.2 2.5-4.5zm67.2 0l2.4 4.5-2.2 1.2c-2.9 1.6-6 3-9.2 4.2l-2.4.9-1.8-4.8 2.4-.9c2.9-1.1 5.8-2.4 8.5-3.9l2.3-1.2zm-50 7.2l2.5.5c3 .7 6.1 1.1 9.2 1.3l2.5.2-.4 5.1-2.5-.2c-3.3-.2-6.7-.7-10-1.4l-2.5-.5 1.2-5zm32.8 0l1.1 5-2.5.5c-3.3.7-6.6 1.2-10 1.4l-2.6.2-.4-5.1 2.5-.2c3.1-.2 6.2-.7 9.2-1.3l2.7-.5zM715.2 636.7h5.1v2.5c0 1.8-.1 3.5-.2 5.3l-.2 2.5-5.1-.4.2-2.5c.1-1.6.2-3.3.2-4.9v-2.5z"/></g><g><path class="st23" d="M588.4 636.7h5.1v2.5c0 1.6.1 3.3.2 4.9l.2 2.5-5.1.4-.2-2.5c-.2-1.8-.2-3.5-.2-5.3v-2.5zM594.8 651.3l.7 2.5c.8 3.1 2 6.2 3.3 9.2l1.1 2.3-4.6 2.2-1.1-2.3c-1.5-3.2-2.7-6.6-3.6-10l-.7-2.5 4.9-1.4zm109.6.1l4.9 1.3-.7 2.5c-.9 3.4-2.2 6.8-3.7 10l-1.1 2.3-4.6-2.2 1.1-2.3c1.4-2.9 2.5-6 3.4-9.2l.7-2.4zm-102.2 17.9l1.5 2.1c1.9 2.7 4 5.2 6.3 7.5l1.8 1.8-3.6 3.6-1.8-1.8c-2.5-2.5-4.8-5.3-6.9-8.2l-1.5-2.1 4.2-2.9zm94.8.1l4.2 2.9-1.5 2.1c-2 2.9-4.3 5.6-6.9 8.2l-1.8 1.8-3.6-3.6 1.8-1.8c2.3-2.3 4.4-4.8 6.3-7.5l1.5-2.1zm-81.7 14.3l2.1 1.5c2.7 1.9 5.5 3.5 8.5 4.9l2.3 1.1-2.2 4.6-2.3-1.1c-3.2-1.5-6.3-3.3-9.2-5.3l-2.1-1.5 2.9-4.2zm68.5.1l2.9 4.2-2.1 1.5c-2.9 2-6 3.8-9.2 5.3l-2.3 1.1-2.2-4.6 2.3-1.1c2.9-1.4 5.8-3 8.5-4.9l2.1-1.5zm-51.2 9l2.5.7c3.1.8 6.4 1.4 9.6 1.7l2.5.2-.4 5.1-2.5-.2c-3.5-.3-7.1-.9-10.5-1.8l-2.5-.7 1.3-5zm33.9 0l1.3 4.9-2.5.7c-3.4.9-7 1.5-10.5 1.8l-2.5.2-.4-5.1 2.5-.2c3.3-.3 6.5-.8 9.6-1.7l2.5-.6zM705.7 636.7h5.1v2.5c0 1.8-.1 3.6-.2 5.3l-.2 2.5-5.1-.4.2-2.5c.1-1.6.2-3.3.2-4.9v-2.5z"/></g><g><path class="st24" d="M597.5 597.6h104.2v5.1H597.5zM700.7 526H598.6v-2.9l51.1-10.9 51 10.9zM700.7 536.2V531H598.6v5.2h8v50.9h-4.3v5.2h27.6v-5.2h-4.4v-50.9h14.7v50.9h-4.4v5.2h27.6v-5.2H659v-50.9h14.7v50.9h-4.4v5.2H697v-5.2h-4.4v-50.9z"/></g></g><g><path class="st23" d="M1126.1 175.5h5.1v2.5c0 1.8-.1 3.6-.3 5.4l-.3 2.5-5.1-.6.3-2.5c.2-1.6.3-3.2.3-4.8v-2.5zM1124.3 189.7l4.7 1.9-1 2.4c-1.4 3.4-3.2 6.6-5.5 9.5l-1.6 2-4-3.1 1.6-2c2-2.6 3.6-5.4 4.8-8.3l1-2.4zm-70 .1l1 2.4c1.2 3 2.9 5.8 4.8 8.3l1.6 2-4 3.1-1.6-2c-2.2-2.9-4.1-6.1-5.5-9.5l-1-2.4 4.7-1.9zm59.4 15.9l3.1 4-2 1.6c-2.9 2.2-6.1 4.1-9.5 5.5l-2.4 1-2-4.7 2.4-1c3-1.2 5.8-2.9 8.3-4.8l2.1-1.6zm-48.9 0l2 1.6c2.6 2 5.4 3.6 8.3 4.8l2.4 1-1.9 4.7-2.4-1c-3.4-1.4-6.6-3.2-9.5-5.5l-2-1.6 3.1-4zm31.8 8.5l.7 5.1-2.5.3c-3.6.5-7.3.5-10.9 0l-2.5-.3.7-5.1 2.5.3c3.2.4 6.5.4 9.6 0l2.4-.3zM1047.3 175.5h5.1v2.5c0 1.6.1 3.2.3 4.8l.3 2.5-5.1.6-.3-2.5c-.2-1.8-.3-3.6-.3-5.4v-2.5zM1135.8 175.5h5.1v2.5c0 1.8-.1 3.6-.3 5.4l-.3 2.5-5.1-.5.3-2.5c.2-1.6.2-3.2.2-4.8v-2.6zM1134.5 189.3l4.9 1.5-.8 2.4c-1 3.2-2.3 6.3-3.9 9.3l-1.2 2.2-4.5-2.4 1.2-2.2c1.4-2.7 2.6-5.5 3.5-8.4l.8-2.4zm-90.4.1l.8 2.4c.9 2.9 2.1 5.7 3.5 8.4l1.2 2.2-4.5 2.4-1.2-2.2c-1.6-3-2.9-6.1-3.9-9.3l-.8-2.4 4.9-1.5zm82.7 16.3l3.9 3.2-1.6 2c-2.1 2.6-4.5 5-7.1 7.1l-2 1.6-3.2-3.9 2-1.6c2.3-1.9 4.5-4.1 6.4-6.4l1.6-2zm-75 0l1.6 2c1.9 2.3 4.1 4.5 6.4 6.4l2 1.6-3.2 3.9-2-1.6c-2.6-2.1-5-4.5-7.2-7.1l-1.6-2 4-3.2zm61.6 12.2l2.4 4.5-2.2 1.2c-3 1.6-6.1 2.9-9.3 3.8l-2.4.7-1.5-4.9 2.4-.7c2.9-.9 5.7-2 8.4-3.5l2.2-1.1zm-48.2 0l2.2 1.2c2.7 1.4 5.5 2.6 8.4 3.5l2.4.7-1.5 4.9-2.4-.7c-3.2-1-6.3-2.3-9.3-3.8l-2.3-1.2 2.5-4.6zm31.2 6.2l.5 5.1-2.5.2c-3.3.3-6.7.3-10.1 0l-2.5-.2.5-5.1 2.5.2c3 .3 6.1.3 9.1 0l2.5-.2zM1037.7 175.5h5.1v2.5c0 1.6.1 3.2.2 4.8l.3 2.5-5.1.5-.3-2.5c-.2-1.8-.3-3.6-.3-5.4v-2.4z"/><g><path class="st23" d="M1009.6 175.5h5.1v2.5c0 1.6.1 3.3.2 4.9l.2 2.5-5.1.3-.2-2.5c-.1-1.7-.2-3.5-.2-5.3v-2.4zM1015.7 190.1l.5 2.5c.6 3.2 1.5 6.4 2.5 9.4l.8 2.4-4.8 1.6-.8-2.4c-1.1-3.3-2-6.7-2.7-10.1l-.5-2.5 5-.9zm147.2.1l5 1-.5 2.5c-.7 3.4-1.6 6.8-2.7 10.1l-.8 2.4-4.8-1.6.8-2.4c1-3.1 1.9-6.2 2.5-9.4l.5-2.6zm-141.6 18.5l1.1 2.3c1.4 2.9 3.1 5.7 4.9 8.4l1.4 2.1-4.2 2.8-1.4-2.1c-1.9-2.9-3.7-5.9-5.2-9l-1.1-2.3 4.5-2.2zm135.9.1l4.6 2.3-1.1 2.3c-1.5 3.1-3.3 6.1-5.2 9l-1.4 2.1-4.2-2.8 1.4-2.1c1.8-2.7 3.5-5.5 4.9-8.4l1-2.4zm-125.6 16.5l1.7 1.9c2.1 2.4 4.5 4.8 6.9 6.9l1.9 1.7-3.4 3.8-1.9-1.7c-2.6-2.3-5.1-4.8-7.4-7.4l-1.7-1.9 3.9-3.3zm115.3 0l3.8 3.4-1.7 1.9c-2.3 2.6-4.8 5.1-7.4 7.4l-1.9 1.7-3.4-3.8 1.9-1.7c2.4-2.1 4.8-4.4 6.9-6.9l1.8-2zm-101.2 13.3l2.1 1.4c2.7 1.8 5.5 3.4 8.4 4.9l2.3 1.1-2.3 4.6-2.3-1.1c-3.1-1.5-6.1-3.3-9-5.2l-2.1-1.4 2.9-4.3zm87 0l2.8 4.2-2.1 1.4c-2.9 1.9-5.9 3.7-9 5.2l-2.3 1.1-2.3-4.6 2.3-1.1c2.9-1.4 5.7-3.1 8.4-4.9l2.2-1.3zm-69.8 9.2l2.4.8c3.1 1 6.2 1.9 9.4 2.5l2.5.5-1 5-2.5-.5c-3.4-.7-6.8-1.6-10.1-2.7l-2.4-.8 1.7-4.8zm52.7 0l1.6 4.8-2.4.8c-3.3 1.1-6.7 2-10.1 2.7l-2.5.5-1-5 2.5-.5c3.2-.6 6.4-1.5 9.4-2.5l2.5-.8zm-33.8 4.4l2.5.2c3.2.2 6.5.2 9.7 0l2.5-.2.3 5.1-2.5.2c-3.4.2-6.9.2-10.4 0l-2.5-.2.4-5.1zM1163.8 175.5h5.1v2.5c0 1.7-.1 3.5-.2 5.3l-.2 2.5-5.1-.3.2-2.5c.1-1.6.2-3.3.2-4.9v-2.6z"/></g><g><path class="st23" d="M1018.5 175.5h5.1v2.5c0 1.6.1 3.3.2 4.9l.2 2.5-5.1.4-.2-2.5c-.1-1.7-.2-3.5-.2-5.3v-2.5zM1024.6 189.7l.5 2.5c.7 3 1.6 6 2.7 9l.9 2.4-4.8 1.8-.9-2.4c-1.2-3.1-2.1-6.4-2.9-9.7l-.5-2.5 5-1.1zm129.3.1l5 1.1-.6 2.5c-.7 3.3-1.7 6.5-2.9 9.6l-.9 2.4-4.8-1.8.9-2.4c1.1-2.9 2-5.9 2.7-8.9l.6-2.5zm-123.4 17.6l1.2 2.2c1.5 2.7 3.2 5.4 5.1 7.8l1.5 2-4.1 3.1-1.5-2c-2-2.7-3.9-5.5-5.5-8.5l-1.2-2.2 4.5-2.4zm117.5.1l4.5 2.5-1.2 2.2c-1.6 2.9-3.5 5.8-5.5 8.4l-1.5 2-4.1-3.1 1.5-2c1.9-2.5 3.6-5.1 5.1-7.8l1.2-2.2zm-106.9 15.2l1.8 1.8c2.2 2.2 4.6 4.3 7.1 6.1l2 1.5-3.1 4.1-2-1.5c-2.7-2-5.2-4.2-7.6-6.6l-1.8-1.8 3.6-3.6zm96.3.1l3.6 3.6-1.8 1.8c-2.4 2.4-4.9 4.6-7.6 6.6l-2 1.5-3-4.1 2-1.5c2.5-1.9 4.9-3.9 7.1-6.1l1.7-1.8zm-81.8 11.6l2.2 1.2c2.7 1.5 5.6 2.8 8.5 3.9l2.4.9-1.8 4.8-2.4-.9c-3.1-1.2-6.2-2.6-9.2-4.2l-2.2-1.2 2.5-4.5zm67.2.1l2.4 4.5-2.2 1.2c-2.9 1.6-6 3-9.2 4.2l-2.4.9-1.8-4.8 2.4-.9c2.9-1.1 5.8-2.4 8.5-3.9l2.3-1.2zm-50 7.1l2.5.5c3 .7 6.1 1.1 9.2 1.3l2.5.2-.4 5.1-2.5-.2c-3.3-.2-6.7-.7-10-1.4l-2.5-.5 1.2-5zm32.8 0l1.1 5-2.5.5c-3.3.7-6.6 1.2-10 1.4l-2.5.2-.4-5.1 2.5-.2c3.1-.2 6.2-.7 9.2-1.3l2.6-.5zM1154.9 175.5h5.1v2.5c0 1.8-.1 3.5-.2 5.3l-.2 2.5-5.1-.4.2-2.5c.1-1.6.2-3.3.2-4.9v-2.5z"/></g><g><path class="st23" d="M1028.1 175.5h5.1v2.5c0 1.6.1 3.3.2 4.9l.2 2.5-5.1.4-.2-2.5c-.2-1.8-.2-3.5-.2-5.3v-2.5zM1034.4 190.1l.7 2.5c.8 3.1 2 6.2 3.3 9.2l1.1 2.3-4.6 2.2-1.1-2.3c-1.5-3.2-2.7-6.6-3.6-10l-.7-2.5 4.9-1.4zm109.7 0l4.9 1.3-.7 2.5c-.9 3.4-2.2 6.8-3.7 10l-1.1 2.3-4.6-2.2 1.1-2.3c1.4-2.9 2.5-6 3.4-9.2l.7-2.4zm-102.2 18l1.5 2.1c1.9 2.7 4 5.2 6.3 7.5l1.8 1.8-3.6 3.6-1.8-1.8c-2.5-2.5-4.8-5.3-6.9-8.2l-1.5-2.1 4.2-2.9zm94.7 0l4.2 2.9-1.5 2.1c-2 2.9-4.3 5.6-6.9 8.2l-1.8 1.8-3.6-3.6 1.8-1.8c2.3-2.3 4.4-4.8 6.3-7.5l1.5-2.1zm-81.6 14.4l2.1 1.5c2.7 1.9 5.5 3.5 8.5 4.9l2.3 1.1-2.2 4.6-2.3-1.1c-3.2-1.5-6.3-3.3-9.2-5.3l-2.1-1.5 2.9-4.2zm68.5 0l2.9 4.2-2.1 1.5c-2.9 2-6 3.8-9.2 5.3l-2.3 1.1-2.2-4.6 2.3-1.1c2.9-1.4 5.8-3 8.5-4.9l2.1-1.5zm-51.2 9l2.5.7c3.1.8 6.4 1.4 9.6 1.7l2.5.2-.4 5.1-2.5-.2c-3.5-.3-7.1-.9-10.5-1.8l-2.5-.7 1.3-5zm33.9 0l1.3 4.9-2.5.7c-3.4.9-7 1.5-10.5 1.8l-2.5.2-.4-5.1 2.5-.2c3.3-.3 6.5-.8 9.6-1.7l2.5-.6zM1145.3 175.5h5.1v2.5c0 1.8-.1 3.6-.2 5.3l-.2 2.5-5.1-.4.2-2.5c.1-1.6.2-3.3.2-4.9v-2.5z"/></g><g><path class="st24" d="M1037.2 136.3h104.2v5.1h-104.2zM1140.4 64.8h-102.2v-3l51.2-10.8 51 10.8zM1140.4 74.9v-5.1h-102.2v5.1h8.1v50.9h-4.4v5.2h27.7v-5.2h-4.4V74.9h14.6v50.9h-4.4v5.2h27.7v-5.2h-4.4V74.9h14.6v50.9h-4.3v5.2h27.6v-5.2h-4.4V74.9z"/></g></g><g><path class="st27" d="M633.4 1068v5.4h-6.8c-1.9 0-2.7.9-2.7 3.2v12.9c0 4.8-1.8 6.3-4.2 7 2.4.7 4.2 2.1 4.2 7v12.9c0 2.3.8 3.2 2.7 3.2h6.8v5.4h-8.3c-3.6 0-6-2.9-6-7.1v-12.3c0-5-2.4-6.4-6-6.4v-5.4c3.6 0 6-1.4 6-6.4v-12.3c0-4.3 2.4-7.1 6-7.1h8.3m0-3h-8.3c-5.3 0-9 4.2-9 10.1v12.3c0 2.8-.6 3.4-3 3.4-1.7 0-3 1.3-3 3v5.4c0 1.7 1.3 3 3 3 2.4 0 3 .6 3 3.4v12.3c0 6 3.7 10.1 9 10.1h8.3c1.7 0 3-1.3 3-3v-5.4c0-1.7-1.3-3-3-3H627v-13.1c0-3-.6-5.3-1.9-7 1.3-1.7 1.9-4 1.9-7v-12.9-.2h6.5c1.7 0 3-1.3 3-3v-5.4c-.1-1.7-1.4-3-3.1-3zM663.7 1068l-16.4 57h-5.2l16.4-57h5.2m0-3h-5.2c-1.3 0-2.5.9-2.9 2.2l-16.4 57c-.3.9-.1 1.9.5 2.6.6.8 1.5 1.2 2.4 1.2h5.2c1.3 0 2.5-.9 2.9-2.2l16.4-57c.3-.9.1-1.9-.5-2.6-.6-.8-1.5-1.2-2.4-1.2zM681 1068c3.6 0 6 2.8 6 7.1v12.3c0 5 2.4 6.4 6 6.4v5.4c-3.6 0-6 1.4-6 6.4v12.3c0 4.3-2.4 7.1-6 7.1h-8.3v-5.4h6.8c1.9 0 2.7-.9 2.7-3.2v-12.9c0-4.8 1.8-6.3 4.2-7-2.4-.7-4.2-2.1-4.2-7v-12.9c0-2.3-.8-3.2-2.7-3.2h-6.8v-5.4h8.3m0-3h-8.3c-1.7 0-3 1.3-3 3v5.4c0 1.7 1.3 3 3 3h6.5v13.1c0 3 .6 5.3 1.9 7-1.3 1.7-1.9 4-1.9 7v13.1h-6.5c-1.7 0-3 1.3-3 3v5.4c0 1.7 1.3 3 3 3h8.3c5.3 0 9-4.2 9-10.1v-12.3c0-2.8.6-3.4 3-3.4 1.7 0 3-1.3 3-3v-5.4c0-1.7-1.3-3-3-3-2.4 0-3-.6-3-3.4v-12.3c0-5.9-3.7-10.1-9-10.1z"/></g></g></svg>