<svg xmlns="http://www.w3.org/2000/svg" viewBox="0 0 1280 1928"><style>.st0{fill:none;stroke:#1b1464;stroke-width:3;stroke-miterlimit:10}.st1{fill:#fff}.st2{fill:#f36}.st3{fill:#cbcbcb;stroke-width:3;stroke-miterlimit:10}.st3,.st4,.st5{stroke:#000;stroke-linejoin:round}.st4{stroke-width:3;stroke-miterlimit:10;fill:#fff}.st5{fill:none}.st10,.st5,.st6,.st7,.st8,.st9{stroke-width:3;stroke-miterlimit:10}.st6{stroke-linejoin:round;fill:#fffd6b;stroke:#ff1d25}.st10,.st7,.st8,.st9{fill:none;stroke:#2e4cd9}.st10,.st8,.st9{stroke:#2543cc}.st10,.st9{stroke:#662d90}.st10{stroke:#92278e}.st11,.st12,.st13{stroke-linecap:round;stroke-linejoin:round}.st11{stroke:#000;stroke-width:3;stroke-miterlimit:10;fill:#e9cabf}.st12,.st13{fill:none}.st12{stroke-width:3;stroke-miterlimit:10;stroke:#2e3191}.st13{stroke:#000}.st13,.st14,.st15,.st16,.st17,.st18{stroke-width:3;stroke-miterlimit:10}.st14{stroke-linecap:round;stroke-linejoin:round;fill:none;stroke:#0f0}.st15,.st16,.st17,.st18{fill:#fff;stroke:#ff5417}.st16,.st17,.st18{fill:none;stroke:#000}.st17,.st18{stroke:#b2b2b2}.st18{stroke:#fff}.st19{fill:#662d90}.st20,.st21,.st22{stroke:#000;stroke-width:3;stroke-miterlimit:10}.st20{stroke-linejoin:round;fill:#fffd6b}.st21,.st22{fill:#ff1d25}.st22{fill:none;stroke:#ff1d25}.st23{fill:gray}.st24,.st25,.st26{fill:none;stroke-width:3;stroke-miterlimit:10}.st24{stroke-linecap:round;stroke:#a6c4d5}.st25,.st26{stroke:#d138cb}.st26{stroke:#2bf04c}.st27{fill:#f0f}</style><g id="MUSTER"><circle class="st0" cx="92.2" cy="1417.3" r="45.9"/><path class="st0" d="M62.7 1451.2l29.5-33.9M92.2 1417.3v-45.9M134.8 1402l-42.6 15.3M129.3 1443.5l-37.1-26.2"/><path class="st1" d="M184.8 1598.1h74.6v106.8h-74.6z"/><path class="st2" d="M198.7 1620.9c.3.3.8.5 1.1.5.3 0 .8-.2 1.1-.5l2.1-2.1 2.1 2.1c.3.3.8.5 1.1.5s.8-.2 1.1-.5c.6-.6.6-1.6 0-2.2l-2.1-2.1 2.1-2.1c.6-.6.6-1.6 0-2.2-.6-.6-1.6-.6-2.2 0l-2.1 2.1-2.1-2.1c-.6-.6-1.6-.6-2.2 0-.6.6-.6 1.6 0 2.2l2.1 2.1-2.1 2.1c-.6.6-.6 1.5 0 2.2z"/><path d="M215.6 1617.3h29.2c1 0 1.6-.6 1.6-1.6s-.6-1.6-1.6-1.6h-29.2c-1 0-1.6.6-1.6 1.6s.7 1.6 1.6 1.6z"/><path class="st2" d="M198.7 1638.4c.3.3.8.5 1.1.5.3 0 .8-.2 1.1-.5l2.1-2.1 2.1 2.1c.3.3.8.5 1.1.5s.8-.2 1.1-.5c.6-.6.6-1.6 0-2.2l-2.1-2.1 2.1-2.1c.6-.6.6-1.6 0-2.2-.6-.6-1.6-.6-2.2 0l-2.1 2.1-2.1-2.1c-.6-.6-1.6-.6-2.2 0-.6.6-.6 1.6 0 2.2l2.1 2.1-2.1 2.1c-.6.5-.6 1.6 0 2.2z"/><path d="M215.6 1634.9h29.2c1 0 1.6-.6 1.6-1.6s-.6-1.6-1.6-1.6h-29.2c-1 0-1.6.6-1.6 1.6s.7 1.6 1.6 1.6z"/><path class="st2" d="M198.7 1655.8c.3.3.8.5 1.1.5.3 0 .8-.2 1.1-.5l2.1-2.1 2.1 2.1c.3.3.8.5 1.1.5s.8-.2 1.1-.5c.6-.6.6-1.6 0-2.2l-2.1-2.1 2.1-2.1c.6-.6.6-1.6 0-2.2-.6-.6-1.6-.6-2.2 0l-1.9 1.9-2.1-2.1c-.6-.6-1.6-.6-2.2 0-.6.6-.6 1.6 0 2.2l2.1 2.1-2.1 2.1c-.8.8-.8 1.8-.2 2.4z"/><path d="M215.6 1652.3h29.2c1 0 1.6-.6 1.6-1.6s-.6-1.6-1.6-1.6h-29.2c-1 0-1.6.6-1.6 1.6s.7 1.6 1.6 1.6z"/><path class="st2" d="M198.7 1673.2c.3.3.8.5 1.1.5.3 0 .8-.2 1.1-.5l2.1-2.1 2.1 2.1c.3.3.8.5 1.1.5s.8-.2 1.1-.5c.6-.6.6-1.6 0-2.2l-2.1-2.1 2.1-2.1c.6-.6.6-1.6 0-2.2-.6-.6-1.6-.6-2.2 0l-1.9 2.1-2.1-2.1c-.6-.6-1.6-.6-2.2 0-.6.6-.6 1.6 0 2.2l2.1 2.1-2.1 2.1c-.8.6-.8 1.6-.2 2.2z"/><path d="M215.6 1669.7h29.2c1 0 1.6-.6 1.6-1.6s-.6-1.6-1.6-1.6h-29.2c-1 0-1.6.6-1.6 1.6s.7 1.6 1.6 1.6z"/><path class="st2" d="M198.7 1690.8c.3.3.8.5 1.1.5.3 0 .8-.2 1.1-.5l2.1-2.1 2.1 2.1c.3.3.8.5 1.1.5s.8-.2 1.1-.5c.6-.6.6-1.6 0-2.2l-2.1-2.1 2.1-2.1c.6-.6.6-1.6 0-2.2-.6-.6-1.6-.6-2.2 0l-2.1 2.1-2.1-2.1c-.6-.6-1.6-.6-2.2 0-.6.6-.6 1.6 0 2.2l2.1 2.1-2.1 2.1c-.6.4-.6 1.5 0 2.2z"/><path d="M215.6 1687.2h29.2c1 0 1.6-.6 1.6-1.6s-.6-1.6-1.6-1.6h-29.2c-1 0-1.6.6-1.6 1.6s.7 1.6 1.6 1.6z"/><g><path class="st1" d="M982.8 1537.1h74.6v106.8h-74.6z"/><path class="st2" d="M996.7 1559.9c.3.3.8.5 1.1.5.3 0 .8-.2 1.1-.5l2.1-2.1 2.1 2.1c.3.3.8.5 1.1.5s.8-.2 1.1-.5c.6-.6.6-1.6 0-2.2l-2.1-2.1 2.1-2.1c.6-.6.6-1.6 0-2.2-.6-.6-1.6-.6-2.2 0l-2.1 2.1-2.1-2.1c-.6-.6-1.6-.6-2.2 0-.6.6-.6 1.6 0 2.2l2.1 2.1-2.1 2.1c-.6.6-.6 1.5 0 2.2z"/><path d="M1013.6 1556.3h29.2c1 0 1.6-.6 1.6-1.6s-.6-1.6-1.6-1.6h-29.2c-1 0-1.6.6-1.6 1.6s.7 1.6 1.6 1.6z"/><path class="st2" d="M996.7 1577.4c.3.3.8.5 1.1.5.3 0 .8-.2 1.1-.5l2.1-2.1 2.1 2.1c.3.3.8.5 1.1.5s.8-.2 1.1-.5c.6-.6.6-1.6 0-2.2l-2.1-2.1 2.1-2.1c.6-.6.6-1.6 0-2.2-.6-.6-1.6-.6-2.2 0l-2.1 2.1-2.1-2.1c-.6-.6-1.6-.6-2.2 0-.6.6-.6 1.6 0 2.2l2.1 2.1-2.1 2.1c-.6.5-.6 1.6 0 2.2z"/><path d="M1013.6 1573.9h29.2c1 0 1.6-.6 1.6-1.6s-.6-1.6-1.6-1.6h-29.2c-1 0-1.6.6-1.6 1.6s.7 1.6 1.6 1.6z"/><path class="st2" d="M996.7 1594.8c.3.3.8.5 1.1.5.3 0 .8-.2 1.1-.5l2.1-2.1 2.1 2.1c.3.3.8.5 1.1.5s.8-.2 1.1-.5c.6-.6.6-1.6 0-2.2l-2.1-2.1 2.1-2.1c.6-.6.6-1.6 0-2.2-.6-.6-1.6-.6-2.2 0l-1.9 1.9-2.1-2.1c-.6-.6-1.6-.6-2.2 0-.6.6-.6 1.6 0 2.2l2.1 2.1-2.1 2.1c-.8.8-.8 1.8-.2 2.4z"/><path d="M1013.6 1591.3h29.2c1 0 1.6-.6 1.6-1.6s-.6-1.6-1.6-1.6h-29.2c-1 0-1.6.6-1.6 1.6s.7 1.6 1.6 1.6z"/><path class="st2" d="M996.7 1612.2c.3.3.8.5 1.1.5.3 0 .8-.2 1.1-.5l2.1-2.1 2.1 2.1c.3.3.8.5 1.1.5s.8-.2 1.1-.5c.6-.6.6-1.6 0-2.2l-2.1-2.1 2.1-2.1c.6-.6.6-1.6 0-2.2-.6-.6-1.6-.6-2.2 0l-1.9 2.1-2.1-2.1c-.6-.6-1.6-.6-2.2 0-.6.6-.6 1.6 0 2.2l2.1 2.1-2.1 2.1c-.8.6-.8 1.6-.2 2.2z"/><path d="M1013.6 1608.7h29.2c1 0 1.6-.6 1.6-1.6s-.6-1.6-1.6-1.6h-29.2c-1 0-1.6.6-1.6 1.6s.7 1.6 1.6 1.6z"/><path class="st2" d="M996.7 1629.8c.3.3.8.5 1.1.5.3 0 .8-.2 1.1-.5l2.1-2.1 2.1 2.1c.3.3.8.5 1.1.5s.8-.2 1.1-.5c.6-.6.6-1.6 0-2.2l-2.1-2.1 2.1-2.1c.6-.6.6-1.6 0-2.2-.6-.6-1.6-.6-2.2 0l-2.1 2.1-2.1-2.1c-.6-.6-1.6-.6-2.2 0-.6.6-.6 1.6 0 2.2l2.1 2.1-2.1 2.1c-.6.4-.6 1.5 0 2.2z"/><path d="M1013.6 1626.2h29.2c1 0 1.6-.6 1.6-1.6s-.6-1.6-1.6-1.6h-29.2c-1 0-1.6.6-1.6 1.6s.7 1.6 1.6 1.6z"/></g><g><path class="st3" d="M767.2 1535.2h69.3v9.4h-69.3z"/><path class="st3" d="M775.1 1544.6h53.5v83.5h-53.5z"/><path class="st4" d="M787.7 1565.1H816v40.9h-28.3z"/><path class="st5" d="M819.7 1535.2s0-17.3-11-22"/><path class="st6" d="M810.4 1512.7l-.8 1.3c-.9 1.5-2.9 1.9-4.4 1l-5.2-3.3c-1.5-.9-1.9-2.9-1-4.4l.8-1.3c.9-1.5 2.9-1.9 4.4-1l5.2 3.3c1.5 1 2 3 1 4.4z"/></g><g><circle class="st7" cx="1101.2" cy="1206.3" r="45.9"/><path class="st7" d="M1071.7 1240.2l29.5-33.9M1101.2 1206.3v-45.9M1143.8 1191l-42.6 15.3M1138.3 1232.5l-37.1-26.2"/></g><g><path class="st8" d="M807.6 749.2h26v67.5h-26z"/><path class="st9" d="M841 739h26v77.7h-26z"/><path class="st10" d="M874.4 759.4h26v57.3h-26z"/><path class="st0" d="M907.8 791.2h26v25.5h-26z"/></g><g><path class="st11" d="M885.8 156.9c0-3.4 2.7-6.1 6.1-6.1 3.4 0 6.1 2.7 6.1 6.1v18.3c0-3.4 2.7-6.1 6.1-6.1 3.4 0 6.1 2.7 6.1 6.1v3.8c0-3.4 2.7-6.1 6.1-6.1 3.4 0 6.1 2.7 6.1 6.1v3.8c0-3.4 2.7-6.1 6.1-6.1 3.4 0 6.1 2.7 6.1 6.1V213l-8 14.5v11.4h-35.1l-.4-9.5s-15.1-24.9-23.7-34.3c-1.1-1.3-.4-5.9 2.3-6.9 2.7-1 10.1-.3 16 8.6v-39.9z"/><path class="st13" d="M898 189.7v-14.5M910.2 190.5V179M922.4 193.9v-11.4"/><path class="st14" d="M878.9 167.6c-2.4-2.9-3.8-6.6-3.8-10.7 0-9.3 7.5-16.8 16.8-16.8s16.8 7.5 16.8 16.8c0 2.3-.5 4.5-1.3 6.5"/><path class="st14" d="M874.4 170.5c-3-3.8-4.8-8.6-4.8-13.8 0-12.3 10-22.3 22.3-22.3s22.3 10 22.3 22.3c0 3.1-.6 6-1.7 8.7"/></g><g><path class="st15" d="M422.1 869.2H297v68.5h23.8v8l9.9-8h91.4z"/><circle class="st16" cx="317.2" cy="956.8" r="2.9"/><circle class="st17" cx="307.3" cy="956.8" r="2.9"/><circle class="st17" cx="297.3" cy="956.8" r="2.9"/><circle class="st18" cx="327.1" cy="956.8" r="2.9"/><circle class="st18" cx="337" cy="956.8" r="2.9"/></g><g><path class="st15" d="M1184.6 358.4h-125v68.5h23.8v8l9.9-8h91.3z"/><circle class="st16" cx="1079.8" cy="446" r="2.9"/><circle class="st17" cx="1069.8" cy="446" r="2.9"/><circle class="st17" cx="1059.9" cy="446" r="2.9"/><circle class="st18" cx="1089.7" cy="446" r="2.9"/><circle class="st18" cx="1099.6" cy="446" r="2.9"/></g><g><path class="st19" d="M335.4 253.5v5.4h-6.8c-1.9 0-2.7.9-2.7 3.2V275c0 4.8-1.8 6.3-4.2 7 2.4.7 4.2 2.1 4.2 7v12.9c0 2.3.8 3.2 2.7 3.2h6.8v5.4h-8.3c-3.6 0-6-2.9-6-7.1v-12.3c0-5-2.4-6.4-6-6.4v-5.4c3.6 0 6-1.4 6-6.4v-12.3c0-4.3 2.4-7.1 6-7.1h8.3m0-3h-8.3c-5.3 0-9 4.2-9 10.1v12.3c0 2.8-.6 3.4-3 3.4-1.7 0-3 1.3-3 3v5.4c0 1.7 1.3 3 3 3 2.4 0 3 .6 3 3.4v12.3c0 6 3.7 10.1 9 10.1h8.3c1.7 0 3-1.3 3-3v-5.4c0-1.7-1.3-3-3-3H329V289c0-3-.6-5.3-1.9-7 1.3-1.7 1.9-4 1.9-7v-12.9-.2h6.5c1.7 0 3-1.3 3-3v-5.4c-.1-1.7-1.4-3-3.1-3zM365.7 253.5l-16.4 57h-5.2l16.4-57h5.2m0-3h-5.2c-1.3 0-2.5.9-2.9 2.2l-16.4 57c-.3.9-.1 1.9.5 2.6.6.8 1.5 1.2 2.4 1.2h5.2c1.3 0 2.5-.9 2.9-2.2l16.4-57c.3-.9.1-1.9-.5-2.6-.6-.8-1.5-1.2-2.4-1.2zM383 253.5c3.6 0 6 2.8 6 7.1v12.3c0 5 2.4 6.4 6 6.4v5.4c-3.6 0-6 1.4-6 6.4v12.3c0 4.3-2.4 7.1-6 7.1h-8.3v-5.4h6.8c1.9 0 2.7-.9 2.7-3.2V289c0-4.8 1.8-6.3 4.2-7-2.4-.7-4.2-2.1-4.2-7v-12.9c0-2.3-.8-3.2-2.7-3.2h-6.8v-5.4h8.3m0-3h-8.3c-1.7 0-3 1.3-3 3v5.4c0 1.7 1.3 3 3 3h6.5V275c0 3 .6 5.3 1.9 7-1.3 1.7-1.9 4-1.9 7v13.1h-6.5c-1.7 0-3 1.3-3 3v5.4c0 1.7 1.3 3 3 3h8.3c5.3 0 9-4.2 9-10.1v-12.3c0-2.8.6-3.4 3-3.4 1.7 0 3-1.3 3-3v-5.4c0-1.7-1.3-3-3-3-2.4 0-3-.6-3-3.4v-12.3c0-5.9-3.7-10.1-9-10.1zm-1.3 11.4zm0 40.2z"/></g></g></svg>