<?xml version="1.0" encoding="utf-8"?>
<!-- Generator: Adobe Illustrator 19.0.0, SVG Export Plug-In . SVG Version: 6.00 Build 0)  -->
<svg version="1.1" id="Ebene_1" xmlns="http://www.w3.org/2000/svg" xmlns:xlink="http://www.w3.org/1999/xlink" x="0px" y="0px"
	 viewBox="342 -544.1 1280 1928" style="enable-background:new 342 -544.1 1280 1928;" xml:space="preserve">
<style type="text/css">
	.st0{fill:none;stroke:#2543CC;stroke-width:3;stroke-miterlimit:10;}
	.st1{fill:none;stroke:#662D90;stroke-width:3;stroke-miterlimit:10;}
	.st2{fill:none;stroke:#92278E;stroke-width:3;stroke-miterlimit:10;}
	.st3{fill:none;stroke:#1B1464;stroke-width:3;stroke-miterlimit:10;}
	.st4{fill:#FFFFFF;stroke:#000000;stroke-width:3;stroke-linejoin:round;stroke-miterlimit:10;}
	.st5{fill:#FFFD6B;stroke:#000000;stroke-width:3;stroke-linejoin:round;stroke-miterlimit:10;}
	.st6{fill:#CBCBCB;stroke:#000000;stroke-width:3;stroke-linejoin:round;stroke-miterlimit:10;}
	.st7{fill:none;stroke:#000000;stroke-width:3;stroke-linejoin:round;stroke-miterlimit:10;}
	.st8{fill:#FFFD6B;stroke:#FF1D25;stroke-width:3;stroke-linejoin:round;stroke-miterlimit:10;}
	.st9{fill:#FFFFFF;stroke:#FF5417;stroke-width:3;stroke-miterlimit:10;}
	.st10{fill:none;stroke:#000000;stroke-width:3;stroke-miterlimit:10;}
	.st11{fill:none;stroke:#B2B2B2;stroke-width:3;stroke-miterlimit:10;}
	.st12{fill:none;stroke:#FFFFFF;stroke-width:3;stroke-miterlimit:10;}
</style>
<g id="MUSTER">
</g>
<g>
	<rect x="1248.6" y="1297" class="st0" width="26" height="67.5"/>
	<rect x="1282" y="1286.8" class="st1" width="26" height="77.7"/>
	<rect x="1315.4" y="1307.2" class="st2" width="26" height="57.3"/>
	<rect x="1348.8" y="1339" class="st3" width="26" height="25.5"/>
</g>
<g>
	<path class="st4" d="M647.3,858.1L647.3,858.1c-7.8,0-14.2-6.4-14.2-14.2l0,0c0-7.8,6.4-14.2,14.2-14.2l0,0
		c7.8,0,14.2,6.4,14.2,14.2l0,0C661.6,851.7,655.2,858.1,647.3,858.1z"/>
	<path class="st5" d="M631,860.7c0.9,0.9,2.3,1.4,3.2,1.4c0.9,0,2.3-0.5,3.2-1.4l10-10l12,11c0.9,0.9,2.3,1.4,3.2,1.4
		c0.9,0,2.3-0.5,3.2-1.4c1.8-1.8,1.8-4.5,0-6.3l-12-11l9-10c1.8-1.8,1.8-4.5,0-6.3s-4.5-1.8-6.3,0l-9,10l-5.9-5.9
		c-1.8-1.8-4.5-1.8-6.3,0c-1.8,1.8-1.8,4.5,0,6.3l5.9,5.9l-10,10C629.2,856.2,629.2,858.9,631,860.7z"/>
</g>
<g>
	<g>
		<rect x="1527.2" y="410.4" class="st6" width="69.3" height="9.4"/>
		<rect x="1535.1" y="419.9" class="st6" width="53.5" height="83.5"/>
		<rect x="1547.7" y="440.4" class="st4" width="28.3" height="40.9"/>
		<path class="st7" d="M1579.7,410.4c0,0,0-17.3-11-22"/>
	</g>
	<path class="st8" d="M1570.4,388l-0.8,1.3c-0.9,1.5-2.9,1.9-4.4,1l-5.2-3.3c-1.5-0.9-1.9-2.9-1-4.4l0.8-1.3c0.9-1.5,2.9-1.9,4.4-1
		l5.2,3.3C1570.9,384.5,1571.4,386.5,1570.4,388z"/>
</g>
<g>
	<polygon class="st9" points="1300.1,767.8 1175,767.8 1175,836.3 1198.8,836.3 1198.8,844.3 1208.7,836.3 1300.1,836.3 	"/>
	<circle class="st10" cx="1195.2" cy="855.4" r="2.9"/>
	<circle class="st11" cx="1185.3" cy="855.4" r="2.9"/>
	<circle class="st11" cx="1175.3" cy="855.4" r="2.9"/>
	<circle class="st12" cx="1205.1" cy="855.4" r="2.9"/>
	<circle class="st12" cx="1215" cy="855.4" r="2.9"/>
</g>
<g>
	<g>
		<rect x="388.2" y="199.9" class="st6" width="69.3" height="9.4"/>
		<rect x="396.1" y="209.4" class="st6" width="53.5" height="83.5"/>
		<rect x="408.7" y="229.9" class="st4" width="28.3" height="40.9"/>
		<path class="st7" d="M440.7,199.9c0,0,0-17.3-11-22"/>
	</g>
	<path class="st8" d="M431.4,177.5l-0.8,1.3c-0.9,1.5-2.9,1.9-4.4,1l-5.2-3.3c-1.5-0.9-1.9-2.9-1-4.4l0.8-1.3c0.9-1.5,2.9-1.9,4.4-1
		l5.2,3.3C431.9,174,432.4,176,431.4,177.5z"/>
</g>
<g>
	<polyline class="st5" points="990.2,338.2 998.9,338.2 1007.8,361.2 1007.8,406.5 936.4,406.5 936.4,361.2 944.8,338.2 
		967.3,338.2 	"/>
	<polygon class="st4" points="982.9,350.5 959.5,350.5 979.1,319.7 995.4,330 	"/>
	<line class="st7" x1="952.2" y1="350.5" x2="991.5" y2="350.5"/>
	<line class="st7" x1="936.4" y1="361.2" x2="1007.8" y2="361.2"/>
</g>
<g>
	<path class="st4" d="M932.3-166.4L932.3-166.4c-7.8,0-14.2-6.4-14.2-14.2l0,0c0-7.8,6.4-14.2,14.2-14.2l0,0
		c7.8,0,14.2,6.4,14.2,14.2l0,0C946.6-172.8,940.2-166.4,932.3-166.4z"/>
	<path class="st5" d="M916-163.7c0.9,0.9,2.3,1.4,3.2,1.4s2.3-0.5,3.2-1.4l10-10l12,11c0.9,0.9,2.3,1.4,3.2,1.4s2.3-0.5,3.2-1.4
		c1.8-1.8,1.8-4.5,0-6.3l-12-11l9-10c1.8-1.8,1.8-4.5,0-6.3s-4.5-1.8-6.3,0l-9,10l-5.9-5.9c-1.8-1.8-4.5-1.8-6.3,0s-1.8,4.5,0,6.3
		l5.9,5.9l-10,10C914.2-168.3,914.2-165.6,916-163.7z"/>
</g>
<g id="Ebene_3">
</g>
<g id="Ebene_2">
</g>
</svg>
