<svg id="Ebene_1" xmlns="http://www.w3.org/2000/svg" viewBox="342 -544.1 1280 1928"><style>.st0,.st1,.st2{fill:none;stroke:#2543cc;stroke-width:3;stroke-miterlimit:10}.st1,.st2{stroke:#662d90}.st2{stroke:#92278e}.st3{fill:none;stroke:#1b1464}.st3,.st4,.st5{stroke-width:3;stroke-miterlimit:10}.st4{stroke:#000;stroke-linejoin:round;fill:#fff}.st5{fill:#fffd6b}.st5,.st6,.st7{stroke:#000;stroke-linejoin:round}.st6{stroke-width:3;stroke-miterlimit:10;fill:#cbcbcb}.st7{fill:none}.st10,.st11,.st12,.st7,.st8,.st9{stroke-width:3;stroke-miterlimit:10}.st8{stroke-linejoin:round;fill:#fffd6b;stroke:#ff1d25}.st10,.st11,.st12,.st9{fill:#fff;stroke:#ff5417}.st10,.st11,.st12{fill:none;stroke:#000}.st11,.st12{stroke:#b2b2b2}.st12{stroke:#fff}</style><path class="st0" d="M1248.6 1297h26v67.5h-26z"/><path class="st1" d="M1282 1286.8h26v77.7h-26z"/><path class="st2" d="M1315.4 1307.2h26v57.3h-26z"/><path class="st3" d="M1348.8 1339h26v25.5h-26z"/><path class="st4" d="M647.3 858.1c-7.8 0-14.2-6.4-14.2-14.2 0-7.8 6.4-14.2 14.2-14.2 7.8 0 14.2 6.4 14.2 14.2.1 7.8-6.3 14.2-14.2 14.2z"/><path class="st5" d="M631 860.7c.9.9 2.3 1.4 3.2 1.4.9 0 2.3-.5 3.2-1.4l10-10 12 11c.9.9 2.3 1.4 3.2 1.4.9 0 2.3-.5 3.2-1.4 1.8-1.8 1.8-4.5 0-6.3l-12-11 9-10c1.8-1.8 1.8-4.5 0-6.3s-4.5-1.8-6.3 0l-9 10-5.9-5.9c-1.8-1.8-4.5-1.8-6.3 0-1.8 1.8-1.8 4.5 0 6.3l5.9 5.9-10 10c-2 1.8-2 4.5-.2 6.3z"/><path class="st6" d="M1527.2 410.4h69.3v9.4h-69.3zM1535.1 419.9h53.5v83.5h-53.5z"/><path class="st4" d="M1547.7 440.4h28.3v40.9h-28.3z"/><path class="st7" d="M1579.7 410.4s0-17.3-11-22"/><path class="st8" d="M1570.4 388l-.8 1.3c-.9 1.5-2.9 1.9-4.4 1l-5.2-3.3c-1.5-.9-1.9-2.9-1-4.4l.8-1.3c.9-1.5 2.9-1.9 4.4-1l5.2 3.3c1.5.9 2 2.9 1 4.4z"/><g><path class="st9" d="M1300.1 767.8H1175v68.5h23.8v8l9.9-8h91.4z"/><circle class="st10" cx="1195.2" cy="855.4" r="2.9"/><circle class="st11" cx="1185.3" cy="855.4" r="2.9"/><circle class="st11" cx="1175.3" cy="855.4" r="2.9"/><circle class="st12" cx="1205.1" cy="855.4" r="2.9"/><circle class="st12" cx="1215" cy="855.4" r="2.9"/></g><g><path class="st6" d="M388.2 199.9h69.3v9.4h-69.3zM396.1 209.4h53.5v83.5h-53.5z"/><path class="st4" d="M408.7 229.9H437v40.9h-28.3z"/><path class="st7" d="M440.7 199.9s0-17.3-11-22"/><path class="st8" d="M431.4 177.5l-.8 1.3c-.9 1.5-2.9 1.9-4.4 1l-5.2-3.3c-1.5-.9-1.9-2.9-1-4.4l.8-1.3c.9-1.5 2.9-1.9 4.4-1l5.2 3.3c1.5.9 2 2.9 1 4.4z"/></g><g><path class="st5" d="M990.2 338.2h8.7l8.9 23v45.3h-71.4v-45.3l8.4-23h22.5"/><path class="st4" d="M982.9 350.5h-23.4l19.6-30.8 16.3 10.3z"/><path class="st7" d="M952.2 350.5h39.3M936.4 361.2h71.4"/></g><g><path class="st4" d="M932.3-166.4c-7.8 0-14.2-6.4-14.2-14.2 0-7.8 6.4-14.2 14.2-14.2 7.8 0 14.2 6.4 14.2 14.2.1 7.8-6.3 14.2-14.2 14.2z"/><path class="st5" d="M916-163.7c.9.9 2.3 1.4 3.2 1.4s2.3-.5 3.2-1.4l10-10 12 11c.9.9 2.3 1.4 3.2 1.4s2.3-.5 3.2-1.4c1.8-1.8 1.8-4.5 0-6.3l-12-11 9-10c1.8-1.8 1.8-4.5 0-6.3s-4.5-1.8-6.3 0l-9 10-5.9-5.9c-1.8-1.8-4.5-1.8-6.3 0s-1.8 4.5 0 6.3l5.9 5.9-10 10c-2 1.7-2 4.4-.2 6.3z"/></g></svg>