<svg id="Ebene_1" xmlns="http://www.w3.org/2000/svg" viewBox="0 0 538 105"><style>.st0{fill:#010202}.st1{stroke-linejoin:round}.st1,.st2,.st3,.st4,.st5,.st6{fill:#a6c4d5;stroke:#010202;stroke-width:2.5;stroke-miterlimit:10}.st3,.st4,.st5,.st6{fill:#ef7e82}.st4,.st5,.st6{fill:#f8ed6f;stroke-width:3;stroke-linejoin:round}.st5,.st6{fill:#fff;stroke-linecap:round}.st6{fill:none}</style><g id="XMLID_14_"><g id="XMLID_2041_"><path id="XMLID_2042_" class="st0" d="M32.3 80.4h-6.4l-7.6-56.3H26l3.3 29.3.2 1.8h.5l.2-1.8 3.5-29.3h6l3.5 29.3.2 1.8h.6l.2-1.8 3.3-29.3h7.7l-7.6 56.3h-6.4l-3.8-26.7-.5-3.3h-.3l-.5 3.3-3.8 26.7z"/><path id="XMLID_2044_" class="st0" d="M56.9 80.4l8.5-56.3h10.1L84 80.4h-8l-1.5-11.5h-8L65 80.4h-8.1zm14-38l-.2-1.5h-.5l-.2 1.5-2.4 17.8h5.7l-2.4-17.8z"/><path id="XMLID_2047_" class="st0" d="M102.6 55.9h-6.4v24.5h-8.3V24.1h8.3v23.3h6.4V24.1h8.3v56.3h-8.3V55.9z"/><path id="XMLID_2049_" class="st0" d="M117 24.1h8.3v48.7h11v7.7H117V24.1z"/><path id="XMLID_2051_" class="st0" d="M153.3 39.2c0-1.8-.1-3.9-.6-5.5-.5-1.5-1.4-2.6-2.7-2.6-2.1.1-2.8 2.3-2.8 5.6 0 1.9.8 3.9 2.1 6.1 1.2 2.1 2.8 4.4 4.4 6.7 1.9 2.8 3.8 5.7 5.3 8.6 1.5 2.8 2.5 5.7 2.5 8.8 0 3.8-.6 7.3-2.4 9.9-1.8 2.6-4.6 4.3-9.1 4.3-5.3 0-8.3-2-10-5.1-1.7-3.1-2.1-7.1-2.1-11.3l8.1-.8c0 2.4.1 4.8.7 6.5.5 1.8 1.5 3.1 3.2 3.1 2.5 0 3.4-2.6 3.4-6.2 0-1.8-.9-4-2.1-6.2-.7-1.1-1.4-2.2-2.1-3.4-1.6-2.3-3.4-4.9-5.2-7.7-1.8-2.8-3.2-5.7-4.1-8.7-.5-1.5-.7-3-.7-4.5 0-3.1.7-6.4 2.5-8.9s4.4-4.2 8.4-4.3c5-.1 7.9 2 9.5 5 1.6 3.1 2.1 6.8 2.1 10l-8.3.6z"/><path id="XMLID_2053_" class="st0" d="M163.6 80.4l8.5-56.3h10.1l8.5 56.3h-8l-1.5-11.5h-8l-1.5 11.5h-8.1zm14-38l-.2-1.5h-.5l-.2 1.5-2.4 17.8h5.7l-2.4-17.8z"/><path id="XMLID_2056_" class="st0" d="M194.5 24.1h8.3v48.7h11v7.7h-19.2V24.1z"/><path id="XMLID_2058_" class="st0" d="M238.7 68.8c-.1 2.3-.5 4.4-1.4 6.1-.7 1.5-1.8 3-3.3 4.1-1.5 1.2-3.6 1.9-6.4 1.9-2.8 0-4.9-.7-6.4-1.9s-2.5-2.6-3.2-4.1c-.8-1.8-1.3-3.8-1.4-6.1V35.7c.1-2.2.5-4.3 1.4-6.1.7-1.5 1.7-3.1 3.2-4.2 1.5-1.2 3.7-1.9 6.4-1.9 2.8 0 4.8.8 6.4 1.9 1.5 1.1 2.6 2.7 3.3 4.2.8 1.8 1.3 3.8 1.4 6.1v33.1zm-8.3-33.1c0-1.5-.3-2.6-1.1-3.5-.4-.4-1-.6-1.7-.6-1.5 0-2.1 1.1-2.5 2.1-.2.6-.3 1.3-.3 2.1V69c0 1.6.4 2.7 1.1 3.5.4.4.9.6 1.6.6 1.5 0 2.1-.9 2.5-2.1.2-.5.3-1.2.3-2.1V35.7z"/><path id="XMLID_2061_" class="st0" d="M253 51.1l-.7-2.6h-.5v32h-7.6V24.1h7.4l8 29.4.7 2.6h.5v-32h7.6v56.3H261l-8-29.3z"/><path id="XMLID_2063_" class="st0" d="M288.3 39.2c0-1.8-.1-3.9-.6-5.5-.5-1.5-1.4-2.6-2.7-2.6-2.1.1-2.8 2.3-2.8 5.6 0 1.9.8 3.9 2.1 6.1 1.2 2.1 2.8 4.4 4.4 6.7 1.9 2.8 3.8 5.7 5.3 8.6 1.5 2.8 2.5 5.7 2.5 8.8 0 3.8-.6 7.3-2.4 9.9-1.8 2.6-4.6 4.3-9.1 4.3-5.3 0-8.3-2-10-5.1-1.7-3.1-2.1-7.1-2.1-11.3l8.1-.8c0 2.4.1 4.8.7 6.5.5 1.8 1.5 3.1 3.2 3.1 2.5 0 3.4-2.6 3.4-6.2 0-1.8-.9-4-2.1-6.2-.7-1.1-1.4-2.2-2.1-3.4-1.6-2.3-3.4-4.9-5.2-7.7-1.8-2.8-3.2-5.7-4.1-8.7-.5-1.5-.7-3-.7-4.5 0-3.1.7-6.4 2.5-8.9s4.4-4.2 8.4-4.3c5-.1 7.9 2 9.5 5 1.6 3.1 2.1 6.8 2.1 10l-8.3.6z"/></g><g id="XMLID_2065_"><path id="XMLID_2066_" class="st1" d="M420.3 41.9V38c0-3.8.5-7.4 2.1-10.1 1.6-2.7 4.4-4.4 8.9-4.4 4.2 0 7.1 1.6 8.7 4.1 1.7 2.5 2.3 6.1 2.3 10 0 5.7-2.1 12.6-4.8 18.9-2.8 6.4-6 12.2-8.1 15.8h13.1v8.2H420v-8.2c2.5-3.9 4.8-7.9 6.9-11.9 1.8-3.4 3.4-7.2 4.8-11.1 1.3-3.9 2.3-7.7 2.4-11.2 0-1.5-.1-3.3-.5-4.6-.4-1.3-1.1-2.3-2.3-2.3-1.1 0-1.8.8-2.2 2.1-.4 1.3-.5 3-.5 4.8V42h-8.3z"/><path id="XMLID_2068_" class="st2" d="M470.3 68.8c-.1 2.3-.5 4.4-1.4 6.1-.7 1.5-1.8 3-3.3 4.1-1.5 1.2-3.6 1.9-6.4 1.9-2.8 0-4.9-.7-6.4-1.9s-2.5-2.6-3.2-4.1c-.8-1.8-1.3-3.8-1.4-6.1V35.7c.1-2.2.5-4.3 1.4-6.1.7-1.5 1.7-3.1 3.2-4.2 1.5-1.2 3.7-1.9 6.4-1.9 2.8 0 4.8.8 6.4 1.9 1.5 1.1 2.6 2.7 3.3 4.2.8 1.8 1.3 3.8 1.4 6.1v33.1zm-8.2-33.1c0-1.5-.3-2.6-1.1-3.5-.4-.4-1-.6-1.7-.6-1.5 0-2.1 1.1-2.5 2.1-.2.6-.3 1.3-.3 2.1V69c0 1.6.4 2.7 1.1 3.5.4.4.9.6 1.6.6 1.5 0 2.1-.9 2.5-2.1.2-.5.3-1.2.3-2.1V35.7z"/><path id="XMLID_2071_" class="st3" d="M474.2 36.3V31c3.4-.7 5.5-2.5 7-4 .8-.9 1.4-1.9 1.8-2.9h5v56.3h-8.3V36.3h-5.5z"/><path id="XMLID_2073_" class="st3" d="M506.1 32.3h-12.4v-8.2h20.8v8.3l-8.3 48.1h-8.6l8.5-48.2z"/></g><g id="XMLID_2075_"><path id="XMLID_2076_" class="st4" d="M405.6 65h-96.2L321 33.5h73z"/><path id="XMLID_2394_" class="st5" d="M372.5 50.1h-31.6l26.4-41.5 22.1 13.9z"/><path id="XMLID_2393_" class="st6" d="M331 50.1h53.1"/></g></g></svg>