<?xml version="1.0" encoding="utf-8"?>
<!-- Generator: Adobe Illustrator 21.0.2, SVG Export Plug-In . SVG Version: 6.00 Build 0)  -->
<svg version="1.1" xmlns="http://www.w3.org/2000/svg" xmlns:xlink="http://www.w3.org/1999/xlink" x="0px" y="0px"
	 viewBox="0 0 1280 1928" style="enable-background:new 0 0 1280 1928;" xml:space="preserve">
<style type="text/css">
	.st0{fill:none;stroke:#1B1464;stroke-width:3;stroke-miterlimit:10;}
	.st1{fill:#FFFFFF;}
	.st2{fill:#FF3366;}
	.st3{fill:#CBCBCB;stroke:#000000;stroke-width:3;stroke-linejoin:round;stroke-miterlimit:10;}
	.st4{fill:#FFFFFF;stroke:#000000;stroke-width:3;stroke-linejoin:round;stroke-miterlimit:10;}
	.st5{fill:none;stroke:#000000;stroke-width:3;stroke-linejoin:round;stroke-miterlimit:10;}
	.st6{fill:#FFFD6B;stroke:#FF1D25;stroke-width:3;stroke-linejoin:round;stroke-miterlimit:10;}
	.st7{fill:none;stroke:#2E4CD9;stroke-width:3;stroke-miterlimit:10;}
	.st8{fill:none;stroke:#2543CC;stroke-width:3;stroke-miterlimit:10;}
	.st9{fill:none;stroke:#662D90;stroke-width:3;stroke-miterlimit:10;}
	.st10{fill:none;stroke:#92278E;stroke-width:3;stroke-miterlimit:10;}
	.st11{fill:#E9CABF;stroke:#000000;stroke-width:3;stroke-linecap:round;stroke-linejoin:round;stroke-miterlimit:10;}
	.st12{fill:none;stroke:#2E3191;stroke-width:3;stroke-linecap:round;stroke-linejoin:round;stroke-miterlimit:10;}
	.st13{fill:none;stroke:#000000;stroke-width:3;stroke-linecap:round;stroke-linejoin:round;stroke-miterlimit:10;}
	.st14{fill:none;stroke:#00FF00;stroke-width:3;stroke-linecap:round;stroke-linejoin:round;stroke-miterlimit:10;}
	.st15{fill:#FFFFFF;stroke:#FF5417;stroke-width:3;stroke-miterlimit:10;}
	.st16{fill:none;stroke:#000000;stroke-width:3;stroke-miterlimit:10;}
	.st17{fill:none;stroke:#B2B2B2;stroke-width:3;stroke-miterlimit:10;}
	.st18{fill:none;stroke:#FFFFFF;stroke-width:3;stroke-miterlimit:10;}
	.st19{fill:#662D90;}
	.st20{fill:#FFFD6B;stroke:#000000;stroke-width:3;stroke-linejoin:round;stroke-miterlimit:10;}
	.st21{fill:#FF1D25;stroke:#000000;stroke-width:3;stroke-miterlimit:10;}
	.st22{fill:none;stroke:#FF1D25;stroke-width:3;stroke-miterlimit:10;}
	.st23{fill:#808080;}
	.st24{fill:none;stroke:#A6C4D5;stroke-width:3;stroke-linecap:round;stroke-miterlimit:10;}
	.st25{fill:none;stroke:#D138CB;stroke-width:3;stroke-miterlimit:10;}
	.st26{fill:none;stroke:#2BF04C;stroke-width:3;stroke-miterlimit:10;}
	.st27{fill:#FF00FF;}
</style>
<g id="MUSTER">
</g>
<g id="Ebene_4">
</g>
<g id="Ebene_3">
</g>
<g id="Ebene_2">
	<path class="st8" d="M187,1794.5l-15.8-1.6c-2.1-0.1-3.9,1.4-4,3.5v0c-0.1,2.1,1.4,3.9,3.5,4l6.3,0.8l-41,33.1l-29.1-21.7
		l-50.8,39.6c-1.6,1.3-1.9,3.7-0.7,5.3c0.7,1,1.9,1.5,3,1.5c0.8,0,1.6-0.3,2.3-0.8l46.3-36l29.2,21.8l45.5-36.7l-0.8,7.2
		c-0.3,2.1,1.1,4,3.2,4.3c2.1,0.3,4-1.1,4.3-3.2l2.1-16.6C191,1794.7,191,1794.7,187,1794.5z"/>
	<g>
		<path class="st11" d="M392.5,1487.3c0-3.4,2.7-6.1,6.1-6.1c3.4,0,6.1,2.7,6.1,6.1v18.3c0-3.4,2.7-6.1,6.1-6.1
			c3.4,0,6.1,2.7,6.1,6.1v3.8c0-3.4,2.7-6.1,6.1-6.1c3.4,0,6.1,2.7,6.1,6.1v3.8c0-3.4,2.7-6.1,6.1-6.1c3.4,0,6.1,2.7,6.1,6.1v0.4
			v29.8l-8,14.5v11.4h-35.1l-0.4-9.5c0,0-15.1-24.9-23.7-34.3c-1.1-1.3-0.4-5.9,2.3-6.9c2.7-1,10.1-0.3,16,8.6v-38.4V1487.3z"/>
		<line class="st13" x1="404.7" y1="1520.1" x2="404.7" y2="1505.6"/>
		<line class="st13" x1="416.9" y1="1520.9" x2="416.9" y2="1509.4"/>
		<line class="st13" x1="429.1" y1="1524.3" x2="429.1" y2="1512.9"/>
		<path class="st14" d="M385.7,1498c-2.4-2.9-3.8-6.6-3.8-10.7c0-9.3,7.5-16.8,16.8-16.8s16.8,7.5,16.8,16.8c0,2.3-0.5,4.5-1.3,6.5"
			/>
		<path class="st14" d="M381.2,1500.9c-3-3.8-4.8-8.6-4.8-13.8c0-12.3,10-22.3,22.3-22.3c12.3,0,22.3,10,22.3,22.3
			c0,3.1-0.6,6-1.7,8.7"/>
	</g>
	<g>
		<path class="st11" d="M1135,1440.9c0-3.4,2.7-6.1,6.1-6.1c3.4,0,6.1,2.7,6.1,6.1v18.3c0-3.4,2.7-6.1,6.1-6.1
			c3.4,0,6.1,2.7,6.1,6.1v3.8c0-3.4,2.7-6.1,6.1-6.1c3.4,0,6.1,2.7,6.1,6.1v3.8c0-3.4,2.7-6.1,6.1-6.1s6.1,2.7,6.1,6.1v0.4v29.8
			l-8,14.5v11.4h-35.1l-0.4-9.5c0,0-15.1-24.9-23.7-34.3c-1.1-1.3-0.4-5.9,2.3-6.9c2.7-1,10.1-0.3,16,8.6v-38.4V1440.9z"/>
		<line class="st13" x1="1147.2" y1="1473.8" x2="1147.2" y2="1459.3"/>
		<line class="st13" x1="1159.4" y1="1474.5" x2="1159.4" y2="1463.1"/>
		<line class="st13" x1="1171.6" y1="1478" x2="1171.6" y2="1466.5"/>
		<path class="st14" d="M1128.1,1451.6c-2.4-2.9-3.8-6.6-3.8-10.7c0-9.3,7.5-16.8,16.8-16.8s16.8,7.5,16.8,16.8
			c0,2.3-0.5,4.5-1.3,6.5"/>
		<path class="st14" d="M1123.6,1454.5c-3-3.8-4.8-8.6-4.8-13.8c0-12.3,10-22.3,22.3-22.3c12.3,0,22.3,10,22.3,22.3
			c0,3.1-0.6,6-1.7,8.7"/>
	</g>
	<path class="st25" d="M706,1354.9l-15.8-1.6c-2.1-0.1-3.9,1.4-4,3.5v0c-0.1,2.1,1.4,3.9,3.5,4l6.3,0.8l-41,33.1l-29.1-21.7
		l-50.8,39.6c-1.6,1.3-1.9,3.7-0.7,5.3c0.7,1,1.9,1.5,3,1.5c0.8,0,1.6-0.3,2.3-0.8l46.3-36l29.2,21.8l45.5-36.7l-0.8,7.2
		c-0.3,2.1,1.1,4,3.2,4.3c2.1,0.3,4-1.1,4.3-3.2l2.1-16.6C710.1,1355.2,710.1,1355.2,706,1354.9z"/>
	<g>
		<polyline class="st20" points="159.2,113.3 167.9,113.3 176.8,136.3 176.8,181.6 105.4,181.6 105.4,136.3 113.8,113.3 
			136.3,113.3 		"/>
		<polygon class="st4" points="151.9,125.6 128.5,125.6 148.1,94.8 164.4,105.1 		"/>
		<line class="st5" x1="121.2" y1="125.6" x2="160.5" y2="125.6"/>
		<line class="st5" x1="105.4" y1="136.3" x2="176.8" y2="136.3"/>
	</g>
	<g>
		<path class="st11" d="M974.5,935.1c0-3.4,2.7-6.1,6.1-6.1c3.4,0,6.1,2.7,6.1,6.1v18.3c0-3.4,2.7-6.1,6.1-6.1
			c3.4,0,6.1,2.7,6.1,6.1v3.8c0-3.4,2.7-6.1,6.1-6.1c3.4,0,6.1,2.7,6.1,6.1v3.8c0-3.4,2.7-6.1,6.1-6.1c3.4,0,6.1,2.7,6.1,6.1v0.4
			v29.8l-8,14.5v11.4h-35.1l-0.4-9.5c0,0-15.1-24.9-23.7-34.3c-1.1-1.3-0.4-5.9,2.3-6.9c2.7-1,10.1-0.3,16,8.6v-38.4V935.1z"/>
		<line class="st13" x1="986.7" y1="967.9" x2="986.7" y2="953.4"/>
		<line class="st13" x1="998.9" y1="968.6" x2="998.9" y2="957.2"/>
		<line class="st13" x1="1011.1" y1="972.1" x2="1011.1" y2="960.6"/>
		<path class="st14" d="M967.7,945.8c-2.4-2.9-3.8-6.6-3.8-10.7c0-9.3,7.5-16.8,16.8-16.8c9.3,0,16.8,7.5,16.8,16.8
			c0,2.3-0.5,4.5-1.3,6.5"/>
		<path class="st14" d="M963.1,948.7c-3-3.8-4.8-8.6-4.8-13.8c0-12.3,10-22.3,22.3-22.3c12.3,0,22.3,10,22.3,22.3
			c0,3.1-0.6,6-1.7,8.7"/>
	</g>
	<g>
		<rect x="193.8" y="581.6" class="st1" width="74.6" height="106.8"/>
		<path class="st2" d="M207.7,604.4c0.3,0.3,0.8,0.5,1.1,0.5c0.3,0,0.8-0.2,1.1-0.5l2.1-2.1l2.1,2.1c0.3,0.3,0.8,0.5,1.1,0.5
			s0.8-0.2,1.1-0.5c0.6-0.6,0.6-1.6,0-2.2l-2.1-2.1l2.1-2.1c0.6-0.6,0.6-1.6,0-2.2c-0.6-0.6-1.6-0.6-2.2,0l-2.1,2.1l-2.1-2.1
			c-0.6-0.6-1.6-0.6-2.2,0c-0.6,0.6-0.6,1.6,0,2.2l2.1,2.1l-2.1,2.1C207.1,602.8,207.1,603.7,207.7,604.4z"/>
		<path d="M224.6,600.9h29.2c1,0,1.6-0.6,1.6-1.6c0-1-0.6-1.6-1.6-1.6h-29.2c-1,0-1.6,0.6-1.6,1.6
			C223,600.2,223.7,600.9,224.6,600.9z"/>
		<path class="st2" d="M207.7,621.9c0.3,0.3,0.8,0.5,1.1,0.5c0.3,0,0.8-0.2,1.1-0.5l2.1-2.1l2.1,2.1c0.3,0.3,0.8,0.5,1.1,0.5
			s0.8-0.2,1.1-0.5c0.6-0.6,0.6-1.6,0-2.2l-2.1-2.1l2.1-2.1c0.6-0.6,0.6-1.6,0-2.2c-0.6-0.6-1.6-0.6-2.2,0l-2.1,2.1l-2.1-2.1
			c-0.6-0.6-1.6-0.6-2.2,0c-0.6,0.6-0.6,1.6,0,2.2l2.1,2.1l-2.1,2.1C207.1,620.2,207.1,621.3,207.7,621.9z"/>
		<path d="M224.6,618.4h29.2c1,0,1.6-0.6,1.6-1.6c0-1-0.6-1.6-1.6-1.6h-29.2c-1,0-1.6,0.6-1.6,1.6
			C223,617.8,223.7,618.4,224.6,618.4z"/>
		<path class="st2" d="M207.7,639.3c0.3,0.3,0.8,0.5,1.1,0.5c0.3,0,0.8-0.2,1.1-0.5l2.1-2.1l2.1,2.1c0.3,0.3,0.8,0.5,1.1,0.5
			s0.8-0.2,1.1-0.5c0.6-0.6,0.6-1.6,0-2.2l-2.1-2.1l2.1-2.1c0.6-0.6,0.6-1.6,0-2.2c-0.6-0.6-1.6-0.6-2.2,0l-1.9,1.9l-2.1-2.1
			c-0.6-0.6-1.6-0.6-2.2,0c-0.6,0.6-0.6,1.6,0,2.2l2.1,2.1l-2.1,2.1C207.1,637.7,207.1,638.7,207.7,639.3z"/>
		<path d="M224.6,635.8h29.2c1,0,1.6-0.6,1.6-1.6c0-1-0.6-1.6-1.6-1.6h-29.2c-1,0-1.6,0.6-1.6,1.6
			C223,635.2,223.7,635.8,224.6,635.8z"/>
		<path class="st2" d="M207.7,656.7c0.3,0.3,0.8,0.5,1.1,0.5c0.3,0,0.8-0.2,1.1-0.5l2.1-2.1l2.1,2.1c0.3,0.3,0.8,0.5,1.1,0.5
			s0.8-0.2,1.1-0.5c0.6-0.6,0.6-1.6,0-2.2l-2.1-2.1l2.1-2.1c0.6-0.6,0.6-1.6,0-2.2c-0.6-0.6-1.6-0.6-2.2,0l-1.9,2.1l-2.1-2.1
			c-0.6-0.6-1.6-0.6-2.2,0c-0.6,0.6-0.6,1.6,0,2.2l2.1,2.1l-2.1,2.1C207.1,655.1,207.1,656.1,207.7,656.7z"/>
		<path d="M224.6,653.2h29.2c1,0,1.6-0.6,1.6-1.6c0-1-0.6-1.6-1.6-1.6h-29.2c-1,0-1.6,0.6-1.6,1.6
			C223,652.6,223.7,653.2,224.6,653.2z"/>
		<path class="st2" d="M207.7,674.3c0.3,0.3,0.8,0.5,1.1,0.5c0.3,0,0.8-0.2,1.1-0.5l2.1-2.1l2.1,2.1c0.3,0.3,0.8,0.5,1.1,0.5
			s0.8-0.2,1.1-0.5c0.6-0.6,0.6-1.6,0-2.2l-2.1-2.1l2.1-2.1c0.6-0.6,0.6-1.6,0-2.2c-0.6-0.6-1.6-0.6-2.2,0l-2.1,2.1l-2.1-2.1
			c-0.6-0.6-1.6-0.6-2.2,0c-0.6,0.6-0.6,1.6,0,2.2l2.1,2.1l-2.1,2.1C207.1,672.5,207.1,673.6,207.7,674.3z"/>
		<path d="M224.6,670.8h29.2c1,0,1.6-0.6,1.6-1.6c0-1-0.6-1.6-1.6-1.6h-29.2c-1,0-1.6,0.6-1.6,1.6
			C223,670.1,223.7,670.8,224.6,670.8z"/>
	</g>
	<g>
		<rect x="641.6" y="132.9" class="st26" width="26" height="67.5"/>
		<rect x="675" y="122.7" class="st16" width="26" height="77.7"/>
		<rect x="708.4" y="143.1" class="st25" width="26" height="57.3"/>
		<rect x="741.8" y="174.9" class="st0" width="26" height="25.5"/>
	</g>
	<path class="st8" d="M1148,560l-15.8-1.6c-2.1-0.1-3.9,1.4-4,3.5v0c-0.1,2.1,1.4,3.9,3.5,4l6.3,0.8l-41,33.1l-29.1-21.7l-50.8,39.6
		c-1.6,1.3-1.9,3.7-0.7,5.3c0.7,1,1.9,1.5,3,1.5c0.8,0,1.6-0.3,2.3-0.8l46.3-36l29.2,21.8l45.5-36.7l-0.8,7.2
		c-0.3,2.1,1.1,4,3.2,4.3c2.1,0.3,4-1.1,4.3-3.2l2.1-16.6C1152,560.3,1152,560.3,1148,560z"/>
	<g>
		<g>
			<g>
				<g>
					<path class="st23" d="M202.3,1142.5h5.1v2.5c0,1.8-0.1,3.6-0.3,5.4l-0.3,2.5l-5.1-0.6l0.3-2.5c0.2-1.6,0.3-3.2,0.3-4.8V1142.5z
						"/>
				</g>
				<g>
					<path class="st23" d="M200.5,1156.8l4.7,1.9l-1,2.4c-1.4,3.4-3.2,6.6-5.5,9.5l-1.6,2l-4-3.1l1.6-2c2-2.6,3.6-5.4,4.8-8.3
						L200.5,1156.8z M130.4,1156.8l1,2.4c1.2,3,2.9,5.8,4.8,8.3l1.6,2l-4,3.1l-1.6-2c-2.2-2.9-4.1-6.1-5.5-9.5l-1-2.4L130.4,1156.8z
						 M189.9,1172.7l3.1,4l-2,1.6c-2.9,2.2-6.1,4.1-9.5,5.5l-2.4,1l-2-4.7l2.4-1c3-1.2,5.8-2.9,8.3-4.8L189.9,1172.7z M141,1172.8
						l2,1.6c2.6,2,5.4,3.6,8.3,4.8l2.4,1l-1.9,4.7l-2.4-1c-3.4-1.4-6.6-3.2-9.5-5.5l-2-1.6L141,1172.8z M172.8,1181.3l0.7,5.1
						l-2.5,0.3c-3.6,0.5-7.3,0.5-10.9,0l-2.5-0.3l0.7-5.1l2.5,0.3c3.2,0.4,6.5,0.4,9.6,0L172.8,1181.3z"/>
				</g>
				<g>
					<path class="st23" d="M123.5,1142.5h5.1v2.5c0,1.6,0.1,3.2,0.3,4.8l0.3,2.5l-5.1,0.6l-0.3-2.5c-0.2-1.8-0.3-3.6-0.3-5.4V1142.5
						z"/>
				</g>
			</g>
			<g>
				<g>
					<path class="st23" d="M212,1142.5h5.1v2.5c0,1.8-0.1,3.6-0.3,5.4l-0.3,2.5l-5.1-0.5l0.3-2.5c0.2-1.6,0.2-3.2,0.2-4.8V1142.5z"
						/>
				</g>
				<g>
					<path class="st23" d="M210.6,1156.4l4.9,1.5l-0.8,2.4c-1,3.2-2.3,6.3-3.9,9.3l-1.2,2.2l-4.5-2.4l1.2-2.2
						c1.4-2.7,2.6-5.5,3.5-8.4L210.6,1156.4z M120.3,1156.4l0.8,2.4c0.9,2.9,2.1,5.7,3.5,8.4l1.2,2.2l-4.5,2.4l-1.2-2.2
						c-1.6-3-2.9-6.1-3.9-9.3l-0.8-2.4L120.3,1156.4z M202.9,1172.7l3.9,3.2l-1.6,2c-2.1,2.6-4.5,5-7.1,7.1l-2,1.6l-3.2-3.9l2-1.6
						c2.3-1.9,4.5-4.1,6.4-6.4L202.9,1172.7z M128,1172.8l1.6,2c1.9,2.3,4.1,4.5,6.4,6.4l2,1.6l-3.2,4l-2-1.6
						c-2.6-2.1-5-4.5-7.2-7.1l-1.6-2L128,1172.8z M189.6,1184.9l2.4,4.5l-2.2,1.2c-3,1.6-6.1,2.9-9.3,3.8l-2.4,0.7l-1.5-4.9l2.4-0.7
						c2.9-0.9,5.7-2,8.4-3.5L189.6,1184.9z M141.4,1185l2.3,1.2c2.7,1.4,5.5,2.6,8.4,3.5l2.4,0.7l-1.5,4.9l-2.4-0.7
						c-3.2-1-6.3-2.3-9.3-3.8l-2.3-1.2L141.4,1185z M172.6,1191.1l0.5,5.1l-2.5,0.2c-3.3,0.3-6.7,0.3-10.1,0l-2.5-0.2l0.5-5.1
						l2.5,0.2c3,0.3,6.1,0.3,9.1,0L172.6,1191.1z"/>
				</g>
				<g>
					<path class="st23" d="M113.8,1142.5h5.1v2.5c0,1.6,0.1,3.2,0.2,4.8l0.3,2.5l-5.1,0.5l-0.3-2.5c-0.2-1.8-0.3-3.6-0.3-5.4V1142.5
						z"/>
				</g>
			</g>
			<g>
				<g>
					<path class="st23" d="M85.8,1142.5h5.1v2.5c0,1.6,0.1,3.3,0.2,4.9l0.2,2.5l-5.1,0.3l-0.2-2.5c-0.1-1.7-0.2-3.5-0.2-5.3V1142.5z
						"/>
				</g>
				<g>
					<path class="st23" d="M91.8,1157.2l0.5,2.5c0.6,3.2,1.5,6.4,2.5,9.4l0.8,2.4l-4.8,1.6l-0.8-2.4c-1.1-3.3-2-6.7-2.7-10.1
						l-0.5-2.5L91.8,1157.2z M239,1157.3l5,1l-0.5,2.5c-0.7,3.4-1.6,6.8-2.7,10.1l-0.8,2.4l-4.8-1.6l0.8-2.4c1-3.1,1.9-6.2,2.5-9.4
						L239,1157.3z M97.5,1175.8l1.1,2.3c1.4,2.9,3.1,5.7,4.9,8.4l1.4,2.1l-4.2,2.8l-1.4-2.1c-1.9-2.9-3.7-5.9-5.2-9l-1.1-2.3
						L97.5,1175.8z M233.4,1175.9l4.6,2.3l-1.1,2.3c-1.5,3.1-3.3,6.1-5.2,9l-1.4,2.1l-4.2-2.8l1.4-2.1c1.8-2.7,3.5-5.5,4.9-8.4
						L233.4,1175.9z M107.7,1192.3l1.7,1.9c2.1,2.4,4.5,4.8,6.9,6.9l1.9,1.7l-3.4,3.8l-1.9-1.7c-2.6-2.3-5.1-4.8-7.4-7.4l-1.7-1.9
						L107.7,1192.3z M223.1,1192.4l3.8,3.4l-1.7,1.9c-2.3,2.6-4.8,5.1-7.4,7.3l-1.9,1.7l-3.4-3.8l1.9-1.7c2.4-2.1,4.8-4.4,6.9-6.9
						L223.1,1192.4z M121.9,1205.6l2.1,1.4c2.7,1.8,5.5,3.4,8.4,4.9l2.3,1.1l-2.3,4.6l-2.3-1.1c-3.1-1.5-6.1-3.3-9-5.2l-2.1-1.4
						L121.9,1205.6z M208.9,1205.7l2.8,4.2l-2.1,1.4c-2.9,1.9-5.9,3.7-9,5.2l-2.3,1.1l-2.3-4.6l2.3-1.1c2.9-1.4,5.7-3.1,8.4-4.9
						L208.9,1205.7z M139,1214.9l2.4,0.8c3.1,1,6.2,1.9,9.4,2.5l2.5,0.5l-1,5l-2.5-0.5c-3.4-0.7-6.8-1.6-10.1-2.7l-2.4-0.8
						L139,1214.9z M191.8,1214.9l1.6,4.8l-2.4,0.8c-3.3,1.1-6.7,2-10.1,2.7l-2.5,0.5l-1-5l2.5-0.5c3.2-0.6,6.4-1.5,9.4-2.5
						L191.8,1214.9z M158,1219.3l2.5,0.2c3.2,0.2,6.5,0.2,9.7,0l2.5-0.2l0.3,5.1l-2.5,0.2c-3.4,0.2-6.9,0.2-10.4,0l-2.5-0.2
						L158,1219.3z"/>
				</g>
				<g>
					<path class="st23" d="M240,1142.5h5.1v2.5c0,1.7-0.1,3.5-0.2,5.3l-0.2,2.5l-5.1-0.3l0.2-2.5c0.1-1.6,0.2-3.3,0.2-4.9V1142.5z"
						/>
				</g>
			</g>
			<g>
				<g>
					<path class="st23" d="M94.7,1142.5h5.1v2.5c0,1.6,0.1,3.3,0.2,4.9l0.2,2.5l-5.1,0.4l-0.2-2.5c-0.1-1.7-0.2-3.5-0.2-5.3V1142.5z
						"/>
				</g>
				<g>
					<path class="st23" d="M100.8,1156.7l0.5,2.5c0.7,3,1.6,6,2.7,9l0.9,2.4l-4.8,1.8l-0.9-2.4c-1.2-3.1-2.1-6.4-2.9-9.7l-0.5-2.5
						L100.8,1156.7z M230.1,1156.8l5,1.1l-0.6,2.5c-0.7,3.3-1.7,6.5-2.9,9.6l-0.9,2.4l-4.8-1.8l0.9-2.4c1.1-2.9,2-5.9,2.7-8.9
						L230.1,1156.8z M106.7,1174.4l1.2,2.2c1.5,2.7,3.2,5.4,5.1,7.8l1.5,2l-4.1,3.1l-1.5-2c-2-2.7-3.9-5.5-5.5-8.5l-1.2-2.2
						L106.7,1174.4z M224.2,1174.5l4.5,2.5l-1.2,2.2c-1.6,2.9-3.5,5.8-5.5,8.4l-1.5,2l-4.1-3.1l1.5-2c1.9-2.5,3.6-5.1,5.1-7.8
						L224.2,1174.5z M117.3,1189.7l1.8,1.8c2.2,2.2,4.6,4.3,7.1,6.1l2,1.5l-3.1,4.1l-2-1.5c-2.7-2-5.2-4.2-7.6-6.6l-1.8-1.8
						L117.3,1189.7z M213.5,1189.8l3.6,3.6l-1.8,1.8c-2.4,2.4-4.9,4.6-7.6,6.6l-2,1.5l-3-4.1l2-1.5c2.5-1.9,4.9-3.9,7.1-6.1
						L213.5,1189.8z M131.8,1201.5l2.2,1.2c2.7,1.5,5.6,2.8,8.5,3.9l2.4,0.9l-1.8,4.8l-2.4-0.9c-3.1-1.2-6.2-2.6-9.2-4.2l-2.2-1.2
						L131.8,1201.5z M199,1201.5l2.4,4.5l-2.2,1.2c-2.9,1.6-6,3-9.2,4.2l-2.4,0.9l-1.8-4.8l2.4-0.9c2.9-1.1,5.8-2.4,8.5-3.9
						L199,1201.5z M149,1208.7l2.5,0.5c3,0.7,6.1,1.1,9.2,1.3l2.5,0.2l-0.4,5.1l-2.5-0.2c-3.3-0.2-6.7-0.7-10-1.4l-2.5-0.5
						L149,1208.7z M181.8,1208.7l1.1,5l-2.5,0.5c-3.3,0.7-6.6,1.2-10,1.4l-2.5,0.2l-0.4-5.1l2.5-0.2c3.1-0.2,6.2-0.7,9.2-1.3
						L181.8,1208.7z"/>
				</g>
				<g>
					<path class="st23" d="M231.1,1142.5h5.1v2.5c0,1.8-0.1,3.5-0.2,5.3l-0.2,2.5l-5.1-0.4l0.2-2.5c0.1-1.6,0.2-3.3,0.2-4.9V1142.5z
						"/>
				</g>
			</g>
			<g>
				<g>
					<path class="st23" d="M104.3,1142.5h5.1v2.5c0,1.6,0.1,3.3,0.2,4.9l0.2,2.5l-5.1,0.4l-0.2-2.5c-0.2-1.8-0.2-3.5-0.2-5.3V1142.5
						z"/>
				</g>
				<g>
					<path class="st23" d="M110.6,1157.1l0.7,2.5c0.8,3.1,2,6.2,3.3,9.2l1.1,2.3l-4.6,2.2l-1.1-2.3c-1.5-3.2-2.7-6.6-3.6-10
						l-0.7-2.5L110.6,1157.1z M220.3,1157.2l4.9,1.3l-0.7,2.5c-0.9,3.4-2.2,6.8-3.7,10l-1.1,2.3l-4.6-2.2l1.1-2.3
						c1.4-2.9,2.5-6,3.4-9.2L220.3,1157.2z M118,1175.1l1.5,2.1c1.9,2.7,4,5.2,6.3,7.5l1.8,1.8l-3.6,3.6l-1.8-1.8
						c-2.5-2.5-4.8-5.3-6.9-8.2l-1.5-2.1L118,1175.1z M212.8,1175.2l4.2,2.9l-1.5,2.1c-2,2.9-4.3,5.6-6.9,8.2l-1.8,1.8l-3.6-3.6
						l1.8-1.8c2.3-2.3,4.4-4.8,6.3-7.5L212.8,1175.2z M131.2,1189.5l2.1,1.5c2.7,1.9,5.5,3.5,8.5,4.9l2.3,1.1l-2.2,4.6l-2.3-1.1
						c-3.2-1.5-6.3-3.3-9.2-5.3l-2.1-1.5L131.2,1189.5z M199.6,1189.6l2.9,4.2l-2.1,1.5c-2.9,2-6,3.8-9.2,5.3l-2.3,1.1l-2.2-4.6
						l2.3-1.1c2.9-1.4,5.8-3,8.5-4.9L199.6,1189.6z M148.4,1198.6l2.5,0.7c3.1,0.8,6.4,1.4,9.6,1.7l2.5,0.2l-0.4,5.1l-2.5-0.2
						c-3.5-0.3-7.1-0.9-10.5-1.8l-2.5-0.7L148.4,1198.6z M182.4,1198.6l1.3,4.9l-2.5,0.7c-3.4,0.9-7,1.5-10.5,1.8l-2.5,0.2l-0.4-5.1
						l2.5-0.2c3.3-0.3,6.5-0.8,9.6-1.7L182.4,1198.6z"/>
				</g>
				<g>
					<path class="st23" d="M221.5,1142.5h5.1v2.5c0,1.8-0.1,3.6-0.2,5.3l-0.2,2.5l-5.1-0.4l0.2-2.5c0.1-1.6,0.2-3.3,0.2-4.9V1142.5z
						"/>
				</g>
			</g>
		</g>
		<g>
			<rect x="113.4" y="1103.4" class="st24" width="104.2" height="5.1"/>
			<polygon class="st24" points="216.6,1031.8 114.4,1031.8 114.4,1028.9 165.6,1018 216.6,1028.9 			"/>
			<polygon class="st24" points="216.6,1042 216.6,1036.8 114.4,1036.8 114.4,1042 122.5,1042 122.5,1092.9 118.1,1092.9 
				118.1,1098 145.7,1098 145.7,1092.9 141.4,1092.9 141.4,1042 156,1042 156,1092.9 151.6,1092.9 151.6,1098 179.3,1098 
				179.3,1092.9 174.9,1092.9 174.9,1042 189.5,1042 189.5,1092.9 185.1,1092.9 185.1,1098 212.8,1098 212.8,1092.9 208.4,1092.9 
				208.4,1042 			"/>
		</g>
	</g>
	<g>
		<g>
			<g>
				<g>
					<path class="st23" d="M686.5,636.7h5.1v2.5c0,1.8-0.1,3.6-0.3,5.4l-0.3,2.5l-5.1-0.6l0.3-2.5c0.2-1.6,0.3-3.2,0.3-4.8V636.7z"
						/>
				</g>
				<g>
					<path class="st23" d="M684.6,651l4.7,1.9l-1,2.4c-1.4,3.4-3.2,6.6-5.5,9.5l-1.6,2l-4-3.1l1.6-2c2-2.6,3.6-5.4,4.8-8.3
						L684.6,651z M614.6,651l1,2.4c1.2,3,2.9,5.8,4.8,8.3l1.6,2l-4,3.1l-1.6-2c-2.2-2.9-4.1-6.1-5.5-9.5l-1-2.4L614.6,651z
						 M674.1,666.9l3.1,4l-2,1.6c-2.9,2.2-6.1,4.1-9.5,5.5l-2.4,1l-2-4.7l2.4-1c3-1.2,5.8-2.9,8.3-4.8L674.1,666.9z M625.2,667
						l2,1.6c2.6,2,5.4,3.6,8.3,4.8l2.4,1l-1.9,4.7l-2.4-1c-3.4-1.4-6.6-3.2-9.5-5.5l-2-1.6L625.2,667z M657,675.5l0.7,5.1l-2.5,0.3
						c-3.6,0.5-7.3,0.5-10.9,0l-2.5-0.3l0.7-5.1l2.5,0.3c3.2,0.4,6.5,0.4,9.6,0L657,675.5z"/>
				</g>
				<g>
					<path class="st23" d="M607.7,636.7h5.1v2.5c0,1.6,0.1,3.2,0.3,4.8l0.3,2.5l-5.1,0.6l-0.3-2.5c-0.2-1.8-0.3-3.6-0.3-5.4V636.7z"
						/>
				</g>
			</g>
			<g>
				<g>
					<path class="st23" d="M696.1,636.7h5.1v2.5c0,1.8-0.1,3.6-0.3,5.4l-0.3,2.5l-5.1-0.5l0.3-2.5c0.2-1.6,0.2-3.2,0.2-4.8V636.7z"
						/>
				</g>
				<g>
					<path class="st23" d="M694.8,650.6l4.9,1.5l-0.8,2.4c-1,3.2-2.3,6.3-3.9,9.3l-1.2,2.2l-4.5-2.4l1.2-2.2
						c1.4-2.7,2.6-5.5,3.5-8.4L694.8,650.6z M604.4,650.6l0.8,2.4c0.9,2.9,2.1,5.7,3.5,8.4l1.2,2.2l-4.5,2.4l-1.2-2.2
						c-1.6-3-2.9-6.1-3.9-9.3l-0.8-2.4L604.4,650.6z M687.1,666.9l3.9,3.2l-1.6,2c-2.1,2.6-4.5,5-7.1,7.1l-2,1.6l-3.2-3.9l2-1.6
						c2.3-1.9,4.5-4.1,6.4-6.4L687.1,666.9z M612.2,667l1.6,2c1.9,2.3,4.1,4.5,6.4,6.4l2,1.6l-3.2,4l-2-1.6c-2.6-2.1-5-4.5-7.2-7.1
						l-1.6-2L612.2,667z M673.7,679.1l2.4,4.5l-2.2,1.2c-3,1.6-6.1,2.9-9.3,3.8l-2.4,0.7l-1.5-4.9l2.4-0.7c2.9-0.9,5.7-2,8.4-3.5
						L673.7,679.1z M625.5,679.2l2.3,1.2c2.7,1.4,5.5,2.6,8.4,3.5l2.4,0.7l-1.5,4.9l-2.4-0.7c-3.2-1-6.3-2.3-9.3-3.8l-2.3-1.2
						L625.5,679.2z M656.7,685.3l0.5,5.1l-2.5,0.2c-3.3,0.3-6.7,0.3-10.1,0l-2.5-0.2l0.5-5.1l2.5,0.2c3,0.3,6.1,0.3,9.1,0
						L656.7,685.3z"/>
				</g>
				<g>
					<path class="st23" d="M598,636.7h5.1v2.5c0,1.6,0.1,3.2,0.2,4.8l0.3,2.5l-5.1,0.5l-0.3-2.5c-0.2-1.8-0.3-3.6-0.3-5.4V636.7z"/>
				</g>
			</g>
			<g>
				<g>
					<path class="st23" d="M570,636.7h5.1v2.5c0,1.6,0.1,3.3,0.2,4.9l0.2,2.5l-5.1,0.3l-0.2-2.5c-0.1-1.7-0.2-3.5-0.2-5.3V636.7z"/>
				</g>
				<g>
					<path class="st23" d="M576,651.4l0.5,2.5c0.6,3.2,1.5,6.4,2.5,9.4l0.8,2.4l-4.8,1.6l-0.8-2.4c-1.1-3.3-2-6.7-2.7-10.1l-0.5-2.5
						L576,651.4z M723.2,651.5l5,1l-0.5,2.5c-0.7,3.4-1.6,6.8-2.7,10.1l-0.8,2.4l-4.8-1.6l0.8-2.4c1-3.1,1.9-6.2,2.5-9.4
						L723.2,651.5z M581.6,670l1.1,2.3c1.4,2.9,3.1,5.7,4.9,8.4l1.4,2.1l-4.2,2.8l-1.4-2.1c-1.9-2.9-3.7-5.9-5.2-9l-1.1-2.3
						L581.6,670z M717.6,670.1l4.6,2.3l-1.1,2.3c-1.5,3.1-3.3,6.1-5.2,9l-1.4,2.1l-4.2-2.8l1.4-2.1c1.8-2.7,3.5-5.5,4.9-8.4
						L717.6,670.1z M591.9,686.5l1.7,1.9c2.1,2.4,4.5,4.8,6.9,6.9l1.9,1.7l-3.4,3.8l-1.9-1.7c-2.6-2.3-5.1-4.8-7.4-7.4l-1.7-1.9
						L591.9,686.5z M707.3,686.6l3.8,3.4l-1.7,1.9c-2.3,2.6-4.8,5.1-7.4,7.4l-1.9,1.7l-3.4-3.8l1.9-1.7c2.4-2.1,4.8-4.4,6.9-6.9
						L707.3,686.6z M606.1,699.9l2.1,1.4c2.7,1.8,5.5,3.4,8.4,4.9l2.3,1.1l-2.3,4.6l-2.3-1.1c-3.1-1.5-6.1-3.3-9-5.2l-2.1-1.4
						L606.1,699.9z M693.1,699.9l2.8,4.2l-2.1,1.4c-2.9,1.9-5.9,3.7-9,5.2l-2.3,1.1l-2.3-4.6l2.3-1.1c2.9-1.4,5.7-3.1,8.4-4.9
						L693.1,699.9z M623.2,709.1l2.4,0.8c3.1,1,6.2,1.9,9.4,2.5l2.5,0.5l-1,5l-2.5-0.5c-3.4-0.7-6.8-1.6-10.1-2.7l-2.4-0.8
						L623.2,709.1z M675.9,709.1l1.6,4.8l-2.4,0.8c-3.3,1.1-6.7,2-10.1,2.7l-2.5,0.5l-1-5l2.5-0.5c3.2-0.6,6.4-1.5,9.4-2.5
						L675.9,709.1z M642.1,713.5l2.5,0.2c3.2,0.2,6.5,0.2,9.7,0l2.5-0.2l0.3,5.1l-2.5,0.2c-3.4,0.2-6.9,0.2-10.4,0l-2.5-0.2
						L642.1,713.5z"/>
				</g>
				<g>
					<path class="st23" d="M724.2,636.7h5.1v2.5c0,1.7-0.1,3.5-0.2,5.3l-0.2,2.5l-5.1-0.3l0.2-2.5c0.1-1.6,0.2-3.3,0.2-4.9V636.7z"
						/>
				</g>
			</g>
			<g>
				<g>
					<path class="st23" d="M578.9,636.7h5.1v2.5c0,1.6,0.1,3.3,0.2,4.9l0.2,2.5l-5.1,0.4l-0.2-2.5c-0.1-1.7-0.2-3.5-0.2-5.3V636.7z"
						/>
				</g>
				<g>
					<path class="st23" d="M585,650.9l0.5,2.5c0.7,3,1.6,6,2.7,9l0.9,2.4l-4.8,1.8l-0.9-2.4c-1.2-3.1-2.1-6.4-2.9-9.7L580,652
						L585,650.9z M714.2,651l5,1.1l-0.6,2.5c-0.7,3.3-1.7,6.5-2.9,9.6l-0.9,2.4l-4.8-1.8l0.9-2.4c1.1-2.9,2-5.9,2.7-8.9L714.2,651z
						 M590.8,668.6l1.2,2.2c1.5,2.7,3.2,5.4,5.1,7.8l1.5,2l-4.1,3.1l-1.5-2c-2-2.7-3.9-5.5-5.5-8.5l-1.2-2.2L590.8,668.6z
						 M708.3,668.7l4.5,2.5l-1.2,2.2c-1.6,2.9-3.5,5.8-5.5,8.4l-1.5,2l-4.1-3.1l1.5-2c1.9-2.5,3.6-5.1,5.1-7.8L708.3,668.7z
						 M601.5,684l1.8,1.8c2.2,2.2,4.6,4.3,7.1,6.1l2,1.5l-3.1,4.1l-2-1.5c-2.7-2-5.2-4.2-7.6-6.6l-1.8-1.8L601.5,684z M697.7,684
						l3.6,3.6l-1.8,1.8c-2.4,2.4-4.9,4.6-7.6,6.6l-2,1.5l-3-4.1l2-1.5c2.5-1.9,4.9-3.9,7.1-6.1L697.7,684z M616,695.7l2.2,1.2
						c2.7,1.5,5.6,2.8,8.5,3.9l2.4,0.9l-1.8,4.8l-2.4-0.9c-3.1-1.2-6.2-2.6-9.2-4.2l-2.2-1.2L616,695.7z M683.2,695.7l2.4,4.5
						l-2.2,1.2c-2.9,1.6-6,3-9.2,4.2l-2.4,0.9l-1.8-4.8l2.4-0.9c2.9-1.1,5.8-2.4,8.5-3.9L683.2,695.7z M633.2,702.9l2.5,0.5
						c3,0.7,6.1,1.1,9.2,1.3l2.5,0.2l-0.4,5.1l-2.5-0.2c-3.3-0.2-6.7-0.7-10-1.4l-2.5-0.5L633.2,702.9z M666,702.9l1.1,5l-2.5,0.5
						c-3.3,0.7-6.6,1.2-10,1.4L652,710l-0.4-5.1l2.5-0.2c3.1-0.2,6.2-0.7,9.2-1.3L666,702.9z"/>
				</g>
				<g>
					<path class="st23" d="M715.2,636.7h5.1v2.5c0,1.8-0.1,3.5-0.2,5.3l-0.2,2.5l-5.1-0.4l0.2-2.5c0.1-1.6,0.2-3.3,0.2-4.9V636.7z"
						/>
				</g>
			</g>
			<g>
				<g>
					<path class="st23" d="M588.4,636.7h5.1v2.5c0,1.6,0.1,3.3,0.2,4.9l0.2,2.5l-5.1,0.4l-0.2-2.5c-0.2-1.8-0.2-3.5-0.2-5.3V636.7z"
						/>
				</g>
				<g>
					<path class="st23" d="M594.8,651.3l0.7,2.5c0.8,3.1,2,6.2,3.3,9.2l1.1,2.3l-4.6,2.2l-1.1-2.3c-1.5-3.2-2.7-6.6-3.6-10l-0.7-2.5
						L594.8,651.3z M704.4,651.4l4.9,1.3l-0.7,2.5c-0.9,3.4-2.2,6.8-3.7,10l-1.1,2.3l-4.6-2.2l1.1-2.3c1.4-2.9,2.5-6,3.4-9.2
						L704.4,651.4z M602.2,669.3l1.5,2.1c1.9,2.7,4,5.2,6.3,7.5l1.8,1.8l-3.6,3.6l-1.8-1.8c-2.5-2.5-4.8-5.3-6.9-8.2l-1.5-2.1
						L602.2,669.3z M697,669.4l4.2,2.9l-1.5,2.1c-2,2.9-4.3,5.6-6.9,8.2l-1.8,1.8l-3.6-3.6l1.8-1.8c2.3-2.3,4.4-4.8,6.3-7.5
						L697,669.4z M615.3,683.7l2.1,1.5c2.7,1.9,5.5,3.5,8.5,4.9l2.3,1.1l-2.2,4.6l-2.3-1.1c-3.2-1.5-6.3-3.3-9.2-5.3l-2.1-1.5
						L615.3,683.7z M683.8,683.8l2.9,4.2l-2.1,1.5c-2.9,2-6,3.8-9.2,5.3l-2.3,1.1l-2.2-4.6l2.3-1.1c2.9-1.4,5.8-3,8.5-4.9
						L683.8,683.8z M632.6,692.8l2.5,0.7c3.1,0.8,6.4,1.4,9.6,1.7l2.5,0.2l-0.4,5.1l-2.5-0.2c-3.5-0.3-7.1-0.9-10.5-1.8l-2.5-0.7
						L632.6,692.8z M666.5,692.8l1.3,4.9l-2.5,0.7c-3.4,0.9-7,1.5-10.5,1.8l-2.5,0.2l-0.4-5.1l2.5-0.2c3.3-0.3,6.5-0.8,9.6-1.7
						L666.5,692.8z"/>
				</g>
				<g>
					<path class="st23" d="M705.7,636.7h5.1v2.5c0,1.8-0.1,3.6-0.2,5.3l-0.2,2.5l-5.1-0.4l0.2-2.5c0.1-1.6,0.2-3.3,0.2-4.9V636.7z"
						/>
				</g>
			</g>
		</g>
		<g>
			<rect x="597.5" y="597.6" class="st24" width="104.2" height="5.1"/>
			<polygon class="st24" points="700.7,526 598.6,526 598.6,523.1 649.7,512.2 700.7,523.1 			"/>
			<polygon class="st24" points="700.7,536.2 700.7,531 598.6,531 598.6,536.2 606.6,536.2 606.6,587.1 602.3,587.1 602.3,592.3 
				629.9,592.3 629.9,587.1 625.5,587.1 625.5,536.2 640.2,536.2 640.2,587.1 635.8,587.1 635.8,592.3 663.4,592.3 663.4,587.1 
				659,587.1 659,536.2 673.7,536.2 673.7,587.1 669.3,587.1 669.3,592.3 697,592.3 697,587.1 692.6,587.1 692.6,536.2 			"/>
		</g>
	</g>
	<g>
		<g>
			<g>
				<g>
					<path class="st23" d="M1126.1,175.5h5.1v2.5c0,1.8-0.1,3.6-0.3,5.4l-0.3,2.5l-5.1-0.6l0.3-2.5c0.2-1.6,0.3-3.2,0.3-4.8V175.5z"
						/>
				</g>
				<g>
					<path class="st23" d="M1124.3,189.7l4.7,1.9l-1,2.4c-1.4,3.4-3.2,6.6-5.5,9.5l-1.6,2l-4-3.1l1.6-2c2-2.6,3.6-5.4,4.8-8.3
						L1124.3,189.7z M1054.3,189.8l1,2.4c1.2,3,2.9,5.8,4.8,8.3l1.6,2l-4,3.1l-1.6-2c-2.2-2.9-4.1-6.1-5.5-9.5l-1-2.4L1054.3,189.8z
						 M1113.7,205.7l3.1,4l-2,1.6c-2.9,2.2-6.1,4.1-9.5,5.5l-2.4,1l-2-4.7l2.4-1c3-1.2,5.8-2.9,8.3-4.8L1113.7,205.7z M1064.8,205.7
						l2,1.6c2.6,2,5.4,3.6,8.3,4.8l2.4,1l-1.9,4.7l-2.4-1c-3.4-1.4-6.6-3.2-9.5-5.5l-2-1.6L1064.8,205.7z M1096.6,214.2l0.7,5.1
						l-2.5,0.3c-3.6,0.5-7.3,0.5-10.9,0l-2.5-0.3l0.7-5.1l2.5,0.3c3.2,0.4,6.5,0.4,9.6,0L1096.6,214.2z"/>
				</g>
				<g>
					<path class="st23" d="M1047.3,175.5h5.1v2.5c0,1.6,0.1,3.2,0.3,4.8l0.3,2.5l-5.1,0.6l-0.3-2.5c-0.2-1.8-0.3-3.6-0.3-5.4V175.5z
						"/>
				</g>
			</g>
			<g>
				<g>
					<path class="st23" d="M1135.8,175.5h5.1v2.5c0,1.8-0.1,3.6-0.3,5.4l-0.3,2.5l-5.1-0.5l0.3-2.5c0.2-1.6,0.2-3.2,0.2-4.8V175.5z"
						/>
				</g>
				<g>
					<path class="st23" d="M1134.5,189.3l4.9,1.5l-0.8,2.4c-1,3.2-2.3,6.3-3.9,9.3l-1.2,2.2l-4.5-2.4l1.2-2.2
						c1.4-2.7,2.6-5.5,3.5-8.4L1134.5,189.3z M1044.1,189.4l0.8,2.4c0.9,2.9,2.1,5.7,3.5,8.4l1.2,2.2l-4.5,2.4l-1.2-2.2
						c-1.6-3-2.9-6.1-3.9-9.3l-0.8-2.4L1044.1,189.4z M1126.8,205.7l3.9,3.2l-1.6,2c-2.1,2.6-4.5,5-7.1,7.1l-2,1.6l-3.2-3.9l2-1.6
						c2.3-1.9,4.5-4.1,6.4-6.4L1126.8,205.7z M1051.8,205.7l1.6,2c1.9,2.3,4.1,4.5,6.4,6.4l2,1.6l-3.2,3.9l-2-1.6
						c-2.6-2.1-5-4.5-7.2-7.1l-1.6-2L1051.8,205.7z M1113.4,217.9l2.4,4.5l-2.2,1.2c-3,1.6-6.1,2.9-9.3,3.8l-2.4,0.7l-1.5-4.9
						l2.4-0.7c2.9-0.9,5.7-2,8.4-3.5L1113.4,217.9z M1065.2,217.9l2.2,1.2c2.7,1.4,5.5,2.6,8.4,3.5l2.4,0.7l-1.5,4.9l-2.4-0.7
						c-3.2-1-6.3-2.3-9.3-3.8l-2.3-1.2L1065.2,217.9z M1096.4,224.1l0.5,5.1l-2.5,0.2c-3.3,0.3-6.7,0.3-10.1,0l-2.5-0.2l0.5-5.1
						l2.5,0.2c3,0.3,6.1,0.3,9.1,0L1096.4,224.1z"/>
				</g>
				<g>
					<path class="st23" d="M1037.7,175.5h5.1v2.5c0,1.6,0.1,3.2,0.2,4.8l0.3,2.5l-5.1,0.5l-0.3-2.5c-0.2-1.8-0.3-3.6-0.3-5.4V175.5z
						"/>
				</g>
			</g>
			<g>
				<g>
					<path class="st23" d="M1009.6,175.5h5.1v2.5c0,1.6,0.1,3.3,0.2,4.9l0.2,2.5l-5.1,0.3l-0.2-2.5c-0.1-1.7-0.2-3.5-0.2-5.3V175.5z
						"/>
				</g>
				<g>
					<path class="st23" d="M1015.7,190.1l0.5,2.5c0.6,3.2,1.5,6.4,2.5,9.4l0.8,2.4l-4.8,1.6l-0.8-2.4c-1.1-3.3-2-6.7-2.7-10.1
						l-0.5-2.5L1015.7,190.1z M1162.9,190.2l5,1l-0.5,2.5c-0.7,3.4-1.6,6.8-2.7,10.1l-0.8,2.4l-4.8-1.6l0.8-2.4
						c1-3.1,1.9-6.2,2.5-9.4L1162.9,190.2z M1021.3,208.7l1.1,2.3c1.4,2.9,3.1,5.7,4.9,8.4l1.4,2.1l-4.2,2.8l-1.4-2.1
						c-1.9-2.9-3.7-5.9-5.2-9l-1.1-2.3L1021.3,208.7z M1157.2,208.8l4.6,2.3l-1.1,2.3c-1.5,3.1-3.3,6.1-5.2,9l-1.4,2.1l-4.2-2.8
						l1.4-2.1c1.8-2.7,3.5-5.5,4.9-8.4L1157.2,208.8z M1031.6,225.3l1.7,1.9c2.1,2.4,4.5,4.8,6.9,6.9l1.9,1.7l-3.4,3.8l-1.9-1.7
						c-2.6-2.3-5.1-4.8-7.4-7.4l-1.7-1.9L1031.6,225.3z M1146.9,225.3l3.8,3.4l-1.7,1.9c-2.3,2.6-4.8,5.1-7.4,7.4l-1.9,1.7l-3.4-3.8
						l1.9-1.7c2.4-2.1,4.8-4.4,6.9-6.9L1146.9,225.3z M1045.7,238.6l2.1,1.4c2.7,1.8,5.5,3.4,8.4,4.9l2.3,1.1l-2.3,4.6l-2.3-1.1
						c-3.1-1.5-6.1-3.3-9-5.2l-2.1-1.4L1045.7,238.6z M1132.7,238.6l2.8,4.2l-2.1,1.4c-2.9,1.9-5.9,3.7-9,5.2l-2.3,1.1l-2.3-4.6
						l2.3-1.1c2.9-1.4,5.7-3.1,8.4-4.9L1132.7,238.6z M1062.9,247.8l2.4,0.8c3.1,1,6.2,1.9,9.4,2.5l2.5,0.5l-1,5l-2.5-0.5
						c-3.4-0.7-6.8-1.6-10.1-2.7l-2.4-0.8L1062.9,247.8z M1115.6,247.8l1.6,4.8l-2.4,0.8c-3.3,1.1-6.7,2-10.1,2.7l-2.5,0.5l-1-5
						l2.5-0.5c3.2-0.6,6.4-1.5,9.4-2.5L1115.6,247.8z M1081.8,252.2l2.5,0.2c3.2,0.2,6.5,0.2,9.7,0l2.5-0.2l0.3,5.1l-2.5,0.2
						c-3.4,0.2-6.9,0.2-10.4,0l-2.5-0.2L1081.8,252.2z"/>
				</g>
				<g>
					<path class="st23" d="M1163.8,175.5h5.1v2.5c0,1.7-0.1,3.5-0.2,5.3l-0.2,2.5l-5.1-0.3l0.2-2.5c0.1-1.6,0.2-3.3,0.2-4.9V175.5z"
						/>
				</g>
			</g>
			<g>
				<g>
					<path class="st23" d="M1018.5,175.5h5.1v2.5c0,1.6,0.1,3.3,0.2,4.9l0.2,2.5l-5.1,0.4l-0.2-2.5c-0.1-1.7-0.2-3.5-0.2-5.3V175.5z
						"/>
				</g>
				<g>
					<path class="st23" d="M1024.6,189.7l0.5,2.5c0.7,3,1.6,6,2.7,9l0.9,2.4l-4.8,1.8l-0.9-2.4c-1.2-3.1-2.1-6.4-2.9-9.7l-0.5-2.5
						L1024.6,189.7z M1153.9,189.8l5,1.1l-0.6,2.5c-0.7,3.3-1.7,6.5-2.9,9.6l-0.9,2.4l-4.8-1.8l0.9-2.4c1.1-2.9,2-5.9,2.7-8.9
						L1153.9,189.8z M1030.5,207.4l1.2,2.2c1.5,2.7,3.2,5.4,5.1,7.8l1.5,2l-4.1,3.1l-1.5-2c-2-2.7-3.9-5.5-5.5-8.5l-1.2-2.2
						L1030.5,207.4z M1148,207.5l4.5,2.5l-1.2,2.2c-1.6,2.9-3.5,5.8-5.5,8.4l-1.5,2l-4.1-3.1l1.5-2c1.9-2.5,3.6-5.1,5.1-7.8
						L1148,207.5z M1041.1,222.7l1.8,1.8c2.2,2.2,4.6,4.3,7.1,6.1l2,1.5l-3.1,4.1l-2-1.5c-2.7-2-5.2-4.2-7.6-6.6l-1.8-1.8
						L1041.1,222.7z M1137.4,222.8l3.6,3.6l-1.8,1.8c-2.4,2.4-4.9,4.6-7.6,6.6l-2,1.5l-3-4.1l2-1.5c2.5-1.9,4.9-3.9,7.1-6.1
						L1137.4,222.8z M1055.6,234.4l2.2,1.2c2.7,1.5,5.6,2.8,8.5,3.9l2.4,0.9l-1.8,4.8l-2.4-0.9c-3.1-1.2-6.2-2.6-9.2-4.2l-2.2-1.2
						L1055.6,234.4z M1122.8,234.5l2.4,4.5l-2.2,1.2c-2.9,1.6-6,3-9.2,4.2l-2.4,0.9l-1.8-4.8l2.4-0.9c2.9-1.1,5.8-2.4,8.5-3.9
						L1122.8,234.5z M1072.8,241.6l2.5,0.5c3,0.7,6.1,1.1,9.2,1.3l2.5,0.2l-0.4,5.1l-2.5-0.2c-3.3-0.2-6.7-0.7-10-1.4l-2.5-0.5
						L1072.8,241.6z M1105.6,241.6l1.1,5l-2.5,0.5c-3.3,0.7-6.6,1.2-10,1.4l-2.5,0.2l-0.4-5.1l2.5-0.2c3.1-0.2,6.2-0.7,9.2-1.3
						L1105.6,241.6z"/>
				</g>
				<g>
					<path class="st23" d="M1154.9,175.5h5.1v2.5c0,1.8-0.1,3.5-0.2,5.3l-0.2,2.5l-5.1-0.4l0.2-2.5c0.1-1.6,0.2-3.3,0.2-4.9V175.5z"
						/>
				</g>
			</g>
			<g>
				<g>
					<path class="st23" d="M1028.1,175.5h5.1v2.5c0,1.6,0.1,3.3,0.2,4.9l0.2,2.5l-5.1,0.4l-0.2-2.5c-0.2-1.8-0.2-3.5-0.2-5.3V175.5z
						"/>
				</g>
				<g>
					<path class="st23" d="M1034.4,190.1l0.7,2.5c0.8,3.1,2,6.2,3.3,9.2l1.1,2.3l-4.6,2.2l-1.1-2.3c-1.5-3.2-2.7-6.6-3.6-10
						l-0.7-2.5L1034.4,190.1z M1144.1,190.1l4.9,1.3l-0.7,2.5c-0.9,3.4-2.2,6.8-3.7,10l-1.1,2.3l-4.6-2.2l1.1-2.3
						c1.4-2.9,2.5-6,3.4-9.2L1144.1,190.1z M1041.9,208.1l1.5,2.1c1.9,2.7,4,5.2,6.3,7.5l1.8,1.8l-3.6,3.6l-1.8-1.8
						c-2.5-2.5-4.8-5.3-6.9-8.2l-1.5-2.1L1041.9,208.1z M1136.6,208.1l4.2,2.9l-1.5,2.1c-2,2.9-4.3,5.6-6.9,8.2l-1.8,1.8l-3.6-3.6
						l1.8-1.8c2.3-2.3,4.4-4.8,6.3-7.5L1136.6,208.1z M1055,222.5l2.1,1.5c2.7,1.9,5.5,3.5,8.5,4.9l2.3,1.1l-2.2,4.6l-2.3-1.1
						c-3.2-1.5-6.3-3.3-9.2-5.3l-2.1-1.5L1055,222.5z M1123.5,222.5l2.9,4.2l-2.1,1.5c-2.9,2-6,3.8-9.2,5.3l-2.3,1.1l-2.2-4.6
						l2.3-1.1c2.9-1.4,5.8-3,8.5-4.9L1123.5,222.5z M1072.3,231.5l2.5,0.7c3.1,0.8,6.4,1.4,9.6,1.7l2.5,0.2l-0.4,5.1l-2.5-0.2
						c-3.5-0.3-7.1-0.9-10.5-1.8l-2.5-0.7L1072.3,231.5z M1106.2,231.5l1.3,4.9l-2.5,0.7c-3.4,0.9-7,1.5-10.5,1.8l-2.5,0.2l-0.4-5.1
						l2.5-0.2c3.3-0.3,6.5-0.8,9.6-1.7L1106.2,231.5z"/>
				</g>
				<g>
					<path class="st23" d="M1145.3,175.5h5.1v2.5c0,1.8-0.1,3.6-0.2,5.3l-0.2,2.5l-5.1-0.4l0.2-2.5c0.1-1.6,0.2-3.3,0.2-4.9V175.5z"
						/>
				</g>
			</g>
		</g>
		<g>
			<rect x="1037.2" y="136.3" class="st24" width="104.2" height="5.1"/>
			<polygon class="st24" points="1140.4,64.8 1038.2,64.8 1038.2,61.8 1089.4,51 1140.4,61.8 			"/>
			<polygon class="st24" points="1140.4,74.9 1140.4,69.8 1038.2,69.8 1038.2,74.9 1046.3,74.9 1046.3,125.8 1041.9,125.8 
				1041.9,131 1069.6,131 1069.6,125.8 1065.2,125.8 1065.2,74.9 1079.8,74.9 1079.8,125.8 1075.4,125.8 1075.4,131 1103.1,131 
				1103.1,125.8 1098.7,125.8 1098.7,74.9 1113.3,74.9 1113.3,125.8 1109,125.8 1109,131 1136.6,131 1136.6,125.8 1132.2,125.8 
				1132.2,74.9 			"/>
		</g>
	</g>
	<g>
		<g>
			<path class="st27" d="M633.4,1068v5.4h-6.8c-1.9,0-2.7,0.9-2.7,3.2v12.9c0,4.8-1.8,6.3-4.2,7c2.4,0.7,4.2,2.1,4.2,7v12.9
				c0,2.3,0.8,3.2,2.7,3.2h6.8v5.4h-8.3c-3.6,0-6-2.9-6-7.1v-12.3c0-5-2.4-6.4-6-6.4v-5.4c3.6,0,6-1.4,6-6.4v-12.3
				c0-4.3,2.4-7.1,6-7.1H633.4 M633.4,1065h-8.3c-5.3,0-9,4.2-9,10.1v12.3c0,2.8-0.6,3.4-3,3.4c-1.7,0-3,1.3-3,3v5.4
				c0,1.7,1.3,3,3,3c2.4,0,3,0.6,3,3.4v12.3c0,6,3.7,10.1,9,10.1h8.3c1.7,0,3-1.3,3-3v-5.4c0-1.7-1.3-3-3-3H627c0-0.1,0-0.1,0-0.2
				v-12.9c0-3-0.6-5.3-1.9-7c1.3-1.7,1.9-4,1.9-7v-12.9c0-0.1,0-0.1,0-0.2h6.5c1.7,0,3-1.3,3-3v-5.4
				C636.4,1066.3,635.1,1065,633.4,1065L633.4,1065z"/>
		</g>
		<g>
			<path class="st27" d="M663.7,1068l-16.4,57h-5.2l16.4-57H663.7 M663.7,1065h-5.2c-1.3,0-2.5,0.9-2.9,2.2l-16.4,57
				c-0.3,0.9-0.1,1.9,0.5,2.6c0.6,0.8,1.5,1.2,2.4,1.2h5.2c1.3,0,2.5-0.9,2.9-2.2l16.4-57c0.3-0.9,0.1-1.9-0.5-2.6
				C665.5,1065.4,664.6,1065,663.7,1065L663.7,1065z"/>
		</g>
		<g>
			<path class="st27" d="M681,1068c3.6,0,6,2.8,6,7.1v12.3c0,5,2.4,6.4,6,6.4v5.4c-3.6,0-6,1.4-6,6.4v12.3c0,4.3-2.4,7.1-6,7.1h-8.3
				v-5.4h6.8c1.9,0,2.7-0.9,2.7-3.2v-12.9c0-4.8,1.8-6.3,4.2-7c-2.4-0.7-4.2-2.1-4.2-7v-12.9c0-2.3-0.8-3.2-2.7-3.2h-6.8v-5.4H681
				 M681,1065h-8.3c-1.7,0-3,1.3-3,3v5.4c0,1.7,1.3,3,3,3h6.5c0,0.1,0,0.1,0,0.2v12.9c0,3,0.6,5.3,1.9,7c-1.3,1.7-1.9,4-1.9,7v12.9
				c0,0.1,0,0.1,0,0.2h-6.5c-1.7,0-3,1.3-3,3v5.4c0,1.7,1.3,3,3,3h8.3c5.3,0,9-4.2,9-10.1v-12.3c0-2.8,0.6-3.4,3-3.4
				c1.7,0,3-1.3,3-3v-5.4c0-1.7-1.3-3-3-3c-2.4,0-3-0.6-3-3.4v-12.3C690,1069.2,686.3,1065,681,1065L681,1065z"/>
		</g>
	</g>
</g>
</svg>
