<?xml version="1.0" encoding="utf-8"?>
<!-- Generator: Adobe Illustrator 19.0.0, SVG Export Plug-In . SVG Version: 6.00 Build 0)  -->
<svg version="1.1" id="Ebene_1" xmlns="http://www.w3.org/2000/svg" xmlns:xlink="http://www.w3.org/1999/xlink" x="0px" y="0px"
	 viewBox="0 0 538 105" style="enable-background:new 0 0 538 105;" xml:space="preserve">
<style type="text/css">
	.st0{fill:#010202;}
	.st1{fill:#A6C4D5;stroke:#010202;stroke-width:2.5;stroke-linejoin:round;stroke-miterlimit:10;}
	.st2{fill:#A6C4D5;stroke:#010202;stroke-width:2.5;stroke-miterlimit:10;}
	.st3{fill:#EF7E82;stroke:#010202;stroke-width:2.5;stroke-miterlimit:10;}
	.st4{fill:#F8ED6F;stroke:#010202;stroke-width:3;stroke-linejoin:round;stroke-miterlimit:10;}
	.st5{fill:#FFFFFF;stroke:#010202;stroke-width:3;stroke-linecap:round;stroke-linejoin:round;stroke-miterlimit:10;}
	.st6{fill:none;stroke:#010202;stroke-width:3;stroke-linecap:round;stroke-linejoin:round;stroke-miterlimit:10;}
</style>
<g id="XMLID_14_">
	<g id="XMLID_2041_">
		<path id="XMLID_2042_" class="st0" d="M32.3,80.4h-6.4l-7.6-56.3h7.7l3.3,29.3l0.2,1.8H30l0.2-1.8l3.5-29.3h6l3.5,29.3l0.2,1.8
			h0.6l0.2-1.8l3.3-29.3h7.7l-7.6,56.3h-6.4l-3.8-26.7l-0.5-3.3h-0.3l-0.5,3.3L32.3,80.4z"/>
		<path id="XMLID_2044_" class="st0" d="M56.9,80.4l8.5-56.3h10.1L84,80.4h-8l-1.5-11.5h-8l-1.5,11.5H56.9z M70.9,42.4l-0.2-1.5
			h-0.5L70,42.4l-2.4,17.8h5.7L70.9,42.4z"/>
		<path id="XMLID_2047_" class="st0" d="M102.6,55.9h-6.4v24.5h-8.3V24.1h8.3v23.3h6.4V24.1h8.3v56.3h-8.3V55.9z"/>
		<path id="XMLID_2049_" class="st0" d="M117,24.1h8.3v48.7h11v7.7H117V24.1z"/>
		<path id="XMLID_2051_" class="st0" d="M153.3,39.2c0-1.8-0.1-3.9-0.6-5.5c-0.5-1.5-1.4-2.6-2.7-2.6c-2.1,0.1-2.8,2.3-2.8,5.6
			c0,1.9,0.8,3.9,2.1,6.1c1.2,2.1,2.8,4.4,4.4,6.7c1.9,2.8,3.8,5.7,5.3,8.6c1.5,2.8,2.5,5.7,2.5,8.8c0,3.8-0.6,7.3-2.4,9.9
			c-1.8,2.6-4.6,4.3-9.1,4.3c-5.3,0-8.3-2-10-5.1c-1.7-3.1-2.1-7.1-2.1-11.3l8.1-0.8c0,2.4,0.1,4.8,0.7,6.5c0.5,1.8,1.5,3.1,3.2,3.1
			c2.5,0,3.4-2.6,3.4-6.2c0-1.8-0.9-4-2.1-6.2c-0.7-1.1-1.4-2.2-2.1-3.4c-1.6-2.3-3.4-4.9-5.2-7.7c-1.8-2.8-3.2-5.7-4.1-8.7
			c-0.5-1.5-0.7-3-0.7-4.5c0-3.1,0.7-6.4,2.5-8.9c1.8-2.5,4.4-4.2,8.4-4.3c5-0.1,7.9,2,9.5,5c1.6,3.1,2.1,6.8,2.1,10L153.3,39.2z"/>
		<path id="XMLID_2053_" class="st0" d="M163.6,80.4l8.5-56.3h10.1l8.5,56.3h-8l-1.5-11.5h-8l-1.5,11.5H163.6z M177.6,42.4l-0.2-1.5
			h-0.5l-0.2,1.5l-2.4,17.8h5.7L177.6,42.4z"/>
		<path id="XMLID_2056_" class="st0" d="M194.5,24.1h8.3v48.7h11v7.7h-19.2V24.1z"/>
		<path id="XMLID_2058_" class="st0" d="M238.7,68.8c-0.1,2.3-0.5,4.4-1.4,6.1c-0.7,1.5-1.8,3-3.3,4.1c-1.5,1.2-3.6,1.9-6.4,1.9
			c-2.8,0-4.9-0.7-6.4-1.9c-1.5-1.2-2.5-2.6-3.2-4.1c-0.8-1.8-1.3-3.8-1.4-6.1V35.7c0.1-2.2,0.5-4.3,1.4-6.1
			c0.7-1.5,1.7-3.1,3.2-4.2c1.5-1.2,3.7-1.9,6.4-1.9c2.8,0,4.8,0.8,6.4,1.9c1.5,1.1,2.6,2.7,3.3,4.2c0.8,1.8,1.3,3.8,1.4,6.1V68.8z
			 M230.4,35.7c0-1.5-0.3-2.6-1.1-3.5c-0.4-0.4-1-0.6-1.7-0.6c-1.5,0-2.1,1.1-2.5,2.1c-0.2,0.6-0.3,1.3-0.3,2.1v33.2
			c0,1.6,0.4,2.7,1.1,3.5c0.4,0.4,0.9,0.6,1.6,0.6c1.5,0,2.1-0.9,2.5-2.1c0.2-0.5,0.3-1.2,0.3-2.1V35.7z"/>
		<path id="XMLID_2061_" class="st0" d="M253,51.1l-0.7-2.6h-0.5v32h-7.6V24.1h7.4l8,29.4l0.7,2.6h0.5v-32h7.6v56.3H261L253,51.1z"
			/>
		<path id="XMLID_2063_" class="st0" d="M288.3,39.2c0-1.8-0.1-3.9-0.6-5.5c-0.5-1.5-1.4-2.6-2.7-2.6c-2.1,0.1-2.8,2.3-2.8,5.6
			c0,1.9,0.8,3.9,2.1,6.1c1.2,2.1,2.8,4.4,4.4,6.7c1.9,2.8,3.8,5.7,5.3,8.6c1.5,2.8,2.5,5.7,2.5,8.8c0,3.8-0.6,7.3-2.4,9.9
			c-1.8,2.6-4.6,4.3-9.1,4.3c-5.3,0-8.3-2-10-5.1c-1.7-3.1-2.1-7.1-2.1-11.3l8.1-0.8c0,2.4,0.1,4.8,0.7,6.5c0.5,1.8,1.5,3.1,3.2,3.1
			c2.5,0,3.4-2.6,3.4-6.2c0-1.8-0.9-4-2.1-6.2c-0.7-1.1-1.4-2.2-2.1-3.4c-1.6-2.3-3.4-4.9-5.2-7.7c-1.8-2.8-3.2-5.7-4.1-8.7
			c-0.5-1.5-0.7-3-0.7-4.5c0-3.1,0.7-6.4,2.5-8.9c1.8-2.5,4.4-4.2,8.4-4.3c5-0.1,7.9,2,9.5,5c1.6,3.1,2.1,6.8,2.1,10L288.3,39.2z"/>
	</g>
	<g id="XMLID_2065_">
		<path id="XMLID_2066_" class="st1" d="M420.3,41.9V38c0-3.8,0.5-7.4,2.1-10.1c1.6-2.7,4.4-4.4,8.9-4.4c4.2,0,7.1,1.6,8.7,4.1
			c1.7,2.5,2.3,6.1,2.3,10c0,5.7-2.1,12.6-4.8,18.9c-2.8,6.4-6,12.2-8.1,15.8h13.1v8.2h-22.5v-8.2c2.5-3.9,4.8-7.9,6.9-11.9
			c1.8-3.4,3.4-7.2,4.8-11.1c1.3-3.9,2.3-7.7,2.4-11.2c0-1.5-0.1-3.3-0.5-4.6c-0.4-1.3-1.1-2.3-2.3-2.3c-1.1,0-1.8,0.8-2.2,2.1
			c-0.4,1.3-0.5,3-0.5,4.8v3.9H420.3z"/>
		<path id="XMLID_2068_" class="st2" d="M470.3,68.8c-0.1,2.3-0.5,4.4-1.4,6.1c-0.7,1.5-1.8,3-3.3,4.1c-1.5,1.2-3.6,1.9-6.4,1.9
			c-2.8,0-4.9-0.7-6.4-1.9c-1.5-1.2-2.5-2.6-3.2-4.1c-0.8-1.8-1.3-3.8-1.4-6.1V35.7c0.1-2.2,0.5-4.3,1.4-6.1
			c0.7-1.5,1.7-3.1,3.2-4.2c1.5-1.2,3.7-1.9,6.4-1.9c2.8,0,4.8,0.8,6.4,1.9c1.5,1.1,2.6,2.7,3.3,4.2c0.8,1.8,1.3,3.8,1.4,6.1V68.8z
			 M462.1,35.7c0-1.5-0.3-2.6-1.1-3.5c-0.4-0.4-1-0.6-1.7-0.6c-1.5,0-2.1,1.1-2.5,2.1c-0.2,0.6-0.3,1.3-0.3,2.1v33.2
			c0,1.6,0.4,2.7,1.1,3.5c0.4,0.4,0.9,0.6,1.6,0.6c1.5,0,2.1-0.9,2.5-2.1c0.2-0.5,0.3-1.2,0.3-2.1V35.7z"/>
		<path id="XMLID_2071_" class="st3" d="M474.2,36.3V31c3.4-0.7,5.5-2.5,7-4c0.8-0.9,1.4-1.9,1.8-2.9h5v56.3h-8.3V36.3H474.2z"/>
		<path id="XMLID_2073_" class="st3" d="M506.1,32.3h-12.4v-8.2h20.8v8.3l-8.3,48.1h-8.6L506.1,32.3z"/>
	</g>
	<g id="XMLID_2075_">
		<polygon id="XMLID_2076_" class="st4" points="405.6,65 309.4,65 321,33.5 394,33.5 		"/>
		<polygon id="XMLID_2394_" class="st5" points="372.5,50.1 340.9,50.1 367.3,8.6 389.4,22.5 		"/>
		<line id="XMLID_2393_" class="st6" x1="331" y1="50.1" x2="384.1" y2="50.1"/>
	</g>
</g>
</svg>
