<?xml version="1.0" encoding="utf-8"?>
<!-- Generator: Adobe Illustrator 16.0.4, SVG Export Plug-In . SVG Version: 6.00 Build 0)  -->
<!DOCTYPE svg PUBLIC "-//W3C//DTD SVG 1.1//EN" "http://www.w3.org/Graphics/SVG/1.1/DTD/svg11.dtd">
<svg version="1.1" id="Ebene_1" xmlns="http://www.w3.org/2000/svg" xmlns:xlink="http://www.w3.org/1999/xlink" x="0px" y="0px"
	 width="212px" height="136px" viewBox="35.161 22.586 212 136" enable-background="new 35.161 22.586 212 136"
	 xml:space="preserve">
<g>
	<g>
		<path fill="#19181B" d="M42.948,157.57c-3.928,0-7.128-3.2-7.128-7.129V60.05c0-3.93,3.201-7.122,7.128-7.122h196.426
			c3.929,0,7.126,3.192,7.126,7.122v90.391c0,3.929-3.197,7.129-7.126,7.129H42.948"/>
		<path fill="#19181B" d="M239.374,53.462c3.635,0,6.592,2.953,6.592,6.588v90.396c0,3.627-2.957,6.587-6.592,6.587H42.948
			c-3.635,0-6.591-2.96-6.591-6.587V60.05c0-3.636,2.956-6.588,6.591-6.588H239.374 M239.374,52.392H42.948
			c-4.223,0-7.658,3.434-7.658,7.658v90.396c0,4.219,3.436,7.658,7.658,7.658h196.426c4.221,0,7.658-3.439,7.658-7.658V60.05
			C247.032,55.826,243.594,52.392,239.374,52.392"/>
		<path fill="#FFFFFF" d="M245.639,77.644V60.05c0-3.455-2.809-6.263-6.266-6.263h-43.497v23.857H245.639z"/>
		<polygon fill="#FFFFFF" points="50.641,69.61 49.34,69.61 47.872,64.767 46.396,69.61 45.095,69.61 42.966,61.626 44.59,61.626 
			45.824,66.66 47.283,61.626 48.45,61.626 49.913,66.66 51.154,61.626 52.782,61.626 		"/>
		<path fill="#FFFFFF" d="M56.801,61.579h1.493v1.188h-1.493V61.579z M56.822,63.767h1.46v5.846h-1.46V63.767z"/>
		<path fill="#FFFFFF" d="M64.982,69.68c-0.917,0-1.752-0.102-2.49-0.843l0.955-0.949c0.481,0.479,1.108,0.546,1.555,0.546
			c0.505,0,1.035-0.164,1.035-0.604c0-0.291-0.157-0.494-0.62-0.538L64.5,67.203c-1.053-0.103-1.71-0.561-1.71-1.64
			c0-1.212,1.068-1.863,2.256-1.863c0.913,0,1.676,0.157,2.235,0.686l-0.896,0.911c-0.339-0.306-0.854-0.396-1.36-0.396
			c-0.584,0-0.832,0.271-0.832,0.561c0,0.216,0.09,0.463,0.606,0.506l0.923,0.091c1.157,0.113,1.741,0.729,1.741,1.717
			C67.464,69.065,66.365,69.68,64.982,69.68"/>
		<path fill="#FFFFFF" d="M73.686,69.68c-0.917,0-1.748-0.102-2.489-0.843l0.954-0.949c0.483,0.479,1.111,0.546,1.559,0.546
			c0.503,0,1.036-0.164,1.036-0.604c0-0.291-0.159-0.494-0.618-0.538l-0.923-0.089c-1.053-0.103-1.706-0.561-1.706-1.64
			c0-1.212,1.066-1.863,2.259-1.863c0.905,0,1.67,0.157,2.229,0.686l-0.896,0.911c-0.339-0.306-0.851-0.396-1.357-0.396
			c-0.582,0-0.835,0.271-0.835,0.561c0,0.216,0.094,0.463,0.61,0.506l0.919,0.091c1.157,0.113,1.74,0.729,1.74,1.717
			C76.169,69.065,75.069,69.68,73.686,69.68"/>
		<path fill="#FFFFFF" d="M81.686,67.147c0,0.75,0.464,1.302,1.282,1.302c0.639,0,0.953-0.18,1.323-0.552l0.889,0.867
			c-0.596,0.592-1.171,0.917-2.223,0.917c-1.382,0-2.706-0.627-2.706-2.996c0-1.906,1.035-2.984,2.548-2.984
			c1.629,0,2.549,1.192,2.549,2.796v0.651L81.686,67.147L81.686,67.147z M83.775,65.516c-0.155-0.346-0.483-0.604-0.978-0.604
			c-0.493,0-0.817,0.259-0.975,0.604c-0.09,0.215-0.122,0.372-0.137,0.631h2.224C83.899,65.888,83.867,65.731,83.775,65.516"/>
		<path fill="#FFFFFF" d="M93.244,69.61v-3.534c0-0.796-0.5-1.063-0.963-1.063c-0.46,0-0.976,0.267-0.976,1.063v3.534h-1.46v-5.843
			h1.425v0.541c0.384-0.404,0.921-0.608,1.462-0.608c0.583,0,1.052,0.192,1.376,0.514c0.47,0.475,0.601,1.024,0.601,1.667v3.729
			L93.244,69.61L93.244,69.61z"/>
		<path fill="#FFFFFF" d="M101.348,69.68c-0.922,0-1.752-0.102-2.494-0.843l0.958-0.949c0.479,0.479,1.11,0.546,1.56,0.546
			c0.504,0,1.033-0.164,1.033-0.604c0-0.291-0.163-0.494-0.621-0.538l-0.917-0.089c-1.054-0.103-1.706-0.561-1.706-1.64
			c0-1.212,1.065-1.863,2.253-1.863c0.912,0,1.677,0.157,2.234,0.686l-0.897,0.911c-0.337-0.306-0.851-0.396-1.356-0.396
			c-0.586,0-0.834,0.271-0.834,0.561c0,0.216,0.093,0.463,0.609,0.506l0.92,0.091c1.153,0.113,1.741,0.729,1.741,1.717
			C103.832,69.065,102.731,69.68,101.348,69.68"/>
		<path fill="#FFFFFF" d="M110.527,69.68c-1.167,0-2.613-0.624-2.613-2.996c0-2.369,1.447-2.984,2.613-2.984
			c0.809,0,1.416,0.247,1.933,0.785l-0.988,0.987c-0.306-0.322-0.564-0.459-0.945-0.459c-0.349,0-0.616,0.125-0.832,0.385
			c-0.223,0.278-0.323,0.674-0.323,1.286c0,0.62,0.1,1.02,0.323,1.302c0.216,0.258,0.483,0.38,0.832,0.38
			c0.38,0,0.639-0.129,0.945-0.459l0.988,0.976C111.942,69.422,111.337,69.68,110.527,69.68"/>
		<path fill="#FFFFFF" d="M120.1,69.61v-3.561c0-0.776-0.494-1.036-0.955-1.036c-0.457,0-0.946,0.267-0.946,1.036v3.561h-1.454
			v-7.984h1.454v2.682c0.395-0.404,0.89-0.608,1.406-0.608c1.28,0,1.954,0.898,1.954,2.13v3.781H120.1z"/>
		<path fill="#FFFFFF" d="M129.276,69.61v-0.502c-0.389,0.393-0.76,0.565-1.436,0.565c-0.661,0-1.143-0.173-1.488-0.518
			c-0.314-0.325-0.488-0.8-0.488-1.313c0-0.93,0.64-1.693,2-1.693h1.382v-0.294c0-0.639-0.314-0.917-1.094-0.917
			c-0.559,0-0.816,0.133-1.118,0.481l-0.929-0.913c0.571-0.623,1.129-0.804,2.106-0.804c1.639,0,2.489,0.699,2.489,2.067v3.843
			L129.276,69.61L129.276,69.61z M129.247,67.143h-1.159c-0.527,0-0.818,0.246-0.818,0.667c0,0.404,0.27,0.67,0.841,0.67
			c0.406,0,0.665-0.031,0.918-0.282c0.163-0.141,0.218-0.38,0.218-0.737V67.143z"/>
		<path fill="#FFFFFF" d="M137.065,65.045v4.565h-1.455v-4.565H135v-1.109h0.611v-0.729c0-0.831,0.513-1.67,1.702-1.67h0.828v1.236
			h-0.568c-0.35,0-0.506,0.188-0.506,0.525v0.639h1.074v1.109H137.065z"/>
		<path fill="#FFFFFF" d="M144.251,69.61c-1.189,0-1.693-0.835-1.693-1.671v-2.894h-0.622v-1.109h0.622v-1.729h1.458v1.729h1.028
			v1.109h-1.028v2.804c0,0.341,0.152,0.533,0.499,0.533h0.529v1.228H144.251z"/>
		<path fill="#FFFFFF" d="M151.44,69.68c-0.919,0-1.749-0.102-2.494-0.843l0.961-0.949c0.479,0.479,1.107,0.546,1.555,0.546
			c0.506,0,1.035-0.164,1.035-0.604c0-0.291-0.158-0.494-0.617-0.538l-0.921-0.089c-1.051-0.103-1.702-0.561-1.702-1.64
			c0-1.212,1.062-1.863,2.253-1.863c0.907,0,1.671,0.157,2.234,0.686l-0.899,0.911c-0.336-0.306-0.854-0.396-1.359-0.396
			c-0.582,0-0.825,0.271-0.825,0.561c0,0.216,0.084,0.463,0.601,0.506l0.921,0.091c1.157,0.113,1.738,0.729,1.738,1.717
			C153.921,69.065,152.825,69.68,151.44,69.68"/>
		<path fill="#FFFFFF" d="M158.051,71.798h-0.83v-1.232h0.562c0.368,0,0.516-0.18,0.516-0.529v-6.27h1.459v6.364
			C159.756,70.962,159.25,71.798,158.051,71.798 M158.274,61.579h1.494v1.188h-1.494V61.579z"/>
		<path fill="#FFFFFF" d="M167.533,69.61v-0.502c-0.396,0.393-0.761,0.565-1.437,0.565c-0.661,0-1.144-0.173-1.494-0.518
			c-0.312-0.325-0.482-0.8-0.482-1.313c0-0.93,0.641-1.693,2-1.693h1.382v-0.294c0-0.639-0.313-0.917-1.09-0.917
			c-0.563,0-0.821,0.133-1.122,0.481l-0.935-0.913c0.577-0.623,1.136-0.804,2.111-0.804c1.641,0,2.489,0.699,2.489,2.067v3.843
			L167.533,69.61L167.533,69.61z M167.502,67.143h-1.159c-0.527,0-0.822,0.246-0.822,0.667c0,0.404,0.271,0.67,0.846,0.67
			c0.406,0,0.666-0.031,0.92-0.282c0.157-0.141,0.216-0.38,0.216-0.737V67.143z"/>
		<path fill="#FFFFFF" d="M177.036,69.61v-3.561c0-0.776-0.494-1.036-0.952-1.036c-0.46,0-0.942,0.267-0.942,1.036v3.561h-1.458
			v-7.984h1.458v2.682c0.395-0.404,0.883-0.608,1.4-0.608c1.279,0,1.953,0.898,1.953,2.13v3.781H177.036z"/>
		<path fill="#FFFFFF" d="M186.399,65.363c-0.229-0.228-0.418-0.349-0.775-0.349c-0.447,0-0.947,0.337-0.947,1.079v3.521h-1.455
			v-5.846h1.426v0.564c0.282-0.341,0.842-0.632,1.471-0.632c0.57,0,0.977,0.145,1.378,0.549L186.399,65.363z"/>
		<polygon fill="#19181B" points="44.719,30.264 44.719,22.63 49.754,22.63 49.754,23.959 46.212,23.959 46.212,25.747 
			49.224,25.747 49.224,27.08 46.212,27.08 46.212,28.934 49.754,28.934 49.754,30.264 		"/>
		<path fill="#19181B" d="M51.212,22.586h1.423v1.137h-1.423V22.586z M51.23,24.677h1.395v5.587H51.23V24.677z"/>
		<path fill="#19181B" d="M57.563,30.264v-3.377c0-0.765-0.48-1.019-0.922-1.019s-0.935,0.255-0.935,1.019v3.376h-1.395v-5.587h1.36
			v0.514c0.369-0.385,0.881-0.577,1.396-0.577c0.555,0,1.008,0.179,1.319,0.494c0.454,0.451,0.566,0.977,0.566,1.588v3.568
			L57.563,30.264L57.563,30.264z"/>
		<path fill="#19181B" d="M61.682,27.907c0,0.718,0.44,1.247,1.223,1.247c0.611,0,0.912-0.176,1.265-0.529l0.847,0.823
			c-0.565,0.573-1.111,0.883-2.123,0.883c-1.318,0-2.582-0.601-2.582-2.867c0-1.823,0.982-2.847,2.431-2.847
			c1.556,0,2.439,1.133,2.439,2.667v0.623H61.682z M63.677,26.354c-0.147-0.337-0.458-0.583-0.933-0.583
			c-0.472,0-0.78,0.247-0.931,0.583c-0.085,0.201-0.118,0.35-0.129,0.596h2.124C63.794,26.704,63.764,26.555,63.677,26.354"/>
		<rect x="69.323" y="22.63" fill="#19181B" width="1.487" height="7.634"/>
		<path fill="#19181B" d="M75.868,30.264v-3.377c0-0.765-0.481-1.019-0.922-1.019s-0.935,0.255-0.935,1.019v3.376h-1.394v-5.587
			h1.36v0.514c0.364-0.385,0.88-0.577,1.396-0.577c0.555,0,1.008,0.179,1.319,0.494c0.454,0.451,0.567,0.977,0.567,1.588v3.568
			L75.868,30.264L75.868,30.264z"/>
		<path fill="#19181B" d="M78.871,22.586h1.422v1.137h-1.422V22.586z M78.892,24.677h1.395v5.587h-1.395V24.677z"/>
		<path fill="#19181B" d="M83.721,30.264c-1.138,0-1.619-0.804-1.619-1.596V25.9H81.51v-1.062h0.593v-1.651h1.392v1.651h0.987V25.9
			h-0.987v2.683c0,0.325,0.15,0.505,0.482,0.505h0.505v1.176L83.721,30.264L83.721,30.264z"/>
		<path fill="#19181B" d="M85.856,22.586h1.426v1.137h-1.426V22.586z M85.88,24.677h1.394v5.587H85.88V24.677z"/>
		<path fill="#19181B" d="M91.821,30.268v-0.482c-0.375,0.373-0.729,0.533-1.375,0.533c-0.627,0-1.094-0.16-1.425-0.494
			c-0.3-0.31-0.458-0.761-0.458-1.255c0-0.89,0.612-1.62,1.907-1.62h1.322v-0.277c0-0.612-0.302-0.879-1.043-0.879
			c-0.537,0-0.78,0.129-1.074,0.463l-0.889-0.871c0.547-0.6,1.083-0.769,2.018-0.769c1.564,0,2.382,0.663,2.382,1.969v3.682H91.821z
			 M91.791,27.907h-1.106c-0.506,0-0.782,0.236-0.782,0.631c0,0.389,0.253,0.643,0.801,0.643c0.387,0,0.633-0.028,0.881-0.267
			c0.15-0.137,0.205-0.364,0.205-0.709L91.791,27.907L91.791,27.907z"/>
		<path fill="#19181B" d="M96.561,30.264c-1.135,0-1.618-0.804-1.618-1.596V25.9h-0.592v-1.062h0.592v-1.651h1.396v1.651h0.985V25.9
			H96.34v2.683c0,0.325,0.148,0.505,0.48,0.505h0.505v1.176L96.561,30.264L96.561,30.264z"/>
		<path fill="#19181B" d="M98.7,22.586h1.426v1.137H98.7V22.586z M98.723,24.677h1.393v5.587h-1.393V24.677z"/>
		<polygon fill="#19181B" points="104.213,30.264 103.12,30.264 101.061,24.677 102.531,24.677 103.668,28.131 104.794,24.677 
			106.26,24.677 		"/>
		<path fill="#19181B" d="M108.208,27.907c0,0.718,0.441,1.247,1.224,1.247c0.611,0,0.908-0.176,1.265-0.529l0.847,0.823
			c-0.569,0.573-1.117,0.883-2.124,0.883c-1.319,0-2.587-0.601-2.587-2.867c0-1.823,0.99-2.847,2.435-2.847
			c1.559,0,2.435,1.133,2.435,2.667v0.623H108.208z M110.201,26.354c-0.152-0.337-0.462-0.583-0.935-0.583
			c-0.471,0-0.782,0.247-0.931,0.583c-0.086,0.201-0.117,0.35-0.127,0.596h2.123C110.319,26.704,110.289,26.555,110.201,26.354"/>
		<path fill="#19181B" d="M118.829,30.264V29.74c-0.388,0.431-0.794,0.592-1.388,0.592c-0.546,0-1.061-0.196-1.37-0.506
			c-0.559-0.556-0.57-1.521-0.57-2.356c0-0.84,0.012-1.792,0.57-2.353c0.31-0.31,0.816-0.502,1.359-0.502
			c0.57,0,1,0.148,1.364,0.556V22.63h1.395v7.634H118.829z M117.842,25.868c-0.837,0-0.947,0.687-0.947,1.6s0.109,1.604,0.947,1.604
			c0.835,0,0.953-0.69,0.953-1.604S118.677,25.868,117.842,25.868"/>
		<path fill="#19181B" d="M122.982,27.907c0,0.718,0.438,1.247,1.222,1.247c0.611,0,0.908-0.176,1.264-0.529l0.847,0.823
			c-0.566,0.573-1.113,0.883-2.121,0.883c-1.321,0-2.586-0.601-2.586-2.867c0-1.823,0.988-2.847,2.435-2.847
			c1.555,0,2.435,1.133,2.435,2.667v0.623H122.982z M124.972,26.354c-0.146-0.337-0.461-0.583-0.931-0.583
			c-0.471,0-0.782,0.247-0.929,0.583c-0.088,0.201-0.124,0.35-0.13,0.596h2.12C125.09,26.704,125.058,26.555,124.972,26.354"/>
		<path fill="#19181B" d="M129.728,30.331c-0.882,0-1.675-0.099-2.382-0.805l0.912-0.913c0.458,0.458,1.064,0.529,1.49,0.529
			c0.48,0,0.985-0.165,0.985-0.581c0-0.278-0.146-0.474-0.587-0.513l-0.881-0.091c-1.008-0.094-1.632-0.533-1.632-1.564
			c0-1.161,1.02-1.777,2.157-1.777c0.87,0,1.6,0.146,2.134,0.651l-0.855,0.866c-0.322-0.286-0.817-0.373-1.297-0.373
			c-0.56,0-0.797,0.255-0.797,0.533c0,0.204,0.088,0.44,0.583,0.486l0.876,0.083c1.106,0.105,1.665,0.698,1.665,1.642
			C132.099,29.74,131.046,30.331,129.728,30.331"/>
		<path fill="#19181B" d="M139.322,30.264h-3.199V22.63h3.07c1.487,0,2.354,0.835,2.354,2.145c0,0.847-0.554,1.396-0.94,1.576
			c0.462,0.216,1.051,0.699,1.051,1.714C141.657,29.495,140.681,30.264,139.322,30.264 M139.075,23.959h-1.46v1.76h1.46
			c0.629,0,0.983-0.356,0.983-0.882S139.704,23.959,139.075,23.959 M139.169,27.06h-1.554v1.875h1.554
			c0.677,0,0.998-0.428,0.998-0.945C140.167,27.476,139.845,27.06,139.169,27.06"/>
		<path fill="#19181B" d="M146.421,30.264V29.75c-0.363,0.384-0.878,0.58-1.391,0.58c-0.561,0-1.012-0.185-1.319-0.49
			c-0.454-0.459-0.571-0.979-0.571-1.592v-3.571h1.394v3.38c0,0.76,0.485,1.015,0.924,1.015c0.439,0,0.933-0.255,0.933-1.015v-3.38
			h1.392v5.587H146.421z"/>
		<path fill="#19181B" d="M152.732,30.264v-3.377c0-0.765-0.481-1.019-0.923-1.019c-0.44,0-0.933,0.255-0.933,1.019v3.376h-1.396
			v-5.587h1.364v0.514c0.365-0.385,0.877-0.577,1.395-0.577c0.555,0,1.006,0.179,1.319,0.494c0.445,0.451,0.568,0.977,0.568,1.588
			v3.568L152.732,30.264L152.732,30.264z"/>
		<path fill="#19181B" d="M158.847,30.264V29.74c-0.386,0.431-0.796,0.592-1.384,0.592c-0.549,0-1.061-0.196-1.372-0.506
			c-0.56-0.556-0.571-1.521-0.571-2.356c0-0.84,0.012-1.792,0.571-2.353c0.312-0.31,0.812-0.502,1.359-0.502
			c0.569,0,0.998,0.148,1.362,0.556V22.63h1.395v7.634H158.847z M157.859,25.868c-0.839,0-0.944,0.687-0.944,1.6
			s0.105,1.604,0.944,1.604c0.837,0,0.955-0.69,0.955-1.604S158.696,25.868,157.859,25.868"/>
		<path fill="#19181B" d="M163.003,27.907c0,0.718,0.438,1.247,1.217,1.247c0.615,0,0.918-0.176,1.271-0.529l0.843,0.823
			c-0.567,0.573-1.114,0.883-2.122,0.883c-1.322,0-2.586-0.601-2.586-2.867c0-1.823,0.988-2.847,2.438-2.847
			c1.553,0,2.433,1.133,2.433,2.667v0.623H163.003z M164.996,26.354c-0.153-0.337-0.464-0.583-0.933-0.583
			c-0.473,0-0.785,0.247-0.932,0.583c-0.088,0.201-0.123,0.35-0.129,0.596h2.123C165.11,26.704,165.083,26.555,164.996,26.354"/>
		<path fill="#19181B" d="M169.749,30.331c-0.879,0-1.674-0.099-2.383-0.805l0.912-0.913c0.463,0.458,1.064,0.529,1.494,0.529
			c0.482,0,0.983-0.165,0.983-0.581c0-0.278-0.149-0.474-0.59-0.513l-0.877-0.091c-1.012-0.094-1.635-0.533-1.635-1.564
			c0-1.161,1.023-1.777,2.158-1.777c0.865,0,1.6,0.146,2.136,0.651l-0.859,0.866c-0.324-0.286-0.812-0.373-1.3-0.373
			c-0.555,0-0.79,0.255-0.79,0.533c0,0.204,0.084,0.44,0.578,0.486l0.881,0.083c1.102,0.105,1.66,0.698,1.66,1.642
			C172.119,29.74,171.066,30.331,169.749,30.331"/>
		<path fill="#19181B" d="M179.919,30.264v-3.377c0-0.765-0.482-1.019-0.918-1.019c-0.434,0-0.936,0.255-0.936,0.983v3.411h-1.396
			v-3.376c0-0.765-0.482-1.019-0.922-1.019c-0.44,0-0.935,0.255-0.935,1.019v3.376h-1.392v-5.587h1.361v0.514
			c0.358-0.373,0.878-0.577,1.392-0.577c0.623,0,1.129,0.223,1.484,0.709c0.471-0.494,0.977-0.709,1.672-0.709
			c0.558,0,1.063,0.179,1.373,0.494c0.449,0.451,0.611,0.977,0.611,1.588v3.568L179.919,30.264L179.919,30.264z"/>
		<path fill="#19181B" d="M182.928,22.586h1.425v1.137h-1.425V22.586z M182.947,24.677h1.395v5.587h-1.395V24.677z"/>
		<path fill="#19181B" d="M189.276,30.264v-3.377c0-0.765-0.482-1.019-0.923-1.019c-0.438,0-0.929,0.255-0.929,1.019v3.376h-1.398
			v-5.587h1.363v0.514c0.365-0.385,0.879-0.577,1.393-0.577c0.559,0,1.008,0.179,1.318,0.494c0.451,0.451,0.57,0.977,0.57,1.588
			v3.568L189.276,30.264L189.276,30.264z"/>
		<path fill="#19181B" d="M192.282,22.586h1.422v1.137h-1.422V22.586z M192.305,24.677h1.394v5.587h-1.394V24.677z"/>
		<path fill="#19181B" d="M197.217,30.331c-0.878,0-1.677-0.099-2.38-0.805l0.909-0.913c0.463,0.458,1.065,0.529,1.49,0.529
			c0.482,0,0.987-0.165,0.987-0.581c0-0.278-0.148-0.474-0.59-0.513l-0.877-0.091c-1.012-0.094-1.635-0.533-1.635-1.564
			c0-1.161,1.023-1.777,2.158-1.777c0.871,0,1.599,0.146,2.136,0.651l-0.858,0.866c-0.322-0.286-0.816-0.373-1.295-0.373
			c-0.562,0-0.797,0.255-0.797,0.533c0,0.204,0.085,0.44,0.578,0.486l0.876,0.083c1.106,0.105,1.666,0.698,1.666,1.642
			C199.587,29.74,198.534,30.331,197.217,30.331"/>
		<path fill="#19181B" d="M202.528,30.264c-1.142,0-1.617-0.804-1.617-1.596V25.9h-0.595v-1.062h0.595v-1.651h1.392v1.651h0.987
			V25.9h-0.987v2.683c0,0.325,0.148,0.505,0.482,0.505h0.506v1.176L202.528,30.264L202.528,30.264z"/>
		<path fill="#19181B" d="M205.745,27.907c0,0.718,0.439,1.247,1.225,1.247c0.611,0,0.91-0.176,1.264-0.529l0.848,0.823
			c-0.564,0.573-1.111,0.883-2.123,0.883c-1.318,0-2.582-0.601-2.582-2.867c0-1.823,0.982-2.847,2.433-2.847
			c1.556,0,2.437,1.133,2.437,2.667v0.623H205.745z M207.74,26.354c-0.147-0.337-0.459-0.583-0.932-0.583
			c-0.469,0-0.784,0.247-0.933,0.583c-0.089,0.201-0.118,0.35-0.13,0.596h2.123C207.863,26.704,207.824,26.555,207.74,26.354"/>
		<path fill="#19181B" d="M213.698,26.201c-0.217-0.215-0.4-0.333-0.74-0.333c-0.43,0-0.9,0.321-0.9,1.031v3.368h-1.395v-5.591
			h1.359v0.537c0.27-0.317,0.806-0.596,1.406-0.596c0.546,0,0.936,0.137,1.321,0.521L213.698,26.201z"/>
		<path fill="#19181B" d="M215.65,22.586h1.429v1.137h-1.429V22.586z M215.671,24.677h1.395v5.587h-1.395V24.677z"/>
		<path fill="#19181B" d="M221.968,30.264V29.75c-0.365,0.384-0.877,0.58-1.395,0.58c-0.559,0-1.006-0.185-1.319-0.49
			c-0.451-0.459-0.568-0.979-0.568-1.592v-3.571h1.394v3.38c0,0.76,0.482,1.015,0.924,1.015c0.435,0,0.935-0.255,0.935-1.015v-3.38
			h1.394v5.587H221.968z"/>
		<path fill="#19181B" d="M231.527,30.264v-3.377c0-0.765-0.482-1.019-0.925-1.019c-0.428,0-0.93,0.255-0.93,0.983v3.411h-1.396
			v-3.376c0-0.765-0.483-1.019-0.922-1.019c-0.441,0-0.936,0.255-0.936,1.019v3.376h-1.393v-5.587h1.359v0.514
			c0.364-0.373,0.883-0.577,1.396-0.577c0.624,0,1.13,0.223,1.482,0.709c0.474-0.494,0.979-0.709,1.672-0.709
			c0.56,0,1.06,0.179,1.375,0.494c0.449,0.451,0.608,0.977,0.608,1.588v3.568L231.527,30.264L231.527,30.264z"/>
		<path fill="#19181B" d="M236.385,30.331c-0.874,0-1.67-0.099-2.379-0.805l0.912-0.913c0.463,0.458,1.062,0.529,1.488,0.529
			c0.488,0,0.988-0.165,0.988-0.581c0-0.278-0.147-0.474-0.588-0.513l-0.877-0.091c-1.012-0.094-1.636-0.533-1.636-1.564
			c0-1.161,1.018-1.777,2.159-1.777c0.87,0,1.6,0.146,2.135,0.651l-0.858,0.866c-0.324-0.286-0.817-0.373-1.3-0.373
			c-0.559,0-0.791,0.255-0.791,0.533c0,0.204,0.084,0.44,0.579,0.486l0.88,0.083c1.102,0.105,1.66,0.698,1.66,1.642
			C238.76,29.74,237.708,30.331,236.385,30.331"/>
		<path fill="#19181B" d="M46.737,37.738v4.364h-1.394v-4.364h-0.577v-1.063h0.577v-0.694c0-0.792,0.493-1.6,1.629-1.6h0.794v1.18
			h-0.547c-0.335,0-0.482,0.185-0.482,0.505v0.608h1.028v1.063H46.737z"/>
		<path fill="#19181B" d="M52.165,42.106v-0.518c-0.364,0.392-0.88,0.58-1.393,0.58c-0.559,0-1.009-0.179-1.318-0.494
			c-0.453-0.447-0.571-0.973-0.571-1.584v-3.572h1.394v3.376c0,0.76,0.482,1.019,0.923,1.019c0.441,0,0.932-0.259,0.932-1.019
			v-3.376h1.396v5.587L52.165,42.106L52.165,42.106z M49.419,34.263h1.188v1.341h-1.188V34.263z M51.789,34.263h1.188v1.341h-1.188
			V34.263z"/>
		<path fill="#19181B" d="M58.238,38.039c-0.214-0.216-0.396-0.333-0.737-0.333c-0.429,0-0.901,0.325-0.901,1.031v3.368h-1.397
			v-5.587h1.362v0.533c0.269-0.322,0.806-0.601,1.406-0.601c0.547,0,0.935,0.141,1.317,0.525L58.238,38.039z"/>
		<path fill="#19181B" d="M66.094,42.106h-3.2v-7.638h3.07c1.488,0,2.358,0.839,2.358,2.148c0,0.847-0.557,1.392-0.944,1.576
			c0.463,0.212,1.055,0.694,1.055,1.714C68.432,41.334,67.452,42.106,66.094,42.106 M65.846,35.801h-1.459v1.756h1.459
			c0.629,0,0.988-0.352,0.988-0.882C66.836,36.154,66.476,35.801,65.846,35.801 M65.94,38.899h-1.553v1.878h1.553
			c0.677,0,0.999-0.431,0.999-0.944C66.939,39.318,66.618,38.899,65.94,38.899"/>
		<path fill="#19181B" d="M69.934,34.429h1.428v1.132h-1.428V34.429z M69.959,36.519h1.393v5.587h-1.393V36.519z"/>
		<path fill="#19181B" d="M74.589,42.106c-1.146,0-1.631-0.804-1.631-1.6v-6.038h1.393v5.952c0,0.338,0.141,0.506,0.494,0.506h0.535
			v1.18L74.589,42.106L74.589,42.106z"/>
		<path fill="#19181B" d="M79.698,42.106V41.58c-0.388,0.431-0.794,0.587-1.384,0.587c-0.551,0-1.063-0.192-1.375-0.505
			c-0.559-0.552-0.57-1.517-0.57-2.356c0-0.835,0.012-1.792,0.57-2.353c0.312-0.31,0.818-0.502,1.364-0.502
			c0.565,0,0.999,0.149,1.359,0.561v-2.544h1.396v7.638L79.698,42.106L79.698,42.106z M78.711,37.706
			c-0.835,0-0.947,0.687-0.947,1.6c0,0.914,0.111,1.608,0.947,1.608c0.839,0,0.952-0.694,0.952-1.608S79.55,37.706,78.711,37.706"/>
		<path fill="#19181B" d="M85.95,42.106v-0.514c-0.364,0.388-0.876,0.576-1.393,0.576c-0.557,0-1.008-0.179-1.318-0.493
			c-0.454-0.448-0.571-0.978-0.571-1.584v-3.572h1.394v3.375c0,0.765,0.485,1.019,0.923,1.019c0.442,0,0.932-0.255,0.932-1.019
			v-3.375h1.396v5.587H85.95z"/>
		<path fill="#19181B" d="M92.239,42.106V38.73c0-0.765-0.483-1.023-0.922-1.023c-0.437,0-0.932,0.259-0.932,1.023v3.376h-1.4
			v-5.587h1.365v0.513c0.365-0.388,0.88-0.58,1.394-0.58c0.559,0,1.012,0.185,1.322,0.495c0.449,0.451,0.566,0.977,0.566,1.588
			v3.572L92.239,42.106L92.239,42.106z"/>
		<path fill="#19181B" d="M97.179,44.219c-0.859,0-1.451-0.172-2.031-0.729l0.871-0.878c0.307,0.293,0.619,0.427,1.094,0.427
			c0.836,0,1.125-0.588,1.125-1.156v-0.569c-0.365,0.408-0.782,0.558-1.333,0.558c-0.543,0-1.016-0.185-1.326-0.495
			c-0.528-0.525-0.571-1.248-0.571-2.219c0-0.977,0.042-1.686,0.571-2.212c0.31-0.31,0.793-0.494,1.341-0.494
			c0.588,0,0.974,0.165,1.359,0.592v-0.525h1.353v5.383C99.631,43.243,98.679,44.219,97.179,44.219 M97.314,37.706
			c-0.823,0-0.911,0.706-0.911,1.451c0,0.737,0.088,1.459,0.911,1.459c0.826,0,0.923-0.722,0.923-1.459
			C98.238,38.412,98.139,37.706,97.314,37.706"/>
		<path fill="#19181B" d="M107.119,42.106v-0.514c-0.364,0.388-0.876,0.576-1.394,0.576c-0.554,0-1.009-0.179-1.318-0.493
			c-0.453-0.448-0.57-0.978-0.57-1.584v-3.572h1.394v3.375c0,0.765,0.485,1.019,0.923,1.019c0.442,0,0.936-0.255,0.936-1.019v-3.375
			h1.394v5.587H107.119z"/>
		<path fill="#19181B" d="M113.406,42.106V38.73c0-0.765-0.48-1.023-0.919-1.023c-0.446,0-0.933,0.259-0.933,1.023v3.376h-1.395
			v-5.587h1.359v0.513c0.364-0.388,0.882-0.58,1.394-0.58c0.562,0,1.012,0.185,1.319,0.495c0.455,0.451,0.569,0.977,0.569,1.588
			v3.572L113.406,42.106L113.406,42.106z"/>
		<path fill="#19181B" d="M119.503,42.106V41.58c-0.389,0.431-0.796,0.587-1.385,0.587c-0.547,0-1.059-0.192-1.37-0.505
			c-0.559-0.552-0.57-1.517-0.57-2.356c0-0.835,0.012-1.792,0.57-2.353c0.312-0.31,0.812-0.502,1.361-0.502
			c0.568,0,0.996,0.149,1.361,0.561v-2.544h1.394v7.638L119.503,42.106L119.503,42.106z M118.514,37.706
			c-0.837,0-0.943,0.687-0.943,1.6c0,0.914,0.106,1.608,0.943,1.608c0.839,0,0.957-0.694,0.957-1.608S119.353,37.706,118.514,37.706
			"/>
		<polygon fill="#19181B" points="126.735,35.801 126.735,37.676 129.748,37.676 129.748,39.004 126.735,39.004 126.735,42.106 
			125.244,42.106 125.244,34.468 130.276,34.468 130.276,35.801 		"/>
		<path fill="#19181B" d="M135.075,41.487c-0.338,0.36-0.906,0.682-1.734,0.682c-0.824,0-1.38-0.321-1.726-0.682
			c-0.504-0.533-0.633-1.165-0.633-2.181c0-1.012,0.129-1.644,0.633-2.168c0.346-0.364,0.902-0.686,1.726-0.686
			c0.829,0,1.396,0.322,1.734,0.686c0.507,0.525,0.638,1.157,0.638,2.168C135.713,40.322,135.582,40.953,135.075,41.487
			 M133.995,37.958c-0.16-0.165-0.376-0.25-0.655-0.25c-0.276,0-0.483,0.086-0.641,0.25c-0.288,0.287-0.323,0.768-0.323,1.349
			c0,0.58,0.035,1.074,0.323,1.36c0.159,0.161,0.365,0.247,0.641,0.247c0.278,0,0.495-0.085,0.655-0.247
			c0.292-0.286,0.321-0.78,0.321-1.36C134.316,38.726,134.287,38.243,133.995,37.958"/>
		<path fill="#19181B" d="M140.187,38.039c-0.211-0.216-0.396-0.333-0.741-0.333c-0.429,0-0.9,0.325-0.9,1.031v3.368h-1.394v-5.587
			h1.36v0.533c0.268-0.322,0.804-0.601,1.408-0.601c0.548,0,0.931,0.141,1.32,0.525L140.187,38.039z"/>
		<path fill="#19181B" d="M143.869,42.168c-0.884,0-1.677-0.094-2.384-0.799l0.913-0.918c0.462,0.463,1.064,0.53,1.489,0.53
			c0.486,0,0.986-0.165,0.986-0.577c0-0.282-0.147-0.475-0.588-0.518l-0.881-0.085c-1.008-0.099-1.631-0.538-1.631-1.564
			c0-1.166,1.017-1.785,2.158-1.785c0.864,0,1.598,0.153,2.135,0.659l-0.858,0.865c-0.324-0.293-0.817-0.373-1.3-0.373
			c-0.559,0-0.79,0.255-0.79,0.533c0,0.201,0.083,0.439,0.577,0.483l0.877,0.086c1.106,0.105,1.658,0.694,1.658,1.643
			C146.233,41.581,145.186,42.168,143.869,42.168"/>
		<path fill="#19181B" d="M149.735,42.168c-1.113,0-2.497-0.6-2.497-2.861c0-2.267,1.384-2.855,2.497-2.855
			c0.773,0,1.354,0.235,1.846,0.753l-0.944,0.94c-0.29-0.31-0.537-0.438-0.901-0.438c-0.331,0-0.59,0.117-0.797,0.368
			c-0.207,0.263-0.31,0.64-0.31,1.232c0,0.592,0.103,0.976,0.31,1.243c0.206,0.248,0.465,0.364,0.797,0.364
			c0.364,0,0.611-0.129,0.901-0.438l0.944,0.933C151.088,41.922,150.509,42.168,149.735,42.168"/>
		<path fill="#19181B" d="M155.979,42.106v-3.412c0-0.736-0.471-0.987-0.912-0.987c-0.44,0-0.899,0.259-0.899,0.987v3.412h-1.394
			v-7.638h1.394v2.564c0.377-0.388,0.847-0.58,1.341-0.58c1.224,0,1.864,0.859,1.864,2.04v3.615L155.979,42.106L155.979,42.106z"/>
		<path fill="#19181B" d="M162.202,42.106v-0.514c-0.364,0.388-0.881,0.576-1.393,0.576c-0.56,0-1.008-0.179-1.318-0.493
			c-0.451-0.448-0.571-0.978-0.571-1.584v-3.572h1.395v3.375c0,0.765,0.482,1.019,0.923,1.019c0.441,0,0.932-0.255,0.932-1.019
			v-3.375h1.396v5.587H162.202z"/>
		<path fill="#19181B" d="M168.491,42.106V38.73c0-0.765-0.483-1.023-0.924-1.023c-0.441,0-0.93,0.259-0.93,1.023v3.376h-1.396
			v-5.587h1.361v0.513c0.367-0.388,0.881-0.58,1.395-0.58c0.559,0,1.007,0.185,1.316,0.495c0.453,0.451,0.571,0.977,0.571,1.588
			v3.572L168.491,42.106L168.491,42.106z"/>
		<path fill="#19181B" d="M173.426,44.219c-0.854,0-1.448-0.172-2.023-0.729l0.868-0.878c0.307,0.293,0.619,0.427,1.09,0.427
			c0.841,0,1.13-0.588,1.13-1.156v-0.569c-0.365,0.408-0.782,0.558-1.333,0.558c-0.543,0-1.016-0.185-1.325-0.495
			c-0.526-0.525-0.571-1.248-0.571-2.219c0-0.977,0.045-1.686,0.571-2.212c0.309-0.31,0.788-0.494,1.336-0.494
			c0.593,0,0.981,0.165,1.363,0.592v-0.525h1.353v5.383C175.884,43.243,174.929,44.219,173.426,44.219 M173.566,37.706
			c-0.824,0-0.908,0.706-0.908,1.451c0,0.737,0.084,1.459,0.908,1.459c0.825,0,0.923-0.722,0.923-1.459
			C174.49,38.412,174.391,37.706,173.566,37.706"/>
		<path fill="#19181B" d="M209.93,69.798v-1.373h-3.232l2.337-2.717c0.58-0.671,0.895-1.107,0.895-1.918
			c0-1.506-1.056-2.432-2.542-2.432c-1.431,0-2.549,0.914-2.549,2.44h1.529c0-0.808,0.518-1.067,1.02-1.067
			c0.65,0,1.016,0.423,1.016,1.047c0,0.389-0.13,0.647-0.436,1.012l-3.129,3.636v1.373H209.93z M218.971,67.374v-3.525
			c0-1.6-1.174-2.489-2.539-2.489s-2.553,0.89-2.553,2.489v3.525c0,1.6,1.188,2.494,2.553,2.494S218.971,68.974,218.971,67.374
			 M217.444,67.366c0,0.706-0.406,1.13-1.012,1.13c-0.613,0-1.023-0.424-1.023-1.13v-3.494c0-0.706,0.41-1.141,1.023-1.141
			c0.605,0,1.012,0.435,1.012,1.141V67.366z M226.762,69.798v-8.372h-1.523l-1.706,1.481v1.647l1.706-1.479v6.721H226.762z
			 M237.213,66.978c0-0.788-0.094-1.58-0.747-2.234c-0.341-0.342-0.87-0.565-1.566-0.565c-0.562,0-1.033,0.211-1.257,0.422v-1.799
			h3.388v-1.376h-4.773v4.725h1.398c0.105-0.33,0.388-0.679,1.012-0.679c0.74,0,1.022,0.537,1.022,1.506
			c0,0.53-0.059,0.978-0.329,1.248c-0.189,0.185-0.435,0.271-0.729,0.271c-0.637,0-0.941-0.376-1.024-1.035h-1.528
			c0.047,0.611,0.167,1.224,0.684,1.737c0.363,0.365,0.998,0.671,1.869,0.671c0.869,0,1.47-0.306,1.846-0.683
			C237.089,68.573,237.213,67.915,237.213,66.978"/>
	</g>
	<g>
		<g>
			<defs>
				<path id="SVGID_1_" d="M42.948,53.787c-3.453,0-6.264,2.808-6.264,6.263v90.391c0,3.458,2.81,6.267,6.264,6.267h196.426
					c3.455,0,6.265-2.809,6.265-6.267V60.05c0-3.455-2.81-6.263-6.265-6.263L42.948,53.787L42.948,53.787z"/>
			</defs>
			<clipPath id="SVGID_2_">
				<use xlink:href="#SVGID_1_"  overflow="visible"/>
			</clipPath>
			<rect x="22.452" y="79.035" clip-path="url(#SVGID_2_)" fill="#FBC100" width="231.919" height="77.707"/>
		</g>
	</g>
	<g>
		<g>
			<defs>
				<path id="SVGID_3_" d="M168.302,79.039c-6.347,2.703-12.817,5.65-18.675,8.646c-35.85,18.319-97.909,59.147-110.655,67.597
					c0.879,0.719,1.959,1.208,3.139,1.369c0,0,0,0,0.004,0c0.019,0.004,0.041,0.008,0.064,0.008c0,0,0.006,0,0.012,0
					c0.018,0.004,0.037,0.008,0.057,0.008c0.004,0,0.008,0,0.014,0c0.018,0.004,0.042,0.008,0.059,0.008h0.004
					c0.042,0.005,0.078,0.009,0.118,0.012c0.006,0,0.012,0,0.018,0c0.012,0,0.024,0.005,0.041,0.005
					c0.008,0,0.018,0.004,0.029,0.004s0.029,0,0.041,0c0.012,0,0.027,0,0.035,0.004c0.016,0,0.024,0,0.04,0c0.012,0,0.025,0,0.037,0
					c0.012,0,0.023,0,0.038,0c0.012,0.005,0.027,0.005,0.043,0.005c0.008,0,0.019,0,0.03,0c0.019,0,0.037,0.004,0.052,0.004
					c0.008,0,0.016,0,0.023,0c0.025,0,0.055,0,0.077,0h196.426c3.455,0,6.265-2.809,6.265-6.267V79.039H168.302z"/>
			</defs>
			<clipPath id="SVGID_4_">
				<use xlink:href="#SVGID_3_"  overflow="visible"/>
			</clipPath>
			
				<linearGradient id="SVGID_5_" gradientUnits="userSpaceOnUse" x1="-1360.2615" y1="-176.1394" x2="-1357.2512" y2="-176.1394" gradientTransform="matrix(0 25.8026 -25.8026 0 -4402.543 35177.3047)">
				<stop  offset="0" style="stop-color:#F9B800"/>
				<stop  offset="0.2857" style="stop-color:#F9B800"/>
				<stop  offset="1" style="stop-color:#FBC100"/>
			</linearGradient>
			<rect x="38.972" y="79.039" clip-path="url(#SVGID_4_)" fill="url(#SVGID_5_)" width="206.667" height="77.668"/>
		</g>
	</g>
	<g>
		<path fill="#19181B" d="M50.76,125.052h14.298v-3.208H54.877l10.181-16.63v-2.545h-13.89v3.019h9.744L50.76,122.219V125.052z
			 M68.127,119.708c0,3.614,2.831,5.536,5.342,5.536c1.668,0,3.111-0.632,4.118-1.892h0.064v1.699h3.205v-15.939h-3.205v9.496
			c0,2.169-1.354,3.423-3.145,3.423c-1.823,0-3.171-1.255-3.171-3.423v-9.496h-3.207L68.127,119.708L68.127,119.708z
			 M84.968,125.052h3.205v-4.588l2.517-2.863l4.241,7.451h4.022l-6.251-9.713l5.5-6.228h-3.834l-6.133,7.481h-0.06v-13.924h-3.206
			L84.968,125.052L84.968,125.052z M101.209,119.708c0,3.614,2.828,5.536,5.347,5.536c1.664,0,3.11-0.632,4.116-1.892h0.065v1.699
			h3.205v-15.939h-3.205v9.496c0,2.169-1.354,3.423-3.146,3.423c-1.819,0-3.172-1.255-3.172-3.423v-9.496h-3.208L101.209,119.708
			L101.209,119.708z M118.053,125.052h3.205v-9.493c0-2.17,1.35-3.427,3.177-3.427c1.792,0,3.141,1.259,3.141,3.427v9.493h3.206
			v-10.596c0-3.611-2.83-5.533-5.312-5.533c-1.7,0-3.146,0.632-4.148,1.891h-0.063v-1.701h-3.205V125.052z M135.181,125.052h3.209
			v-13.486h3.202v-2.453h-3.202v-2.103c0-0.977,0.343-1.321,1.38-1.321h1.822v-3.02h-2.071c-2.484,0-4.34,1.354-4.34,4.341v2.103
			h-1.601v2.453h1.601V125.052z M144.885,109.113h-1.602v2.453h1.602v9.557c0,2.514,1.637,3.929,3.865,3.929h1.664v-3.02h-1.189
			c-0.786,0-1.134-0.31-1.134-1.192v-9.273h2.323v-2.453h-2.323v-4.839h-3.206V109.113z M152.503,122.38
			c2.048,1.918,4.436,2.863,7.012,2.863c3.711,0,6.604-1.793,6.604-4.909c0-2.546-1.322-4.557-4.623-4.776l-2.64-0.188
			c-1.604-0.125-2.105-0.815-2.105-1.509c0-1.104,0.688-1.919,2.734-1.919c1.729,0,3.015,0.601,4.272,1.479l1.984-2.33
			c-1.574-1.317-3.456-2.168-6.257-2.168c-3.363,0-5.94,1.667-5.94,4.91c0,2.729,1.947,4.3,4.588,4.52l2.829,0.255
			c1.1,0.095,1.946,0.435,1.946,1.573c0,1.35-1.317,2.039-3.141,2.039c-2.14,0-3.646-0.689-5.033-2.039L152.503,122.38z
			 M168.184,122.38c2.041,1.918,4.429,2.863,7.007,2.863c3.714,0,6.6-1.793,6.6-4.909c0-2.546-1.319-4.557-4.62-4.776l-2.64-0.188
			c-1.603-0.125-2.106-0.815-2.106-1.509c0-1.104,0.694-1.919,2.734-1.919c1.729,0,3.018,0.601,4.276,1.479l1.981-2.33
			c-1.576-1.317-3.461-2.168-6.258-2.168c-3.364,0-5.94,1.667-5.94,4.91c0,2.729,1.949,4.3,4.588,4.52l2.829,0.255
			c1.099,0.095,1.951,0.435,1.951,1.573c0,1.35-1.322,2.039-3.146,2.039c-2.137,0-3.646-0.689-5.028-2.039L168.184,122.38z
			 M185.6,109.113h-1.605v2.453h1.605v9.557c0,2.514,1.635,3.929,3.868,3.929h1.663v-3.02h-1.196c-0.782,0-1.13-0.31-1.13-1.192
			v-9.273h2.326v-2.453h-2.326v-4.839H185.6V109.113z M203.005,125.052h3.205v-10.878c0-3.929-2.705-5.251-6.635-5.251
			c-2.389,0-4.153,0.632-5.377,2.329l2.513,1.917c0.57-0.913,1.353-1.227,3.017-1.227c2.3,0,3.276,0.533,3.276,2.043v1.668h-4.435
			c-3.43,0-5.188,2.168-5.188,4.717c0,2.764,2.076,4.874,5.626,4.874c2.173,0,3.271-0.507,3.932-1.608h0.064L203.005,125.052
			L203.005,125.052z M203.005,119.456c0,2.485-0.918,2.765-3.588,2.765c-2.168,0-3.019-0.945-3.019-2.013
			c0-1.165,0.884-1.918,2.768-1.918h3.839V119.456z M219.608,125.052h3.206v-22.383h-3.206v8.145
			c-1.193-1.134-2.482-1.891-4.116-1.891c-1.947,0-3.364,0.886-4.27,2.074c-0.885,1.134-1.136,2.172-1.136,6.066
			c0,3.934,0.251,4.968,1.136,6.098c0.905,1.195,2.323,2.082,4.27,2.082c1.635,0,3.11-0.757,4.116-1.859V125.052z M216.468,112.131
			c2.985,0,3.141,2.643,3.141,4.933c0,2.329-0.154,4.968-3.141,4.968c-3.018,0-3.174-2.481-3.174-4.968
			C213.294,114.614,213.45,112.131,216.468,112.131 M226.985,109.113h-1.603v2.453h1.603v9.557c0,2.514,1.635,3.929,3.867,3.929
			h1.668v-3.02h-1.201c-0.782,0-1.129-0.31-1.129-1.192v-9.273h2.329v-2.453h-2.329v-4.839h-3.205V109.113L226.985,109.113z"/>
	</g>
</g>
</svg>
